<svg viewBox="0 0 375 531" fill="none" xmlns="http://www.w3.org/2000/svg"><g filter="url(#a)"><path d="m95.993 12.762-11.792 3.044a45.136 45.136 0 0 1-20.514.479c-22.557-4.714-45.118 8.553-52.238 30.47a45.755 45.755 0 0 0-1.727 20.963l4.539 29.801a172.717 172.717 0 0 1 .115 51.248l-1.706 11.548a204.972 204.972 0 0 0 .293 61.831l.46 2.926a186.81 186.81 0 0 1-.332 60.144 186.804 186.804 0 0 0-.476 59.219l.861 5.654a222.427 222.427 0 0 1 .748 61.64L8.8 454.232c-.467 3.661-1.295 7.267-1.953 10.898-1.648 9.096-.85 17.783 2.004 27.736 6.28 21.897 31.571 31.348 53.05 23.762a44.256 44.256 0 0 1 27.413-.671l6.51 1.947a65.1 65.1 0 0 0 34.557.755l9.236-2.327a87.38 87.38 0 0 1 36.059-1.402 87.425 87.425 0 0 0 26.61.432l10.818-1.488a102.777 102.777 0 0 1 29.751.257l1.739.27a93.707 93.707 0 0 0 35.762-1.367l9.156-2.147a54.065 54.065 0 0 1 24.958.065c16.4 3.934 34.881 1.225 46.32-11.169 8.488-9.196 12.36-19.734 9.007-40.053l-5.612-48.017a242.386 242.386 0 0 1 .687-61.624l.79-5.666a203.46 203.46 0 0 0-.438-59.207 203.505 203.505 0 0 1-.306-60.135l.424-2.935a223.35 223.35 0 0 0 .269-61.824l-.462-3.416a247.994 247.994 0 0 1 .139-67.523l3.136-22.479c.913-6.544 1.391-13.191.369-19.719-1.558-9.946-4.577-16.683-8.951-22.249-10.052-12.79-28.538-14.444-44.237-10.186a52.583 52.583 0 0 1-27.234.078l-7.16-1.898a71.418 71.418 0 0 0-37.166.155l-1.814.497a64.79 64.79 0 0 1-35.374-.323 64.79 64.79 0 0 0-35.872-.184l-.767.217a67.552 67.552 0 0 1-36.461.077l-.955-.266a71.094 71.094 0 0 0-36.81-.34z" fill="#1E4482"/></g><defs><filter id="a" x="-4" y=".506" width="385" height="530.127" filterUnits="userSpaceOnUse" color-interpolation-filters="sRGB"><feFlood flood-opacity="0" result="BackgroundImageFix"/><feBlend in="SourceGraphic" in2="BackgroundImageFix" result="shape"/><feTurbulence type="fractalNoise" baseFrequency="0.625 0.625" stitchTiles="stitch" numOctaves="3" result="noise" seed="6386"/><feColorMatrix in="noise" type="luminanceToAlpha" result="alphaNoise"/><feComponentTransfer in="alphaNoise" result="coloredNoise1"><feFuncA type="discrete" tableValues="1 1 1 1 1 1 1 1 1 1 1 1 1 1 1 1 1 1 1 1 1 1 1 1 1 1 1 1 1 1 1 1 1 1 1 1 1 1 1 1 1 1 1 1 1 1 1 1 1 1 1 0 0 0 0 0 0 0 0 0 0 0 0 0 0 0 0 0 0 0 0 0 0 0 0 0 0 0 0 0 0 0 0 0 0 0 0 0 0 0 0 0 0 0 0 0 0 0 0 0"/></feComponentTransfer><feComposite operator="in" in2="shape" in="coloredNoise1" result="noise1Clipped"/><feFlood flood-color="rgba(50, 50, 50, 0.25)" result="color1Flood"/><feComposite operator="in" in2="noise1Clipped" in="color1Flood" result="color1"/><feMerge result="effect1_noise_139_6"><feMergeNode in="shape"/><feMergeNode in="color1"/></feMerge><feTurbulence type="fractalNoise" baseFrequency="0.25 0.25" numOctaves="3" seed="7416"/><feDisplacementMap in="effect1_noise_139_6" scale="20" xChannelSelector="R" yChannelSelector="G" result="displacedImage" width="100%" height="100%"/><feMerge result="effect2_texture_139_6"><feMergeNode in="displacedImage"/></feMerge></filter></defs></svg>