<svg width="1435" height="810" fill="none" xmlns="http://www.w3.org/2000/svg"><g filter="url(#a)"><path d="m23.892 606.001 7.33 10.482a65.933 65.933 0 0 1 3.997 69.078c-20.403 37.832.267 84.756 41.952 95.239l37.719 9.484a96.204 96.204 0 0 0 34.723 2.243l95.543-11.264a619.391 619.391 0 0 1 142.885-.25l32.441 3.71a735.992 735.992 0 0 0 172.65-.64l8.235-1.003a670.334 670.334 0 0 1 167.926.726 670.305 670.305 0 0 0 165.323 1.039l15.873-1.871a798.805 798.805 0 0 1 172.051-1.627l134.19 13.251c37.88 8.244 71.4 4.943 114.98-7.313 40.38-11.356 53.76-61.174 27.39-93.783-19.98-24.696-17.66-60.591 5.33-82.511l1.05-1.001c25.86-24.663 25.85-65.946-.03-90.596l-3.89-3.71c-21.74-20.703-25.04-54.199-7.77-78.751 14.18-20.156 14.74-46.891 1.42-67.624l-6.23-9.696c-15.26-23.759-14.61-54.397 1.65-77.485 16.11-22.886 16.91-53.212 2.01-76.909l-6.02-9.572c-13.96-22.221-13.83-50.516.36-72.6 17.56-27.329 14.53-64.788-10.76-85.174-27.69-22.322-57.06-33.249-119.49-25.275L1122.52 24.74a871.248 871.248 0 0 1-172.032-1.493l-15.893-1.716a730.772 730.772 0 0 0-165.302.953 730.789 730.789 0 0 1-167.912.668l-8.249-.921a802.55 802.55 0 0 0-172.638-.587l-9.585 1.004a891.643 891.643 0 0 1-188.618-.303l-77.377-8.356c-8.567-.925-17.226-1.278-25.819-.636-40.544 3.025-64.048 11.552-83.346 25.055-26.313 18.411-27.156 56.568-8.485 82.697 16.33 22.853 16.487 53.518.391 76.537l-5.152 7.369c-16.34 23.368-15.49 54.67 2.093 77.117 17.735 22.64 18.431 54.259 1.711 77.658l-3.09 4.326c-16.73 23.413-16.043 55.047 1.69 77.71 17.588 22.479 18.422 53.811 2.055 77.194l-3.05 4.358c-17.361 24.804-17.37 57.815-.02 82.628z" fill="#1E4482"/></g><defs><filter id="a" x=".804" y="0" width="1434.07" height="809.139" filterUnits="userSpaceOnUse" color-interpolation-filters="sRGB"><feFlood flood-opacity="0" result="BackgroundImageFix"/><feBlend in="SourceGraphic" in2="BackgroundImageFix" result="shape"/><feTurbulence type="fractalNoise" baseFrequency="0.625 0.625" stitchTiles="stitch" numOctaves="3" result="noise" seed="6386"/><feColorMatrix in="noise" type="luminanceToAlpha" result="alphaNoise"/><feComponentTransfer in="alphaNoise" result="coloredNoise1"><feFuncA type="discrete" tableValues="1 1 1 1 1 1 1 1 1 1 1 1 1 1 1 1 1 1 1 1 1 1 1 1 1 1 1 1 1 1 1 1 1 1 1 1 1 1 1 1 1 1 1 1 1 1 1 1 1 1 1 0 0 0 0 0 0 0 0 0 0 0 0 0 0 0 0 0 0 0 0 0 0 0 0 0 0 0 0 0 0 0 0 0 0 0 0 0 0 0 0 0 0 0 0 0 0 0 0 0"/></feComponentTransfer><feComposite operator="in" in2="shape" in="coloredNoise1" result="noise1Clipped"/><feFlood flood-color="rgba(50, 50, 50, 0.25)" result="color1Flood"/><feComposite operator="in" in2="noise1Clipped" in="color1Flood" result="color1"/><feMerge result="effect1_noise_129_17"><feMergeNode in="shape"/><feMergeNode in="color1"/></feMerge><feTurbulence type="fractalNoise" baseFrequency="0.25 0.25" numOctaves="3" seed="7416"/><feDisplacementMap in="effect1_noise_129_17" scale="20" xChannelSelector="R" yChannelSelector="G" result="displacedImage" width="100%" height="100%"/><feMerge result="effect2_texture_129_17"><feMergeNode in="displacedImage"/></feMerge></filter></defs></svg>