<svg width="331" height="43" viewBox="0 0 331 43" fill="none" xmlns="http://www.w3.org/2000/svg">
<mask id="path-1-outside-1_129_33" maskUnits="userSpaceOnUse" x="-1" y="0.597656" width="332" height="43" fill="black">
<rect fill="white" x="-1" y="0.597656" width="332" height="43"/>
<path d="M29.7148 36.3909C28.2566 36.05 27.6029 34.4915 27.0498 33.2739C25.491 29.7185 24.1836 25.9683 23.2282 22.072C22.7757 20.3187 22.0214 17.3965 21.418 14.8152C20.9655 12.8183 20.4123 10.1396 19.8592 8.28886C17.5462 12.0391 15.7863 15.9841 14.2778 20.0752C12.5179 24.7994 11.1602 29.7185 9.75227 34.5889C9.50085 35.5143 8.84717 36.2935 7.79122 36.3909C6.23243 36.537 4.77421 35.7578 3.36628 35.1246C2.46118 34.5402 1.35494 33.8096 1.00296 32.7868C0.952674 32.4459 1.55608 32.0076 1.85778 32.2511C2.20976 32.4946 2.56174 32.7868 3.01429 33.0791C3.46684 33.3713 3.91939 33.6635 4.37194 33.907C5.27705 34.2967 6.23243 34.5402 7.28838 34.735C7.64037 34.6376 7.99235 34.3941 8.1432 34.0531C9.6517 28.5009 11.2105 22.9974 13.3224 17.6887C14.8309 13.8411 16.6411 10.0422 18.9541 6.48682C18.8536 6.0972 18.2502 5.90238 17.9485 5.61016C17.4959 5.12312 17.9987 4.58738 18.5016 4.39256C19.2558 4.14905 19.8089 4.58738 20.2112 5.12312C21.066 6.24331 21.6694 8.04534 21.9711 9.31164C22.474 11.1624 22.6751 13.1105 23.1779 14.9613C24.1836 18.7602 25.139 22.6078 26.3458 26.358C27.4017 29.6211 28.6085 32.8355 30.2176 35.9039C30.4187 36.1961 30.0668 36.4396 29.7148 36.3909Z"/>
<path d="M39.5004 36.4396C36.9862 36.3422 34.6732 35.222 33.215 33.1278C32.0082 31.3744 31.7065 29.3289 31.9579 27.332C32.2596 25.0917 33.215 22.9487 34.5223 21.2928C35.9806 19.442 38.0422 17.9809 40.4055 17.5426C42.0146 17.2504 43.7242 17.3965 44.931 18.6628C45.4841 19.2472 45.9869 19.8804 45.9869 20.6596C46.0372 21.4876 45.635 22.2181 44.931 22.7539C41.4112 25.5787 37.6902 28.2087 33.8687 30.3517C33.9692 31.8615 35.3269 33.42 36.7851 34.1992C38.2433 34.9785 39.9529 35.0759 41.562 34.8811C43.1711 34.735 44.8304 34.1992 45.9869 33.6635C46.1881 33.5174 46.3389 33.6635 46.3892 33.8096C46.4395 33.907 46.5401 34.1018 46.3389 34.248C44.579 35.8065 42.0648 36.537 39.5004 36.4396ZM41.7129 19.0524C40.2546 19.0524 38.7964 19.6368 37.6399 20.5135C35.176 22.4617 33.7178 25.5787 33.7178 28.5983C37.2879 26.6989 40.6569 24.215 43.9253 21.6337C44.1768 21.4389 44.3779 20.7083 44.0259 20.1239C43.6236 19.3446 42.7185 19.0524 41.7129 19.0524Z"/>
<path d="M70.8812 36.1474C70.2275 35.4655 69.7749 34.6376 69.6744 33.6635C67.6127 34.6863 65.6014 35.4655 63.2381 35.5143C62.333 35.5143 61.3776 35.4168 60.7239 34.735C60.1205 34.1018 60.0199 33.3226 59.8691 32.5433C57.908 34.0531 55.8464 35.4655 53.4831 35.9526C52.1757 36.2448 51.1701 36.2935 50.3153 35.0759C49.6113 34.1018 49.3096 31.618 49.209 30.4004C48.9073 26.1144 49.4604 21.8772 50.5164 18.0783C50.617 17.7374 50.9187 17.2991 51.1701 17.2991C51.5221 17.2991 51.9243 17.4939 52.0752 17.8835C52.0752 18.6141 51.9746 19.2959 51.8238 19.9291C51.6226 20.6109 51.4718 21.2441 51.3712 21.9259C51.1198 23.7279 50.8181 25.5787 50.8181 27.4294C50.8181 29.6698 51.0192 31.8615 51.6226 33.9557C51.874 34.5889 52.6786 34.5889 53.3323 34.3941C55.6453 33.8096 57.7069 32.4459 59.5674 30.79C59.316 27.1372 59.3663 22.9 60.3719 19.6855C60.4725 19.4907 60.8245 19.3933 61.1765 19.4907C61.3776 19.5881 61.7296 19.7829 61.7296 20.0752C61.4279 22.5104 61.0759 25.1404 61.1262 27.673C61.1262 29.6211 61.3776 31.5693 61.8804 33.3226C61.981 33.7609 62.5844 33.9557 63.1878 33.9557C65.1991 33.8583 67.8139 33.1765 69.5235 32.1537C68.9704 27.332 69.3727 22.2668 70.328 17.7374C70.68 17.3965 71.2331 17.3965 71.4846 17.7374C71.8365 18.0783 71.736 18.6141 71.6857 19.0524V19.442C70.8309 25.1404 70.7806 30.4004 71.736 36.0987C71.5851 36.4396 71.1829 36.3422 70.8812 36.1474Z"/>
<path d="M91.6246 36.3422C89.211 35.0272 86.7471 34.1018 84.1827 33.2252C81.6685 32.3485 79.2549 31.4718 76.8413 30.4491C76.791 32.2024 77.0424 34.0044 77.495 35.6117C77.6458 35.9039 77.5453 36.4396 77.0927 36.4396C76.6905 36.4396 76.439 36.1961 76.2882 35.9526C76.1373 35.7578 76.0368 35.4655 75.8859 35.222C75.3328 33.4687 75.1317 31.5692 75.1317 29.6211C74.9808 29.5237 74.7797 29.3776 74.6791 29.1341C74.5283 28.988 74.478 28.6957 74.6288 28.4522C74.83 28.3061 75.0311 28.0139 75.0814 27.8191C75.182 27.1859 75.1317 25.7248 75.2825 25.0917C75.4837 23.9715 75.7854 22.6078 76.0871 21.2441C76.439 19.8804 76.9419 18.5166 77.5956 17.3478C77.8973 16.8607 78.6515 16.9581 78.8024 17.4939C78.7521 18.127 78.5509 18.7115 78.3498 19.2959C78.199 19.8316 77.8973 20.4161 77.7464 21.0005C77.2436 22.7539 76.9419 24.5559 76.8916 26.4067C78.7018 24.8481 80.512 23.387 82.3725 22.0233C84.6855 20.3674 87.1494 18.955 89.7641 17.9322C90.1664 17.9322 90.6692 17.9322 90.9709 18.1757C91.2726 18.3705 91.2726 18.6628 91.1218 19.0037C88.4568 20.0752 86.0432 21.4876 83.5793 23.1435C81.2663 24.7507 78.9532 26.6015 76.791 28.5983V28.647C79.2549 29.962 81.9702 30.8387 84.585 31.7154C86.898 32.4946 89.1105 33.3713 91.2224 34.6863C91.6749 34.9298 92.0269 35.2707 92.2783 35.7091C92.3286 36.0013 91.9263 36.3909 91.6246 36.3422Z"/>
<path d="M109.815 36.3909C108.759 35.222 108.458 33.6635 108.206 32.1537C107.704 28.647 107.804 24.8968 107.704 21.2441C104.636 25.4813 102.223 29.7672 99.3062 34.5889C99.0045 34.9298 98.8537 35.1733 98.3508 35.3681C97.8983 35.3681 97.496 35.3194 97.144 34.8324C94.7304 30.4978 94.2779 25.1891 94.6298 19.9291C94.6298 19.5881 94.7304 19.0037 95.1327 18.8576C95.7864 18.6628 96.2892 19.1985 96.2892 19.5881C95.9875 24.4585 96.5406 29.0854 98.2 33.2739C99.9599 30.3517 101.368 27.9165 102.876 25.53C104.435 23.0461 106.094 20.6596 108.206 17.9322C108.609 17.64 109.162 17.8348 109.363 18.2244C109.514 22.9 109.463 27.4781 109.866 31.9589C109.966 33.42 110.318 34.8324 110.419 36.1961C110.419 36.3909 109.966 36.5857 109.815 36.3909Z"/>
<path d="M142.912 36.3909C141.856 35.222 141.554 33.6635 141.303 32.1537C140.8 28.647 140.901 24.8968 140.8 21.2441C137.733 25.4813 135.319 29.7672 132.403 34.5889C132.101 34.9298 131.95 35.1733 131.448 35.3681C130.995 35.3681 130.593 35.3194 130.241 34.8324C127.827 30.4978 127.375 25.1891 127.727 19.9291C127.727 19.5881 127.827 19.0037 128.229 18.8576C128.883 18.6628 129.386 19.1985 129.386 19.5881C129.084 24.4585 129.637 29.0854 131.297 33.2739C133.057 30.3517 134.465 27.9165 135.973 25.53C137.532 23.0461 139.191 20.6596 141.303 17.9322C141.705 17.64 142.258 17.8348 142.46 18.2244C142.61 22.9 142.56 27.4781 142.962 31.9589C143.063 33.42 143.415 34.8324 143.516 36.1961C143.516 36.3909 143.063 36.5857 142.912 36.3909Z"/>
<path d="M176.16 35.563C173.696 36.1961 171.332 36.1961 168.919 35.3681C166.455 34.4915 164.343 32.7381 162.734 30.4491C161.376 28.5009 160.622 26.2118 160.421 23.8254C160.119 20.1726 161.075 16.2763 162.935 13.2566C164.695 10.3344 167.209 7.5096 170.276 5.75627C172.59 4.39257 175.305 3.66201 178.121 4.10034C180.534 4.48997 183.099 6.0972 184.054 8.48368C184.155 9.01942 184.004 9.50646 183.551 9.89609C183.048 9.89609 182.847 9.60386 182.696 9.21424L182.546 8.97072C181.54 6.82775 179.277 5.61016 177.014 5.51275C175.053 5.46405 173.143 5.95108 171.433 6.87646C167.863 8.87331 164.997 12.5748 163.438 15.9354C162.281 18.3705 161.879 21.1467 162.181 23.8741C162.483 26.6015 163.488 29.2315 165.5 31.1309C167.109 32.6894 169.371 33.9557 171.433 34.248C173.947 34.5889 175.355 34.2967 177.266 33.6148C180.182 32.5433 182.797 30.5952 185.362 28.647C185.563 28.5496 185.864 28.647 186.015 28.7931C186.166 28.8905 186.367 29.1341 186.166 29.3776C183.3 32.2511 179.78 34.5889 176.16 35.563Z"/>
<path d="M197.772 35.1246C196.263 36.0987 194.403 36.878 192.542 36.878C191.486 36.878 190.732 36.4396 190.028 35.4655C189.777 35.6604 189.324 35.8065 189.123 35.5143C188.218 34.2967 187.966 32.592 187.916 30.9361C187.816 26.6989 187.866 23.5818 189.022 19.7829C189.123 19.3933 190.078 18.6628 190.782 18.8576C191.084 18.0783 191.889 17.2504 192.844 17.1529C195.408 17.1529 198.174 18.4679 199.029 20.9518C199.28 21.7311 199.28 22.5591 198.978 23.3383C198.677 24.0689 198.174 24.702 197.52 25.1891L197.219 25.4326C198.476 25.8222 199.884 26.6015 200.688 27.8191C201.292 28.7444 201.342 29.8646 201.09 30.9361C200.638 32.6894 199.33 34.1018 197.772 35.1246ZM199.18 28.647C198.777 27.9165 197.671 27.4781 196.867 27.0885C195.911 26.5041 195.056 26.7476 194.101 26.9424L192.592 27.2833C192.039 27.4294 191.486 27.4294 190.883 27.2833C190.631 27.1372 190.33 26.6502 190.581 26.4067C191.185 25.8222 191.939 25.53 192.794 25.3352L195.107 25.0917C196.012 24.6046 196.967 23.6305 197.369 22.7052C197.621 21.9259 197.47 21.3902 196.967 20.757C196.062 19.5394 194.604 19.0037 193.146 18.8576C192.693 18.8089 192.542 18.9063 192.442 19.1985C192.291 19.5881 192.19 20.0265 191.939 20.3674C191.838 20.6109 191.486 20.7083 191.235 20.5622C191.034 20.5135 190.883 20.4161 190.782 20.3187C190.179 22.4129 189.827 24.7994 189.726 27.2833C189.626 29.6211 189.726 31.9102 190.078 34.0531C190.481 33.6148 190.983 32.9817 191.235 32.6407C191.587 32.2998 192.241 32.8355 192.14 33.1765C192.039 33.42 191.838 33.7122 191.687 33.9557C191.587 34.248 191.436 34.4915 191.436 34.6863C191.738 35.1246 192.442 35.2707 193.296 35.1733C194.554 34.9785 196.062 34.2967 197.168 33.4687C198.174 32.6894 199.029 31.7154 199.28 30.4978C199.431 29.9133 199.532 29.2315 199.18 28.647Z"/>
<path d="M210.975 36.4396C208.46 36.3422 206.147 35.222 204.689 33.1278C203.482 31.3744 203.181 29.3289 203.432 27.332C203.734 25.0917 204.689 22.9487 205.997 21.2928C207.455 19.442 209.516 17.9809 211.88 17.5426C213.489 17.2504 215.198 17.3965 216.405 18.6628C216.958 19.2472 217.461 19.8804 217.461 20.6596C217.511 21.4876 217.109 22.2181 216.405 22.7539C212.885 25.5787 209.164 28.2087 205.343 30.3517C205.443 31.8615 206.801 33.42 208.259 34.1992C209.718 34.9785 211.427 35.0759 213.036 34.8811C214.645 34.735 216.305 34.1992 217.461 33.6635C217.662 33.5174 217.813 33.6635 217.863 33.8096C217.914 33.907 218.014 34.1018 217.813 34.248C216.053 35.8065 213.539 36.537 210.975 36.4396ZM213.187 19.0524C211.729 19.0524 210.271 19.6368 209.114 20.5135C206.65 22.4617 205.192 25.5787 205.192 28.5983C208.762 26.6989 212.131 24.215 215.4 21.6337C215.651 21.4389 215.852 20.7083 215.5 20.1239C215.098 19.3446 214.193 19.0524 213.187 19.0524Z"/>
<path d="M235.215 19.6368C233.908 19.3446 232.6 19.0524 231.243 19.0037C230.137 20.3674 229.583 21.9746 229.282 23.6792C228.93 25.4326 228.98 27.2833 228.879 29.0854C228.779 31.5205 228.98 33.8583 229.282 36.1474C229.131 36.4396 228.678 36.6344 228.326 36.4396C227.471 35.4168 227.27 34.1018 227.22 32.7868C227.17 29.8646 227.119 26.7963 227.572 23.9228C227.874 22.072 228.427 20.3674 229.583 18.8089C226.466 18.6628 223.6 19.2959 220.734 20.0752C220.331 20.0265 219.879 19.7829 219.627 19.3933C219.527 19.0524 219.728 18.8576 219.929 18.7602L220.231 18.6628L220.482 18.5654C222.594 17.7374 225.158 17.2991 227.622 17.2504C230.137 17.1529 232.651 17.3965 234.863 18.1757C235.115 18.2731 235.567 18.6141 235.718 18.9063C235.768 19.2472 235.517 19.6855 235.215 19.6368Z"/>
<path d="M254.555 36.3422C252.141 35.0272 249.677 34.1018 247.113 33.2252C244.598 32.3485 242.185 31.4718 239.771 30.4491C239.721 32.2024 239.972 34.0044 240.425 35.6117C240.576 35.9039 240.475 36.4396 240.023 36.4396C239.62 36.4396 239.369 36.1961 239.218 35.9526C239.067 35.7578 238.967 35.4655 238.816 35.222C238.263 33.4687 238.062 31.5692 238.062 29.6211C237.911 29.5237 237.71 29.3776 237.609 29.1341C237.458 28.988 237.408 28.6957 237.559 28.4522C237.76 28.3061 237.961 28.0139 238.011 27.8191C238.112 27.1859 238.062 25.7248 238.212 25.0917C238.414 23.9715 238.715 22.6078 239.017 21.2441C239.369 19.8804 239.872 18.5166 240.526 17.3478C240.827 16.8607 241.581 16.9581 241.732 17.4939C241.682 18.127 241.481 18.7115 241.28 19.2959C241.129 19.8316 240.827 20.4161 240.676 21.0005C240.174 22.7539 239.872 24.5559 239.822 26.4067C241.632 24.8481 243.442 23.387 245.302 22.0233C247.615 20.3674 250.079 18.955 252.694 17.9322C253.096 17.9322 253.599 17.9322 253.901 18.1757C254.203 18.3705 254.203 18.6628 254.052 19.0037C251.387 20.0752 248.973 21.4876 246.509 23.1435C244.196 24.7507 241.883 26.6015 239.721 28.5983V28.647C242.185 29.962 244.9 30.8387 247.515 31.7154C249.828 32.4946 252.04 33.3713 254.152 34.6863C254.605 34.9298 254.957 35.2707 255.208 35.7091C255.259 36.0013 254.856 36.3909 254.555 36.3422Z"/>
<path d="M272.745 36.3909C271.689 35.222 271.388 33.6635 271.136 32.1537C270.633 28.647 270.734 24.8968 270.634 21.2441C267.566 25.4813 265.153 29.7672 262.236 34.5889C261.934 34.9298 261.784 35.1733 261.281 35.3681C260.828 35.3681 260.426 35.3194 260.074 34.8324C257.66 30.4978 257.208 25.1891 257.56 19.9291C257.56 19.5881 257.66 19.0037 258.063 18.8576C258.716 18.6628 259.219 19.1985 259.219 19.5881C258.917 24.4585 259.471 29.0854 261.13 33.2739C262.89 30.3517 264.298 27.9165 265.806 25.53C267.365 23.0461 269.024 20.6596 271.136 17.9322C271.539 17.64 272.092 17.8348 272.293 18.2244C272.444 22.9 272.393 27.4781 272.796 31.9589C272.896 33.42 273.248 34.8324 273.349 36.1961C273.349 36.3909 272.896 36.5857 272.745 36.3909Z"/>
<path d="M282.796 6.24331L282.444 7.75312C281.891 10.0422 281.841 12.4287 281.841 14.8152C281.79 18.3218 282.042 21.8772 282.394 25.2378C282.293 25.7248 282.243 26.2605 281.64 26.358C281.036 25.6761 280.885 24.8968 280.785 24.1663C280.383 20.6109 280.131 16.9581 280.232 13.3541C280.332 10.5292 280.684 7.70442 281.388 4.97701C281.489 4.7822 281.64 4.24645 282.142 4.14905C282.444 4.10034 282.947 4.19775 283.098 4.63608C283.048 5.17183 282.947 5.70757 282.796 6.24331ZM284.254 37.0241C282.494 36.4883 281.237 34.6863 280.785 33.1278C280.735 32.592 280.885 32.2024 281.338 31.9589C281.841 31.8615 282.193 32.2998 282.293 32.592C282.444 33.1278 282.696 33.5661 282.997 34.0531C283.601 34.8811 284.254 35.6117 284.858 36.4396C284.908 36.7806 284.506 37.0728 284.254 37.0241Z"/>
<path d="M310.635 21.0979C310.283 21.6824 309.579 21.8772 308.976 21.7311C308.624 21.6337 308.221 21.2928 308.071 20.8544C307.719 19.6368 307.87 18.2244 308.724 17.2504C309.026 16.8607 309.629 16.5198 310.233 16.6659C310.786 16.812 311.037 17.3478 311.188 17.7861C311.49 18.9063 311.088 20.2213 310.635 21.0979ZM310.183 36.1961C309.629 36.4396 308.875 36.3422 308.523 35.8552C308.02 35.1733 307.92 34.2967 308.171 33.5174C308.473 32.6894 308.925 31.618 309.78 31.2283C310.434 30.8874 311.088 31.2283 311.389 31.8128C311.892 32.6407 311.59 33.7122 311.49 34.5889C311.238 35.1733 310.836 35.8552 310.183 36.1961Z"/>
<path d="M326.189 34.5889C324.177 37.6085 321.462 40.0924 318.646 41.5535C318.143 41.797 317.59 40.9691 318.043 40.6281C319.049 39.8002 320.808 38.2904 321.965 37.0241C323.876 34.9785 325.233 32.6894 326.34 30.1081C327.597 27.2346 328.25 23.6792 327.949 20.2213C327.597 16.6659 326.591 13.4028 324.731 10.4805C322.92 7.70442 320.708 5.22053 318.395 2.98016C318.093 2.68794 318.093 2.15219 318.345 1.90867C318.546 1.71386 318.998 1.37293 319.501 1.81127C322.066 3.95423 324.479 6.63294 326.289 9.65257C327.647 11.8442 328.753 14.2307 329.357 16.7633C330.111 19.7342 330.211 23.2409 329.608 26.5041C329.055 29.3289 327.848 32.105 326.189 34.5889Z"/>
</mask>
<path d="M29.7148 36.3909C28.2566 36.05 27.6029 34.4915 27.0498 33.2739C25.491 29.7185 24.1836 25.9683 23.2282 22.072C22.7757 20.3187 22.0214 17.3965 21.418 14.8152C20.9655 12.8183 20.4123 10.1396 19.8592 8.28886C17.5462 12.0391 15.7863 15.9841 14.2778 20.0752C12.5179 24.7994 11.1602 29.7185 9.75227 34.5889C9.50085 35.5143 8.84717 36.2935 7.79122 36.3909C6.23243 36.537 4.77421 35.7578 3.36628 35.1246C2.46118 34.5402 1.35494 33.8096 1.00296 32.7868C0.952674 32.4459 1.55608 32.0076 1.85778 32.2511C2.20976 32.4946 2.56174 32.7868 3.01429 33.0791C3.46684 33.3713 3.91939 33.6635 4.37194 33.907C5.27705 34.2967 6.23243 34.5402 7.28838 34.735C7.64037 34.6376 7.99235 34.3941 8.1432 34.0531C9.6517 28.5009 11.2105 22.9974 13.3224 17.6887C14.8309 13.8411 16.6411 10.0422 18.9541 6.48682C18.8536 6.0972 18.2502 5.90238 17.9485 5.61016C17.4959 5.12312 17.9987 4.58738 18.5016 4.39256C19.2558 4.14905 19.8089 4.58738 20.2112 5.12312C21.066 6.24331 21.6694 8.04534 21.9711 9.31164C22.474 11.1624 22.6751 13.1105 23.1779 14.9613C24.1836 18.7602 25.139 22.6078 26.3458 26.358C27.4017 29.6211 28.6085 32.8355 30.2176 35.9039C30.4187 36.1961 30.0668 36.4396 29.7148 36.3909Z" fill="#F8F5F0"/>
<path d="M39.5004 36.4396C36.9862 36.3422 34.6732 35.222 33.215 33.1278C32.0082 31.3744 31.7065 29.3289 31.9579 27.332C32.2596 25.0917 33.215 22.9487 34.5223 21.2928C35.9806 19.442 38.0422 17.9809 40.4055 17.5426C42.0146 17.2504 43.7242 17.3965 44.931 18.6628C45.4841 19.2472 45.9869 19.8804 45.9869 20.6596C46.0372 21.4876 45.635 22.2181 44.931 22.7539C41.4112 25.5787 37.6902 28.2087 33.8687 30.3517C33.9692 31.8615 35.3269 33.42 36.7851 34.1992C38.2433 34.9785 39.9529 35.0759 41.562 34.8811C43.1711 34.735 44.8304 34.1992 45.9869 33.6635C46.1881 33.5174 46.3389 33.6635 46.3892 33.8096C46.4395 33.907 46.5401 34.1018 46.3389 34.248C44.579 35.8065 42.0648 36.537 39.5004 36.4396ZM41.7129 19.0524C40.2546 19.0524 38.7964 19.6368 37.6399 20.5135C35.176 22.4617 33.7178 25.5787 33.7178 28.5983C37.2879 26.6989 40.6569 24.215 43.9253 21.6337C44.1768 21.4389 44.3779 20.7083 44.0259 20.1239C43.6236 19.3446 42.7185 19.0524 41.7129 19.0524Z" fill="#F8F5F0"/>
<path d="M70.8812 36.1474C70.2275 35.4655 69.7749 34.6376 69.6744 33.6635C67.6127 34.6863 65.6014 35.4655 63.2381 35.5143C62.333 35.5143 61.3776 35.4168 60.7239 34.735C60.1205 34.1018 60.0199 33.3226 59.8691 32.5433C57.908 34.0531 55.8464 35.4655 53.4831 35.9526C52.1757 36.2448 51.1701 36.2935 50.3153 35.0759C49.6113 34.1018 49.3096 31.618 49.209 30.4004C48.9073 26.1144 49.4604 21.8772 50.5164 18.0783C50.617 17.7374 50.9187 17.2991 51.1701 17.2991C51.5221 17.2991 51.9243 17.4939 52.0752 17.8835C52.0752 18.6141 51.9746 19.2959 51.8238 19.9291C51.6226 20.6109 51.4718 21.2441 51.3712 21.9259C51.1198 23.7279 50.8181 25.5787 50.8181 27.4294C50.8181 29.6698 51.0192 31.8615 51.6226 33.9557C51.874 34.5889 52.6786 34.5889 53.3323 34.3941C55.6453 33.8096 57.7069 32.4459 59.5674 30.79C59.316 27.1372 59.3663 22.9 60.3719 19.6855C60.4725 19.4907 60.8245 19.3933 61.1765 19.4907C61.3776 19.5881 61.7296 19.7829 61.7296 20.0752C61.4279 22.5104 61.0759 25.1404 61.1262 27.673C61.1262 29.6211 61.3776 31.5693 61.8804 33.3226C61.981 33.7609 62.5844 33.9557 63.1878 33.9557C65.1991 33.8583 67.8139 33.1765 69.5235 32.1537C68.9704 27.332 69.3727 22.2668 70.328 17.7374C70.68 17.3965 71.2331 17.3965 71.4846 17.7374C71.8365 18.0783 71.736 18.6141 71.6857 19.0524V19.442C70.8309 25.1404 70.7806 30.4004 71.736 36.0987C71.5851 36.4396 71.1829 36.3422 70.8812 36.1474Z" fill="#F8F5F0"/>
<path d="M91.6246 36.3422C89.211 35.0272 86.7471 34.1018 84.1827 33.2252C81.6685 32.3485 79.2549 31.4718 76.8413 30.4491C76.791 32.2024 77.0424 34.0044 77.495 35.6117C77.6458 35.9039 77.5453 36.4396 77.0927 36.4396C76.6905 36.4396 76.439 36.1961 76.2882 35.9526C76.1373 35.7578 76.0368 35.4655 75.8859 35.222C75.3328 33.4687 75.1317 31.5692 75.1317 29.6211C74.9808 29.5237 74.7797 29.3776 74.6791 29.1341C74.5283 28.988 74.478 28.6957 74.6288 28.4522C74.83 28.3061 75.0311 28.0139 75.0814 27.8191C75.182 27.1859 75.1317 25.7248 75.2825 25.0917C75.4837 23.9715 75.7854 22.6078 76.0871 21.2441C76.439 19.8804 76.9419 18.5166 77.5956 17.3478C77.8973 16.8607 78.6515 16.9581 78.8024 17.4939C78.7521 18.127 78.5509 18.7115 78.3498 19.2959C78.199 19.8316 77.8973 20.4161 77.7464 21.0005C77.2436 22.7539 76.9419 24.5559 76.8916 26.4067C78.7018 24.8481 80.512 23.387 82.3725 22.0233C84.6855 20.3674 87.1494 18.955 89.7641 17.9322C90.1664 17.9322 90.6692 17.9322 90.9709 18.1757C91.2726 18.3705 91.2726 18.6628 91.1218 19.0037C88.4568 20.0752 86.0432 21.4876 83.5793 23.1435C81.2663 24.7507 78.9532 26.6015 76.791 28.5983V28.647C79.2549 29.962 81.9702 30.8387 84.585 31.7154C86.898 32.4946 89.1105 33.3713 91.2224 34.6863C91.6749 34.9298 92.0269 35.2707 92.2783 35.7091C92.3286 36.0013 91.9263 36.3909 91.6246 36.3422Z" fill="#F8F5F0"/>
<path d="M109.815 36.3909C108.759 35.222 108.458 33.6635 108.206 32.1537C107.704 28.647 107.804 24.8968 107.704 21.2441C104.636 25.4813 102.223 29.7672 99.3062 34.5889C99.0045 34.9298 98.8537 35.1733 98.3508 35.3681C97.8983 35.3681 97.496 35.3194 97.144 34.8324C94.7304 30.4978 94.2779 25.1891 94.6298 19.9291C94.6298 19.5881 94.7304 19.0037 95.1327 18.8576C95.7864 18.6628 96.2892 19.1985 96.2892 19.5881C95.9875 24.4585 96.5406 29.0854 98.2 33.2739C99.9599 30.3517 101.368 27.9165 102.876 25.53C104.435 23.0461 106.094 20.6596 108.206 17.9322C108.609 17.64 109.162 17.8348 109.363 18.2244C109.514 22.9 109.463 27.4781 109.866 31.9589C109.966 33.42 110.318 34.8324 110.419 36.1961C110.419 36.3909 109.966 36.5857 109.815 36.3909Z" fill="#F8F5F0"/>
<path d="M142.912 36.3909C141.856 35.222 141.554 33.6635 141.303 32.1537C140.8 28.647 140.901 24.8968 140.8 21.2441C137.733 25.4813 135.319 29.7672 132.403 34.5889C132.101 34.9298 131.95 35.1733 131.448 35.3681C130.995 35.3681 130.593 35.3194 130.241 34.8324C127.827 30.4978 127.375 25.1891 127.727 19.9291C127.727 19.5881 127.827 19.0037 128.229 18.8576C128.883 18.6628 129.386 19.1985 129.386 19.5881C129.084 24.4585 129.637 29.0854 131.297 33.2739C133.057 30.3517 134.465 27.9165 135.973 25.53C137.532 23.0461 139.191 20.6596 141.303 17.9322C141.705 17.64 142.258 17.8348 142.46 18.2244C142.61 22.9 142.56 27.4781 142.962 31.9589C143.063 33.42 143.415 34.8324 143.516 36.1961C143.516 36.3909 143.063 36.5857 142.912 36.3909Z" fill="#F8F5F0"/>
<path d="M176.16 35.563C173.696 36.1961 171.332 36.1961 168.919 35.3681C166.455 34.4915 164.343 32.7381 162.734 30.4491C161.376 28.5009 160.622 26.2118 160.421 23.8254C160.119 20.1726 161.075 16.2763 162.935 13.2566C164.695 10.3344 167.209 7.5096 170.276 5.75627C172.59 4.39257 175.305 3.66201 178.121 4.10034C180.534 4.48997 183.099 6.0972 184.054 8.48368C184.155 9.01942 184.004 9.50646 183.551 9.89609C183.048 9.89609 182.847 9.60386 182.696 9.21424L182.546 8.97072C181.54 6.82775 179.277 5.61016 177.014 5.51275C175.053 5.46405 173.143 5.95108 171.433 6.87646C167.863 8.87331 164.997 12.5748 163.438 15.9354C162.281 18.3705 161.879 21.1467 162.181 23.8741C162.483 26.6015 163.488 29.2315 165.5 31.1309C167.109 32.6894 169.371 33.9557 171.433 34.248C173.947 34.5889 175.355 34.2967 177.266 33.6148C180.182 32.5433 182.797 30.5952 185.362 28.647C185.563 28.5496 185.864 28.647 186.015 28.7931C186.166 28.8905 186.367 29.1341 186.166 29.3776C183.3 32.2511 179.78 34.5889 176.16 35.563Z" fill="#F8F5F0"/>
<path d="M197.772 35.1246C196.263 36.0987 194.403 36.878 192.542 36.878C191.486 36.878 190.732 36.4396 190.028 35.4655C189.777 35.6604 189.324 35.8065 189.123 35.5143C188.218 34.2967 187.966 32.592 187.916 30.9361C187.816 26.6989 187.866 23.5818 189.022 19.7829C189.123 19.3933 190.078 18.6628 190.782 18.8576C191.084 18.0783 191.889 17.2504 192.844 17.1529C195.408 17.1529 198.174 18.4679 199.029 20.9518C199.28 21.7311 199.28 22.5591 198.978 23.3383C198.677 24.0689 198.174 24.702 197.52 25.1891L197.219 25.4326C198.476 25.8222 199.884 26.6015 200.688 27.8191C201.292 28.7444 201.342 29.8646 201.09 30.9361C200.638 32.6894 199.33 34.1018 197.772 35.1246ZM199.18 28.647C198.777 27.9165 197.671 27.4781 196.867 27.0885C195.911 26.5041 195.056 26.7476 194.101 26.9424L192.592 27.2833C192.039 27.4294 191.486 27.4294 190.883 27.2833C190.631 27.1372 190.33 26.6502 190.581 26.4067C191.185 25.8222 191.939 25.53 192.794 25.3352L195.107 25.0917C196.012 24.6046 196.967 23.6305 197.369 22.7052C197.621 21.9259 197.47 21.3902 196.967 20.757C196.062 19.5394 194.604 19.0037 193.146 18.8576C192.693 18.8089 192.542 18.9063 192.442 19.1985C192.291 19.5881 192.19 20.0265 191.939 20.3674C191.838 20.6109 191.486 20.7083 191.235 20.5622C191.034 20.5135 190.883 20.4161 190.782 20.3187C190.179 22.4129 189.827 24.7994 189.726 27.2833C189.626 29.6211 189.726 31.9102 190.078 34.0531C190.481 33.6148 190.983 32.9817 191.235 32.6407C191.587 32.2998 192.241 32.8355 192.14 33.1765C192.039 33.42 191.838 33.7122 191.687 33.9557C191.587 34.248 191.436 34.4915 191.436 34.6863C191.738 35.1246 192.442 35.2707 193.296 35.1733C194.554 34.9785 196.062 34.2967 197.168 33.4687C198.174 32.6894 199.029 31.7154 199.28 30.4978C199.431 29.9133 199.532 29.2315 199.18 28.647Z" fill="#F8F5F0"/>
<path d="M210.975 36.4396C208.46 36.3422 206.147 35.222 204.689 33.1278C203.482 31.3744 203.181 29.3289 203.432 27.332C203.734 25.0917 204.689 22.9487 205.997 21.2928C207.455 19.442 209.516 17.9809 211.88 17.5426C213.489 17.2504 215.198 17.3965 216.405 18.6628C216.958 19.2472 217.461 19.8804 217.461 20.6596C217.511 21.4876 217.109 22.2181 216.405 22.7539C212.885 25.5787 209.164 28.2087 205.343 30.3517C205.443 31.8615 206.801 33.42 208.259 34.1992C209.718 34.9785 211.427 35.0759 213.036 34.8811C214.645 34.735 216.305 34.1992 217.461 33.6635C217.662 33.5174 217.813 33.6635 217.863 33.8096C217.914 33.907 218.014 34.1018 217.813 34.248C216.053 35.8065 213.539 36.537 210.975 36.4396ZM213.187 19.0524C211.729 19.0524 210.271 19.6368 209.114 20.5135C206.65 22.4617 205.192 25.5787 205.192 28.5983C208.762 26.6989 212.131 24.215 215.4 21.6337C215.651 21.4389 215.852 20.7083 215.5 20.1239C215.098 19.3446 214.193 19.0524 213.187 19.0524Z" fill="#F8F5F0"/>
<path d="M235.215 19.6368C233.908 19.3446 232.6 19.0524 231.243 19.0037C230.137 20.3674 229.583 21.9746 229.282 23.6792C228.93 25.4326 228.98 27.2833 228.879 29.0854C228.779 31.5205 228.98 33.8583 229.282 36.1474C229.131 36.4396 228.678 36.6344 228.326 36.4396C227.471 35.4168 227.27 34.1018 227.22 32.7868C227.17 29.8646 227.119 26.7963 227.572 23.9228C227.874 22.072 228.427 20.3674 229.583 18.8089C226.466 18.6628 223.6 19.2959 220.734 20.0752C220.331 20.0265 219.879 19.7829 219.627 19.3933C219.527 19.0524 219.728 18.8576 219.929 18.7602L220.231 18.6628L220.482 18.5654C222.594 17.7374 225.158 17.2991 227.622 17.2504C230.137 17.1529 232.651 17.3965 234.863 18.1757C235.115 18.2731 235.567 18.6141 235.718 18.9063C235.768 19.2472 235.517 19.6855 235.215 19.6368Z" fill="#F8F5F0"/>
<path d="M254.555 36.3422C252.141 35.0272 249.677 34.1018 247.113 33.2252C244.598 32.3485 242.185 31.4718 239.771 30.4491C239.721 32.2024 239.972 34.0044 240.425 35.6117C240.576 35.9039 240.475 36.4396 240.023 36.4396C239.62 36.4396 239.369 36.1961 239.218 35.9526C239.067 35.7578 238.967 35.4655 238.816 35.222C238.263 33.4687 238.062 31.5692 238.062 29.6211C237.911 29.5237 237.71 29.3776 237.609 29.1341C237.458 28.988 237.408 28.6957 237.559 28.4522C237.76 28.3061 237.961 28.0139 238.011 27.8191C238.112 27.1859 238.062 25.7248 238.212 25.0917C238.414 23.9715 238.715 22.6078 239.017 21.2441C239.369 19.8804 239.872 18.5166 240.526 17.3478C240.827 16.8607 241.581 16.9581 241.732 17.4939C241.682 18.127 241.481 18.7115 241.28 19.2959C241.129 19.8316 240.827 20.4161 240.676 21.0005C240.174 22.7539 239.872 24.5559 239.822 26.4067C241.632 24.8481 243.442 23.387 245.302 22.0233C247.615 20.3674 250.079 18.955 252.694 17.9322C253.096 17.9322 253.599 17.9322 253.901 18.1757C254.203 18.3705 254.203 18.6628 254.052 19.0037C251.387 20.0752 248.973 21.4876 246.509 23.1435C244.196 24.7507 241.883 26.6015 239.721 28.5983V28.647C242.185 29.962 244.9 30.8387 247.515 31.7154C249.828 32.4946 252.04 33.3713 254.152 34.6863C254.605 34.9298 254.957 35.2707 255.208 35.7091C255.259 36.0013 254.856 36.3909 254.555 36.3422Z" fill="#F8F5F0"/>
<path d="M272.745 36.3909C271.689 35.222 271.388 33.6635 271.136 32.1537C270.633 28.647 270.734 24.8968 270.634 21.2441C267.566 25.4813 265.153 29.7672 262.236 34.5889C261.934 34.9298 261.784 35.1733 261.281 35.3681C260.828 35.3681 260.426 35.3194 260.074 34.8324C257.66 30.4978 257.208 25.1891 257.56 19.9291C257.56 19.5881 257.66 19.0037 258.063 18.8576C258.716 18.6628 259.219 19.1985 259.219 19.5881C258.917 24.4585 259.471 29.0854 261.13 33.2739C262.89 30.3517 264.298 27.9165 265.806 25.53C267.365 23.0461 269.024 20.6596 271.136 17.9322C271.539 17.64 272.092 17.8348 272.293 18.2244C272.444 22.9 272.393 27.4781 272.796 31.9589C272.896 33.42 273.248 34.8324 273.349 36.1961C273.349 36.3909 272.896 36.5857 272.745 36.3909Z" fill="#F8F5F0"/>
<path d="M282.796 6.24331L282.444 7.75312C281.891 10.0422 281.841 12.4287 281.841 14.8152C281.79 18.3218 282.042 21.8772 282.394 25.2378C282.293 25.7248 282.243 26.2605 281.64 26.358C281.036 25.6761 280.885 24.8968 280.785 24.1663C280.383 20.6109 280.131 16.9581 280.232 13.3541C280.332 10.5292 280.684 7.70442 281.388 4.97701C281.489 4.7822 281.64 4.24645 282.142 4.14905C282.444 4.10034 282.947 4.19775 283.098 4.63608C283.048 5.17183 282.947 5.70757 282.796 6.24331ZM284.254 37.0241C282.494 36.4883 281.237 34.6863 280.785 33.1278C280.735 32.592 280.885 32.2024 281.338 31.9589C281.841 31.8615 282.193 32.2998 282.293 32.592C282.444 33.1278 282.696 33.5661 282.997 34.0531C283.601 34.8811 284.254 35.6117 284.858 36.4396C284.908 36.7806 284.506 37.0728 284.254 37.0241Z" fill="#F8F5F0"/>
<path d="M310.635 21.0979C310.283 21.6824 309.579 21.8772 308.976 21.7311C308.624 21.6337 308.221 21.2928 308.071 20.8544C307.719 19.6368 307.87 18.2244 308.724 17.2504C309.026 16.8607 309.629 16.5198 310.233 16.6659C310.786 16.812 311.037 17.3478 311.188 17.7861C311.49 18.9063 311.088 20.2213 310.635 21.0979ZM310.183 36.1961C309.629 36.4396 308.875 36.3422 308.523 35.8552C308.02 35.1733 307.92 34.2967 308.171 33.5174C308.473 32.6894 308.925 31.618 309.78 31.2283C310.434 30.8874 311.088 31.2283 311.389 31.8128C311.892 32.6407 311.59 33.7122 311.49 34.5889C311.238 35.1733 310.836 35.8552 310.183 36.1961Z" fill="#F8F5F0"/>
<path d="M326.189 34.5889C324.177 37.6085 321.462 40.0924 318.646 41.5535C318.143 41.797 317.59 40.9691 318.043 40.6281C319.049 39.8002 320.808 38.2904 321.965 37.0241C323.876 34.9785 325.233 32.6894 326.34 30.1081C327.597 27.2346 328.25 23.6792 327.949 20.2213C327.597 16.6659 326.591 13.4028 324.731 10.4805C322.92 7.70442 320.708 5.22053 318.395 2.98016C318.093 2.68794 318.093 2.15219 318.345 1.90867C318.546 1.71386 318.998 1.37293 319.501 1.81127C322.066 3.95423 324.479 6.63294 326.289 9.65257C327.647 11.8442 328.753 14.2307 329.357 16.7633C330.111 19.7342 330.211 23.2409 329.608 26.5041C329.055 29.3289 327.848 32.105 326.189 34.5889Z" fill="#F8F5F0"/>
<path d="M29.7148 36.3909C28.2566 36.05 27.6029 34.4915 27.0498 33.2739C25.491 29.7185 24.1836 25.9683 23.2282 22.072C22.7757 20.3187 22.0214 17.3965 21.418 14.8152C20.9655 12.8183 20.4123 10.1396 19.8592 8.28886C17.5462 12.0391 15.7863 15.9841 14.2778 20.0752C12.5179 24.7994 11.1602 29.7185 9.75227 34.5889C9.50085 35.5143 8.84717 36.2935 7.79122 36.3909C6.23243 36.537 4.77421 35.7578 3.36628 35.1246C2.46118 34.5402 1.35494 33.8096 1.00296 32.7868C0.952674 32.4459 1.55608 32.0076 1.85778 32.2511C2.20976 32.4946 2.56174 32.7868 3.01429 33.0791C3.46684 33.3713 3.91939 33.6635 4.37194 33.907C5.27705 34.2967 6.23243 34.5402 7.28838 34.735C7.64037 34.6376 7.99235 34.3941 8.1432 34.0531C9.6517 28.5009 11.2105 22.9974 13.3224 17.6887C14.8309 13.8411 16.6411 10.0422 18.9541 6.48682C18.8536 6.0972 18.2502 5.90238 17.9485 5.61016C17.4959 5.12312 17.9987 4.58738 18.5016 4.39256C19.2558 4.14905 19.8089 4.58738 20.2112 5.12312C21.066 6.24331 21.6694 8.04534 21.9711 9.31164C22.474 11.1624 22.6751 13.1105 23.1779 14.9613C24.1836 18.7602 25.139 22.6078 26.3458 26.358C27.4017 29.6211 28.6085 32.8355 30.2176 35.9039C30.4187 36.1961 30.0668 36.4396 29.7148 36.3909Z" stroke="#F8F5F0" stroke-width="2" mask="url(#path-1-outside-1_129_33)"/>
<path d="M39.5004 36.4396C36.9862 36.3422 34.6732 35.222 33.215 33.1278C32.0082 31.3744 31.7065 29.3289 31.9579 27.332C32.2596 25.0917 33.215 22.9487 34.5223 21.2928C35.9806 19.442 38.0422 17.9809 40.4055 17.5426C42.0146 17.2504 43.7242 17.3965 44.931 18.6628C45.4841 19.2472 45.9869 19.8804 45.9869 20.6596C46.0372 21.4876 45.635 22.2181 44.931 22.7539C41.4112 25.5787 37.6902 28.2087 33.8687 30.3517C33.9692 31.8615 35.3269 33.42 36.7851 34.1992C38.2433 34.9785 39.9529 35.0759 41.562 34.8811C43.1711 34.735 44.8304 34.1992 45.9869 33.6635C46.1881 33.5174 46.3389 33.6635 46.3892 33.8096C46.4395 33.907 46.5401 34.1018 46.3389 34.248C44.579 35.8065 42.0648 36.537 39.5004 36.4396ZM41.7129 19.0524C40.2546 19.0524 38.7964 19.6368 37.6399 20.5135C35.176 22.4617 33.7178 25.5787 33.7178 28.5983C37.2879 26.6989 40.6569 24.215 43.9253 21.6337C44.1768 21.4389 44.3779 20.7083 44.0259 20.1239C43.6236 19.3446 42.7185 19.0524 41.7129 19.0524Z" stroke="#F8F5F0" stroke-width="2" mask="url(#path-1-outside-1_129_33)"/>
<path d="M70.8812 36.1474C70.2275 35.4655 69.7749 34.6376 69.6744 33.6635C67.6127 34.6863 65.6014 35.4655 63.2381 35.5143C62.333 35.5143 61.3776 35.4168 60.7239 34.735C60.1205 34.1018 60.0199 33.3226 59.8691 32.5433C57.908 34.0531 55.8464 35.4655 53.4831 35.9526C52.1757 36.2448 51.1701 36.2935 50.3153 35.0759C49.6113 34.1018 49.3096 31.618 49.209 30.4004C48.9073 26.1144 49.4604 21.8772 50.5164 18.0783C50.617 17.7374 50.9187 17.2991 51.1701 17.2991C51.5221 17.2991 51.9243 17.4939 52.0752 17.8835C52.0752 18.6141 51.9746 19.2959 51.8238 19.9291C51.6226 20.6109 51.4718 21.2441 51.3712 21.9259C51.1198 23.7279 50.8181 25.5787 50.8181 27.4294C50.8181 29.6698 51.0192 31.8615 51.6226 33.9557C51.874 34.5889 52.6786 34.5889 53.3323 34.3941C55.6453 33.8096 57.7069 32.4459 59.5674 30.79C59.316 27.1372 59.3663 22.9 60.3719 19.6855C60.4725 19.4907 60.8245 19.3933 61.1765 19.4907C61.3776 19.5881 61.7296 19.7829 61.7296 20.0752C61.4279 22.5104 61.0759 25.1404 61.1262 27.673C61.1262 29.6211 61.3776 31.5693 61.8804 33.3226C61.981 33.7609 62.5844 33.9557 63.1878 33.9557C65.1991 33.8583 67.8139 33.1765 69.5235 32.1537C68.9704 27.332 69.3727 22.2668 70.328 17.7374C70.68 17.3965 71.2331 17.3965 71.4846 17.7374C71.8365 18.0783 71.736 18.6141 71.6857 19.0524V19.442C70.8309 25.1404 70.7806 30.4004 71.736 36.0987C71.5851 36.4396 71.1829 36.3422 70.8812 36.1474Z" stroke="#F8F5F0" stroke-width="2" mask="url(#path-1-outside-1_129_33)"/>
<path d="M91.6246 36.3422C89.211 35.0272 86.7471 34.1018 84.1827 33.2252C81.6685 32.3485 79.2549 31.4718 76.8413 30.4491C76.791 32.2024 77.0424 34.0044 77.495 35.6117C77.6458 35.9039 77.5453 36.4396 77.0927 36.4396C76.6905 36.4396 76.439 36.1961 76.2882 35.9526C76.1373 35.7578 76.0368 35.4655 75.8859 35.222C75.3328 33.4687 75.1317 31.5692 75.1317 29.6211C74.9808 29.5237 74.7797 29.3776 74.6791 29.1341C74.5283 28.988 74.478 28.6957 74.6288 28.4522C74.83 28.3061 75.0311 28.0139 75.0814 27.8191C75.182 27.1859 75.1317 25.7248 75.2825 25.0917C75.4837 23.9715 75.7854 22.6078 76.0871 21.2441C76.439 19.8804 76.9419 18.5166 77.5956 17.3478C77.8973 16.8607 78.6515 16.9581 78.8024 17.4939C78.7521 18.127 78.5509 18.7115 78.3498 19.2959C78.199 19.8316 77.8973 20.4161 77.7464 21.0005C77.2436 22.7539 76.9419 24.5559 76.8916 26.4067C78.7018 24.8481 80.512 23.387 82.3725 22.0233C84.6855 20.3674 87.1494 18.955 89.7641 17.9322C90.1664 17.9322 90.6692 17.9322 90.9709 18.1757C91.2726 18.3705 91.2726 18.6628 91.1218 19.0037C88.4568 20.0752 86.0432 21.4876 83.5793 23.1435C81.2663 24.7507 78.9532 26.6015 76.791 28.5983V28.647C79.2549 29.962 81.9702 30.8387 84.585 31.7154C86.898 32.4946 89.1105 33.3713 91.2224 34.6863C91.6749 34.9298 92.0269 35.2707 92.2783 35.7091C92.3286 36.0013 91.9263 36.3909 91.6246 36.3422Z" stroke="#F8F5F0" stroke-width="2" mask="url(#path-1-outside-1_129_33)"/>
<path d="M109.815 36.3909C108.759 35.222 108.458 33.6635 108.206 32.1537C107.704 28.647 107.804 24.8968 107.704 21.2441C104.636 25.4813 102.223 29.7672 99.3062 34.5889C99.0045 34.9298 98.8537 35.1733 98.3508 35.3681C97.8983 35.3681 97.496 35.3194 97.144 34.8324C94.7304 30.4978 94.2779 25.1891 94.6298 19.9291C94.6298 19.5881 94.7304 19.0037 95.1327 18.8576C95.7864 18.6628 96.2892 19.1985 96.2892 19.5881C95.9875 24.4585 96.5406 29.0854 98.2 33.2739C99.9599 30.3517 101.368 27.9165 102.876 25.53C104.435 23.0461 106.094 20.6596 108.206 17.9322C108.609 17.64 109.162 17.8348 109.363 18.2244C109.514 22.9 109.463 27.4781 109.866 31.9589C109.966 33.42 110.318 34.8324 110.419 36.1961C110.419 36.3909 109.966 36.5857 109.815 36.3909Z" stroke="#F8F5F0" stroke-width="2" mask="url(#path-1-outside-1_129_33)"/>
<path d="M142.912 36.3909C141.856 35.222 141.554 33.6635 141.303 32.1537C140.8 28.647 140.901 24.8968 140.8 21.2441C137.733 25.4813 135.319 29.7672 132.403 34.5889C132.101 34.9298 131.95 35.1733 131.448 35.3681C130.995 35.3681 130.593 35.3194 130.241 34.8324C127.827 30.4978 127.375 25.1891 127.727 19.9291C127.727 19.5881 127.827 19.0037 128.229 18.8576C128.883 18.6628 129.386 19.1985 129.386 19.5881C129.084 24.4585 129.637 29.0854 131.297 33.2739C133.057 30.3517 134.465 27.9165 135.973 25.53C137.532 23.0461 139.191 20.6596 141.303 17.9322C141.705 17.64 142.258 17.8348 142.46 18.2244C142.61 22.9 142.56 27.4781 142.962 31.9589C143.063 33.42 143.415 34.8324 143.516 36.1961C143.516 36.3909 143.063 36.5857 142.912 36.3909Z" stroke="#F8F5F0" stroke-width="2" mask="url(#path-1-outside-1_129_33)"/>
<path d="M176.16 35.563C173.696 36.1961 171.332 36.1961 168.919 35.3681C166.455 34.4915 164.343 32.7381 162.734 30.4491C161.376 28.5009 160.622 26.2118 160.421 23.8254C160.119 20.1726 161.075 16.2763 162.935 13.2566C164.695 10.3344 167.209 7.5096 170.276 5.75627C172.59 4.39257 175.305 3.66201 178.121 4.10034C180.534 4.48997 183.099 6.0972 184.054 8.48368C184.155 9.01942 184.004 9.50646 183.551 9.89609C183.048 9.89609 182.847 9.60386 182.696 9.21424L182.546 8.97072C181.54 6.82775 179.277 5.61016 177.014 5.51275C175.053 5.46405 173.143 5.95108 171.433 6.87646C167.863 8.87331 164.997 12.5748 163.438 15.9354C162.281 18.3705 161.879 21.1467 162.181 23.8741C162.483 26.6015 163.488 29.2315 165.5 31.1309C167.109 32.6894 169.371 33.9557 171.433 34.248C173.947 34.5889 175.355 34.2967 177.266 33.6148C180.182 32.5433 182.797 30.5952 185.362 28.647C185.563 28.5496 185.864 28.647 186.015 28.7931C186.166 28.8905 186.367 29.1341 186.166 29.3776C183.3 32.2511 179.78 34.5889 176.16 35.563Z" stroke="#F8F5F0" stroke-width="2" mask="url(#path-1-outside-1_129_33)"/>
<path d="M197.772 35.1246C196.263 36.0987 194.403 36.878 192.542 36.878C191.486 36.878 190.732 36.4396 190.028 35.4655C189.777 35.6604 189.324 35.8065 189.123 35.5143C188.218 34.2967 187.966 32.592 187.916 30.9361C187.816 26.6989 187.866 23.5818 189.022 19.7829C189.123 19.3933 190.078 18.6628 190.782 18.8576C191.084 18.0783 191.889 17.2504 192.844 17.1529C195.408 17.1529 198.174 18.4679 199.029 20.9518C199.28 21.7311 199.28 22.5591 198.978 23.3383C198.677 24.0689 198.174 24.702 197.52 25.1891L197.219 25.4326C198.476 25.8222 199.884 26.6015 200.688 27.8191C201.292 28.7444 201.342 29.8646 201.09 30.9361C200.638 32.6894 199.33 34.1018 197.772 35.1246ZM199.18 28.647C198.777 27.9165 197.671 27.4781 196.867 27.0885C195.911 26.5041 195.056 26.7476 194.101 26.9424L192.592 27.2833C192.039 27.4294 191.486 27.4294 190.883 27.2833C190.631 27.1372 190.33 26.6502 190.581 26.4067C191.185 25.8222 191.939 25.53 192.794 25.3352L195.107 25.0917C196.012 24.6046 196.967 23.6305 197.369 22.7052C197.621 21.9259 197.47 21.3902 196.967 20.757C196.062 19.5394 194.604 19.0037 193.146 18.8576C192.693 18.8089 192.542 18.9063 192.442 19.1985C192.291 19.5881 192.19 20.0265 191.939 20.3674C191.838 20.6109 191.486 20.7083 191.235 20.5622C191.034 20.5135 190.883 20.4161 190.782 20.3187C190.179 22.4129 189.827 24.7994 189.726 27.2833C189.626 29.6211 189.726 31.9102 190.078 34.0531C190.481 33.6148 190.983 32.9817 191.235 32.6407C191.587 32.2998 192.241 32.8355 192.14 33.1765C192.039 33.42 191.838 33.7122 191.687 33.9557C191.587 34.248 191.436 34.4915 191.436 34.6863C191.738 35.1246 192.442 35.2707 193.296 35.1733C194.554 34.9785 196.062 34.2967 197.168 33.4687C198.174 32.6894 199.029 31.7154 199.28 30.4978C199.431 29.9133 199.532 29.2315 199.18 28.647Z" stroke="#F8F5F0" stroke-width="2" mask="url(#path-1-outside-1_129_33)"/>
<path d="M210.975 36.4396C208.46 36.3422 206.147 35.222 204.689 33.1278C203.482 31.3744 203.181 29.3289 203.432 27.332C203.734 25.0917 204.689 22.9487 205.997 21.2928C207.455 19.442 209.516 17.9809 211.88 17.5426C213.489 17.2504 215.198 17.3965 216.405 18.6628C216.958 19.2472 217.461 19.8804 217.461 20.6596C217.511 21.4876 217.109 22.2181 216.405 22.7539C212.885 25.5787 209.164 28.2087 205.343 30.3517C205.443 31.8615 206.801 33.42 208.259 34.1992C209.718 34.9785 211.427 35.0759 213.036 34.8811C214.645 34.735 216.305 34.1992 217.461 33.6635C217.662 33.5174 217.813 33.6635 217.863 33.8096C217.914 33.907 218.014 34.1018 217.813 34.248C216.053 35.8065 213.539 36.537 210.975 36.4396ZM213.187 19.0524C211.729 19.0524 210.271 19.6368 209.114 20.5135C206.65 22.4617 205.192 25.5787 205.192 28.5983C208.762 26.6989 212.131 24.215 215.4 21.6337C215.651 21.4389 215.852 20.7083 215.5 20.1239C215.098 19.3446 214.193 19.0524 213.187 19.0524Z" stroke="#F8F5F0" stroke-width="2" mask="url(#path-1-outside-1_129_33)"/>
<path d="M235.215 19.6368C233.908 19.3446 232.6 19.0524 231.243 19.0037C230.137 20.3674 229.583 21.9746 229.282 23.6792C228.93 25.4326 228.98 27.2833 228.879 29.0854C228.779 31.5205 228.98 33.8583 229.282 36.1474C229.131 36.4396 228.678 36.6344 228.326 36.4396C227.471 35.4168 227.27 34.1018 227.22 32.7868C227.17 29.8646 227.119 26.7963 227.572 23.9228C227.874 22.072 228.427 20.3674 229.583 18.8089C226.466 18.6628 223.6 19.2959 220.734 20.0752C220.331 20.0265 219.879 19.7829 219.627 19.3933C219.527 19.0524 219.728 18.8576 219.929 18.7602L220.231 18.6628L220.482 18.5654C222.594 17.7374 225.158 17.2991 227.622 17.2504C230.137 17.1529 232.651 17.3965 234.863 18.1757C235.115 18.2731 235.567 18.6141 235.718 18.9063C235.768 19.2472 235.517 19.6855 235.215 19.6368Z" stroke="#F8F5F0" stroke-width="2" mask="url(#path-1-outside-1_129_33)"/>
<path d="M254.555 36.3422C252.141 35.0272 249.677 34.1018 247.113 33.2252C244.598 32.3485 242.185 31.4718 239.771 30.4491C239.721 32.2024 239.972 34.0044 240.425 35.6117C240.576 35.9039 240.475 36.4396 240.023 36.4396C239.62 36.4396 239.369 36.1961 239.218 35.9526C239.067 35.7578 238.967 35.4655 238.816 35.222C238.263 33.4687 238.062 31.5692 238.062 29.6211C237.911 29.5237 237.71 29.3776 237.609 29.1341C237.458 28.988 237.408 28.6957 237.559 28.4522C237.76 28.3061 237.961 28.0139 238.011 27.8191C238.112 27.1859 238.062 25.7248 238.212 25.0917C238.414 23.9715 238.715 22.6078 239.017 21.2441C239.369 19.8804 239.872 18.5166 240.526 17.3478C240.827 16.8607 241.581 16.9581 241.732 17.4939C241.682 18.127 241.481 18.7115 241.28 19.2959C241.129 19.8316 240.827 20.4161 240.676 21.0005C240.174 22.7539 239.872 24.5559 239.822 26.4067C241.632 24.8481 243.442 23.387 245.302 22.0233C247.615 20.3674 250.079 18.955 252.694 17.9322C253.096 17.9322 253.599 17.9322 253.901 18.1757C254.203 18.3705 254.203 18.6628 254.052 19.0037C251.387 20.0752 248.973 21.4876 246.509 23.1435C244.196 24.7507 241.883 26.6015 239.721 28.5983V28.647C242.185 29.962 244.9 30.8387 247.515 31.7154C249.828 32.4946 252.04 33.3713 254.152 34.6863C254.605 34.9298 254.957 35.2707 255.208 35.7091C255.259 36.0013 254.856 36.3909 254.555 36.3422Z" stroke="#F8F5F0" stroke-width="2" mask="url(#path-1-outside-1_129_33)"/>
<path d="M272.745 36.3909C271.689 35.222 271.388 33.6635 271.136 32.1537C270.633 28.647 270.734 24.8968 270.634 21.2441C267.566 25.4813 265.153 29.7672 262.236 34.5889C261.934 34.9298 261.784 35.1733 261.281 35.3681C260.828 35.3681 260.426 35.3194 260.074 34.8324C257.66 30.4978 257.208 25.1891 257.56 19.9291C257.56 19.5881 257.66 19.0037 258.063 18.8576C258.716 18.6628 259.219 19.1985 259.219 19.5881C258.917 24.4585 259.471 29.0854 261.13 33.2739C262.89 30.3517 264.298 27.9165 265.806 25.53C267.365 23.0461 269.024 20.6596 271.136 17.9322C271.539 17.64 272.092 17.8348 272.293 18.2244C272.444 22.9 272.393 27.4781 272.796 31.9589C272.896 33.42 273.248 34.8324 273.349 36.1961C273.349 36.3909 272.896 36.5857 272.745 36.3909Z" stroke="#F8F5F0" stroke-width="2" mask="url(#path-1-outside-1_129_33)"/>
<path d="M282.796 6.24331L282.444 7.75312C281.891 10.0422 281.841 12.4287 281.841 14.8152C281.79 18.3218 282.042 21.8772 282.394 25.2378C282.293 25.7248 282.243 26.2605 281.64 26.358C281.036 25.6761 280.885 24.8968 280.785 24.1663C280.383 20.6109 280.131 16.9581 280.232 13.3541C280.332 10.5292 280.684 7.70442 281.388 4.97701C281.489 4.7822 281.64 4.24645 282.142 4.14905C282.444 4.10034 282.947 4.19775 283.098 4.63608C283.048 5.17183 282.947 5.70757 282.796 6.24331ZM284.254 37.0241C282.494 36.4883 281.237 34.6863 280.785 33.1278C280.735 32.592 280.885 32.2024 281.338 31.9589C281.841 31.8615 282.193 32.2998 282.293 32.592C282.444 33.1278 282.696 33.5661 282.997 34.0531C283.601 34.8811 284.254 35.6117 284.858 36.4396C284.908 36.7806 284.506 37.0728 284.254 37.0241Z" stroke="#F8F5F0" stroke-width="2" mask="url(#path-1-outside-1_129_33)"/>
<path d="M310.635 21.0979C310.283 21.6824 309.579 21.8772 308.976 21.7311C308.624 21.6337 308.221 21.2928 308.071 20.8544C307.719 19.6368 307.87 18.2244 308.724 17.2504C309.026 16.8607 309.629 16.5198 310.233 16.6659C310.786 16.812 311.037 17.3478 311.188 17.7861C311.49 18.9063 311.088 20.2213 310.635 21.0979ZM310.183 36.1961C309.629 36.4396 308.875 36.3422 308.523 35.8552C308.02 35.1733 307.92 34.2967 308.171 33.5174C308.473 32.6894 308.925 31.618 309.78 31.2283C310.434 30.8874 311.088 31.2283 311.389 31.8128C311.892 32.6407 311.59 33.7122 311.49 34.5889C311.238 35.1733 310.836 35.8552 310.183 36.1961Z" stroke="#F8F5F0" stroke-width="2" mask="url(#path-1-outside-1_129_33)"/>
<path d="M326.189 34.5889C324.177 37.6085 321.462 40.0924 318.646 41.5535C318.143 41.797 317.59 40.9691 318.043 40.6281C319.049 39.8002 320.808 38.2904 321.965 37.0241C323.876 34.9785 325.233 32.6894 326.34 30.1081C327.597 27.2346 328.25 23.6792 327.949 20.2213C327.597 16.6659 326.591 13.4028 324.731 10.4805C322.92 7.70442 320.708 5.22053 318.395 2.98016C318.093 2.68794 318.093 2.15219 318.345 1.90867C318.546 1.71386 318.998 1.37293 319.501 1.81127C322.066 3.95423 324.479 6.63294 326.289 9.65257C327.647 11.8442 328.753 14.2307 329.357 16.7633C330.111 19.7342 330.211 23.2409 329.608 26.5041C329.055 29.3289 327.848 32.105 326.189 34.5889Z" stroke="#F8F5F0" stroke-width="2" mask="url(#path-1-outside-1_129_33)"/>
</svg>
