<svg width="199" height="65" viewBox="0 0 199 65" fill="none" xmlns="http://www.w3.org/2000/svg">
<mask id="path-1-outside-1_129_32" maskUnits="userSpaceOnUse" x="0" y="0.597656" width="200" height="65" fill="black">
<rect fill="white" y="0.597656" width="200" height="65"/>
<path d="M14.7317 51.2126C11.9152 51.5844 8.95054 51.3613 6.13407 49.6513C2.4282 47.4209 0.797611 43.5548 1.01996 39.2426C1.24232 35.897 2.27996 32.7744 4.1329 29.9492C5.98584 27.124 8.57995 24.8192 11.6929 23.3323C13.3235 22.5144 15.547 22.1427 17.3258 22.8862C18.8082 23.481 20.3646 25.0423 20.6611 26.5292C20.8093 26.9753 20.0682 27.9418 19.4752 27.4957C18.6599 26.7523 17.6223 25.7857 16.5846 25.3397C15.547 24.8936 14.5835 24.8192 13.4717 25.2653C10.5811 26.4549 7.91289 28.7596 6.13407 31.5105C4.50349 34.0383 3.53996 37.0122 3.46584 40.0605C3.46584 42.8113 4.50349 45.4135 6.80113 47.1235C8.95054 48.6848 11.767 49.0565 14.3611 48.8335C18.7341 48.4618 22.5882 46.6031 26.4423 44.8931C26.887 44.8931 27.554 45.6365 27.1835 46.157C23.4776 48.2387 19.2529 50.5435 14.7317 51.2126Z"/>
<path d="M44.2959 49.5026C42.0724 50.9896 39.33 52.1791 36.5877 52.1791C35.0312 52.1791 33.9195 51.51 32.8818 50.0231C32.5112 50.3204 31.8442 50.5435 31.5477 50.0974C30.2136 48.2387 29.843 45.6365 29.7689 43.1087C29.6206 36.6405 29.6948 31.8822 31.3995 26.0831C31.5477 25.4883 32.9559 24.3731 33.9936 24.6705C34.4383 23.481 35.6242 22.2171 37.0324 22.0684C40.8124 22.0684 44.8889 24.0757 46.1488 27.8675C46.5194 29.057 46.5194 30.3209 46.0747 31.5105C45.63 32.6257 44.8889 33.5922 43.9253 34.3357L43.4806 34.7075C45.3336 35.3022 47.4088 36.4918 48.5947 38.3505C49.4841 39.7631 49.5583 41.4731 49.1877 43.1087C48.5206 45.7852 46.5936 47.9413 44.2959 49.5026ZM46.3712 39.6144C45.7783 38.4992 44.1477 37.83 42.9618 37.2353C41.5536 36.3431 40.2936 36.7148 38.8853 37.0122L36.6618 37.5327C35.8465 37.7557 35.0312 37.7557 34.1418 37.5327C33.7712 37.3096 33.3265 36.5661 33.6971 36.1944C34.5865 35.3022 35.6983 34.8561 36.9583 34.5588L40.3677 34.187C41.7018 33.4435 43.11 31.9566 43.703 30.544C44.0736 29.3544 43.8512 28.5366 43.11 27.5701C41.7759 25.7114 39.6265 24.8936 37.4771 24.6705C36.81 24.5962 36.5877 24.7449 36.4395 25.191C36.2171 25.7857 36.0689 26.4549 35.6983 26.9753C35.55 27.347 35.0312 27.4957 34.6606 27.2727C34.3642 27.1983 34.1418 27.0496 33.9936 26.901C33.1042 30.0979 32.5853 33.7409 32.4371 37.5327C32.2889 41.1013 32.4371 44.5957 32.9559 47.867C33.5489 47.1978 34.29 46.2313 34.6606 45.7109C35.1795 45.1905 36.143 46.0083 35.9948 46.5287C35.8465 46.9005 35.55 47.3465 35.3277 47.7183C35.1795 48.1644 34.9571 48.5361 34.9571 48.8335C35.4018 49.5026 36.4395 49.7257 37.6995 49.577C39.5524 49.2796 41.7759 48.2387 43.4065 46.9748C44.8889 45.7852 46.1489 44.2983 46.5194 42.4396C46.7418 41.5474 46.89 40.5066 46.3712 39.6144Z"/>
<path d="M66.8699 51.2126C62.7934 52.3278 58.0499 52.2535 54.8629 49.5026C53.3805 48.2387 52.2688 46.38 52.1946 44.3726C52.1205 42.5883 52.8617 40.9526 53.8993 39.4657C56.197 36.1944 60.1993 33.964 64.0534 33.5179C65.684 33.3692 67.1664 33.5922 68.3523 34.7818C68.7228 35.1535 68.3523 35.897 67.9817 36.0457H67.3146C67.0923 36.0457 66.7958 35.9714 66.5734 35.9714C66.0546 35.897 65.6099 35.8227 65.3134 36.0457C61.7558 36.1944 58.2723 37.9044 56.1229 40.804C55.1593 42.0679 54.6405 43.0344 54.7888 44.5957C54.937 46.6774 56.4935 48.2387 58.6429 48.9822C61.6817 50.0974 65.4617 49.4283 68.3523 48.3874C69.9087 47.7926 71.317 47.1978 72.6511 46.2313C72.9475 46.0083 73.244 46.2313 73.3923 46.6031C73.4664 46.9005 73.4664 47.1978 73.4664 47.4209C72.4287 49.4283 68.2781 50.8409 66.8699 51.2126ZM71.0205 46.157C70.6499 46.6031 69.9828 46.5287 69.6864 46.3057C68.9452 45.7852 68.9452 44.8187 68.9452 44.0752C69.0193 42.8113 69.2417 41.5474 69.5381 40.2092L70.5017 36.1201C71.0946 33.4435 71.4652 30.767 70.6499 28.5366C69.9828 26.6036 68.3523 24.6705 66.3511 24.4475C64.6464 24.2244 62.9417 24.8192 61.5335 25.8601C60.7923 26.3805 59.1617 27.7931 58.717 28.6109C58.6429 28.9083 58.7911 29.4288 59.0876 29.7262C59.384 30.0236 59.1617 30.9157 58.4946 30.767C57.9758 30.6183 57.3829 30.4696 56.9382 30.0979C56.3452 29.5775 56.1229 28.6109 56.5676 27.8675C57.8276 25.7114 59.6064 23.927 61.904 22.8862C63.3864 22.1427 65.1652 21.8453 67.0181 22.1427C69.2417 22.5144 71.1687 24.1501 72.2805 26.2318C73.9852 29.4288 73.7628 33.4435 72.9476 37.0122C72.2064 40.0605 71.4652 42.8857 71.0205 46.157Z"/>
<path d="M103.336 62.6621C103.114 63.2569 102.373 63.2569 102.002 63.0339C101.187 62.2904 101.187 61.2495 101.113 60.2087C100.89 57.0861 100.594 53.6661 100.965 50.4691C93.9975 49.8 86.5858 50.1717 79.9152 51.4357C79.6187 55.2274 79.7669 59.2421 80.3599 62.8852C80.2858 63.2569 79.7669 63.8517 79.174 63.48C78.507 63.1826 78.2105 62.5878 78.0622 62.0674L77.6917 60.4317C77.5434 58.7961 77.3952 57.1604 77.3211 55.5991C77.2469 53.9635 77.2469 52.3278 77.3952 50.9152C77.4693 50.3204 77.9881 49.7257 78.507 49.3539L80.5822 48.9078C84.8811 41.6961 88.4387 34.2614 91.5516 26.5292C91.6257 26.1575 91.774 25.1166 91.4775 24.7449C91.2552 23.7784 91.8481 23.2579 92.441 22.8118C94.8128 22.4401 97.481 22.5144 99.5563 23.704C100.372 24.0757 100.742 24.8936 100.89 25.7114C100.89 29.5775 100.965 37.607 101.039 41.5474C101.335 43.7035 101.039 45.9339 100.89 48.09C101.039 48.1644 101.261 48.1644 101.557 48.1644C102.002 48.2387 102.299 48.1644 102.521 48.1644C103.188 48.2387 103.781 48.6848 103.781 49.2796C103.188 53.7404 103.114 58.2756 103.336 62.6621ZM98.741 45.9339C98.6669 45.1905 98.5928 44.5213 98.5928 43.7035C98.5928 39.317 98.5187 30.6927 98.4446 26.3062C98.1481 25.7114 97.6293 25.414 97.0363 25.2653C95.9987 24.9679 94.7387 25.0423 93.6269 25.1166C93.9234 26.1575 93.701 27.2727 93.4787 28.2392C90.514 35.1535 87.401 42.0679 83.3987 48.5361C88.2905 47.9413 93.4046 47.7183 98.6669 47.9413C98.741 47.2722 98.741 46.6031 98.741 45.9339Z"/>
<path d="M122.924 46.5287C121.293 48.1644 119.366 49.577 117.217 50.4691C115.364 51.2126 113.214 51.4357 110.991 50.7665C110.917 51.1383 110.62 51.5844 110.25 51.5844C109.064 51.1383 108.619 50.0231 108.397 49.0565C107.878 40.0605 108.841 31.2131 110.398 22.8118C110.768 21.994 112.251 21.5479 112.695 22.7375C112.251 27.0496 111.435 31.3618 111.213 35.674C113.807 33.6666 117.142 32.7001 120.404 33.4435C122.553 33.964 124.702 35.897 125.369 38.0531C126.407 41.1757 125.295 44.2983 122.924 46.5287ZM119.811 36.0457C116.475 35.2279 113.362 36.7148 110.991 39.2426C110.991 41.9935 110.991 46.157 110.917 48.4618C112.844 48.9078 114.771 48.6848 116.475 47.9413C118.699 47.0491 120.7 45.3392 122.257 43.3318C123.368 41.9192 123.442 39.6887 122.553 38.1274C122.034 37.0866 120.848 36.2687 119.811 36.0457Z"/>
<path d="M152.779 6.08363C151.148 6.67841 149.369 7.05015 147.739 7.64493C144.774 8.61145 142.773 9.87535 140.697 12.1801C138.622 14.4106 137.288 17.0871 136.102 19.9123C134.916 22.8118 134.101 26.0088 133.211 29.057C135.88 27.1983 138.993 25.5627 142.254 25.0423C145.144 24.5218 148.331 25.1166 150.851 26.7523C153.52 28.4623 155.298 31.4362 156.04 34.5588C156.781 37.9044 156.484 41.027 154.78 44.0009C153.297 46.6774 151 48.9078 148.183 50.2461C145.811 51.4357 142.699 51.8074 139.882 51.3613C136.621 50.9152 134.027 49.4283 132.1 46.8261C130.024 44.0009 129.431 40.5809 129.506 37.0866C129.654 32.254 131.062 27.0496 132.322 23.1092C133.879 18.351 136.102 13.1467 139.956 9.42927C141.809 7.64493 144.033 6.23233 146.404 5.4145C148.035 4.89407 149.74 4.52233 151.444 4.0019C153.075 3.48147 154.631 2.81234 156.04 1.62277C156.484 1.54843 157.226 1.62277 157.374 2.06886C157.67 2.51495 157.67 3.10973 157.374 3.48147C155.966 4.74537 154.409 5.5632 152.779 6.08363ZM152.63 32.5514C151.667 30.3953 149.74 28.7596 147.59 28.0905C145.441 27.347 142.699 27.4957 140.549 28.1649C137.584 29.057 134.842 30.8414 132.47 32.9975C131.803 36.2687 131.877 40.2092 132.989 43.1831C133.508 44.67 134.546 46.0083 135.88 47.0491C138.103 48.8335 140.401 49.0565 143.217 48.7591C146.256 48.4618 148.999 47.0491 151.222 44.7444C153.001 42.96 153.742 41.1757 153.816 38.5735C153.89 36.4174 153.446 34.2614 152.63 32.5514Z"/>
<path d="M174.572 51.2126C170.495 52.3278 165.752 52.2535 162.565 49.5026C161.083 48.2387 159.971 46.38 159.897 44.3726C159.823 42.5883 160.564 40.9526 161.601 39.4657C163.899 36.1944 167.901 33.964 171.755 33.5179C173.386 33.3692 174.868 33.5922 176.054 34.7818C176.425 35.1535 176.054 35.897 175.684 36.0457H175.017C174.794 36.0457 174.498 35.9714 174.275 35.9714C173.757 35.897 173.312 35.8227 173.015 36.0457C169.458 36.1944 165.974 37.9044 163.825 40.804C162.861 42.0679 162.343 43.0344 162.491 44.5957C162.639 46.6774 164.195 48.2387 166.345 48.9822C169.384 50.0974 173.164 49.4283 176.054 48.3874C177.611 47.7926 179.019 47.1978 180.353 46.2313C180.65 46.0083 180.946 46.2313 181.094 46.6031C181.168 46.9005 181.168 47.1978 181.168 47.4209C180.131 49.4283 175.98 50.8409 174.572 51.2126ZM178.723 46.157C178.352 46.6031 177.685 46.5287 177.388 46.3057C176.647 45.7852 176.647 44.8187 176.647 44.0752C176.721 42.8113 176.944 41.5474 177.24 40.2092L178.204 36.1201C178.797 33.4435 179.167 30.767 178.352 28.5366C177.685 26.6036 176.054 24.6705 174.053 24.4475C172.348 24.2244 170.644 24.8192 169.235 25.8601C168.494 26.3805 166.864 27.7931 166.419 28.6109C166.345 28.9083 166.493 29.4288 166.79 29.7262C167.086 30.0236 166.864 30.9157 166.197 30.767C165.678 30.6183 165.085 30.4696 164.64 30.0979C164.047 29.5775 163.825 28.6109 164.27 27.8675C165.53 25.7114 167.308 23.927 169.606 22.8862C171.088 22.1427 172.867 21.8453 174.72 22.1427C176.944 22.5144 178.871 24.1501 179.983 26.2318C181.687 29.4288 181.465 33.4435 180.65 37.0122C179.908 40.0605 179.167 42.8857 178.723 46.157Z"/>
<path d="M194.955 5.4145L194.436 7.71928C193.621 11.2136 193.547 14.8566 193.547 18.4997C193.472 23.8527 193.843 29.2801 194.362 34.4101C194.214 35.1535 194.14 35.9714 193.25 36.1201C192.361 35.0792 192.138 33.8896 191.99 32.7744C191.397 27.347 191.027 21.771 191.175 16.2692C191.323 11.9571 191.842 7.64493 192.88 3.48147C193.028 3.18407 193.25 2.36625 193.991 2.21755C194.436 2.14321 195.177 2.2919 195.4 2.96103C195.325 3.77886 195.177 4.59668 194.955 5.4145ZM197.104 52.4022C194.51 51.5844 192.657 48.8335 191.99 46.4544C191.916 45.6365 192.138 45.0418 192.805 44.67C193.547 44.5213 194.065 45.1905 194.214 45.6365C194.436 46.4544 194.807 47.1235 195.251 47.867C196.141 49.1309 197.104 50.2461 197.994 51.51C198.068 52.0304 197.475 52.4765 197.104 52.4022Z"/>
</mask>
<path d="M14.7317 51.2126C11.9152 51.5844 8.95054 51.3613 6.13407 49.6513C2.4282 47.4209 0.797611 43.5548 1.01996 39.2426C1.24232 35.897 2.27996 32.7744 4.1329 29.9492C5.98584 27.124 8.57995 24.8192 11.6929 23.3323C13.3235 22.5144 15.547 22.1427 17.3258 22.8862C18.8082 23.481 20.3646 25.0423 20.6611 26.5292C20.8093 26.9753 20.0682 27.9418 19.4752 27.4957C18.6599 26.7523 17.6223 25.7857 16.5846 25.3397C15.547 24.8936 14.5835 24.8192 13.4717 25.2653C10.5811 26.4549 7.91289 28.7596 6.13407 31.5105C4.50349 34.0383 3.53996 37.0122 3.46584 40.0605C3.46584 42.8113 4.50349 45.4135 6.80113 47.1235C8.95054 48.6848 11.767 49.0565 14.3611 48.8335C18.7341 48.4618 22.5882 46.6031 26.4423 44.8931C26.887 44.8931 27.554 45.6365 27.1835 46.157C23.4776 48.2387 19.2529 50.5435 14.7317 51.2126Z" fill="#F8F5F0"/>
<path d="M44.2959 49.5026C42.0724 50.9896 39.33 52.1791 36.5877 52.1791C35.0312 52.1791 33.9195 51.51 32.8818 50.0231C32.5112 50.3204 31.8442 50.5435 31.5477 50.0974C30.2136 48.2387 29.843 45.6365 29.7689 43.1087C29.6206 36.6405 29.6948 31.8822 31.3995 26.0831C31.5477 25.4883 32.9559 24.3731 33.9936 24.6705C34.4383 23.481 35.6242 22.2171 37.0324 22.0684C40.8124 22.0684 44.8889 24.0757 46.1488 27.8675C46.5194 29.057 46.5194 30.3209 46.0747 31.5105C45.63 32.6257 44.8889 33.5922 43.9253 34.3357L43.4806 34.7075C45.3336 35.3022 47.4088 36.4918 48.5947 38.3505C49.4841 39.7631 49.5583 41.4731 49.1877 43.1087C48.5206 45.7852 46.5936 47.9413 44.2959 49.5026ZM46.3712 39.6144C45.7783 38.4992 44.1477 37.83 42.9618 37.2353C41.5536 36.3431 40.2936 36.7148 38.8853 37.0122L36.6618 37.5327C35.8465 37.7557 35.0312 37.7557 34.1418 37.5327C33.7712 37.3096 33.3265 36.5661 33.6971 36.1944C34.5865 35.3022 35.6983 34.8561 36.9583 34.5588L40.3677 34.187C41.7018 33.4435 43.11 31.9566 43.703 30.544C44.0736 29.3544 43.8512 28.5366 43.11 27.5701C41.7759 25.7114 39.6265 24.8936 37.4771 24.6705C36.81 24.5962 36.5877 24.7449 36.4395 25.191C36.2171 25.7857 36.0689 26.4549 35.6983 26.9753C35.55 27.347 35.0312 27.4957 34.6606 27.2727C34.3642 27.1983 34.1418 27.0496 33.9936 26.901C33.1042 30.0979 32.5853 33.7409 32.4371 37.5327C32.2889 41.1013 32.4371 44.5957 32.9559 47.867C33.5489 47.1978 34.29 46.2313 34.6606 45.7109C35.1795 45.1905 36.143 46.0083 35.9948 46.5287C35.8465 46.9005 35.55 47.3465 35.3277 47.7183C35.1795 48.1644 34.9571 48.5361 34.9571 48.8335C35.4018 49.5026 36.4395 49.7257 37.6995 49.577C39.5524 49.2796 41.7759 48.2387 43.4065 46.9748C44.8889 45.7852 46.1489 44.2983 46.5194 42.4396C46.7418 41.5474 46.89 40.5066 46.3712 39.6144Z" fill="#F8F5F0"/>
<path d="M66.8699 51.2126C62.7934 52.3278 58.0499 52.2535 54.8629 49.5026C53.3805 48.2387 52.2688 46.38 52.1946 44.3726C52.1205 42.5883 52.8617 40.9526 53.8993 39.4657C56.197 36.1944 60.1993 33.964 64.0534 33.5179C65.684 33.3692 67.1664 33.5922 68.3523 34.7818C68.7228 35.1535 68.3523 35.897 67.9817 36.0457H67.3146C67.0923 36.0457 66.7958 35.9714 66.5734 35.9714C66.0546 35.897 65.6099 35.8227 65.3134 36.0457C61.7558 36.1944 58.2723 37.9044 56.1229 40.804C55.1593 42.0679 54.6405 43.0344 54.7888 44.5957C54.937 46.6774 56.4935 48.2387 58.6429 48.9822C61.6817 50.0974 65.4617 49.4283 68.3523 48.3874C69.9087 47.7926 71.317 47.1978 72.6511 46.2313C72.9475 46.0083 73.244 46.2313 73.3923 46.6031C73.4664 46.9005 73.4664 47.1978 73.4664 47.4209C72.4287 49.4283 68.2781 50.8409 66.8699 51.2126ZM71.0205 46.157C70.6499 46.6031 69.9828 46.5287 69.6864 46.3057C68.9452 45.7852 68.9452 44.8187 68.9452 44.0752C69.0193 42.8113 69.2417 41.5474 69.5381 40.2092L70.5017 36.1201C71.0946 33.4435 71.4652 30.767 70.6499 28.5366C69.9828 26.6036 68.3523 24.6705 66.3511 24.4475C64.6464 24.2244 62.9417 24.8192 61.5335 25.8601C60.7923 26.3805 59.1617 27.7931 58.717 28.6109C58.6429 28.9083 58.7911 29.4288 59.0876 29.7262C59.384 30.0236 59.1617 30.9157 58.4946 30.767C57.9758 30.6183 57.3829 30.4696 56.9382 30.0979C56.3452 29.5775 56.1229 28.6109 56.5676 27.8675C57.8276 25.7114 59.6064 23.927 61.904 22.8862C63.3864 22.1427 65.1652 21.8453 67.0181 22.1427C69.2417 22.5144 71.1687 24.1501 72.2805 26.2318C73.9852 29.4288 73.7628 33.4435 72.9476 37.0122C72.2064 40.0605 71.4652 42.8857 71.0205 46.157Z" fill="#F8F5F0"/>
<path d="M103.336 62.6621C103.114 63.2569 102.373 63.2569 102.002 63.0339C101.187 62.2904 101.187 61.2495 101.113 60.2087C100.89 57.0861 100.594 53.6661 100.965 50.4691C93.9975 49.8 86.5858 50.1717 79.9152 51.4357C79.6187 55.2274 79.7669 59.2421 80.3599 62.8852C80.2858 63.2569 79.7669 63.8517 79.174 63.48C78.507 63.1826 78.2105 62.5878 78.0622 62.0674L77.6917 60.4317C77.5434 58.7961 77.3952 57.1604 77.3211 55.5991C77.2469 53.9635 77.2469 52.3278 77.3952 50.9152C77.4693 50.3204 77.9881 49.7257 78.507 49.3539L80.5822 48.9078C84.8811 41.6961 88.4387 34.2614 91.5516 26.5292C91.6257 26.1575 91.774 25.1166 91.4775 24.7449C91.2552 23.7784 91.8481 23.2579 92.441 22.8118C94.8128 22.4401 97.481 22.5144 99.5563 23.704C100.372 24.0757 100.742 24.8936 100.89 25.7114C100.89 29.5775 100.965 37.607 101.039 41.5474C101.335 43.7035 101.039 45.9339 100.89 48.09C101.039 48.1644 101.261 48.1644 101.557 48.1644C102.002 48.2387 102.299 48.1644 102.521 48.1644C103.188 48.2387 103.781 48.6848 103.781 49.2796C103.188 53.7404 103.114 58.2756 103.336 62.6621ZM98.741 45.9339C98.6669 45.1905 98.5928 44.5213 98.5928 43.7035C98.5928 39.317 98.5187 30.6927 98.4446 26.3062C98.1481 25.7114 97.6293 25.414 97.0363 25.2653C95.9987 24.9679 94.7387 25.0423 93.6269 25.1166C93.9234 26.1575 93.701 27.2727 93.4787 28.2392C90.514 35.1535 87.401 42.0679 83.3987 48.5361C88.2905 47.9413 93.4046 47.7183 98.6669 47.9413C98.741 47.2722 98.741 46.6031 98.741 45.9339Z" fill="#F8F5F0"/>
<path d="M122.924 46.5287C121.293 48.1644 119.366 49.577 117.217 50.4691C115.364 51.2126 113.214 51.4357 110.991 50.7665C110.917 51.1383 110.62 51.5844 110.25 51.5844C109.064 51.1383 108.619 50.0231 108.397 49.0565C107.878 40.0605 108.841 31.2131 110.398 22.8118C110.768 21.994 112.251 21.5479 112.695 22.7375C112.251 27.0496 111.435 31.3618 111.213 35.674C113.807 33.6666 117.142 32.7001 120.404 33.4435C122.553 33.964 124.702 35.897 125.369 38.0531C126.407 41.1757 125.295 44.2983 122.924 46.5287ZM119.811 36.0457C116.475 35.2279 113.362 36.7148 110.991 39.2426C110.991 41.9935 110.991 46.157 110.917 48.4618C112.844 48.9078 114.771 48.6848 116.475 47.9413C118.699 47.0491 120.7 45.3392 122.257 43.3318C123.368 41.9192 123.442 39.6887 122.553 38.1274C122.034 37.0866 120.848 36.2687 119.811 36.0457Z" fill="#F8F5F0"/>
<path d="M152.779 6.08363C151.148 6.67841 149.369 7.05015 147.739 7.64493C144.774 8.61145 142.773 9.87535 140.697 12.1801C138.622 14.4106 137.288 17.0871 136.102 19.9123C134.916 22.8118 134.101 26.0088 133.211 29.057C135.88 27.1983 138.993 25.5627 142.254 25.0423C145.144 24.5218 148.331 25.1166 150.851 26.7523C153.52 28.4623 155.298 31.4362 156.04 34.5588C156.781 37.9044 156.484 41.027 154.78 44.0009C153.297 46.6774 151 48.9078 148.183 50.2461C145.811 51.4357 142.699 51.8074 139.882 51.3613C136.621 50.9152 134.027 49.4283 132.1 46.8261C130.024 44.0009 129.431 40.5809 129.506 37.0866C129.654 32.254 131.062 27.0496 132.322 23.1092C133.879 18.351 136.102 13.1467 139.956 9.42927C141.809 7.64493 144.033 6.23233 146.404 5.4145C148.035 4.89407 149.74 4.52233 151.444 4.0019C153.075 3.48147 154.631 2.81234 156.04 1.62277C156.484 1.54843 157.226 1.62277 157.374 2.06886C157.67 2.51495 157.67 3.10973 157.374 3.48147C155.966 4.74537 154.409 5.5632 152.779 6.08363ZM152.63 32.5514C151.667 30.3953 149.74 28.7596 147.59 28.0905C145.441 27.347 142.699 27.4957 140.549 28.1649C137.584 29.057 134.842 30.8414 132.47 32.9975C131.803 36.2687 131.877 40.2092 132.989 43.1831C133.508 44.67 134.546 46.0083 135.88 47.0491C138.103 48.8335 140.401 49.0565 143.217 48.7591C146.256 48.4618 148.999 47.0491 151.222 44.7444C153.001 42.96 153.742 41.1757 153.816 38.5735C153.89 36.4174 153.446 34.2614 152.63 32.5514Z" fill="#F8F5F0"/>
<path d="M174.572 51.2126C170.495 52.3278 165.752 52.2535 162.565 49.5026C161.083 48.2387 159.971 46.38 159.897 44.3726C159.823 42.5883 160.564 40.9526 161.601 39.4657C163.899 36.1944 167.901 33.964 171.755 33.5179C173.386 33.3692 174.868 33.5922 176.054 34.7818C176.425 35.1535 176.054 35.897 175.684 36.0457H175.017C174.794 36.0457 174.498 35.9714 174.275 35.9714C173.757 35.897 173.312 35.8227 173.015 36.0457C169.458 36.1944 165.974 37.9044 163.825 40.804C162.861 42.0679 162.343 43.0344 162.491 44.5957C162.639 46.6774 164.195 48.2387 166.345 48.9822C169.384 50.0974 173.164 49.4283 176.054 48.3874C177.611 47.7926 179.019 47.1978 180.353 46.2313C180.65 46.0083 180.946 46.2313 181.094 46.6031C181.168 46.9005 181.168 47.1978 181.168 47.4209C180.131 49.4283 175.98 50.8409 174.572 51.2126ZM178.723 46.157C178.352 46.6031 177.685 46.5287 177.388 46.3057C176.647 45.7852 176.647 44.8187 176.647 44.0752C176.721 42.8113 176.944 41.5474 177.24 40.2092L178.204 36.1201C178.797 33.4435 179.167 30.767 178.352 28.5366C177.685 26.6036 176.054 24.6705 174.053 24.4475C172.348 24.2244 170.644 24.8192 169.235 25.8601C168.494 26.3805 166.864 27.7931 166.419 28.6109C166.345 28.9083 166.493 29.4288 166.79 29.7262C167.086 30.0236 166.864 30.9157 166.197 30.767C165.678 30.6183 165.085 30.4696 164.64 30.0979C164.047 29.5775 163.825 28.6109 164.27 27.8675C165.53 25.7114 167.308 23.927 169.606 22.8862C171.088 22.1427 172.867 21.8453 174.72 22.1427C176.944 22.5144 178.871 24.1501 179.983 26.2318C181.687 29.4288 181.465 33.4435 180.65 37.0122C179.908 40.0605 179.167 42.8857 178.723 46.157Z" fill="#F8F5F0"/>
<path d="M194.955 5.4145L194.436 7.71928C193.621 11.2136 193.547 14.8566 193.547 18.4997C193.472 23.8527 193.843 29.2801 194.362 34.4101C194.214 35.1535 194.14 35.9714 193.25 36.1201C192.361 35.0792 192.138 33.8896 191.99 32.7744C191.397 27.347 191.027 21.771 191.175 16.2692C191.323 11.9571 191.842 7.64493 192.88 3.48147C193.028 3.18407 193.25 2.36625 193.991 2.21755C194.436 2.14321 195.177 2.2919 195.4 2.96103C195.325 3.77886 195.177 4.59668 194.955 5.4145ZM197.104 52.4022C194.51 51.5844 192.657 48.8335 191.99 46.4544C191.916 45.6365 192.138 45.0418 192.805 44.67C193.547 44.5213 194.065 45.1905 194.214 45.6365C194.436 46.4544 194.807 47.1235 195.251 47.867C196.141 49.1309 197.104 50.2461 197.994 51.51C198.068 52.0304 197.475 52.4765 197.104 52.4022Z" fill="#F8F5F0"/>
<path d="M14.7317 51.2126C11.9152 51.5844 8.95054 51.3613 6.13407 49.6513C2.4282 47.4209 0.797611 43.5548 1.01996 39.2426C1.24232 35.897 2.27996 32.7744 4.1329 29.9492C5.98584 27.124 8.57995 24.8192 11.6929 23.3323C13.3235 22.5144 15.547 22.1427 17.3258 22.8862C18.8082 23.481 20.3646 25.0423 20.6611 26.5292C20.8093 26.9753 20.0682 27.9418 19.4752 27.4957C18.6599 26.7523 17.6223 25.7857 16.5846 25.3397C15.547 24.8936 14.5835 24.8192 13.4717 25.2653C10.5811 26.4549 7.91289 28.7596 6.13407 31.5105C4.50349 34.0383 3.53996 37.0122 3.46584 40.0605C3.46584 42.8113 4.50349 45.4135 6.80113 47.1235C8.95054 48.6848 11.767 49.0565 14.3611 48.8335C18.7341 48.4618 22.5882 46.6031 26.4423 44.8931C26.887 44.8931 27.554 45.6365 27.1835 46.157C23.4776 48.2387 19.2529 50.5435 14.7317 51.2126Z" stroke="#F8F5F0" stroke-width="2" mask="url(#path-1-outside-1_129_32)"/>
<path d="M44.2959 49.5026C42.0724 50.9896 39.33 52.1791 36.5877 52.1791C35.0312 52.1791 33.9195 51.51 32.8818 50.0231C32.5112 50.3204 31.8442 50.5435 31.5477 50.0974C30.2136 48.2387 29.843 45.6365 29.7689 43.1087C29.6206 36.6405 29.6948 31.8822 31.3995 26.0831C31.5477 25.4883 32.9559 24.3731 33.9936 24.6705C34.4383 23.481 35.6242 22.2171 37.0324 22.0684C40.8124 22.0684 44.8889 24.0757 46.1488 27.8675C46.5194 29.057 46.5194 30.3209 46.0747 31.5105C45.63 32.6257 44.8889 33.5922 43.9253 34.3357L43.4806 34.7075C45.3336 35.3022 47.4088 36.4918 48.5947 38.3505C49.4841 39.7631 49.5583 41.4731 49.1877 43.1087C48.5206 45.7852 46.5936 47.9413 44.2959 49.5026ZM46.3712 39.6144C45.7783 38.4992 44.1477 37.83 42.9618 37.2353C41.5536 36.3431 40.2936 36.7148 38.8853 37.0122L36.6618 37.5327C35.8465 37.7557 35.0312 37.7557 34.1418 37.5327C33.7712 37.3096 33.3265 36.5661 33.6971 36.1944C34.5865 35.3022 35.6983 34.8561 36.9583 34.5588L40.3677 34.187C41.7018 33.4435 43.11 31.9566 43.703 30.544C44.0736 29.3544 43.8512 28.5366 43.11 27.5701C41.7759 25.7114 39.6265 24.8936 37.4771 24.6705C36.81 24.5962 36.5877 24.7449 36.4395 25.191C36.2171 25.7857 36.0689 26.4549 35.6983 26.9753C35.55 27.347 35.0312 27.4957 34.6606 27.2727C34.3642 27.1983 34.1418 27.0496 33.9936 26.901C33.1042 30.0979 32.5853 33.7409 32.4371 37.5327C32.2889 41.1013 32.4371 44.5957 32.9559 47.867C33.5489 47.1978 34.29 46.2313 34.6606 45.7109C35.1795 45.1905 36.143 46.0083 35.9948 46.5287C35.8465 46.9005 35.55 47.3465 35.3277 47.7183C35.1795 48.1644 34.9571 48.5361 34.9571 48.8335C35.4018 49.5026 36.4395 49.7257 37.6995 49.577C39.5524 49.2796 41.7759 48.2387 43.4065 46.9748C44.8889 45.7852 46.1489 44.2983 46.5194 42.4396C46.7418 41.5474 46.89 40.5066 46.3712 39.6144Z" stroke="#F8F5F0" stroke-width="2" mask="url(#path-1-outside-1_129_32)"/>
<path d="M66.8699 51.2126C62.7934 52.3278 58.0499 52.2535 54.8629 49.5026C53.3805 48.2387 52.2688 46.38 52.1946 44.3726C52.1205 42.5883 52.8617 40.9526 53.8993 39.4657C56.197 36.1944 60.1993 33.964 64.0534 33.5179C65.684 33.3692 67.1664 33.5922 68.3523 34.7818C68.7228 35.1535 68.3523 35.897 67.9817 36.0457H67.3146C67.0923 36.0457 66.7958 35.9714 66.5734 35.9714C66.0546 35.897 65.6099 35.8227 65.3134 36.0457C61.7558 36.1944 58.2723 37.9044 56.1229 40.804C55.1593 42.0679 54.6405 43.0344 54.7888 44.5957C54.937 46.6774 56.4935 48.2387 58.6429 48.9822C61.6817 50.0974 65.4617 49.4283 68.3523 48.3874C69.9087 47.7926 71.317 47.1978 72.6511 46.2313C72.9475 46.0083 73.244 46.2313 73.3923 46.6031C73.4664 46.9005 73.4664 47.1978 73.4664 47.4209C72.4287 49.4283 68.2781 50.8409 66.8699 51.2126ZM71.0205 46.157C70.6499 46.6031 69.9828 46.5287 69.6864 46.3057C68.9452 45.7852 68.9452 44.8187 68.9452 44.0752C69.0193 42.8113 69.2417 41.5474 69.5381 40.2092L70.5017 36.1201C71.0946 33.4435 71.4652 30.767 70.6499 28.5366C69.9828 26.6036 68.3523 24.6705 66.3511 24.4475C64.6464 24.2244 62.9417 24.8192 61.5335 25.8601C60.7923 26.3805 59.1617 27.7931 58.717 28.6109C58.6429 28.9083 58.7911 29.4288 59.0876 29.7262C59.384 30.0236 59.1617 30.9157 58.4946 30.767C57.9758 30.6183 57.3829 30.4696 56.9382 30.0979C56.3452 29.5775 56.1229 28.6109 56.5676 27.8675C57.8276 25.7114 59.6064 23.927 61.904 22.8862C63.3864 22.1427 65.1652 21.8453 67.0181 22.1427C69.2417 22.5144 71.1687 24.1501 72.2805 26.2318C73.9852 29.4288 73.7628 33.4435 72.9476 37.0122C72.2064 40.0605 71.4652 42.8857 71.0205 46.157Z" stroke="#F8F5F0" stroke-width="2" mask="url(#path-1-outside-1_129_32)"/>
<path d="M103.336 62.6621C103.114 63.2569 102.373 63.2569 102.002 63.0339C101.187 62.2904 101.187 61.2495 101.113 60.2087C100.89 57.0861 100.594 53.6661 100.965 50.4691C93.9975 49.8 86.5858 50.1717 79.9152 51.4357C79.6187 55.2274 79.7669 59.2421 80.3599 62.8852C80.2858 63.2569 79.7669 63.8517 79.174 63.48C78.507 63.1826 78.2105 62.5878 78.0622 62.0674L77.6917 60.4317C77.5434 58.7961 77.3952 57.1604 77.3211 55.5991C77.2469 53.9635 77.2469 52.3278 77.3952 50.9152C77.4693 50.3204 77.9881 49.7257 78.507 49.3539L80.5822 48.9078C84.8811 41.6961 88.4387 34.2614 91.5516 26.5292C91.6257 26.1575 91.774 25.1166 91.4775 24.7449C91.2552 23.7784 91.8481 23.2579 92.441 22.8118C94.8128 22.4401 97.481 22.5144 99.5563 23.704C100.372 24.0757 100.742 24.8936 100.89 25.7114C100.89 29.5775 100.965 37.607 101.039 41.5474C101.335 43.7035 101.039 45.9339 100.89 48.09C101.039 48.1644 101.261 48.1644 101.557 48.1644C102.002 48.2387 102.299 48.1644 102.521 48.1644C103.188 48.2387 103.781 48.6848 103.781 49.2796C103.188 53.7404 103.114 58.2756 103.336 62.6621ZM98.741 45.9339C98.6669 45.1905 98.5928 44.5213 98.5928 43.7035C98.5928 39.317 98.5187 30.6927 98.4446 26.3062C98.1481 25.7114 97.6293 25.414 97.0363 25.2653C95.9987 24.9679 94.7387 25.0423 93.6269 25.1166C93.9234 26.1575 93.701 27.2727 93.4787 28.2392C90.514 35.1535 87.401 42.0679 83.3987 48.5361C88.2905 47.9413 93.4046 47.7183 98.6669 47.9413C98.741 47.2722 98.741 46.6031 98.741 45.9339Z" stroke="#F8F5F0" stroke-width="2" mask="url(#path-1-outside-1_129_32)"/>
<path d="M122.924 46.5287C121.293 48.1644 119.366 49.577 117.217 50.4691C115.364 51.2126 113.214 51.4357 110.991 50.7665C110.917 51.1383 110.62 51.5844 110.25 51.5844C109.064 51.1383 108.619 50.0231 108.397 49.0565C107.878 40.0605 108.841 31.2131 110.398 22.8118C110.768 21.994 112.251 21.5479 112.695 22.7375C112.251 27.0496 111.435 31.3618 111.213 35.674C113.807 33.6666 117.142 32.7001 120.404 33.4435C122.553 33.964 124.702 35.897 125.369 38.0531C126.407 41.1757 125.295 44.2983 122.924 46.5287ZM119.811 36.0457C116.475 35.2279 113.362 36.7148 110.991 39.2426C110.991 41.9935 110.991 46.157 110.917 48.4618C112.844 48.9078 114.771 48.6848 116.475 47.9413C118.699 47.0491 120.7 45.3392 122.257 43.3318C123.368 41.9192 123.442 39.6887 122.553 38.1274C122.034 37.0866 120.848 36.2687 119.811 36.0457Z" stroke="#F8F5F0" stroke-width="2" mask="url(#path-1-outside-1_129_32)"/>
<path d="M152.779 6.08363C151.148 6.67841 149.369 7.05015 147.739 7.64493C144.774 8.61145 142.773 9.87535 140.697 12.1801C138.622 14.4106 137.288 17.0871 136.102 19.9123C134.916 22.8118 134.101 26.0088 133.211 29.057C135.88 27.1983 138.993 25.5627 142.254 25.0423C145.144 24.5218 148.331 25.1166 150.851 26.7523C153.52 28.4623 155.298 31.4362 156.04 34.5588C156.781 37.9044 156.484 41.027 154.78 44.0009C153.297 46.6774 151 48.9078 148.183 50.2461C145.811 51.4357 142.699 51.8074 139.882 51.3613C136.621 50.9152 134.027 49.4283 132.1 46.8261C130.024 44.0009 129.431 40.5809 129.506 37.0866C129.654 32.254 131.062 27.0496 132.322 23.1092C133.879 18.351 136.102 13.1467 139.956 9.42927C141.809 7.64493 144.033 6.23233 146.404 5.4145C148.035 4.89407 149.74 4.52233 151.444 4.0019C153.075 3.48147 154.631 2.81234 156.04 1.62277C156.484 1.54843 157.226 1.62277 157.374 2.06886C157.67 2.51495 157.67 3.10973 157.374 3.48147C155.966 4.74537 154.409 5.5632 152.779 6.08363ZM152.63 32.5514C151.667 30.3953 149.74 28.7596 147.59 28.0905C145.441 27.347 142.699 27.4957 140.549 28.1649C137.584 29.057 134.842 30.8414 132.47 32.9975C131.803 36.2687 131.877 40.2092 132.989 43.1831C133.508 44.67 134.546 46.0083 135.88 47.0491C138.103 48.8335 140.401 49.0565 143.217 48.7591C146.256 48.4618 148.999 47.0491 151.222 44.7444C153.001 42.96 153.742 41.1757 153.816 38.5735C153.89 36.4174 153.446 34.2614 152.63 32.5514Z" stroke="#F8F5F0" stroke-width="2" mask="url(#path-1-outside-1_129_32)"/>
<path d="M174.572 51.2126C170.495 52.3278 165.752 52.2535 162.565 49.5026C161.083 48.2387 159.971 46.38 159.897 44.3726C159.823 42.5883 160.564 40.9526 161.601 39.4657C163.899 36.1944 167.901 33.964 171.755 33.5179C173.386 33.3692 174.868 33.5922 176.054 34.7818C176.425 35.1535 176.054 35.897 175.684 36.0457H175.017C174.794 36.0457 174.498 35.9714 174.275 35.9714C173.757 35.897 173.312 35.8227 173.015 36.0457C169.458 36.1944 165.974 37.9044 163.825 40.804C162.861 42.0679 162.343 43.0344 162.491 44.5957C162.639 46.6774 164.195 48.2387 166.345 48.9822C169.384 50.0974 173.164 49.4283 176.054 48.3874C177.611 47.7926 179.019 47.1978 180.353 46.2313C180.65 46.0083 180.946 46.2313 181.094 46.6031C181.168 46.9005 181.168 47.1978 181.168 47.4209C180.131 49.4283 175.98 50.8409 174.572 51.2126ZM178.723 46.157C178.352 46.6031 177.685 46.5287 177.388 46.3057C176.647 45.7852 176.647 44.8187 176.647 44.0752C176.721 42.8113 176.944 41.5474 177.24 40.2092L178.204 36.1201C178.797 33.4435 179.167 30.767 178.352 28.5366C177.685 26.6036 176.054 24.6705 174.053 24.4475C172.348 24.2244 170.644 24.8192 169.235 25.8601C168.494 26.3805 166.864 27.7931 166.419 28.6109C166.345 28.9083 166.493 29.4288 166.79 29.7262C167.086 30.0236 166.864 30.9157 166.197 30.767C165.678 30.6183 165.085 30.4696 164.64 30.0979C164.047 29.5775 163.825 28.6109 164.27 27.8675C165.53 25.7114 167.308 23.927 169.606 22.8862C171.088 22.1427 172.867 21.8453 174.72 22.1427C176.944 22.5144 178.871 24.1501 179.983 26.2318C181.687 29.4288 181.465 33.4435 180.65 37.0122C179.908 40.0605 179.167 42.8857 178.723 46.157Z" stroke="#F8F5F0" stroke-width="2" mask="url(#path-1-outside-1_129_32)"/>
<path d="M194.955 5.4145L194.436 7.71928C193.621 11.2136 193.547 14.8566 193.547 18.4997C193.472 23.8527 193.843 29.2801 194.362 34.4101C194.214 35.1535 194.14 35.9714 193.25 36.1201C192.361 35.0792 192.138 33.8896 191.99 32.7744C191.397 27.347 191.027 21.771 191.175 16.2692C191.323 11.9571 191.842 7.64493 192.88 3.48147C193.028 3.18407 193.25 2.36625 193.991 2.21755C194.436 2.14321 195.177 2.2919 195.4 2.96103C195.325 3.77886 195.177 4.59668 194.955 5.4145ZM197.104 52.4022C194.51 51.5844 192.657 48.8335 191.99 46.4544C191.916 45.6365 192.138 45.0418 192.805 44.67C193.547 44.5213 194.065 45.1905 194.214 45.6365C194.436 46.4544 194.807 47.1235 195.251 47.867C196.141 49.1309 197.104 50.2461 197.994 51.51C198.068 52.0304 197.475 52.4765 197.104 52.4022Z" stroke="#F8F5F0" stroke-width="2" mask="url(#path-1-outside-1_129_32)"/>
</svg>
