<svg width="283" height="33" viewBox="0 0 283 33" fill="none" xmlns="http://www.w3.org/2000/svg">
<path d="M7.55695 2.25447C7.25995 2.55764 6.92995 2.82712 6.66595 3.19766C5.57696 4.67981 4.35597 6.12827 3.46498 7.77885C2.54098 9.46311 2.04599 11.2821 1.64999 13.2358C1.28699 14.8864 1.18799 16.7054 1.35299 18.5918C1.48499 19.9392 1.91399 21.2529 2.54098 22.4656C3.76197 24.7225 5.64296 26.5752 7.49095 27.6194C7.75495 27.7879 7.72195 28.2594 7.39195 28.3268C6.63295 28.5289 5.93996 28.0237 5.37896 27.6194C3.86097 26.5078 2.40898 24.8572 1.38599 22.8024C0.593996 21.1856 0.0329997 19.3666 0 17.3791C0 15.8296 0.164999 14.3475 0.461997 12.8653C0.857994 11.0126 1.48499 9.26099 2.27698 7.64411C3.66297 4.88192 5.51096 2.52396 7.62295 0.637585C7.95294 0.469159 8.24994 0.873381 8.24994 1.10918C8.15094 1.61446 7.85395 1.95131 7.55695 2.25447Z" fill="#F8F5F0"/>
<path d="M16.3021 23.813C15.3122 24.4867 14.0912 25.0257 12.8702 25.0257C12.1772 25.0257 11.6822 24.7225 11.2202 24.0488C11.0552 24.1835 10.7582 24.2846 10.6262 24.0825C10.0322 23.2404 9.86719 22.0614 9.83419 20.9161C9.76819 17.9855 9.80119 15.8296 10.5602 13.2022C10.6262 12.9327 11.2532 12.4274 11.7152 12.5621C11.9132 12.0232 12.4412 11.4505 13.0682 11.3832C14.7512 11.3832 16.5661 12.2927 17.1271 14.0106C17.2921 14.5496 17.2921 15.1222 17.0941 15.6612C16.8961 16.1665 16.5661 16.6044 16.1371 16.9412L15.9391 17.1096C16.7641 17.3791 17.6881 17.9181 18.2161 18.7602C18.6121 19.4002 18.6451 20.175 18.4801 20.9161C18.1831 22.1287 17.3251 23.1056 16.3021 23.813ZM17.2261 19.3329C16.9621 18.8276 16.2361 18.5244 15.7081 18.2549C15.0812 17.8507 14.5202 18.0191 13.8932 18.1539L12.9032 18.3897C12.5402 18.4907 12.1772 18.4907 11.7812 18.3897C11.6162 18.2886 11.4182 17.9518 11.5832 17.7834C11.9792 17.3791 12.4742 17.177 13.0352 17.0423L14.5532 16.8739C15.1472 16.537 15.7741 15.8633 16.0381 15.2233C16.2031 14.6843 16.1041 14.3138 15.7741 13.8759C15.1802 13.0337 14.2232 12.6632 13.2662 12.5621C12.9692 12.5285 12.8702 12.5958 12.8042 12.7979C12.7052 13.0674 12.6392 13.3706 12.4742 13.6064C12.4082 13.7748 12.1772 13.8422 12.0122 13.7411C11.8802 13.7074 11.7812 13.6401 11.7152 13.5727C11.3192 15.0212 11.0882 16.6717 11.0222 18.3897C10.9562 20.0066 11.0222 21.5898 11.2532 23.0719C11.5172 22.7688 11.8472 22.3309 12.0122 22.0951C12.2432 21.8593 12.6722 22.2298 12.6062 22.4656C12.5402 22.634 12.4082 22.8361 12.3092 23.0046C12.2432 23.2067 12.1442 23.3751 12.1442 23.5098C12.3422 23.813 12.8042 23.9141 13.3652 23.8467C14.1902 23.7119 15.1802 23.2404 15.9061 22.6677C16.5661 22.1287 17.1271 21.455 17.2921 20.6129C17.3911 20.2087 17.4571 19.7371 17.2261 19.3329Z" fill="#F8F5F0"/>
<path d="M27.5079 23.9141C26.0229 24.6888 24.2409 25.0257 22.6239 24.2172C21.3699 23.5772 20.4789 22.4993 20.0499 21.1519C19.5549 19.5687 19.7199 17.7833 20.3799 16.3012C20.8749 15.2233 21.6339 14.2801 22.5249 13.5727C23.1189 13.1348 24.0099 12.5958 24.8349 12.4948C25.4949 11.72 26.5839 11.4842 27.5079 11.72C29.0919 12.1579 30.4449 13.8085 30.8739 15.257C31.3029 16.6717 31.4019 18.2213 31.0059 19.6697C30.5109 21.6235 29.2569 23.0382 27.5079 23.9141ZM29.7849 15.6275C29.3889 14.5159 28.4979 13.2695 27.3429 12.8653C26.8149 12.6632 26.2539 12.5958 25.8249 12.9327C25.3959 13.2695 25.1319 13.8085 24.9339 14.2801C24.9009 14.3811 24.9009 14.5159 24.9009 14.6506C24.9009 14.7854 24.9009 14.9538 24.8679 15.0885C24.8349 15.1559 24.5049 15.358 24.4059 15.1559C24.3399 14.8527 24.2739 14.2464 24.3069 13.7748C23.0529 14.3138 21.9969 15.4254 21.4029 16.6717C20.7759 17.9855 20.7429 19.5013 21.1389 20.8487C21.4689 21.8929 22.0959 22.7688 23.1519 23.2067C24.4719 23.7119 25.8909 23.5435 27.0789 22.9372C28.4319 22.2298 29.3889 21.1519 29.8509 19.7034C30.2799 18.4234 30.2139 16.9075 29.7849 15.6275Z" fill="#F8F5F0"/>
<path d="M42.68 13.1011C41.822 12.899 40.9641 12.6969 40.0731 12.6632C39.3471 13.6064 38.9841 14.718 38.7861 15.897C38.5551 17.1096 38.5881 18.3897 38.5221 19.636C38.4561 21.3203 38.5881 22.9372 38.7861 24.5204C38.6871 24.7225 38.3901 24.8572 38.1591 24.7225C37.5981 24.0151 37.4661 23.1056 37.4331 22.1961C37.4001 20.175 37.3671 18.0528 37.6641 16.0654C37.8621 14.7854 38.2251 13.6064 38.9841 12.5285C36.9381 12.4274 35.0571 12.8653 33.1761 13.4043C32.9121 13.3706 32.6151 13.2022 32.4501 12.9327C32.3841 12.6969 32.5161 12.5621 32.6481 12.4948L32.8461 12.4274L33.0111 12.36C34.3971 11.7874 36.0801 11.4842 37.6971 11.4505C39.3471 11.3832 40.9971 11.5516 42.449 12.0906C42.614 12.1579 42.911 12.3937 43.01 12.5958C43.043 12.8316 42.878 13.1348 42.68 13.1011Z" fill="#F8F5F0"/>
<path d="M62.4776 21.0508C61.6526 22.4319 60.4976 23.3751 59.2106 23.9814C57.8576 24.6551 56.2736 24.9583 54.7556 24.8909C54.3926 24.8909 54.1286 24.6888 53.8646 24.4867C53.3367 23.6446 53.6006 22.4993 53.8316 21.6908C53.9636 21.455 54.3596 21.5561 54.4586 21.7919C54.5246 22.0277 54.5246 22.2635 54.4916 22.4656C54.4916 22.7014 54.4586 22.9035 54.4586 23.1056C54.4916 23.4088 54.5576 23.6446 54.8546 23.7793C56.3726 23.813 57.8576 23.5098 59.1446 22.8024C60.2006 22.1961 61.1246 21.2866 61.7516 20.1076C62.2136 19.2318 62.4446 18.1539 62.4116 17.0423C62.3786 16.2001 62.1806 15.3917 61.7846 14.718C61.2236 13.8085 60.4646 13.1685 59.5406 12.7979C58.4516 12.3263 57.1646 12.2253 55.8776 12.3937C55.1846 12.4948 54.5906 12.9327 54.1286 13.438L53.6006 14.0106C53.3366 13.9432 53.3036 13.7411 53.3036 13.6064C53.3036 13.5053 53.3366 13.438 53.3366 13.3369V13.2695C53.7656 11.9221 55.0856 11.3158 56.2736 11.2484C57.5936 11.1811 58.9466 11.3495 60.0686 11.8211C61.1246 12.2927 62.0156 13.0337 62.6756 14.1453C63.8966 16.0991 63.6656 19.1308 62.4776 21.0508ZM61.6856 18.4571V18.6255C61.6856 18.7602 61.6196 18.895 61.3886 18.895C60.5636 18.4907 59.6396 18.3897 58.6826 18.3897C57.3626 18.356 55.9436 18.5581 54.7226 18.4907C54.4586 18.4571 54.2606 18.2213 54.1616 17.9855C54.1286 17.6149 54.3596 17.4802 54.5906 17.3791C56.9006 17.4465 59.6396 16.6381 61.6196 18.2886C61.6526 18.356 61.6526 18.4234 61.6856 18.4571Z" fill="#F8F5F0"/>
<path d="M74.9386 13.1011C74.0806 12.899 73.2226 12.6969 72.3316 12.6632C71.6056 13.6064 71.2426 14.718 71.0446 15.897C70.8136 17.1096 70.8466 18.3897 70.7806 19.636C70.7146 21.3203 70.8466 22.9372 71.0446 24.5204C70.9456 24.7225 70.6486 24.8572 70.4176 24.7225C69.8566 24.0151 69.7246 23.1056 69.6916 22.1961C69.6586 20.175 69.6256 18.0528 69.9226 16.0654C70.1206 14.7854 70.4836 13.6064 71.2426 12.5285C69.1966 12.4274 67.3157 12.8653 65.4347 13.4043C65.1707 13.3706 64.8737 13.2022 64.7087 12.9327C64.6427 12.6969 64.7747 12.5621 64.9067 12.4948L65.1047 12.4274L65.2697 12.36C66.6557 11.7874 68.3387 11.4842 69.9556 11.4505C71.6056 11.3832 73.2556 11.5516 74.7076 12.0906C74.8726 12.1579 75.1696 12.3937 75.2686 12.5958C75.3016 12.8316 75.1366 13.1348 74.9386 13.1011Z" fill="#F8F5F0"/>
<path d="M86.8716 24.6888C86.1786 23.8804 85.9806 22.8024 85.8156 21.7582C85.4856 19.3329 85.5516 16.7391 85.4856 14.2127C83.4727 17.1433 81.8887 20.1076 79.9747 23.4425C79.7767 23.6783 79.6777 23.8467 79.3477 23.9814C79.0507 23.9814 78.7867 23.9477 78.5557 23.6109C76.9717 20.6129 76.6747 16.9412 76.9057 13.3032C76.9057 13.0674 76.9717 12.6632 77.2357 12.5621C77.6647 12.4274 77.9947 12.7979 77.9947 13.0674C77.7967 16.4359 78.1597 19.636 79.2487 22.533C80.4037 20.5119 81.3277 18.8276 82.3177 17.177C83.3407 15.4591 84.4296 13.8085 85.8156 11.9221C86.0796 11.72 86.4426 11.8548 86.5746 12.1242C86.6736 15.358 86.6406 18.5244 86.9046 21.6235C86.9706 22.634 87.2016 23.6109 87.2676 24.5541C87.2676 24.6888 86.9706 24.8236 86.8716 24.6888Z" fill="#F8F5F0"/>
<path d="M98.6487 13.539C98.5167 13.539 98.3847 13.5727 98.2857 13.5727L97.9557 13.6738C96.3387 14.179 95.1177 15.5938 93.8967 16.9749C94.9527 19.0971 96.3717 21.4887 97.7577 23.4761C97.7907 23.7119 97.4937 23.8804 97.3287 23.8467C96.6357 23.5772 96.1407 22.9035 95.8107 22.4319C94.8537 20.9834 93.9957 19.5013 93.1707 17.9855C91.6197 20.0066 90.3657 22.1624 89.9037 24.8236C89.2767 24.5204 89.2437 23.8804 89.2437 23.3077C89.4747 22.0614 90.0027 20.9834 90.5967 19.9392C91.2237 18.895 91.8837 17.9181 92.5767 16.9412C92.1807 16.3012 91.7517 15.6612 91.3227 15.0212C90.8937 14.3811 90.4317 13.7748 89.8377 13.1685C89.8377 13.1348 89.7387 13.1011 89.7057 13.0337L89.5077 12.899C89.3757 12.7979 89.2107 12.6969 89.1777 12.5621C89.0788 12.36 89.2438 12.0906 89.4087 11.9895C89.8377 11.8548 90.2997 12.0569 90.6297 12.3263C91.2237 12.7643 91.6197 13.438 92.0157 14.0443L93.3027 15.998C94.6557 14.4485 96.1407 12.7979 98.1207 12.5285C98.4837 12.4948 98.8797 12.4948 99.1767 12.899C99.1767 13.3369 98.9127 13.4716 98.6487 13.539Z" fill="#F8F5F0"/>
<path d="M120.566 24.6551C118.982 23.7456 117.365 23.1056 115.682 22.4993C114.032 21.8929 112.448 21.2866 110.864 20.5792C110.831 21.7919 110.996 23.0382 111.293 24.1499C111.392 24.352 111.326 24.7225 111.029 24.7225C110.765 24.7225 110.6 24.5541 110.501 24.3857C110.402 24.2509 110.336 24.0488 110.237 23.8804C109.874 22.6677 109.742 21.354 109.742 20.0066C109.643 19.9392 109.511 19.8381 109.445 19.6697C109.346 19.5687 109.313 19.3666 109.412 19.1981C109.544 19.0971 109.676 18.895 109.709 18.7602C109.775 18.3223 109.742 17.3118 109.841 16.8739C109.973 16.0991 110.171 15.1559 110.369 14.2127C110.6 13.2695 110.93 12.3263 111.359 11.5179C111.557 11.1811 112.052 11.2484 112.151 11.619C112.118 12.0569 111.986 12.4611 111.854 12.8653C111.755 13.2358 111.557 13.6401 111.458 14.0443C111.128 15.257 110.93 16.5033 110.897 17.7834C112.085 16.7054 113.273 15.6949 114.494 14.7517C116.012 13.6064 117.629 12.6295 119.345 11.9221C119.609 11.9221 119.939 11.9221 120.137 12.0906C120.335 12.2253 120.335 12.4274 120.236 12.6632C118.487 13.4043 116.903 14.3811 115.286 15.5264C113.768 16.6381 112.25 17.9181 110.831 19.2992V19.3329C112.448 20.2424 114.23 20.8487 115.946 21.455C117.464 21.994 118.916 22.6003 120.302 23.5098C120.599 23.6783 120.83 23.9141 120.995 24.2172C121.028 24.4193 120.764 24.6888 120.566 24.6551Z" fill="#F8F5F0"/>
<path d="M123.759 13.1011H123.594C123.495 13.1011 123.363 13.0337 123.33 12.8653C123.297 12.5958 123.396 12.36 123.594 12.1579C124.122 11.6863 124.716 11.4842 125.376 11.5179C125.838 11.5516 126.3 11.619 126.762 11.7874L128.016 12.2253C129.798 12.8316 131.349 14.4485 132.207 16.2001C132.669 17.177 132.834 18.1876 132.603 19.2992C132.372 20.3097 131.778 21.2529 130.986 22.0277C129.006 23.9477 126.531 24.5204 123.792 24.5204C123.759 26.811 123.627 29.3711 123.924 31.628C123.924 31.729 123.99 31.8638 124.056 31.9648C124.089 32.1332 124.155 32.268 124.023 32.4701C123.759 32.6722 123.495 32.6048 123.264 32.4701C122.934 32.0996 122.802 31.6953 122.769 31.2237C122.538 28.8321 122.637 26.5078 122.769 24.0825C122.472 23.813 122.01 23.4425 121.911 23.0382C121.911 22.9035 121.944 22.7688 122.01 22.7014C122.109 22.533 122.241 22.4993 122.307 22.5667C122.406 22.6677 122.604 22.8024 122.769 22.9035C122.967 19.535 123.198 16.3349 123.759 13.1011ZM130.293 15.2906C129.567 14.3811 128.544 13.7411 127.554 13.3032C126.993 13.0337 125.409 12.4274 124.815 12.6969C124.848 13.1685 124.782 14.0106 124.716 14.3811C124.254 17.2444 123.957 20.3097 123.924 23.3414C126.201 23.5098 128.379 22.8024 130.128 21.2529C131.085 20.4108 131.646 19.2318 131.547 18.0191C131.481 17.0086 130.854 15.998 130.293 15.2906Z" fill="#F8F5F0"/>
<path d="M140.37 24.5878C138.555 25.093 136.443 25.0594 135.024 23.813C134.364 23.2404 133.869 22.3982 133.836 21.4887C133.803 20.6803 134.133 19.9392 134.595 19.2655C135.618 17.7833 137.4 16.7728 139.116 16.5707C139.842 16.5033 140.502 16.6044 141.03 17.1433C141.195 17.3118 141.03 17.6486 140.865 17.716H140.568C140.469 17.716 140.337 17.6823 140.238 17.6823C140.007 17.6486 139.809 17.6149 139.677 17.716C138.093 17.7834 136.542 18.5581 135.585 19.8718C135.156 20.4445 134.925 20.8824 134.991 21.5898C135.057 22.533 135.75 23.2404 136.707 23.5772C138.06 24.0825 139.743 23.7793 141.03 23.3077C141.723 23.0382 142.35 22.7688 142.944 22.3309C143.076 22.2298 143.208 22.3309 143.274 22.4993C143.307 22.634 143.307 22.7688 143.307 22.8698C142.845 23.7793 140.997 24.4193 140.37 24.5878ZM142.218 22.2972C142.053 22.4993 141.756 22.4656 141.624 22.3645C141.294 22.1287 141.294 21.6908 141.294 21.354C141.327 20.7813 141.426 20.2087 141.558 19.6024L141.987 17.7497C142.251 16.537 142.416 15.3243 142.053 14.3138C141.756 13.438 141.03 12.5621 140.139 12.4611C139.38 12.36 138.621 12.6295 137.994 13.1011C137.664 13.3369 136.938 13.9769 136.74 14.3475C136.707 14.4822 136.773 14.718 136.905 14.8527C137.037 14.9875 136.938 15.3917 136.641 15.3243C136.41 15.257 136.146 15.1896 135.948 15.0212C135.684 14.7854 135.585 14.3475 135.783 14.0106C136.344 13.0337 137.136 12.2253 138.159 11.7537C138.819 11.4168 139.611 11.2821 140.436 11.4168C141.426 11.5853 142.284 12.3263 142.779 13.2695C143.538 14.718 143.439 16.537 143.076 18.1539C142.746 19.535 142.416 20.815 142.218 22.2972Z" fill="#F8F5F0"/>
<path d="M150.897 24.5878C149.643 24.7562 148.323 24.6551 147.069 23.8804C145.419 22.8698 144.693 21.1182 144.792 19.1644C144.891 17.6486 145.353 16.2338 146.178 14.9538C147.003 13.6738 148.158 12.6295 149.544 11.9558C150.27 11.5853 151.26 11.4168 152.052 11.7537C152.712 12.0232 153.405 12.7306 153.537 13.4043C153.603 13.6064 153.273 14.0443 153.009 13.8422C152.646 13.5053 152.184 13.0674 151.722 12.8653C151.26 12.6632 150.831 12.6295 150.336 12.8316C149.049 13.3706 147.861 14.4148 147.069 15.6612C146.343 16.8065 145.914 18.1539 145.881 19.535C145.881 20.7813 146.343 21.9603 147.366 22.7351C148.323 23.4425 149.577 23.6109 150.732 23.5098C152.679 23.3414 154.395 22.4993 156.111 21.7245C156.309 21.7245 156.606 22.0614 156.441 22.2972C154.791 23.2404 152.91 24.2846 150.897 24.5878Z" fill="#F8F5F0"/>
<path d="M167.921 24.6888C167.228 23.8804 167.03 22.8024 166.865 21.7582C166.535 19.3329 166.601 16.7391 166.535 14.2127C164.522 17.1433 162.938 20.1076 161.024 23.4425C160.826 23.6783 160.727 23.8467 160.397 23.9814C160.1 23.9814 159.836 23.9477 159.605 23.6109C158.021 20.6129 157.724 16.9412 157.955 13.3032C157.955 13.0674 158.021 12.6632 158.285 12.5621C158.714 12.4274 159.044 12.7979 159.044 13.0674C158.846 16.4359 159.209 19.636 160.298 22.533C161.453 20.5119 162.377 18.8276 163.367 17.177C164.39 15.4591 165.479 13.8085 166.865 11.9221C167.129 11.72 167.492 11.8548 167.624 12.1242C167.723 15.358 167.69 18.5244 167.954 21.6235C168.02 22.634 168.251 23.6109 168.317 24.5541C168.317 24.6888 168.02 24.8236 167.921 24.6888Z" fill="#F8F5F0"/>
<path d="M176.596 23.813C175.606 24.4867 174.385 25.0257 173.164 25.0257C172.471 25.0257 171.976 24.7225 171.514 24.0488C171.349 24.1835 171.052 24.2846 170.92 24.0825C170.326 23.2404 170.161 22.0614 170.128 20.9161C170.062 17.9855 170.095 15.8296 170.854 13.2022C170.92 12.9327 171.547 12.4274 172.009 12.5621C172.207 12.0232 172.735 11.4505 173.362 11.3832C175.045 11.3832 176.86 12.2927 177.421 14.0106C177.586 14.5496 177.586 15.1222 177.388 15.6612C177.19 16.1665 176.86 16.6044 176.431 16.9412L176.233 17.1096C177.058 17.3791 177.982 17.9181 178.51 18.7602C178.906 19.4002 178.939 20.175 178.774 20.9161C178.477 22.1287 177.619 23.1056 176.596 23.813ZM177.52 19.3329C177.256 18.8276 176.53 18.5244 176.002 18.2549C175.375 17.8507 174.814 18.0191 174.187 18.1539L173.197 18.3897C172.834 18.4907 172.471 18.4907 172.075 18.3897C171.91 18.2886 171.712 17.9518 171.877 17.7834C172.273 17.3791 172.768 17.177 173.329 17.0423L174.847 16.8739C175.441 16.537 176.068 15.8633 176.332 15.2233C176.497 14.6843 176.398 14.3138 176.068 13.8759C175.474 13.0337 174.517 12.6632 173.56 12.5621C173.263 12.5285 173.164 12.5958 173.098 12.7979C172.999 13.0674 172.933 13.3706 172.768 13.6064C172.702 13.7748 172.471 13.8422 172.306 13.7411C172.174 13.7074 172.075 13.6401 172.009 13.5727C171.613 15.0212 171.382 16.6717 171.316 18.3897C171.25 20.0066 171.316 21.5898 171.547 23.0719C171.811 22.7688 172.141 22.3309 172.306 22.0951C172.537 21.8593 172.966 22.2298 172.9 22.4656C172.834 22.634 172.702 22.8361 172.603 23.0046C172.537 23.2067 172.438 23.3751 172.438 23.5098C172.636 23.813 173.098 23.9141 173.659 23.8467C174.484 23.7119 175.474 23.2404 176.2 22.6677C176.86 22.1287 177.421 21.455 177.586 20.6129C177.685 20.2087 177.751 19.7371 177.52 19.3329Z" fill="#F8F5F0"/>
<path d="M185.987 23.0046C185.129 23.7793 184.073 24.2846 183.05 24.5204C182.225 24.7225 181.07 24.8236 180.377 24.1162C180.179 23.9477 179.882 23.4088 180.179 23.1056C180.41 23.274 180.575 23.4088 180.773 23.5098C180.905 23.6109 181.037 23.6783 181.202 23.6783C181.169 21.354 181.301 16.8739 181.367 14.6169C181.4 14.078 181.334 13.5053 181.367 12.9664C181.433 12.4274 181.532 11.8884 181.961 11.4842C182.258 11.3832 182.522 11.3158 182.687 11.6526C182.522 12.259 182.522 13.3369 182.489 14.5159C182.489 15.5938 182.489 16.7391 182.456 17.5476C182.918 17.2107 183.578 16.9412 184.205 16.8739C184.964 16.8065 185.756 16.9412 186.383 17.3118C187.373 17.8507 187.967 19.0297 187.703 20.2424C187.505 21.2866 186.812 22.2635 185.987 23.0046ZM186.416 18.8613C186.02 18.2213 185.327 17.9855 184.568 17.9855C183.809 18.0191 182.984 18.3223 182.489 18.7939L182.225 23.6109C183.248 23.3751 184.304 22.9035 185.162 22.1624C185.756 21.6571 186.317 21.0508 186.548 20.2761C186.713 19.8045 186.68 19.2318 186.416 18.8613ZM193.28 24.8909C192.455 24.6551 192.455 23.813 192.356 23.1393C191.861 19.2992 192.158 15.5938 192.653 11.7874C192.95 11.3158 193.478 11.72 193.61 11.9895C193.643 12.7643 193.61 13.5053 193.511 14.2801C193.445 15.0212 193.346 15.7959 193.346 16.5707C193.313 17.8844 193.247 19.2318 193.28 20.5792C193.28 21.8929 193.412 23.2404 193.61 24.4867C193.643 24.6551 193.445 24.8909 193.28 24.8909Z" fill="#F8F5F0"/>
<path d="M205.769 13.539C205.637 13.539 205.505 13.5727 205.406 13.5727L205.076 13.6738C203.459 14.179 202.238 15.5938 201.017 16.9749C202.073 19.0971 203.492 21.4887 204.878 23.4761C204.911 23.7119 204.614 23.8804 204.449 23.8467C203.756 23.5772 203.261 22.9035 202.931 22.4319C201.974 20.9834 201.116 19.5013 200.291 17.9855C198.74 20.0066 197.486 22.1624 197.024 24.8236C196.397 24.5204 196.364 23.8804 196.364 23.3077C196.595 22.0614 197.123 20.9834 197.717 19.9392C198.344 18.895 199.004 17.9181 199.697 16.9412C199.301 16.3012 198.872 15.6612 198.443 15.0212C198.014 14.3811 197.552 13.7748 196.958 13.1685C196.958 13.1348 196.859 13.1011 196.826 13.0337L196.628 12.899C196.496 12.7979 196.331 12.6969 196.298 12.5621C196.199 12.36 196.364 12.0906 196.529 11.9895C196.958 11.8548 197.42 12.0569 197.75 12.3263C198.344 12.7643 198.74 13.438 199.136 14.0443L200.423 15.998C201.776 14.4485 203.261 12.7979 205.241 12.5285C205.604 12.4948 206 12.4948 206.297 12.899C206.297 13.3369 206.033 13.4716 205.769 13.539Z" fill="#F8F5F0"/>
<path d="M218.182 13.1011H218.017C217.918 13.1011 217.786 13.0337 217.753 12.8653C217.72 12.5958 217.819 12.36 218.017 12.1579C218.545 11.6863 219.139 11.4842 219.799 11.5179C220.261 11.5516 220.723 11.619 221.185 11.7874L222.439 12.2253C224.221 12.8316 225.772 14.4485 226.63 16.2001C227.092 17.177 227.257 18.1876 227.026 19.2992C226.795 20.3097 226.201 21.2529 225.409 22.0277C223.429 23.9477 220.954 24.5204 218.215 24.5204C218.182 26.811 218.05 29.3711 218.347 31.628C218.347 31.729 218.413 31.8638 218.479 31.9648C218.512 32.1332 218.578 32.268 218.446 32.4701C218.182 32.6722 217.918 32.6048 217.687 32.4701C217.357 32.0996 217.225 31.6953 217.192 31.2237C216.961 28.8321 217.06 26.5078 217.192 24.0825C216.895 23.813 216.433 23.4425 216.334 23.0382C216.334 22.9035 216.367 22.7688 216.433 22.7014C216.532 22.533 216.664 22.4993 216.73 22.5667C216.829 22.6677 217.027 22.8024 217.192 22.9035C217.39 19.535 217.621 16.3349 218.182 13.1011ZM224.716 15.2906C223.99 14.3811 222.967 13.7411 221.977 13.3032C221.416 13.0337 219.832 12.4274 219.238 12.6969C219.271 13.1685 219.205 14.0106 219.139 14.3811C218.677 17.2444 218.38 20.3097 218.347 23.3414C220.624 23.5098 222.802 22.8024 224.551 21.2529C225.508 20.4108 226.069 19.2318 225.97 18.0191C225.904 17.0086 225.277 15.998 224.716 15.2906Z" fill="#F8F5F0"/>
<path d="M233.407 24.7225C231.757 24.6551 230.239 23.8804 229.282 22.4319C228.49 21.2192 228.292 19.8045 228.457 18.4234C228.655 16.8739 229.282 15.3917 230.14 14.2464C231.097 12.9664 232.45 11.9558 234.001 11.6526C235.057 11.4505 236.179 11.5516 236.971 12.4274C237.334 12.8316 237.664 13.2695 237.664 13.8085C237.697 14.3811 237.433 14.8864 236.971 15.257C234.661 17.2107 232.219 19.0297 229.711 20.5119C229.777 21.5561 230.668 22.634 231.625 23.173C232.582 23.7119 233.704 23.7793 234.76 23.6446C235.816 23.5435 236.905 23.173 237.664 22.8024C237.796 22.7014 237.895 22.8024 237.928 22.9035C237.961 22.9709 238.027 23.1056 237.895 23.2067C236.74 24.2846 235.09 24.7899 233.407 24.7225ZM234.859 12.6969C233.902 12.6969 232.945 13.1011 232.186 13.7074C230.569 15.0548 229.612 17.2107 229.612 19.2992C231.955 17.9855 234.166 16.2675 236.311 14.4822C236.476 14.3475 236.608 13.8422 236.377 13.438C236.113 12.899 235.519 12.6969 234.859 12.6969Z" fill="#F8F5F0"/>
<path d="M249.678 4.14085C248.952 4.41033 248.16 4.57875 247.434 4.84824C246.114 5.28614 245.223 5.85879 244.299 6.90303C243.375 7.91359 242.781 9.12625 242.253 10.4063C241.725 11.72 241.362 13.1685 240.966 14.5496C242.154 13.7074 243.54 12.9664 244.992 12.7306C246.279 12.4948 247.698 12.7643 248.82 13.5053C250.008 14.2801 250.8 15.6275 251.13 17.0423C251.46 18.5581 251.328 19.9729 250.569 21.3203C249.909 22.533 248.886 23.5435 247.632 24.1499C246.576 24.6888 245.19 24.8572 243.936 24.6551C242.484 24.453 241.329 23.7793 240.471 22.6003C239.547 21.3203 239.283 19.7708 239.316 18.1876C239.382 15.998 240.009 13.6401 240.57 11.8548C241.263 9.6989 242.253 7.34094 243.969 5.65668C244.794 4.84824 245.784 4.20822 246.84 3.83768C247.566 3.60188 248.325 3.43346 249.084 3.19766C249.81 2.96186 250.503 2.6587 251.13 2.11973C251.328 2.08605 251.658 2.11973 251.724 2.32185C251.856 2.52396 251.856 2.79344 251.724 2.96186C251.097 3.53451 250.404 3.90505 249.678 4.14085ZM249.612 16.1328C249.183 15.1559 248.325 14.4148 247.368 14.1117C246.411 13.7748 245.19 13.8422 244.233 14.1453C242.913 14.5496 241.692 15.358 240.636 16.3349C240.339 17.817 240.372 19.6024 240.867 20.9498C241.098 21.6235 241.56 22.2298 242.154 22.7014C243.144 23.5098 244.167 23.6109 245.421 23.4761C246.774 23.3414 247.995 22.7014 248.985 21.6572C249.777 20.8487 250.107 20.0403 250.14 18.8613C250.173 17.8844 249.975 16.9075 249.612 16.1328Z" fill="#F8F5F0"/>
<path d="M261.263 13.3369C261.461 16.7391 261.362 20.3771 260.999 23.7456C260.933 23.8804 260.867 24.0825 260.801 24.3183C260.702 24.5204 260.636 24.7225 260.471 24.9246C260.405 25.0594 259.976 25.1267 259.877 24.8909C259.943 24.1162 260.306 20.0403 260.207 18.2886C257.798 19.7034 255.554 22.1961 253.871 24.5204C253.706 24.6888 253.31 24.6888 253.244 24.352C253.244 23.7456 253.475 23.274 253.805 22.8024C254.135 22.3645 254.531 21.9603 254.828 21.4887C255.653 20.4782 256.61 19.636 257.6 18.8276C256.808 18.895 255.983 18.8276 255.191 18.4571C254.3 18.0528 253.706 17.2781 253.574 16.2675C253.475 15.6612 253.574 15.0212 253.871 14.5496C254.465 13.6064 255.257 12.7979 256.148 12.259C257.204 11.619 258.359 11.2821 259.646 11.3832C260.339 11.619 261.131 11.8548 261.461 12.5958C261.527 12.8316 261.527 13.1348 261.263 13.3369ZM260.174 14.7854C260.174 14.0443 260.141 13.3369 260.042 12.6632C259.448 12.4274 258.953 12.36 258.293 12.5621C257.6 12.7643 256.775 13.1011 256.115 13.6064C255.323 14.2127 254.729 14.9875 254.696 15.998C254.762 16.4359 254.927 16.8739 255.29 17.2107C255.752 17.5139 256.346 17.6823 256.874 17.716C258.062 17.817 259.283 17.4465 260.207 16.9749C260.174 16.2675 260.174 15.5264 260.174 14.7854Z" fill="#F8F5F0"/>
<path d="M273.582 13.1011C272.724 12.899 271.866 12.6969 270.975 12.6632C270.249 13.6064 269.886 14.718 269.688 15.897C269.457 17.1096 269.49 18.3897 269.424 19.636C269.358 21.3203 269.49 22.9372 269.688 24.5204C269.589 24.7225 269.292 24.8572 269.061 24.7225C268.5 24.0151 268.368 23.1056 268.335 22.1961C268.302 20.175 268.269 18.0528 268.566 16.0654C268.764 14.7854 269.127 13.6064 269.886 12.5285C267.84 12.4274 265.959 12.8653 264.078 13.4043C263.814 13.3706 263.517 13.2022 263.352 12.9327C263.286 12.6969 263.418 12.5621 263.55 12.4948L263.748 12.4274L263.913 12.36C265.299 11.7874 266.982 11.4842 268.599 11.4505C270.249 11.3832 271.899 11.5516 273.351 12.0906C273.516 12.1579 273.813 12.3937 273.912 12.5958C273.945 12.8316 273.78 13.1348 273.582 13.1011Z" fill="#F8F5F0"/>
<path d="M280.499 23.4425C279.179 25.5309 277.397 27.2489 275.549 28.2594C275.219 28.4279 274.856 27.8552 275.153 27.6194C275.813 27.0468 276.968 26.0025 277.727 25.1267C278.981 23.7119 279.872 22.1287 280.598 20.3434C281.423 18.356 281.852 15.897 281.654 13.5053C281.423 11.0463 280.763 8.7894 279.542 6.76829C278.354 4.84824 276.902 3.13029 275.384 1.58077C275.186 1.37866 275.186 1.00812 275.351 0.839696C275.483 0.704955 275.78 0.469159 276.11 0.772326C277.793 2.25447 279.377 4.10716 280.565 6.19564C281.456 7.71148 282.182 9.36205 282.578 11.1137C283.073 13.1685 283.139 15.5938 282.743 17.8507C282.38 19.8045 281.588 21.7245 280.499 23.4425Z" fill="#F8F5F0"/>
<path d="M7.55695 2.25447C7.25995 2.55764 6.92995 2.82712 6.66595 3.19766C5.57696 4.67981 4.35597 6.12827 3.46498 7.77885C2.54098 9.46311 2.04599 11.2821 1.64999 13.2358C1.28699 14.8864 1.18799 16.7054 1.35299 18.5918C1.48499 19.9392 1.91399 21.2529 2.54098 22.4656C3.76197 24.7225 5.64296 26.5752 7.49095 27.6194C7.75495 27.7879 7.72195 28.2594 7.39195 28.3268C6.63295 28.5289 5.93996 28.0237 5.37896 27.6194C3.86097 26.5078 2.40898 24.8572 1.38599 22.8024C0.593996 21.1856 0.0329997 19.3666 0 17.3791C0 15.8296 0.164999 14.3475 0.461997 12.8653C0.857994 11.0126 1.48499 9.26099 2.27698 7.64411C3.66297 4.88192 5.51096 2.52396 7.62295 0.637585C7.95294 0.469159 8.24994 0.873381 8.24994 1.10918C8.15094 1.61446 7.85395 1.95131 7.55695 2.25447Z" stroke="white"/>
<path d="M16.3021 23.813C15.3122 24.4867 14.0912 25.0257 12.8702 25.0257C12.1772 25.0257 11.6822 24.7225 11.2202 24.0488C11.0552 24.1835 10.7582 24.2846 10.6262 24.0825C10.0322 23.2404 9.86719 22.0614 9.83419 20.9161C9.76819 17.9855 9.80119 15.8296 10.5602 13.2022C10.6262 12.9327 11.2532 12.4274 11.7152 12.5621C11.9132 12.0232 12.4412 11.4505 13.0682 11.3832C14.7512 11.3832 16.5661 12.2927 17.1271 14.0106C17.2921 14.5496 17.2921 15.1222 17.0941 15.6612C16.8961 16.1665 16.5661 16.6044 16.1371 16.9412L15.9391 17.1096C16.7641 17.3791 17.6881 17.9181 18.2161 18.7602C18.6121 19.4002 18.6451 20.175 18.4801 20.9161C18.1831 22.1287 17.3251 23.1056 16.3021 23.813ZM17.2261 19.3329C16.9621 18.8276 16.2361 18.5244 15.7081 18.2549C15.0812 17.8507 14.5202 18.0191 13.8932 18.1539L12.9032 18.3897C12.5402 18.4907 12.1772 18.4907 11.7812 18.3897C11.6162 18.2886 11.4182 17.9518 11.5832 17.7834C11.9792 17.3791 12.4742 17.177 13.0352 17.0423L14.5532 16.8739C15.1472 16.537 15.7741 15.8633 16.0381 15.2233C16.2031 14.6843 16.1041 14.3138 15.7741 13.8759C15.1802 13.0337 14.2232 12.6632 13.2662 12.5621C12.9692 12.5285 12.8702 12.5958 12.8042 12.7979C12.7052 13.0674 12.6392 13.3706 12.4742 13.6064C12.4082 13.7748 12.1772 13.8422 12.0122 13.7411C11.8802 13.7074 11.7812 13.6401 11.7152 13.5727C11.3192 15.0212 11.0882 16.6717 11.0222 18.3897C10.9562 20.0066 11.0222 21.5898 11.2532 23.0719C11.5172 22.7688 11.8472 22.3309 12.0122 22.0951C12.2432 21.8593 12.6722 22.2298 12.6062 22.4656C12.5402 22.634 12.4082 22.8361 12.3092 23.0046C12.2432 23.2067 12.1442 23.3751 12.1442 23.5098C12.3422 23.813 12.8042 23.9141 13.3652 23.8467C14.1902 23.7119 15.1802 23.2404 15.9061 22.6677C16.5661 22.1287 17.1271 21.455 17.2921 20.6129C17.3911 20.2087 17.4571 19.7371 17.2261 19.3329Z" stroke="white"/>
<path d="M27.5079 23.9141C26.0229 24.6888 24.2409 25.0257 22.6239 24.2172C21.3699 23.5772 20.4789 22.4993 20.0499 21.1519C19.5549 19.5687 19.7199 17.7833 20.3799 16.3012C20.8749 15.2233 21.6339 14.2801 22.5249 13.5727C23.1189 13.1348 24.0099 12.5958 24.8349 12.4948C25.4949 11.72 26.5839 11.4842 27.5079 11.72C29.0919 12.1579 30.4449 13.8085 30.8739 15.257C31.3029 16.6717 31.4019 18.2213 31.0059 19.6697C30.5109 21.6235 29.2569 23.0382 27.5079 23.9141ZM29.7849 15.6275C29.3889 14.5159 28.4979 13.2695 27.3429 12.8653C26.8149 12.6632 26.2539 12.5958 25.8249 12.9327C25.3959 13.2695 25.1319 13.8085 24.9339 14.2801C24.9009 14.3811 24.9009 14.5159 24.9009 14.6506C24.9009 14.7854 24.9009 14.9538 24.8679 15.0885C24.8349 15.1559 24.5049 15.358 24.4059 15.1559C24.3399 14.8527 24.2739 14.2464 24.3069 13.7748C23.0529 14.3138 21.9969 15.4254 21.4029 16.6717C20.7759 17.9855 20.7429 19.5013 21.1389 20.8487C21.4689 21.8929 22.0959 22.7688 23.1519 23.2067C24.4719 23.7119 25.8909 23.5435 27.0789 22.9372C28.4319 22.2298 29.3889 21.1519 29.8509 19.7034C30.2799 18.4234 30.2139 16.9075 29.7849 15.6275Z" stroke="white"/>
<path d="M42.68 13.1011C41.822 12.899 40.9641 12.6969 40.0731 12.6632C39.3471 13.6064 38.9841 14.718 38.7861 15.897C38.5551 17.1096 38.5881 18.3897 38.5221 19.636C38.4561 21.3203 38.5881 22.9372 38.7861 24.5204C38.6871 24.7225 38.3901 24.8572 38.1591 24.7225C37.5981 24.0151 37.4661 23.1056 37.4331 22.1961C37.4001 20.175 37.3671 18.0528 37.6641 16.0654C37.8621 14.7854 38.2251 13.6064 38.9841 12.5285C36.9381 12.4274 35.0571 12.8653 33.1761 13.4043C32.9121 13.3706 32.6151 13.2022 32.4501 12.9327C32.3841 12.6969 32.5161 12.5621 32.6481 12.4948L32.8461 12.4274L33.0111 12.36C34.3971 11.7874 36.0801 11.4842 37.6971 11.4505C39.3471 11.3832 40.9971 11.5516 42.449 12.0906C42.614 12.1579 42.911 12.3937 43.01 12.5958C43.043 12.8316 42.878 13.1348 42.68 13.1011Z" stroke="white"/>
<path d="M62.4776 21.0508C61.6526 22.4319 60.4976 23.3751 59.2106 23.9814C57.8576 24.6551 56.2736 24.9583 54.7556 24.8909C54.3926 24.8909 54.1286 24.6888 53.8646 24.4867C53.3367 23.6446 53.6006 22.4993 53.8316 21.6908C53.9636 21.455 54.3596 21.5561 54.4586 21.7919C54.5246 22.0277 54.5246 22.2635 54.4916 22.4656C54.4916 22.7014 54.4586 22.9035 54.4586 23.1056C54.4916 23.4088 54.5576 23.6446 54.8546 23.7793C56.3726 23.813 57.8576 23.5098 59.1446 22.8024C60.2006 22.1961 61.1246 21.2866 61.7516 20.1076C62.2136 19.2318 62.4446 18.1539 62.4116 17.0423C62.3786 16.2001 62.1806 15.3917 61.7846 14.718C61.2236 13.8085 60.4646 13.1685 59.5406 12.7979C58.4516 12.3263 57.1646 12.2253 55.8776 12.3937C55.1846 12.4948 54.5906 12.9327 54.1286 13.438L53.6006 14.0106C53.3366 13.9432 53.3036 13.7411 53.3036 13.6064C53.3036 13.5053 53.3366 13.438 53.3366 13.3369V13.2695C53.7656 11.9221 55.0856 11.3158 56.2736 11.2484C57.5936 11.1811 58.9466 11.3495 60.0686 11.8211C61.1246 12.2927 62.0156 13.0337 62.6756 14.1453C63.8966 16.0991 63.6656 19.1308 62.4776 21.0508ZM61.6856 18.4571V18.6255C61.6856 18.7602 61.6196 18.895 61.3886 18.895C60.5636 18.4907 59.6396 18.3897 58.6826 18.3897C57.3626 18.356 55.9436 18.5581 54.7226 18.4907C54.4586 18.4571 54.2606 18.2213 54.1616 17.9855C54.1286 17.6149 54.3596 17.4802 54.5906 17.3791C56.9006 17.4465 59.6396 16.6381 61.6196 18.2886C61.6526 18.356 61.6526 18.4234 61.6856 18.4571Z" stroke="white"/>
<path d="M74.9386 13.1011C74.0806 12.899 73.2226 12.6969 72.3316 12.6632C71.6056 13.6064 71.2426 14.718 71.0446 15.897C70.8136 17.1096 70.8466 18.3897 70.7806 19.636C70.7146 21.3203 70.8466 22.9372 71.0446 24.5204C70.9456 24.7225 70.6486 24.8572 70.4176 24.7225C69.8566 24.0151 69.7246 23.1056 69.6916 22.1961C69.6586 20.175 69.6256 18.0528 69.9226 16.0654C70.1206 14.7854 70.4836 13.6064 71.2426 12.5285C69.1966 12.4274 67.3157 12.8653 65.4347 13.4043C65.1707 13.3706 64.8737 13.2022 64.7087 12.9327C64.6427 12.6969 64.7747 12.5621 64.9067 12.4948L65.1047 12.4274L65.2697 12.36C66.6557 11.7874 68.3387 11.4842 69.9556 11.4505C71.6056 11.3832 73.2556 11.5516 74.7076 12.0906C74.8726 12.1579 75.1696 12.3937 75.2686 12.5958C75.3016 12.8316 75.1366 13.1348 74.9386 13.1011Z" stroke="white"/>
<path d="M86.8716 24.6888C86.1786 23.8804 85.9806 22.8024 85.8156 21.7582C85.4856 19.3329 85.5516 16.7391 85.4856 14.2127C83.4727 17.1433 81.8887 20.1076 79.9747 23.4425C79.7767 23.6783 79.6777 23.8467 79.3477 23.9814C79.0507 23.9814 78.7867 23.9477 78.5557 23.6109C76.9717 20.6129 76.6747 16.9412 76.9057 13.3032C76.9057 13.0674 76.9717 12.6632 77.2357 12.5621C77.6647 12.4274 77.9947 12.7979 77.9947 13.0674C77.7967 16.4359 78.1597 19.636 79.2487 22.533C80.4037 20.5119 81.3277 18.8276 82.3177 17.177C83.3407 15.4591 84.4296 13.8085 85.8156 11.9221C86.0796 11.72 86.4426 11.8548 86.5746 12.1242C86.6736 15.358 86.6406 18.5244 86.9046 21.6235C86.9706 22.634 87.2016 23.6109 87.2676 24.5541C87.2676 24.6888 86.9706 24.8236 86.8716 24.6888Z" stroke="white"/>
<path d="M98.6487 13.539C98.5167 13.539 98.3847 13.5727 98.2857 13.5727L97.9557 13.6738C96.3387 14.179 95.1177 15.5938 93.8967 16.9749C94.9527 19.0971 96.3717 21.4887 97.7577 23.4761C97.7907 23.7119 97.4937 23.8804 97.3287 23.8467C96.6357 23.5772 96.1407 22.9035 95.8107 22.4319C94.8537 20.9834 93.9957 19.5013 93.1707 17.9855C91.6197 20.0066 90.3657 22.1624 89.9037 24.8236C89.2767 24.5204 89.2437 23.8804 89.2437 23.3077C89.4747 22.0614 90.0027 20.9834 90.5967 19.9392C91.2237 18.895 91.8837 17.9181 92.5767 16.9412C92.1807 16.3012 91.7517 15.6612 91.3227 15.0212C90.8937 14.3811 90.4317 13.7748 89.8377 13.1685C89.8377 13.1348 89.7387 13.1011 89.7057 13.0337L89.5077 12.899C89.3757 12.7979 89.2107 12.6969 89.1777 12.5621C89.0788 12.36 89.2438 12.0906 89.4087 11.9895C89.8377 11.8548 90.2997 12.0569 90.6297 12.3263C91.2237 12.7643 91.6197 13.438 92.0157 14.0443L93.3027 15.998C94.6557 14.4485 96.1407 12.7979 98.1207 12.5285C98.4837 12.4948 98.8797 12.4948 99.1767 12.899C99.1767 13.3369 98.9127 13.4716 98.6487 13.539Z" stroke="white"/>
<path d="M120.566 24.6551C118.982 23.7456 117.365 23.1056 115.682 22.4993C114.032 21.8929 112.448 21.2866 110.864 20.5792C110.831 21.7919 110.996 23.0382 111.293 24.1499C111.392 24.352 111.326 24.7225 111.029 24.7225C110.765 24.7225 110.6 24.5541 110.501 24.3857C110.402 24.2509 110.336 24.0488 110.237 23.8804C109.874 22.6677 109.742 21.354 109.742 20.0066C109.643 19.9392 109.511 19.8381 109.445 19.6697C109.346 19.5687 109.313 19.3666 109.412 19.1981C109.544 19.0971 109.676 18.895 109.709 18.7602C109.775 18.3223 109.742 17.3118 109.841 16.8739C109.973 16.0991 110.171 15.1559 110.369 14.2127C110.6 13.2695 110.93 12.3263 111.359 11.5179C111.557 11.1811 112.052 11.2484 112.151 11.619C112.118 12.0569 111.986 12.4611 111.854 12.8653C111.755 13.2358 111.557 13.6401 111.458 14.0443C111.128 15.257 110.93 16.5033 110.897 17.7834C112.085 16.7054 113.273 15.6949 114.494 14.7517C116.012 13.6064 117.629 12.6295 119.345 11.9221C119.609 11.9221 119.939 11.9221 120.137 12.0906C120.335 12.2253 120.335 12.4274 120.236 12.6632C118.487 13.4043 116.903 14.3811 115.286 15.5264C113.768 16.6381 112.25 17.9181 110.831 19.2992V19.3329C112.448 20.2424 114.23 20.8487 115.946 21.455C117.464 21.994 118.916 22.6003 120.302 23.5098C120.599 23.6783 120.83 23.9141 120.995 24.2172C121.028 24.4193 120.764 24.6888 120.566 24.6551Z" stroke="white"/>
<path d="M123.759 13.1011H123.594C123.495 13.1011 123.363 13.0337 123.33 12.8653C123.297 12.5958 123.396 12.36 123.594 12.1579C124.122 11.6863 124.716 11.4842 125.376 11.5179C125.838 11.5516 126.3 11.619 126.762 11.7874L128.016 12.2253C129.798 12.8316 131.349 14.4485 132.207 16.2001C132.669 17.177 132.834 18.1876 132.603 19.2992C132.372 20.3097 131.778 21.2529 130.986 22.0277C129.006 23.9477 126.531 24.5204 123.792 24.5204C123.759 26.811 123.627 29.3711 123.924 31.628C123.924 31.729 123.99 31.8638 124.056 31.9648C124.089 32.1332 124.155 32.268 124.023 32.4701C123.759 32.6722 123.495 32.6048 123.264 32.4701C122.934 32.0996 122.802 31.6953 122.769 31.2237C122.538 28.8321 122.637 26.5078 122.769 24.0825C122.472 23.813 122.01 23.4425 121.911 23.0382C121.911 22.9035 121.944 22.7688 122.01 22.7014C122.109 22.533 122.241 22.4993 122.307 22.5667C122.406 22.6677 122.604 22.8024 122.769 22.9035C122.967 19.535 123.198 16.3349 123.759 13.1011ZM130.293 15.2906C129.567 14.3811 128.544 13.7411 127.554 13.3032C126.993 13.0337 125.409 12.4274 124.815 12.6969C124.848 13.1685 124.782 14.0106 124.716 14.3811C124.254 17.2444 123.957 20.3097 123.924 23.3414C126.201 23.5098 128.379 22.8024 130.128 21.2529C131.085 20.4108 131.646 19.2318 131.547 18.0191C131.481 17.0086 130.854 15.998 130.293 15.2906Z" stroke="white"/>
<path d="M140.37 24.5878C138.555 25.093 136.443 25.0594 135.024 23.813C134.364 23.2404 133.869 22.3982 133.836 21.4887C133.803 20.6803 134.133 19.9392 134.595 19.2655C135.618 17.7833 137.4 16.7728 139.116 16.5707C139.842 16.5033 140.502 16.6044 141.03 17.1433C141.195 17.3118 141.03 17.6486 140.865 17.716H140.568C140.469 17.716 140.337 17.6823 140.238 17.6823C140.007 17.6486 139.809 17.6149 139.677 17.716C138.093 17.7834 136.542 18.5581 135.585 19.8718C135.156 20.4445 134.925 20.8824 134.991 21.5898C135.057 22.533 135.75 23.2404 136.707 23.5772C138.06 24.0825 139.743 23.7793 141.03 23.3077C141.723 23.0382 142.35 22.7688 142.944 22.3309C143.076 22.2298 143.208 22.3309 143.274 22.4993C143.307 22.634 143.307 22.7688 143.307 22.8698C142.845 23.7793 140.997 24.4193 140.37 24.5878ZM142.218 22.2972C142.053 22.4993 141.756 22.4656 141.624 22.3645C141.294 22.1287 141.294 21.6908 141.294 21.354C141.327 20.7813 141.426 20.2087 141.558 19.6024L141.987 17.7497C142.251 16.537 142.416 15.3243 142.053 14.3138C141.756 13.438 141.03 12.5621 140.139 12.4611C139.38 12.36 138.621 12.6295 137.994 13.1011C137.664 13.3369 136.938 13.9769 136.74 14.3475C136.707 14.4822 136.773 14.718 136.905 14.8527C137.037 14.9875 136.938 15.3917 136.641 15.3243C136.41 15.257 136.146 15.1896 135.948 15.0212C135.684 14.7854 135.585 14.3475 135.783 14.0106C136.344 13.0337 137.136 12.2253 138.159 11.7537C138.819 11.4168 139.611 11.2821 140.436 11.4168C141.426 11.5853 142.284 12.3263 142.779 13.2695C143.538 14.718 143.439 16.537 143.076 18.1539C142.746 19.535 142.416 20.815 142.218 22.2972Z" stroke="white"/>
<path d="M150.897 24.5878C149.643 24.7562 148.323 24.6551 147.069 23.8804C145.419 22.8698 144.693 21.1182 144.792 19.1644C144.891 17.6486 145.353 16.2338 146.178 14.9538C147.003 13.6738 148.158 12.6295 149.544 11.9558C150.27 11.5853 151.26 11.4168 152.052 11.7537C152.712 12.0232 153.405 12.7306 153.537 13.4043C153.603 13.6064 153.273 14.0443 153.009 13.8422C152.646 13.5053 152.184 13.0674 151.722 12.8653C151.26 12.6632 150.831 12.6295 150.336 12.8316C149.049 13.3706 147.861 14.4148 147.069 15.6612C146.343 16.8065 145.914 18.1539 145.881 19.535C145.881 20.7813 146.343 21.9603 147.366 22.7351C148.323 23.4425 149.577 23.6109 150.732 23.5098C152.679 23.3414 154.395 22.4993 156.111 21.7245C156.309 21.7245 156.606 22.0614 156.441 22.2972C154.791 23.2404 152.91 24.2846 150.897 24.5878Z" stroke="white"/>
<path d="M167.921 24.6888C167.228 23.8804 167.03 22.8024 166.865 21.7582C166.535 19.3329 166.601 16.7391 166.535 14.2127C164.522 17.1433 162.938 20.1076 161.024 23.4425C160.826 23.6783 160.727 23.8467 160.397 23.9814C160.1 23.9814 159.836 23.9477 159.605 23.6109C158.021 20.6129 157.724 16.9412 157.955 13.3032C157.955 13.0674 158.021 12.6632 158.285 12.5621C158.714 12.4274 159.044 12.7979 159.044 13.0674C158.846 16.4359 159.209 19.636 160.298 22.533C161.453 20.5119 162.377 18.8276 163.367 17.177C164.39 15.4591 165.479 13.8085 166.865 11.9221C167.129 11.72 167.492 11.8548 167.624 12.1242C167.723 15.358 167.69 18.5244 167.954 21.6235C168.02 22.634 168.251 23.6109 168.317 24.5541C168.317 24.6888 168.02 24.8236 167.921 24.6888Z" stroke="white"/>
<path d="M176.596 23.813C175.606 24.4867 174.385 25.0257 173.164 25.0257C172.471 25.0257 171.976 24.7225 171.514 24.0488C171.349 24.1835 171.052 24.2846 170.92 24.0825C170.326 23.2404 170.161 22.0614 170.128 20.9161C170.062 17.9855 170.095 15.8296 170.854 13.2022C170.92 12.9327 171.547 12.4274 172.009 12.5621C172.207 12.0232 172.735 11.4505 173.362 11.3832C175.045 11.3832 176.86 12.2927 177.421 14.0106C177.586 14.5496 177.586 15.1222 177.388 15.6612C177.19 16.1665 176.86 16.6044 176.431 16.9412L176.233 17.1096C177.058 17.3791 177.982 17.9181 178.51 18.7602C178.906 19.4002 178.939 20.175 178.774 20.9161C178.477 22.1287 177.619 23.1056 176.596 23.813ZM177.52 19.3329C177.256 18.8276 176.53 18.5244 176.002 18.2549C175.375 17.8507 174.814 18.0191 174.187 18.1539L173.197 18.3897C172.834 18.4907 172.471 18.4907 172.075 18.3897C171.91 18.2886 171.712 17.9518 171.877 17.7834C172.273 17.3791 172.768 17.177 173.329 17.0423L174.847 16.8739C175.441 16.537 176.068 15.8633 176.332 15.2233C176.497 14.6843 176.398 14.3138 176.068 13.8759C175.474 13.0337 174.517 12.6632 173.56 12.5621C173.263 12.5285 173.164 12.5958 173.098 12.7979C172.999 13.0674 172.933 13.3706 172.768 13.6064C172.702 13.7748 172.471 13.8422 172.306 13.7411C172.174 13.7074 172.075 13.6401 172.009 13.5727C171.613 15.0212 171.382 16.6717 171.316 18.3897C171.25 20.0066 171.316 21.5898 171.547 23.0719C171.811 22.7688 172.141 22.3309 172.306 22.0951C172.537 21.8593 172.966 22.2298 172.9 22.4656C172.834 22.634 172.702 22.8361 172.603 23.0046C172.537 23.2067 172.438 23.3751 172.438 23.5098C172.636 23.813 173.098 23.9141 173.659 23.8467C174.484 23.7119 175.474 23.2404 176.2 22.6677C176.86 22.1287 177.421 21.455 177.586 20.6129C177.685 20.2087 177.751 19.7371 177.52 19.3329Z" stroke="white"/>
<path d="M185.987 23.0046C185.129 23.7793 184.073 24.2846 183.05 24.5204C182.225 24.7225 181.07 24.8236 180.377 24.1162C180.179 23.9477 179.882 23.4088 180.179 23.1056C180.41 23.274 180.575 23.4088 180.773 23.5098C180.905 23.6109 181.037 23.6783 181.202 23.6783C181.169 21.354 181.301 16.8739 181.367 14.6169C181.4 14.078 181.334 13.5053 181.367 12.9664C181.433 12.4274 181.532 11.8884 181.961 11.4842C182.258 11.3832 182.522 11.3158 182.687 11.6526C182.522 12.259 182.522 13.3369 182.489 14.5159C182.489 15.5938 182.489 16.7391 182.456 17.5476C182.918 17.2107 183.578 16.9412 184.205 16.8739C184.964 16.8065 185.756 16.9412 186.383 17.3118C187.373 17.8507 187.967 19.0297 187.703 20.2424C187.505 21.2866 186.812 22.2635 185.987 23.0046ZM186.416 18.8613C186.02 18.2213 185.327 17.9855 184.568 17.9855C183.809 18.0191 182.984 18.3223 182.489 18.7939L182.225 23.6109C183.248 23.3751 184.304 22.9035 185.162 22.1624C185.756 21.6571 186.317 21.0508 186.548 20.2761C186.713 19.8045 186.68 19.2318 186.416 18.8613ZM193.28 24.8909C192.455 24.6551 192.455 23.813 192.356 23.1393C191.861 19.2992 192.158 15.5938 192.653 11.7874C192.95 11.3158 193.478 11.72 193.61 11.9895C193.643 12.7643 193.61 13.5053 193.511 14.2801C193.445 15.0212 193.346 15.7959 193.346 16.5707C193.313 17.8844 193.247 19.2318 193.28 20.5792C193.28 21.8929 193.412 23.2404 193.61 24.4867C193.643 24.6551 193.445 24.8909 193.28 24.8909Z" stroke="white"/>
<path d="M205.769 13.539C205.637 13.539 205.505 13.5727 205.406 13.5727L205.076 13.6738C203.459 14.179 202.238 15.5938 201.017 16.9749C202.073 19.0971 203.492 21.4887 204.878 23.4761C204.911 23.7119 204.614 23.8804 204.449 23.8467C203.756 23.5772 203.261 22.9035 202.931 22.4319C201.974 20.9834 201.116 19.5013 200.291 17.9855C198.74 20.0066 197.486 22.1624 197.024 24.8236C196.397 24.5204 196.364 23.8804 196.364 23.3077C196.595 22.0614 197.123 20.9834 197.717 19.9392C198.344 18.895 199.004 17.9181 199.697 16.9412C199.301 16.3012 198.872 15.6612 198.443 15.0212C198.014 14.3811 197.552 13.7748 196.958 13.1685C196.958 13.1348 196.859 13.1011 196.826 13.0337L196.628 12.899C196.496 12.7979 196.331 12.6969 196.298 12.5621C196.199 12.36 196.364 12.0906 196.529 11.9895C196.958 11.8548 197.42 12.0569 197.75 12.3263C198.344 12.7643 198.74 13.438 199.136 14.0443L200.423 15.998C201.776 14.4485 203.261 12.7979 205.241 12.5285C205.604 12.4948 206 12.4948 206.297 12.899C206.297 13.3369 206.033 13.4716 205.769 13.539Z" stroke="white"/>
<path d="M218.182 13.1011H218.017C217.918 13.1011 217.786 13.0337 217.753 12.8653C217.72 12.5958 217.819 12.36 218.017 12.1579C218.545 11.6863 219.139 11.4842 219.799 11.5179C220.261 11.5516 220.723 11.619 221.185 11.7874L222.439 12.2253C224.221 12.8316 225.772 14.4485 226.63 16.2001C227.092 17.177 227.257 18.1876 227.026 19.2992C226.795 20.3097 226.201 21.2529 225.409 22.0277C223.429 23.9477 220.954 24.5204 218.215 24.5204C218.182 26.811 218.05 29.3711 218.347 31.628C218.347 31.729 218.413 31.8638 218.479 31.9648C218.512 32.1332 218.578 32.268 218.446 32.4701C218.182 32.6722 217.918 32.6048 217.687 32.4701C217.357 32.0996 217.225 31.6953 217.192 31.2237C216.961 28.8321 217.06 26.5078 217.192 24.0825C216.895 23.813 216.433 23.4425 216.334 23.0382C216.334 22.9035 216.367 22.7688 216.433 22.7014C216.532 22.533 216.664 22.4993 216.73 22.5667C216.829 22.6677 217.027 22.8024 217.192 22.9035C217.39 19.535 217.621 16.3349 218.182 13.1011ZM224.716 15.2906C223.99 14.3811 222.967 13.7411 221.977 13.3032C221.416 13.0337 219.832 12.4274 219.238 12.6969C219.271 13.1685 219.205 14.0106 219.139 14.3811C218.677 17.2444 218.38 20.3097 218.347 23.3414C220.624 23.5098 222.802 22.8024 224.551 21.2529C225.508 20.4108 226.069 19.2318 225.97 18.0191C225.904 17.0086 225.277 15.998 224.716 15.2906Z" stroke="white"/>
<path d="M233.407 24.7225C231.757 24.6551 230.239 23.8804 229.282 22.4319C228.49 21.2192 228.292 19.8045 228.457 18.4234C228.655 16.8739 229.282 15.3917 230.14 14.2464C231.097 12.9664 232.45 11.9558 234.001 11.6526C235.057 11.4505 236.179 11.5516 236.971 12.4274C237.334 12.8316 237.664 13.2695 237.664 13.8085C237.697 14.3811 237.433 14.8864 236.971 15.257C234.661 17.2107 232.219 19.0297 229.711 20.5119C229.777 21.5561 230.668 22.634 231.625 23.173C232.582 23.7119 233.704 23.7793 234.76 23.6446C235.816 23.5435 236.905 23.173 237.664 22.8024C237.796 22.7014 237.895 22.8024 237.928 22.9035C237.961 22.9709 238.027 23.1056 237.895 23.2067C236.74 24.2846 235.09 24.7899 233.407 24.7225ZM234.859 12.6969C233.902 12.6969 232.945 13.1011 232.186 13.7074C230.569 15.0548 229.612 17.2107 229.612 19.2992C231.955 17.9855 234.166 16.2675 236.311 14.4822C236.476 14.3475 236.608 13.8422 236.377 13.438C236.113 12.899 235.519 12.6969 234.859 12.6969Z" stroke="white"/>
<path d="M249.678 4.14085C248.952 4.41033 248.16 4.57875 247.434 4.84824C246.114 5.28614 245.223 5.85879 244.299 6.90303C243.375 7.91359 242.781 9.12625 242.253 10.4063C241.725 11.72 241.362 13.1685 240.966 14.5496C242.154 13.7074 243.54 12.9664 244.992 12.7306C246.279 12.4948 247.698 12.7643 248.82 13.5053C250.008 14.2801 250.8 15.6275 251.13 17.0423C251.46 18.5581 251.328 19.9729 250.569 21.3203C249.909 22.533 248.886 23.5435 247.632 24.1499C246.576 24.6888 245.19 24.8572 243.936 24.6551C242.484 24.453 241.329 23.7793 240.471 22.6003C239.547 21.3203 239.283 19.7708 239.316 18.1876C239.382 15.998 240.009 13.6401 240.57 11.8548C241.263 9.6989 242.253 7.34094 243.969 5.65668C244.794 4.84824 245.784 4.20822 246.84 3.83768C247.566 3.60188 248.325 3.43346 249.084 3.19766C249.81 2.96186 250.503 2.6587 251.13 2.11973C251.328 2.08605 251.658 2.11973 251.724 2.32185C251.856 2.52396 251.856 2.79344 251.724 2.96186C251.097 3.53451 250.404 3.90505 249.678 4.14085ZM249.612 16.1328C249.183 15.1559 248.325 14.4148 247.368 14.1117C246.411 13.7748 245.19 13.8422 244.233 14.1453C242.913 14.5496 241.692 15.358 240.636 16.3349C240.339 17.817 240.372 19.6024 240.867 20.9498C241.098 21.6235 241.56 22.2298 242.154 22.7014C243.144 23.5098 244.167 23.6109 245.421 23.4761C246.774 23.3414 247.995 22.7014 248.985 21.6572C249.777 20.8487 250.107 20.0403 250.14 18.8613C250.173 17.8844 249.975 16.9075 249.612 16.1328Z" stroke="white"/>
<path d="M261.263 13.3369C261.461 16.7391 261.362 20.3771 260.999 23.7456C260.933 23.8804 260.867 24.0825 260.801 24.3183C260.702 24.5204 260.636 24.7225 260.471 24.9246C260.405 25.0594 259.976 25.1267 259.877 24.8909C259.943 24.1162 260.306 20.0403 260.207 18.2886C257.798 19.7034 255.554 22.1961 253.871 24.5204C253.706 24.6888 253.31 24.6888 253.244 24.352C253.244 23.7456 253.475 23.274 253.805 22.8024C254.135 22.3645 254.531 21.9603 254.828 21.4887C255.653 20.4782 256.61 19.636 257.6 18.8276C256.808 18.895 255.983 18.8276 255.191 18.4571C254.3 18.0528 253.706 17.2781 253.574 16.2675C253.475 15.6612 253.574 15.0212 253.871 14.5496C254.465 13.6064 255.257 12.7979 256.148 12.259C257.204 11.619 258.359 11.2821 259.646 11.3832C260.339 11.619 261.131 11.8548 261.461 12.5958C261.527 12.8316 261.527 13.1348 261.263 13.3369ZM260.174 14.7854C260.174 14.0443 260.141 13.3369 260.042 12.6632C259.448 12.4274 258.953 12.36 258.293 12.5621C257.6 12.7643 256.775 13.1011 256.115 13.6064C255.323 14.2127 254.729 14.9875 254.696 15.998C254.762 16.4359 254.927 16.8739 255.29 17.2107C255.752 17.5139 256.346 17.6823 256.874 17.716C258.062 17.817 259.283 17.4465 260.207 16.9749C260.174 16.2675 260.174 15.5264 260.174 14.7854Z" stroke="white"/>
<path d="M273.582 13.1011C272.724 12.899 271.866 12.6969 270.975 12.6632C270.249 13.6064 269.886 14.718 269.688 15.897C269.457 17.1096 269.49 18.3897 269.424 19.636C269.358 21.3203 269.49 22.9372 269.688 24.5204C269.589 24.7225 269.292 24.8572 269.061 24.7225C268.5 24.0151 268.368 23.1056 268.335 22.1961C268.302 20.175 268.269 18.0528 268.566 16.0654C268.764 14.7854 269.127 13.6064 269.886 12.5285C267.84 12.4274 265.959 12.8653 264.078 13.4043C263.814 13.3706 263.517 13.2022 263.352 12.9327C263.286 12.6969 263.418 12.5621 263.55 12.4948L263.748 12.4274L263.913 12.36C265.299 11.7874 266.982 11.4842 268.599 11.4505C270.249 11.3832 271.899 11.5516 273.351 12.0906C273.516 12.1579 273.813 12.3937 273.912 12.5958C273.945 12.8316 273.78 13.1348 273.582 13.1011Z" stroke="white"/>
<path d="M280.499 23.4425C279.179 25.5309 277.397 27.2489 275.549 28.2594C275.219 28.4279 274.856 27.8552 275.153 27.6194C275.813 27.0468 276.968 26.0025 277.727 25.1267C278.981 23.7119 279.872 22.1287 280.598 20.3434C281.423 18.356 281.852 15.897 281.654 13.5053C281.423 11.0463 280.763 8.7894 279.542 6.76829C278.354 4.84824 276.902 3.13029 275.384 1.58077C275.186 1.37866 275.186 1.00812 275.351 0.839696C275.483 0.704955 275.78 0.469159 276.11 0.772326C277.793 2.25447 279.377 4.10716 280.565 6.19564C281.456 7.71148 282.182 9.36205 282.578 11.1137C283.073 13.1685 283.139 15.5938 282.743 17.8507C282.38 19.8045 281.588 21.7245 280.499 23.4425Z" stroke="white"/>
</svg>
