<svg width="199" height="65" fill="none" xmlns="http://www.w3.org/2000/svg"><mask id="a" maskUnits="userSpaceOnUse" x="0" y=".598" width="200" height="65" fill="#000"><path fill="#fff" d="M0 .598h200v65H0z"/><path d="M14.732 51.213c-2.817.371-5.781.148-8.598-1.562-3.706-2.23-5.336-6.096-5.114-10.408a19.03 19.03 0 0 1 3.113-9.294 18.66 18.66 0 0 1 7.56-6.617c1.63-.818 3.854-1.19 5.633-.446 1.482.595 3.039 2.156 3.335 3.643.148.446-.593 1.413-1.186.967-.815-.744-1.853-1.71-2.89-2.156-1.038-.446-2.002-.52-3.113-.075-2.89 1.19-5.56 3.495-7.338 6.245-1.63 2.528-2.594 5.502-2.668 8.55 0 2.751 1.037 5.353 3.335 7.063 2.15 1.562 4.966 1.934 7.56 1.71 4.373-.371 8.227-2.23 12.081-3.94.445 0 1.112.743.741 1.264-3.705 2.082-7.93 4.387-12.451 5.056zM44.296 49.503c-2.224 1.487-4.966 2.676-7.708 2.676-1.557 0-2.669-.669-3.706-2.156-.37.297-1.038.52-1.334.074-1.334-1.858-1.705-4.46-1.78-6.988-.147-6.468-.073-11.227 1.631-17.026.149-.595 1.557-1.71 2.595-1.412.444-1.19 1.63-2.454 3.038-2.603 3.78 0 7.857 2.008 9.117 5.8.37 1.189.37 2.453-.074 3.643a6.703 6.703 0 0 1-2.15 2.825l-.444.372c1.853.594 3.928 1.784 5.114 3.642.89 1.413.963 3.123.593 4.759-.667 2.676-2.594 4.832-4.892 6.394zm2.075-9.889c-.593-1.115-2.223-1.784-3.41-2.379-1.407-.892-2.667-.52-4.076-.223l-2.223.52c-.816.224-1.63.224-2.52 0-.37-.222-.816-.966-.445-1.338.89-.892 2.001-1.338 3.261-1.635l3.41-.372c1.334-.743 2.742-2.23 3.335-3.643.37-1.19.148-2.007-.593-2.974-1.334-1.859-3.483-2.676-5.633-2.9-.667-.074-.89.075-1.037.521-.223.595-.371 1.264-.742 1.784-.148.372-.667.52-1.037.298a1.433 1.433 0 0 1-.667-.372c-.89 3.197-1.409 6.84-1.557 10.632-.148 3.568 0 7.063.519 10.334a30.514 30.514 0 0 0 1.705-2.156c.518-.52 1.482.297 1.334.818-.148.371-.445.817-.667 1.19-.149.445-.37.817-.37 1.114.444.67 1.482.893 2.742.744 1.852-.297 4.076-1.338 5.706-2.602 1.483-1.19 2.743-2.677 3.113-4.535.223-.893.371-1.933-.148-2.826zM66.87 51.213c-4.077 1.115-8.82 1.04-12.007-1.71-1.483-1.264-2.594-3.123-2.668-5.13-.075-1.785.667-3.42 1.704-4.907 2.298-3.272 6.3-5.502 10.154-5.948 1.631-.149 3.113.074 4.3 1.264.37.372 0 1.115-.371 1.264h-.667c-.223 0-.52-.075-.742-.075-.518-.074-.963-.148-1.26.075-3.557.148-7.04 1.858-9.19 4.758-.964 1.264-1.482 2.23-1.334 3.792.148 2.081 1.704 3.643 3.854 4.386 3.039 1.115 6.819.446 9.71-.595 1.556-.594 2.964-1.19 4.298-2.156.297-.223.593 0 .741.372.074.297.074.595.074.818-1.037 2.007-5.188 3.42-6.596 3.792zm4.15-5.056c-.37.446-1.037.372-1.334.149-.74-.52-.74-1.487-.74-2.23.073-1.265.296-2.529.592-3.867l.964-4.089c.593-2.676.963-5.353.148-7.583-.667-1.933-2.298-3.866-4.299-4.09-1.705-.223-3.41.372-4.818 1.413-.74.52-2.371 1.933-2.816 2.75-.074.298.074.819.37 1.116.297.298.075 1.19-.592 1.041-.52-.149-1.112-.297-1.557-.67-.593-.52-.815-1.486-.37-2.23 1.26-2.156 3.038-3.94 5.336-4.98 1.482-.744 3.261-1.042 5.114-.744 2.224.371 4.15 2.007 5.263 4.089 1.704 3.197 1.482 7.212.667 10.78-.742 3.048-1.483 5.874-1.927 9.145zM103.336 62.662c-.222.595-.963.595-1.334.372-.815-.744-.815-1.785-.889-2.825-.223-3.123-.519-6.543-.148-9.74-6.968-.669-14.38-.297-21.05.967-.296 3.791-.148 7.806.445 11.45-.074.37-.593.966-1.186.594-.667-.297-.964-.892-1.112-1.413l-.37-1.635c-.149-1.636-.297-3.272-.37-4.833-.075-1.635-.075-3.271.073-4.684.074-.595.593-1.19 1.112-1.561l2.075-.446c4.3-7.212 7.857-14.647 10.97-22.379.074-.372.222-1.412-.075-1.784-.222-.967.371-1.487.964-1.933 2.372-.372 5.04-.298 7.115.892.816.372 1.186 1.19 1.334 2.007 0 3.867.075 11.896.149 15.836.296 2.157 0 4.387-.149 6.543.149.074.371.074.667.074.445.075.742 0 .964 0 .667.075 1.26.52 1.26 1.116-.593 4.46-.667 8.996-.445 13.382zm-4.595-16.728c-.074-.743-.148-1.413-.148-2.23 0-4.387-.074-13.011-.148-17.398-.297-.595-.816-.892-1.409-1.04-1.037-.298-2.297-.224-3.41-.15.297 1.041.075 2.157-.147 3.123-2.965 6.915-6.078 13.829-10.08 20.297a93.713 93.713 0 0 1 15.268-.595c.074-.669.074-1.338.074-2.007zM122.924 46.529c-1.631 1.635-3.558 3.048-5.707 3.94-1.853.744-4.003.967-6.226.297-.074.372-.371.818-.741.818-1.186-.446-1.631-1.56-1.853-2.528-.519-8.995.444-17.843 2.001-26.244.37-.818 1.853-1.264 2.297-.075-.444 4.313-1.26 8.625-1.482 12.937 2.594-2.007 5.929-2.974 9.191-2.23 2.149.52 4.298 2.453 4.965 4.61 1.038 3.122-.074 6.244-2.445 8.475zm-3.113-10.483c-3.336-.818-6.449.669-8.82 3.197 0 2.75 0 6.914-.074 9.219a8.844 8.844 0 0 0 5.558-.52c2.224-.893 4.225-2.603 5.782-4.61 1.111-1.413 1.185-3.643.296-5.205-.519-1.04-1.705-1.858-2.742-2.081zM152.779 6.084c-1.631.594-3.41.966-5.04 1.56-2.965.967-4.966 2.231-7.042 4.536-2.075 2.23-3.409 4.907-4.595 7.732-1.186 2.9-2.001 6.097-2.891 9.145 2.669-1.859 5.782-3.494 9.043-4.015 2.89-.52 6.077.075 8.597 1.71 2.669 1.71 4.447 4.684 5.189 7.807.741 3.345.444 6.468-1.26 9.442-1.483 2.676-3.78 4.907-6.597 6.245-2.372 1.19-5.484 1.561-8.301 1.115-3.261-.446-5.855-1.933-7.782-4.535-2.076-2.825-2.669-6.245-2.594-9.74.148-4.832 1.556-10.036 2.816-13.977 1.557-4.758 3.78-9.962 7.634-13.68 1.853-1.784 4.077-3.197 6.448-4.014 1.631-.52 3.336-.893 5.04-1.413 1.631-.52 3.187-1.19 4.596-2.38.444-.074 1.186 0 1.334.447.296.446.296 1.04 0 1.412-1.408 1.264-2.965 2.082-4.595 2.603zm-.149 26.467c-.963-2.156-2.89-3.791-5.04-4.46-2.149-.744-4.891-.595-7.041.074-2.965.892-5.707 2.676-8.079 4.833-.667 3.27-.593 7.211.519 10.185.519 1.487 1.557 2.825 2.891 3.866 2.223 1.785 4.521 2.008 7.337 1.71 3.039-.297 5.782-1.71 8.005-4.015 1.779-1.784 2.52-3.568 2.594-6.17.074-2.157-.37-4.313-1.186-6.023zM174.572 51.213c-4.077 1.115-8.82 1.04-12.007-1.71-1.482-1.264-2.594-3.123-2.668-5.13-.074-1.785.667-3.42 1.704-4.907 2.298-3.272 6.3-5.502 10.154-5.948 1.631-.149 3.113.074 4.299 1.264.371.372 0 1.115-.37 1.264h-.667c-.223 0-.519-.075-.742-.075-.518-.074-.963-.148-1.26.075-3.557.148-7.041 1.858-9.19 4.758-.964 1.264-1.482 2.23-1.334 3.792.148 2.081 1.704 3.643 3.854 4.386 3.039 1.115 6.819.446 9.709-.595 1.557-.594 2.965-1.19 4.299-2.156.297-.223.593 0 .741.372.074.297.074.595.074.818-1.037 2.007-5.188 3.42-6.596 3.792zm4.151-5.056c-.371.446-1.038.372-1.335.149-.741-.52-.741-1.487-.741-2.23.074-1.265.297-2.529.593-3.867l.964-4.089c.593-2.676.963-5.353.148-7.583-.667-1.933-2.298-3.866-4.299-4.09-1.705-.223-3.409.372-4.818 1.413-.741.52-2.371 1.933-2.816 2.75-.074.298.074.819.371 1.116.296.298.074 1.19-.593 1.041-.519-.149-1.112-.297-1.557-.67-.593-.52-.815-1.486-.37-2.23 1.26-2.156 3.038-3.94 5.336-4.98 1.482-.744 3.261-1.042 5.114-.744 2.224.371 4.151 2.007 5.263 4.089 1.704 3.197 1.482 7.212.667 10.78-.742 3.048-1.483 5.874-1.927 9.145zM194.955 5.415l-.519 2.304c-.815 3.495-.889 7.138-.889 10.78-.075 5.354.296 10.781.815 15.911-.148.744-.222 1.561-1.112 1.71-.889-1.04-1.112-2.23-1.26-3.346-.593-5.427-.963-11.003-.815-16.505.148-4.312.667-8.624 1.705-12.788.148-.297.37-1.115 1.111-1.263.445-.075 1.186.074 1.409.743a14.355 14.355 0 0 1-.445 2.454zm2.149 46.987c-2.594-.818-4.447-3.569-5.114-5.948-.074-.818.148-1.412.815-1.784.742-.149 1.26.52 1.409.966.222.818.593 1.487 1.037 2.231.89 1.264 1.853 2.38 2.743 3.643.074.52-.519.967-.89.892z"/></mask><path d="M14.732 51.213c-2.817.371-5.781.148-8.598-1.562-3.706-2.23-5.336-6.096-5.114-10.408a19.03 19.03 0 0 1 3.113-9.294 18.66 18.66 0 0 1 7.56-6.617c1.63-.818 3.854-1.19 5.633-.446 1.482.595 3.039 2.156 3.335 3.643.148.446-.593 1.413-1.186.967-.815-.744-1.853-1.71-2.89-2.156-1.038-.446-2.002-.52-3.113-.075-2.89 1.19-5.56 3.495-7.338 6.245-1.63 2.528-2.594 5.502-2.668 8.55 0 2.751 1.037 5.353 3.335 7.063 2.15 1.562 4.966 1.934 7.56 1.71 4.373-.371 8.227-2.23 12.081-3.94.445 0 1.112.743.741 1.264-3.705 2.082-7.93 4.387-12.451 5.056zM44.296 49.503c-2.224 1.487-4.966 2.676-7.708 2.676-1.557 0-2.669-.669-3.706-2.156-.37.297-1.038.52-1.334.074-1.334-1.858-1.705-4.46-1.78-6.988-.147-6.468-.073-11.227 1.631-17.026.149-.595 1.557-1.71 2.595-1.412.444-1.19 1.63-2.454 3.038-2.603 3.78 0 7.857 2.008 9.117 5.8.37 1.189.37 2.453-.074 3.643a6.703 6.703 0 0 1-2.15 2.825l-.444.372c1.853.594 3.928 1.784 5.114 3.642.89 1.413.963 3.123.593 4.759-.667 2.676-2.594 4.832-4.892 6.394zm2.075-9.889c-.593-1.115-2.223-1.784-3.41-2.379-1.407-.892-2.667-.52-4.076-.223l-2.223.52c-.816.224-1.63.224-2.52 0-.37-.222-.816-.966-.445-1.338.89-.892 2.001-1.338 3.261-1.635l3.41-.372c1.334-.743 2.742-2.23 3.335-3.643.37-1.19.148-2.007-.593-2.974-1.334-1.859-3.483-2.676-5.633-2.9-.667-.074-.89.075-1.037.521-.223.595-.371 1.264-.742 1.784-.148.372-.667.52-1.037.298a1.433 1.433 0 0 1-.667-.372c-.89 3.197-1.409 6.84-1.557 10.632-.148 3.568 0 7.063.519 10.334a30.514 30.514 0 0 0 1.705-2.156c.518-.52 1.482.297 1.334.818-.148.371-.445.817-.667 1.19-.149.445-.37.817-.37 1.114.444.67 1.482.893 2.742.744 1.852-.297 4.076-1.338 5.706-2.602 1.483-1.19 2.743-2.677 3.113-4.535.223-.893.371-1.933-.148-2.826zM66.87 51.213c-4.077 1.115-8.82 1.04-12.007-1.71-1.483-1.264-2.594-3.123-2.668-5.13-.075-1.785.667-3.42 1.704-4.907 2.298-3.272 6.3-5.502 10.154-5.948 1.631-.149 3.113.074 4.3 1.264.37.372 0 1.115-.371 1.264h-.667c-.223 0-.52-.075-.742-.075-.518-.074-.963-.148-1.26.075-3.557.148-7.04 1.858-9.19 4.758-.964 1.264-1.482 2.23-1.334 3.792.148 2.081 1.704 3.643 3.854 4.386 3.039 1.115 6.819.446 9.71-.595 1.556-.594 2.964-1.19 4.298-2.156.297-.223.593 0 .741.372.074.297.074.595.074.818-1.037 2.007-5.188 3.42-6.596 3.792zm4.15-5.056c-.37.446-1.037.372-1.334.149-.74-.52-.74-1.487-.74-2.23.073-1.265.296-2.529.592-3.867l.964-4.089c.593-2.676.963-5.353.148-7.583-.667-1.933-2.298-3.866-4.299-4.09-1.705-.223-3.41.372-4.818 1.413-.74.52-2.371 1.933-2.816 2.75-.074.298.074.819.37 1.116.297.298.075 1.19-.592 1.041-.52-.149-1.112-.297-1.557-.67-.593-.52-.815-1.486-.37-2.23 1.26-2.156 3.038-3.94 5.336-4.98 1.482-.744 3.261-1.042 5.114-.744 2.224.371 4.15 2.007 5.263 4.089 1.704 3.197 1.482 7.212.667 10.78-.742 3.048-1.483 5.874-1.927 9.145zM103.336 62.662c-.222.595-.963.595-1.334.372-.815-.744-.815-1.785-.889-2.825-.223-3.123-.519-6.543-.148-9.74-6.968-.669-14.38-.297-21.05.967-.296 3.791-.148 7.806.445 11.45-.074.37-.593.966-1.186.594-.667-.297-.964-.892-1.112-1.413l-.37-1.635c-.149-1.636-.297-3.272-.37-4.833-.075-1.635-.075-3.271.073-4.684.074-.595.593-1.19 1.112-1.561l2.075-.446c4.3-7.212 7.857-14.647 10.97-22.379.074-.372.222-1.412-.075-1.784-.222-.967.371-1.487.964-1.933 2.372-.372 5.04-.298 7.115.892.816.372 1.186 1.19 1.334 2.007 0 3.867.075 11.896.149 15.836.296 2.157 0 4.387-.149 6.543.149.074.371.074.667.074.445.075.742 0 .964 0 .667.075 1.26.52 1.26 1.116-.593 4.46-.667 8.996-.445 13.382zm-4.595-16.728c-.074-.743-.148-1.413-.148-2.23 0-4.387-.074-13.011-.148-17.398-.297-.595-.816-.892-1.409-1.04-1.037-.298-2.297-.224-3.41-.15.297 1.041.075 2.157-.147 3.123-2.965 6.915-6.078 13.829-10.08 20.297a93.713 93.713 0 0 1 15.268-.595c.074-.669.074-1.338.074-2.007zM122.924 46.529c-1.631 1.635-3.558 3.048-5.707 3.94-1.853.744-4.003.967-6.226.297-.074.372-.371.818-.741.818-1.186-.446-1.631-1.56-1.853-2.528-.519-8.995.444-17.843 2.001-26.244.37-.818 1.853-1.264 2.297-.075-.444 4.313-1.26 8.625-1.482 12.937 2.594-2.007 5.929-2.974 9.191-2.23 2.149.52 4.298 2.453 4.965 4.61 1.038 3.122-.074 6.244-2.445 8.475zm-3.113-10.483c-3.336-.818-6.449.669-8.82 3.197 0 2.75 0 6.914-.074 9.219a8.844 8.844 0 0 0 5.558-.52c2.224-.893 4.225-2.603 5.782-4.61 1.111-1.413 1.185-3.643.296-5.205-.519-1.04-1.705-1.858-2.742-2.081zM152.779 6.084c-1.631.594-3.41.966-5.04 1.56-2.965.967-4.966 2.231-7.042 4.536-2.075 2.23-3.409 4.907-4.595 7.732-1.186 2.9-2.001 6.097-2.891 9.145 2.669-1.859 5.782-3.494 9.043-4.015 2.89-.52 6.077.075 8.597 1.71 2.669 1.71 4.447 4.684 5.189 7.807.741 3.345.444 6.468-1.26 9.442-1.483 2.676-3.78 4.907-6.597 6.245-2.372 1.19-5.484 1.561-8.301 1.115-3.261-.446-5.855-1.933-7.782-4.535-2.076-2.825-2.669-6.245-2.594-9.74.148-4.832 1.556-10.036 2.816-13.977 1.557-4.758 3.78-9.962 7.634-13.68 1.853-1.784 4.077-3.197 6.448-4.014 1.631-.52 3.336-.893 5.04-1.413 1.631-.52 3.187-1.19 4.596-2.38.444-.074 1.186 0 1.334.447.296.446.296 1.04 0 1.412-1.408 1.264-2.965 2.082-4.595 2.603zm-.149 26.467c-.963-2.156-2.89-3.791-5.04-4.46-2.149-.744-4.891-.595-7.041.074-2.965.892-5.707 2.676-8.079 4.833-.667 3.27-.593 7.211.519 10.185.519 1.487 1.557 2.825 2.891 3.866 2.223 1.785 4.521 2.008 7.337 1.71 3.039-.297 5.782-1.71 8.005-4.015 1.779-1.784 2.52-3.568 2.594-6.17.074-2.157-.37-4.313-1.186-6.023zM174.572 51.213c-4.077 1.115-8.82 1.04-12.007-1.71-1.482-1.264-2.594-3.123-2.668-5.13-.074-1.785.667-3.42 1.704-4.907 2.298-3.272 6.3-5.502 10.154-5.948 1.631-.149 3.113.074 4.299 1.264.371.372 0 1.115-.37 1.264h-.667c-.223 0-.519-.075-.742-.075-.518-.074-.963-.148-1.26.075-3.557.148-7.041 1.858-9.19 4.758-.964 1.264-1.482 2.23-1.334 3.792.148 2.081 1.704 3.643 3.854 4.386 3.039 1.115 6.819.446 9.709-.595 1.557-.594 2.965-1.19 4.299-2.156.297-.223.593 0 .741.372.074.297.074.595.074.818-1.037 2.007-5.188 3.42-6.596 3.792zm4.151-5.056c-.371.446-1.038.372-1.335.149-.741-.52-.741-1.487-.741-2.23.074-1.265.297-2.529.593-3.867l.964-4.089c.593-2.676.963-5.353.148-7.583-.667-1.933-2.298-3.866-4.299-4.09-1.705-.223-3.409.372-4.818 1.413-.741.52-2.371 1.933-2.816 2.75-.074.298.074.819.371 1.116.296.298.074 1.19-.593 1.041-.519-.149-1.112-.297-1.557-.67-.593-.52-.815-1.486-.37-2.23 1.26-2.156 3.038-3.94 5.336-4.98 1.482-.744 3.261-1.042 5.114-.744 2.224.371 4.151 2.007 5.263 4.089 1.704 3.197 1.482 7.212.667 10.78-.742 3.048-1.483 5.874-1.927 9.145zM194.955 5.415l-.519 2.304c-.815 3.495-.889 7.138-.889 10.78-.075 5.354.296 10.781.815 15.911-.148.744-.222 1.561-1.112 1.71-.889-1.04-1.112-2.23-1.26-3.346-.593-5.427-.963-11.003-.815-16.505.148-4.312.667-8.624 1.705-12.788.148-.297.37-1.115 1.111-1.263.445-.075 1.186.074 1.409.743a14.355 14.355 0 0 1-.445 2.454zm2.149 46.987c-2.594-.818-4.447-3.569-5.114-5.948-.074-.818.148-1.412.815-1.784.742-.149 1.26.52 1.409.966.222.818.593 1.487 1.037 2.231.89 1.264 1.853 2.38 2.743 3.643.074.52-.519.967-.89.892z" fill="#F8F5F0"/><path d="M14.732 51.213c-2.817.371-5.781.148-8.598-1.562-3.706-2.23-5.336-6.096-5.114-10.408a19.03 19.03 0 0 1 3.113-9.294 18.66 18.66 0 0 1 7.56-6.617c1.63-.818 3.854-1.19 5.633-.446 1.482.595 3.039 2.156 3.335 3.643.148.446-.593 1.413-1.186.967-.815-.744-1.853-1.71-2.89-2.156-1.038-.446-2.002-.52-3.113-.075-2.89 1.19-5.56 3.495-7.338 6.245-1.63 2.528-2.594 5.502-2.668 8.55 0 2.751 1.037 5.353 3.335 7.063 2.15 1.562 4.966 1.934 7.56 1.71 4.373-.371 8.227-2.23 12.081-3.94.445 0 1.112.743.741 1.264-3.705 2.082-7.93 4.387-12.451 5.056zM44.296 49.503c-2.224 1.487-4.966 2.676-7.708 2.676-1.557 0-2.669-.669-3.706-2.156-.37.297-1.038.52-1.334.074-1.334-1.858-1.705-4.46-1.78-6.988-.147-6.468-.073-11.227 1.631-17.026.149-.595 1.557-1.71 2.595-1.412.444-1.19 1.63-2.454 3.038-2.603 3.78 0 7.857 2.008 9.117 5.8.37 1.189.37 2.453-.074 3.643a6.703 6.703 0 0 1-2.15 2.825l-.444.372c1.853.594 3.928 1.784 5.114 3.642.89 1.413.963 3.123.593 4.759-.667 2.676-2.594 4.832-4.892 6.394zm2.075-9.889c-.593-1.115-2.223-1.784-3.41-2.379-1.407-.892-2.667-.52-4.076-.223l-2.223.52c-.816.224-1.63.224-2.52 0-.37-.222-.816-.966-.445-1.338.89-.892 2.001-1.338 3.261-1.635l3.41-.372c1.334-.743 2.742-2.23 3.335-3.643.37-1.19.148-2.007-.593-2.974-1.334-1.859-3.483-2.676-5.633-2.9-.667-.074-.89.075-1.037.521-.223.595-.371 1.264-.742 1.784-.148.372-.667.52-1.037.298a1.433 1.433 0 0 1-.667-.372c-.89 3.197-1.409 6.84-1.557 10.632-.148 3.568 0 7.063.519 10.334a30.514 30.514 0 0 0 1.705-2.156c.518-.52 1.482.297 1.334.818-.148.371-.445.817-.667 1.19-.149.445-.37.817-.37 1.114.444.67 1.482.893 2.742.744 1.852-.297 4.076-1.338 5.706-2.602 1.483-1.19 2.743-2.677 3.113-4.535.223-.893.371-1.933-.148-2.826zM66.87 51.213c-4.077 1.115-8.82 1.04-12.007-1.71-1.483-1.264-2.594-3.123-2.668-5.13-.075-1.785.667-3.42 1.704-4.907 2.298-3.272 6.3-5.502 10.154-5.948 1.631-.149 3.113.074 4.3 1.264.37.372 0 1.115-.371 1.264h-.667c-.223 0-.52-.075-.742-.075-.518-.074-.963-.148-1.26.075-3.557.148-7.04 1.858-9.19 4.758-.964 1.264-1.482 2.23-1.334 3.792.148 2.081 1.704 3.643 3.854 4.386 3.039 1.115 6.819.446 9.71-.595 1.556-.594 2.964-1.19 4.298-2.156.297-.223.593 0 .741.372.074.297.074.595.074.818-1.037 2.007-5.188 3.42-6.596 3.792zm4.15-5.056c-.37.446-1.037.372-1.334.149-.74-.52-.74-1.487-.74-2.23.073-1.265.296-2.529.592-3.867l.964-4.089c.593-2.676.963-5.353.148-7.583-.667-1.933-2.298-3.866-4.299-4.09-1.705-.223-3.41.372-4.818 1.413-.74.52-2.371 1.933-2.816 2.75-.074.298.074.819.37 1.116.297.298.075 1.19-.592 1.041-.52-.149-1.112-.297-1.557-.67-.593-.52-.815-1.486-.37-2.23 1.26-2.156 3.038-3.94 5.336-4.98 1.482-.744 3.261-1.042 5.114-.744 2.224.371 4.15 2.007 5.263 4.089 1.704 3.197 1.482 7.212.667 10.78-.742 3.048-1.483 5.874-1.927 9.145zM103.336 62.662c-.222.595-.963.595-1.334.372-.815-.744-.815-1.785-.889-2.825-.223-3.123-.519-6.543-.148-9.74-6.968-.669-14.38-.297-21.05.967-.296 3.791-.148 7.806.445 11.45-.074.37-.593.966-1.186.594-.667-.297-.964-.892-1.112-1.413l-.37-1.635c-.149-1.636-.297-3.272-.37-4.833-.075-1.635-.075-3.271.073-4.684.074-.595.593-1.19 1.112-1.561l2.075-.446c4.3-7.212 7.857-14.647 10.97-22.379.074-.372.222-1.412-.075-1.784-.222-.967.371-1.487.964-1.933 2.372-.372 5.04-.298 7.115.892.816.372 1.186 1.19 1.334 2.007 0 3.867.075 11.896.149 15.836.296 2.157 0 4.387-.149 6.543.149.074.371.074.667.074.445.075.742 0 .964 0 .667.075 1.26.52 1.26 1.116-.593 4.46-.667 8.996-.445 13.382zm-4.595-16.728c-.074-.743-.148-1.413-.148-2.23 0-4.387-.074-13.011-.148-17.398-.297-.595-.816-.892-1.409-1.04-1.037-.298-2.297-.224-3.41-.15.297 1.041.075 2.157-.147 3.123-2.965 6.915-6.078 13.829-10.08 20.297a93.713 93.713 0 0 1 15.268-.595c.074-.669.074-1.338.074-2.007zM122.924 46.529c-1.631 1.635-3.558 3.048-5.707 3.94-1.853.744-4.003.967-6.226.297-.074.372-.371.818-.741.818-1.186-.446-1.631-1.56-1.853-2.528-.519-8.995.444-17.843 2.001-26.244.37-.818 1.853-1.264 2.297-.075-.444 4.313-1.26 8.625-1.482 12.937 2.594-2.007 5.929-2.974 9.191-2.23 2.149.52 4.298 2.453 4.965 4.61 1.038 3.122-.074 6.244-2.445 8.475zm-3.113-10.483c-3.336-.818-6.449.669-8.82 3.197 0 2.75 0 6.914-.074 9.219a8.844 8.844 0 0 0 5.558-.52c2.224-.893 4.225-2.603 5.782-4.61 1.111-1.413 1.185-3.643.296-5.205-.519-1.04-1.705-1.858-2.742-2.081zM152.779 6.084c-1.631.594-3.41.966-5.04 1.56-2.965.967-4.966 2.231-7.042 4.536-2.075 2.23-3.409 4.907-4.595 7.732-1.186 2.9-2.001 6.097-2.891 9.145 2.669-1.859 5.782-3.494 9.043-4.015 2.89-.52 6.077.075 8.597 1.71 2.669 1.71 4.447 4.684 5.189 7.807.741 3.345.444 6.468-1.26 9.442-1.483 2.676-3.78 4.907-6.597 6.245-2.372 1.19-5.484 1.561-8.301 1.115-3.261-.446-5.855-1.933-7.782-4.535-2.076-2.825-2.669-6.245-2.594-9.74.148-4.832 1.556-10.036 2.816-13.977 1.557-4.758 3.78-9.962 7.634-13.68 1.853-1.784 4.077-3.197 6.448-4.014 1.631-.52 3.336-.893 5.04-1.413 1.631-.52 3.187-1.19 4.596-2.38.444-.074 1.186 0 1.334.447.296.446.296 1.04 0 1.412-1.408 1.264-2.965 2.082-4.595 2.603zm-.149 26.467c-.963-2.156-2.89-3.791-5.04-4.46-2.149-.744-4.891-.595-7.041.074-2.965.892-5.707 2.676-8.079 4.833-.667 3.27-.593 7.211.519 10.185.519 1.487 1.557 2.825 2.891 3.866 2.223 1.785 4.521 2.008 7.337 1.71 3.039-.297 5.782-1.71 8.005-4.015 1.779-1.784 2.52-3.568 2.594-6.17.074-2.157-.37-4.313-1.186-6.023zM174.572 51.213c-4.077 1.115-8.82 1.04-12.007-1.71-1.482-1.264-2.594-3.123-2.668-5.13-.074-1.785.667-3.42 1.704-4.907 2.298-3.272 6.3-5.502 10.154-5.948 1.631-.149 3.113.074 4.299 1.264.371.372 0 1.115-.37 1.264h-.667c-.223 0-.519-.075-.742-.075-.518-.074-.963-.148-1.26.075-3.557.148-7.041 1.858-9.19 4.758-.964 1.264-1.482 2.23-1.334 3.792.148 2.081 1.704 3.643 3.854 4.386 3.039 1.115 6.819.446 9.709-.595 1.557-.594 2.965-1.19 4.299-2.156.297-.223.593 0 .741.372.074.297.074.595.074.818-1.037 2.007-5.188 3.42-6.596 3.792zm4.151-5.056c-.371.446-1.038.372-1.335.149-.741-.52-.741-1.487-.741-2.23.074-1.265.297-2.529.593-3.867l.964-4.089c.593-2.676.963-5.353.148-7.583-.667-1.933-2.298-3.866-4.299-4.09-1.705-.223-3.409.372-4.818 1.413-.741.52-2.371 1.933-2.816 2.75-.074.298.074.819.371 1.116.296.298.074 1.19-.593 1.041-.519-.149-1.112-.297-1.557-.67-.593-.52-.815-1.486-.37-2.23 1.26-2.156 3.038-3.94 5.336-4.98 1.482-.744 3.261-1.042 5.114-.744 2.224.371 4.151 2.007 5.263 4.089 1.704 3.197 1.482 7.212.667 10.78-.742 3.048-1.483 5.874-1.927 9.145zM194.955 5.415l-.519 2.304c-.815 3.495-.889 7.138-.889 10.78-.075 5.354.296 10.781.815 15.911-.148.744-.222 1.561-1.112 1.71-.889-1.04-1.112-2.23-1.26-3.346-.593-5.427-.963-11.003-.815-16.505.148-4.312.667-8.624 1.705-12.788.148-.297.37-1.115 1.111-1.263.445-.075 1.186.074 1.409.743a14.355 14.355 0 0 1-.445 2.454zm2.149 46.987c-2.594-.818-4.447-3.569-5.114-5.948-.074-.818.148-1.412.815-1.784.742-.149 1.26.52 1.409.966.222.818.593 1.487 1.037 2.231.89 1.264 1.853 2.38 2.743 3.643.074.52-.519.967-.89.892z" stroke="#F8F5F0" stroke-width="2" mask="url(#a)"/></svg>