<svg width="283" height="33" fill="none" xmlns="http://www.w3.org/2000/svg"><path d="M7.557 2.254c-.297.304-.627.573-.891.944-1.089 1.482-2.31 2.93-3.201 4.58-.924 1.685-1.419 3.504-1.815 5.458-.363 1.65-.462 3.47-.297 5.356.132 1.347.561 2.66 1.188 3.874 1.221 2.256 3.102 4.11 4.95 5.153.264.169.23.64-.1.708-.758.202-1.451-.303-2.012-.708-1.518-1.111-2.97-2.762-3.993-4.817C.594 21.186.033 19.367 0 17.38c0-1.55.165-3.032.462-4.514a22.64 22.64 0 0 1 1.815-5.22A23.554 23.554 0 0 1 7.623.637c.33-.169.627.235.627.471-.1.505-.396.842-.693 1.145zM16.302 23.813c-.99.674-2.21 1.213-3.432 1.213-.693 0-1.188-.303-1.65-.977-.165.134-.462.236-.594.034-.594-.843-.759-2.022-.792-3.167-.066-2.93-.033-5.086.726-7.714.066-.27.693-.775 1.155-.64.198-.539.726-1.111 1.353-1.179 1.683 0 3.498.91 4.06 2.628a2.571 2.571 0 0 1-.034 1.65 3.032 3.032 0 0 1-.957 1.28l-.198.169c.825.27 1.75.808 2.277 1.65.396.64.43 1.415.264 2.156-.297 1.213-1.155 2.19-2.178 2.897zm.924-4.48c-.264-.505-.99-.809-1.518-1.078-.627-.404-1.188-.236-1.815-.101l-.99.236a2.114 2.114 0 0 1-1.122 0c-.165-.101-.363-.438-.198-.607.396-.404.891-.606 1.452-.74l1.518-.17c.594-.336 1.221-1.01 1.485-1.65.165-.539.066-.91-.264-1.347-.594-.842-1.55-1.213-2.508-1.314-.297-.034-.396.034-.462.236-.099.27-.165.573-.33.808-.066.169-.297.236-.462.135a.635.635 0 0 1-.297-.168c-.396 1.448-.627 3.099-.693 4.817-.066 1.617 0 3.2.231 4.682.264-.303.594-.741.76-.977.23-.236.66.135.593.37-.066.169-.198.371-.297.54-.066.202-.165.37-.165.505.198.303.66.404 1.221.337.825-.135 1.815-.607 2.541-1.18.66-.538 1.221-1.212 1.386-2.054.1-.404.165-.876-.066-1.28zM27.508 23.914c-1.485.775-3.267 1.112-4.884.303-1.254-.64-2.145-1.718-2.574-3.065-.495-1.583-.33-3.369.33-4.85a7.532 7.532 0 0 1 2.145-2.73c.594-.437 1.485-.976 2.31-1.077.66-.775 1.749-1.01 2.673-.775 1.584.438 2.937 2.088 3.366 3.537.429 1.415.528 2.964.132 4.413-.495 1.953-1.75 3.368-3.498 4.244zm2.277-8.287c-.396-1.111-1.287-2.357-2.442-2.762-.528-.202-1.09-.27-1.518.068-.43.337-.693.876-.891 1.347-.033.101-.033.236-.033.37 0 .135 0 .304-.033.438-.033.068-.363.27-.462.068a5.746 5.746 0 0 1-.1-1.381c-1.253.539-2.31 1.65-2.903 2.897-.627 1.313-.66 2.83-.264 4.177.33 1.044.957 1.92 2.013 2.358 1.32.505 2.739.337 3.927-.27 1.353-.707 2.31-1.785 2.772-3.234.429-1.28.363-2.796-.066-4.075zM42.68 13.101c-.858-.202-1.716-.404-2.607-.438-.726.943-1.089 2.055-1.287 3.234-.23 1.213-.198 2.493-.264 3.739-.066 1.684.066 3.301.264 4.884-.099.203-.396.337-.627.203-.56-.708-.693-1.617-.726-2.527-.033-2.021-.066-4.143.231-6.13.198-1.28.561-2.46 1.32-3.537-2.046-.102-3.927.336-5.808.875a1.038 1.038 0 0 1-.726-.471c-.066-.236.066-.37.198-.438l.198-.068.165-.067c1.386-.573 3.07-.876 4.686-.91 1.65-.067 3.3.102 4.752.64.165.068.462.304.561.506.033.236-.132.539-.33.505zM62.478 21.05c-.825 1.382-1.98 2.325-3.267 2.931-1.353.674-2.937.977-4.455.91-.363 0-.627-.202-.891-.404-.528-.842-.264-1.988-.033-2.796.132-.236.528-.135.627.1.066.237.066.473.033.675 0 .235-.033.438-.033.64.033.303.099.539.396.673 1.518.034 3.003-.27 4.29-.977a6.762 6.762 0 0 0 2.607-2.694c.462-.876.693-1.954.66-3.066-.033-.842-.231-1.65-.627-2.324-.561-.91-1.32-1.55-2.244-1.92-1.09-.472-2.376-.573-3.663-.404-.693.1-1.287.539-1.75 1.044l-.527.573c-.264-.068-.297-.27-.297-.405 0-.1.033-.168.033-.27v-.066c.429-1.348 1.749-1.954 2.937-2.022 1.32-.067 2.673.102 3.795.573a5.62 5.62 0 0 1 2.607 2.324c1.22 1.954.99 4.986-.198 6.906zm-.792-2.593v.168c0 .135-.066.27-.297.27-.825-.404-1.75-.505-2.706-.505-1.32-.034-2.74.168-3.96.1-.264-.033-.462-.269-.561-.505-.033-.37.198-.505.429-.606 2.31.067 5.049-.74 7.029.91.033.067.033.134.066.168zM74.939 13.101c-.858-.202-1.716-.404-2.607-.438-.726.943-1.09 2.055-1.287 3.234-.231 1.213-.198 2.493-.264 3.739-.066 1.684.066 3.301.264 4.884-.1.203-.396.337-.627.203-.561-.708-.693-1.617-.726-2.527-.033-2.021-.066-4.143.23-6.13.199-1.28.562-2.46 1.32-3.537-2.045-.102-3.926.336-5.807.875a1.038 1.038 0 0 1-.726-.471c-.066-.236.066-.37.198-.438l.198-.068.165-.067c1.386-.573 3.069-.876 4.686-.91 1.65-.067 3.3.102 4.752.64.165.068.462.304.56.506.034.236-.131.539-.33.505zM86.872 24.689c-.693-.809-.891-1.887-1.056-2.93-.33-2.426-.264-5.02-.33-7.546-2.013 2.93-3.597 5.895-5.511 9.23-.198.235-.297.404-.627.538-.297 0-.561-.033-.792-.37-1.584-2.998-1.881-6.67-1.65-10.308 0-.236.066-.64.33-.74.429-.136.759.235.759.504-.198 3.369.165 6.569 1.254 9.466 1.155-2.021 2.079-3.705 3.069-5.356a63.548 63.548 0 0 1 3.498-5.255c.264-.202.627-.067.759.202.099 3.234.066 6.4.33 9.5.066 1.01.297 1.987.363 2.93 0 .135-.297.27-.396.135zM98.649 13.539c-.132 0-.264.034-.363.034l-.33.1c-1.617.506-2.838 1.92-4.06 3.302a54.119 54.119 0 0 0 3.862 6.501c.033.236-.264.404-.43.37-.692-.269-1.187-.942-1.517-1.414-.957-1.449-1.815-2.93-2.64-4.447-1.551 2.022-2.805 4.177-3.267 6.839-.627-.304-.66-.944-.66-1.516.23-1.247.759-2.325 1.353-3.369a46.704 46.704 0 0 1 1.98-2.998 63.45 63.45 0 0 0-1.254-1.92 12.559 12.559 0 0 0-1.485-1.853c0-.033-.1-.067-.132-.134l-.198-.135c-.132-.101-.297-.202-.33-.337-.1-.202.066-.471.23-.572.43-.135.892.067 1.222.336.594.438.99 1.112 1.386 1.718l1.287 1.954c1.353-1.55 2.838-3.2 4.818-3.47.363-.033.759-.033 1.056.371 0 .438-.264.573-.528.64zM120.566 24.655c-1.584-.91-3.201-1.55-4.884-2.156-1.65-.606-3.234-1.212-4.818-1.92a12.754 12.754 0 0 0 .429 3.57c.099.203.033.573-.264.573-.264 0-.429-.168-.528-.336-.099-.135-.165-.337-.264-.506-.363-1.212-.495-2.526-.495-3.873a.746.746 0 0 1-.297-.337c-.099-.101-.132-.303-.033-.472a.942.942 0 0 0 .297-.438c.066-.438.033-1.448.132-1.886.132-.775.33-1.718.528-2.661.231-.943.561-1.887.99-2.695a.431.431 0 0 1 .792.101c-.033.438-.165.842-.297 1.246-.099.37-.297.775-.396 1.18a15.746 15.746 0 0 0-.561 3.738 59.343 59.343 0 0 1 3.597-3.031c1.518-1.146 3.135-2.123 4.851-2.83.264 0 .594 0 .792.169.198.134.198.336.099.572-1.749.741-3.333 1.718-4.95 2.863a42.187 42.187 0 0 0-4.455 3.773v.034c1.617.91 3.399 1.516 5.115 2.122 1.518.539 2.97 1.145 4.356 2.055.297.168.528.404.693.707.033.202-.231.472-.429.438zM123.759 13.101h-.165a.275.275 0 0 1-.264-.236c-.033-.27.066-.505.264-.707.528-.472 1.122-.674 1.782-.64.462.034.924.101 1.386.27l1.254.437c1.782.607 3.333 2.223 4.191 3.975.462.977.627 1.988.396 3.1-.231 1.01-.825 1.953-1.617 2.728-1.98 1.92-4.455 2.492-7.194 2.492-.033 2.291-.165 4.851.132 7.108 0 .101.066.236.132.337.033.168.099.303-.033.505-.264.202-.528.135-.759 0-.33-.37-.462-.775-.495-1.246-.231-2.392-.132-4.716 0-7.142-.297-.269-.759-.64-.858-1.044 0-.134.033-.27.099-.337.099-.168.231-.202.297-.134.099.1.297.235.462.337.198-3.369.429-6.57.99-9.803zm6.534 2.19c-.726-.91-1.749-1.55-2.739-1.988-.561-.27-2.145-.876-2.739-.606.033.472-.033 1.314-.099 1.684-.462 2.863-.759 5.929-.792 8.96 2.277.169 4.455-.539 6.204-2.088.957-.842 1.518-2.021 1.419-3.234-.066-1.01-.693-2.021-1.254-2.728zM140.37 24.588c-1.815.505-3.927.471-5.346-.775-.66-.573-1.155-1.415-1.188-2.324-.033-.809.297-1.55.759-2.224 1.023-1.482 2.805-2.492 4.521-2.694.726-.068 1.386.033 1.914.572.165.169 0 .506-.165.573h-.297c-.099 0-.231-.034-.33-.034-.231-.033-.429-.067-.561.034-1.584.067-3.135.842-4.092 2.156-.429.573-.66 1.01-.594 1.718.066.943.759 1.65 1.716 1.987 1.353.505 3.036.202 4.323-.27.693-.269 1.32-.538 1.914-.976.132-.101.264 0 .33.168.033.135.033.27.033.37-.462.91-2.31 1.55-2.937 1.719zm1.848-2.29c-.165.201-.462.168-.594.067-.33-.236-.33-.674-.33-1.011.033-.573.132-1.145.264-1.752l.429-1.852c.264-1.213.429-2.426.066-3.436-.297-.876-1.023-1.752-1.914-1.853-.759-.101-1.518.168-2.145.64-.33.236-1.056.876-1.254 1.246-.033.135.033.371.165.506s.033.539-.264.471c-.231-.067-.495-.134-.693-.303-.264-.236-.363-.674-.165-1.01.561-.977 1.353-1.786 2.376-2.257.66-.337 1.452-.472 2.277-.337.99.168 1.848.91 2.343 1.853.759 1.448.66 3.267.297 4.884-.33 1.381-.66 2.661-.858 4.143zM150.897 24.588c-1.254.168-2.574.067-3.828-.708-1.65-1.01-2.376-2.762-2.277-4.716a8.724 8.724 0 0 1 1.386-4.21 8.355 8.355 0 0 1 3.366-2.998c.726-.37 1.716-.54 2.508-.202.66.27 1.353.977 1.485 1.65.066.202-.264.64-.528.438-.363-.337-.825-.775-1.287-.977-.462-.202-.891-.236-1.386-.033-1.287.539-2.475 1.583-3.267 2.83a7.617 7.617 0 0 0-1.188 3.873c0 1.246.462 2.425 1.485 3.2.957.707 2.211.876 3.366.775 1.947-.169 3.663-1.01 5.379-1.786.198 0 .495.337.33.573-1.65.943-3.531 1.988-5.544 2.29zM167.921 24.689c-.693-.809-.891-1.887-1.056-2.93-.33-2.426-.264-5.02-.33-7.546-2.013 2.93-3.597 5.895-5.511 9.23-.198.235-.297.404-.627.538-.297 0-.561-.033-.792-.37-1.584-2.998-1.881-6.67-1.65-10.308 0-.236.066-.64.33-.74.429-.136.759.235.759.504-.198 3.369.165 6.569 1.254 9.466 1.155-2.021 2.079-3.705 3.069-5.356a63.55 63.55 0 0 1 3.498-5.255c.264-.202.627-.067.759.202.099 3.234.066 6.4.33 9.5.066 1.01.297 1.987.363 2.93 0 .135-.297.27-.396.135zM176.596 23.813c-.99.674-2.211 1.213-3.432 1.213-.693 0-1.188-.303-1.65-.977-.165.134-.462.236-.594.034-.594-.843-.759-2.022-.792-3.167-.066-2.93-.033-5.086.726-7.714.066-.27.693-.775 1.155-.64.198-.539.726-1.111 1.353-1.179 1.683 0 3.498.91 4.059 2.628a2.571 2.571 0 0 1-.033 1.65 3.032 3.032 0 0 1-.957 1.28l-.198.169c.825.27 1.749.808 2.277 1.65.396.64.429 1.415.264 2.156-.297 1.213-1.155 2.19-2.178 2.897zm.924-4.48c-.264-.505-.99-.809-1.518-1.078-.627-.404-1.188-.236-1.815-.101l-.99.236a2.114 2.114 0 0 1-1.122 0c-.165-.101-.363-.438-.198-.607.396-.404.891-.606 1.452-.74l1.518-.17c.594-.336 1.221-1.01 1.485-1.65.165-.539.066-.91-.264-1.347-.594-.842-1.551-1.213-2.508-1.314-.297-.034-.396.034-.462.236-.099.27-.165.573-.33.808-.066.169-.297.236-.462.135a.635.635 0 0 1-.297-.168c-.396 1.448-.627 3.099-.693 4.817-.066 1.617 0 3.2.231 4.682.264-.303.594-.741.759-.977.231-.236.66.135.594.37-.066.169-.198.371-.297.54-.066.202-.165.37-.165.505.198.303.66.404 1.221.337.825-.135 1.815-.607 2.541-1.18.66-.538 1.221-1.212 1.386-2.054.099-.404.165-.876-.066-1.28zM185.987 23.005a6.667 6.667 0 0 1-2.937 1.515c-.825.203-1.98.304-2.673-.404-.198-.168-.495-.707-.198-1.01.231.168.396.303.594.404.132.1.264.168.429.168-.033-2.324.099-6.804.165-9.061.033-.539-.033-1.112 0-1.65.066-.54.165-1.079.594-1.483.297-.1.561-.168.726.169-.165.606-.165 1.684-.198 2.863 0 1.078 0 2.223-.033 3.032a3.823 3.823 0 0 1 1.749-.674c.759-.067 1.551.067 2.178.438a2.69 2.69 0 0 1 1.32 2.93c-.198 1.045-.891 2.021-1.716 2.763zm.429-4.144c-.396-.64-1.089-.876-1.848-.876-.759.034-1.584.337-2.079.809l-.264 4.817c1.023-.236 2.079-.707 2.937-1.449.594-.505 1.155-1.111 1.386-1.886.165-.471.132-1.044-.132-1.415zm6.864 6.03c-.825-.236-.825-1.078-.924-1.752-.495-3.84-.198-7.545.297-11.352.297-.471.825-.067.957.202.033.775 0 1.516-.099 2.291-.066.741-.165 1.516-.165 2.29-.033 1.314-.099 2.662-.066 4.01 0 1.313.132 2.66.33 3.907.033.168-.165.404-.33.404zM205.769 13.539c-.132 0-.264.034-.363.034l-.33.1c-1.617.506-2.838 1.92-4.059 3.302a54.119 54.119 0 0 0 3.861 6.501c.033.236-.264.404-.429.37-.693-.269-1.188-.942-1.518-1.414-.957-1.449-1.815-2.93-2.64-4.447-1.551 2.022-2.805 4.177-3.267 6.839-.627-.304-.66-.944-.66-1.516.231-1.247.759-2.325 1.353-3.369a46.704 46.704 0 0 1 1.98-2.998 63.45 63.45 0 0 0-1.254-1.92 12.559 12.559 0 0 0-1.485-1.853c0-.033-.099-.067-.132-.134l-.198-.135c-.132-.101-.297-.202-.33-.337-.099-.202.066-.471.231-.572.429-.135.891.067 1.221.336.594.438.99 1.112 1.386 1.718l1.287 1.954c1.353-1.55 2.838-3.2 4.818-3.47.363-.033.759-.033 1.056.371 0 .438-.264.573-.528.64zM218.182 13.101h-.165a.275.275 0 0 1-.264-.236c-.033-.27.066-.505.264-.707.528-.472 1.122-.674 1.782-.64.462.034.924.101 1.386.27l1.254.437c1.782.607 3.333 2.223 4.191 3.975.462.977.627 1.988.396 3.1-.231 1.01-.825 1.953-1.617 2.728-1.98 1.92-4.455 2.492-7.194 2.492-.033 2.291-.165 4.851.132 7.108 0 .101.066.236.132.337.033.168.099.303-.033.505-.264.202-.528.135-.759 0-.33-.37-.462-.775-.495-1.246-.231-2.392-.132-4.716 0-7.142-.297-.269-.759-.64-.858-1.044 0-.134.033-.27.099-.337.099-.168.231-.202.297-.134.099.1.297.235.462.337.198-3.369.429-6.57.99-9.803zm6.534 2.19c-.726-.91-1.749-1.55-2.739-1.988-.561-.27-2.145-.876-2.739-.606.033.472-.033 1.314-.099 1.684-.462 2.863-.759 5.929-.792 8.96 2.277.169 4.455-.539 6.204-2.088.957-.842 1.518-2.021 1.419-3.234-.066-1.01-.693-2.021-1.254-2.728zM233.407 24.723c-1.65-.068-3.168-.843-4.125-2.291-.792-1.213-.99-2.627-.825-4.009a8.996 8.996 0 0 1 1.683-4.177c.957-1.28 2.31-2.29 3.861-2.593 1.056-.203 2.178-.101 2.97.774.363.405.693.843.693 1.382.033.572-.231 1.077-.693 1.448-2.31 1.954-4.752 3.773-7.26 5.255.066 1.044.957 2.122 1.914 2.661.957.539 2.079.606 3.135.472 1.056-.101 2.145-.472 2.904-.843.132-.1.231 0 .264.102.033.067.099.202-.033.303-1.155 1.078-2.805 1.583-4.488 1.515zm1.452-12.026c-.957 0-1.914.404-2.673 1.01-1.617 1.348-2.574 3.504-2.574 5.592 2.343-1.314 4.554-3.032 6.699-4.817.165-.134.297-.64.066-1.044-.264-.539-.858-.741-1.518-.741zM249.678 4.14c-.726.27-1.518.439-2.244.708-1.32.438-2.211 1.01-3.135 2.055-.924 1.01-1.518 2.223-2.046 3.503-.528 1.314-.891 2.762-1.287 4.144 1.188-.843 2.574-1.584 4.026-1.82a5.32 5.32 0 0 1 3.828.775c1.188.775 1.98 2.122 2.31 3.537.33 1.516.198 2.93-.561 4.278a6.691 6.691 0 0 1-2.937 2.83c-1.056.539-2.442.707-3.696.505-1.452-.202-2.607-.876-3.465-2.055-.924-1.28-1.188-2.83-1.155-4.412.066-2.19.693-4.548 1.254-6.333.693-2.156 1.683-4.514 3.399-6.198.825-.809 1.815-1.449 2.871-1.82.726-.235 1.485-.404 2.244-.64.726-.235 1.419-.538 2.046-1.077.198-.034.528 0 .594.202.132.202.132.471 0 .64a5.506 5.506 0 0 1-2.046 1.179zm-.066 11.993a3.72 3.72 0 0 0-2.244-2.021c-.957-.337-2.178-.27-3.135.033-1.32.405-2.541 1.213-3.597 2.19-.297 1.482-.264 3.267.231 4.615.231.674.693 1.28 1.287 1.751.99.809 2.013.91 3.267.775 1.353-.135 2.574-.775 3.564-1.819.792-.808 1.122-1.617 1.155-2.796.033-.977-.165-1.954-.528-2.728zM261.263 13.337c.198 3.402.099 7.04-.264 10.409a3.663 3.663 0 0 0-.198.572c-.099.202-.165.404-.33.607-.066.134-.495.202-.594-.034.066-.775.429-4.85.33-6.602-2.409 1.414-4.653 3.907-6.336 6.231-.165.169-.561.169-.627-.168 0-.606.231-1.078.561-1.55.33-.438.726-.842 1.023-1.313.825-1.01 1.782-1.853 2.772-2.661-.792.067-1.617 0-2.409-.37a2.726 2.726 0 0 1-1.617-2.19c-.099-.607 0-1.247.297-1.718.594-.944 1.386-1.752 2.277-2.291 1.056-.64 2.211-.977 3.498-.876.693.236 1.485.472 1.815 1.213.066.236.066.539-.198.74zm-1.089 1.448c0-.74-.033-1.448-.132-2.122-.594-.236-1.089-.303-1.749-.1-.693.201-1.518.538-2.178 1.043-.792.607-1.386 1.382-1.419 2.392.066.438.231.876.594 1.213.462.303 1.056.471 1.584.505 1.188.101 2.409-.27 3.333-.741-.033-.708-.033-1.449-.033-2.19zM273.582 13.101c-.858-.202-1.716-.404-2.607-.438-.726.943-1.089 2.055-1.287 3.234-.231 1.213-.198 2.493-.264 3.739-.066 1.684.066 3.301.264 4.884-.099.203-.396.337-.627.203-.561-.708-.693-1.617-.726-2.527-.033-2.021-.066-4.143.231-6.13.198-1.28.561-2.46 1.32-3.537-2.046-.102-3.927.336-5.808.875a1.038 1.038 0 0 1-.726-.471c-.066-.236.066-.37.198-.438l.198-.068.165-.067c1.386-.573 3.069-.876 4.686-.91 1.65-.067 3.3.102 4.752.64.165.068.462.304.561.506.033.236-.132.539-.33.505zM280.499 23.442c-1.32 2.089-3.102 3.807-4.95 4.817-.33.169-.693-.404-.396-.64.66-.572 1.815-1.616 2.574-2.492 1.254-1.415 2.145-2.998 2.871-4.784.825-1.987 1.254-4.446 1.056-6.838-.231-2.459-.891-4.716-2.112-6.737-1.188-1.92-2.64-3.638-4.158-5.187-.198-.202-.198-.573-.033-.741.132-.135.429-.37.759-.068 1.683 1.482 3.267 3.335 4.455 5.424.891 1.515 1.617 3.166 2.013 4.918.495 2.054.561 4.48.165 6.737-.363 1.954-1.155 3.873-2.244 5.591z" fill="#F8F5F0"/><path d="M7.557 2.254c-.297.304-.627.573-.891.944-1.089 1.482-2.31 2.93-3.201 4.58-.924 1.685-1.419 3.504-1.815 5.458-.363 1.65-.462 3.47-.297 5.356.132 1.347.561 2.66 1.188 3.874 1.221 2.256 3.102 4.11 4.95 5.153.264.169.23.64-.1.708-.758.202-1.451-.303-2.012-.708-1.518-1.111-2.97-2.762-3.993-4.817C.594 21.186.033 19.367 0 17.38c0-1.55.165-3.032.462-4.514a22.64 22.64 0 0 1 1.815-5.22A23.554 23.554 0 0 1 7.623.637c.33-.169.627.235.627.471-.1.505-.396.842-.693 1.145zM16.302 23.813c-.99.674-2.21 1.213-3.432 1.213-.693 0-1.188-.303-1.65-.977-.165.134-.462.236-.594.034-.594-.843-.759-2.022-.792-3.167-.066-2.93-.033-5.086.726-7.714.066-.27.693-.775 1.155-.64.198-.539.726-1.111 1.353-1.179 1.683 0 3.498.91 4.06 2.628a2.571 2.571 0 0 1-.034 1.65 3.032 3.032 0 0 1-.957 1.28l-.198.169c.825.27 1.75.808 2.277 1.65.396.64.43 1.415.264 2.156-.297 1.213-1.155 2.19-2.178 2.897zm.924-4.48c-.264-.505-.99-.809-1.518-1.078-.627-.404-1.188-.236-1.815-.101l-.99.236a2.114 2.114 0 0 1-1.122 0c-.165-.101-.363-.438-.198-.607.396-.404.891-.606 1.452-.74l1.518-.17c.594-.336 1.221-1.01 1.485-1.65.165-.539.066-.91-.264-1.347-.594-.842-1.55-1.213-2.508-1.314-.297-.034-.396.034-.462.236-.099.27-.165.573-.33.808-.066.169-.297.236-.462.135a.635.635 0 0 1-.297-.168c-.396 1.448-.627 3.099-.693 4.817-.066 1.617 0 3.2.231 4.682.264-.303.594-.741.76-.977.23-.236.66.135.593.37-.066.169-.198.371-.297.54-.066.202-.165.37-.165.505.198.303.66.404 1.221.337.825-.135 1.815-.607 2.541-1.18.66-.538 1.221-1.212 1.386-2.054.1-.404.165-.876-.066-1.28zM27.508 23.914c-1.485.775-3.267 1.112-4.884.303-1.254-.64-2.145-1.718-2.574-3.065-.495-1.583-.33-3.369.33-4.85a7.532 7.532 0 0 1 2.145-2.73c.594-.437 1.485-.976 2.31-1.077.66-.775 1.749-1.01 2.673-.775 1.584.438 2.937 2.088 3.366 3.537.429 1.415.528 2.964.132 4.413-.495 1.953-1.75 3.368-3.498 4.244zm2.277-8.287c-.396-1.111-1.287-2.357-2.442-2.762-.528-.202-1.09-.27-1.518.068-.43.337-.693.876-.891 1.347-.033.101-.033.236-.033.37 0 .135 0 .304-.033.438-.033.068-.363.27-.462.068a5.746 5.746 0 0 1-.1-1.381c-1.253.539-2.31 1.65-2.903 2.897-.627 1.313-.66 2.83-.264 4.177.33 1.044.957 1.92 2.013 2.358 1.32.505 2.739.337 3.927-.27 1.353-.707 2.31-1.785 2.772-3.234.429-1.28.363-2.796-.066-4.075zM42.68 13.101c-.858-.202-1.716-.404-2.607-.438-.726.943-1.089 2.055-1.287 3.234-.23 1.213-.198 2.493-.264 3.739-.066 1.684.066 3.301.264 4.884-.099.203-.396.337-.627.203-.56-.708-.693-1.617-.726-2.527-.033-2.021-.066-4.143.231-6.13.198-1.28.561-2.46 1.32-3.537-2.046-.102-3.927.336-5.808.875a1.038 1.038 0 0 1-.726-.471c-.066-.236.066-.37.198-.438l.198-.068.165-.067c1.386-.573 3.07-.876 4.686-.91 1.65-.067 3.3.102 4.752.64.165.068.462.304.561.506.033.236-.132.539-.33.505zM62.478 21.05c-.825 1.382-1.98 2.325-3.267 2.931-1.353.674-2.937.977-4.455.91-.363 0-.627-.202-.891-.404-.528-.842-.264-1.988-.033-2.796.132-.236.528-.135.627.1.066.237.066.473.033.675 0 .235-.033.438-.033.64.033.303.099.539.396.673 1.518.034 3.003-.27 4.29-.977a6.762 6.762 0 0 0 2.607-2.694c.462-.876.693-1.954.66-3.066-.033-.842-.231-1.65-.627-2.324-.561-.91-1.32-1.55-2.244-1.92-1.09-.472-2.376-.573-3.663-.404-.693.1-1.287.539-1.75 1.044l-.527.573c-.264-.068-.297-.27-.297-.405 0-.1.033-.168.033-.27v-.066c.429-1.348 1.749-1.954 2.937-2.022 1.32-.067 2.673.102 3.795.573a5.62 5.62 0 0 1 2.607 2.324c1.22 1.954.99 4.986-.198 6.906zm-.792-2.593v.168c0 .135-.066.27-.297.27-.825-.404-1.75-.505-2.706-.505-1.32-.034-2.74.168-3.96.1-.264-.033-.462-.269-.561-.505-.033-.37.198-.505.429-.606 2.31.067 5.049-.74 7.029.91.033.067.033.134.066.168zM74.939 13.101c-.858-.202-1.716-.404-2.607-.438-.726.943-1.09 2.055-1.287 3.234-.231 1.213-.198 2.493-.264 3.739-.066 1.684.066 3.301.264 4.884-.1.203-.396.337-.627.203-.561-.708-.693-1.617-.726-2.527-.033-2.021-.066-4.143.23-6.13.199-1.28.562-2.46 1.32-3.537-2.045-.102-3.926.336-5.807.875a1.038 1.038 0 0 1-.726-.471c-.066-.236.066-.37.198-.438l.198-.068.165-.067c1.386-.573 3.069-.876 4.686-.91 1.65-.067 3.3.102 4.752.64.165.068.462.304.56.506.034.236-.131.539-.33.505zM86.872 24.689c-.693-.809-.891-1.887-1.056-2.93-.33-2.426-.264-5.02-.33-7.546-2.013 2.93-3.597 5.895-5.511 9.23-.198.235-.297.404-.627.538-.297 0-.561-.033-.792-.37-1.584-2.998-1.881-6.67-1.65-10.308 0-.236.066-.64.33-.74.429-.136.759.235.759.504-.198 3.369.165 6.569 1.254 9.466 1.155-2.021 2.079-3.705 3.069-5.356a63.548 63.548 0 0 1 3.498-5.255c.264-.202.627-.067.759.202.099 3.234.066 6.4.33 9.5.066 1.01.297 1.987.363 2.93 0 .135-.297.27-.396.135zM98.649 13.539c-.132 0-.264.034-.363.034l-.33.1c-1.617.506-2.838 1.92-4.06 3.302a54.119 54.119 0 0 0 3.862 6.501c.033.236-.264.404-.43.37-.692-.269-1.187-.942-1.517-1.414-.957-1.449-1.815-2.93-2.64-4.447-1.551 2.022-2.805 4.177-3.267 6.839-.627-.304-.66-.944-.66-1.516.23-1.247.759-2.325 1.353-3.369a46.704 46.704 0 0 1 1.98-2.998 63.45 63.45 0 0 0-1.254-1.92 12.559 12.559 0 0 0-1.485-1.853c0-.033-.1-.067-.132-.134l-.198-.135c-.132-.101-.297-.202-.33-.337-.1-.202.066-.471.23-.572.43-.135.892.067 1.222.336.594.438.99 1.112 1.386 1.718l1.287 1.954c1.353-1.55 2.838-3.2 4.818-3.47.363-.033.759-.033 1.056.371 0 .438-.264.573-.528.64zM120.566 24.655c-1.584-.91-3.201-1.55-4.884-2.156-1.65-.606-3.234-1.212-4.818-1.92a12.754 12.754 0 0 0 .429 3.57c.099.203.033.573-.264.573-.264 0-.429-.168-.528-.336-.099-.135-.165-.337-.264-.506-.363-1.212-.495-2.526-.495-3.873a.746.746 0 0 1-.297-.337c-.099-.101-.132-.303-.033-.472a.942.942 0 0 0 .297-.438c.066-.438.033-1.448.132-1.886.132-.775.33-1.718.528-2.661.231-.943.561-1.887.99-2.695a.431.431 0 0 1 .792.101c-.033.438-.165.842-.297 1.246-.099.37-.297.775-.396 1.18a15.746 15.746 0 0 0-.561 3.738 59.343 59.343 0 0 1 3.597-3.031c1.518-1.146 3.135-2.123 4.851-2.83.264 0 .594 0 .792.169.198.134.198.336.099.572-1.749.741-3.333 1.718-4.95 2.863a42.187 42.187 0 0 0-4.455 3.773v.034c1.617.91 3.399 1.516 5.115 2.122 1.518.539 2.97 1.145 4.356 2.055.297.168.528.404.693.707.033.202-.231.472-.429.438zM123.759 13.101h-.165a.275.275 0 0 1-.264-.236c-.033-.27.066-.505.264-.707.528-.472 1.122-.674 1.782-.64.462.034.924.101 1.386.27l1.254.437c1.782.607 3.333 2.223 4.191 3.975.462.977.627 1.988.396 3.1-.231 1.01-.825 1.953-1.617 2.728-1.98 1.92-4.455 2.492-7.194 2.492-.033 2.291-.165 4.851.132 7.108 0 .101.066.236.132.337.033.168.099.303-.033.505-.264.202-.528.135-.759 0-.33-.37-.462-.775-.495-1.246-.231-2.392-.132-4.716 0-7.142-.297-.269-.759-.64-.858-1.044 0-.134.033-.27.099-.337.099-.168.231-.202.297-.134.099.1.297.235.462.337.198-3.369.429-6.57.99-9.803zm6.534 2.19c-.726-.91-1.749-1.55-2.739-1.988-.561-.27-2.145-.876-2.739-.606.033.472-.033 1.314-.099 1.684-.462 2.863-.759 5.929-.792 8.96 2.277.169 4.455-.539 6.204-2.088.957-.842 1.518-2.021 1.419-3.234-.066-1.01-.693-2.021-1.254-2.728zM140.37 24.588c-1.815.505-3.927.471-5.346-.775-.66-.573-1.155-1.415-1.188-2.324-.033-.809.297-1.55.759-2.224 1.023-1.482 2.805-2.492 4.521-2.694.726-.068 1.386.033 1.914.572.165.169 0 .506-.165.573h-.297c-.099 0-.231-.034-.33-.034-.231-.033-.429-.067-.561.034-1.584.067-3.135.842-4.092 2.156-.429.573-.66 1.01-.594 1.718.066.943.759 1.65 1.716 1.987 1.353.505 3.036.202 4.323-.27.693-.269 1.32-.538 1.914-.976.132-.101.264 0 .33.168.033.135.033.27.033.37-.462.91-2.31 1.55-2.937 1.719zm1.848-2.29c-.165.201-.462.168-.594.067-.33-.236-.33-.674-.33-1.011.033-.573.132-1.145.264-1.752l.429-1.852c.264-1.213.429-2.426.066-3.436-.297-.876-1.023-1.752-1.914-1.853-.759-.101-1.518.168-2.145.64-.33.236-1.056.876-1.254 1.246-.033.135.033.371.165.506s.033.539-.264.471c-.231-.067-.495-.134-.693-.303-.264-.236-.363-.674-.165-1.01.561-.977 1.353-1.786 2.376-2.257.66-.337 1.452-.472 2.277-.337.99.168 1.848.91 2.343 1.853.759 1.448.66 3.267.297 4.884-.33 1.381-.66 2.661-.858 4.143zM150.897 24.588c-1.254.168-2.574.067-3.828-.708-1.65-1.01-2.376-2.762-2.277-4.716a8.724 8.724 0 0 1 1.386-4.21 8.355 8.355 0 0 1 3.366-2.998c.726-.37 1.716-.54 2.508-.202.66.27 1.353.977 1.485 1.65.066.202-.264.64-.528.438-.363-.337-.825-.775-1.287-.977-.462-.202-.891-.236-1.386-.033-1.287.539-2.475 1.583-3.267 2.83a7.617 7.617 0 0 0-1.188 3.873c0 1.246.462 2.425 1.485 3.2.957.707 2.211.876 3.366.775 1.947-.169 3.663-1.01 5.379-1.786.198 0 .495.337.33.573-1.65.943-3.531 1.988-5.544 2.29zM167.921 24.689c-.693-.809-.891-1.887-1.056-2.93-.33-2.426-.264-5.02-.33-7.546-2.013 2.93-3.597 5.895-5.511 9.23-.198.235-.297.404-.627.538-.297 0-.561-.033-.792-.37-1.584-2.998-1.881-6.67-1.65-10.308 0-.236.066-.64.33-.74.429-.136.759.235.759.504-.198 3.369.165 6.569 1.254 9.466 1.155-2.021 2.079-3.705 3.069-5.356a63.55 63.55 0 0 1 3.498-5.255c.264-.202.627-.067.759.202.099 3.234.066 6.4.33 9.5.066 1.01.297 1.987.363 2.93 0 .135-.297.27-.396.135zM176.596 23.813c-.99.674-2.211 1.213-3.432 1.213-.693 0-1.188-.303-1.65-.977-.165.134-.462.236-.594.034-.594-.843-.759-2.022-.792-3.167-.066-2.93-.033-5.086.726-7.714.066-.27.693-.775 1.155-.64.198-.539.726-1.111 1.353-1.179 1.683 0 3.498.91 4.059 2.628a2.571 2.571 0 0 1-.033 1.65 3.032 3.032 0 0 1-.957 1.28l-.198.169c.825.27 1.749.808 2.277 1.65.396.64.429 1.415.264 2.156-.297 1.213-1.155 2.19-2.178 2.897zm.924-4.48c-.264-.505-.99-.809-1.518-1.078-.627-.404-1.188-.236-1.815-.101l-.99.236a2.114 2.114 0 0 1-1.122 0c-.165-.101-.363-.438-.198-.607.396-.404.891-.606 1.452-.74l1.518-.17c.594-.336 1.221-1.01 1.485-1.65.165-.539.066-.91-.264-1.347-.594-.842-1.551-1.213-2.508-1.314-.297-.034-.396.034-.462.236-.099.27-.165.573-.33.808-.066.169-.297.236-.462.135a.635.635 0 0 1-.297-.168c-.396 1.448-.627 3.099-.693 4.817-.066 1.617 0 3.2.231 4.682.264-.303.594-.741.759-.977.231-.236.66.135.594.37-.066.169-.198.371-.297.54-.066.202-.165.37-.165.505.198.303.66.404 1.221.337.825-.135 1.815-.607 2.541-1.18.66-.538 1.221-1.212 1.386-2.054.099-.404.165-.876-.066-1.28zM185.987 23.005a6.667 6.667 0 0 1-2.937 1.515c-.825.203-1.98.304-2.673-.404-.198-.168-.495-.707-.198-1.01.231.168.396.303.594.404.132.1.264.168.429.168-.033-2.324.099-6.804.165-9.061.033-.539-.033-1.112 0-1.65.066-.54.165-1.079.594-1.483.297-.1.561-.168.726.169-.165.606-.165 1.684-.198 2.863 0 1.078 0 2.223-.033 3.032a3.823 3.823 0 0 1 1.749-.674c.759-.067 1.551.067 2.178.438a2.69 2.69 0 0 1 1.32 2.93c-.198 1.045-.891 2.021-1.716 2.763zm.429-4.144c-.396-.64-1.089-.876-1.848-.876-.759.034-1.584.337-2.079.809l-.264 4.817c1.023-.236 2.079-.707 2.937-1.449.594-.505 1.155-1.111 1.386-1.886.165-.471.132-1.044-.132-1.415zm6.864 6.03c-.825-.236-.825-1.078-.924-1.752-.495-3.84-.198-7.545.297-11.352.297-.471.825-.067.957.202.033.775 0 1.516-.099 2.291-.066.741-.165 1.516-.165 2.29-.033 1.314-.099 2.662-.066 4.01 0 1.313.132 2.66.33 3.907.033.168-.165.404-.33.404zM205.769 13.539c-.132 0-.264.034-.363.034l-.33.1c-1.617.506-2.838 1.92-4.059 3.302a54.119 54.119 0 0 0 3.861 6.501c.033.236-.264.404-.429.37-.693-.269-1.188-.942-1.518-1.414-.957-1.449-1.815-2.93-2.64-4.447-1.551 2.022-2.805 4.177-3.267 6.839-.627-.304-.66-.944-.66-1.516.231-1.247.759-2.325 1.353-3.369a46.704 46.704 0 0 1 1.98-2.998 63.45 63.45 0 0 0-1.254-1.92 12.559 12.559 0 0 0-1.485-1.853c0-.033-.099-.067-.132-.134l-.198-.135c-.132-.101-.297-.202-.33-.337-.099-.202.066-.471.231-.572.429-.135.891.067 1.221.336.594.438.99 1.112 1.386 1.718l1.287 1.954c1.353-1.55 2.838-3.2 4.818-3.47.363-.033.759-.033 1.056.371 0 .438-.264.573-.528.64zM218.182 13.101h-.165a.275.275 0 0 1-.264-.236c-.033-.27.066-.505.264-.707.528-.472 1.122-.674 1.782-.64.462.034.924.101 1.386.27l1.254.437c1.782.607 3.333 2.223 4.191 3.975.462.977.627 1.988.396 3.1-.231 1.01-.825 1.953-1.617 2.728-1.98 1.92-4.455 2.492-7.194 2.492-.033 2.291-.165 4.851.132 7.108 0 .101.066.236.132.337.033.168.099.303-.033.505-.264.202-.528.135-.759 0-.33-.37-.462-.775-.495-1.246-.231-2.392-.132-4.716 0-7.142-.297-.269-.759-.64-.858-1.044 0-.134.033-.27.099-.337.099-.168.231-.202.297-.134.099.1.297.235.462.337.198-3.369.429-6.57.99-9.803zm6.534 2.19c-.726-.91-1.749-1.55-2.739-1.988-.561-.27-2.145-.876-2.739-.606.033.472-.033 1.314-.099 1.684-.462 2.863-.759 5.929-.792 8.96 2.277.169 4.455-.539 6.204-2.088.957-.842 1.518-2.021 1.419-3.234-.066-1.01-.693-2.021-1.254-2.728zM233.407 24.723c-1.65-.068-3.168-.843-4.125-2.291-.792-1.213-.99-2.627-.825-4.009a8.996 8.996 0 0 1 1.683-4.177c.957-1.28 2.31-2.29 3.861-2.593 1.056-.203 2.178-.101 2.97.774.363.405.693.843.693 1.382.033.572-.231 1.077-.693 1.448-2.31 1.954-4.752 3.773-7.26 5.255.066 1.044.957 2.122 1.914 2.661.957.539 2.079.606 3.135.472 1.056-.101 2.145-.472 2.904-.843.132-.1.231 0 .264.102.033.067.099.202-.033.303-1.155 1.078-2.805 1.583-4.488 1.515zm1.452-12.026c-.957 0-1.914.404-2.673 1.01-1.617 1.348-2.574 3.504-2.574 5.592 2.343-1.314 4.554-3.032 6.699-4.817.165-.134.297-.64.066-1.044-.264-.539-.858-.741-1.518-.741zM249.678 4.14c-.726.27-1.518.439-2.244.708-1.32.438-2.211 1.01-3.135 2.055-.924 1.01-1.518 2.223-2.046 3.503-.528 1.314-.891 2.762-1.287 4.144 1.188-.843 2.574-1.584 4.026-1.82a5.32 5.32 0 0 1 3.828.775c1.188.775 1.98 2.122 2.31 3.537.33 1.516.198 2.93-.561 4.278a6.691 6.691 0 0 1-2.937 2.83c-1.056.539-2.442.707-3.696.505-1.452-.202-2.607-.876-3.465-2.055-.924-1.28-1.188-2.83-1.155-4.412.066-2.19.693-4.548 1.254-6.333.693-2.156 1.683-4.514 3.399-6.198.825-.809 1.815-1.449 2.871-1.82.726-.235 1.485-.404 2.244-.64.726-.235 1.419-.538 2.046-1.077.198-.034.528 0 .594.202.132.202.132.471 0 .64a5.506 5.506 0 0 1-2.046 1.179zm-.066 11.993a3.72 3.72 0 0 0-2.244-2.021c-.957-.337-2.178-.27-3.135.033-1.32.405-2.541 1.213-3.597 2.19-.297 1.482-.264 3.267.231 4.615.231.674.693 1.28 1.287 1.751.99.809 2.013.91 3.267.775 1.353-.135 2.574-.775 3.564-1.819.792-.808 1.122-1.617 1.155-2.796.033-.977-.165-1.954-.528-2.728zM261.263 13.337c.198 3.402.099 7.04-.264 10.409a3.663 3.663 0 0 0-.198.572c-.099.202-.165.404-.33.607-.066.134-.495.202-.594-.034.066-.775.429-4.85.33-6.602-2.409 1.414-4.653 3.907-6.336 6.231-.165.169-.561.169-.627-.168 0-.606.231-1.078.561-1.55.33-.438.726-.842 1.023-1.313.825-1.01 1.782-1.853 2.772-2.661-.792.067-1.617 0-2.409-.37a2.726 2.726 0 0 1-1.617-2.19c-.099-.607 0-1.247.297-1.718.594-.944 1.386-1.752 2.277-2.291 1.056-.64 2.211-.977 3.498-.876.693.236 1.485.472 1.815 1.213.066.236.066.539-.198.74zm-1.089 1.448c0-.74-.033-1.448-.132-2.122-.594-.236-1.089-.303-1.749-.1-.693.201-1.518.538-2.178 1.043-.792.607-1.386 1.382-1.419 2.392.066.438.231.876.594 1.213.462.303 1.056.471 1.584.505 1.188.101 2.409-.27 3.333-.741-.033-.708-.033-1.449-.033-2.19zM273.582 13.101c-.858-.202-1.716-.404-2.607-.438-.726.943-1.089 2.055-1.287 3.234-.231 1.213-.198 2.493-.264 3.739-.066 1.684.066 3.301.264 4.884-.099.203-.396.337-.627.203-.561-.708-.693-1.617-.726-2.527-.033-2.021-.066-4.143.231-6.13.198-1.28.561-2.46 1.32-3.537-2.046-.102-3.927.336-5.808.875a1.038 1.038 0 0 1-.726-.471c-.066-.236.066-.37.198-.438l.198-.068.165-.067c1.386-.573 3.069-.876 4.686-.91 1.65-.067 3.3.102 4.752.64.165.068.462.304.561.506.033.236-.132.539-.33.505zM280.499 23.442c-1.32 2.089-3.102 3.807-4.95 4.817-.33.169-.693-.404-.396-.64.66-.572 1.815-1.616 2.574-2.492 1.254-1.415 2.145-2.998 2.871-4.784.825-1.987 1.254-4.446 1.056-6.838-.231-2.459-.891-4.716-2.112-6.737-1.188-1.92-2.64-3.638-4.158-5.187-.198-.202-.198-.573-.033-.741.132-.135.429-.37.759-.068 1.683 1.482 3.267 3.335 4.455 5.424.891 1.515 1.617 3.166 2.013 4.918.495 2.054.561 4.48.165 6.737-.363 1.954-1.155 3.873-2.244 5.591z" stroke="#fff"/></svg>