<svg width="331" height="43" fill="none" xmlns="http://www.w3.org/2000/svg"><mask id="a" maskUnits="userSpaceOnUse" x="-1" y=".598" width="332" height="43" fill="#000"><path fill="#fff" d="M-1 .598h332v43H-1z"/><path d="M29.715 36.39c-1.458-.34-2.112-1.898-2.665-3.116a68.677 68.677 0 0 1-3.822-11.202c-.452-1.753-1.207-4.675-1.81-7.257-.453-1.997-1.006-4.675-1.559-6.526-2.313 3.75-4.073 7.695-5.581 11.786-1.76 4.724-3.118 9.643-4.526 14.514-.251.925-.905 1.705-1.96 1.802-1.56.146-3.018-.633-4.426-1.266-.905-.585-2.011-1.315-2.363-2.338-.05-.341.553-.78.855-.536.352.244.704.536 1.156.828.453.292.905.584 1.358.828.905.39 1.86.633 2.916.828.352-.097.704-.34.855-.682 1.509-5.552 3.067-11.056 5.18-16.364 1.508-3.848 3.318-7.647 5.631-11.202-.1-.39-.704-.585-1.006-.877-.452-.487.05-1.023.554-1.217.754-.244 1.307.194 1.71.73.854 1.12 1.457 2.922 1.76 4.189.502 1.85.703 3.799 1.206 5.65 1.006 3.798 1.961 7.646 3.168 11.396 1.056 3.263 2.262 6.478 3.872 9.546.2.292-.151.536-.503.487zM39.5 36.44c-2.514-.098-4.827-1.218-6.285-3.312-1.207-1.754-1.509-3.8-1.257-5.796a12.647 12.647 0 0 1 2.564-6.04c1.459-1.85 3.52-3.311 5.884-3.75 1.609-.292 3.318-.146 4.525 1.12.553.585 1.056 1.218 1.056 1.998.05.828-.352 1.558-1.056 2.094-3.52 2.825-7.24 5.455-11.062 7.598.1 1.51 1.458 3.068 2.916 3.847 1.458.78 3.168.877 4.777.682 1.61-.146 3.268-.682 4.425-1.218.201-.146.352 0 .402.147.05.097.151.292-.05.438-1.76 1.559-4.274 2.289-6.839 2.192zm2.213-17.388c-1.458 0-2.917.585-4.073 1.462-2.464 1.948-3.922 5.065-3.922 8.084 3.57-1.9 6.939-4.383 10.207-6.964.252-.195.453-.926.1-1.51-.401-.78-1.306-1.072-2.312-1.072zM70.881 36.147c-.653-.681-1.106-1.51-1.207-2.483-2.061 1.022-4.073 1.801-6.436 1.85-.905 0-1.86-.097-2.514-.779-.603-.633-.704-1.412-.855-2.192-1.961 1.51-4.023 2.922-6.386 3.41-1.307.292-2.313.34-3.168-.877-.704-.974-1.005-3.458-1.106-4.676-.302-4.286.251-8.523 1.307-12.322.101-.34.403-.779.654-.779.352 0 .754.195.905.585 0 .73-.1 1.412-.251 2.045a14.26 14.26 0 0 0-.453 1.997c-.251 1.802-.553 3.653-.553 5.503 0 2.24.201 4.433.805 6.527.251.633 1.056.633 1.71.438 2.312-.584 4.374-1.948 6.234-3.604-.251-3.653-.2-7.89.805-11.104.1-.195.453-.293.804-.195.202.097.554.292.554.584-.302 2.435-.654 5.065-.604 7.598 0 1.948.252 3.896.754 5.65.101.438.704.633 1.308.633 2.011-.098 4.626-.78 6.335-1.802-.553-4.822-.15-9.887.805-14.417.352-.34.905-.34 1.157 0 .352.341.251.877.2 1.315v.39c-.854 5.698-.904 10.958.051 16.657-.15.34-.553.243-.855.048zM91.625 36.342c-2.414-1.315-4.878-2.24-7.442-3.117-2.515-.877-4.928-1.753-7.342-2.776-.05 1.753.201 3.555.654 5.163.15.292.05.828-.402.828-.403 0-.654-.244-.805-.487-.15-.195-.251-.488-.402-.731-.553-1.753-.754-3.653-.754-5.6-.151-.098-.352-.244-.453-.488-.15-.146-.201-.438-.05-.682.201-.146.402-.438.452-.633.101-.633.05-2.094.201-2.727.202-1.12.503-2.484.805-3.848.352-1.364.855-2.727 1.509-3.896.301-.487 1.055-.39 1.206.146-.05.633-.251 1.218-.452 1.802-.151.536-.453 1.12-.604 1.704a21.693 21.693 0 0 0-.854 5.407 89.439 89.439 0 0 1 5.48-4.384c2.314-1.656 4.777-3.068 7.392-4.09.402 0 .905 0 1.207.243.302.195.302.487.15.828-2.664 1.071-5.078 2.484-7.542 4.14a63.556 63.556 0 0 0-6.788 5.454v.049c2.464 1.315 5.18 2.192 7.794 3.068 2.313.78 4.526 1.656 6.637 2.971.453.244.805.585 1.056 1.023.05.292-.352.682-.653.633zM109.815 36.39c-1.056-1.168-1.357-2.727-1.609-4.236-.502-3.507-.402-7.257-.502-10.91-3.068 4.237-5.481 8.523-8.398 13.345-.302.34-.452.584-.955.78-.453 0-.855-.05-1.207-.537-2.414-4.334-2.866-9.643-2.514-14.903 0-.34.1-.925.503-1.071.653-.195 1.156.34 1.156.73-.302 4.87.252 9.497 1.911 13.686 1.76-2.922 3.168-5.358 4.676-7.744 1.559-2.484 3.218-4.87 5.33-7.598.403-.292.956-.097 1.157.292.151 4.676.1 9.254.503 13.735.1 1.461.452 2.873.553 4.237 0 .195-.453.39-.604.195zM142.912 36.39c-1.056-1.168-1.358-2.727-1.609-4.236-.503-3.507-.402-7.257-.503-10.91-3.067 4.237-5.481 8.523-8.397 13.345-.302.34-.453.584-.955.78-.453 0-.855-.05-1.207-.537-2.414-4.334-2.866-9.643-2.514-14.903 0-.34.1-.925.502-1.071.654-.195 1.157.34 1.157.73-.302 4.87.251 9.497 1.911 13.686 1.76-2.922 3.168-5.358 4.676-7.744 1.559-2.484 3.218-4.87 5.33-7.598.402-.292.955-.097 1.157.292.15 4.676.1 9.254.502 13.735.101 1.461.453 2.873.554 4.237 0 .195-.453.39-.604.195zM176.16 35.563c-2.464.633-4.828.633-7.241-.195-2.464-.877-4.576-2.63-6.185-4.919-1.358-1.948-2.112-4.237-2.313-6.624-.302-3.652.654-7.549 2.514-10.568 1.76-2.923 4.274-5.747 7.341-7.5 2.314-1.364 5.029-2.095 7.845-1.657 2.413.39 4.978 1.997 5.933 4.384.101.535-.05 1.022-.503 1.412-.503 0-.704-.292-.855-.682l-.15-.243c-1.006-2.143-3.269-3.36-5.532-3.458a11.127 11.127 0 0 0-5.581 1.363c-3.57 1.997-6.436 5.699-7.995 9.06-1.157 2.434-1.559 5.21-1.257 7.938.302 2.728 1.307 5.358 3.319 7.257 1.609 1.558 3.871 2.825 5.933 3.117 2.514.34 3.922.049 5.833-.633 2.916-1.072 5.531-3.02 8.096-4.968.201-.097.502 0 .653.146.151.098.352.341.151.585-2.866 2.873-6.386 5.21-10.006 6.185zM197.772 35.125c-1.509.974-3.369 1.753-5.23 1.753-1.056 0-1.81-.438-2.514-1.413-.251.195-.704.341-.905.05-.905-1.218-1.157-2.923-1.207-4.579-.1-4.237-.05-7.354 1.106-11.153.101-.39 1.056-1.12 1.76-.925.302-.78 1.107-1.608 2.062-1.705 2.564 0 5.33 1.315 6.185 3.799.251.78.251 1.607-.051 2.386a4.404 4.404 0 0 1-1.458 1.851l-.301.244c1.257.39 2.665 1.169 3.469 2.386.604.925.654 2.046.402 3.117-.452 1.753-1.76 3.166-3.318 4.189zm1.408-6.478c-.403-.73-1.509-1.169-2.313-1.558-.956-.585-1.811-.341-2.766-.147l-1.509.341a3.385 3.385 0 0 1-1.709 0c-.252-.146-.553-.633-.302-.876.604-.585 1.358-.877 2.213-1.072l2.313-.243c.905-.487 1.86-1.461 2.262-2.387.252-.78.101-1.315-.402-1.948-.905-1.218-2.363-1.753-3.821-1.9-.453-.048-.604.05-.704.341-.151.39-.252.828-.503 1.17-.101.243-.453.34-.704.194a.985.985 0 0 1-.453-.243c-.603 2.094-.955 4.48-1.056 6.964-.1 2.338 0 4.627.352 6.77.403-.438.905-1.071 1.157-1.412.352-.341 1.006.195.905.535-.101.244-.302.536-.453.78-.1.292-.251.535-.251.73.302.439 1.006.585 1.86.487 1.258-.195 2.766-.876 3.872-1.704 1.006-.78 1.861-1.754 2.112-2.971.151-.585.252-1.267-.1-1.851zM210.975 36.44c-2.515-.098-4.828-1.218-6.286-3.312-1.207-1.754-1.508-3.8-1.257-5.796a12.644 12.644 0 0 1 2.565-6.04c1.458-1.85 3.519-3.311 5.883-3.75 1.609-.292 3.318-.146 4.525 1.12.553.585 1.056 1.218 1.056 1.998.05.828-.352 1.558-1.056 2.094-3.52 2.825-7.241 5.455-11.062 7.598.1 1.51 1.458 3.068 2.916 3.847 1.459.78 3.168.877 4.777.682 1.609-.146 3.269-.682 4.425-1.218.201-.146.352 0 .402.147.051.097.151.292-.05.438-1.76 1.559-4.274 2.289-6.838 2.192zm2.212-17.388c-1.458 0-2.916.585-4.073 1.462-2.464 1.948-3.922 5.065-3.922 8.084 3.57-1.9 6.939-4.383 10.208-6.964.251-.195.452-.926.1-1.51-.402-.78-1.307-1.072-2.313-1.072zM235.215 19.637c-1.307-.292-2.615-.585-3.972-.633-1.106 1.363-1.66 2.97-1.961 4.675-.352 1.754-.302 3.604-.403 5.406-.1 2.435.101 4.773.403 7.062-.151.293-.604.487-.956.293-.855-1.023-1.056-2.338-1.106-3.653-.05-2.922-.101-5.99.352-8.864.302-1.851.855-3.556 2.011-5.114-3.117-.146-5.983.487-8.849 1.266a1.593 1.593 0 0 1-1.107-.682c-.1-.34.101-.535.302-.633l.302-.097.251-.098c2.112-.828 4.676-1.266 7.14-1.315 2.515-.097 5.029.146 7.241.926.252.097.704.438.855.73.05.341-.201.78-.503.73zM254.555 36.342c-2.414-1.315-4.878-2.24-7.442-3.117-2.515-.877-4.928-1.753-7.342-2.776-.05 1.753.201 3.555.654 5.163.151.292.05.828-.402.828-.403 0-.654-.244-.805-.487-.151-.195-.251-.488-.402-.731-.553-1.753-.754-3.653-.754-5.6-.151-.098-.352-.244-.453-.488-.151-.146-.201-.438-.05-.682.201-.146.402-.438.452-.633.101-.633.051-2.094.201-2.727.202-1.12.503-2.484.805-3.848.352-1.364.855-2.727 1.509-3.896.301-.487 1.055-.39 1.206.146-.05.633-.251 1.218-.452 1.802-.151.536-.453 1.12-.604 1.704a21.716 21.716 0 0 0-.854 5.407 89.515 89.515 0 0 1 5.48-4.384c2.313-1.656 4.777-3.068 7.392-4.09.402 0 .905 0 1.207.243.302.195.302.487.151.828-2.665 1.071-5.079 2.484-7.543 4.14a63.533 63.533 0 0 0-6.788 5.454v.049c2.464 1.315 5.179 2.192 7.794 3.068 2.313.78 4.525 1.656 6.637 2.971a2.62 2.62 0 0 1 1.056 1.023c.051.292-.352.682-.653.633zM272.745 36.39c-1.056-1.168-1.357-2.727-1.609-4.236-.503-3.507-.402-7.257-.502-10.91-3.068 4.237-5.481 8.523-8.398 13.345-.302.34-.452.584-.955.78-.453 0-.855-.05-1.207-.537-2.414-4.334-2.866-9.643-2.514-14.903 0-.34.1-.925.503-1.071.653-.195 1.156.34 1.156.73-.302 4.87.252 9.497 1.911 13.686 1.76-2.922 3.168-5.358 4.676-7.744 1.559-2.484 3.218-4.87 5.33-7.598.403-.292.956-.097 1.157.292.151 4.676.1 9.254.503 13.735.1 1.461.452 2.873.553 4.237 0 .195-.453.39-.604.195zM282.796 6.243l-.352 1.51c-.553 2.29-.603 4.676-.603 7.062-.051 3.507.201 7.062.553 10.423-.101.487-.151 1.023-.754 1.12-.604-.682-.755-1.461-.855-2.192-.402-3.555-.654-7.208-.553-10.812.1-2.825.452-5.65 1.156-8.377.101-.195.252-.73.754-.828.302-.049.805.049.956.487a8.999 8.999 0 0 1-.302 1.607zm1.458 30.781c-1.76-.536-3.017-2.338-3.469-3.896-.05-.536.1-.926.553-1.17.503-.096.855.342.955.634.151.536.403.974.704 1.461.604.828 1.257 1.559 1.861 2.387.05.34-.352.633-.604.584zM310.635 21.098c-.352.584-1.056.78-1.659.633-.352-.097-.755-.438-.905-.877-.352-1.217-.201-2.63.653-3.604.302-.39.905-.73 1.509-.584.553.146.804.682.955 1.12.302 1.12-.1 2.435-.553 3.312zm-.452 15.098c-.554.244-1.308.146-1.66-.34-.503-.683-.603-1.56-.352-2.339.302-.828.754-1.899 1.609-2.289.654-.34 1.308 0 1.609.585.503.828.201 1.9.101 2.776-.252.584-.654 1.266-1.307 1.607zM326.189 34.589c-2.012 3.02-4.727 5.503-7.543 6.965-.503.243-1.056-.585-.603-.926 1.006-.828 2.765-2.338 3.922-3.604 1.911-2.046 3.268-4.335 4.375-6.916 1.257-2.873 1.91-6.429 1.609-9.887-.352-3.555-1.358-6.818-3.218-9.74-1.811-2.777-4.023-5.26-6.336-7.5-.302-.293-.302-.829-.05-1.072.201-.195.653-.536 1.156-.098 2.565 2.143 4.978 4.822 6.788 7.842 1.358 2.191 2.464 4.578 3.068 7.11.754 2.971.854 6.478.251 9.741-.553 2.825-1.76 5.601-3.419 8.085z"/></mask><path d="M29.715 36.39c-1.458-.34-2.112-1.898-2.665-3.116a68.677 68.677 0 0 1-3.822-11.202c-.452-1.753-1.207-4.675-1.81-7.257-.453-1.997-1.006-4.675-1.559-6.526-2.313 3.75-4.073 7.695-5.581 11.786-1.76 4.724-3.118 9.643-4.526 14.514-.251.925-.905 1.705-1.96 1.802-1.56.146-3.018-.633-4.426-1.266-.905-.585-2.011-1.315-2.363-2.338-.05-.341.553-.78.855-.536.352.244.704.536 1.156.828.453.292.905.584 1.358.828.905.39 1.86.633 2.916.828.352-.097.704-.34.855-.682 1.509-5.552 3.067-11.056 5.18-16.364 1.508-3.848 3.318-7.647 5.631-11.202-.1-.39-.704-.585-1.006-.877-.452-.487.05-1.023.554-1.217.754-.244 1.307.194 1.71.73.854 1.12 1.457 2.922 1.76 4.189.502 1.85.703 3.799 1.206 5.65 1.006 3.798 1.961 7.646 3.168 11.396 1.056 3.263 2.262 6.478 3.872 9.546.2.292-.151.536-.503.487zM39.5 36.44c-2.514-.098-4.827-1.218-6.285-3.312-1.207-1.754-1.509-3.8-1.257-5.796a12.647 12.647 0 0 1 2.564-6.04c1.459-1.85 3.52-3.311 5.884-3.75 1.609-.292 3.318-.146 4.525 1.12.553.585 1.056 1.218 1.056 1.998.05.828-.352 1.558-1.056 2.094-3.52 2.825-7.24 5.455-11.062 7.598.1 1.51 1.458 3.068 2.916 3.847 1.458.78 3.168.877 4.777.682 1.61-.146 3.268-.682 4.425-1.218.201-.146.352 0 .402.147.05.097.151.292-.05.438-1.76 1.559-4.274 2.289-6.839 2.192zm2.213-17.388c-1.458 0-2.917.585-4.073 1.462-2.464 1.948-3.922 5.065-3.922 8.084 3.57-1.9 6.939-4.383 10.207-6.964.252-.195.453-.926.1-1.51-.401-.78-1.306-1.072-2.312-1.072zM70.881 36.147c-.653-.681-1.106-1.51-1.207-2.483-2.061 1.022-4.073 1.801-6.436 1.85-.905 0-1.86-.097-2.514-.779-.603-.633-.704-1.412-.855-2.192-1.961 1.51-4.023 2.922-6.386 3.41-1.307.292-2.313.34-3.168-.877-.704-.974-1.005-3.458-1.106-4.676-.302-4.286.251-8.523 1.307-12.322.101-.34.403-.779.654-.779.352 0 .754.195.905.585 0 .73-.1 1.412-.251 2.045a14.26 14.26 0 0 0-.453 1.997c-.251 1.802-.553 3.653-.553 5.503 0 2.24.201 4.433.805 6.527.251.633 1.056.633 1.71.438 2.312-.584 4.374-1.948 6.234-3.604-.251-3.653-.2-7.89.805-11.104.1-.195.453-.293.804-.195.202.097.554.292.554.584-.302 2.435-.654 5.065-.604 7.598 0 1.948.252 3.896.754 5.65.101.438.704.633 1.308.633 2.011-.098 4.626-.78 6.335-1.802-.553-4.822-.15-9.887.805-14.417.352-.34.905-.34 1.157 0 .352.341.251.877.2 1.315v.39c-.854 5.698-.904 10.958.051 16.657-.15.34-.553.243-.855.048zM91.625 36.342c-2.414-1.315-4.878-2.24-7.442-3.117-2.515-.877-4.928-1.753-7.342-2.776-.05 1.753.201 3.555.654 5.163.15.292.05.828-.402.828-.403 0-.654-.244-.805-.487-.15-.195-.251-.488-.402-.731-.553-1.753-.754-3.653-.754-5.6-.151-.098-.352-.244-.453-.488-.15-.146-.201-.438-.05-.682.201-.146.402-.438.452-.633.101-.633.05-2.094.201-2.727.202-1.12.503-2.484.805-3.848.352-1.364.855-2.727 1.509-3.896.301-.487 1.055-.39 1.206.146-.05.633-.251 1.218-.452 1.802-.151.536-.453 1.12-.604 1.704a21.693 21.693 0 0 0-.854 5.407 89.439 89.439 0 0 1 5.48-4.384c2.314-1.656 4.777-3.068 7.392-4.09.402 0 .905 0 1.207.243.302.195.302.487.15.828-2.664 1.071-5.078 2.484-7.542 4.14a63.556 63.556 0 0 0-6.788 5.454v.049c2.464 1.315 5.18 2.192 7.794 3.068 2.313.78 4.526 1.656 6.637 2.971.453.244.805.585 1.056 1.023.05.292-.352.682-.653.633zM109.815 36.39c-1.056-1.168-1.357-2.727-1.609-4.236-.502-3.507-.402-7.257-.502-10.91-3.068 4.237-5.481 8.523-8.398 13.345-.302.34-.452.584-.955.78-.453 0-.855-.05-1.207-.537-2.414-4.334-2.866-9.643-2.514-14.903 0-.34.1-.925.503-1.071.653-.195 1.156.34 1.156.73-.302 4.87.252 9.497 1.911 13.686 1.76-2.922 3.168-5.358 4.676-7.744 1.559-2.484 3.218-4.87 5.33-7.598.403-.292.956-.097 1.157.292.151 4.676.1 9.254.503 13.735.1 1.461.452 2.873.553 4.237 0 .195-.453.39-.604.195zM142.912 36.39c-1.056-1.168-1.358-2.727-1.609-4.236-.503-3.507-.402-7.257-.503-10.91-3.067 4.237-5.481 8.523-8.397 13.345-.302.34-.453.584-.955.78-.453 0-.855-.05-1.207-.537-2.414-4.334-2.866-9.643-2.514-14.903 0-.34.1-.925.502-1.071.654-.195 1.157.34 1.157.73-.302 4.87.251 9.497 1.911 13.686 1.76-2.922 3.168-5.358 4.676-7.744 1.559-2.484 3.218-4.87 5.33-7.598.402-.292.955-.097 1.157.292.15 4.676.1 9.254.502 13.735.101 1.461.453 2.873.554 4.237 0 .195-.453.39-.604.195zM176.16 35.563c-2.464.633-4.828.633-7.241-.195-2.464-.877-4.576-2.63-6.185-4.919-1.358-1.948-2.112-4.237-2.313-6.624-.302-3.652.654-7.549 2.514-10.568 1.76-2.923 4.274-5.747 7.341-7.5 2.314-1.364 5.029-2.095 7.845-1.657 2.413.39 4.978 1.997 5.933 4.384.101.535-.05 1.022-.503 1.412-.503 0-.704-.292-.855-.682l-.15-.243c-1.006-2.143-3.269-3.36-5.532-3.458a11.127 11.127 0 0 0-5.581 1.363c-3.57 1.997-6.436 5.699-7.995 9.06-1.157 2.434-1.559 5.21-1.257 7.938.302 2.728 1.307 5.358 3.319 7.257 1.609 1.558 3.871 2.825 5.933 3.117 2.514.34 3.922.049 5.833-.633 2.916-1.072 5.531-3.02 8.096-4.968.201-.097.502 0 .653.146.151.098.352.341.151.585-2.866 2.873-6.386 5.21-10.006 6.185zM197.772 35.125c-1.509.974-3.369 1.753-5.23 1.753-1.056 0-1.81-.438-2.514-1.413-.251.195-.704.341-.905.05-.905-1.218-1.157-2.923-1.207-4.579-.1-4.237-.05-7.354 1.106-11.153.101-.39 1.056-1.12 1.76-.925.302-.78 1.107-1.608 2.062-1.705 2.564 0 5.33 1.315 6.185 3.799.251.78.251 1.607-.051 2.386a4.404 4.404 0 0 1-1.458 1.851l-.301.244c1.257.39 2.665 1.169 3.469 2.386.604.925.654 2.046.402 3.117-.452 1.753-1.76 3.166-3.318 4.189zm1.408-6.478c-.403-.73-1.509-1.169-2.313-1.558-.956-.585-1.811-.341-2.766-.147l-1.509.341a3.385 3.385 0 0 1-1.709 0c-.252-.146-.553-.633-.302-.876.604-.585 1.358-.877 2.213-1.072l2.313-.243c.905-.487 1.86-1.461 2.262-2.387.252-.78.101-1.315-.402-1.948-.905-1.218-2.363-1.753-3.821-1.9-.453-.048-.604.05-.704.341-.151.39-.252.828-.503 1.17-.101.243-.453.34-.704.194a.985.985 0 0 1-.453-.243c-.603 2.094-.955 4.48-1.056 6.964-.1 2.338 0 4.627.352 6.77.403-.438.905-1.071 1.157-1.412.352-.341 1.006.195.905.535-.101.244-.302.536-.453.78-.1.292-.251.535-.251.73.302.439 1.006.585 1.86.487 1.258-.195 2.766-.876 3.872-1.704 1.006-.78 1.861-1.754 2.112-2.971.151-.585.252-1.267-.1-1.851zM210.975 36.44c-2.515-.098-4.828-1.218-6.286-3.312-1.207-1.754-1.508-3.8-1.257-5.796a12.644 12.644 0 0 1 2.565-6.04c1.458-1.85 3.519-3.311 5.883-3.75 1.609-.292 3.318-.146 4.525 1.12.553.585 1.056 1.218 1.056 1.998.05.828-.352 1.558-1.056 2.094-3.52 2.825-7.241 5.455-11.062 7.598.1 1.51 1.458 3.068 2.916 3.847 1.459.78 3.168.877 4.777.682 1.609-.146 3.269-.682 4.425-1.218.201-.146.352 0 .402.147.051.097.151.292-.05.438-1.76 1.559-4.274 2.289-6.838 2.192zm2.212-17.388c-1.458 0-2.916.585-4.073 1.462-2.464 1.948-3.922 5.065-3.922 8.084 3.57-1.9 6.939-4.383 10.208-6.964.251-.195.452-.926.1-1.51-.402-.78-1.307-1.072-2.313-1.072zM235.215 19.637c-1.307-.292-2.615-.585-3.972-.633-1.106 1.363-1.66 2.97-1.961 4.675-.352 1.754-.302 3.604-.403 5.406-.1 2.435.101 4.773.403 7.062-.151.293-.604.487-.956.293-.855-1.023-1.056-2.338-1.106-3.653-.05-2.922-.101-5.99.352-8.864.302-1.851.855-3.556 2.011-5.114-3.117-.146-5.983.487-8.849 1.266a1.593 1.593 0 0 1-1.107-.682c-.1-.34.101-.535.302-.633l.302-.097.251-.098c2.112-.828 4.676-1.266 7.14-1.315 2.515-.097 5.029.146 7.241.926.252.097.704.438.855.73.05.341-.201.78-.503.73zM254.555 36.342c-2.414-1.315-4.878-2.24-7.442-3.117-2.515-.877-4.928-1.753-7.342-2.776-.05 1.753.201 3.555.654 5.163.151.292.05.828-.402.828-.403 0-.654-.244-.805-.487-.151-.195-.251-.488-.402-.731-.553-1.753-.754-3.653-.754-5.6-.151-.098-.352-.244-.453-.488-.151-.146-.201-.438-.05-.682.201-.146.402-.438.452-.633.101-.633.051-2.094.201-2.727.202-1.12.503-2.484.805-3.848.352-1.364.855-2.727 1.509-3.896.301-.487 1.055-.39 1.206.146-.05.633-.251 1.218-.452 1.802-.151.536-.453 1.12-.604 1.704a21.716 21.716 0 0 0-.854 5.407 89.515 89.515 0 0 1 5.48-4.384c2.313-1.656 4.777-3.068 7.392-4.09.402 0 .905 0 1.207.243.302.195.302.487.151.828-2.665 1.071-5.079 2.484-7.543 4.14a63.533 63.533 0 0 0-6.788 5.454v.049c2.464 1.315 5.179 2.192 7.794 3.068 2.313.78 4.525 1.656 6.637 2.971a2.62 2.62 0 0 1 1.056 1.023c.051.292-.352.682-.653.633zM272.745 36.39c-1.056-1.168-1.357-2.727-1.609-4.236-.503-3.507-.402-7.257-.502-10.91-3.068 4.237-5.481 8.523-8.398 13.345-.302.34-.452.584-.955.78-.453 0-.855-.05-1.207-.537-2.414-4.334-2.866-9.643-2.514-14.903 0-.34.1-.925.503-1.071.653-.195 1.156.34 1.156.73-.302 4.87.252 9.497 1.911 13.686 1.76-2.922 3.168-5.358 4.676-7.744 1.559-2.484 3.218-4.87 5.33-7.598.403-.292.956-.097 1.157.292.151 4.676.1 9.254.503 13.735.1 1.461.452 2.873.553 4.237 0 .195-.453.39-.604.195zM282.796 6.243l-.352 1.51c-.553 2.29-.603 4.676-.603 7.062-.051 3.507.201 7.062.553 10.423-.101.487-.151 1.023-.754 1.12-.604-.682-.755-1.461-.855-2.192-.402-3.555-.654-7.208-.553-10.812.1-2.825.452-5.65 1.156-8.377.101-.195.252-.73.754-.828.302-.049.805.049.956.487a8.999 8.999 0 0 1-.302 1.607zm1.458 30.781c-1.76-.536-3.017-2.338-3.469-3.896-.05-.536.1-.926.553-1.17.503-.096.855.342.955.634.151.536.403.974.704 1.461.604.828 1.257 1.559 1.861 2.387.05.34-.352.633-.604.584zM310.635 21.098c-.352.584-1.056.78-1.659.633-.352-.097-.755-.438-.905-.877-.352-1.217-.201-2.63.653-3.604.302-.39.905-.73 1.509-.584.553.146.804.682.955 1.12.302 1.12-.1 2.435-.553 3.312zm-.452 15.098c-.554.244-1.308.146-1.66-.34-.503-.683-.603-1.56-.352-2.339.302-.828.754-1.899 1.609-2.289.654-.34 1.308 0 1.609.585.503.828.201 1.9.101 2.776-.252.584-.654 1.266-1.307 1.607zM326.189 34.589c-2.012 3.02-4.727 5.503-7.543 6.965-.503.243-1.056-.585-.603-.926 1.006-.828 2.765-2.338 3.922-3.604 1.911-2.046 3.268-4.335 4.375-6.916 1.257-2.873 1.91-6.429 1.609-9.887-.352-3.555-1.358-6.818-3.218-9.74-1.811-2.777-4.023-5.26-6.336-7.5-.302-.293-.302-.829-.05-1.072.201-.195.653-.536 1.156-.098 2.565 2.143 4.978 4.822 6.788 7.842 1.358 2.191 2.464 4.578 3.068 7.11.754 2.971.854 6.478.251 9.741-.553 2.825-1.76 5.601-3.419 8.085z" fill="#F8F5F0"/><path d="M29.715 36.39c-1.458-.34-2.112-1.898-2.665-3.116a68.677 68.677 0 0 1-3.822-11.202c-.452-1.753-1.207-4.675-1.81-7.257-.453-1.997-1.006-4.675-1.559-6.526-2.313 3.75-4.073 7.695-5.581 11.786-1.76 4.724-3.118 9.643-4.526 14.514-.251.925-.905 1.705-1.96 1.802-1.56.146-3.018-.633-4.426-1.266-.905-.585-2.011-1.315-2.363-2.338-.05-.341.553-.78.855-.536.352.244.704.536 1.156.828.453.292.905.584 1.358.828.905.39 1.86.633 2.916.828.352-.097.704-.34.855-.682 1.509-5.552 3.067-11.056 5.18-16.364 1.508-3.848 3.318-7.647 5.631-11.202-.1-.39-.704-.585-1.006-.877-.452-.487.05-1.023.554-1.217.754-.244 1.307.194 1.71.73.854 1.12 1.457 2.922 1.76 4.189.502 1.85.703 3.799 1.206 5.65 1.006 3.798 1.961 7.646 3.168 11.396 1.056 3.263 2.262 6.478 3.872 9.546.2.292-.151.536-.503.487zM39.5 36.44c-2.514-.098-4.827-1.218-6.285-3.312-1.207-1.754-1.509-3.8-1.257-5.796a12.647 12.647 0 0 1 2.564-6.04c1.459-1.85 3.52-3.311 5.884-3.75 1.609-.292 3.318-.146 4.525 1.12.553.585 1.056 1.218 1.056 1.998.05.828-.352 1.558-1.056 2.094-3.52 2.825-7.24 5.455-11.062 7.598.1 1.51 1.458 3.068 2.916 3.847 1.458.78 3.168.877 4.777.682 1.61-.146 3.268-.682 4.425-1.218.201-.146.352 0 .402.147.05.097.151.292-.05.438-1.76 1.559-4.274 2.289-6.839 2.192zm2.213-17.388c-1.458 0-2.917.585-4.073 1.462-2.464 1.948-3.922 5.065-3.922 8.084 3.57-1.9 6.939-4.383 10.207-6.964.252-.195.453-.926.1-1.51-.401-.78-1.306-1.072-2.312-1.072zM70.881 36.147c-.653-.681-1.106-1.51-1.207-2.483-2.061 1.022-4.073 1.801-6.436 1.85-.905 0-1.86-.097-2.514-.779-.603-.633-.704-1.412-.855-2.192-1.961 1.51-4.023 2.922-6.386 3.41-1.307.292-2.313.34-3.168-.877-.704-.974-1.005-3.458-1.106-4.676-.302-4.286.251-8.523 1.307-12.322.101-.34.403-.779.654-.779.352 0 .754.195.905.585 0 .73-.1 1.412-.251 2.045a14.26 14.26 0 0 0-.453 1.997c-.251 1.802-.553 3.653-.553 5.503 0 2.24.201 4.433.805 6.527.251.633 1.056.633 1.71.438 2.312-.584 4.374-1.948 6.234-3.604-.251-3.653-.2-7.89.805-11.104.1-.195.453-.293.804-.195.202.097.554.292.554.584-.302 2.435-.654 5.065-.604 7.598 0 1.948.252 3.896.754 5.65.101.438.704.633 1.308.633 2.011-.098 4.626-.78 6.335-1.802-.553-4.822-.15-9.887.805-14.417.352-.34.905-.34 1.157 0 .352.341.251.877.2 1.315v.39c-.854 5.698-.904 10.958.051 16.657-.15.34-.553.243-.855.048zM91.625 36.342c-2.414-1.315-4.878-2.24-7.442-3.117-2.515-.877-4.928-1.753-7.342-2.776-.05 1.753.201 3.555.654 5.163.15.292.05.828-.402.828-.403 0-.654-.244-.805-.487-.15-.195-.251-.488-.402-.731-.553-1.753-.754-3.653-.754-5.6-.151-.098-.352-.244-.453-.488-.15-.146-.201-.438-.05-.682.201-.146.402-.438.452-.633.101-.633.05-2.094.201-2.727.202-1.12.503-2.484.805-3.848.352-1.364.855-2.727 1.509-3.896.301-.487 1.055-.39 1.206.146-.05.633-.251 1.218-.452 1.802-.151.536-.453 1.12-.604 1.704a21.693 21.693 0 0 0-.854 5.407 89.439 89.439 0 0 1 5.48-4.384c2.314-1.656 4.777-3.068 7.392-4.09.402 0 .905 0 1.207.243.302.195.302.487.15.828-2.664 1.071-5.078 2.484-7.542 4.14a63.556 63.556 0 0 0-6.788 5.454v.049c2.464 1.315 5.18 2.192 7.794 3.068 2.313.78 4.526 1.656 6.637 2.971.453.244.805.585 1.056 1.023.05.292-.352.682-.653.633zM109.815 36.39c-1.056-1.168-1.357-2.727-1.609-4.236-.502-3.507-.402-7.257-.502-10.91-3.068 4.237-5.481 8.523-8.398 13.345-.302.34-.452.584-.955.78-.453 0-.855-.05-1.207-.537-2.414-4.334-2.866-9.643-2.514-14.903 0-.34.1-.925.503-1.071.653-.195 1.156.34 1.156.73-.302 4.87.252 9.497 1.911 13.686 1.76-2.922 3.168-5.358 4.676-7.744 1.559-2.484 3.218-4.87 5.33-7.598.403-.292.956-.097 1.157.292.151 4.676.1 9.254.503 13.735.1 1.461.452 2.873.553 4.237 0 .195-.453.39-.604.195zM142.912 36.39c-1.056-1.168-1.358-2.727-1.609-4.236-.503-3.507-.402-7.257-.503-10.91-3.067 4.237-5.481 8.523-8.397 13.345-.302.34-.453.584-.955.78-.453 0-.855-.05-1.207-.537-2.414-4.334-2.866-9.643-2.514-14.903 0-.34.1-.925.502-1.071.654-.195 1.157.34 1.157.73-.302 4.87.251 9.497 1.911 13.686 1.76-2.922 3.168-5.358 4.676-7.744 1.559-2.484 3.218-4.87 5.33-7.598.402-.292.955-.097 1.157.292.15 4.676.1 9.254.502 13.735.101 1.461.453 2.873.554 4.237 0 .195-.453.39-.604.195zM176.16 35.563c-2.464.633-4.828.633-7.241-.195-2.464-.877-4.576-2.63-6.185-4.919-1.358-1.948-2.112-4.237-2.313-6.624-.302-3.652.654-7.549 2.514-10.568 1.76-2.923 4.274-5.747 7.341-7.5 2.314-1.364 5.029-2.095 7.845-1.657 2.413.39 4.978 1.997 5.933 4.384.101.535-.05 1.022-.503 1.412-.503 0-.704-.292-.855-.682l-.15-.243c-1.006-2.143-3.269-3.36-5.532-3.458a11.127 11.127 0 0 0-5.581 1.363c-3.57 1.997-6.436 5.699-7.995 9.06-1.157 2.434-1.559 5.21-1.257 7.938.302 2.728 1.307 5.358 3.319 7.257 1.609 1.558 3.871 2.825 5.933 3.117 2.514.34 3.922.049 5.833-.633 2.916-1.072 5.531-3.02 8.096-4.968.201-.097.502 0 .653.146.151.098.352.341.151.585-2.866 2.873-6.386 5.21-10.006 6.185zM197.772 35.125c-1.509.974-3.369 1.753-5.23 1.753-1.056 0-1.81-.438-2.514-1.413-.251.195-.704.341-.905.05-.905-1.218-1.157-2.923-1.207-4.579-.1-4.237-.05-7.354 1.106-11.153.101-.39 1.056-1.12 1.76-.925.302-.78 1.107-1.608 2.062-1.705 2.564 0 5.33 1.315 6.185 3.799.251.78.251 1.607-.051 2.386a4.404 4.404 0 0 1-1.458 1.851l-.301.244c1.257.39 2.665 1.169 3.469 2.386.604.925.654 2.046.402 3.117-.452 1.753-1.76 3.166-3.318 4.189zm1.408-6.478c-.403-.73-1.509-1.169-2.313-1.558-.956-.585-1.811-.341-2.766-.147l-1.509.341a3.385 3.385 0 0 1-1.709 0c-.252-.146-.553-.633-.302-.876.604-.585 1.358-.877 2.213-1.072l2.313-.243c.905-.487 1.86-1.461 2.262-2.387.252-.78.101-1.315-.402-1.948-.905-1.218-2.363-1.753-3.821-1.9-.453-.048-.604.05-.704.341-.151.39-.252.828-.503 1.17-.101.243-.453.34-.704.194a.985.985 0 0 1-.453-.243c-.603 2.094-.955 4.48-1.056 6.964-.1 2.338 0 4.627.352 6.77.403-.438.905-1.071 1.157-1.412.352-.341 1.006.195.905.535-.101.244-.302.536-.453.78-.1.292-.251.535-.251.73.302.439 1.006.585 1.86.487 1.258-.195 2.766-.876 3.872-1.704 1.006-.78 1.861-1.754 2.112-2.971.151-.585.252-1.267-.1-1.851zM210.975 36.44c-2.515-.098-4.828-1.218-6.286-3.312-1.207-1.754-1.508-3.8-1.257-5.796a12.644 12.644 0 0 1 2.565-6.04c1.458-1.85 3.519-3.311 5.883-3.75 1.609-.292 3.318-.146 4.525 1.12.553.585 1.056 1.218 1.056 1.998.05.828-.352 1.558-1.056 2.094-3.52 2.825-7.241 5.455-11.062 7.598.1 1.51 1.458 3.068 2.916 3.847 1.459.78 3.168.877 4.777.682 1.609-.146 3.269-.682 4.425-1.218.201-.146.352 0 .402.147.051.097.151.292-.05.438-1.76 1.559-4.274 2.289-6.838 2.192zm2.212-17.388c-1.458 0-2.916.585-4.073 1.462-2.464 1.948-3.922 5.065-3.922 8.084 3.57-1.9 6.939-4.383 10.208-6.964.251-.195.452-.926.1-1.51-.402-.78-1.307-1.072-2.313-1.072zM235.215 19.637c-1.307-.292-2.615-.585-3.972-.633-1.106 1.363-1.66 2.97-1.961 4.675-.352 1.754-.302 3.604-.403 5.406-.1 2.435.101 4.773.403 7.062-.151.293-.604.487-.956.293-.855-1.023-1.056-2.338-1.106-3.653-.05-2.922-.101-5.99.352-8.864.302-1.851.855-3.556 2.011-5.114-3.117-.146-5.983.487-8.849 1.266a1.593 1.593 0 0 1-1.107-.682c-.1-.34.101-.535.302-.633l.302-.097.251-.098c2.112-.828 4.676-1.266 7.14-1.315 2.515-.097 5.029.146 7.241.926.252.097.704.438.855.73.05.341-.201.78-.503.73zM254.555 36.342c-2.414-1.315-4.878-2.24-7.442-3.117-2.515-.877-4.928-1.753-7.342-2.776-.05 1.753.201 3.555.654 5.163.151.292.05.828-.402.828-.403 0-.654-.244-.805-.487-.151-.195-.251-.488-.402-.731-.553-1.753-.754-3.653-.754-5.6-.151-.098-.352-.244-.453-.488-.151-.146-.201-.438-.05-.682.201-.146.402-.438.452-.633.101-.633.051-2.094.201-2.727.202-1.12.503-2.484.805-3.848.352-1.364.855-2.727 1.509-3.896.301-.487 1.055-.39 1.206.146-.05.633-.251 1.218-.452 1.802-.151.536-.453 1.12-.604 1.704a21.716 21.716 0 0 0-.854 5.407 89.515 89.515 0 0 1 5.48-4.384c2.313-1.656 4.777-3.068 7.392-4.09.402 0 .905 0 1.207.243.302.195.302.487.151.828-2.665 1.071-5.079 2.484-7.543 4.14a63.533 63.533 0 0 0-6.788 5.454v.049c2.464 1.315 5.179 2.192 7.794 3.068 2.313.78 4.525 1.656 6.637 2.971a2.62 2.62 0 0 1 1.056 1.023c.051.292-.352.682-.653.633zM272.745 36.39c-1.056-1.168-1.357-2.727-1.609-4.236-.503-3.507-.402-7.257-.502-10.91-3.068 4.237-5.481 8.523-8.398 13.345-.302.34-.452.584-.955.78-.453 0-.855-.05-1.207-.537-2.414-4.334-2.866-9.643-2.514-14.903 0-.34.1-.925.503-1.071.653-.195 1.156.34 1.156.73-.302 4.87.252 9.497 1.911 13.686 1.76-2.922 3.168-5.358 4.676-7.744 1.559-2.484 3.218-4.87 5.33-7.598.403-.292.956-.097 1.157.292.151 4.676.1 9.254.503 13.735.1 1.461.452 2.873.553 4.237 0 .195-.453.39-.604.195zM282.796 6.243l-.352 1.51c-.553 2.29-.603 4.676-.603 7.062-.051 3.507.201 7.062.553 10.423-.101.487-.151 1.023-.754 1.12-.604-.682-.755-1.461-.855-2.192-.402-3.555-.654-7.208-.553-10.812.1-2.825.452-5.65 1.156-8.377.101-.195.252-.73.754-.828.302-.049.805.049.956.487a8.999 8.999 0 0 1-.302 1.607zm1.458 30.781c-1.76-.536-3.017-2.338-3.469-3.896-.05-.536.1-.926.553-1.17.503-.096.855.342.955.634.151.536.403.974.704 1.461.604.828 1.257 1.559 1.861 2.387.05.34-.352.633-.604.584zM310.635 21.098c-.352.584-1.056.78-1.659.633-.352-.097-.755-.438-.905-.877-.352-1.217-.201-2.63.653-3.604.302-.39.905-.73 1.509-.584.553.146.804.682.955 1.12.302 1.12-.1 2.435-.553 3.312zm-.452 15.098c-.554.244-1.308.146-1.66-.34-.503-.683-.603-1.56-.352-2.339.302-.828.754-1.899 1.609-2.289.654-.34 1.308 0 1.609.585.503.828.201 1.9.101 2.776-.252.584-.654 1.266-1.307 1.607zM326.189 34.589c-2.012 3.02-4.727 5.503-7.543 6.965-.503.243-1.056-.585-.603-.926 1.006-.828 2.765-2.338 3.922-3.604 1.911-2.046 3.268-4.335 4.375-6.916 1.257-2.873 1.91-6.429 1.609-9.887-.352-3.555-1.358-6.818-3.218-9.74-1.811-2.777-4.023-5.26-6.336-7.5-.302-.293-.302-.829-.05-1.072.201-.195.653-.536 1.156-.098 2.565 2.143 4.978 4.822 6.788 7.842 1.358 2.191 2.464 4.578 3.068 7.11.754 2.971.854 6.478.251 9.741-.553 2.825-1.76 5.601-3.419 8.085z" stroke="#F8F5F0" stroke-width="2" mask="url(#a)"/></svg>