<svg width="87" height="171" fill="none" xmlns="http://www.w3.org/2000/svg"><path d="M18.574 3.84c-.238 1.45-.793 3.28-1.289 4.669-.154.43-.305.156-.42.45-.228.584-.264 1.17-.503 1.73-.08.186-.347-.136-.424.062-.424 1.1-.605 2.184-.957 3.299-1.745 5.535-3.3 10.996-4.904 16.602-.527 1.844-1.4 4.03-1.738 5.985-.04.227.28.164.293.212.202.744-.325.395-.506.81-.698 1.607-1.159 3.498-1.358 5.133l-.012.106c-.071.684.621.109.185.73-.03.045-.31-.178-.374.005-.144.418-.194 1.244-.254 1.582-.12.647-.126.755-.182 1.378-.077.85-.289 1.864-.246 2.79.01.198.339-.051.384.26.045.315.005 1.14-.071 1.425-.078.277-.33.158-.387.207-.491.412.195 1.376.215 1.501.325 2.252.056 4.217.246 6.347.147 1.62.474 3.328.671 4.859.234 1.823.319 3.395.682 5.152.038.186.367-.102.414.122.153.725.305 1.448.455 2.176.316 1.552.748 3.105 1.197 4.711.064.23-.357.069-.31.307.284 1.468.73 3.919 2.422 4.064.4.926.923 2.05 1.096 2.985.118.61-.474.276.006.837.108.128.284-.21.426-.008.592.843 1.06 1.89 1.702 2.688.133.165.35-.025.424.001.604.226.42 1.277.47 1.46.363 1.368.996 2.16 1.639 3.267.15.26.3-.237.454.002.8 1.245 1.553 2.57 2.16 3.908.132.293-.297.208-.248.357.218.655.83.485 1.049 1.102.047.13-.23.208-.244.245-.207.581.55.525.617.605.503.596.631 1.201.823 1.83.125.416.272.829.566 1.224.088.118.212-.347.44-.007a133.505 133.505 0 0 1 4.445 7.066c.213.363-.176.279-.187.319-.157.645.565.474.667.568.796.758.97 1.915 2.061 1.99 2.627 3.787 6.012 6.863 8.747 10.578.036.048-.275.212-.201.306.873 1.12 1.04.552 2.15.733.275.043.258 1.086.269 1.172.025.309-.49.509-.462.591.254.67 1.29-.617 1.924-.031.018.02-.271.167-.239.238.1.221.344.281.433.504.201.512-.194 1.235.678 1.395.111.019.63-.771 1.17-.228.21.213 1.229 1.099 1.475 1.397.245.298-.15.351-.139.378.497.972.1.84.094 1.624-.007.779.815-.366 1.074-.346.26.022.608.77.663.974.064.209-.238.197-.157.356.53 1.043.821-.199 1.236-.125.991.185.775 1.399 1.266 2.006.134.166.173-.124.324-.01.591.454.686 1.001 1.483 1.416.091.046.606.117.865.389.095.1.153.229.135.403-.008.089-.315.139-.153.4.242.394.798 1.009 1.23 1.256.317.182.275-.406.534-.022.118.17-.328.134-.089.439.238.312 1.042.861 1.365 1.047.318.188.316-.195.353-.198.22-.007.894.202.948.23 2.717 1.437 5.361 2.921 8.373 3.774.238.067.193-.309.23-.302.85.137-.076.782.383 1.258.14-.685.433-.452 1.02-.337.28.054.218-.249.252-.267.527-.254.65.341.688.467.137.463.574.114.674.426.102.31-.444.54.108.716.231-.185.028-.934.473-.898 1.669.129 4.415 1.556 5.648 2.015 1.245.462 1.645.545 2.35.872 1.053.489.996.135 1.48.047.092-.017.203-.024.34-.015.883.059.119 1.053.156 1.333.033.278.247.073.343.251.103.18-.264.243.06.403.317.16 1.39.022 1.582-.201.409-.47.181-1.141.967-.713.046.024-.19.286-.01.363.314.177.913.191.682.296.804-.518.626-1.838.25-2.944-.069-.213.33-.184.29-.312-.454-1.329-.747-.611-1.668-.868.811-.328 1.042-.979.419-1.84-.375-.511-.612-.196-1.067-.352-.137-.046-.206-.552-.395-.504-.617.158-.861.883-1.325-.095-.02-.043.318-.131.232-.266-.566-.883-1.113-.584-1.898-1.411-.245-.259-.507-.642-.77-1.077-.217-.351-.35-.603-.529-.839-.032-.092-.208-.144.127-.086.885-.09.721-.667.727-.5-1-.218-.689.902.055 1.045.108.638.326 1.281.41 1.895.031.219-.279.161-.3.196-.327.569.369.612.436.744.691 1.371.637 2.724 1.573 3.926.034.044.696-.104.366.435-.024.033-.474-.317-.266.336.205.646.31 1.989.938 2.784.15.188.864.541.63 1.132-.033.079-.238.082-.307.205-.218.396.475.303.053.827-.421.523-.573 1.349.142 2.107.022.025.608.046.707.332.16.457.3 1.141.483 1.609.088.225.346-.039.366-.002.76 1.459.89 2.629 1.398 4.313.085.292.852 1.015.728 1.703-.124.786-1.908.723-.993 2.029.371.539 2.61.553 1.982 1.985.542 1.068.898 2.291 1.083 3.339l.028-.205c-.293.5-1.403.578-2.291.858-.096.027-.35.637-.59.648-.352.014-.556-.246-.803-.249-.531-.01-1.03.053-1.53.116-.476.061-.95.123-1.439.119-.38-.003-.253-.288-.705-.291-.449-.004-.742.375-1.356.211-.467-.124-.943-.87-1.561-.941-.002.748-.423.744-1.164.964-.142.043.02.298-.047.332-.272.143-.535-.065-.791.09-.063.037-.058.293-.109.338-.428.39-1.176-.156-1.308-.251-.493-.361-.709-.019-1.08-.153-.375-.133.168-.344-.268-.415-.9-.148-2.048-.047-2.955-.004-.36.018-.094.344-.145.354-.742.132-1.52-.179-1.886.528-.644-1.713-.439.201-1.526-.065-.087-.021-.262-.84.053-.988.313-.147.826.074 1.26-.148.104-.053.659-.871.74-.924.634-.411.803.822.843.887.437.709 1.13-.171 1.323-.239.885-.316 1.66-.179 2.403-.401.484-.144.502-.958.89-.949 1.292.031 1.776 1.15 2.958.13.253-.217-.03-1.098.918-.426.063.042.77.662 1.154.248.05-.052.041-.311.107-.334.438-.152.734.047 1.214-.065.477-.111 1.045-.274 1.587-.203.273.035.616.361.813.535.043.037.079.067.107.086.451.323.89-.257 1.181.14.295.397-.207 1.057.532 1.28-.016-.673 0-1.366-.005-2.043.607-.033 1.213-.045 1.716-.084.526.051.799-.439.084.502l-.181 1.348c.004-.041-.076-.351-.162-.602-.062-.183-.351.101-.421-.071-.314-.779-.326-1.567-.746-2.417-.315-.623-.955-1.24-1.31-1.908.555-.708-.091-1.672-.31-2.442-.08-.275.119-.331.108-.547-.047-.814-.55-.226-.725-.384-.746-.67.656-1.312.243-2.281-.021-.051-1.036-.406-1.118-.477-.526-.44.231-.195.153-.567-.143-.682-.134-1.205-.646-1.874-.151-.195-.832-.545-.625-1.114.027-.075.292-.14.29-.191-.066-.917-.87-.635-1.319-1.006-.449-.372-.171-1.306-.068-1.514.265-.544.287.232.335.237.572.065.291-.431.178-.856.76-.352.502-.901-.118-.436-.067.051.124.341.118.436-.902-.074-1.23-.652-.77-1.619.218-.447.722-.289.221-1.212-.23-.429-.707-.058-.998-.401-.658-.769-.575-2.139-.978-3.061-.144-.328-.33.102-.439-.118-.296-.607-.247-1.212-.571-1.832-.03-.055-.299.188-.367-.013-.474-1.678-.835-2.353-.904-5.384.027-.202.067-.604.341-1.118.06-.393 1.508-1.611 2.556-1.364 1.33.211 1.594.69 1.839.825.581.494.798.733 1.155 1.139.18.201.353.401.487.58.803 1.067 1.577 2.711 2.428 3.618.556.598.71.261 1.105.414.774.298.846 1.825.823 2.037-.001 0-.468-.588-.397-.161-.177.379.39.154.397.161 0 .117.692 1.539.862 1.873.102.163.353-.049.401.042.64 1.049 1.318 3.98-.759 5.906-1.474 1.204-2.339.847-2.721.883a5.896 5.896 0 0 1-.946-.164 10.815 10.815 0 0 1-1.25-.405c-.031-.016.119-.335.045-.368-1.002-.47-1.762-.275-2.668-.306a3.596 3.596 0 0 1-.181-.01c-.818-.067-1.35-.36-1.635-1.042-.648-.133-1.436-.67-1.902-.991-.456-.319-.734.306-.782.305-1.548-.052-2.207-.675-3.656-1.212-.684-.254-2.088-.611-2.86-.788-.617-.142-.916-.41-1.5-.5-.079-.011-.101.301-.127.304-.722.139-.193-.464-.277-.632-.315-.615-.495-.946-1.362-1.009-.19-.012-1.083.804-1.435.743-.45-.078-.169-.382-.653-.461-.04-.007-.115.217-.389.105-1.29-.529-2.675-1.224-4.066-1.852-.191-.088-.106.366-.387.243-1.305-.572-2.768-1.406-3.89-2.45-.272-.256.072-.328.054-.438-.105-.661-1.061-.57-1.163-.644-.842-.569-1.494-1.244-2.043-1.938-.666-.875-1.38-1.834-2.56-2.672-.106-.076-1.295-.17-1.19-.92.008-.048.114-.817-.46-.739-.035.005-.058.428-.38.096-.328-.337-1.034-.666-1.285-1.374-.074-.218-.018-1.024-.816-1.049-.048.005-1.543.222-1.258-.594.045-.135.656-.72-.19-.898-.161-.033-.097.278-.451.117-.54-.244-.957-.928-1.73-1.129-.135-.035-.915.024-.924-.58-.002-.095.282-.215.141-.39-.676-.841-1.604-1.469-2.24-2.367-.225-.319.23-.509.038-.871-.19-.359-.682-1.02-1.114-1.164-.438-.15-.639.684-1.118.275-2.09-1.788-3.6-4.088-5.304-6.209-.252-.315-.235.11-.623-.347-1.43-1.665-3.955-4.552-4.604-6.425-.532-1.504.858-.135.332-1.184-.248-.498-1.287-.514-1.387-.612-.976-.938-1.183-1.92-1.922-2.845-.154-.192-.31.196-.437.029-.44-.568-.72-1.295-1.1-1.854-.173-.253-.365-.067-.497-.319a7.216 7.216 0 0 1-.38-.831 5.859 5.859 0 0 1-.278-1.018c-.011-.061.47.106.23-.315-.39-.678-.689-1.64-1.375-2.295-.203-.193-.722.104-.663-.599.011-.148.707-.382-.175-.648-.148-.047-1.445-.584-1.27-1.344.045-.201.364-.812.115-1.05-.036-.031-.22.286-.386.068-.575-.763-1.049-1.632-1.632-2.43-.156-.212-.246.291-.469-.03-.611-.88-1.21-2.085-1.64-3.052-.158-.357.213-.26.226-.299.2-.632-.502-.54-.611-.656-.66-.707-.734-1.477-1.227-2.21-.133-.2-.327.098-.375.07-.475-.305.197-.246.1-.554-.265-.863-.745-1.72-1.188-2.503-.163-.287-.318.21-.462-.054-.855-1.551-1.62-3.254-2.11-4.994-.091-.326.248-.234.28-.322.236-.61-.58-1.052-.693-1.193-.505-.617-.367-.985-.613-1.61a19.081 19.081 0 0 1-.815-2.667c-.554-2.39-.901-4.983-1.134-7.095-.41-3.75-.43-6.668-.67-10.263-.014-.228-.375.018-.392-.178-.196-2.558-.057-5.081-.01-7.7.005-.217-.367.072-.37-.276A9.32 9.32 0 0 1 .7 44.755c.092-.345.341.158.428-.188.207-.816.355-1.699.458-2.579.039-.328-.317.019-.338-.234a.441.441 0 0 1 .008-.119c.558-3.095 1.21-5.975 2.401-8.81.081-.19.835-.184.808-.65-.189-.082-.421-.139-.628-.206.96-4.25 2.293-8.327 3.407-12.519.047-.178-.408.034-.319-.31.514-1.983.898-3.933 1.781-5.868.087-.193.724.077.774-.547.007-.107.14-1.019.055-1.29-.014-.037-.364.051-.301-.242a39.486 39.486 0 0 1 1.466-5.05c.097-.265.357.105.429-.083.506-1.321.61-2.861 1.223-4.108.408-.82.903-.363 1.575-.694.095-.047.236-.589.57-.54.84.12 1.678.598 2.581.696.194.022.164-.764.518-.22.024.039.05.608.174.774.085.116.457.031.55.249.093.218-.234.355-.145.698.09.344.503.293.4.924zm53.382 142.119c-.374-.465-.814.65-.212.545.03-.006.232-.521.212-.545zm14.119 20.507c.204.172.135.156-.016.108l-.1.743c-.162-.033-.413.031-.605.111l.15-1.122a.253.253 0 0 1-.044-.098c.145-.812.53.155.615.258zm-6.114.936c.768.394.835-1.305.04-.939-.047.021-.085.916-.04.939zM13.573 3.454c.017-.003.125-.389.112-.402-.32-.296-.536.477-.112.402zM73.296 168.02c.244.22.918-.07.613-.344-.25-.221-.919.07-.613.344zm-23.534-35.107c.007-.018-.194-.23-.259-.153-.207.25.146.46.259.153zm12.188 35.897c1.685-.106 2.812 1.205.992 1.215-.331.003.664-.512.235-.599-.79-.155-1.204.771-2.034.387-.15-.071.71-1.001.81-1.005l-.003.002zm10.177-24.305c-.005-.018-.377-.155-.39-.143-.322.294.427.571.39.143zm-34.19-23.485c.007-.04-.618-.718-.659-.716-.783.092.485 1.468.659.716zm39.374 15.202c.363.199.49.655.081 1.041-.049-.349-.123-.839-.081-1.041z" fill="#fff"/></svg>