<svg width="36" height="44" fill="none" xmlns="http://www.w3.org/2000/svg"><path d="M32.388.69c.109.413.11 1.01.085 1.495-.008.152-.178.108-.189.217-.021.213.094.381.068.6-.01.072-.274.043-.278.119-.021.41.134.766.19 1.177.279 2.035.898 4.038 1.527 6.132.207.69.29 1.598.629 2.286.04.079.232-.042.254-.032.35.166-.1.225-.102.408-.004.73.207 1.469.462 2.124.109.28.463-.116.295.236-.011.024-.257.006-.263.09-.01.2.102.53.112.694.013.294.023.341.053.631.033.408-.045.892-.132 1.487v.002c-.005.078.252.035.26.167.01.133-.094.452-.178.546-.084.093-.255-.003-.302.005-.394.059-.01.562-.012.614-.048.928-.566 1.574-.85 2.36-.217.6-.377 1.269-.622 1.824-.294.66-.66 1.164-.937 1.805-.03.068.264.11.228.193-.38.884-.845 1.725-1.47 2.468-.063.076-.222-.153-.298-.085-.308.277-.804.612-.871 1.053-.05.247-.017.52.18.85-.334.38-.779.76-1.224.852-.285.057-.27-.306-.431-.026-.037.062.18.192.111.273-.296.343-.732.541-1.029.863-.06.066.069.236.067.282-.025.376-.58.097-.658.096-.619.017-.92.282-1.383.483-.107.046.135.25.036.304a5.148 5.148 0 0 1-1.653.56c-.127.017-.107-.25-.171-.254-.283-.013-.175.437-.444.431-.056 0-.1-.206-.117-.224-.264-.285-.21.236-.242.26-.404.31-.873-.085-1.282.141-.049.028.157.234.015.296-.196.086-.396.167-.595.243a6.339 6.339 0 0 1-2.726.405c-.179-.015-.072-.224-.086-.247-.207-.363-.276.152-.334.175-.45.166-.845-.27-1.183.318-1.333-.213-2.624-.505-3.621-.736a2.436 2.436 0 0 1-1.712-1.243c-.013-.023.2-.163.176-.206-.273-.53-.489-.192-1.128-.283-.134-.025.073-.423.17-.571l.035-.067c.088-.171.473-.24.483-.284.12-.307-1.025.188-1.152-.25-.002-.013.232-.018.245-.057.043-.118-.068-.197-.01-.31.139-.258.724-.39.35-.652-.047-.035-.747.082-.73-.253.004-.133-.004-.7.053-.852.053-.152.273-.033.283-.044.324-.386.438-.222.895-.377.456-.143-.595-.197-.703-.29-.108-.094.172-.355.267-.411.095-.058.225.048.282-.007.372-.355-.49-.255-.634-.418-.337-.393.478-.51.61-.776.037-.073-.15-.046-.152-.12a.43.43 0 0 1 0-.022c.029-.331.3-.423.266-.83-.013-.062-.248-.588.152-.552.056.008.171.18.283.1.166-.117.415-.34.51-.526.071-.139-.277-.245-.07-.309.092-.026.11.216.27.158.155-.057.442-.312.554-.405.111-.095-.1-.238-.101-.258 0-.12.164-.387.186-.4.066-.05.136-.099.204-.143.628-.191.733-1.025 2.336-.033-.31 1.82-.863 1.301-1.216 1.988-.059.075.168.21.161.223-.146.3-.453-.358-.773-.36.39.345.232.37.113.569-.058.097.126.198.133.22.096.335-.254.125-.333.088-.282-.14-.126.199-.312.103-.188-.092-.275-.415-.424-.265.087.175.54.413.478.583-.233.642-1.329 1.163-1.707 1.47-.38.31-.477.45-.726.594-.455.269-.074.403-.187.74-.116.34-.62-.407-.785-.512-.165-.106-.065.07-.179.034-.113-.036-.114-.215-.238-.15-.122.062-.146.557-.042.734.222.373.645.58.287.71-.02.007-.137-.205-.208-.17-.566.298-1.029.733-1.576 1.047-.077.043-.204-.195-.25-.172-.48.239-.043.422.099.965-.409-.506-.801-.676-1.077-.408-.167.161.06.334.094.582.01.074-.245.054-.172.17.237.376.69.612.272.754-.019.006-.147-.202-.2-.17-.344.21-.055.565-.312.901-.204.267-.81.486-1.108.726-.514-.516-.643-.145-.385.309-.187.162-.348.369-.562.49-.073.043-.188-.142-.211-.15-.367-.135-.09.28-.113.332-.148.307-.401.465-.616.665-.16.15-.284.316-.304.587-.001.022.374.36.007.23-.026-.007-.108-.279-.263-.105-.145.144-.655.488-.418.698.09.122.373-.271.114-.058-.024.036-.119.146-.153.221-.067.261.176-.184.125.255-.031.427.255.805.612.61A.699.699 0 0 0 3.202 39c.012-.008.132-.404.245-.387.18.026.427.135.615.15.09.008.057-.248.073-.251.62-.08 1.03.189 1.666.358.116.032.497-.27.695.027.217.325-.186 1.52.424 1.297.247-.089.732-1.607 1.053-.75.838-.1 1.542.407 2.394.214.04-.008.202-.43.288-.415.127.024.176.234.266.258l.05.012c.354.115.722.04 1.062.159.134.047.03.237.188.294.157.057.346-.177.525.02.135.15.116.743.299.878.194-.526.337-.465.65-.503.06-.008.077-.21.11-.223.134-.056.164.13.298.066.032-.016.105-.193.136-.215.268-.196.36.314.371.401.051.334.23.143.31.304.077.16-.169.2-.053.33.237.268.624.434.912.605.115.067.16-.2.18-.196.278.081.378.458.776.105-.525 1.223.213-.022.414.421.015.036-.293.578-.441.59-.148.014-.195-.246-.409-.21-.051.007-.538.394-.58.41-.333.124.103-.697.117-.748.15-.55-.399-.135-.478-.128-.377.024-.56-.214-.862-.2-.197.009-.466.556-.576.486-.364-.23-.204-1.082-.858-.541-.14.116-.283.771-.398.174-.006-.037-.077-.568-.301-.322-.028.031-.087.216-.113.225-.173.056-.223-.121-.4-.096-.176.026-.39.08-.552-.029-.097-.065-.151-.45-.185-.55-.094-.284-.348.088-.377-.234a.723.723 0 0 1 .009-.18l.111.017c.003-.054.01-.109.017-.164l-.094-.015c.03-.122.067-.246.076-.36l.056.01c-.003-.111-.03-.21-.114-.286-.064.5-.142 1.013-.213 1.515-.611-.083-1.184-.316-1.787-.367-.075-.006-.032.272-.113.273-.342.002-.61-.226-.967-.193-.276.027-.604.276-.892.315-.1-.594-.538-.45-.832-.536-.103-.03-.078-.183-.147-.241-.26-.218-.187.304-.273.375-.368.303-.268-.847-.664-.861-.02-.002-.339.584-.377.618-.245.226-.014-.217-.147-.276-.244-.109-.406-.273-.718-.121-.092.045-.333.407-.473.097-.018-.04.012-.242-.005-.255-.054-.04-.1-.054-.141-.047-.218.03-.31.488-.586.626-.33.186-.939-.473-1.038-.704-.24-.522.372.047.385-.01.334-.296-.088-.315-.471-.688.33-.5.043-.918-.34-.47-.046.074.28.402.34.47-.852.334-1.502-1.622-.615-1.93.34-.153.542.116.688-.421.07-.223-.342-.376-.321-.622.062-.57.728-.726.963-1.056l.004-.005c.077-.114-.185-.181-.139-.265.124-.222.4-.256.504-.494.01-.022-.206-.154-.156-.211.383-.44.848-.691 1.272-1.118.207-.209.474-.673.708-.87.402-.34 1.111-.541 1.366-.917.169-.246-.051-.376-.081-.584-.061-.4.658-.287.761-.26.004 0-.134.218.05.214.241.134-.05-.212-.05-.215.068.016.464-.294.503-.398.02-.056-.165-.203-.151-.229a4.28 4.28 0 0 1 1.336-1.52c.012-.005.18.196.206.182.362-.187.323-.594.423-.954.1-.359.333-.494.778-.298.142-.214.522-.302.756-.36.229-.052-.105-.439-.099-.458.174-.614.604-.621 1.044-.981.206-.168.538-.592.702-.832.128-.188.31-.201.4-.4.013-.026-.168-.167-.168-.179-.032-.353.284.116.388.153.369.14.59.19.662-.132.017-.074-.442-.755-.42-.85.036-.13.229.085.242-.039 0-.009-.13-.128-.1-.153.018-.014.031-.026-.003.044-.024.052-.044.079-.12.274 0 .206-.452.506.132 1.935 1.537 1.845 1.724 1.022 1.947 1.196.188-.014.247-.042.29-.059.075-.035.047-.04.016-.016-.014.01.134.248.12.264a.555.555 0 0 1-.077.066c-.24.171-.472.311-.708.387-.077.024-.174-.152-.225-.185-.319-.188-.064.282-.066.299-.125.41-.391.424-.381.42a1.463 1.463 0 0 0-.022.422c.004.048.491.446.006.507-.032.003-.53.073-.22.24.02.01.276-.04.233.1-.044.144.096.384-.19.553-.09.05-.58.177-.202.367.026.025.89.264.296.352-.097.014-.733.03-.397.198.065.029.201-.038.296.036.144.104.003.284.29.262.053.007.462-.132.135-.072-.05.013-.238.11-.27.1a.148.148 0 0 1-.046-.03c.046.206.227.29.2.454-.008.067-.273.284-.298.389-.026.105.008.242.11.12.09-.128.379-.591.35-.656-.038-.064-.142-.12-.257-.134 1.114.145 1.755.56 2.391.704.117.027.056-.18.225-.157.643.103 1.51-.072 2.063.25.462.263-.027.598.326.676.18.035.22-.623.25-.65.307-.279.63-.084.936-.28.062-.041-.09-.26-.038-.291a.47.47 0 0 1 .046-.025c.226-.102.498-.1.707-.195.102-.047.016-.224.119-.245.242-.05.472-.046.755.047.026.008-.027.287.144.235.276-.086.672-.038.91-.328.071-.087-.085-.506.217-.29.063.044.207.566.26.046.012-.087.143-.813.47-.512.086.08.376.436.452.328.01-.016-.14-.214-.065-.271.265-.199.578-.312.83-.517.066-.056-.155-.225-.054-.3.276-.204.658-.338.955-.427.11-.032.152.183.17.198.306.242.111-.219.128-.264.122-.285.404-.203.533-.385.035-.05-.145-.206-.15-.229-.044-.228.161.15.247.138a.618.618 0 0 0 .459-.34c.027-.05-.222-.175-.199-.215a5.728 5.728 0 0 1 .834-1.162c.078-.083.229.078.282.081.37.022.08-.403.066-.469-.06-.308.146-.303.215-.51.33-1.004.987-2.11 1.44-2.987.585-1.138 1.12-2.006 1.442-3.18.02-.075-.27-.085-.256-.15.146-.632.368-1.231.514-1.854-.03.119-.024.102-.046.035-.007-.023-.27.015-.29-.018-.042-.073-.047-.248.007-.426.026-.09.27-.016.29-.11.046-.22.008-.475-.095-.706-.045-.1-.266.125-.304-.01-.267-.907-.65-1.887-.683-3.04-.003-.078.492-.328.34-.442-.148.04-.317.1-.472.15-.618-1.478-1-3.068-1.499-4.674-.021-.067-.26.14-.302.01-.244-.76-.556-1.49-.502-2.376.005-.087.51-.182.371-.396-.025-.038-.185-.375-.316-.44-.02-.008-.235.117-.27.003a6.682 6.682 0 0 1-.298-2.148c.004-.117.276-.04.282-.123.034-.598-.239-1.208-.047-1.813.131-.391.58-.276 1.005-.488.06-.03.064-.254.316-.268.634-.035 1.33.05 2.005 0 .145-.01-.013-.242.34-.106.023.009.142.174.262.21.084.026.339-.03.446.022.107.05-.105.124.024.21.131.085.419.026.467.204zM11.166 26.764c.302.049-.298-.618-.295-.325.002.015.28.322.295.325zm-1.68 13.57c-.196-.422-.431.136-.297.46.134.323.356-.332.296-.46zm2.412.117c-.186-.374-.544.848-.208.672.019-.01.219-.65.208-.672zM28.712 1.29a.394.394 0 0 0-.004-.165c-.292-.06-.285.264.004.165zM14.287 40.963c-.01-.193-.32-.107-.303.132.01.19.315.107.303-.132zm-2.799-13.582c-.014 0-.047.102.028.115.24.04.202-.117-.028-.115zm6.397 15.684c-.484-.402-.187-1.48.302-.988.088.09-.411.12-.338.288.135.307.673-.12.708.338.006.083-.646.386-.674.362h.002zm-5.896-15.596c.01.005.128-.091.122-.102-.139-.262-.374-.068-.122.102zm.086 6.08c-.015.03.307.288.336.27.385-.298-.153-.733-.336-.27zm-6.786 1.395c.092.316-.018.477-.366.319.126-.103.241-.216.366-.319z" fill="#fff"/></svg>