<svg width="375" height="531" fill="none" xmlns="http://www.w3.org/2000/svg"><g filter="url(#a)"><path d="m95.993 12.763-11.792 3.044a45.138 45.138 0 0 1-20.514.478c-22.556-4.714-45.118 8.554-52.237 30.47a45.755 45.755 0 0 0-1.727 20.963L14.26 97.52a172.722 172.722 0 0 1 .115 51.249l-1.706 11.547a204.971 204.971 0 0 0 .294 61.831l.46 2.927a186.803 186.803 0 0 1-.332 60.143 186.81 186.81 0 0 0-.476 59.22l.86 5.653a222.435 222.435 0 0 1 .748 61.641l-5.422 42.502c-.467 3.661-1.296 7.268-1.954 10.899-1.648 9.096-.85 17.783 2.005 27.735 6.28 21.897 31.57 31.348 53.05 23.762a44.248 44.248 0 0 1 27.412-.67l6.51 1.946a65.091 65.091 0 0 0 34.558.756l9.235-2.327a87.384 87.384 0 0 1 36.06-1.403 87.386 87.386 0 0 0 26.609.432l10.818-1.487a102.748 102.748 0 0 1 29.752.257l1.738.269a93.706 93.706 0 0 0 35.762-1.367l9.156-2.146a54.079 54.079 0 0 1 24.958.064c16.4 3.935 34.881 1.225 46.32-11.168 8.488-9.197 12.36-19.735 9.007-40.053l-5.611-48.018a242.34 242.34 0 0 1 .686-61.624l.791-5.665a203.5 203.5 0 0 0-.438-59.208 203.47 203.47 0 0 1-.306-60.135l.423-2.935a223.304 223.304 0 0 0 .27-61.823l-.463-3.417a248.031 248.031 0 0 1 .139-67.523l3.137-22.478c.912-6.544 1.39-13.192.368-19.72-1.557-9.946-4.577-16.683-8.951-22.249-10.051-12.79-28.537-14.444-44.237-10.186a52.58 52.58 0 0 1-27.233.078l-7.16-1.897a71.417 71.417 0 0 0-37.166.154l-1.814.497a64.79 64.79 0 0 1-35.374-.323 64.792 64.792 0 0 0-35.873-.184l-.766.217a67.556 67.556 0 0 1-36.462.077l-.955-.265a71.092 71.092 0 0 0-36.81-.341z" fill="#1E4482"/><path d="m95.993 12.763-11.792 3.044a45.138 45.138 0 0 1-20.514.478c-22.556-4.714-45.118 8.554-52.237 30.47a45.755 45.755 0 0 0-1.727 20.963L14.26 97.52a172.722 172.722 0 0 1 .115 51.249l-1.706 11.547a204.971 204.971 0 0 0 .294 61.831l.46 2.927a186.803 186.803 0 0 1-.332 60.143 186.81 186.81 0 0 0-.476 59.22l.86 5.653a222.435 222.435 0 0 1 .748 61.641l-5.422 42.502c-.467 3.661-1.296 7.268-1.954 10.899-1.648 9.096-.85 17.783 2.005 27.735 6.28 21.897 31.57 31.348 53.05 23.762a44.248 44.248 0 0 1 27.412-.67l6.51 1.946a65.091 65.091 0 0 0 34.558.756l9.235-2.327a87.384 87.384 0 0 1 36.06-1.403 87.386 87.386 0 0 0 26.609.432l10.818-1.487a102.748 102.748 0 0 1 29.752.257l1.738.269a93.706 93.706 0 0 0 35.762-1.367l9.156-2.146a54.079 54.079 0 0 1 24.958.064c16.4 3.935 34.881 1.225 46.32-11.168 8.488-9.197 12.36-19.735 9.007-40.053l-5.611-48.018a242.34 242.34 0 0 1 .686-61.624l.791-5.665a203.5 203.5 0 0 0-.438-59.208 203.47 203.47 0 0 1-.306-60.135l.423-2.935a223.304 223.304 0 0 0 .27-61.823l-.463-3.417a248.031 248.031 0 0 1 .139-67.523l3.137-22.478c.912-6.544 1.39-13.192.368-19.72-1.557-9.946-4.577-16.683-8.951-22.249-10.051-12.79-28.537-14.444-44.237-10.186a52.58 52.58 0 0 1-27.233.078l-7.16-1.897a71.417 71.417 0 0 0-37.166.154l-1.814.497a64.79 64.79 0 0 1-35.374-.323 64.792 64.792 0 0 0-35.873-.184l-.766.217a67.556 67.556 0 0 1-36.462.077l-.955-.265a71.092 71.092 0 0 0-36.81-.341z" fill="#3F8755"/></g><defs><filter id="a" x="-4" y=".506" width="385" height="530.127" filterUnits="userSpaceOnUse" color-interpolation-filters="sRGB"><feFlood flood-opacity="0" result="BackgroundImageFix"/><feBlend in="SourceGraphic" in2="BackgroundImageFix" result="shape"/><feTurbulence type="fractalNoise" baseFrequency="0.25 0.25" numOctaves="3" seed="7416"/><feDisplacementMap in="shape" scale="20" xChannelSelector="R" yChannelSelector="G" result="displacedImage" width="100%" height="100%"/><feMerge result="effect1_texture_139_4"><feMergeNode in="displacedImage"/></feMerge><feTurbulence type="fractalNoise" baseFrequency="0.625 0.625" stitchTiles="stitch" numOctaves="3" result="noise" seed="6386"/><feColorMatrix in="noise" type="luminanceToAlpha" result="alphaNoise"/><feComponentTransfer in="alphaNoise" result="coloredNoise1"><feFuncA type="discrete" tableValues="1 1 1 1 1 1 1 1 1 1 1 1 1 1 1 1 1 1 1 1 1 1 1 1 1 1 1 1 1 1 1 1 1 1 1 1 1 1 1 1 1 1 1 1 1 1 1 1 1 1 1 0 0 0 0 0 0 0 0 0 0 0 0 0 0 0 0 0 0 0 0 0 0 0 0 0 0 0 0 0 0 0 0 0 0 0 0 0 0 0 0 0 0 0 0 0 0 0 0 0"/></feComponentTransfer><feComposite operator="in" in2="effect1_texture_139_4" in="coloredNoise1" result="noise1Clipped"/><feFlood flood-color="rgba(0, 121, 38, 0.25)" result="color1Flood"/><feComposite operator="in" in2="noise1Clipped" in="color1Flood" result="color1"/><feMerge result="effect2_noise_139_4"><feMergeNode in="effect1_texture_139_4"/><feMergeNode in="color1"/></feMerge></filter></defs></svg>