<svg width="192" height="20" fill="none" xmlns="http://www.w3.org/2000/svg"><path d="M5.96 12.478c-1.223.159-2.51.064-3.732-.664C.62 10.865-.088 9.22.008 7.386A7.99 7.99 0 0 1 1.36 3.432 8.052 8.052 0 0 1 4.64.616C5.349.268 6.314.11 7.086.426c.644.254 1.32.918 1.448 1.55.064.19-.257.602-.515.412-.354-.317-.804-.728-1.254-.918-.45-.19-.869-.221-1.351-.031C4.158 1.945 3 2.926 2.228 4.096A6.967 6.967 0 0 0 1.07 7.734c0 1.17.45 2.277 1.448 3.005.933.664 2.155.822 3.28.727 1.899-.158 3.571-.949 5.244-1.676.193 0 .482.316.322.537-1.609.886-3.442 1.867-5.404 2.151zM23.294 12.542c-1.544-.854-3.12-1.456-4.76-2.025-1.61-.57-3.153-1.139-4.697-1.803-.032 1.139.129 2.31.418 3.353.096.19.032.538-.257.538-.258 0-.418-.158-.515-.316-.097-.127-.16-.317-.257-.475-.354-1.139-.483-2.372-.483-3.638a.71.71 0 0 1-.29-.316c-.096-.095-.128-.285-.032-.443a.884.884 0 0 0 .29-.411c.064-.411.032-1.36.129-1.771.128-.728.321-1.614.514-2.5.226-.885.547-1.77.965-2.53.193-.316.676-.253.772.095-.032.411-.16.79-.29 1.17-.096.348-.289.728-.385 1.108a14.28 14.28 0 0 0-.547 3.51 57.384 57.384 0 0 1 3.506-2.846c1.48-1.076 3.056-1.993 4.729-2.657.257 0 .579 0 .772.158.193.126.193.316.096.538-1.705.696-3.249 1.613-4.825 2.688a40.77 40.77 0 0 0-4.342 3.543v.032c1.576.854 3.313 1.423 4.986 1.993 1.48.506 2.895 1.075 4.246 1.93.29.157.514.379.675.663.032.19-.225.443-.418.412zM32.132 11.846c-1.447.727-3.184 1.044-4.76.284a4.857 4.857 0 0 1-2.51-2.878c-.482-1.487-.321-3.163.322-4.555a7.12 7.12 0 0 1 2.091-2.562c.58-.411 1.448-.918 2.252-1.013.643-.727 1.705-.948 2.605-.727 1.544.411 2.863 1.961 3.282 3.321.418 1.329.514 2.784.128 4.144-.482 1.835-1.705 3.163-3.41 3.986zm2.22-7.782c-.386-1.044-1.255-2.214-2.38-2.594-.515-.19-1.062-.253-1.48.064-.418.316-.676.822-.869 1.265-.032.095-.032.221-.032.348 0 .126 0 .285-.032.411-.032.063-.354.253-.45.063a5.198 5.198 0 0 1-.097-1.296c-1.222.506-2.252 1.55-2.83 2.72-.612 1.233-.644 2.657-.258 3.922.322.98.933 1.803 1.962 2.214 1.287.475 2.67.317 3.828-.253 1.32-.664 2.252-1.676 2.702-3.036.418-1.202.354-2.626-.064-3.828zM46.471 11.561c0 .253-.29.316-.45.285-.354-.127-.418-.696-.482-1.012-.097-.57-.097-1.14-.097-1.74v-1.93c0-1.487.193-3.1.225-4.618-.193-.285-.514-.443-.836-.506-.354-.095-.772-.127-1.126-.222-1.287-.19-2.573-.38-3.924-.316-.161 1.392-.547 2.689-.74 4.08-.29 2.057-.547 3.986-.418 6.169 0 .253.064.633-.193.822-.129.127-.483.127-.644-.031-.16-.19-.225-.412-.257-.633-.032-.222 0-.475-.032-.728-.032-3.32.514-6.42 1.19-9.647-.16.031-.322.063-.482.031-.29-.158-.226-.443-.097-.569.129-.253.354-.348.579-.411.225-.064.483-.127.708-.127 2.187-.158 4.503.158 6.497.791.386.221.933.474.965.98-.29 3.037-.353 6.169-.386 9.332zM58.9 12.573c-.676-.759-.87-1.771-1.03-2.752-.322-2.277-.257-4.713-.322-7.085-1.962 2.752-3.506 5.535-5.372 8.667-.193.221-.29.38-.61.506-.29 0-.548-.032-.773-.348-1.544-2.815-1.833-6.263-1.608-9.68 0-.22.064-.6.322-.695.418-.127.74.221.74.474-.194 3.163.16 6.168 1.222 8.889 1.125-1.898 2.026-3.48 2.991-5.03A59.548 59.548 0 0 1 57.87.585c.257-.19.611-.064.74.19.096 3.036.064 6.01.321 8.92.065.949.29 1.866.354 2.752 0 .126-.29.253-.386.126zM62.595 1.692h-.161a.265.265 0 0 1-.257-.222c-.033-.253.064-.474.257-.664a2.388 2.388 0 0 1 1.737-.6c.45.03.9.094 1.351.252l1.222.411c1.737.57 3.25 2.088 4.085 3.733.45.917.612 1.866.387 2.91-.226.95-.805 1.835-1.577 2.562-1.93 1.803-4.342 2.341-7.012 2.341-.032 2.151-.16 4.555.129 6.674 0 .095.064.222.128.317.032.158.097.284-.032.474-.257.19-.515.127-.74 0-.321-.348-.45-.727-.482-1.17-.225-2.246-.129-4.429 0-6.706-.29-.253-.74-.601-.837-.98 0-.127.032-.254.097-.317.096-.158.225-.19.29-.127.096.095.289.222.45.317.193-3.163.418-6.168.965-9.205zm6.369 2.056c-.708-.854-1.705-1.455-2.67-1.866-.547-.253-2.09-.823-2.67-.57.032.443-.032 1.234-.096 1.582-.45 2.689-.74 5.567-.772 8.414 2.22.158 4.342-.506 6.047-1.961.933-.791 1.48-1.898 1.383-3.037-.064-.949-.675-1.898-1.222-2.562zM79.912 11.846c-1.448.727-3.184 1.044-4.76.284a4.857 4.857 0 0 1-2.51-2.878c-.482-1.487-.322-3.163.322-4.555a7.12 7.12 0 0 1 2.09-2.562c.58-.411 1.448-.918 2.252-1.013.644-.727 1.705-.948 2.606-.727 1.544.411 2.863 1.961 3.281 3.321.418 1.329.515 2.784.129 4.144-.483 1.835-1.705 3.163-3.41 3.986zm2.22-7.782c-.386-1.044-1.255-2.214-2.38-2.594-.515-.19-1.062-.253-1.48.064-.419.316-.676.822-.869 1.265-.032.095-.032.221-.032.348 0 .126 0 .285-.032.411-.032.063-.354.253-.45.063a5.203 5.203 0 0 1-.097-1.296c-1.223.506-2.252 1.55-2.83 2.72-.612 1.233-.644 2.657-.258 3.922.321.98.933 1.803 1.962 2.214 1.287.475 2.67.317 3.828-.253 1.319-.664 2.252-1.676 2.702-3.036.418-1.202.354-2.626-.064-3.828zM91.324 11.75c-.965.633-2.155 1.14-3.346 1.14-.675 0-1.158-.285-1.608-.918-.16.127-.45.222-.579.032-.579-.79-.74-1.898-.772-2.974-.064-2.752-.032-4.776.708-7.243.064-.253.675-.728 1.126-.601C87.046.68 87.56.142 88.17.079c1.641 0 3.41.854 3.957 2.467.16.506.16 1.044-.032 1.55a2.859 2.859 0 0 1-.933 1.202l-.193.158c.804.253 1.705.76 2.22 1.55.386.601.418 1.329.257 2.024-.29 1.14-1.126 2.056-2.123 2.72zm.9-4.206c-.257-.475-.965-.76-1.48-1.012-.61-.38-1.157-.222-1.768-.095l-.965.221a2.136 2.136 0 0 1-1.094 0c-.16-.095-.354-.411-.193-.57.386-.379.868-.569 1.415-.695l1.48-.158c.579-.317 1.19-.95 1.448-1.55.16-.506.064-.854-.258-1.266-.579-.79-1.512-1.138-2.445-1.233-.29-.032-.386.031-.45.221-.096.253-.16.538-.322.76-.064.158-.29.22-.45.126a.624.624 0 0 1-.29-.158c-.385 1.36-.61 2.91-.675 4.523-.064 1.518 0 3.005.225 4.397.258-.285.58-.696.74-.917.225-.222.643.126.58.348-.065.158-.194.348-.29.506-.065.19-.161.348-.161.474.193.285.643.38 1.19.316.804-.126 1.77-.569 2.477-1.107.643-.506 1.19-1.138 1.35-1.93.097-.379.162-.822-.063-1.201zM101.121 12.478c-1.77.475-3.828.443-5.211-.727-.643-.538-1.126-1.329-1.158-2.183-.032-.759.29-1.455.74-2.087.997-1.392 2.734-2.341 4.407-2.531.707-.063 1.351.032 1.865.538.161.158 0 .474-.16.537h-.29c-.096 0-.225-.031-.322-.031-.225-.032-.418-.063-.547.031-1.543.064-3.055.791-3.988 2.025-.418.538-.644.949-.58 1.613.065.886.74 1.55 1.673 1.866 1.32.475 2.96.19 4.214-.253.676-.253 1.287-.506 1.866-.917.129-.095.257 0 .322.158.032.127.032.253.032.348-.45.854-2.252 1.455-2.863 1.613zm1.801-2.15c-.16.19-.45.158-.579.063-.321-.222-.321-.633-.321-.95a10.17 10.17 0 0 1 .257-1.644l.418-1.74c.258-1.139.418-2.277.065-3.226-.29-.823-.998-1.645-1.866-1.74-.74-.095-1.48.158-2.091.6-.322.222-1.03.823-1.222 1.171-.033.127.032.348.16.475.13.126.033.506-.257.443-.225-.064-.482-.127-.675-.285-.258-.222-.354-.633-.161-.95.547-.916 1.319-1.676 2.316-2.118.643-.317 1.415-.443 2.219-.317.965.158 1.802.854 2.284 1.74.74 1.36.644 3.068.29 4.587-.322 1.297-.644 2.499-.837 3.89zM115.371 1.692c-.836-.19-1.672-.38-2.541-.411-.708.885-1.061 1.93-1.254 3.036-.226 1.14-.193 2.341-.258 3.511-.064 1.582.065 3.1.258 4.587-.097.19-.386.316-.612.19-.546-.664-.675-1.519-.707-2.373-.032-1.897-.065-3.89.225-5.757.193-1.202.547-2.309 1.287-3.32-1.995-.096-3.828.315-5.662.822a1.018 1.018 0 0 1-.708-.443c-.064-.222.065-.348.193-.412l.193-.063.161-.063c1.351-.538 2.992-.822 4.568-.854 1.608-.063 3.217.095 4.632.6.161.064.45.286.547.475.032.222-.129.506-.322.475zM123.658 10.486c-.708.695-1.544 1.296-2.477 1.676a4.122 4.122 0 0 1-2.702.127c-.032.158-.161.348-.322.348-.514-.19-.707-.665-.804-1.076-.225-3.827.193-7.592.869-11.166.16-.348.804-.538.997-.032-.193 1.835-.547 3.67-.644 5.504 1.126-.854 2.574-1.265 3.989-.949.933.222 1.866 1.044 2.155 1.962.451 1.328-.032 2.657-1.061 3.606zm-1.351-4.46c-1.448-.349-2.799.284-3.828 1.36 0 1.17 0 2.941-.032 3.922.836.19 1.673.095 2.412-.222.965-.379 1.834-1.107 2.509-1.96.483-.602.515-1.55.129-2.215-.225-.443-.74-.79-1.19-.886zM145.214 1.692c-.836-.19-1.673-.38-2.541-.411-.708.885-1.062 1.93-1.255 3.036-.225 1.14-.193 2.341-.257 3.511-.064 1.582.064 3.1.257 4.587-.096.19-.386.316-.611.19-.547-.664-.675-1.519-.708-2.373-.032-1.897-.064-3.89.226-5.757.193-1.202.546-2.309 1.286-3.32-1.994-.096-3.828.315-5.661.822a1.016 1.016 0 0 1-.708-.443c-.064-.222.064-.348.193-.412l.193-.063.161-.063c1.351-.538 2.992-.822 4.568-.854 1.608-.063 3.216.095 4.632.6.161.064.45.286.547.475.032.222-.129.506-.322.475zM151.57 12.605c-1.608-.063-3.088-.79-4.02-2.151-.772-1.139-.965-2.467-.805-3.764a8.283 8.283 0 0 1 1.641-3.923c.933-1.202 2.252-2.15 3.763-2.435 1.03-.19 2.124-.095 2.896.727.353.38.675.791.675 1.297.032.538-.225 1.012-.675 1.36-2.252 1.835-4.633 3.543-7.077 4.935.064.98.933 1.993 1.865 2.499.933.506 2.027.57 3.056.443 1.03-.095 2.091-.443 2.831-.791.129-.095.225 0 .257.095.033.063.097.19-.032.284-1.126 1.013-2.734 1.487-4.375 1.424zm1.416-11.293c-.933 0-1.866.38-2.606.95-1.576 1.265-2.509 3.289-2.509 5.25 2.284-1.234 4.439-2.847 6.53-4.523.161-.127.29-.601.065-.98-.258-.507-.837-.697-1.48-.697zM168.203 12.542c-1.544-.854-3.12-1.456-4.76-2.025-1.609-.57-3.153-1.139-4.697-1.803-.032 1.139.129 2.31.418 3.353.097.19.033.538-.257.538-.257 0-.418-.158-.515-.316-.096-.127-.16-.317-.257-.475-.354-1.139-.482-2.372-.482-3.638a.706.706 0 0 1-.29-.316c-.096-.095-.129-.285-.032-.443a.88.88 0 0 0 .289-.411c.065-.411.033-1.36.129-1.771.129-.728.322-1.614.515-2.5.225-.885.547-1.77.965-2.53.193-.316.675-.253.772.095-.032.411-.161.79-.29 1.17-.096.348-.289.728-.386 1.108a14.357 14.357 0 0 0-.547 3.51 57.154 57.154 0 0 1 3.507-2.846c1.479-1.076 3.056-1.993 4.728-2.657.258 0 .579 0 .772.158.193.126.193.316.097.538-1.705.696-3.249 1.613-4.825 2.688a40.723 40.723 0 0 0-4.343 3.543v.032c1.576.854 3.313 1.423 4.986 1.993 1.48.506 2.895 1.075 4.246 1.93.29.157.515.379.676.663.032.19-.226.443-.419.412zM175.466 12.478c-1.223.159-2.509.064-3.732-.664-1.608-.949-2.316-2.594-2.219-4.428a7.987 7.987 0 0 1 1.351-3.954 8.05 8.05 0 0 1 3.281-2.816c.708-.348 1.673-.506 2.445-.19.643.254 1.318.918 1.447 1.55.064.19-.257.602-.515.412-.353-.317-.804-.728-1.254-.918-.45-.19-.869-.221-1.351-.031-1.255.506-2.413 1.487-3.185 2.657a6.972 6.972 0 0 0-1.158 3.638c0 1.17.451 2.277 1.448 3.005.933.664 2.155.822 3.281.727 1.898-.158 3.57-.949 5.243-1.676.193 0 .483.316.322.537-1.609.886-3.442 1.867-5.404 2.151zM191.674 1.692c-.836-.19-1.672-.38-2.541-.411-.708.885-1.062 1.93-1.255 3.036-.225 1.14-.193 2.341-.257 3.511-.064 1.582.064 3.1.257 4.587-.096.19-.386.316-.611.19-.547-.664-.675-1.519-.707-2.373-.033-1.897-.065-3.89.225-5.757.193-1.202.547-2.309 1.286-3.32-1.994-.096-3.827.315-5.661.822a1.018 1.018 0 0 1-.708-.443c-.064-.222.065-.348.193-.412l.193-.063.161-.063c1.351-.538 2.992-.822 4.568-.854 1.608-.063 3.217.095 4.632.6.161.064.45.286.547.475.032.222-.129.506-.322.475z" fill="#262626"/></svg>