<svg width="41" height="15" fill="none" xmlns="http://www.w3.org/2000/svg"><path d="M25.253.538c.31-.52.862-.074 1 .224.034.855 0 1.673-.104 2.528-.069.818-.172 1.673-.172 2.527-.035 1.45-.103 2.937-.069 4.424 0 1.45.138 2.937.345 4.313.034.185-.172.446-.345.446-.862-.26-.862-1.19-.966-1.934-.517-4.238-.206-8.327.31-12.528zM5.503.167c1.724-.074 3.45.111 4.967.706.172.075.482.335.586.558.034.26-.138.594-.345.557-.897-.223-1.794-.446-2.725-.483-.758 1.04-1.138 2.268-1.345 3.57-.242 1.337-.207 2.75-.276 4.125-.069 1.859.069 3.644.276 5.39-.104.224-.414.373-.656.225-.586-.781-.724-1.785-.758-2.789-.035-2.23-.07-4.573.24-6.766.208-1.413.587-2.714 1.38-3.904-2.138-.111-4.104.372-6.07.967a1.083 1.083 0 0 1-.758-.52c-.07-.26.069-.41.207-.484l.207-.074.171-.074C2.054.539 3.813.204 5.503.167zm25.423.074a.443.443 0 0 1 .827.112c-.035.483-.172.93-.31 1.376-.103.408-.31.854-.414 1.3a18.286 18.286 0 0 0-.587 4.127 63.069 63.069 0 0 1 3.76-3.346c1.587-1.264 3.277-2.342 5.07-3.123.276 0 .622 0 .829.186.206.149.206.372.103.632-1.828.818-3.484 1.896-5.174 3.16a44.8 44.8 0 0 0-4.656 4.164v.037c1.69 1.004 3.552 1.673 5.346 2.342 1.586.595 3.104 1.264 4.553 2.268.31.185.552.446.724.78.034.224-.241.521-.448.484-1.656-1.004-3.346-1.71-5.105-2.38-1.724-.669-3.38-1.338-5.036-2.119a14.823 14.823 0 0 0 .448 3.94c.104.224.035.633-.275.634-.276 0-.45-.187-.553-.373-.103-.148-.172-.371-.275-.557-.38-1.339-.518-2.789-.518-4.276a.81.81 0 0 1-.31-.372c-.103-.111-.138-.335-.034-.52.137-.112.276-.334.31-.483.07-.483.034-1.598.138-2.082.138-.855.345-1.896.552-2.937.241-1.041.586-2.082 1.035-2.974zM14.077.204c.31-.111.587-.186.759.186-.172.669-.173 1.859-.207 3.16 0 1.19 0 2.453-.034 3.346a3.876 3.876 0 0 1 1.828-.744c.793-.074 1.62.075 2.276.484 1.035.595 1.656 1.896 1.38 3.234-.207 1.152-.932 2.23-1.794 3.048-.897.855-2 1.413-3.07 1.673-.861.223-2.069.334-2.793-.446-.207-.186-.518-.781-.207-1.116.241.186.414.335.62.447.139.111.277.186.45.186-.035-2.565.103-7.51.172-10 .034-.596-.034-1.227 0-1.822.069-.595.172-1.19.62-1.636zm2.726 7.175c-.794.037-1.657.372-2.174.892l-.275 5.316c1.069-.26 2.172-.78 3.069-1.599.62-.557 1.208-1.226 1.45-2.08.171-.521.136-1.153-.14-1.562-.413-.706-1.137-.967-1.93-.967z" fill="#fff"/><path d="M25.253.538c.31-.52.862-.074 1 .224.034.855 0 1.673-.104 2.528-.069.818-.172 1.673-.172 2.527-.035 1.45-.103 2.937-.069 4.424 0 1.45.138 2.937.345 4.313.034.185-.172.446-.345.446-.862-.26-.862-1.19-.966-1.934-.517-4.238-.206-8.327.31-12.528zM5.503.167c1.724-.074 3.45.111 4.967.706.172.075.482.335.586.558.034.26-.138.594-.345.557-.897-.223-1.794-.446-2.725-.483-.758 1.04-1.138 2.268-1.345 3.57-.242 1.337-.207 2.75-.276 4.125-.069 1.859.069 3.644.276 5.39-.104.224-.414.373-.656.225-.586-.781-.724-1.785-.758-2.789-.035-2.23-.07-4.573.24-6.766.208-1.413.587-2.714 1.38-3.904-2.138-.111-4.104.372-6.07.967a1.083 1.083 0 0 1-.758-.52c-.07-.26.069-.41.207-.484l.207-.074.171-.074C2.054.539 3.813.204 5.503.167zm25.423.074a.443.443 0 0 1 .827.112c-.035.483-.172.93-.31 1.376-.103.408-.31.854-.414 1.3a18.286 18.286 0 0 0-.587 4.127 63.069 63.069 0 0 1 3.76-3.346c1.587-1.264 3.277-2.342 5.07-3.123.276 0 .622 0 .829.186.206.149.206.372.103.632-1.828.818-3.484 1.896-5.174 3.16a44.8 44.8 0 0 0-4.656 4.164v.037c1.69 1.004 3.552 1.673 5.346 2.342 1.586.595 3.104 1.264 4.553 2.268.31.185.552.446.724.78.034.224-.241.521-.448.484-1.656-1.004-3.346-1.71-5.105-2.38-1.724-.669-3.38-1.338-5.036-2.119a14.823 14.823 0 0 0 .448 3.94c.104.224.035.633-.275.634-.276 0-.45-.187-.553-.373-.103-.148-.172-.371-.275-.557-.38-1.339-.518-2.789-.518-4.276a.81.81 0 0 1-.31-.372c-.103-.111-.138-.335-.034-.52.137-.112.276-.334.31-.483.07-.483.034-1.598.138-2.082.138-.855.345-1.896.552-2.937.241-1.041.586-2.082 1.035-2.974zM14.077.204c.31-.111.587-.186.759.186-.172.669-.173 1.859-.207 3.16 0 1.19 0 2.453-.034 3.346a3.876 3.876 0 0 1 1.828-.744c.793-.074 1.62.075 2.276.484 1.035.595 1.656 1.896 1.38 3.234-.207 1.152-.932 2.23-1.794 3.048-.897.855-2 1.413-3.07 1.673-.861.223-2.069.334-2.793-.446-.207-.186-.518-.781-.207-1.116.241.186.414.335.62.447.139.111.277.186.45.186-.035-2.565.103-7.51.172-10 .034-.596-.034-1.227 0-1.822.069-.595.172-1.19.62-1.636zm2.726 7.175c-.794.037-1.657.372-2.174.892l-.275 5.316c1.069-.26 2.172-.78 3.069-1.599.62-.557 1.208-1.226 1.45-2.08.171-.521.136-1.153-.14-1.562-.413-.706-1.137-.967-1.93-.967z" stroke="#fff"/></svg>