<svg width="284" height="44" fill="none" xmlns="http://www.w3.org/2000/svg"><mask id="a" maskUnits="userSpaceOnUse" x="0" y="0" width="284" height="44" fill="#000"><path fill="#fff" d="M0 0h284v44H0z"/><path d="M7.671 2.922c-.241.187-.483.31-.664.559-1.992 3.6-2.596 7.758-3.2 12.04-.543 3.848-.785 7.944-.604 11.978.182 4.592.906 8.999 2.355 12.909.302.558.543 1.117.785 1.737-.12.435-.725.497-.966.31-1.872-1.054-2.475-3.04-2.958-5.026a29.684 29.684 0 0 0-.604-2.483c-.664-3.972-.906-8.13-.785-12.288.181-5.461.966-10.923 2.294-15.826.423-.993.725-2.11 1.208-3.103.543-.993 1.207-1.924 2.354-2.42.423-.124 1.208.186 1.389.807-.06.434-.302.682-.604.806zM44.306 32.091c.363-1.551.302-3.227-.18-4.716-.484-1.49-1.45-2.98-2.838-3.786-.725-.372-1.389-.62-2.294-.62-1.268-.063-2.597.372-3.683.992-1.932 1.117-5.072 4.53-5.857 6.64-.483 1.242-.362 2.794-.241 3.725.241 1.49.905 2.855 1.57 4.158 1.147 1.303 2.535 1.862 4.286 1.8 1.932-.063 3.743-.807 5.313-1.986 1.932-1.552 3.381-3.724 3.925-6.207zm-.241 5.71c-2.415 3.041-5.796 5.151-9.66 4.84-2.536-.185-5.011-1.489-6.34-3.971-1.448-2.607-1.69-5.958-1.75-8.937-.06-3.103.785-8.502 2.113-13.591 1.328-5.152 3.14-9.992 4.89-11.978 1.148-1.242 2.415-2.483 3.804-2.67 1.871-.31 3.985.25 5.554 1.552 1.69 1.428 2.959 3.786 3.2 5.834 0 .745-.966 1.117-1.388.186-.544-1.8-2.114-3.6-3.804-4.592-.845-.497-1.57-.745-2.294-.745-1.027.062-1.932.497-3.019 1.552-1.389 1.427-2.958 5.523-4.287 10.24-1.086 3.972-1.992 8.316-2.354 11.792 1.872-3.352 5.675-6.393 9.539-6.641 2.596-.186 4.77.93 6.279 2.669 1.872 2.172 2.717 5.4 2.173 8.502a13.283 13.283 0 0 1-2.656 5.958zM62.95 42.083c-.422.683-1.328 1.055-2.113.87-.483-.249-1.026-.621-1.207-1.242-.544-1.676-.302-3.724.785-5.027.483-.559 1.267-.993 2.052-.869.785.186 1.087 1.055 1.208 1.614.422 1.551-.121 3.413-.725 4.654zM94.908 34.202c-1.087 2.42-3.321 6.02-5.736 7.385-1.268.745-2.717 1.055-4.226.745-2.657-1.242-4.71-3.166-6.158-5.586-1.751-2.793-2.717-6.206-2.959-9.558-.362-5.46 0-10.798 1.932-15.515a22.087 22.087 0 0 1 6.823-9.185c.362-.186.724-.497 1.147-.807.422-.248.905-.496 1.388-.496.846 0 .966.993.604 1.49-.241.31-.664.558-1.087.744-.301.186-.603.31-.784.558 2.777 1.117 5.01 3.103 6.701 5.462 2.355 3.227 3.683 7.137 4.287 10.923.724 4.84 0 9.681-1.932 13.84zm-3.381-22.963c-1.63-2.607-3.925-4.78-6.883-6.207-1.69 1.49-2.958 3.29-3.864 5.09-1.449 2.792-2.415 6.082-2.838 9.433-.603 4.53-.12 9.247 1.268 13.281 1.087 3.041 3.381 6.268 6.4 7.51.966.186 1.932-.062 2.656-.497 2.234-1.986 3.804-4.282 4.83-6.765 1.208-2.792 1.812-5.771 1.993-8.937-.181-4.592-1.208-9.185-3.562-12.908zM128.826 40.035a8.02 8.02 0 0 1-2.837 1.738c-1.148.372-2.355.559-3.623.62-1.268.063-2.536 0-3.803 0-2.234-.372-4.83-.992-6.762-2.42-1.208-.869-2.174-2.11-2.717-3.785a8.704 8.704 0 0 1 .181-3.538c.483-1.986 1.57-3.848 2.536-5.586 1.509-2.792 3.743-5.15 6.218-7.137a46.16 46.16 0 0 1-6.762-11.17c-.785-1.925-.422-4.159.966-5.648 1.147-1.18 2.596-1.862 4.226-2.049 1.691-.186 3.502.063 5.011.683 1.872.807 4.046 2.607 4.71 4.717.422 1.427.181 2.793-.242 3.972-.483 1.241-1.207 2.42-1.811 3.6a48.977 48.977 0 0 1-1.691 2.73c.906-.434 1.812-.93 2.778-1.303 1.147-.435 2.354-.807 3.743-.931.302 0 .302.31.302.434s-.061.31-.181.435c-2.778 1.055-5.736 2.855-8.211 4.778 4.045 4.407 7.426 9.186 9.116 14.647.604 1.862-.12 3.724-1.147 5.213zm-8.09-36.244c-1.087-.496-2.475-.807-3.804-.682-1.086.124-2.113.496-2.898 1.24-.905.87-1.207 2.173-.845 3.476 1.51 3.538 3.321 6.951 5.857 10.054 1.267-1.551 2.475-3.227 3.38-4.965.423-.869.966-1.8 1.329-2.73.422-.993.603-1.986.302-3.104-.363-1.489-1.932-2.668-3.321-3.289zm-1.449 17.75c-2.838 2.42-5.494 5.4-6.883 8.689-.422 1.055-.905 2.11-1.207 3.227-.242.807-.302 1.675 0 2.606.543 1.18 1.509 2.048 2.536 2.669 1.69.931 3.682 1.303 5.614 1.552.966 0 1.872 0 2.838-.063.966 0 1.872-.186 2.717-.434.905-.31 1.63-.62 2.354-1.303 1.087-1.242.906-3.29.242-4.779-2.053-4.406-4.83-8.502-8.211-12.164zM146.142 42.083c-.423.683-1.328 1.055-2.113.87-.483-.249-1.027-.621-1.208-1.242-.543-1.676-.302-3.724.785-5.027.483-.559 1.268-.993 2.053-.869.785.186 1.086 1.055 1.207 1.614.423 1.551-.121 3.413-.724 4.654zM184.801 26.878c-.242.186-.423.248-.665.373-2.414 1.24-7.365 3.661-10.082 5.213a615.058 615.058 0 0 0-14.852 8.813c-.604.372-1.992 1.117-2.657 1.613-.966.31-1.328-.993-1.147-1.613 2.415-1.986 4.891-4.159 7.185-6.517 1.992-2.11 3.924-4.344 5.373-6.64 1.872-2.918 3.019-6.02 3.381-9.372.242-2.234-.121-4.22-1.087-6.02-1.026-1.924-2.656-3.6-4.588-4.965-2.777-1.986-5.736-3.537-9.056-4.158-.362-.062-.664 0-1.027.124-.362.124-.724.248-1.267.062-.242-.496-.121-.93.12-1.365l.242-.373c.664-.744 1.932-.62 2.717-.434 3.622.745 7.003 2.42 10.022 4.779 1.992 1.551 3.683 3.537 4.769 5.771 1.148 2.235 1.57 4.841 1.147 7.572-.543 3.413-1.931 6.517-3.743 9.433-1.509 2.359-3.501 4.717-5.615 6.951 3.2-2.172 6.098-3.537 9.841-5.833 3.442-2.173 6.762-3.476 10.566-4.965.543-.187 1.328.186 1.026.93-.12.31-.362.497-.603.621zM211.293 34.202c-1.087 2.42-3.32 6.02-5.735 7.385-1.268.745-2.717 1.055-4.227.745-2.656-1.242-4.709-3.166-6.158-5.586-1.751-2.793-2.717-6.206-2.958-9.558-.362-5.46 0-10.798 1.932-15.515a22.08 22.08 0 0 1 6.822-9.185c.362-.186.725-.497 1.147-.807.423-.248.906-.496 1.389-.496.845 0 .966.993.604 1.49-.242.31-.665.558-1.087.744-.302.186-.604.31-.785.558 2.777 1.117 5.011 3.103 6.702 5.462 2.354 3.227 3.682 7.137 4.286 10.923.725 4.84 0 9.681-1.932 13.84zm-3.381-22.963c-1.63-2.607-3.924-4.78-6.883-6.207-1.69 1.49-2.958 3.29-3.863 5.09-1.449 2.792-2.415 6.082-2.838 9.433-.604 4.53-.121 9.247 1.268 13.281 1.087 3.041 3.381 6.268 6.399 7.51.966.186 1.932-.062 2.657-.497 2.234-1.986 3.804-4.282 4.83-6.765 1.207-2.792 1.811-5.771 1.992-8.937-.181-4.592-1.207-9.185-3.562-12.908zM251.189 26.878c-.242.186-.423.248-.664.373-2.415 1.24-7.366 3.661-10.083 5.213a615.058 615.058 0 0 0-14.852 8.813c-.604.372-1.992 1.117-2.656 1.613-.966.31-1.329-.993-1.148-1.613 2.415-1.986 4.891-4.159 7.185-6.517 1.992-2.11 3.924-4.344 5.373-6.64 1.872-2.918 3.019-6.02 3.381-9.372.242-2.234-.121-4.22-1.086-6.02-1.027-1.924-2.657-3.6-4.589-4.965-2.777-1.986-5.736-3.537-9.056-4.158-.362-.062-.664 0-1.026.124-.363.124-.725.248-1.268.062-.242-.496-.121-.93.12-1.365l.242-.373c.664-.744 1.932-.62 2.717-.434 3.622.745 7.003 2.42 10.022 4.779 1.992 1.551 3.683 3.537 4.769 5.771 1.148 2.235 1.57 4.841 1.148 7.572-.544 3.413-1.932 6.517-3.744 9.433-1.509 2.359-3.501 4.717-5.614 6.951 3.199-2.172 6.097-3.537 9.841-5.833 3.441-2.173 6.762-3.476 10.565-4.965.543-.187 1.328.186 1.026.93-.12.31-.362.497-.603.621zM282.632 2.984c-.543.125-1.026.125-1.509.125-.423-.063-.906 0-1.329.062-2.475.558-4.83 1.427-7.003 2.73a29.262 29.262 0 0 0-6.702 5.71c-.483 2.048-.784 4.406-.422 6.578.241 1.49.785 2.918 1.932 4.035 3.622 3.6 7.728 6.144 12.014 8.192.362.248.725.744.423 1.241-4.287 4.22-9.237 7.696-14.43 10.054-1.569.683-3.682.993-5.614.62-1.087-.248-2.174-.806-2.959-1.613-.362-.372-.724-.745-.966-1.18-.241-.434-.362-.93-.121-1.613.423.124.604.31.785.497l.423.558c.724.683 1.509 1.117 2.475 1.428 1.268.372 2.778.372 4.045-.062 2.174-.683 4.227-1.8 6.219-3.041 2.596-1.676 5.011-3.724 7.426-5.834-2.234-1.366-5.071-2.917-7.607-4.779-2.234-1.614-4.106-3.538-5.253-5.958-.845-1.8-1.268-3.848-.905-6.206.483-3.103 1.328-6.765 2.535-9.434.604-.558 2.174-.31 1.691.931-.181.373-.544 1.366-.725 2.048 1.63-1.427 3.381-2.792 5.132-3.847 2.355-1.49 4.89-2.669 7.668-3.166.543.063 1.147 0 1.69.063.544.124 1.027.31 1.328.93.302.31 0 .745-.241.931z"/></mask><path d="M7.671 2.922c-.241.187-.483.31-.664.559-1.992 3.6-2.596 7.758-3.2 12.04-.543 3.848-.785 7.944-.604 11.978.182 4.592.906 8.999 2.355 12.909.302.558.543 1.117.785 1.737-.12.435-.725.497-.966.31-1.872-1.054-2.475-3.04-2.958-5.026a29.684 29.684 0 0 0-.604-2.483c-.664-3.972-.906-8.13-.785-12.288.181-5.461.966-10.923 2.294-15.826.423-.993.725-2.11 1.208-3.103.543-.993 1.207-1.924 2.354-2.42.423-.124 1.208.186 1.389.807-.06.434-.302.682-.604.806zM44.306 32.091c.363-1.551.302-3.227-.18-4.716-.484-1.49-1.45-2.98-2.838-3.786-.725-.372-1.389-.62-2.294-.62-1.268-.063-2.597.372-3.683.992-1.932 1.117-5.072 4.53-5.857 6.64-.483 1.242-.362 2.794-.241 3.725.241 1.49.905 2.855 1.57 4.158 1.147 1.303 2.535 1.862 4.286 1.8 1.932-.063 3.743-.807 5.313-1.986 1.932-1.552 3.381-3.724 3.925-6.207zm-.241 5.71c-2.415 3.041-5.796 5.151-9.66 4.84-2.536-.185-5.011-1.489-6.34-3.971-1.448-2.607-1.69-5.958-1.75-8.937-.06-3.103.785-8.502 2.113-13.591 1.328-5.152 3.14-9.992 4.89-11.978 1.148-1.242 2.415-2.483 3.804-2.67 1.871-.31 3.985.25 5.554 1.552 1.69 1.428 2.959 3.786 3.2 5.834 0 .745-.966 1.117-1.388.186-.544-1.8-2.114-3.6-3.804-4.592-.845-.497-1.57-.745-2.294-.745-1.027.062-1.932.497-3.019 1.552-1.389 1.427-2.958 5.523-4.287 10.24-1.086 3.972-1.992 8.316-2.354 11.792 1.872-3.352 5.675-6.393 9.539-6.641 2.596-.186 4.77.93 6.279 2.669 1.872 2.172 2.717 5.4 2.173 8.502a13.283 13.283 0 0 1-2.656 5.958zM62.95 42.083c-.422.683-1.328 1.055-2.113.87-.483-.249-1.026-.621-1.207-1.242-.544-1.676-.302-3.724.785-5.027.483-.559 1.267-.993 2.052-.869.785.186 1.087 1.055 1.208 1.614.422 1.551-.121 3.413-.725 4.654zM94.908 34.202c-1.087 2.42-3.321 6.02-5.736 7.385-1.268.745-2.717 1.055-4.226.745-2.657-1.242-4.71-3.166-6.158-5.586-1.751-2.793-2.717-6.206-2.959-9.558-.362-5.46 0-10.798 1.932-15.515a22.087 22.087 0 0 1 6.823-9.185c.362-.186.724-.497 1.147-.807.422-.248.905-.496 1.388-.496.846 0 .966.993.604 1.49-.241.31-.664.558-1.087.744-.301.186-.603.31-.784.558 2.777 1.117 5.01 3.103 6.701 5.462 2.355 3.227 3.683 7.137 4.287 10.923.724 4.84 0 9.681-1.932 13.84zm-3.381-22.963c-1.63-2.607-3.925-4.78-6.883-6.207-1.69 1.49-2.958 3.29-3.864 5.09-1.449 2.792-2.415 6.082-2.838 9.433-.603 4.53-.12 9.247 1.268 13.281 1.087 3.041 3.381 6.268 6.4 7.51.966.186 1.932-.062 2.656-.497 2.234-1.986 3.804-4.282 4.83-6.765 1.208-2.792 1.812-5.771 1.993-8.937-.181-4.592-1.208-9.185-3.562-12.908zM128.826 40.035a8.02 8.02 0 0 1-2.837 1.738c-1.148.372-2.355.559-3.623.62-1.268.063-2.536 0-3.803 0-2.234-.372-4.83-.992-6.762-2.42-1.208-.869-2.174-2.11-2.717-3.785a8.704 8.704 0 0 1 .181-3.538c.483-1.986 1.57-3.848 2.536-5.586 1.509-2.792 3.743-5.15 6.218-7.137a46.16 46.16 0 0 1-6.762-11.17c-.785-1.925-.422-4.159.966-5.648 1.147-1.18 2.596-1.862 4.226-2.049 1.691-.186 3.502.063 5.011.683 1.872.807 4.046 2.607 4.71 4.717.422 1.427.181 2.793-.242 3.972-.483 1.241-1.207 2.42-1.811 3.6a48.977 48.977 0 0 1-1.691 2.73c.906-.434 1.812-.93 2.778-1.303 1.147-.435 2.354-.807 3.743-.931.302 0 .302.31.302.434s-.061.31-.181.435c-2.778 1.055-5.736 2.855-8.211 4.778 4.045 4.407 7.426 9.186 9.116 14.647.604 1.862-.12 3.724-1.147 5.213zm-8.09-36.244c-1.087-.496-2.475-.807-3.804-.682-1.086.124-2.113.496-2.898 1.24-.905.87-1.207 2.173-.845 3.476 1.51 3.538 3.321 6.951 5.857 10.054 1.267-1.551 2.475-3.227 3.38-4.965.423-.869.966-1.8 1.329-2.73.422-.993.603-1.986.302-3.104-.363-1.489-1.932-2.668-3.321-3.289zm-1.449 17.75c-2.838 2.42-5.494 5.4-6.883 8.689-.422 1.055-.905 2.11-1.207 3.227-.242.807-.302 1.675 0 2.606.543 1.18 1.509 2.048 2.536 2.669 1.69.931 3.682 1.303 5.614 1.552.966 0 1.872 0 2.838-.063.966 0 1.872-.186 2.717-.434.905-.31 1.63-.62 2.354-1.303 1.087-1.242.906-3.29.242-4.779-2.053-4.406-4.83-8.502-8.211-12.164zM146.142 42.083c-.423.683-1.328 1.055-2.113.87-.483-.249-1.027-.621-1.208-1.242-.543-1.676-.302-3.724.785-5.027.483-.559 1.268-.993 2.053-.869.785.186 1.086 1.055 1.207 1.614.423 1.551-.121 3.413-.724 4.654zM184.801 26.878c-.242.186-.423.248-.665.373-2.414 1.24-7.365 3.661-10.082 5.213a615.058 615.058 0 0 0-14.852 8.813c-.604.372-1.992 1.117-2.657 1.613-.966.31-1.328-.993-1.147-1.613 2.415-1.986 4.891-4.159 7.185-6.517 1.992-2.11 3.924-4.344 5.373-6.64 1.872-2.918 3.019-6.02 3.381-9.372.242-2.234-.121-4.22-1.087-6.02-1.026-1.924-2.656-3.6-4.588-4.965-2.777-1.986-5.736-3.537-9.056-4.158-.362-.062-.664 0-1.027.124-.362.124-.724.248-1.267.062-.242-.496-.121-.93.12-1.365l.242-.373c.664-.744 1.932-.62 2.717-.434 3.622.745 7.003 2.42 10.022 4.779 1.992 1.551 3.683 3.537 4.769 5.771 1.148 2.235 1.57 4.841 1.147 7.572-.543 3.413-1.931 6.517-3.743 9.433-1.509 2.359-3.501 4.717-5.615 6.951 3.2-2.172 6.098-3.537 9.841-5.833 3.442-2.173 6.762-3.476 10.566-4.965.543-.187 1.328.186 1.026.93-.12.31-.362.497-.603.621zM211.293 34.202c-1.087 2.42-3.32 6.02-5.735 7.385-1.268.745-2.717 1.055-4.227.745-2.656-1.242-4.709-3.166-6.158-5.586-1.751-2.793-2.717-6.206-2.958-9.558-.362-5.46 0-10.798 1.932-15.515a22.08 22.08 0 0 1 6.822-9.185c.362-.186.725-.497 1.147-.807.423-.248.906-.496 1.389-.496.845 0 .966.993.604 1.49-.242.31-.665.558-1.087.744-.302.186-.604.31-.785.558 2.777 1.117 5.011 3.103 6.702 5.462 2.354 3.227 3.682 7.137 4.286 10.923.725 4.84 0 9.681-1.932 13.84zm-3.381-22.963c-1.63-2.607-3.924-4.78-6.883-6.207-1.69 1.49-2.958 3.29-3.863 5.09-1.449 2.792-2.415 6.082-2.838 9.433-.604 4.53-.121 9.247 1.268 13.281 1.087 3.041 3.381 6.268 6.399 7.51.966.186 1.932-.062 2.657-.497 2.234-1.986 3.804-4.282 4.83-6.765 1.207-2.792 1.811-5.771 1.992-8.937-.181-4.592-1.207-9.185-3.562-12.908zM251.189 26.878c-.242.186-.423.248-.664.373-2.415 1.24-7.366 3.661-10.083 5.213a615.058 615.058 0 0 0-14.852 8.813c-.604.372-1.992 1.117-2.656 1.613-.966.31-1.329-.993-1.148-1.613 2.415-1.986 4.891-4.159 7.185-6.517 1.992-2.11 3.924-4.344 5.373-6.64 1.872-2.918 3.019-6.02 3.381-9.372.242-2.234-.121-4.22-1.086-6.02-1.027-1.924-2.657-3.6-4.589-4.965-2.777-1.986-5.736-3.537-9.056-4.158-.362-.062-.664 0-1.026.124-.363.124-.725.248-1.268.062-.242-.496-.121-.93.12-1.365l.242-.373c.664-.744 1.932-.62 2.717-.434 3.622.745 7.003 2.42 10.022 4.779 1.992 1.551 3.683 3.537 4.769 5.771 1.148 2.235 1.57 4.841 1.148 7.572-.544 3.413-1.932 6.517-3.744 9.433-1.509 2.359-3.501 4.717-5.614 6.951 3.199-2.172 6.097-3.537 9.841-5.833 3.441-2.173 6.762-3.476 10.565-4.965.543-.187 1.328.186 1.026.93-.12.31-.362.497-.603.621zM282.632 2.984c-.543.125-1.026.125-1.509.125-.423-.063-.906 0-1.329.062-2.475.558-4.83 1.427-7.003 2.73a29.262 29.262 0 0 0-6.702 5.71c-.483 2.048-.784 4.406-.422 6.578.241 1.49.785 2.918 1.932 4.035 3.622 3.6 7.728 6.144 12.014 8.192.362.248.725.744.423 1.241-4.287 4.22-9.237 7.696-14.43 10.054-1.569.683-3.682.993-5.614.62-1.087-.248-2.174-.806-2.959-1.613-.362-.372-.724-.745-.966-1.18-.241-.434-.362-.93-.121-1.613.423.124.604.31.785.497l.423.558c.724.683 1.509 1.117 2.475 1.428 1.268.372 2.778.372 4.045-.062 2.174-.683 4.227-1.8 6.219-3.041 2.596-1.676 5.011-3.724 7.426-5.834-2.234-1.366-5.071-2.917-7.607-4.779-2.234-1.614-4.106-3.538-5.253-5.958-.845-1.8-1.268-3.848-.905-6.206.483-3.103 1.328-6.765 2.535-9.434.604-.558 2.174-.31 1.691.931-.181.373-.544 1.366-.725 2.048 1.63-1.427 3.381-2.792 5.132-3.847 2.355-1.49 4.89-2.669 7.668-3.166.543.063 1.147 0 1.69.063.544.124 1.027.31 1.328.93.302.31 0 .745-.241.931z" fill="#fff"/><path d="M7.671 2.922c-.241.187-.483.31-.664.559-1.992 3.6-2.596 7.758-3.2 12.04-.543 3.848-.785 7.944-.604 11.978.182 4.592.906 8.999 2.355 12.909.302.558.543 1.117.785 1.737-.12.435-.725.497-.966.31-1.872-1.054-2.475-3.04-2.958-5.026a29.684 29.684 0 0 0-.604-2.483c-.664-3.972-.906-8.13-.785-12.288.181-5.461.966-10.923 2.294-15.826.423-.993.725-2.11 1.208-3.103.543-.993 1.207-1.924 2.354-2.42.423-.124 1.208.186 1.389.807-.06.434-.302.682-.604.806zM44.306 32.091c.363-1.551.302-3.227-.18-4.716-.484-1.49-1.45-2.98-2.838-3.786-.725-.372-1.389-.62-2.294-.62-1.268-.063-2.597.372-3.683.992-1.932 1.117-5.072 4.53-5.857 6.64-.483 1.242-.362 2.794-.241 3.725.241 1.49.905 2.855 1.57 4.158 1.147 1.303 2.535 1.862 4.286 1.8 1.932-.063 3.743-.807 5.313-1.986 1.932-1.552 3.381-3.724 3.925-6.207zm-.241 5.71c-2.415 3.041-5.796 5.151-9.66 4.84-2.536-.185-5.011-1.489-6.34-3.971-1.448-2.607-1.69-5.958-1.75-8.937-.06-3.103.785-8.502 2.113-13.591 1.328-5.152 3.14-9.992 4.89-11.978 1.148-1.242 2.415-2.483 3.804-2.67 1.871-.31 3.985.25 5.554 1.552 1.69 1.428 2.959 3.786 3.2 5.834 0 .745-.966 1.117-1.388.186-.544-1.8-2.114-3.6-3.804-4.592-.845-.497-1.57-.745-2.294-.745-1.027.062-1.932.497-3.019 1.552-1.389 1.427-2.958 5.523-4.287 10.24-1.086 3.972-1.992 8.316-2.354 11.792 1.872-3.352 5.675-6.393 9.539-6.641 2.596-.186 4.77.93 6.279 2.669 1.872 2.172 2.717 5.4 2.173 8.502a13.283 13.283 0 0 1-2.656 5.958zM62.95 42.083c-.422.683-1.328 1.055-2.113.87-.483-.249-1.026-.621-1.207-1.242-.544-1.676-.302-3.724.785-5.027.483-.559 1.267-.993 2.052-.869.785.186 1.087 1.055 1.208 1.614.422 1.551-.121 3.413-.725 4.654zM94.908 34.202c-1.087 2.42-3.321 6.02-5.736 7.385-1.268.745-2.717 1.055-4.226.745-2.657-1.242-4.71-3.166-6.158-5.586-1.751-2.793-2.717-6.206-2.959-9.558-.362-5.46 0-10.798 1.932-15.515a22.087 22.087 0 0 1 6.823-9.185c.362-.186.724-.497 1.147-.807.422-.248.905-.496 1.388-.496.846 0 .966.993.604 1.49-.241.31-.664.558-1.087.744-.301.186-.603.31-.784.558 2.777 1.117 5.01 3.103 6.701 5.462 2.355 3.227 3.683 7.137 4.287 10.923.724 4.84 0 9.681-1.932 13.84zm-3.381-22.963c-1.63-2.607-3.925-4.78-6.883-6.207-1.69 1.49-2.958 3.29-3.864 5.09-1.449 2.792-2.415 6.082-2.838 9.433-.603 4.53-.12 9.247 1.268 13.281 1.087 3.041 3.381 6.268 6.4 7.51.966.186 1.932-.062 2.656-.497 2.234-1.986 3.804-4.282 4.83-6.765 1.208-2.792 1.812-5.771 1.993-8.937-.181-4.592-1.208-9.185-3.562-12.908zM128.826 40.035a8.02 8.02 0 0 1-2.837 1.738c-1.148.372-2.355.559-3.623.62-1.268.063-2.536 0-3.803 0-2.234-.372-4.83-.992-6.762-2.42-1.208-.869-2.174-2.11-2.717-3.785a8.704 8.704 0 0 1 .181-3.538c.483-1.986 1.57-3.848 2.536-5.586 1.509-2.792 3.743-5.15 6.218-7.137a46.16 46.16 0 0 1-6.762-11.17c-.785-1.925-.422-4.159.966-5.648 1.147-1.18 2.596-1.862 4.226-2.049 1.691-.186 3.502.063 5.011.683 1.872.807 4.046 2.607 4.71 4.717.422 1.427.181 2.793-.242 3.972-.483 1.241-1.207 2.42-1.811 3.6a48.977 48.977 0 0 1-1.691 2.73c.906-.434 1.812-.93 2.778-1.303 1.147-.435 2.354-.807 3.743-.931.302 0 .302.31.302.434s-.061.31-.181.435c-2.778 1.055-5.736 2.855-8.211 4.778 4.045 4.407 7.426 9.186 9.116 14.647.604 1.862-.12 3.724-1.147 5.213zm-8.09-36.244c-1.087-.496-2.475-.807-3.804-.682-1.086.124-2.113.496-2.898 1.24-.905.87-1.207 2.173-.845 3.476 1.51 3.538 3.321 6.951 5.857 10.054 1.267-1.551 2.475-3.227 3.38-4.965.423-.869.966-1.8 1.329-2.73.422-.993.603-1.986.302-3.104-.363-1.489-1.932-2.668-3.321-3.289zm-1.449 17.75c-2.838 2.42-5.494 5.4-6.883 8.689-.422 1.055-.905 2.11-1.207 3.227-.242.807-.302 1.675 0 2.606.543 1.18 1.509 2.048 2.536 2.669 1.69.931 3.682 1.303 5.614 1.552.966 0 1.872 0 2.838-.063.966 0 1.872-.186 2.717-.434.905-.31 1.63-.62 2.354-1.303 1.087-1.242.906-3.29.242-4.779-2.053-4.406-4.83-8.502-8.211-12.164zM146.142 42.083c-.423.683-1.328 1.055-2.113.87-.483-.249-1.027-.621-1.208-1.242-.543-1.676-.302-3.724.785-5.027.483-.559 1.268-.993 2.053-.869.785.186 1.086 1.055 1.207 1.614.423 1.551-.121 3.413-.724 4.654zM184.801 26.878c-.242.186-.423.248-.665.373-2.414 1.24-7.365 3.661-10.082 5.213a615.058 615.058 0 0 0-14.852 8.813c-.604.372-1.992 1.117-2.657 1.613-.966.31-1.328-.993-1.147-1.613 2.415-1.986 4.891-4.159 7.185-6.517 1.992-2.11 3.924-4.344 5.373-6.64 1.872-2.918 3.019-6.02 3.381-9.372.242-2.234-.121-4.22-1.087-6.02-1.026-1.924-2.656-3.6-4.588-4.965-2.777-1.986-5.736-3.537-9.056-4.158-.362-.062-.664 0-1.027.124-.362.124-.724.248-1.267.062-.242-.496-.121-.93.12-1.365l.242-.373c.664-.744 1.932-.62 2.717-.434 3.622.745 7.003 2.42 10.022 4.779 1.992 1.551 3.683 3.537 4.769 5.771 1.148 2.235 1.57 4.841 1.147 7.572-.543 3.413-1.931 6.517-3.743 9.433-1.509 2.359-3.501 4.717-5.615 6.951 3.2-2.172 6.098-3.537 9.841-5.833 3.442-2.173 6.762-3.476 10.566-4.965.543-.187 1.328.186 1.026.93-.12.31-.362.497-.603.621zM211.293 34.202c-1.087 2.42-3.32 6.02-5.735 7.385-1.268.745-2.717 1.055-4.227.745-2.656-1.242-4.709-3.166-6.158-5.586-1.751-2.793-2.717-6.206-2.958-9.558-.362-5.46 0-10.798 1.932-15.515a22.08 22.08 0 0 1 6.822-9.185c.362-.186.725-.497 1.147-.807.423-.248.906-.496 1.389-.496.845 0 .966.993.604 1.49-.242.31-.665.558-1.087.744-.302.186-.604.31-.785.558 2.777 1.117 5.011 3.103 6.702 5.462 2.354 3.227 3.682 7.137 4.286 10.923.725 4.84 0 9.681-1.932 13.84zm-3.381-22.963c-1.63-2.607-3.924-4.78-6.883-6.207-1.69 1.49-2.958 3.29-3.863 5.09-1.449 2.792-2.415 6.082-2.838 9.433-.604 4.53-.121 9.247 1.268 13.281 1.087 3.041 3.381 6.268 6.399 7.51.966.186 1.932-.062 2.657-.497 2.234-1.986 3.804-4.282 4.83-6.765 1.207-2.792 1.811-5.771 1.992-8.937-.181-4.592-1.207-9.185-3.562-12.908zM251.189 26.878c-.242.186-.423.248-.664.373-2.415 1.24-7.366 3.661-10.083 5.213a615.058 615.058 0 0 0-14.852 8.813c-.604.372-1.992 1.117-2.656 1.613-.966.31-1.329-.993-1.148-1.613 2.415-1.986 4.891-4.159 7.185-6.517 1.992-2.11 3.924-4.344 5.373-6.64 1.872-2.918 3.019-6.02 3.381-9.372.242-2.234-.121-4.22-1.086-6.02-1.027-1.924-2.657-3.6-4.589-4.965-2.777-1.986-5.736-3.537-9.056-4.158-.362-.062-.664 0-1.026.124-.363.124-.725.248-1.268.062-.242-.496-.121-.93.12-1.365l.242-.373c.664-.744 1.932-.62 2.717-.434 3.622.745 7.003 2.42 10.022 4.779 1.992 1.551 3.683 3.537 4.769 5.771 1.148 2.235 1.57 4.841 1.148 7.572-.544 3.413-1.932 6.517-3.744 9.433-1.509 2.359-3.501 4.717-5.614 6.951 3.199-2.172 6.097-3.537 9.841-5.833 3.441-2.173 6.762-3.476 10.565-4.965.543-.187 1.328.186 1.026.93-.12.31-.362.497-.603.621zM282.632 2.984c-.543.125-1.026.125-1.509.125-.423-.063-.906 0-1.329.062-2.475.558-4.83 1.427-7.003 2.73a29.262 29.262 0 0 0-6.702 5.71c-.483 2.048-.784 4.406-.422 6.578.241 1.49.785 2.918 1.932 4.035 3.622 3.6 7.728 6.144 12.014 8.192.362.248.725.744.423 1.241-4.287 4.22-9.237 7.696-14.43 10.054-1.569.683-3.682.993-5.614.62-1.087-.248-2.174-.806-2.959-1.613-.362-.372-.724-.745-.966-1.18-.241-.434-.362-.93-.121-1.613.423.124.604.31.785.497l.423.558c.724.683 1.509 1.117 2.475 1.428 1.268.372 2.778.372 4.045-.062 2.174-.683 4.227-1.8 6.219-3.041 2.596-1.676 5.011-3.724 7.426-5.834-2.234-1.366-5.071-2.917-7.607-4.779-2.234-1.614-4.106-3.538-5.253-5.958-.845-1.8-1.268-3.848-.905-6.206.483-3.103 1.328-6.765 2.535-9.434.604-.558 2.174-.31 1.691.931-.181.373-.544 1.366-.725 2.048 1.63-1.427 3.381-2.792 5.132-3.847 2.355-1.49 4.89-2.669 7.668-3.166.543.063 1.147 0 1.69.063.544.124 1.027.31 1.328.93.302.31 0 .745-.241.931z" stroke="#fff" stroke-width="2" mask="url(#a)"/></svg>