<svg width="374" height="56" fill="none" xmlns="http://www.w3.org/2000/svg"><path d="M24.16 22.176c-.544-.192-.864-.704-1.088-1.184l-.224-.48c-1.312-2.816-1.952-5.888-2.592-8.96-.352-1.728-1.472-6.976-1.824-9.216 0-.032-.064-.064-.096-.032-1.792 3.52-3.328 7.04-4.608 10.816l-1.184 3.456c-.16.288-.448.736-.992.704-.448 0-.704-.48-.8-.736-1.408-4.224-2.944-8.48-4.96-12.384-.032 0-.096-.032-.096 0-.992 2.816-1.952 5.632-2.592 8.576-.48 2.112-.864 4.32-1.056 6.592-.032.416 0 .992.32 1.216 0 .224-.16.416-.384.448-.384 0-.736-.16-.896-.512-.32-.8-.032-1.664-.032-2.464.256-2.272.704-4.48 1.28-6.688.736-2.88 1.664-5.696 2.656-8.48.064-.16.256-.48.512-.544.192-.032.384.032.448.128.064.064.096.128.16.16l.064.096.064.064c2.08 3.712 4.032 9.056 5.44 12.992 1.76-5.024 3.616-10.016 6.112-14.688.096-.256.544-.48.896-.384.384.096.544.416.672.672.608 3.264 1.088 6.656 1.76 9.92.576 2.72 1.248 5.376 2.304 7.872.256.64.768 2.016 1.088 2.688.128.224-.192.384-.352.352zm8.873-.896c-1.44.736-3.168 1.056-4.736.288a4.889 4.889 0 0 1-2.496-2.912c-.48-1.504-.32-3.2.32-4.608a7.18 7.18 0 0 1 2.08-2.592c.576-.416 1.44-.928 2.24-1.024.64-.736 1.696-.96 2.592-.736 1.536.416 2.848 1.984 3.264 3.36.416 1.344.512 2.816.128 4.192-.48 1.856-1.696 3.2-3.392 4.032zm2.208-7.872c-.384-1.056-1.248-2.24-2.368-2.624-.512-.192-1.056-.256-1.472.064-.416.32-.672.832-.864 1.28-.032.096-.032.224-.032.352 0 .128 0 .288-.032.416-.032.064-.352.256-.448.064a5.35 5.35 0 0 1-.096-1.312c-1.216.512-2.24 1.568-2.816 2.752-.608 1.248-.64 2.688-.256 3.968.32.992.928 1.824 1.952 2.24 1.28.48 2.656.32 3.808-.256 1.312-.672 2.24-1.696 2.688-3.072.416-1.216.352-2.656-.064-3.872zm8.536 8.512c-1.216.16-2.496.064-3.712-.672-1.6-.96-2.304-2.624-2.208-4.48a8.174 8.174 0 0 1 1.344-4 8.05 8.05 0 0 1 3.264-2.848c.704-.352 1.664-.512 2.432-.192.64.256 1.312.928 1.44 1.568.064.192-.256.608-.512.416-.352-.32-.8-.736-1.248-.928-.448-.192-.864-.224-1.344-.032-1.248.512-2.4 1.504-3.168 2.688a7.131 7.131 0 0 0-1.152 3.68c0 1.184.448 2.304 1.44 3.04.928.672 2.144.832 3.264.736 1.888-.16 3.552-.96 5.216-1.696.192 0 .48.32.32.544-1.6.896-3.424 1.888-5.376 2.176zm17.245.064c-1.536-.864-3.105-1.472-4.736-2.048-1.6-.576-3.136-1.152-4.672-1.824a11.881 11.881 0 0 0 .416 3.392c.096.192.032.544-.257.544-.256 0-.416-.16-.512-.32-.096-.128-.16-.32-.256-.48-.352-1.152-.48-2.4-.48-3.68a.713.713 0 0 1-.288-.32c-.096-.096-.128-.288-.032-.448a.895.895 0 0 0 .288-.416c.064-.416.032-1.376.128-1.792.128-.736.32-1.632.512-2.528.224-.896.544-1.792.96-2.56.192-.32.672-.256.768.096-.031.416-.16.8-.287 1.184-.096.352-.288.736-.384 1.12a14.677 14.677 0 0 0-.544 3.552 57.293 57.293 0 0 1 3.487-2.88c1.472-1.088 3.04-2.016 4.704-2.688.256 0 .576 0 .768.16.193.128.193.32.097.544-1.697.704-3.233 1.632-4.8 2.72a40.7 40.7 0 0 0-4.32 3.584v.032c1.568.864 3.295 1.44 4.96 2.016 1.471.512 2.88 1.088 4.224 1.952.288.16.512.384.672.672.031.192-.224.448-.416.416zm8.792-.704c-1.44.736-3.168 1.056-4.736.288a4.89 4.89 0 0 1-2.496-2.912c-.48-1.504-.32-3.2.32-4.608a7.18 7.18 0 0 1 2.08-2.592c.576-.416 1.44-.928 2.24-1.024.64-.736 1.696-.96 2.592-.736 1.536.416 2.848 1.984 3.264 3.36.416 1.344.512 2.816.128 4.192-.48 1.856-1.696 3.2-3.392 4.032zm2.208-7.872c-.384-1.056-1.248-2.24-2.368-2.624-.512-.192-1.056-.256-1.472.064-.416.32-.672.832-.864 1.28-.032.096-.032.224-.032.352 0 .128 0 .288-.032.416-.032.064-.352.256-.448.064a5.35 5.35 0 0 1-.096-1.312c-1.216.512-2.24 1.568-2.816 2.752-.608 1.248-.64 2.688-.256 3.968.32.992.928 1.824 1.952 2.24 1.28.48 2.656.32 3.808-.256 1.312-.672 2.24-1.696 2.688-3.072.416-1.216.352-2.656-.064-3.872zm9.144 7.776c-.96.64-2.144 1.152-3.328 1.152-.671 0-1.151-.288-1.6-.928-.16.128-.448.224-.576.032-.576-.8-.736-1.92-.768-3.008-.064-2.784-.032-4.832.704-7.328.064-.256.672-.736 1.12-.608.192-.512.704-1.056 1.313-1.12 1.631 0 3.391.864 3.935 2.496.16.512.16 1.056-.031 1.568-.192.48-.513.896-.928 1.216l-.193.16c.8.256 1.697.768 2.209 1.568.383.608.416 1.344.255 2.048-.288 1.152-1.12 2.08-2.112 2.752zm.897-4.256c-.257-.48-.96-.768-1.472-1.024-.608-.384-1.152-.224-1.76-.096l-.96.224a2.09 2.09 0 0 1-1.088 0c-.16-.096-.353-.416-.192-.576.384-.384.864-.576 1.408-.704l1.472-.16c.575-.32 1.183-.96 1.44-1.568.16-.512.064-.864-.257-1.28-.575-.8-1.504-1.152-2.431-1.248-.288-.032-.385.032-.448.224-.097.256-.16.544-.32.768-.064.16-.288.224-.448.128a.619.619 0 0 1-.288-.16c-.384 1.376-.608 2.944-.672 4.576-.064 1.536 0 3.04.224 4.448.255-.288.576-.704.736-.928.224-.224.64.128.575.352-.063.16-.191.352-.287.512-.064.192-.16.352-.16.48.191.288.64.384 1.183.32.8-.128 1.76-.576 2.465-1.12.64-.512 1.183-1.152 1.343-1.952.096-.384.16-.832-.064-1.216zm8.402 4.992c-1.216.16-2.496.064-3.712-.672-1.6-.96-2.304-2.624-2.208-4.48a8.174 8.174 0 0 1 1.344-4 8.05 8.05 0 0 1 3.264-2.848c.704-.352 1.664-.512 2.432-.192.64.256 1.312.928 1.44 1.568.064.192-.256.608-.512.416-.352-.32-.8-.736-1.248-.928-.448-.192-.864-.224-1.344-.032-1.248.512-2.4 1.504-3.168 2.688a7.131 7.131 0 0 0-1.152 3.68c0 1.184.448 2.304 1.44 3.04.928.672 2.144.832 3.264.736 1.888-.16 3.552-.96 5.216-1.696.192 0 .48.32.32.544-1.6.896-3.424 1.888-5.376 2.176zm17.244.064c-1.536-.864-3.104-1.472-4.736-2.048-1.6-.576-3.136-1.152-4.672-1.824a11.881 11.881 0 0 0 .416 3.392c.096.192.032.544-.256.544-.256 0-.416-.16-.512-.32-.096-.128-.16-.32-.256-.48-.352-1.152-.48-2.4-.48-3.68a.713.713 0 0 1-.288-.32c-.096-.096-.128-.288-.032-.448a.895.895 0 0 0 .288-.416c.064-.416.032-1.376.128-1.792.128-.736.32-1.632.512-2.528.224-.896.544-1.792.96-2.56.192-.32.672-.256.768.096-.032.416-.16.8-.288 1.184-.096.352-.288.736-.384 1.12a14.677 14.677 0 0 0-.544 3.552 57.293 57.293 0 0 1 3.488-2.88c1.472-1.088 3.04-2.016 4.704-2.688.256 0 .576 0 .768.16.192.128.192.32.096.544-1.696.704-3.232 1.632-4.8 2.72a40.7 40.7 0 0 0-4.32 3.584v.032c1.568.864 3.296 1.44 4.96 2.016 1.472.512 2.88 1.088 4.224 1.952.288.16.512.384.672.672.032.192-.224.448-.416.416zm7.673-.064c-1.76.48-3.808.448-5.184-.736-.64-.544-1.12-1.344-1.152-2.208-.032-.768.288-1.472.736-2.112.992-1.408 2.72-2.368 4.384-2.56.704-.064 1.344.032 1.856.544.16.16 0 .48-.16.544h-.288c-.096 0-.224-.032-.32-.032-.224-.032-.416-.064-.544.032-1.536.064-3.04.8-3.968 2.048-.416.544-.64.96-.576 1.632.064.896.736 1.568 1.664 1.888 1.311.48 2.944.192 4.192-.256.672-.256 1.28-.512 1.856-.928.128-.096.256 0 .32.16.032.128.032.256.032.352-.448.864-2.24 1.472-2.848 1.632zm1.792-2.176c-.16.192-.448.16-.576.064-.32-.224-.32-.64-.32-.96.032-.544.128-1.088.256-1.664l.416-1.76c.256-1.152.416-2.304.064-3.264-.288-.832-.992-1.664-1.856-1.76-.736-.096-1.472.16-2.08.608-.32.224-1.024.832-1.216 1.184-.032.128.032.352.16.48s.032.512-.256.448c-.224-.064-.48-.128-.672-.288-.256-.224-.352-.64-.16-.96.544-.928 1.312-1.696 2.304-2.144a3.642 3.642 0 0 1 2.208-.32c.96.16 1.792.864 2.272 1.76.736 1.376.64 3.104.288 4.64-.32 1.312-.64 2.528-.832 3.936zm10.688-8.512a59.98 59.98 0 0 1-.256 9.888 3.43 3.43 0 0 0-.192.544c-.096.192-.16.384-.32.576-.064.128-.48.192-.576-.032.064-.736.416-4.608.32-6.272-2.336 1.344-4.512 3.712-6.144 5.92-.16.16-.544.16-.608-.16 0-.576.224-1.024.544-1.472.32-.416.704-.8.992-1.248.8-.96 1.728-1.76 2.688-2.528-.768.064-1.568 0-2.336-.352-.864-.384-1.44-1.12-1.568-2.08-.096-.576 0-1.184.288-1.632.576-.896 1.344-1.664 2.208-2.176 1.024-.608 2.144-.928 3.392-.832.672.224 1.44.448 1.76 1.152.064.224.064.512-.192.704zm-1.056 1.376c0-.704-.032-1.376-.128-2.016-.576-.224-1.056-.288-1.696-.096-.672.192-1.472.512-2.112.992-.768.576-1.344 1.312-1.376 2.272.064.416.224.832.576 1.152.448.288 1.024.448 1.536.48 1.152.096 2.336-.256 3.232-.704-.032-.672-.032-1.376-.032-2.08zm19.508 8.672c-1.44.736-3.168 1.056-4.736.288a4.89 4.89 0 0 1-2.496-2.912c-.48-1.504-.32-3.2.32-4.608a7.18 7.18 0 0 1 2.08-2.592c.576-.416 1.44-.928 2.24-1.024.64-.736 1.696-.96 2.592-.736 1.536.416 2.848 1.984 3.264 3.36.416 1.344.512 2.816.128 4.192-.48 1.856-1.696 3.2-3.392 4.032zm2.208-7.872c-.384-1.056-1.248-2.24-2.368-2.624-.512-.192-1.056-.256-1.472.064-.416.32-.672.832-.864 1.28-.032.096-.032.224-.032.352 0 .128 0 .288-.032.416-.032.064-.352.256-.448.064a5.35 5.35 0 0 1-.096-1.312c-1.216.512-2.24 1.568-2.816 2.752-.608 1.248-.64 2.688-.256 3.968.32.992.928 1.824 1.952 2.24 1.28.48 2.656.32 3.808-.256 1.312-.672 2.24-1.696 2.688-3.072.416-1.216.352-2.656-.064-3.872zm12.857-10.912c-.704.256-1.472.416-2.176.672-1.28.416-2.144.96-3.04 1.952-.897.96-1.472 2.112-1.984 3.328-.512 1.248-.864 2.624-1.248 3.936 1.152-.8 2.496-1.504 3.904-1.728a5.247 5.247 0 0 1 3.712.736c1.152.736 1.92 2.016 2.24 3.36.32 1.44.192 2.784-.544 4.064a6.43 6.43 0 0 1-2.848 2.688c-1.024.512-2.368.672-3.584.48-1.408-.192-2.528-.832-3.36-1.952-.896-1.216-1.152-2.688-1.12-4.192.064-2.08.672-4.32 1.216-6.016.672-2.048 1.632-4.288 3.296-5.888.8-.768 1.76-1.376 2.784-1.728.704-.224 1.44-.384 2.176-.608.704-.224 1.376-.512 1.984-1.024.192-.032.512 0 .576.192.128.192.128.448 0 .608a5.368 5.368 0 0 1-1.984 1.12zm-.064 11.392a3.582 3.582 0 0 0-2.176-1.92c-.928-.32-2.112-.256-3.04.032-1.28.384-2.464 1.152-3.488 2.08-.288 1.408-.256 3.104.224 4.384.224.64.672 1.216 1.248 1.664.96.768 1.952.864 3.168.736 1.311-.128 2.496-.736 3.456-1.728.768-.768 1.088-1.536 1.12-2.656.032-.928-.16-1.856-.512-2.592zm13.665 7.744c-.416.032-.704-.416-.896-.736a19.488 19.488 0 0 1-1.696-3.936c-.544-1.696-.832-3.424-.96-5.28-.96 1.472-2.56 4.16-3.552 5.6-1.024 1.536-2.048 3.168-2.88 4.704-.096.224-.448.064-.576-.128-.16-.288-.096-.672-.032-.96.192-.288.544-1.024.736-1.44 2.08-3.168 4.256-6.4 6.176-9.568.224-.224.992-.352 1.056.256.16 1.952.448 3.904.896 5.76a23.044 23.044 0 0 0 1.984 5.248c.032.096 0 .448-.256.48zm7.652.288c-1.76.48-3.808.448-5.184-.736-.64-.544-1.12-1.344-1.152-2.208-.032-.768.288-1.472.736-2.112.992-1.408 2.72-2.368 4.384-2.56.704-.064 1.344.032 1.856.544.16.16 0 .48-.16.544h-.288c-.096 0-.224-.032-.32-.032-.224-.032-.416-.064-.544.032-1.536.064-3.04.8-3.968 2.048-.416.544-.64.96-.576 1.632.064.896.736 1.568 1.664 1.888 1.311.48 2.944.192 4.192-.256.672-.256 1.28-.512 1.856-.928.128-.096.256 0 .32.16.032.128.032.256.032.352-.448.864-2.24 1.472-2.848 1.632zm1.792-2.176c-.16.192-.448.16-.576.064-.32-.224-.32-.64-.32-.96.032-.544.128-1.088.256-1.664l.416-1.76c.256-1.152.416-2.304.064-3.264-.288-.832-.992-1.664-1.856-1.76-.736-.096-1.472.16-2.08.608-.32.224-1.024.832-1.216 1.184-.032.128.032.352.16.48s.032.512-.256.448c-.224-.064-.48-.128-.672-.288-.256-.224-.352-.64-.16-.96.544-.928 1.312-1.696 2.304-2.144a3.642 3.642 0 0 1 2.208-.32c.96.16 1.792.864 2.272 1.76.736 1.376.64 3.104.288 4.64-.32 1.312-.64 2.528-.832 3.936zm8.416 2.176c-1.216.16-2.496.064-3.712-.672-1.6-.96-2.304-2.624-2.208-4.48a8.174 8.174 0 0 1 1.344-4 8.05 8.05 0 0 1 3.264-2.848c.704-.352 1.664-.512 2.432-.192.64.256 1.312.928 1.44 1.568.064.192-.256.608-.512.416-.352-.32-.8-.736-1.248-.928-.448-.192-.864-.224-1.344-.032-1.248.512-2.4 1.504-3.168 2.688a7.131 7.131 0 0 0-1.152 3.68c0 1.184.448 2.304 1.44 3.04.928.672 2.144.832 3.264.736 1.888-.16 3.552-.96 5.216-1.696.192 0 .48.32.32.544-1.6.896-3.424 1.888-5.376 2.176zm16.124-10.912c-.832-.192-1.664-.384-2.528-.416-.704.896-1.056 1.952-1.248 3.072-.224 1.152-.192 2.368-.256 3.552-.064 1.6.064 3.136.256 4.64-.096.192-.384.32-.608.192-.544-.672-.672-1.536-.704-2.4-.032-1.92-.064-3.936.224-5.824.192-1.216.544-2.336 1.28-3.36-1.984-.096-3.808.32-5.632.832a1.009 1.009 0 0 1-.704-.448c-.064-.224.064-.352.192-.416l.192-.064.16-.064c1.344-.544 2.976-.832 4.544-.864 1.6-.064 3.2.096 4.608.608.16.064.448.288.544.48.032.224-.128.512-.32.48zm8.244 8.896c-.704.704-1.536 1.312-2.464 1.696-.8.32-1.728.416-2.688.128-.032.16-.16.352-.32.352-.512-.192-.704-.672-.8-1.088-.224-3.872.192-7.68.863-11.296.161-.352.801-.544.993-.032-.192 1.856-.544 3.712-.64 5.568 1.12-.864 2.56-1.28 3.968-.96.928.224 1.856 1.056 2.144 1.984.448 1.344-.032 2.688-1.056 3.648zm-1.344-4.512c-1.44-.352-2.784.288-3.808 1.376 0 1.184 0 2.976-.032 3.968a3.83 3.83 0 0 0 2.4-.224c.96-.384 1.824-1.12 2.496-1.984.48-.608.512-1.568.128-2.24-.224-.448-.736-.8-1.184-.896zm6.553 11.424c-.16.096-.352-.064-.352-.224.64-1.088 1.792-3.776 1.632-5.024-.352.032-.704.128-1.024.096-.448-.064-.672-.352-.736-.768-.064-.48.16-.992.416-1.376a1.497 1.497 0 0 1 1.024-.608c1.024-.128 1.536.768 1.568 1.664.064 1.792-.96 4.352-2.528 6.24zm23.861-7.712c-1.248 1.152-2.784 1.92-4.288 2.304-.576.128-1.216.32-1.888.448a5.886 5.886 0 0 1-1.984 0c-.224-.064-.48-.256-.576-.512-.064-.736.416-1.408.992-1.696.256-.128.448.256.32.48-.128.288-.352.448-.352.768.224.16.576.096.864.064.096-.672.128-1.472.096-2.176l-.224-7.072c-.096-2.72.096-5.632 1.12-8.032.16-.256.736-.512.896 0-.16.704-.352 1.376-.48 2.08a14.777 14.777 0 0 0-.256 2.08l-.16 3.168c.224-.032.48-.128.736-.192.288-.064.608-.128.928-.096 1.92.16 3.808.48 5.376 1.568.928.64 1.376 1.696 1.28 2.848-.288 1.504-1.216 2.88-2.4 3.968zm.608-5.824c-.672-.512-1.504-.768-2.304-1.056-1.312-.288-2.848-.512-4.192-.192-.096 2.912.352 5.76.064 8.672 1.76-.384 3.616-1.184 5.024-2.432a7.001 7.001 0 0 0 2.08-3.04c.128-.736-.032-1.472-.672-1.952zm-.096-10.336c.064-.32-.032-.576-.256-.64-1.664-.544-3.552-.576-5.44-.544-.128 0-.416.096-.576.16l-.192.096c-.32.064-.576-.128-.64-.32-.064-.384.224-.64.512-.768.256-.224.64-.192.992-.224.096 0 .192 0 .32-.032 1.056.032 2.144.032 3.168.16s2.048.352 2.976.8c.096.128.192.256.224.384.064.16.064.32-.064.512-.224.256-.544.544-1.024.416zm10.68 18.336c-1.44.736-3.168 1.056-4.736.288a4.89 4.89 0 0 1-2.496-2.912c-.48-1.504-.32-3.2.32-4.608a7.18 7.18 0 0 1 2.08-2.592c.576-.416 1.44-.928 2.24-1.024.64-.736 1.696-.96 2.592-.736 1.536.416 2.848 1.984 3.264 3.36.416 1.344.512 2.816.128 4.192-.48 1.856-1.696 3.2-3.392 4.032zm2.208-7.872c-.384-1.056-1.248-2.24-2.368-2.624-.512-.192-1.056-.256-1.472.064-.416.32-.672.832-.864 1.28-.032.096-.032.224-.032.352 0 .128 0 .288-.032.416-.032.064-.352.256-.448.064a5.35 5.35 0 0 1-.096-1.312c-1.216.512-2.24 1.568-2.816 2.752-.608 1.248-.64 2.688-.256 3.968.32.992.928 1.824 1.952 2.24 1.28.48 2.656.32 3.808-.256 1.312-.672 2.24-1.696 2.688-3.072.416-1.216.352-2.656-.064-3.872zm12.729-1.088c-1.184-.608-2.464-.992-3.776-1.216-1.376-.224-2.944-.32-4.064-.288-.096.032-.256.064-.256.16.032 3.104-.256 6.464-.448 9.632-.064.224-.064.448-.128.672-.032.224-.096.448-.256.608-.16.16-.736.384-.832 0 .128-1.888.416-6.272.48-7.936l.128-3.712c.384-.448.896-.544 1.44-.512.256 0 .544 0 .8.032s.512.032.768 0c1.952.128 3.84.512 5.504 1.376.416.192.8.48 1.056.928.064.256-.288.352-.416.256zm8.907 8.96c-1.44.736-3.168 1.056-4.736.288a4.89 4.89 0 0 1-2.496-2.912c-.48-1.504-.32-3.2.32-4.608a7.18 7.18 0 0 1 2.08-2.592c.576-.416 1.44-.928 2.24-1.024.64-.736 1.696-.96 2.592-.736 1.536.416 2.848 1.984 3.264 3.36.416 1.344.512 2.816.128 4.192-.48 1.856-1.696 3.2-3.392 4.032zm2.208-7.872c-.384-1.056-1.248-2.24-2.368-2.624-.512-.192-1.056-.256-1.472.064-.416.32-.672.832-.864 1.28-.032.096-.032.224-.032.352 0 .128 0 .288-.032.416-.032.064-.352.256-.448.064a5.35 5.35 0 0 1-.096-1.312c-1.216.512-2.24 1.568-2.816 2.752-.608 1.248-.64 2.688-.256 3.968.32.992.928 1.824 1.952 2.24 1.28.48 2.656.32 3.808-.256 1.312-.672 2.24-1.696 2.688-3.072.416-1.216.352-2.656-.064-3.872zm4.409-2.4h-.16a.264.264 0 0 1-.256-.224c-.032-.256.064-.48.256-.672a2.35 2.35 0 0 1 1.728-.608c.448.032.896.096 1.344.256l1.216.416c1.727.576 3.232 2.112 4.064 3.776.448.928.608 1.888.384 2.944-.224.96-.8 1.856-1.568 2.592-1.92 1.824-4.32 2.368-6.976 2.368-.032 2.176-.16 4.608.128 6.752 0 .096.064.224.128.32.032.16.096.288-.032.48-.256.192-.513.128-.736 0-.32-.352-.448-.736-.48-1.184-.224-2.272-.128-4.48 0-6.784-.288-.256-.736-.608-.832-.992 0-.128.032-.256.096-.32.096-.16.224-.192.288-.128.095.096.288.224.448.32.192-3.2.416-6.24.96-9.312zm6.336 2.08c-.705-.864-1.696-1.472-2.656-1.888-.544-.256-2.08-.832-2.656-.576.032.448-.032 1.248-.096 1.6-.448 2.72-.736 5.632-.768 8.512 2.208.16 4.32-.512 6.016-1.984.928-.8 1.472-1.92 1.376-3.072-.064-.96-.672-1.92-1.216-2.592zm10.891 8.192c-1.44.736-3.168 1.056-4.736.288a4.89 4.89 0 0 1-2.496-2.912c-.48-1.504-.32-3.2.32-4.608a7.18 7.18 0 0 1 2.08-2.592c.576-.416 1.44-.928 2.24-1.024.64-.736 1.696-.96 2.592-.736 1.536.416 2.848 1.984 3.264 3.36.416 1.344.512 2.816.128 4.192-.48 1.856-1.696 3.2-3.392 4.032zm2.208-7.872c-.384-1.056-1.248-2.24-2.368-2.624-.512-.192-1.056-.256-1.472.064-.416.32-.672.832-.864 1.28-.032.096-.032.224-.032.352 0 .128 0 .288-.032.416-.032.064-.352.256-.448.064a5.35 5.35 0 0 1-.096-1.312c-1.216.512-2.24 1.568-2.816 2.752-.608 1.248-.64 2.688-.256 3.968.32.992.928 1.824 1.952 2.24 1.28.48 2.656.32 3.808-.256 1.312-.672 2.24-1.696 2.688-3.072.416-1.216.352-2.656-.064-3.872zm14.072 13.44c-.096.256-.416.256-.576.16-.352-.32-.352-.768-.384-1.216-.096-1.344-.224-2.816-.064-4.192a33.117 33.117 0 0 0-9.088.416 21.064 21.064 0 0 0 .192 4.928c-.032.16-.256.416-.512.256-.288-.128-.416-.384-.48-.608l-.16-.704c-.064-.704-.128-1.408-.16-2.08-.032-.704-.032-1.408.032-2.016.032-.256.256-.512.48-.672l.896-.192c1.856-3.104 3.392-6.304 4.736-9.632.032-.16.096-.608-.032-.768-.096-.416.16-.64.416-.832 1.024-.16 2.176-.128 3.072.384.352.16.512.512.576.864 0 1.664.032 5.12.064 6.816.128.928 0 1.888-.064 2.816.064.032.16.032.288.032.192.032.32 0 .416 0 .288.032.544.224.544.48-.256 1.92-.288 3.872-.192 5.76zm-1.984-7.2c-.032-.32-.064-.608-.064-.96 0-1.888-.032-5.6-.064-7.488-.128-.256-.352-.384-.608-.448-.448-.128-.992-.096-1.472-.064.128.448.032.928-.064 1.344-1.28 2.976-2.624 5.952-4.352 8.736a40.584 40.584 0 0 1 6.592-.256c.032-.288.032-.576.032-.864zm9.417 2.272c-1.216.16-2.496.064-3.712-.672-1.6-.96-2.304-2.624-2.208-4.48a8.174 8.174 0 0 1 1.344-4 8.05 8.05 0 0 1 3.264-2.848c.704-.352 1.664-.512 2.432-.192.64.256 1.312.928 1.44 1.568.064.192-.256.608-.512.416-.352-.32-.8-.736-1.248-.928-.448-.192-.864-.224-1.344-.032-1.248.512-2.4 1.504-3.168 2.688a7.131 7.131 0 0 0-1.152 3.68c0 1.184.448 2.304 1.44 3.04.928.672 2.144.832 3.264.736 1.888-.16 3.552-.96 5.216-1.696.192 0 .48.32.32.544-1.6.896-3.424 1.888-5.376 2.176zm17.244.064c-1.536-.864-3.104-1.472-4.736-2.048-1.6-.576-3.136-1.152-4.672-1.824a11.881 11.881 0 0 0 .416 3.392c.096.192.032.544-.256.544-.256 0-.416-.16-.512-.32-.096-.128-.16-.32-.256-.48-.352-1.152-.48-2.4-.48-3.68a.713.713 0 0 1-.288-.32c-.096-.096-.128-.288-.032-.448a.895.895 0 0 0 .288-.416c.064-.416.032-1.376.128-1.792.128-.736.32-1.632.512-2.528.224-.896.544-1.792.96-2.56.192-.32.672-.256.768.096-.032.416-.16.8-.288 1.184-.096.352-.288.736-.384 1.12a14.677 14.677 0 0 0-.544 3.552 57.293 57.293 0 0 1 3.488-2.88c1.472-1.088 3.04-2.016 4.704-2.688.256 0 .576 0 .768.16.192.128.192.32.096.544-1.696.704-3.232 1.632-4.8 2.72a40.7 40.7 0 0 0-4.32 3.584v.032c1.568.864 3.296 1.44 4.96 2.016 1.472.512 2.88 1.088 4.224 1.952.288.16.512.384.672.672.032.192-.224.448-.416.416zm11.577.032c-.672-.768-.864-1.792-1.024-2.784-.32-2.304-.256-4.768-.32-7.168-1.952 2.784-3.488 5.6-5.344 8.768-.192.224-.288.384-.608.512-.288 0-.544-.032-.768-.352-1.536-2.848-1.824-6.336-1.6-9.792 0-.224.064-.608.32-.704.416-.128.736.224.736.48-.192 3.2.16 6.24 1.216 8.992 1.12-1.92 2.016-3.52 2.976-5.088a60.276 60.276 0 0 1 3.392-4.992c.256-.192.608-.064.736.192.096 3.072.064 6.08.32 9.024.064.96.288 1.888.352 2.784 0 .128-.288.256-.384.128zm9.404-16.928c-.064-.16-.16-.352-.224-.512-.032-.224.128-.288.224-.288.128 0 .256.064.352.096.288.224.512.576.672.928.128.32.096.768-.096 1.024-.224.288-.48.576-.8.768-.48.288-1.056.512-1.568.672-.544.16-1.728.192-2.272.032-.736-.192-1.184-.544-1.408-1.056a2.53 2.53 0 0 1-.16-1.312c.032-.416.16-.832.352-1.152a.277.277 0 0 1 .224-.128c.064-.032.128-.032.224-.064.16.128.352.256.352.48 0 .224-.032.48-.064.736-.064.288-.096.544 0 .736 0 .448.288.672.704.8.544.16 1.312.096 1.984-.096.512-.16.992-.384 1.312-.672.192-.16.288-.32.288-.48.032-.16-.032-.32-.096-.512zm2.752 16.928c-.672-.768-.864-1.792-1.024-2.784-.32-2.304-.256-4.768-.32-7.168-1.952 2.784-3.488 5.6-5.344 8.768-.192.224-.288.384-.608.512-.288 0-.544-.032-.768-.352-1.536-2.848-1.824-6.336-1.6-9.792 0-.224.064-.608.32-.704.416-.128.736.224.736.48-.192 3.2.16 6.24 1.216 8.992 1.12-1.92 2.016-3.52 2.976-5.088a60.276 60.276 0 0 1 3.392-4.992c.256-.192.608-.064.736.192.096 3.072.064 6.08.32 9.024.064.96.288 1.888.352 2.784 0 .128-.288.256-.384.128zM10.688 38.32c-1.184-.608-2.464-.992-3.776-1.216-1.376-.224-2.944-.32-4.064-.288-.096.032-.256.064-.256.16.032 3.104-.256 6.464-.448 9.632-.064.224-.064.448-.128.672-.032.224-.096.448-.256.608-.16.16-.736.384-.832 0 .128-1.888.416-6.272.48-7.936l.128-3.712c.384-.448.896-.544 1.44-.512.256 0 .544 0 .8.032s.512.032.768 0c1.952.128 3.84.512 5.504 1.376.416.192.8.48 1.056.928.064.256-.288.352-.416.256zm8.907 8.96c-1.44.736-3.168 1.056-4.736.288a4.889 4.889 0 0 1-2.496-2.912c-.48-1.504-.32-3.2.32-4.608a7.18 7.18 0 0 1 2.08-2.592c.576-.416 1.44-.928 2.24-1.024.64-.736 1.696-.96 2.592-.736 1.536.416 2.848 1.984 3.264 3.36.416 1.344.512 2.816.128 4.192-.48 1.856-1.696 3.2-3.392 4.032zm2.208-7.872c-.384-1.056-1.248-2.24-2.368-2.624-.512-.192-1.056-.256-1.472.064-.416.32-.672.832-.864 1.28-.032.096-.032.224-.032.352 0 .128 0 .288-.032.416-.032.064-.352.256-.448.064a5.35 5.35 0 0 1-.096-1.312c-1.216.512-2.24 1.568-2.816 2.752-.608 1.248-.64 2.688-.256 3.968.32.992.928 1.824 1.952 2.24 1.28.48 2.656.32 3.808-.256 1.312-.672 2.24-1.696 2.688-3.072.416-1.216.352-2.656-.064-3.872zm4.409-2.4h-.16a.265.265 0 0 1-.256-.224c-.032-.256.064-.48.256-.672a2.35 2.35 0 0 1 1.728-.608c.448.032.896.096 1.344.256l1.216.416c1.728.576 3.232 2.112 4.064 3.776.448.928.608 1.888.384 2.944-.224.96-.8 1.856-1.568 2.592-1.92 1.824-4.32 2.368-6.976 2.368-.032 2.176-.16 4.608.128 6.752 0 .096.064.224.128.32.032.16.096.288-.032.48-.256.192-.512.128-.736 0-.32-.352-.448-.736-.48-1.184-.224-2.272-.128-4.48 0-6.784-.288-.256-.736-.608-.832-.992 0-.128.032-.256.096-.32.096-.16.224-.192.288-.128.096.096.288.224.448.32.192-3.2.416-6.24.96-9.312zm6.336 2.08c-.704-.864-1.696-1.472-2.656-1.888-.544-.256-2.08-.832-2.656-.576.032.448-.032 1.248-.096 1.6-.448 2.72-.736 5.632-.768 8.512 2.208.16 4.32-.512 6.016-1.984.928-.8 1.472-1.92 1.376-3.072-.064-.96-.672-1.92-1.216-2.592zm10.891 8.192c-1.44.736-3.168 1.056-4.736.288a4.89 4.89 0 0 1-2.496-2.912c-.48-1.504-.32-3.2.32-4.608a7.18 7.18 0 0 1 2.08-2.592c.576-.416 1.44-.928 2.24-1.024.64-.736 1.696-.96 2.592-.736 1.536.416 2.848 1.984 3.264 3.36.416 1.344.512 2.816.128 4.192-.48 1.856-1.696 3.2-3.392 4.032zm2.208-7.872c-.384-1.056-1.248-2.24-2.368-2.624-.512-.192-1.056-.256-1.472.064-.416.32-.672.832-.864 1.28-.032.096-.032.224-.032.352 0 .128 0 .288-.032.416-.032.064-.352.256-.448.064a5.35 5.35 0 0 1-.096-1.312c-1.216.512-2.24 1.568-2.816 2.752-.608 1.248-.64 2.688-.256 3.968.32.992.928 1.824 1.952 2.24 1.28.48 2.656.32 3.808-.256 1.312-.672 2.24-1.696 2.688-3.072.416-1.216.352-2.656-.064-3.872zm14.072 13.44c-.096.256-.416.256-.575.16-.352-.32-.352-.768-.384-1.216-.096-1.344-.224-2.816-.064-4.192a33.117 33.117 0 0 0-9.088.416 21.064 21.064 0 0 0 .192 4.928c-.032.16-.256.416-.512.256-.288-.128-.416-.384-.48-.608l-.16-.704a49.254 49.254 0 0 1-.16-2.08c-.032-.704-.032-1.408.032-2.016.031-.256.255-.512.48-.672l.895-.192c1.856-3.104 3.392-6.304 4.736-9.632.032-.16.096-.608-.032-.768-.095-.416.16-.64.417-.832 1.023-.16 2.175-.128 3.072.384.352.16.511.512.575.864 0 1.664.033 5.12.065 6.816.127.928 0 1.888-.065 2.816.065.032.16.032.289.032.192.032.32 0 .416 0 .288.032.543.224.543.48-.255 1.92-.288 3.872-.192 5.76zm-1.983-7.2c-.032-.32-.064-.608-.064-.96 0-1.888-.032-5.6-.064-7.488-.128-.256-.352-.384-.608-.448-.449-.128-.992-.096-1.472-.064.128.448.032.928-.064 1.344-1.28 2.976-2.624 5.952-4.352 8.736 2.111-.256 4.32-.352 6.591-.256.032-.288.032-.576.032-.864zm9.416 2.272c-1.216.16-2.496.064-3.712-.672-1.6-.96-2.304-2.624-2.208-4.48a8.174 8.174 0 0 1 1.344-4 8.05 8.05 0 0 1 3.264-2.848c.704-.352 1.664-.512 2.432-.192.64.256 1.312.928 1.44 1.568.064.192-.256.608-.512.416-.352-.32-.8-.736-1.248-.928-.448-.192-.864-.224-1.344-.032-1.248.512-2.4 1.504-3.168 2.688a7.131 7.131 0 0 0-1.152 3.68c0 1.184.448 2.304 1.44 3.04.928.672 2.144.832 3.264.736 1.888-.16 3.552-.96 5.216-1.696.192 0 .48.32.32.544-1.6.896-3.424 1.888-5.376 2.176zm17.245.064c-1.537-.864-3.105-1.472-4.737-2.048-1.6-.576-3.135-1.152-4.671-1.824a11.881 11.881 0 0 0 .415 3.392c.097.192.032.544-.255.544-.257 0-.416-.16-.513-.32-.096-.128-.16-.32-.255-.48-.353-1.152-.48-2.4-.48-3.68a.713.713 0 0 1-.288-.32c-.097-.096-.129-.288-.032-.448a.895.895 0 0 0 .287-.416c.065-.416.032-1.376.129-1.792.127-.736.32-1.632.511-2.528.225-.896.544-1.792.96-2.56.192-.32.672-.256.769.096-.032.416-.16.8-.288 1.184-.096.352-.288.736-.385 1.12a14.677 14.677 0 0 0-.543 3.552 57.293 57.293 0 0 1 3.487-2.88c1.473-1.088 3.04-2.016 4.705-2.688.256 0 .576 0 .768.16.192.128.192.32.096.544-1.697.704-3.233 1.632-4.8 2.72a40.7 40.7 0 0 0-4.32 3.584v.032c1.568.864 3.296 1.44 4.96 2.016 1.471.512 2.88 1.088 4.224 1.952.287.16.511.384.671.672.032.192-.224.448-.415.416zm8.792-.704c-1.44.736-3.168 1.056-4.736.288a4.89 4.89 0 0 1-2.496-2.912c-.48-1.504-.32-3.2.32-4.608a7.18 7.18 0 0 1 2.08-2.592c.576-.416 1.44-.928 2.24-1.024.64-.736 1.696-.96 2.592-.736 1.536.416 2.848 1.984 3.264 3.36.416 1.344.512 2.816.128 4.192-.48 1.856-1.696 3.2-3.392 4.032zm2.208-7.872c-.384-1.056-1.248-2.24-2.368-2.624-.512-.192-1.056-.256-1.472.064-.416.32-.672.832-.864 1.28-.032.096-.032.224-.032.352 0 .128 0 .288-.032.416-.032.064-.352.256-.448.064a5.35 5.35 0 0 1-.096-1.312c-1.216.512-2.24 1.568-2.816 2.752-.608 1.248-.64 2.688-.256 3.968.32.992.928 1.824 1.952 2.24 1.28.48 2.656.32 3.808-.256 1.312-.672 2.24-1.696 2.688-3.072.416-1.216.352-2.656-.064-3.872zm10.137-8.32c-.064-.16-.16-.352-.224-.512-.032-.224.128-.288.224-.288.127 0 .256.064.351.096.289.224.513.576.673.928.128.32.096.768-.096 1.024-.224.288-.48.576-.801.768-.479.288-1.055.512-1.567.672-.544.16-1.728.192-2.272.032-.736-.192-1.184-.544-1.408-1.056-.16-.384-.224-.832-.16-1.312.032-.416.16-.832.352-1.152a.277.277 0 0 1 .224-.128c.064-.032.128-.032.224-.064.16.128.352.256.352.48 0 .224-.032.48-.064.736-.064.288-.096.544 0 .736 0 .448.288.672.704.8.544.16 1.312.096 1.984-.096.512-.16.992-.384 1.312-.672.192-.16.288-.32.288-.48.031-.16-.032-.32-.096-.512zm2.752 16.928c-.672-.768-.864-1.792-1.024-2.784-.32-2.304-.256-4.768-.32-7.168-1.952 2.784-3.488 5.6-5.344 8.768-.192.224-.288.384-.608.512-.288 0-.544-.032-.768-.352-1.536-2.848-1.825-6.336-1.6-9.792 0-.224.064-.608.32-.704.416-.128.736.224.736.48-.192 3.2.16 6.24 1.216 8.992 1.12-1.92 2.016-3.52 2.976-5.088a60.276 60.276 0 0 1 3.392-4.992c.256-.192.608-.064.736.192.096 3.072.064 6.08.32 9.024.064.96.288 1.888.352 2.784 0 .128-.288.256-.384.128zm18.278-.736c-1.44.736-3.168 1.056-4.736.288a4.89 4.89 0 0 1-2.496-2.912c-.48-1.504-.32-3.2.32-4.608a7.18 7.18 0 0 1 2.08-2.592c.576-.416 1.44-.928 2.24-1.024.64-.736 1.696-.96 2.592-.736 1.536.416 2.848 1.984 3.264 3.36.416 1.344.512 2.816.128 4.192-.48 1.856-1.696 3.2-3.392 4.032zm2.208-7.872c-.384-1.056-1.248-2.24-2.368-2.624-.512-.192-1.056-.256-1.472.064-.416.32-.672.832-.864 1.28-.032.096-.032.224-.032.352 0 .128 0 .288-.032.416-.032.064-.352.256-.448.064a5.35 5.35 0 0 1-.096-1.312c-1.216.512-2.24 1.568-2.816 2.752-.608 1.248-.64 2.688-.256 3.968.32.992.928 1.824 1.952 2.24 1.28.48 2.656.32 3.808-.256 1.312-.672 2.24-1.696 2.688-3.072.416-1.216.352-2.656-.064-3.872zm13.625 8.576c-1.536-.864-3.104-1.472-4.736-2.048-1.6-.576-3.136-1.152-4.672-1.824a11.881 11.881 0 0 0 .416 3.392c.096.192.032.544-.256.544-.256 0-.416-.16-.512-.32-.096-.128-.16-.32-.256-.48-.352-1.152-.48-2.4-.48-3.68a.713.713 0 0 1-.288-.32c-.096-.096-.128-.288-.032-.448a.886.886 0 0 0 .287-.416c.065-.416.033-1.376.129-1.792.128-.736.32-1.632.512-2.528.224-.896.544-1.792.96-2.56.192-.32.672-.256.768.096-.032.416-.16.8-.288 1.184-.096.352-.288.736-.384 1.12a14.677 14.677 0 0 0-.544 3.552 57.293 57.293 0 0 1 3.488-2.88c1.472-1.088 3.04-2.016 4.704-2.688.256 0 .576 0 .768.16.192.128.192.32.096.544-1.696.704-3.232 1.632-4.8 2.72a40.7 40.7 0 0 0-4.32 3.584v.032c1.568.864 3.296 1.44 4.96 2.016 1.472.512 2.88 1.088 4.224 1.952.288.16.512.384.672.672.032.192-.224.448-.416.416zm3.096-10.976h-.16a.265.265 0 0 1-.256-.224c-.032-.256.064-.48.256-.672a2.35 2.35 0 0 1 1.728-.608c.448.032.896.096 1.344.256l1.216.416c1.728.576 3.232 2.112 4.064 3.776.448.928.608 1.888.384 2.944-.224.96-.8 1.856-1.568 2.592-1.92 1.824-4.32 2.368-6.976 2.368-.032 2.176-.16 4.608.128 6.752 0 .096.064.224.128.32.032.16.096.288-.032.48-.256.192-.512.128-.736 0-.32-.352-.448-.736-.48-1.184-.224-2.272-.128-4.48 0-6.784-.288-.256-.736-.608-.832-.992 0-.128.032-.256.096-.32.096-.16.224-.192.288-.128.096.096.288.224.448.32.192-3.2.416-6.24.96-9.312zm6.336 2.08c-.704-.864-1.696-1.472-2.656-1.888-.544-.256-2.08-.832-2.656-.576.032.448-.032 1.248-.096 1.6-.448 2.72-.736 5.632-.768 8.512 2.208.16 4.32-.512 6.016-1.984.928-.8 1.472-1.92 1.376-3.072-.064-.96-.672-1.92-1.216-2.592zm10.987 6.304c-1.504 3.264-2.688 6.624-3.84 10.016-.096.192-.544.256-.64 0-.16-.288-.064-1.056 0-1.344.512-2.176 1.44-4.192 2.208-6.272-.928-1.376-2.112-3.264-3.008-4.896-1.12-2.08-2.048-4.256-2.4-6.656a.73.73 0 0 1 .384-.768c.192-.064.32.032.416.128.096.096.16.224.224.352.32 1.92.96 3.712 1.76 5.408.896 1.824 1.952 3.552 3.136 5.28.736-1.6 1.504-3.2 2.336-4.768.832-1.6 1.76-3.136 2.88-4.64.224-.288.544-.608.832-.448.192.096.352.384.192.608-1.696 2.592-3.2 5.248-4.48 8zm15.653-7.072c-1.184-.608-2.464-.992-3.776-1.216-1.376-.224-2.944-.32-4.064-.288-.096.032-.256.064-.256.16.032 3.104-.256 6.464-.448 9.632-.064.224-.064.448-.128.672-.032.224-.096.448-.256.608-.16.16-.736.384-.832 0 .128-1.888.416-6.272.48-7.936l.128-3.712c.384-.448.896-.544 1.44-.512.256 0 .544 0 .8.032s.512.032.768 0c1.952.128 3.84.512 5.504 1.376.416.192.8.48 1.056.928.064.256-.288.352-.416.256zm3.98 14.496c-.16.096-.352-.064-.352-.224.64-1.088 1.792-3.776 1.632-5.024-.352.032-.704.128-1.024.096-.448-.064-.672-.352-.736-.768-.064-.48.16-.992.416-1.376a1.497 1.497 0 0 1 1.024-.608c1.024-.128 1.536.768 1.568 1.664.064 1.792-.961 4.352-2.528 6.24zm26.708.032c-.096.256-.416.256-.576.16-.352-.32-.352-.768-.384-1.216-.096-1.344-.224-2.816-.064-4.192a33.117 33.117 0 0 0-9.088.416 21.064 21.064 0 0 0 .192 4.928c-.032.16-.256.416-.512.256-.288-.128-.416-.384-.48-.608l-.16-.704a49.254 49.254 0 0 1-.16-2.08c-.032-.704-.032-1.408.032-2.016.032-.256.256-.512.48-.672l.896-.192c1.856-3.104 3.392-6.304 4.736-9.632.032-.16.096-.608-.032-.768-.096-.416.16-.64.416-.832 1.024-.16 2.176-.128 3.072.384.352.16.512.512.576.864 0 1.664.032 5.12.064 6.816.128.928 0 1.888-.064 2.816.064.032.16.032.288.032.192.032.32 0 .416 0 .288.032.544.224.544.48-.256 1.92-.288 3.872-.192 5.76zm-1.984-7.2c-.032-.32-.064-.608-.064-.96 0-1.888-.032-5.6-.064-7.488-.128-.256-.352-.384-.608-.448-.448-.128-.992-.096-1.472-.064.128.448.032.928-.064 1.344-1.28 2.976-2.624 5.952-4.352 8.736a40.584 40.584 0 0 1 6.592-.256c.032-.288.032-.576.032-.864zm8.521 2.4c-1.6-.064-3.072-.8-4-2.176-.768-1.152-.96-2.496-.8-3.808a8.45 8.45 0 0 1 1.632-3.968c.928-1.216 2.24-2.176 3.744-2.464 1.024-.192 2.112-.096 2.88.736.352.384.672.8.672 1.312.032.544-.224 1.024-.672 1.376-2.24 1.856-4.608 3.584-7.04 4.992.064.992.928 2.016 1.856 2.528s2.016.576 3.04.448c1.024-.096 2.08-.448 2.816-.8.128-.096.224 0 .256.096.032.064.096.192-.032.288-1.12 1.024-2.72 1.504-4.352 1.44zm1.408-11.424c-.928 0-1.856.384-2.592.96-1.568 1.28-2.496 3.328-2.496 5.312 2.272-1.248 4.416-2.88 6.496-4.576.16-.128.288-.608.064-.992-.256-.512-.832-.704-1.472-.704zm5.922.384h-.16a.265.265 0 0 1-.256-.224c-.032-.256.064-.48.256-.672a2.35 2.35 0 0 1 1.728-.608c.448.032.896.096 1.344.256l1.216.416c1.728.576 3.232 2.112 4.064 3.776.448.928.608 1.888.384 2.944-.224.96-.8 1.856-1.568 2.592-1.92 1.824-4.32 2.368-6.976 2.368-.032 2.176-.16 4.608.128 6.752 0 .096.064.224.128.32.032.16.096.288-.032.48-.256.192-.512.128-.736 0-.32-.352-.448-.736-.48-1.184-.224-2.272-.128-4.48 0-6.784-.288-.256-.736-.608-.832-.992 0-.128.032-.256.096-.32.096-.16.224-.192.288-.128.096.096.288.224.448.32.192-3.2.416-6.24.96-9.312zm6.336 2.08c-.704-.864-1.696-1.472-2.656-1.888-.544-.256-2.08-.832-2.656-.576.032.448-.032 1.248-.096 1.6-.448 2.72-.736 5.632-.768 8.512 2.208.16 4.32-.512 6.016-1.984.928-.8 1.472-1.92 1.376-3.072-.064-.96-.672-1.92-1.216-2.592zm8.428 8.96c-1.6-.064-3.072-.8-4-2.176-.768-1.152-.96-2.496-.8-3.808a8.45 8.45 0 0 1 1.632-3.968c.928-1.216 2.24-2.176 3.744-2.464 1.024-.192 2.112-.096 2.88.736.351.384.672.8.672 1.312.032.544-.224 1.024-.672 1.376-2.24 1.856-4.608 3.584-7.04 4.992.064.992.928 2.016 1.856 2.528s2.016.576 3.04.448c1.024-.096 2.08-.448 2.816-.8.128-.096.224 0 .256.096.032.064.096.192-.032.288-1.12 1.024-2.72 1.504-4.352 1.44zm1.408-11.424c-.928 0-1.856.384-2.592.96-1.568 1.28-2.496 3.328-2.496 5.312 2.272-1.248 4.416-2.88 6.496-4.576.16-.128.288-.608.064-.992-.257-.512-.832-.704-1.472-.704zm10.658 10.56c-.96.64-2.144 1.152-3.328 1.152-.672 0-1.152-.288-1.6-.928-.16.128-.448.224-.576.032-.576-.8-.736-1.92-.768-3.008-.064-2.784-.032-4.832.704-7.328.064-.256.672-.736 1.12-.608.192-.512.704-1.056 1.312-1.12 1.632 0 3.392.864 3.936 2.496.16.512.16 1.056-.032 1.568-.192.48-.512.896-.928 1.216l-.192.16c.8.256 1.696.768 2.208 1.568.384.608.416 1.344.256 2.048-.288 1.152-1.12 2.08-2.112 2.752zm.896-4.256c-.256-.48-.96-.768-1.472-1.024-.608-.384-1.152-.224-1.76-.096l-.96.224a2.09 2.09 0 0 1-1.088 0c-.16-.096-.352-.416-.192-.576.384-.384.864-.576 1.408-.704l1.472-.16c.576-.32 1.184-.96 1.44-1.568.16-.512.064-.864-.256-1.28-.576-.8-1.504-1.152-2.432-1.248-.288-.032-.384.032-.448.224-.096.256-.16.544-.32.768-.064.16-.288.224-.448.128a.619.619 0 0 1-.288-.16c-.384 1.376-.608 2.944-.672 4.576-.064 1.536 0 3.04.224 4.448.256-.288.576-.704.736-.928.224-.224.64.128.576.352-.064.16-.192.352-.288.512-.064.192-.16.352-.16.48.192.288.64.384 1.184.32.8-.128 1.76-.576 2.464-1.12.64-.512 1.184-1.152 1.344-1.952.096-.384.16-.832-.064-1.216zm12.498-2.112c-.224 2.272-.096 4.928.064 7.168.032.224-.288.256-.448.16-.448-.352-.672-1.28-.704-1.856a47.851 47.851 0 0 1 0-5.248c-2.368.096-4.928.032-7.264.288-.096 2.144-.032 4.192.064 6.24.032.064-.096.16-.256.192a.533.533 0 0 1-.352-.128c-.416-.416-.512-1.184-.544-1.696-.16-3.232.064-6.464.384-9.632.064-.192.352-.384.608-.224.352.16.352.576.416.896-.064.832-.16 2.24-.256 3.232 2.336-.16 4.928-.064 7.264-.096.128-1.568.192-3.136.576-4.608.16-.192.48-.064.672.128.16.192.256.576.256.8-.16 1.216-.384 2.4-.416 3.648.096 0 .192-.032.288-.032.064 0 .16.064.16.224 0 .064 0 .192-.064.256-.096.128-.288.224-.448.288zm10.333-3.584a59.98 59.98 0 0 1-.256 9.888c-.065.128-.128.32-.192.544-.097.192-.16.384-.321.576-.063.128-.479.192-.575-.032.064-.736.416-4.608.32-6.272-2.336 1.344-4.512 3.712-6.144 5.92-.16.16-.545.16-.608-.16 0-.576.224-1.024.544-1.472.32-.416.704-.8.992-1.248.8-.96 1.728-1.76 2.688-2.528-.768.064-1.568 0-2.336-.352-.864-.384-1.44-1.12-1.568-2.08-.096-.576 0-1.184.288-1.632.576-.896 1.344-1.664 2.208-2.176 1.024-.608 2.144-.928 3.392-.832.672.224 1.44.448 1.76 1.152.064.224.064.512-.192.704zm-1.056 1.376c0-.704-.032-1.376-.128-2.016-.576-.224-1.056-.288-1.696-.096-.672.192-1.472.512-2.112.992-.768.576-1.344 1.312-1.376 2.272.064.416.224.832.576 1.152.448.288 1.023.448 1.536.48 1.152.096 2.336-.256 3.232-.704-.032-.672-.032-1.376-.032-2.08zm25.652-.32c-.192 2.752-.032 5.632.256 8.192.064.256-.352.288-.48.192a1.342 1.342 0 0 1-.288-.448l-.128-.512c-.704-2.784-.576-5.76-.384-8.672.192-2.72.64-5.44 1.12-7.936a31.78 31.78 0 0 0-5.024-1.056c-1.376-.192-2.784-.288-4.192-.16-.128 0-.32.064-.48.096-.192.064-.352.096-.448.16-.224.064-.544-.16-.448-.448.16-.416.576-.736.96-.832a9.868 9.868 0 0 1 2.176-.032c.736.032 1.536.128 2.208.192 2.016.224 4 .512 5.792 1.056.32.096.512.352.64.672-.544 3.136-1.024 6.24-1.28 9.536zm-11.264-9.024c-.128.096-.416.512-.48.736-.288 2.272-.352 4.672-.288 7.072.096 3.2.448 6.4.704 9.44l-.064.736c-.032.256-.096.512-.32.672-.128.128-.512.064-.576-.192-.224-3.744-.832-7.456-.864-11.328-.032-2.144.032-4.384.32-6.528.192-.416.224-.928.512-1.312.16-.16.48-.32.736-.16.128.064.352.224.448.352.16.16.032.448-.128.512zm18.968 18.784c-1.6-.064-3.072-.8-4-2.176-.768-1.152-.96-2.496-.8-3.808a8.45 8.45 0 0 1 1.632-3.968c.928-1.216 2.24-2.176 3.744-2.464 1.024-.192 2.112-.096 2.88.736.352.384.672.8.672 1.312.032.544-.224 1.024-.672 1.376-2.24 1.856-4.608 3.584-7.04 4.992.064.992.928 2.016 1.856 2.528s2.016.576 3.04.448c1.024-.096 2.08-.448 2.816-.8.128-.096.224 0 .256.096.032.064.096.192-.032.288-1.12 1.024-2.72 1.504-4.352 1.44zm1.408-11.424c-.928 0-1.856.384-2.592.96-1.568 1.28-2.496 3.328-2.496 5.312 2.272-1.248 4.416-2.88 6.496-4.576.16-.128.288-.608.064-.992-.256-.512-.832-.704-1.472-.704zm18.563 11.232c-.416-.448-.704-.992-.768-1.632-1.312.672-2.592 1.184-4.096 1.216-.576 0-1.184-.064-1.6-.512-.384-.416-.448-.928-.544-1.44-1.248.992-2.56 1.92-4.064 2.24-.832.192-1.472.224-2.016-.576-.448-.64-.64-2.272-.704-3.072-.192-2.816.16-5.6.832-8.096.064-.224.256-.512.416-.512.224 0 .48.128.576.384 0 .48-.064.928-.16 1.344a9.632 9.632 0 0 0-.288 1.312c-.16 1.184-.352 2.4-.352 3.616 0 1.472.128 2.912.512 4.288.16.416.672.416 1.088.288 1.472-.384 2.784-1.28 3.968-2.368-.16-2.4-.128-5.184.512-7.296.064-.128.288-.192.512-.128.128.064.352.192.352.384-.192 1.6-.416 3.328-.384 4.992 0 1.28.16 2.56.48 3.712.064.288.448.416.832.416 1.28-.064 2.944-.512 4.032-1.184-.352-3.168-.096-6.496.512-9.472.224-.224.576-.224.736 0 .224.224.16.576.128.864v.256c-.544 3.744-.576 7.2.032 10.944-.096.224-.352.16-.544.032zm13.201.128c-1.536-.864-3.104-1.472-4.736-2.048-1.6-.576-3.136-1.152-4.672-1.824a11.881 11.881 0 0 0 .416 3.392c.096.192.032.544-.256.544-.256 0-.416-.16-.512-.32-.096-.128-.16-.32-.256-.48-.352-1.152-.48-2.4-.48-3.68a.713.713 0 0 1-.288-.32c-.096-.096-.128-.288-.032-.448a.895.895 0 0 0 .288-.416c.064-.416.032-1.376.128-1.792.128-.736.32-1.632.512-2.528.224-.896.544-1.792.96-2.56.192-.32.672-.256.768.096-.032.416-.16.8-.288 1.184-.096.352-.288.736-.384 1.12a14.677 14.677 0 0 0-.544 3.552 57.293 57.293 0 0 1 3.488-2.88c1.472-1.088 3.04-2.016 4.704-2.688.256 0 .576 0 .768.16.192.128.192.32.096.544-1.696.704-3.232 1.632-4.8 2.72a40.7 40.7 0 0 0-4.32 3.584v.032c1.568.864 3.296 1.44 4.96 2.016 1.472.512 2.88 1.088 4.224 1.952.288.16.512.384.672.672.032.192-.224.448-.416.416zm8.792-.704c-1.44.736-3.168 1.056-4.736.288a4.89 4.89 0 0 1-2.496-2.912c-.48-1.504-.32-3.2.32-4.608a7.18 7.18 0 0 1 2.08-2.592c.576-.416 1.44-.928 2.24-1.024.64-.736 1.696-.96 2.592-.736 1.536.416 2.848 1.984 3.264 3.36.416 1.344.512 2.816.128 4.192-.48 1.856-1.696 3.2-3.392 4.032zm2.208-7.872c-.384-1.056-1.248-2.24-2.368-2.624-.512-.192-1.056-.256-1.472.064-.416.32-.672.832-.864 1.28-.032.096-.032.224-.032.352 0 .128 0 .288-.032.416-.032.064-.352.256-.448.064a5.35 5.35 0 0 1-.096-1.312c-1.216.512-2.24 1.568-2.816 2.752-.608 1.248-.64 2.688-.256 3.968.32.992.928 1.824 1.952 2.24 1.28.48 2.656.32 3.808-.256 1.312-.672 2.24-1.696 2.688-3.072.416-1.216.352-2.656-.064-3.872zm9.145 7.776c-.96.64-2.144 1.152-3.328 1.152-.672 0-1.152-.288-1.6-.928-.16.128-.448.224-.576.032-.576-.8-.736-1.92-.768-3.008-.064-2.784-.032-4.832.704-7.328.064-.256.672-.736 1.12-.608.192-.512.704-1.056 1.312-1.12 1.632 0 3.392.864 3.936 2.496.16.512.16 1.056-.032 1.568-.192.48-.512.896-.928 1.216l-.192.16c.8.256 1.696.768 2.208 1.568.384.608.416 1.344.256 2.048-.288 1.152-1.12 2.08-2.112 2.752zm.896-4.256c-.256-.48-.96-.768-1.472-1.024-.608-.384-1.152-.224-1.76-.096l-.96.224a2.09 2.09 0 0 1-1.088 0c-.16-.096-.352-.416-.192-.576.384-.384.864-.576 1.408-.704l1.472-.16c.576-.32 1.184-.96 1.44-1.568.16-.512.064-.864-.256-1.28-.576-.8-1.504-1.152-2.432-1.248-.288-.032-.384.032-.448.224-.096.256-.16.544-.32.768-.064.16-.288.224-.448.128a.619.619 0 0 1-.288-.16c-.384 1.376-.608 2.944-.672 4.576-.064 1.536 0 3.04.224 4.448.256-.288.576-.704.736-.928.224-.224.64.128.576.352-.064.16-.192.352-.288.512-.064.192-.16.352-.16.48.192.288.64.384 1.184.32.8-.128 1.76-.576 2.464-1.12.64-.512 1.184-1.152 1.344-1.952.096-.384.16-.832-.064-1.216zm9.97 4.352c-1.44.736-3.168 1.056-4.736.288a4.89 4.89 0 0 1-2.496-2.912c-.48-1.504-.32-3.2.32-4.608a7.18 7.18 0 0 1 2.08-2.592c.576-.416 1.44-.928 2.24-1.024.64-.736 1.696-.96 2.592-.736 1.536.416 2.848 1.984 3.264 3.36.416 1.344.512 2.816.128 4.192-.48 1.856-1.696 3.2-3.392 4.032zm2.208-7.872c-.384-1.056-1.248-2.24-2.368-2.624-.512-.192-1.056-.256-1.472.064-.416.32-.672.832-.864 1.28-.032.096-.032.224-.032.352 0 .128 0 .288-.032.416-.032.064-.352.256-.448.064a5.35 5.35 0 0 1-.096-1.312c-1.216.512-2.24 1.568-2.816 2.752-.608 1.248-.64 2.688-.256 3.968.32.992.928 1.824 1.952 2.24 1.28.48 2.656.32 3.808-.256 1.312-.672 2.24-1.696 2.688-3.072.416-1.216.352-2.656-.064-3.872z" fill="#fff"/></svg>