<svg width="264" height="67" fill="none" xmlns="http://www.w3.org/2000/svg"><path d="M44.22 19.6a9.89 9.89 0 0 1-4.56 2.08c-.08 1-.08 2.04-.12 3.04-.08 1.04-.2 2-.6 2.76-.16.32-.68.24-.76-.04l.12-5.52c-1.8.04-3.56-.44-4.96-1.52a7.002 7.002 0 0 1-2.48-4.24c-.36-2.2.2-4.64 1.48-6.32.92-1.2 2.12-2.32 3.56-2.52.44-1.08 1.52-2 2.64-2.28.16-1.4.2-2.8.72-4.12.24-.36.64-.36.88-.04.04.72 0 1.44-.08 2.12-.04.64-.2 1.28-.2 1.92 2.4.28 4.96 1.24 6.44 3.28 1.48 1.96 1.72 4.48 1 6.88-.52 1.8-1.6 3.36-3.08 4.52zm1.2-10.48c-1.12-1.8-3.48-2.72-5.56-2.96-.2 5.12-.24 9.16-.12 14.28 1.44-.4 2.72-1.04 3.88-2.08 1.48-1.32 2.4-3 2.64-4.76.2-1.56 0-3.16-.84-4.48zm-8.44-1.28c-.08.2-.16.52-.24.8-.04.16-.08.32-.08.48-.04.12-.08.24-.16.36-.08.16-.48.2-.6.04-.24-.32-.24-.68-.24-1-.96.52-1.96 1.36-2.52 2.32-.8 1.48-1.2 3.36-.92 5.12.2 1.48.96 2.8 2.2 3.68 1.12.76 2.48 1.08 3.88.96.12-4.48-.2-9.44.16-14.2-.64.32-1.12.88-1.48 1.44zM55.302 27.56c-2-.08-3.84-1-5-2.72-.96-1.44-1.2-3.12-1-4.76.24-1.84 1-3.6 2.04-4.96 1.16-1.52 2.8-2.72 4.68-3.08 1.28-.24 2.64-.12 3.6.92.44.48.84 1 .84 1.64.04.68-.28 1.28-.84 1.72-2.8 2.32-5.76 4.48-8.8 6.24.08 1.24 1.16 2.52 2.32 3.16 1.16.64 2.52.72 3.8.56 1.28-.12 2.6-.56 3.52-1 .16-.12.28 0 .32.12.04.08.12.24-.04.36-1.4 1.28-3.4 1.88-5.44 1.8zm1.76-14.28c-1.16 0-2.32.48-3.24 1.2-1.96 1.6-3.12 4.16-3.12 6.64 2.84-1.56 5.52-3.6 8.12-5.72.2-.16.36-.76.08-1.24-.32-.64-1.04-.88-1.84-.88zM64.465 13.76h-.2c-.12 0-.28-.08-.32-.28-.04-.32.08-.6.32-.84.64-.56 1.36-.8 2.16-.76.56.04 1.12.12 1.68.32l1.52.52c2.16.72 4.04 2.64 5.08 4.72.56 1.16.76 2.36.48 3.68-.28 1.2-1 2.32-1.96 3.24-2.4 2.28-5.4 2.96-8.72 2.96-.04 2.72-.2 5.76.16 8.44 0 .12.08.28.16.4.04.2.12.36-.04.6-.32.24-.64.16-.92 0-.4-.44-.56-.92-.6-1.48-.28-2.84-.16-5.6 0-8.48-.36-.32-.92-.76-1.04-1.24 0-.16.04-.32.12-.4.12-.2.28-.24.36-.16.12.12.36.28.56.4.24-4 .52-7.8 1.2-11.64zm7.92 2.6c-.88-1.08-2.12-1.84-3.32-2.36-.68-.32-2.6-1.04-3.32-.72.04.56-.04 1.56-.12 2-.56 3.4-.92 7.04-.96 10.64 2.76.2 5.4-.64 7.52-2.48 1.16-1 1.84-2.4 1.72-3.84-.08-1.2-.84-2.4-1.52-3.24zM96.32 27.56c-.28-.04-.44-.2-.56-.4l-.12-.2c-1.48-3.2-2.12-6.8-2.16-10.6-.52 1.28-1.04 2.52-1.64 3.76-.68 1.4-1.44 2.76-2.52 4.04-.48.6-1.4.68-2.12.52-.6-.28-1-.96-1.28-1.52-1.52-2.92-2.24-6.2-3-9.4 0-.04-.04-.08-.08-.04-2.48 3.64-3.92 7.72-4.92 12.04-.16.4.2.76.24 1.16.08.24-.08.48-.4.6-.44.04-.8-.32-1-.64-.28-.68-.24-1.44-.04-2.12 1.32-4.32 2.68-8.6 5.48-12.36.36-.24.72-.24 1.04-.16.4 0 .76.4.8.68.88 3.44 1.6 6.96 3.32 10.08.24.32.56.52.92.4.92-.88 1.52-1.96 2.12-3.04 1.2-2.2 2.04-4.52 2.96-6.92l.2-.28c.12-.12.2-.2.4-.2.4-.12.68.16.84.44-.08 2.48-.04 4.8.24 7.08.28 2.28.8 4.52 1.64 6.68.04.28-.24.4-.36.4zM106.201 27.4c-2.2.6-4.76.56-6.48-.92-.8-.68-1.4-1.68-1.44-2.76-.04-.96.36-1.84.92-2.64 1.24-1.76 3.4-2.96 5.48-3.2.88-.08 1.68.04 2.32.68.2.2 0 .6-.2.68h-.36c-.12 0-.28-.04-.4-.04-.28-.04-.52-.08-.68.04-1.92.08-3.8 1-4.96 2.56-.52.68-.8 1.2-.72 2.04.08 1.12.92 1.96 2.08 2.36 1.64.6 3.68.24 5.24-.32.84-.32 1.6-.64 2.32-1.16.16-.12.32 0 .4.2.04.16.04.32.04.44-.56 1.08-2.8 1.84-3.56 2.04zm2.24-2.72c-.2.24-.56.2-.72.08-.4-.28-.4-.8-.4-1.2.04-.68.16-1.36.32-2.08l.52-2.2c.32-1.44.52-2.88.08-4.08-.36-1.04-1.24-2.08-2.32-2.2-.92-.12-1.84.2-2.6.76-.4.28-1.28 1.04-1.52 1.48-.04.16.04.44.2.6.16.16.04.64-.32.56-.28-.08-.6-.16-.84-.36-.32-.28-.44-.8-.2-1.2.68-1.16 1.64-2.12 2.88-2.68.8-.4 1.76-.56 2.76-.4 1.2.2 2.24 1.08 2.84 2.2.92 1.72.8 3.88.36 5.8-.4 1.64-.8 3.16-1.04 4.92zM139.734 15.36c-.24 3.44-.04 7.04.32 10.24.08.32-.44.36-.6.24-.16-.16-.28-.36-.36-.56l-.16-.64c-.88-3.48-.72-7.2-.48-10.84.24-3.4.8-6.8 1.4-9.92-2-.6-4.12-1.04-6.28-1.32-1.72-.24-3.48-.36-5.24-.2-.16 0-.4.08-.6.12-.24.08-.44.12-.56.2-.28.08-.68-.2-.56-.56.2-.52.72-.92 1.2-1.04.88-.12 1.8-.12 2.72-.04.92.04 1.92.16 2.76.24 2.52.28 5 .64 7.24 1.32.4.12.64.44.8.84-.68 3.92-1.28 7.8-1.6 11.92zm-14.08-11.28c-.16.12-.52.64-.6.92-.36 2.84-.44 5.84-.36 8.84.12 4 .56 8 .88 11.8l-.08.92c-.04.32-.12.64-.4.84-.16.16-.64.08-.72-.24-.28-4.68-1.04-9.32-1.08-14.16-.04-2.68.04-5.48.4-8.16.24-.52.28-1.16.64-1.64.2-.2.6-.4.92-.2.16.08.44.28.56.44.2.2.04.56-.16.64zM149.365 27.56c-2-.08-3.84-1-5-2.72-.96-1.44-1.2-3.12-1-4.76.24-1.84 1-3.6 2.04-4.96 1.16-1.52 2.8-2.72 4.68-3.08 1.28-.24 2.64-.12 3.6.92.44.48.84 1 .84 1.64.04.68-.28 1.28-.84 1.72-2.8 2.32-5.76 4.48-8.8 6.24.08 1.24 1.16 2.52 2.32 3.16 1.16.64 2.52.72 3.8.56 1.28-.12 2.6-.56 3.52-1 .16-.12.28 0 .32.12.04.08.12.24-.04.36-1.4 1.28-3.4 1.88-5.44 1.8zm1.76-14.28c-1.16 0-2.32.48-3.24 1.2-1.96 1.6-3.12 4.16-3.12 6.64 2.84-1.56 5.52-3.6 8.12-5.72.2-.16.36-.76.08-1.24-.32-.64-1.04-.88-1.84-.88zM174.328 27.32c-.52-.56-.88-1.24-.96-2.04-1.64.84-3.24 1.48-5.12 1.52-.72 0-1.48-.08-2-.64-.48-.52-.56-1.16-.68-1.8-1.56 1.24-3.2 2.4-5.08 2.8-1.04.24-1.84.28-2.52-.72-.56-.8-.8-2.84-.88-3.84-.24-3.52.2-7 1.04-10.12.08-.28.32-.64.52-.64.28 0 .6.16.72.48 0 .6-.08 1.16-.2 1.68-.16.56-.28 1.08-.36 1.64-.2 1.48-.44 3-.44 4.52 0 1.84.16 3.64.64 5.36.2.52.84.52 1.36.36 1.84-.48 3.48-1.6 4.96-2.96-.2-3-.16-6.48.64-9.12.08-.16.36-.24.64-.16.16.08.44.24.44.48-.24 2-.52 4.16-.48 6.24 0 1.6.2 3.2.6 4.64.08.36.56.52 1.04.52 1.6-.08 3.68-.64 5.04-1.48-.44-3.96-.12-8.12.64-11.84.28-.28.72-.28.92 0 .28.28.2.72.16 1.08v.32c-.68 4.68-.72 9 .04 13.68-.12.28-.44.2-.68.04zM190.829 27.48c-1.92-1.08-3.88-1.84-5.92-2.56-2-.72-3.92-1.44-5.84-2.28-.04 1.44.16 2.92.52 4.24.12.24.04.68-.32.68-.32 0-.52-.2-.64-.4-.12-.16-.2-.4-.32-.6-.44-1.44-.6-3-.6-4.6-.12-.08-.28-.2-.36-.4-.12-.12-.16-.36-.04-.56.16-.12.32-.36.36-.52.08-.52.04-1.72.16-2.24.16-.92.4-2.04.64-3.16.28-1.12.68-2.24 1.2-3.2.24-.4.84-.32.96.12-.04.52-.2 1-.36 1.48-.12.44-.36.92-.48 1.4-.4 1.44-.64 2.92-.68 4.44 1.44-1.28 2.88-2.48 4.36-3.6 1.84-1.36 3.8-2.52 5.88-3.36.32 0 .72 0 .96.2.24.16.24.4.12.68-2.12.88-4.04 2.04-6 3.4a50.875 50.875 0 0 0-5.4 4.48v.04c1.96 1.08 4.12 1.8 6.2 2.52 1.84.64 3.6 1.36 5.28 2.44.36.2.64.48.84.84.04.24-.28.56-.52.52zM201.82 26.6c-1.8.92-3.96 1.32-5.92.36-1.52-.76-2.6-2.04-3.12-3.64-.6-1.88-.4-4 .4-5.76.6-1.28 1.52-2.4 2.6-3.24.72-.52 1.8-1.16 2.8-1.28.8-.92 2.12-1.2 3.24-.92 1.92.52 3.56 2.48 4.08 4.2.52 1.68.64 3.52.16 5.24-.6 2.32-2.12 4-4.24 5.04zm2.76-9.84c-.48-1.32-1.56-2.8-2.96-3.28-.64-.24-1.32-.32-1.84.08s-.84 1.04-1.08 1.6c-.04.12-.04.28-.04.44 0 .16 0 .36-.04.52-.04.08-.44.32-.56.08-.08-.36-.16-1.08-.12-1.64-1.52.64-2.8 1.96-3.52 3.44-.76 1.56-.8 3.36-.32 4.96.4 1.24 1.16 2.28 2.44 2.8 1.6.6 3.32.4 4.76-.32 1.64-.84 2.8-2.12 3.36-3.84.52-1.52.44-3.32-.08-4.84zM216.01 26.48c-1.2.8-2.68 1.44-4.16 1.44-.84 0-1.44-.36-2-1.16-.2.16-.56.28-.72.04-.72-1-.92-2.4-.96-3.76-.08-3.48-.04-6.04.88-9.16.08-.32.84-.92 1.4-.76.24-.64.88-1.32 1.64-1.4 2.04 0 4.24 1.08 4.92 3.12.2.64.2 1.32-.04 1.96-.24.6-.64 1.12-1.16 1.52l-.24.2c1 .32 2.12.96 2.76 1.96.48.76.52 1.68.32 2.56-.36 1.44-1.4 2.6-2.64 3.44zm1.12-5.32c-.32-.6-1.2-.96-1.84-1.28-.76-.48-1.44-.28-2.2-.12l-1.2.28c-.44.12-.88.12-1.36 0-.2-.12-.44-.52-.24-.72.48-.48 1.08-.72 1.76-.88l1.84-.2c.72-.4 1.48-1.2 1.8-1.96.2-.64.08-1.08-.32-1.6-.72-1-1.88-1.44-3.04-1.56-.36-.04-.48.04-.56.28-.12.32-.2.68-.4.96-.08.2-.36.28-.56.16a.773.773 0 0 1-.36-.2c-.48 1.72-.76 3.68-.84 5.72-.08 1.92 0 3.8.28 5.56.32-.36.72-.88.92-1.16.28-.28.8.16.72.44-.08.2-.24.44-.36.64-.08.24-.2.44-.2.6.24.36.8.48 1.48.4 1-.16 2.2-.72 3.08-1.4.8-.64 1.48-1.44 1.68-2.44.12-.48.2-1.04-.08-1.52zM229.593 26.6c-1.8.92-3.96 1.32-5.92.36-1.52-.76-2.6-2.04-3.12-3.64-.6-1.88-.4-4 .4-5.76.6-1.28 1.52-2.4 2.6-3.24.72-.52 1.8-1.16 2.8-1.28.8-.92 2.12-1.2 3.24-.92 1.92.52 3.56 2.48 4.08 4.2.52 1.68.64 3.52.16 5.24-.6 2.32-2.12 4-4.24 5.04zm2.76-9.84c-.48-1.32-1.56-2.8-2.96-3.28-.64-.24-1.32-.32-1.84.08s-.84 1.04-1.08 1.6c-.04.12-.04.28-.04.44 0 .16 0 .36-.04.52-.04.08-.44.32-.56.08-.08-.36-.16-1.08-.12-1.64-1.52.64-2.8 1.96-3.52 3.44-.76 1.56-.8 3.36-.32 4.96.4 1.24 1.16 2.28 2.44 2.8 1.6.6 3.32.4 4.76-.32 1.64-.84 2.8-2.12 3.36-3.84.52-1.52.44-3.32-.08-4.84zM10.039 30.88c-.36.36-.76.68-1.08 1.12-1.32 1.76-2.8 3.48-3.88 5.44-1.12 2-1.72 4.16-2.2 6.48-.44 1.96-.56 4.12-.36 6.36.16 1.6.68 3.16 1.44 4.6 1.48 2.68 3.76 4.88 6 6.12.32.2.28.76-.12.84-.92.24-1.76-.36-2.44-.84-1.84-1.32-3.6-3.28-4.84-5.72-.96-1.92-1.64-4.08-1.68-6.44 0-1.84.2-3.6.56-5.36.48-2.2 1.24-4.28 2.2-6.2 1.68-3.28 3.92-6.08 6.48-8.32.4-.2.76.28.76.56-.12.6-.48 1-.84 1.36zM25.32 57.52c-.84-.96-1.08-2.24-1.28-3.48-.4-2.88-.32-5.96-.4-8.96-2.44 3.48-4.36 7-6.68 10.96-.24.28-.36.48-.76.64-.36 0-.68-.04-.96-.44-1.92-3.56-2.28-7.92-2-12.24 0-.28.08-.76.4-.88.52-.16.92.28.92.6-.24 4 .2 7.8 1.52 11.24 1.4-2.4 2.52-4.4 3.72-6.36 1.24-2.04 2.56-4 4.24-6.24.32-.24.76-.08.92.24.12 3.84.08 7.6.4 11.28.08 1.2.36 2.36.44 3.48 0 .16-.36.32-.48.16zM47.355 57.56c-.28-.04-.44-.2-.56-.4l-.12-.2c-1.48-3.2-2.12-6.8-2.16-10.6-.52 1.28-1.04 2.52-1.64 3.76-.68 1.4-1.44 2.76-2.52 4.04-.48.6-1.4.68-2.12.52-.6-.28-1-.96-1.28-1.52-1.52-2.92-2.24-6.2-3-9.4 0-.04-.04-.08-.08-.04-2.48 3.64-3.92 7.72-4.92 12.04-.16.4.2.76.24 1.16.08.24-.08.48-.4.6-.44.04-.8-.32-1-.64-.28-.68-.24-1.44-.04-2.12 1.32-4.32 2.68-8.6 5.48-12.36.36-.24.72-.24 1.04-.16.4 0 .76.4.8.68.88 3.44 1.6 6.96 3.32 10.08.24.32.56.52.92.4.92-.88 1.52-1.96 2.12-3.04 1.2-2.2 2.04-4.52 2.96-6.92l.2-.28c.12-.12.2-.2.4-.2.4-.12.68.16.84.44-.08 2.48-.04 4.8.24 7.08.28 2.28.8 4.52 1.64 6.68.04.28-.24.4-.36.4zM55.556 57.56c-2-.08-3.84-1-5-2.72-.96-1.44-1.2-3.12-1-4.76.24-1.84 1-3.6 2.04-4.96 1.16-1.52 2.8-2.72 4.68-3.08 1.28-.24 2.64-.12 3.6.92.44.48.84 1 .84 1.64.04.68-.28 1.28-.84 1.72-2.8 2.32-5.76 4.48-8.8 6.24.08 1.24 1.16 2.52 2.32 3.16 1.16.64 2.52.72 3.8.56 1.28-.12 2.6-.56 3.52-1 .16-.12.28 0 .32.12.04.08.12.24-.04.36-1.4 1.28-3.4 1.88-5.44 1.8zm1.76-14.28c-1.16 0-2.32.48-3.24 1.2-1.96 1.6-3.12 4.16-3.12 6.64 2.84-1.56 5.52-3.6 8.12-5.72.2-.16.36-.76.08-1.24-.32-.64-1.04-.88-1.84-.88zM68.76 57.56c-2-.08-3.84-1-5-2.72-.96-1.44-1.2-3.12-1-4.76.24-1.84 1-3.6 2.04-4.96 1.16-1.52 2.8-2.72 4.68-3.08 1.28-.24 2.64-.12 3.6.92.44.48.84 1 .84 1.64.04.68-.28 1.28-.84 1.72-2.8 2.32-5.76 4.48-8.8 6.24.08 1.24 1.16 2.52 2.32 3.16 1.16.64 2.52.72 3.8.56 1.28-.12 2.6-.56 3.52-1 .16-.12.28 0 .32.12.04.08.12.24-.04.36-1.4 1.28-3.4 1.88-5.44 1.8zm1.76-14.28c-1.16 0-2.32.48-3.24 1.2-1.96 1.6-3.12 4.16-3.12 6.64 2.84-1.56 5.52-3.6 8.12-5.72.2-.16.36-.76.08-1.24-.32-.64-1.04-.88-1.84-.88zM88.042 43.76c-1.04-.24-2.08-.48-3.16-.52-.88 1.12-1.32 2.44-1.56 3.84-.28 1.44-.24 2.96-.32 4.44-.08 2 .08 3.92.32 5.8-.12.24-.48.4-.76.24-.68-.84-.84-1.92-.88-3-.04-2.4-.08-4.92.28-7.28.24-1.52.68-2.92 1.6-4.2-2.48-.12-4.76.4-7.04 1.04-.32-.04-.68-.24-.88-.56-.08-.28.08-.44.24-.52l.24-.08.2-.08c1.68-.68 3.72-1.04 5.68-1.08 2-.08 4 .12 5.76.76.2.08.56.36.68.6.04.28-.16.64-.4.6zM97.067 57.4c-1.52.2-3.12.08-4.64-.84-2-1.2-2.88-3.28-2.76-5.6.12-1.8.68-3.48 1.68-5 1-1.52 2.4-2.76 4.08-3.56.88-.44 2.08-.64 3.04-.24.8.32 1.64 1.16 1.8 1.96.08.24-.32.76-.64.52-.44-.4-1-.92-1.56-1.16-.56-.24-1.08-.28-1.68-.04-1.56.64-3 1.88-3.96 3.36a8.914 8.914 0 0 0-1.44 4.6c0 1.48.56 2.88 1.8 3.8 1.16.84 2.68 1.04 4.08.92 2.36-.2 4.44-1.2 6.52-2.12.24 0 .6.4.4.68-2 1.12-4.28 2.36-6.72 2.72zM115.102 44.04c.24 4.04.12 8.36-.32 12.36-.08.16-.16.4-.24.68-.12.24-.2.48-.4.72-.08.16-.6.24-.72-.04.08-.92.52-5.76.4-7.84-2.92 1.68-5.64 4.64-7.68 7.4-.2.2-.68.2-.76-.2 0-.72.28-1.28.68-1.84.4-.52.88-1 1.24-1.56 1-1.2 2.16-2.2 3.36-3.16-.96.08-1.96 0-2.92-.44-1.08-.48-1.8-1.4-1.96-2.6-.12-.72 0-1.48.36-2.04.72-1.12 1.68-2.08 2.76-2.72 1.28-.76 2.68-1.16 4.24-1.04.84.28 1.8.56 2.2 1.44.08.28.08.64-.24.88zm-1.32 1.72c0-.88-.04-1.72-.16-2.52-.72-.28-1.32-.36-2.12-.12-.84.24-1.84.64-2.64 1.24-.96.72-1.68 1.64-1.72 2.84.08.52.28 1.04.72 1.44.56.36 1.28.56 1.92.6 1.44.12 2.92-.32 4.04-.88-.04-.84-.04-1.72-.04-2.6zM140.607 56.24c0 .32-.36.4-.56.36-.44-.16-.52-.88-.6-1.28-.12-.72-.12-1.44-.12-2.2v-2.44c0-1.88.24-3.92.28-5.84-.24-.36-.64-.56-1.04-.64-.44-.12-.96-.16-1.4-.28-1.6-.24-3.2-.48-4.88-.4-.2 1.76-.68 3.4-.92 5.16-.36 2.6-.68 5.04-.52 7.8 0 .32.08.8-.24 1.04-.16.16-.6.16-.8-.04-.2-.24-.28-.52-.32-.8-.04-.28 0-.6-.04-.92-.04-4.2.64-8.12 1.48-12.2-.2.04-.4.08-.6.04-.36-.2-.28-.56-.12-.72.16-.32.44-.44.72-.52.28-.08.6-.16.88-.16 2.72-.2 5.6.2 8.08 1 .48.28 1.16.6 1.2 1.24-.36 3.84-.44 7.8-.48 11.8zM151.181 57.4c-2.2.6-4.76.56-6.48-.92-.8-.68-1.4-1.68-1.44-2.76-.04-.96.36-1.84.92-2.64 1.24-1.76 3.4-2.96 5.48-3.2.88-.08 1.68.04 2.32.68.2.2 0 .6-.2.68h-.36c-.12 0-.28-.04-.4-.04-.28-.04-.52-.08-.68.04-1.92.08-3.8 1-4.96 2.56-.52.68-.8 1.2-.72 2.04.08 1.12.92 1.96 2.08 2.36 1.64.6 3.68.24 5.24-.32.84-.32 1.6-.64 2.32-1.16.16-.12.32 0 .4.2.04.16.04.32.04.44-.56 1.08-2.8 1.84-3.56 2.04zm2.24-2.72c-.2.24-.56.2-.72.08-.4-.28-.4-.8-.4-1.2.04-.68.16-1.36.32-2.08l.52-2.2c.32-1.44.52-2.88.08-4.08-.36-1.04-1.24-2.08-2.32-2.2-.92-.12-1.84.2-2.6.76-.4.28-1.28 1.04-1.52 1.48-.04.16.04.44.2.6.16.16.04.64-.32.56-.28-.08-.6-.16-.84-.36-.32-.28-.44-.8-.2-1.2.68-1.16 1.64-2.12 2.88-2.68.8-.4 1.76-.56 2.76-.4 1.2.2 2.24 1.08 2.84 2.2.92 1.72.8 3.88.36 5.8-.4 1.64-.8 3.16-1.04 4.92zM158.782 43.76h-.2c-.12 0-.28-.08-.32-.28-.04-.32.08-.6.32-.84.64-.56 1.36-.8 2.16-.76.56.04 1.12.12 1.68.32l1.52.52c2.16.72 4.04 2.64 5.08 4.72.56 1.16.76 2.36.48 3.68-.28 1.2-1 2.32-1.96 3.24-2.4 2.28-5.4 2.96-8.72 2.96-.04 2.72-.2 5.76.16 8.44 0 .12.08.28.16.4.04.2.12.36-.04.6-.32.24-.64.16-.92 0-.4-.44-.56-.92-.6-1.48-.28-2.84-.16-5.6 0-8.48-.36-.32-.92-.76-1.04-1.24 0-.16.04-.32.12-.4.12-.2.28-.24.36-.16.12.12.36.28.56.4.24-4 .52-7.8 1.2-11.64zm7.92 2.6c-.88-1.08-2.12-1.84-3.32-2.36-.68-.32-2.6-1.04-3.32-.72.04.56-.04 1.56-.12 2-.56 3.4-.92 7.04-.96 10.64 2.76.2 5.4-.64 7.52-2.48 1.16-1 1.84-2.4 1.72-3.84-.08-1.2-.84-2.4-1.52-3.24zM184.716 57.48c-1.92-1.08-3.88-1.84-5.92-2.56-2-.72-3.92-1.44-5.84-2.28-.04 1.44.16 2.92.52 4.24.12.24.04.68-.32.68-.32 0-.52-.2-.64-.4-.12-.16-.2-.4-.32-.6-.44-1.44-.6-3-.6-4.6-.12-.08-.28-.2-.36-.4-.12-.12-.16-.36-.04-.56.16-.12.32-.36.36-.52.08-.52.04-1.72.16-2.24.16-.92.4-2.04.64-3.16.28-1.12.68-2.24 1.2-3.2.24-.4.84-.32.96.12-.04.52-.2 1-.36 1.48-.12.44-.36.92-.48 1.4-.4 1.44-.64 2.92-.68 4.44 1.44-1.28 2.88-2.48 4.36-3.6 1.84-1.36 3.8-2.52 5.88-3.36.32 0 .72 0 .96.2.24.16.24.4.12.68-2.12.88-4.04 2.04-6 3.4a50.875 50.875 0 0 0-5.4 4.48v.04c1.96 1.08 4.12 1.8 6.2 2.52 1.84.64 3.6 1.36 5.28 2.44.36.2.64.48.84.84.04.24-.28.56-.52.52zM195.706 56.6c-1.8.92-3.96 1.32-5.92.36-1.52-.76-2.6-2.04-3.12-3.64-.6-1.88-.4-4 .4-5.76.6-1.28 1.52-2.4 2.6-3.24.72-.52 1.8-1.16 2.8-1.28.8-.92 2.12-1.2 3.24-.92 1.92.52 3.56 2.48 4.08 4.2.52 1.68.64 3.52.16 5.24-.6 2.32-2.12 4-4.24 5.04zm2.76-9.84c-.48-1.32-1.56-2.8-2.96-3.28-.64-.24-1.32-.32-1.84.08s-.84 1.04-1.08 1.6c-.04.12-.04.28-.04.44 0 .16 0 .36-.04.52-.04.08-.44.32-.56.08-.08-.36-.16-1.08-.12-1.64-1.52.64-2.8 1.96-3.52 3.44-.76 1.56-.8 3.36-.32 4.96.4 1.24 1.16 2.28 2.44 2.8 1.6.6 3.32.4 4.76-.32 1.64-.84 2.8-2.12 3.36-3.84.52-1.52.44-3.32-.08-4.84zM209.897 56.48c-1.2.8-2.68 1.44-4.16 1.44-.84 0-1.44-.36-2-1.16-.2.16-.56.28-.72.04-.72-1-.92-2.4-.96-3.76-.08-3.48-.04-6.04.88-9.16.08-.32.84-.92 1.4-.76.24-.64.88-1.32 1.64-1.4 2.04 0 4.24 1.08 4.92 3.12.2.64.2 1.32-.04 1.96-.24.6-.64 1.12-1.16 1.52l-.24.2c1 .32 2.12.96 2.76 1.96.48.76.52 1.68.32 2.56-.36 1.44-1.4 2.6-2.64 3.44zm1.12-5.32c-.32-.6-1.2-.96-1.84-1.28-.76-.48-1.44-.28-2.2-.12l-1.2.28c-.44.12-.88.12-1.36 0-.2-.12-.44-.52-.24-.72.48-.48 1.08-.72 1.76-.88l1.84-.2c.72-.4 1.48-1.2 1.8-1.96.2-.64.08-1.08-.32-1.6-.72-1-1.88-1.44-3.04-1.56-.36-.04-.48.04-.56.28-.12.32-.2.68-.4.96-.08.2-.36.28-.56.16a.773.773 0 0 1-.36-.2c-.48 1.72-.76 3.68-.84 5.72-.08 1.92 0 3.8.28 5.56.32-.36.72-.88.92-1.16.28-.28.8.16.72.44-.08.2-.24.44-.36.64-.08.24-.2.44-.2.6.24.36.8.48 1.48.4 1-.16 2.2-.72 3.08-1.4.8-.64 1.48-1.44 1.68-2.44.12-.48.2-1.04-.08-1.52zM227.88 57.48c-1.92-1.08-3.88-1.84-5.92-2.56-2-.72-3.92-1.44-5.84-2.28-.04 1.44.16 2.92.52 4.24.12.24.04.68-.32.68-.32 0-.52-.2-.64-.4-.12-.16-.2-.4-.32-.6-.44-1.44-.6-3-.6-4.6-.12-.08-.28-.2-.36-.4-.12-.12-.16-.36-.04-.56.16-.12.32-.36.36-.52.08-.52.04-1.72.16-2.24.16-.92.4-2.04.64-3.16.28-1.12.68-2.24 1.2-3.2.24-.4.84-.32.96.12-.04.52-.2 1-.36 1.48-.12.44-.36.92-.48 1.4-.4 1.44-.64 2.92-.68 4.44 1.44-1.28 2.88-2.48 4.36-3.6 1.84-1.36 3.8-2.52 5.88-3.36.32 0 .72 0 .96.2.24.16.24.4.12.68-2.12.88-4.04 2.04-6 3.4a50.875 50.875 0 0 0-5.4 4.48v.04c1.96 1.08 4.12 1.8 6.2 2.52 1.84.64 3.6 1.36 5.28 2.44.36.2.64.48.84.84.04.24-.28.56-.52.52zM237.47 57.4c-2.2.6-4.76.56-6.48-.92-.8-.68-1.4-1.68-1.44-2.76-.04-.96.36-1.84.92-2.64 1.24-1.76 3.4-2.96 5.48-3.2.88-.08 1.68.04 2.32.68.2.2 0 .6-.2.68h-.36c-.12 0-.28-.04-.4-.04-.28-.04-.52-.08-.68.04-1.92.08-3.8 1-4.96 2.56-.52.68-.8 1.2-.72 2.04.08 1.12.92 1.96 2.08 2.36 1.64.6 3.68.24 5.24-.32.84-.32 1.6-.64 2.32-1.16.16-.12.32 0 .4.2.04.16.04.32.04.44-.56 1.08-2.8 1.84-3.56 2.04zm2.24-2.72c-.2.24-.56.2-.72.08-.4-.28-.4-.8-.4-1.2.04-.68.16-1.36.32-2.08l.52-2.2c.32-1.44.52-2.88.08-4.08-.36-1.04-1.24-2.08-2.32-2.2-.92-.12-1.84.2-2.6.76-.4.28-1.28 1.04-1.52 1.48-.04.16.04.44.2.6.16.16.04.64-.32.56-.28-.08-.6-.16-.84-.36-.32-.28-.44-.8-.2-1.2.68-1.16 1.64-2.12 2.88-2.68.8-.4 1.76-.56 2.76-.4 1.2.2 2.24 1.08 2.84 2.2.92 1.72.8 3.88.36 5.8-.4 1.64-.8 3.16-1.04 4.92zM248.471 32.76l-.28 1.24c-.44 1.88-.48 3.84-.48 5.8-.04 2.88.16 5.8.44 8.56-.08.4-.12.84-.6.92-.48-.56-.6-1.2-.68-1.8-.32-2.92-.52-5.92-.44-8.88.08-2.32.36-4.64.92-6.88.08-.16.2-.6.6-.68.24-.04.64.04.76.4-.04.44-.12.88-.24 1.32zm1.16 25.28c-1.4-.44-2.4-1.92-2.76-3.2-.04-.44.08-.76.44-.96.4-.08.68.28.76.52.12.44.32.8.56 1.2.48.68 1 1.28 1.48 1.96.04.28-.28.52-.48.48zM260.724 56.04c-1.6 2.48-3.76 4.52-6 5.72-.4.2-.84-.48-.48-.76.8-.68 2.2-1.92 3.12-2.96 1.52-1.68 2.6-3.56 3.48-5.68 1-2.36 1.52-5.28 1.28-8.12-.28-2.92-1.08-5.6-2.56-8-1.44-2.28-3.2-4.32-5.04-6.16-.24-.24-.24-.68-.04-.88.16-.16.52-.44.92-.08 2.04 1.76 3.96 3.96 5.4 6.44 1.08 1.8 1.96 3.76 2.44 5.84.6 2.44.68 5.32.2 8-.44 2.32-1.4 4.6-2.72 6.64z" fill="#fff"/></svg>