<svg width="78" height="146" fill="none" xmlns="http://www.w3.org/2000/svg"><path d="M74.509 145.126c-2.12.031-4.504-.572-6.199-1.153-.52-.179-.197-.317-.56-.454-.698-.267-1.385-.351-2.063-.653-.216-.099.16-.338-.069-.434-1.27-.533-2.529-.85-3.801-1.357a356.199 356.199 0 0 1-8.228-3.427 130.471 130.471 0 0 1-10.121-4.846c-1.983-1.056-4.229-2.623-6.291-3.671-.242-.122-.251.214-.308.209-.886-.088-.35-.464-.765-.801-1.635-1.333-3.574-2.584-5.309-3.595-.738-.43-.35.531-.883-.219-.037-.052.316-.192.141-.349-.4-.358-1.26-.875-1.584-1.13a41.985 41.985 0 0 0-.382-.297c-.344-.266-.52-.388-.992-.745-.85-.647-1.725-1.586-2.598-2.335-.187-.159-.176.301-.5.059-.327-.238-1.032-1.025-1.207-1.346-.178-.318.113-.369.116-.454.036-.69-1.227-1.205-1.334-1.329-1.937-2.124-2.722-4.507-3.74-6.838-.778-1.782-1.61-3.636-2.28-5.242-.257-.62-.495-1.202-.737-1.761-.548-1.253-1.038-2.465-1.638-3.763-.093-.202-.332.19-.447-.057-1.217-2.64-2.24-5.373-2.888-8.215-.065-.285.365-.03.32-.32-.295-1.776-.384-4.606-2.031-5.27-.24-1.177-.513-2.6-.462-3.7.032-.71.529-.14.196-.924-.074-.178-.33.132-.418-.141a12.475 12.475 0 0 1-.225-.789c-.258-1.048-.32-2.09-.508-3.04-.05-.243-.328-.16-.383-.229-.45-.596.21-1.602.258-1.809.349-1.625.233-2.786.299-4.276.016-.348-.381.049-.379-.288.019-1.725.167-3.504.466-5.164.068-.37.364-.002.413-.177.212-.773-.383-.994-.186-1.736.04-.155.309-.042.342-.068.516-.407-.123-.86-.127-.979-.068-1.487.73-2.353.78-3.775.006-.17-.384.173-.347-.303.244-3.179.75-6.51 1.447-9.593.108-.48.323-.098.359-.124.57-.429-.061-.84-.065-1.003-.007-.672.196-1.301.285-1.871.081-.525.083-1.01-.218-1.488 1.264-5.413 3.097-10.529 6.01-15.01.036-.057.287.196.358.082.87-1.372.272-1.327.171-2.563-.02-.32 1.03-.703 1.115-.744.305-.144.627.326.702.265.617-.522-.92-1.137-.464-2.034.017-.027.227.23.293.168.2-.184.207-.463.416-.64.18-.151.407-.221.62-.303.356-.137.663-.288.668-.915.001-.128-.91-.417-.44-1.183.182-.302.952-1.686 1.234-2.033.277-.348.381.066.409.046.95-.81.86-.335 1.67-.528.804-.179-.466-.791-.47-1.078-.006-.286.74-.838.953-.952.211-.114.228.21.384.09 1.038-.803-.28-.838-.234-1.307.108-1.106 1.398-1.141 1.985-1.804.16-.18-.146-.156-.042-.344.413-.739.973-.967 1.264-1.92.051-.159-.045-1.132.599-1.292.093-.023.206.283.442.018.358-.398.883-1.192 1.043-1.735.096-.322-.273-.225-.236-.39a.568.568 0 0 1 .116-.196c.165-.199.184.323.471-.05.295-.348.796-1.412.621-1.566a.107.107 0 0 0-.021-.035c-.122-.109-.29.15-.319.143-.055.061-.547.002-.619.004a4.103 4.103 0 0 0-1.247-.077c-2.854.27-5.718 1.095-8.453 2.428-.252.124.055.364.018.386-.827.516-.49-.621-1.232-.628.367.595-.044.638-.639.985-.282.166-.011.34-.027.377-.279.57-.802.226-.925.163-.458-.23-.585.339-.894.186-.308-.15-.003-.712-.6-.441-.066.3.637.697.23.993-1.55 1.13-4.97 2.054-6.393 2.576-.918.342-1.424.554-1.906.73-.247.09-.482.171-.766.262-1.45.492-.775.705-1.376 1.31-.24.21-.242.329-.252-.49a3.218 3.218 0 0 1-.575-.05c-.102.02-.186-.022-.253-.022a.192.192 0 0 0-.075.02c-.257.158-.026.301-.017.563.154.333-.695-.108.145.536 1.082.229 1.622-.94 1.626-1.195-.052-.641-.774-.856.172-1.26.055-.024.08.341.283.235 1.633-.89 3.133-2.14 4.712-3.17.216-.14.261.272.39.193 1.341-.826.541-.92.787-1.965.401.789 1.101.892 2.02.149.553-.445.22-.66.413-1.157.058-.15.613-.262.575-.457-.123-.641-.904-.855.229-1.414.05-.023.11.332.268.233 1.033-.637.776-1.207 1.805-2.045.186-.15.421-.306.682-.46.843-.49 1.984-1.066 2.738-1.568.562.79 1.286-.023 1.317-.835C21.812.75 22.6.185 23.661.24c.352.038.103.314.147.345.093.084.173.143.248.183.438.243.862.298 1 .459 1.008 1.868.45 3.323 1.083 4.983.02.055.701.137.233.6-.032.03-.367-.505-.35.283.017.795-.295 2.308.038 3.383.081.277.64.916.221 1.475-.056.074-.251-.003-.357.104-.338.336.346.504-.228.906-.574.412-.999 1.218-.592 2.316.012.035.553.29.547.64-.01.561-.12 1.335-.114 1.92.003.274.338.098.344.145.196 1.87-.1 3.177-.22 5.175-.024.365.438 1.414.081 2.122-.39.782-2.042-.003-1.637 1.775.162.732 2.257 1.61 1.19 2.919.295 2.505-.222 4.839.218 7.348.02.113.61.454.609.719-.004.394-.27.618-.281.901a7.543 7.543 0 0 0-.006.458c.056 1.007.299 1.939.351 2.927.024.427-.27.307-.239.822.033.513.434.82.328 1.532-.08.54-.776 1.148-.78 1.862.747-.062.787.418 1.096 1.24.06.157.294-.05.335.021.175.292.002.613.189.889.045.067.298.034.35.087.442.442.002 1.35-.073 1.507-.288.603.082.8.006 1.243-.075.437-.367-.149-.372.352-.01 1.038.281 2.328.474 3.348.077.404.357.062.376.118.134.438.144.902.235 1.292.08.344.224.631.576.793-1.627.89.26.48.111 1.75-.013.1-.812.355-.992.009-.18-.344-.014-.938-.29-1.404-.064-.115-.952-.647-1.016-.725a.707.707 0 0 1-.066-.102c-.308-.576.764-.892.821-.94.635-.579-.355-1.255-.455-1.462-.459-.96-.449-1.858-.784-2.68-.216-.537-1.027-.458-1.075-.906-.156-1.498.895-2.156-.263-3.418-.245-.268-1.093.132-.53-1.024.036-.076.578-.94.128-1.356-.057-.052-.314-.023-.344-.098-.193-.493-.023-.856-.174-1.407-.15-.544-.357-1.207-.32-1.85.021-.39.465-.917.57-1.108.245-.447-.1-.857-.029-1.194l-.003-.068a.385.385 0 0 1 .137-.206c.405-.333 1.05.278 1.295-.57-.673-.014-1.364-.068-2.042-.102-.022-1.836.16-3.666.102-5.506-.008-.23-.366.01-.384-.236-.073-1.034.173-1.949.06-3.015-.09-.836-.481-1.732-.585-2.61.766-.537.496-1.828.561-2.758.023-.323.229-.306.295-.541.244-.886-.434-.468-.543-.709-.46-1.016 1.078-1.139 1.036-2.338-.002-.067-.825-.86-.877-.965-.335-.684.285-.116.344-.543.108-.802.302-1.323.058-2.264-.073-.273-.587-.902-.195-1.437.05-.069.322-.033.338-.088.258-.992-.595-1.026-.889-1.59-.293-.551.284-1.462.451-1.632.432-.465.192.35.236.378.515.288.42-.339.455-.839.835-.087.773-.773.034-.511-.081.028.003.41-.034.511-.826-.423-.943-1.17-.198-2.008.349-.388.78-.06.59-1.217-.088-.542-.656-.315-.83-.772-.401-1.052.056-2.458-.148-3.487-.075-.372-.343.032-.407-.221-.162-.619-.046-1.289-.284-1.581-.017-.015-.313.135-.333.094.046-.103-.234.364 1.294.868.954-.176-.73.218-1.743 1.105-.628.463-1.686 1.456-2.51 2.02a6.62 6.62 0 0 1-.188.126c-1.266.81-3.067 1.604-4.037 2.533-.632.604-.276.741-.424 1.15-.283.79-1.766 1.005-1.979 1.024-.005 0 .527-.541.109-.415-.404-.124-.103.409-.109.415-.138.013-1.351.923-1.547 1.167-.104.131.166.313.108.377-1.426 1.52-2.843 2.895-5.034 4.138-.041.018-.168-.314-.26-.27-.533.234-.856.517-1.842.808-.364.115-1.921.345-2.986-1.002-.82-1.218-.653-1.753-.717-2.223.312-1.588.557-1.37.672-1.64.123-.158.21-.252.278-.329a11.394 11.394 0 0 1 .812-.808c1.034-.908 1.862-1.138 2.687-.839.094-.049.19-.092.296-.134.657-.259 1.54-.383 2.081-.455.627-.085.438-.744.482-.777 1.362-1.038 2.398-1.062 4.008-1.702.767-.303 2.222-1.059 3.016-1.493.63-.346 1.085-.374 1.65-.734.078-.048-.127-.29-.107-.31.531-.63.503.192.696.251.705.219 1.11.32 1.906-.26.182-.133.377-1.367.742-1.58.474-.272.422.158.92-.132.042-.024-.05-.242.285-.356 1.562-.53 3.398-.983 5.304-1.293.264-.041-.131-.363.255-.426l.233-.035a7.665 7.665 0 0 1 2.547.07c.895.313 2.21.16 3.714 2.703 1.018 3.168-.239 3.823-.385 4.4-.24.383-.347.011-.459.061-.391.158-.42.481-.347.684.002.248.032.457.011.51-1.202 3.024-2.994 4.19-4.232 6.55-.069.128-.077 1.437-.865 1.49-.052.002-.856.05-.719.644.01.037.448-.031.138.385-.311.418-.564 1.23-1.242 1.647-.214.13-1.043.263-.94 1.102.006.059.5 1.523-.37 1.453-.142-.013-.857-.472-.859.44.001.174.299.018.211.43-.061.291-.21.57-.362.882-.187.384-.364.788-.373 1.253-.005.155.24.935-.352 1.145-.094.035-.282-.217-.423-.009-.658.97-1.034 2.157-1.719 3.132-.242.347-.56-.043-.857.296-.301.348-.78 1.095-.779 1.592 0 .5.865.353.637.994-.975 2.77-2.463 5.263-3.318 7.91-.125.395.218.137.06.718-.296 1.094-.559 2.574-.771 4.06-.228 1.552-.51 3.05-.91 4.03-.656 1.611-.717-.528-1.06.72-.165.608.588 1.379.596 1.53.086 1.484-.406 2.45-.443 3.768-.007.273.363.047.353.279-.03.789-.273 1.596-.325 2.346-.023.337.243.303.191.61a8.041 8.041 0 0 1-.61 2.07c-.03.064-.31-.412-.375.136-.104.883-.444 1.96-.279 3 .05.307.644.368.182.983-.096.129-.799-.1-.237.702.092.137.838 1.457.265 2.034-.152.155-.762.543-.689.906.013.05.343-.127.359.17.05 1.06-.027 2.154.053 3.216.023.287.362-.131.385.292.065 1.156-.004 2.574-.039 3.63-.013.388-.305.14-.333.169-.453.507.228.7.28.842.189.495.205.939.23 1.283.046.37.093.728.211 1.108.079.253.344.002.382.047.385.47-.252.199-.237.55.041.983.31 2.025.58 2.954.099.341.356-.132.441.173.513 1.811.991 3.671 1.349 5.45.067.335-.264.217-.303.305-.276.606.533 1.097.641 1.232.495.621.36.975.632 1.583 1.177 2.625 2.493 5.86 3.705 8.555.172.381.33.751.478 1.106 1.68 4.156 2.32 7.137 4.218 10.158.12.19.32-.196.427-.037 1.347 2.033 2.792 3.916 4.751 5.399.16.121.162-.333.424-.151a15.744 15.744 0 0 1 1.714 1.369c.27.252-.306.222-.03.472.643.58 1.393 1.117 2.16 1.556.327.185.054-.426.462-.163 2.79 1.791 5.587 3.414 8.291 5.436.184.137.012.88.51.989.129-.162.24-.373.358-.557 4.117 2.094 8.159 4.235 12.45 5.985l.57.23c.193.077 0-.415.374-.268 2.16.848 4.262 1.523 6.368 2.664.207.111-.126.72.548.842.137.027 1.117.259 1.434.206.041-.011-.039-.372.28-.278 1.83.543 3.722 1.179 5.461 1.777.287.098-.1.359.103.431 1.44.508 3.025.501 4.27.815.856.2.554.787 1.09 1.335.072.08.679.034.752.362.178.831-.037 1.785.187 2.668.065.189.874-.112.435.409-.022.034-.663.261-.832.434-.115.12.142.441-.105.603-.247.161-.564-.104-.997.072-.44.172-.247.573-1.153.593zM9.98 9.901c.652.075.254-1.056-.196-.551-.022.026.163.547.196.55zm14.45 25.004c.514-.757-.27-1.248-.669-.718-.398.531.513.949.669.718zm.73 7.744c.34-.9-1.363-.905-.941.007.024.052.92.045.94-.007zm48.7 97.472c.003.018.44.068.448.051.25-.362-.592-.457-.448-.051zM26.498 50.226c.184-.303-.194-1.038-.426-.66-.188.3.197 1.04.427.66zm-.968-36.498c-.02-.003-.22.256-.134.31.28.165.464-.259.134-.31zm3.4 49.292c-.431-1.93.78-3.278 1.03-1.271.052.368-.61-.68-.632-.193-.033.912.965 1.236.762 2.216-.04.181-1.14-.634-1.163-.755l.002.003zM10.85 11.091c.018.01.44-.157.444-.175.074-.446-.776-.112-.444.175zm4.59 19c-.04.004-.52.963-.502 1.002.333.759 1.29-1.152.502-1.002zm4.41-28.105c.172-.604.666-1.014 1.285-.844-.453.266-.868.565-1.285.844z" fill="#fff"/></svg>