<svg width="263" height="123" fill="none" xmlns="http://www.w3.org/2000/svg"><path d="M255.996 33.596c-.72.828-1.426 1.64-2.121 2.437-3.244.148-7.703.256-13.708 1.089C212.182 41 191.47 50.93 183.982 43.405c-.576-.58 1.682-1.961 8.836-3.958 32.686-9.121 46.267-16.729 60.525-15.925 3.287.185 8.421 3.434 2.653 10.074z" fill="#fff"/><path d="M11.174 6.434c-.158 3.377-.6 7.767-.952 11.102-.11 1.05-.35.505-.436 1.224-.167 1.399-.087 2.74-.252 4.132-.055.467-.458-.128-.506.362-.26 2.646-.186 5.201-.256 7.892-.28 12.498.598 24.922 4.822 36.52.257.7.53 1.39.818 2.07 1.622 3.916 4.137 8.559 7.19 11.839.354.382.432-.094.519-.038 1.362.853.468.958 1.08 1.776 2.447 3.235 5.893 6.271 9.144 8.503 1.388.946.462-.636 1.585.683.079.09-.495.161-.145.463.795.688 2.483 1.745 3.15 2.211 1.282.903 1.508 1.039 2.772 1.818 1.73 1.065 3.743 2.437 5.717 3.394.422.203.065-.442.755-.152.687.292 2.424 1.228 2.976 1.608.55.382.158.538.23.655.601.988 3.04 1.229 3.313 1.333 4.955 1.968 8.979 4.2 13.604 6.202l.143.061c3.405 1.459 7.309 2.386 10.809 3.107 4.175.858 7.785 1.497 11.987 1.808.444.033-.037-.479.503-.441 5.622.384 11.272.589 16.969 1.113l.339.031c.55.047-.173.444.381.513 3.377.486 9.111.478 10.79-1.723 2.321-.37 5.145-.97 7.309-1.156 1.396-.121.208.658 1.809.035.361-.141-.223-.393.322-.575 2.3-.767 4.891-1.366 7.16-2.217.462-.174.237-.478.355-.577.985-.814 3.096-.516 3.524-.569 3.255-.417 5.494-1.2 8.446-1.91.685-.163-.237-.429.421-.602 3.416-.893 7.008-1.608 10.467-1.979.768-.08.137.437.505.419.839-.04 1.31-.273 1.788-.5.428-.209.853-.414 1.568-.459.312-.022.202.35.265.378 1.008.425 1.599-.565 1.824-.632 2.782-.868 4.816-.521 7.476-1.559.313-.126-.549-.288.34-.62 5.918-2.211 11.849-5.362 17.352-8.588.856-.501.449.163.523.163 1.202-.035 1.275-1.114 1.523-1.321 1.979-1.626 4.343-2.436 5.174-4.274 2.754-1.836 5.454-3.765 8.194-5.66 6.221-4.242 11.906-8.926 17.71-13.666.105-.086.22.384.428.211 2.525-2.118 1.621-2.156 2.587-4.245.258-.541 2.083-1.028 2.25-1.1.569-.211.617.632.782.536 1.306-.778-.314-2.064 1.055-3.494.046-.043.139.408.282.313.444-.293.697-.778 1.153-1.07 1-.617 2.055-.275 2.835-1.964.102-.221-1.002-.748.279-2.048.485-.487 2.626-2.85 3.273-3.451.66-.613.524.096.579.06 1.984-1.444 1.512-.618 2.87-1.02 1.357-.407-.157-1.346.015-1.829.171-.481 1.648-1.513 2.052-1.752.401-.233.212.337.534.098 2.064-1.52.084-1.401.43-2.208.855-1.952 2.79-2.178 4.115-3.488.343-.337-.138-.239.124-.578 1.037-1.338 2.077-1.908 3.058-3.593.157-.272.643-2.014 1.737-2.397.157-.053.133.467.664-.032a30.613 30.613 0 0 0 2.201-2.344c.256-.304.449-.568.617-.835.428-.715-.553-.256.165-1.002.304-.334.112.551.672-.129.616-.643 1.323-2.793 1.08-3.572-.147-.771-.47-.241-.505-.304-.171-.34-1.015-1.224-1.137-1.27-.798-.773-2.05-1.29-3.198-1.394-5.698-.473-11.341.266-16.948 2.012-.547.17-.064.479-.146.509-1.851.714-.662-.809-2.095-.787.438.775-.395.853-1.693 1.35-.633.244-.182.456-.231.508-.786.776-1.649.36-1.864.287-.769-.275-1.275.502-1.811.327-.527-.174.299-.954-.961-.539-.259.41.933.875.01 1.314-3.482 1.657-10.478 3.332-13.439 4.217-2.948.887-3.898 1.246-5.624 1.674-3.179.783-1.825.989-3.698 1.854-1.839.85-1.337-.851-1.706-1.072-.363-.221-.567.182-.959.118-.392-.065.285-.494-.537-.315-.803.174-2.828 1.362-3.018 1.763-.396.849.799 1.273-1.39 1.637-.127.02.163-.468-.317-.37-1.299.269-2.538.548-3.856.857-2.506.595-5.038 1.263-7.371 2.153-.482.197-.255-.4-.547-.281-.836.375-1.786.854-1.231 1.597.735.443.968-.007 2.158.112-.886.654-.5 2.005 2.048 2.697 1.494.337 1.331-.205 2.296-.42.299-.062 1.287.316 1.495.094.63-.728-.327-1.487 2.072-1.243.107.01-.212.423.158.428 2.407-.013 2.619-.815 5.159-1.3 1.991-.386 5.669-.68 7.99-1.136.224 1.194 2.339.426 3.031-.597 1.499-.315 3.114-.746 4.576-.972.507-.08.261.34.332.362 1.106.35 1.563-.592 1.879-.698 3.437-1.12 6.431-1.164 9.678-2.45.113-.045.152-.914 1.168-.492.066.03-.968.629.62.34 1.609-.292 4.665-.406 6.827-1.155.512-.18 1.788-1.079 2.953-.71.156.05.032.312.262.414.639.28.913-.35 1.561-.137.102.033.213.088.336.17.899.61 2.598.93 4.785.229.067-.021.538-.742 1.253-.788 1.133-.074 2.751-.034 3.933-.095.564-.03.183-.43.28-.443 2.455-.28 4.462-.18 6.622-.318 1.244-.146 2.893.28 3.555 1.689.441.6 1.391 2.828.846 4.299-.593 1.602-2.434-.177-2.388 3.315-.013 1.397 2.189 3.787.245 6.06-.901 5.066-2.963 9.426-3.996 14.5-.047.228.437 1.142.27 1.661-.251.77-.705 1.096-.894 1.644-.798 2.29-1.152 4.495-1.833 6.727-.258.851-.515.46-.816 1.47a3.976 3.976 0 0 0-.062.24c-.158.923.053 1.691-.444 2.925-.413 1.02-1.582 1.847-2.028 3.212.895.274.645 1.227.455 2.987-.036.338.368.068.367.232.004.666-.409 1.19-.386 1.827.005.155.312.243.333.376.192 1.134-.947 2.605-1.147 2.862-.753.96-.494 1.582-.909 2.37-.414.782-.289-.523-.671.414-.793 1.95-1.505 4.542-2.153 6.56-.258.809.322.384.294.503-.425 1.714-1.411 3.237-.929 4.438-2.479.428-.129 1.08-1.442 3.289-.104.168-1.159.02-1.031-.731.126-.748.823-1.708.941-2.773.034-.26-.437-1.899-.432-2.103.035-1.571 1.57-1.299 1.678-1.351 1.156-.586.674-2.571.734-3.022.294-2.105.993-3.738 1.24-5.49.164-1.15-.789-1.517-.522-2.376.876-2.836 2.513-3.504 2.007-6.526-.11-.646-1.326-.337.032-2.216.087-.12 1.238-1.49.956-2.506-.035-.128-.351-.198-.343-.354.061-1.037.466-1.647.59-2.764l.042-.392.036-.143c.164-1.04.367-2.247.782-3.326.281-.736 1.142-1.524 1.39-1.843.705-.885.363-2.17 1.044-2.642.684-.48 1.066.975 1.883-.575-.786-.304-1.569-.693-2.349-1.036 1.12-3.6 2.465-7.053 3.453-10.654.122-.45-.442-.116-.323-.599.496-2.029 1.281-3.693 1.656-5.8.289-1.636.197-3.486.332-5.113 1.115-.824 1.103-3.355 1.029-4.728-.022-.472.233-.468.253-.793.013-1.056-.65-.242-.81-.315-.282.59 1.241-.688-.196-1a6.612 6.612 0 0 0-.874.046c-.142.026-1.782 1.166-2.005 1.236-1.432.486-.26-.344-1.163-.379-1.633-.067-2.753-.273-4.593.135-.539.12-1.782.843-2.862.44-.142-.053-.095-.397-.207-.408-2.039-.149-1.986.927-3.073 1.412-.638.288-1.531.233-2.247.114a6.007 6.007 0 0 1-1.08-.266c-1.022-.405.69-.337.736-.396.516-.718-.775-.43-1.768-.334-.295-1.013-1.681-.734-1.033.106.075.09.829-.123 1.033-.105-.713 1.142-2.193 1.506-4.033.852-.863-.303-.205-.959-2.564-.334-1.068.287-.518.916-1.426 1.289-2.092.856-5.043.788-7.254 1.386-.809.219.072.427-.476.59-1.443.43-2.81.44-4.253.93-.132.046.29.37-.17.483-3.481.859-6.556 1.337-10.271 2.171-1.777.403-4.966 1.316-6.891 1.603-3.337.526-7.608.453-10.762.307-2.081-.125-1.724.29-2.713.385-2.073.255-5.027-2.61-5.136-3.108-.026.028 1.748 1.156.953.345-.249-.72-.924-.327-.953-.345-.044-.07-.275-.296-.579-.632-.964-.62-1.03-3.24-.468-3.728.428-.698.736-.899 1.001-1.124.531-.406.922-.603 1.3-.803.745-.379 1.327-.618 1.562-.75.326-.18-.011-.464.166-.552 2.124-1.028 4.193-1.76 6.312-2.403a119.235 119.235 0 0 1 5.921-1.623c.074-.013.089.438.262.4 2.405-.505 3.736-1.465 5.553-2.354 1.825-.892 3.381-1.27 4.721-.909 1.432-.552 3.601-.902 4.839-1.094 1.268-.202 1.163-1.063 1.263-1.113 3.097-1.582 5.139-1.753 8.563-2.808 1.633-.502 4.818-1.677 6.574-2.324 1.378-.511 2.29-.583 3.576-1.096.173-.069-.114-.379-.063-.409 1.338-.862.895.232 1.244.303 1.278.264 2.024.378 3.87-.38.415-.172 1.418-1.782 2.242-2.036 1.077-.327.743.227 1.876-.109.097-.027.024-.316.738-.428 3.27-.518 6.974-.675 10.525-.484.117.006.233.014.349.024.742.084-.157-.512.928-.36 2.434.452 4.974 1.517 6.851 4.301 1.953 2.885 1.346 6.648.341 8.521-.505.991-.516.214-.701.383-1.098.963-1.404 2.761-1.591 3.018-.205.296-.41.573-.632.853-3.086 3.968-6.22 6.531-9.416 10.672-.175.23-1.035 2.58-2.307 2.828-.093.026-1.336.213-1.554 1.28-.012.065.725-.138-.056.67-.769.797-1.768 2.322-3.125 3.142-.413.243-1.808.588-2.294 2.068-.01.078-.494 2.743-1.748 2.63-.207-.02-.887-.833-1.676.81-.147.31.431.036-.05.767-.742 1.128-2.152 2.215-2.96 3.74-.13.257-.472 1.65-1.544 1.973-.167.05-.219-.402-.603-.063-1.86 1.641-3.52 3.64-5.507 5.217-.703.557-.752-.184-1.542.358-.781.535-2.238 1.689-2.797 2.542-.553.848.856.805-.197 1.842-4.132 4.074-9.071 7.288-13.797 10.377a95.21 95.21 0 0 0-1.484.994c-.75.515.053.344-1.036 1.123-3.991 2.869-10.919 8.28-15.139 10.076-3.34 1.436.27-1.306-2.172-.057-1.172.595-1.883 2.224-2.152 2.415-2.585 1.854-4.779 2.444-7.337 3.746-.533.268.174.424-.283.647-1.567.764-3.343 1.253-4.907 1.834-.699.258-.464.523-1.131.717-1.586.458-3.044.734-4.667.827-.147.008.703-.623-.474-.345-1.764.412-3.973.595-6.013 1.113-.151.04-.301.083-.449.129-.593.189-.491.924-1.87.635-.289-.058-.103-1.006-1.472.028-.239.169-2.557 1.677-3.924 1.287-.365-.104-1.358-.64-2.055-.364-.094.04.387.342-.204.516-2.077.606-4.294 1.111-6.428 1.8-.568.184.396.36-.454.623-2.338.723-5.329 1.448-7.703 1.983-.875.195-.372-.303-.445-.322-1.17-.302-1.554.659-1.874.798-2.018.864-3.728.94-5.663 1.56-.538.171-.052.447-.151.509-1.038.626-.379-.274-1.108-.164-2.051.306-4.292.882-6.366 1.366-.762.177.194.444-.498.598-4.073.909-8.566 1.487-12.905 1.175-.815-.062-.294-.402-.461-.485a2.153 2.153 0 0 0-.637-.202c-.955-.17-2.075.319-2.369.368-1.621.272-2.236-.06-3.667-.057-6.98.033-15.794-.664-22.578-2.039-5.154-1.018-9.633-2.418-13.964-4.376a610.807 610.807 0 0 0-8.853-3.941c-.484-.212-.19.431-.61.253-5.383-2.31-10.539-5.026-15.788-7.9-.431-.238-.037.5-.739.129-1.435-.758-3.19-1.86-4.5-2.878-.64-.495.472-.224-.173-.716a118.152 118.152 0 0 0-4.742-3.43c-.683-.471.05.642-.818-.004-5.891-4.395-11.389-9.6-15.204-16.29-.26-.46.25-1.339-.478-2.175-.26.064-.512.225-.763.337a47.422 47.422 0 0 1-4.37-8.751c-2.685-7.122-4.026-14.548-4.84-21.917-.048-.437-.445.374-.54-.474-.54-4.977-.93-9.764-.533-14.825.04-.513.894-.25.751-1.714-.028-.267-.146-2.457-.325-3.037-.027-.079-.429.327-.435-.394-.028-4.148.216-8.455.689-12.545.077-.656.461.069.52-.399.414-3.325.361-6.983 1.02-10.11.447-2.12 1.108-1.258 1.93-2.31.115-.146.255-1.454.681-1.483 1.069-.072 2.16.673 3.306.52.245-.028.158-1.812.64-.714.03.078.102 1.362.272 1.687.117.227.579-.119.713.335.134.457-.265.88-.125 1.643.144.75.654.477.589 1.925zm207.64 23.1c1.23.022.919-1.45-.157-.717-.052.037.093.716.157.716zm36.962 30.626c1.066-1.273.421-2.536-.366-1.654-.787.873.042 2.042.366 1.654zm-4.052 15.279c.988-1.574-.971-2.433-1.085-.468-.008.115 1.028.56 1.085.468zM4.854 7.749c.02-.013.117-.972.099-.987-.433-.544-.624 1.352-.099.986zM248.446 90.78c.421-.457.51-2.09-.01-1.516-.42.468-.515 2.089.01 1.516zm-.07-48.154c-.023-.008-.494.497-.39.57.338.229.873-.55.39-.57zm-8.631 73.173c1.676-3.559 4.248-5.021 2.321-1.192-.348.694.172-1.754-.375-.917-.999 1.532-.484 3.076-1.773 4.518-.235.261-.272-2.208-.172-2.417l-.001.008zm-19.732-84.772c.027.012.915-.263.935-.29.33-.61-1.467-.054-.935.29zm.739 39.607c-.069.012-1.679 1.434-1.71 1.509-.315 1.34 2.975-1.56 1.71-1.51zm-13.489-27.836c.894-.692 2.057-1.02 2.982-.62-.993.2-1.975.422-2.982.62z" fill="#fff"/></svg>