<svg width="199" height="45" fill="none" xmlns="http://www.w3.org/2000/svg"><mask id="a" maskUnits="userSpaceOnUse" x="0" y="0" width="199" height="45" fill="#000"><path fill="#fff" d="M0 0h199v45H0z"/><path d="M14.584 31.178c0 .382-.438.478-.681.43-.536-.191-.633-1.052-.73-1.53-.146-.86-.146-1.72-.146-2.628v-2.916c0-2.246.292-4.683.34-6.978-.292-.43-.779-.669-1.266-.764-.535-.144-1.168-.192-1.703-.335-1.948-.287-3.895-.573-5.94-.478-.243 2.103-.827 4.063-1.12 6.166-.437 3.106-.827 6.022-.632 9.32 0 .382.097.955-.292 1.242-.195.191-.73.191-.974-.047-.243-.287-.34-.622-.39-.956-.048-.335 0-.717-.048-1.1-.049-5.018.779-9.702 1.801-14.577-.243.048-.487.096-.73.048-.438-.24-.34-.67-.146-.86.195-.383.535-.526.876-.622.341-.095.73-.191 1.071-.191 3.31-.239 6.816.239 9.834 1.195.584.334 1.412.717 1.46 1.481-.438 4.589-.535 9.32-.584 14.1zM29.157 31.608c-2.19 1.1-4.82 1.577-7.205.43a7.342 7.342 0 0 1-3.797-4.35c-.73-2.245-.487-4.779.487-6.882.73-1.529 1.85-2.867 3.164-3.87.877-.622 2.191-1.387 3.408-1.53.974-1.1 2.58-1.434 3.943-1.1 2.337.622 4.333 2.964 4.966 5.019.633 2.007.779 4.206.195 6.26-.73 2.773-2.58 4.78-5.16 6.023zm3.36-11.757c-.585-1.578-1.9-3.346-3.603-3.92-.779-.286-1.607-.382-2.24.096-.632.478-1.022 1.243-1.314 1.912-.049.143-.049.334-.049.526 0 .19 0 .43-.048.62-.049.096-.536.383-.682.096a7.845 7.845 0 0 1-.146-1.96c-1.85.766-3.408 2.343-4.284 4.111-.925 1.864-.974 4.015-.39 5.927.488 1.481 1.412 2.724 2.97 3.345 1.947.717 4.04.478 5.793-.382 1.996-1.004 3.408-2.533 4.09-4.588.633-1.817.535-3.967-.098-5.783zM75.507 36.579c-.585-.096-1.071-.574-1.607-.813-2.483-1.768-4.722-3.776-6.913-6.165-1.898 1.242-3.992 2.342-6.231 2.915-1.753.478-3.554.621-5.501.191-2.142-.43-3.797-2.676-4.479-4.588-.73-2.198-.292-4.732.195-6.835.584-2.628 1.51-5.161 2.629-7.599 1.606-3.441 3.748-6.691 6.182-9.75 1.071-1.338 2.58-2.199 4.04-2.772.828-.048 1.607.048 2.192.573.39.383.438 1.004.438 1.434a.983.983 0 0 1-.633-.19c-.097-.049-.243-.144-.39-.144-.827-.191-1.606-.096-2.336.334-.78.43-1.607 1.147-2.191 1.912-2.337 2.963-4.333 6.118-5.89 9.416-1.656 3.44-2.678 7.073-2.921 10.992-.098 1.29.194 2.533.876 3.537.779 1.195 1.898 2.008 3.262 2.246 1.606.287 3.31-.047 4.868-.525 1.704-.478 3.31-1.338 4.82-2.39-1.51-2.055-3.165-4.015-4.333-6.309-.682-1.386-1.218-2.868-1.218-4.54.195-1.625.877-3.298 2.532-4.11.243 0 .681.382.39.668-.536.43-.78.86-1.023 1.482-.39.956-.535 2.007-.292 3.107.39 2.007 1.655 3.632 2.58 5.4.438.526.876 1.147 1.315 1.721.389.526.827 1.052 1.314 1.577 1.996-1.433 3.651-3.25 4.673-5.353.925-2.007 1.266-4.158.877-6.548-.195-1.003-.438-2.102-.974-3.058-.39-.67-.828-1.195-1.46-1.625-.536-.335-.974-.622-1.607-.622-.438-.047-.828-.287-.681-.717.34-.286.632-.382 1.022-.382.828 0 1.509.335 2.142.765.827.573 1.509 1.386 1.996 2.246.876 1.434 1.266 3.202 1.314 4.923.049 2.007-.292 3.919-1.217 5.735-1.168 2.247-2.92 4.206-4.965 5.879a62.733 62.733 0 0 0 7.74 7.073c.34.43 0 .956-.535.909zM98.128 33.09c-.632-.144-1.217-.574-1.8-.909-.147-.143-.342-.238-.536-.334-2.678-1.816-4.917-3.871-7.06-6.022-2.19-2.15-4.283-4.397-6.669-6.74l-.633-.62-.486-.335c-.146 2.82.243 6.022.146 9.033-.098 1.864-.341 3.824-.974 5.544-.146.383-.974.622-1.12.096.244-1.147.341-2.294.39-3.49.049-1.194 0-2.389 0-3.584 0-3.297-.195-7.79-.097-11.327l.243-8.316.243-1.29c.146-.383.341-.765.78-1.052.437 0 .827.334.778.621-.243 3.92-.34 7.79-.438 11.758 1.704 1.433 3.262 3.01 4.77 4.54 1.559 1.625 3.02 3.202 4.723 4.732 2.824 2.58 5.744 4.97 9.006 6.69.39.144.244.67.097.813-.486.287-.924.24-1.363.192zm-4.186-20.456c-1.85 2.82-4.722 5.066-7.887 5.83-.34.096-.681-.19-.779-.525 1.023-.622 1.996-1.147 2.873-1.769.925-.621 1.8-1.29 2.58-2.15 1.898-2.103 3.213-4.397 3.505-7.122-.146-1.53-.974-3.25-2.337-3.967-.876-.478-1.996-.382-2.92-.239-1.315.192-2.58.717-3.555 1.578-.632.525-1.022 1.194-1.46 1.816l-.535.573c-.39.144-.682-.095-.682-.382.243-1.1.925-2.15 1.655-2.916a7.588 7.588 0 0 1 3.846-2.198c1.558-.335 3.116-.143 4.43.478a5.134 5.134 0 0 1 2.19 2.007 6.81 6.81 0 0 1 .877 4.54c-.243 1.626-.974 3.155-1.801 4.446zM118.354 16.553c-4.576-.191-9.152.525-13.728.19-.876-.047-1.947-.286-2.58-1.003-.341-.382.048-1.242.633-1.147 2.093.24 4.186.335 6.28.287 2.726-.048 5.598-.239 8.081-.144.487 0 1.606.192 1.947.765.341.478-.097 1.1-.633 1.052zM139.102 32.66c-2.337-1.291-4.722-2.2-7.205-3.06-2.434-.86-4.771-1.72-7.107-2.724-.049 1.72.194 3.49.633 5.067.146.286.048.812-.39.812-.389 0-.633-.239-.779-.478-.146-.191-.243-.478-.389-.717-.536-1.72-.73-3.584-.73-5.496-.146-.096-.341-.24-.439-.478-.146-.143-.194-.43-.048-.67.194-.143.389-.43.438-.62.097-.622.049-2.056.195-2.677.194-1.1.486-2.438.778-3.776.341-1.338.828-2.676 1.461-3.823.292-.478 1.022-.383 1.168.143-.048.621-.243 1.195-.438 1.768-.146.526-.438 1.1-.584 1.673a21.559 21.559 0 0 0-.828 5.305 87.046 87.046 0 0 1 5.307-4.301c2.239-1.625 4.625-3.011 7.156-4.015.389 0 .876 0 1.168.24.292.19.292.477.146.812-2.58 1.051-4.916 2.437-7.302 4.062a61.677 61.677 0 0 0-6.572 5.353v.048c2.385 1.29 5.014 2.15 7.546 3.011 2.239.765 4.381 1.625 6.426 2.916.438.238.779.573 1.022 1.003.049.287-.341.67-.633.622zM152.478 31.608c-2.19 1.1-4.819 1.577-7.205.43a7.342 7.342 0 0 1-3.797-4.35c-.73-2.245-.487-4.779.487-6.882.73-1.529 1.85-2.867 3.164-3.87.877-.622 2.191-1.387 3.408-1.53.974-1.1 2.58-1.434 3.943-1.1 2.337.622 4.333 2.964 4.966 5.019.633 2.007.779 4.206.195 6.26-.731 2.773-2.581 4.78-5.161 6.023zm3.359-11.757c-.584-1.578-1.898-3.346-3.602-3.92-.779-.286-1.607-.382-2.239.096-.633.478-1.023 1.243-1.315 1.912-.049.143-.049.334-.049.526 0 .19 0 .43-.048.62-.049.096-.536.383-.682.096a7.85 7.85 0 0 1-.146-1.96c-1.85.766-3.408 2.343-4.284 4.111-.925 1.864-.973 4.015-.389 5.927.487 1.481 1.411 2.724 2.969 3.345 1.948.717 4.041.478 5.793-.382 1.996-1.004 3.408-2.533 4.09-4.588.633-1.817.535-3.967-.098-5.783zM177.246 39.924c-.146.383-.633.383-.876.24-.536-.479-.536-1.148-.585-1.817-.146-2.007-.34-4.206-.097-6.261a51.308 51.308 0 0 0-13.826.621c-.194 2.438-.097 5.019.293 7.36-.049.24-.39.622-.779.383-.438-.191-.633-.574-.731-.908l-.243-1.052c-.097-1.051-.195-2.102-.243-3.106-.049-1.052-.049-2.103.048-3.011.049-.383.39-.765.731-1.004l1.363-.287c2.823-4.636 5.16-9.415 7.205-14.386.048-.239.146-.908-.049-1.147-.146-.621.243-.956.633-1.243 1.558-.239 3.31-.19 4.673.574.536.239.779.765.876 1.29 0 2.486.049 7.647.098 10.18.195 1.387 0 2.82-.098 4.206.098.048.244.048.439.048.292.048.486 0 .632 0 .439.048.828.335.828.717-.389 2.868-.438 5.783-.292 8.603zm-3.018-10.753c-.049-.479-.098-.909-.098-1.434 0-2.82-.048-8.364-.097-11.184-.195-.383-.536-.574-.925-.67-.682-.19-1.509-.143-2.239-.095.194.67.048 1.386-.098 2.007-1.947 4.445-3.992 8.89-6.62 13.048 3.213-.382 6.572-.525 10.028-.382.049-.43.049-.86.049-1.29zM191.085 28.788c-2.288 4.875-4.089 9.894-5.842 14.96-.146.287-.828.382-.974 0-.243-.43-.097-1.577 0-2.008.779-3.25 2.191-6.26 3.359-9.367-1.411-2.055-3.213-4.875-4.576-7.313-1.703-3.107-3.115-6.357-3.651-9.941-.097-.478.195-.956.584-1.147.293-.096.487.048.633.191.146.143.244.335.341.526.487 2.867 1.461 5.544 2.678 8.077 1.363 2.724 2.969 5.305 4.77 7.886 1.12-2.39 2.288-4.78 3.554-7.121 1.266-2.39 2.678-4.684 4.382-6.93.34-.43.827-.909 1.265-.67.292.144.536.574.292.909-2.58 3.87-4.868 7.838-6.815 11.948z"/></mask><path d="M14.584 31.178c0 .382-.438.478-.681.43-.536-.191-.633-1.052-.73-1.53-.146-.86-.146-1.72-.146-2.628v-2.916c0-2.246.292-4.683.34-6.978-.292-.43-.779-.669-1.266-.764-.535-.144-1.168-.192-1.703-.335-1.948-.287-3.895-.573-5.94-.478-.243 2.103-.827 4.063-1.12 6.166-.437 3.106-.827 6.022-.632 9.32 0 .382.097.955-.292 1.242-.195.191-.73.191-.974-.047-.243-.287-.34-.622-.39-.956-.048-.335 0-.717-.048-1.1-.049-5.018.779-9.702 1.801-14.577-.243.048-.487.096-.73.048-.438-.24-.34-.67-.146-.86.195-.383.535-.526.876-.622.341-.095.73-.191 1.071-.191 3.31-.239 6.816.239 9.834 1.195.584.334 1.412.717 1.46 1.481-.438 4.589-.535 9.32-.584 14.1zM29.157 31.608c-2.19 1.1-4.82 1.577-7.205.43a7.342 7.342 0 0 1-3.797-4.35c-.73-2.245-.487-4.779.487-6.882.73-1.529 1.85-2.867 3.164-3.87.877-.622 2.191-1.387 3.408-1.53.974-1.1 2.58-1.434 3.943-1.1 2.337.622 4.333 2.964 4.966 5.019.633 2.007.779 4.206.195 6.26-.73 2.773-2.58 4.78-5.16 6.023zm3.36-11.757c-.585-1.578-1.9-3.346-3.603-3.92-.779-.286-1.607-.382-2.24.096-.632.478-1.022 1.243-1.314 1.912-.049.143-.049.334-.049.526 0 .19 0 .43-.048.62-.049.096-.536.383-.682.096a7.845 7.845 0 0 1-.146-1.96c-1.85.766-3.408 2.343-4.284 4.111-.925 1.864-.974 4.015-.39 5.927.488 1.481 1.412 2.724 2.97 3.345 1.947.717 4.04.478 5.793-.382 1.996-1.004 3.408-2.533 4.09-4.588.633-1.817.535-3.967-.098-5.783zM75.507 36.579c-.585-.096-1.071-.574-1.607-.813-2.483-1.768-4.722-3.776-6.913-6.165-1.898 1.242-3.992 2.342-6.231 2.915-1.753.478-3.554.621-5.501.191-2.142-.43-3.797-2.676-4.479-4.588-.73-2.198-.292-4.732.195-6.835.584-2.628 1.51-5.161 2.629-7.599 1.606-3.441 3.748-6.691 6.182-9.75 1.071-1.338 2.58-2.199 4.04-2.772.828-.048 1.607.048 2.192.573.39.383.438 1.004.438 1.434a.983.983 0 0 1-.633-.19c-.097-.049-.243-.144-.39-.144-.827-.191-1.606-.096-2.336.334-.78.43-1.607 1.147-2.191 1.912-2.337 2.963-4.333 6.118-5.89 9.416-1.656 3.44-2.678 7.073-2.921 10.992-.098 1.29.194 2.533.876 3.537.779 1.195 1.898 2.008 3.262 2.246 1.606.287 3.31-.047 4.868-.525 1.704-.478 3.31-1.338 4.82-2.39-1.51-2.055-3.165-4.015-4.333-6.309-.682-1.386-1.218-2.868-1.218-4.54.195-1.625.877-3.298 2.532-4.11.243 0 .681.382.39.668-.536.43-.78.86-1.023 1.482-.39.956-.535 2.007-.292 3.107.39 2.007 1.655 3.632 2.58 5.4.438.526.876 1.147 1.315 1.721.389.526.827 1.052 1.314 1.577 1.996-1.433 3.651-3.25 4.673-5.353.925-2.007 1.266-4.158.877-6.548-.195-1.003-.438-2.102-.974-3.058-.39-.67-.828-1.195-1.46-1.625-.536-.335-.974-.622-1.607-.622-.438-.047-.828-.287-.681-.717.34-.286.632-.382 1.022-.382.828 0 1.509.335 2.142.765.827.573 1.509 1.386 1.996 2.246.876 1.434 1.266 3.202 1.314 4.923.049 2.007-.292 3.919-1.217 5.735-1.168 2.247-2.92 4.206-4.965 5.879a62.733 62.733 0 0 0 7.74 7.073c.34.43 0 .956-.535.909zM98.128 33.09c-.632-.144-1.217-.574-1.8-.909-.147-.143-.342-.238-.536-.334-2.678-1.816-4.917-3.871-7.06-6.022-2.19-2.15-4.283-4.397-6.669-6.74l-.633-.62-.486-.335c-.146 2.82.243 6.022.146 9.033-.098 1.864-.341 3.824-.974 5.544-.146.383-.974.622-1.12.096.244-1.147.341-2.294.39-3.49.049-1.194 0-2.389 0-3.584 0-3.297-.195-7.79-.097-11.327l.243-8.316.243-1.29c.146-.383.341-.765.78-1.052.437 0 .827.334.778.621-.243 3.92-.34 7.79-.438 11.758 1.704 1.433 3.262 3.01 4.77 4.54 1.559 1.625 3.02 3.202 4.723 4.732 2.824 2.58 5.744 4.97 9.006 6.69.39.144.244.67.097.813-.486.287-.924.24-1.363.192zm-4.186-20.456c-1.85 2.82-4.722 5.066-7.887 5.83-.34.096-.681-.19-.779-.525 1.023-.622 1.996-1.147 2.873-1.769.925-.621 1.8-1.29 2.58-2.15 1.898-2.103 3.213-4.397 3.505-7.122-.146-1.53-.974-3.25-2.337-3.967-.876-.478-1.996-.382-2.92-.239-1.315.192-2.58.717-3.555 1.578-.632.525-1.022 1.194-1.46 1.816l-.535.573c-.39.144-.682-.095-.682-.382.243-1.1.925-2.15 1.655-2.916a7.588 7.588 0 0 1 3.846-2.198c1.558-.335 3.116-.143 4.43.478a5.134 5.134 0 0 1 2.19 2.007 6.81 6.81 0 0 1 .877 4.54c-.243 1.626-.974 3.155-1.801 4.446zM118.354 16.553c-4.576-.191-9.152.525-13.728.19-.876-.047-1.947-.286-2.58-1.003-.341-.382.048-1.242.633-1.147 2.093.24 4.186.335 6.28.287 2.726-.048 5.598-.239 8.081-.144.487 0 1.606.192 1.947.765.341.478-.097 1.1-.633 1.052zM139.102 32.66c-2.337-1.291-4.722-2.2-7.205-3.06-2.434-.86-4.771-1.72-7.107-2.724-.049 1.72.194 3.49.633 5.067.146.286.048.812-.39.812-.389 0-.633-.239-.779-.478-.146-.191-.243-.478-.389-.717-.536-1.72-.73-3.584-.73-5.496-.146-.096-.341-.24-.439-.478-.146-.143-.194-.43-.048-.67.194-.143.389-.43.438-.62.097-.622.049-2.056.195-2.677.194-1.1.486-2.438.778-3.776.341-1.338.828-2.676 1.461-3.823.292-.478 1.022-.383 1.168.143-.048.621-.243 1.195-.438 1.768-.146.526-.438 1.1-.584 1.673a21.559 21.559 0 0 0-.828 5.305 87.046 87.046 0 0 1 5.307-4.301c2.239-1.625 4.625-3.011 7.156-4.015.389 0 .876 0 1.168.24.292.19.292.477.146.812-2.58 1.051-4.916 2.437-7.302 4.062a61.677 61.677 0 0 0-6.572 5.353v.048c2.385 1.29 5.014 2.15 7.546 3.011 2.239.765 4.381 1.625 6.426 2.916.438.238.779.573 1.022 1.003.049.287-.341.67-.633.622zM152.478 31.608c-2.19 1.1-4.819 1.577-7.205.43a7.342 7.342 0 0 1-3.797-4.35c-.73-2.245-.487-4.779.487-6.882.73-1.529 1.85-2.867 3.164-3.87.877-.622 2.191-1.387 3.408-1.53.974-1.1 2.58-1.434 3.943-1.1 2.337.622 4.333 2.964 4.966 5.019.633 2.007.779 4.206.195 6.26-.731 2.773-2.581 4.78-5.161 6.023zm3.359-11.757c-.584-1.578-1.898-3.346-3.602-3.92-.779-.286-1.607-.382-2.239.096-.633.478-1.023 1.243-1.315 1.912-.049.143-.049.334-.049.526 0 .19 0 .43-.048.62-.049.096-.536.383-.682.096a7.85 7.85 0 0 1-.146-1.96c-1.85.766-3.408 2.343-4.284 4.111-.925 1.864-.973 4.015-.389 5.927.487 1.481 1.411 2.724 2.969 3.345 1.948.717 4.041.478 5.793-.382 1.996-1.004 3.408-2.533 4.09-4.588.633-1.817.535-3.967-.098-5.783zM177.246 39.924c-.146.383-.633.383-.876.24-.536-.479-.536-1.148-.585-1.817-.146-2.007-.34-4.206-.097-6.261a51.308 51.308 0 0 0-13.826.621c-.194 2.438-.097 5.019.293 7.36-.049.24-.39.622-.779.383-.438-.191-.633-.574-.731-.908l-.243-1.052c-.097-1.051-.195-2.102-.243-3.106-.049-1.052-.049-2.103.048-3.011.049-.383.39-.765.731-1.004l1.363-.287c2.823-4.636 5.16-9.415 7.205-14.386.048-.239.146-.908-.049-1.147-.146-.621.243-.956.633-1.243 1.558-.239 3.31-.19 4.673.574.536.239.779.765.876 1.29 0 2.486.049 7.647.098 10.18.195 1.387 0 2.82-.098 4.206.098.048.244.048.439.048.292.048.486 0 .632 0 .439.048.828.335.828.717-.389 2.868-.438 5.783-.292 8.603zm-3.018-10.753c-.049-.479-.098-.909-.098-1.434 0-2.82-.048-8.364-.097-11.184-.195-.383-.536-.574-.925-.67-.682-.19-1.509-.143-2.239-.095.194.67.048 1.386-.098 2.007-1.947 4.445-3.992 8.89-6.62 13.048 3.213-.382 6.572-.525 10.028-.382.049-.43.049-.86.049-1.29zM191.085 28.788c-2.288 4.875-4.089 9.894-5.842 14.96-.146.287-.828.382-.974 0-.243-.43-.097-1.577 0-2.008.779-3.25 2.191-6.26 3.359-9.367-1.411-2.055-3.213-4.875-4.576-7.313-1.703-3.107-3.115-6.357-3.651-9.941-.097-.478.195-.956.584-1.147.293-.096.487.048.633.191.146.143.244.335.341.526.487 2.867 1.461 5.544 2.678 8.077 1.363 2.724 2.969 5.305 4.77 7.886 1.12-2.39 2.288-4.78 3.554-7.121 1.266-2.39 2.678-4.684 4.382-6.93.34-.43.827-.909 1.265-.67.292.144.536.574.292.909-2.58 3.87-4.868 7.838-6.815 11.948z" fill="#fff"/><path d="M14.584 31.178c0 .382-.438.478-.681.43-.536-.191-.633-1.052-.73-1.53-.146-.86-.146-1.72-.146-2.628v-2.916c0-2.246.292-4.683.34-6.978-.292-.43-.779-.669-1.266-.764-.535-.144-1.168-.192-1.703-.335-1.948-.287-3.895-.573-5.94-.478-.243 2.103-.827 4.063-1.12 6.166-.437 3.106-.827 6.022-.632 9.32 0 .382.097.955-.292 1.242-.195.191-.73.191-.974-.047-.243-.287-.34-.622-.39-.956-.048-.335 0-.717-.048-1.1-.049-5.018.779-9.702 1.801-14.577-.243.048-.487.096-.73.048-.438-.24-.34-.67-.146-.86.195-.383.535-.526.876-.622.341-.095.73-.191 1.071-.191 3.31-.239 6.816.239 9.834 1.195.584.334 1.412.717 1.46 1.481-.438 4.589-.535 9.32-.584 14.1zM29.157 31.608c-2.19 1.1-4.82 1.577-7.205.43a7.342 7.342 0 0 1-3.797-4.35c-.73-2.245-.487-4.779.487-6.882.73-1.529 1.85-2.867 3.164-3.87.877-.622 2.191-1.387 3.408-1.53.974-1.1 2.58-1.434 3.943-1.1 2.337.622 4.333 2.964 4.966 5.019.633 2.007.779 4.206.195 6.26-.73 2.773-2.58 4.78-5.16 6.023zm3.36-11.757c-.585-1.578-1.9-3.346-3.603-3.92-.779-.286-1.607-.382-2.24.096-.632.478-1.022 1.243-1.314 1.912-.049.143-.049.334-.049.526 0 .19 0 .43-.048.62-.049.096-.536.383-.682.096a7.845 7.845 0 0 1-.146-1.96c-1.85.766-3.408 2.343-4.284 4.111-.925 1.864-.974 4.015-.39 5.927.488 1.481 1.412 2.724 2.97 3.345 1.947.717 4.04.478 5.793-.382 1.996-1.004 3.408-2.533 4.09-4.588.633-1.817.535-3.967-.098-5.783zM75.507 36.579c-.585-.096-1.071-.574-1.607-.813-2.483-1.768-4.722-3.776-6.913-6.165-1.898 1.242-3.992 2.342-6.231 2.915-1.753.478-3.554.621-5.501.191-2.142-.43-3.797-2.676-4.479-4.588-.73-2.198-.292-4.732.195-6.835.584-2.628 1.51-5.161 2.629-7.599 1.606-3.441 3.748-6.691 6.182-9.75 1.071-1.338 2.58-2.199 4.04-2.772.828-.048 1.607.048 2.192.573.39.383.438 1.004.438 1.434a.983.983 0 0 1-.633-.19c-.097-.049-.243-.144-.39-.144-.827-.191-1.606-.096-2.336.334-.78.43-1.607 1.147-2.191 1.912-2.337 2.963-4.333 6.118-5.89 9.416-1.656 3.44-2.678 7.073-2.921 10.992-.098 1.29.194 2.533.876 3.537.779 1.195 1.898 2.008 3.262 2.246 1.606.287 3.31-.047 4.868-.525 1.704-.478 3.31-1.338 4.82-2.39-1.51-2.055-3.165-4.015-4.333-6.309-.682-1.386-1.218-2.868-1.218-4.54.195-1.625.877-3.298 2.532-4.11.243 0 .681.382.39.668-.536.43-.78.86-1.023 1.482-.39.956-.535 2.007-.292 3.107.39 2.007 1.655 3.632 2.58 5.4.438.526.876 1.147 1.315 1.721.389.526.827 1.052 1.314 1.577 1.996-1.433 3.651-3.25 4.673-5.353.925-2.007 1.266-4.158.877-6.548-.195-1.003-.438-2.102-.974-3.058-.39-.67-.828-1.195-1.46-1.625-.536-.335-.974-.622-1.607-.622-.438-.047-.828-.287-.681-.717.34-.286.632-.382 1.022-.382.828 0 1.509.335 2.142.765.827.573 1.509 1.386 1.996 2.246.876 1.434 1.266 3.202 1.314 4.923.049 2.007-.292 3.919-1.217 5.735-1.168 2.247-2.92 4.206-4.965 5.879a62.733 62.733 0 0 0 7.74 7.073c.34.43 0 .956-.535.909zM98.128 33.09c-.632-.144-1.217-.574-1.8-.909-.147-.143-.342-.238-.536-.334-2.678-1.816-4.917-3.871-7.06-6.022-2.19-2.15-4.283-4.397-6.669-6.74l-.633-.62-.486-.335c-.146 2.82.243 6.022.146 9.033-.098 1.864-.341 3.824-.974 5.544-.146.383-.974.622-1.12.096.244-1.147.341-2.294.39-3.49.049-1.194 0-2.389 0-3.584 0-3.297-.195-7.79-.097-11.327l.243-8.316.243-1.29c.146-.383.341-.765.78-1.052.437 0 .827.334.778.621-.243 3.92-.34 7.79-.438 11.758 1.704 1.433 3.262 3.01 4.77 4.54 1.559 1.625 3.02 3.202 4.723 4.732 2.824 2.58 5.744 4.97 9.006 6.69.39.144.244.67.097.813-.486.287-.924.24-1.363.192zm-4.186-20.456c-1.85 2.82-4.722 5.066-7.887 5.83-.34.096-.681-.19-.779-.525 1.023-.622 1.996-1.147 2.873-1.769.925-.621 1.8-1.29 2.58-2.15 1.898-2.103 3.213-4.397 3.505-7.122-.146-1.53-.974-3.25-2.337-3.967-.876-.478-1.996-.382-2.92-.239-1.315.192-2.58.717-3.555 1.578-.632.525-1.022 1.194-1.46 1.816l-.535.573c-.39.144-.682-.095-.682-.382.243-1.1.925-2.15 1.655-2.916a7.588 7.588 0 0 1 3.846-2.198c1.558-.335 3.116-.143 4.43.478a5.134 5.134 0 0 1 2.19 2.007 6.81 6.81 0 0 1 .877 4.54c-.243 1.626-.974 3.155-1.801 4.446zM118.354 16.553c-4.576-.191-9.152.525-13.728.19-.876-.047-1.947-.286-2.58-1.003-.341-.382.048-1.242.633-1.147 2.093.24 4.186.335 6.28.287 2.726-.048 5.598-.239 8.081-.144.487 0 1.606.192 1.947.765.341.478-.097 1.1-.633 1.052zM139.102 32.66c-2.337-1.291-4.722-2.2-7.205-3.06-2.434-.86-4.771-1.72-7.107-2.724-.049 1.72.194 3.49.633 5.067.146.286.048.812-.39.812-.389 0-.633-.239-.779-.478-.146-.191-.243-.478-.389-.717-.536-1.72-.73-3.584-.73-5.496-.146-.096-.341-.24-.439-.478-.146-.143-.194-.43-.048-.67.194-.143.389-.43.438-.62.097-.622.049-2.056.195-2.677.194-1.1.486-2.438.778-3.776.341-1.338.828-2.676 1.461-3.823.292-.478 1.022-.383 1.168.143-.048.621-.243 1.195-.438 1.768-.146.526-.438 1.1-.584 1.673a21.559 21.559 0 0 0-.828 5.305 87.046 87.046 0 0 1 5.307-4.301c2.239-1.625 4.625-3.011 7.156-4.015.389 0 .876 0 1.168.24.292.19.292.477.146.812-2.58 1.051-4.916 2.437-7.302 4.062a61.677 61.677 0 0 0-6.572 5.353v.048c2.385 1.29 5.014 2.15 7.546 3.011 2.239.765 4.381 1.625 6.426 2.916.438.238.779.573 1.022 1.003.049.287-.341.67-.633.622zM152.478 31.608c-2.19 1.1-4.819 1.577-7.205.43a7.342 7.342 0 0 1-3.797-4.35c-.73-2.245-.487-4.779.487-6.882.73-1.529 1.85-2.867 3.164-3.87.877-.622 2.191-1.387 3.408-1.53.974-1.1 2.58-1.434 3.943-1.1 2.337.622 4.333 2.964 4.966 5.019.633 2.007.779 4.206.195 6.26-.731 2.773-2.581 4.78-5.161 6.023zm3.359-11.757c-.584-1.578-1.898-3.346-3.602-3.92-.779-.286-1.607-.382-2.239.096-.633.478-1.023 1.243-1.315 1.912-.049.143-.049.334-.049.526 0 .19 0 .43-.048.62-.049.096-.536.383-.682.096a7.85 7.85 0 0 1-.146-1.96c-1.85.766-3.408 2.343-4.284 4.111-.925 1.864-.973 4.015-.389 5.927.487 1.481 1.411 2.724 2.969 3.345 1.948.717 4.041.478 5.793-.382 1.996-1.004 3.408-2.533 4.09-4.588.633-1.817.535-3.967-.098-5.783zM177.246 39.924c-.146.383-.633.383-.876.24-.536-.479-.536-1.148-.585-1.817-.146-2.007-.34-4.206-.097-6.261a51.308 51.308 0 0 0-13.826.621c-.194 2.438-.097 5.019.293 7.36-.049.24-.39.622-.779.383-.438-.191-.633-.574-.731-.908l-.243-1.052c-.097-1.051-.195-2.102-.243-3.106-.049-1.052-.049-2.103.048-3.011.049-.383.39-.765.731-1.004l1.363-.287c2.823-4.636 5.16-9.415 7.205-14.386.048-.239.146-.908-.049-1.147-.146-.621.243-.956.633-1.243 1.558-.239 3.31-.19 4.673.574.536.239.779.765.876 1.29 0 2.486.049 7.647.098 10.18.195 1.387 0 2.82-.098 4.206.098.048.244.048.439.048.292.048.486 0 .632 0 .439.048.828.335.828.717-.389 2.868-.438 5.783-.292 8.603zm-3.018-10.753c-.049-.479-.098-.909-.098-1.434 0-2.82-.048-8.364-.097-11.184-.195-.383-.536-.574-.925-.67-.682-.19-1.509-.143-2.239-.095.194.67.048 1.386-.098 2.007-1.947 4.445-3.992 8.89-6.62 13.048 3.213-.382 6.572-.525 10.028-.382.049-.43.049-.86.049-1.29zM191.085 28.788c-2.288 4.875-4.089 9.894-5.842 14.96-.146.287-.828.382-.974 0-.243-.43-.097-1.577 0-2.008.779-3.25 2.191-6.26 3.359-9.367-1.411-2.055-3.213-4.875-4.576-7.313-1.703-3.107-3.115-6.357-3.651-9.941-.097-.478.195-.956.584-1.147.293-.096.487.048.633.191.146.143.244.335.341.526.487 2.867 1.461 5.544 2.678 8.077 1.363 2.724 2.969 5.305 4.77 7.886 1.12-2.39 2.288-4.78 3.554-7.121 1.266-2.39 2.678-4.684 4.382-6.93.34-.43.827-.909 1.265-.67.292.144.536.574.292.909-2.58 3.87-4.868 7.838-6.815 11.948z" stroke="#fff" stroke-width="2" mask="url(#a)"/></svg>