<svg width="259" height="64" fill="none" xmlns="http://www.w3.org/2000/svg"><mask id="a" maskUnits="userSpaceOnUse" x="0" y="0" width="259" height="64" fill="#000"><path fill="#fff" d="M0 0h259v64H0z"/><path d="M9.034 22.73c-1.225.814-2.737 1.465-4.248 1.465-.858 0-1.47-.366-2.042-1.18-.205.163-.572.285-.736.04-.735-1.016-.939-2.44-.98-3.824-.082-3.54-.04-6.145.899-9.32.081-.325.858-.935 1.43-.772.245-.651.898-1.343 1.674-1.425 2.083 0 4.33 1.1 5.025 3.175a3.036 3.036 0 0 1-.041 1.994 3.672 3.672 0 0 1-1.185 1.546l-.245.203c1.021.326 2.165.977 2.818 1.994.49.773.531 1.71.327 2.605-.367 1.465-1.43 2.645-2.696 3.5zm1.144-5.412c-.327-.61-1.225-.977-1.879-1.302-.776-.488-1.47-.285-2.247-.122l-1.225.285c-.45.122-.899.122-1.389 0-.204-.122-.45-.53-.245-.733.49-.488 1.103-.732 1.797-.895l1.88-.204c.735-.406 1.51-1.22 1.837-1.993.205-.652.082-1.1-.326-1.628-.736-1.018-1.92-1.465-3.105-1.587-.367-.041-.49.04-.572.285-.122.325-.204.691-.408.976-.082.204-.368.285-.572.163a.79.79 0 0 1-.368-.204c-.49 1.75-.776 3.744-.857 5.82-.082 1.953 0 3.866.286 5.656.326-.366.735-.895.94-1.18.285-.285.816.163.734.448-.081.203-.245.447-.367.65-.082.245-.205.448-.205.611.246.366.817.488 1.512.407 1.021-.163 2.246-.732 3.145-1.424.817-.651 1.511-1.465 1.716-2.483.122-.488.204-1.058-.082-1.546zM20.903 23.666c-1.552.204-3.186.082-4.738-.854-2.042-1.221-2.941-3.337-2.818-5.697.122-1.832.694-3.54 1.715-5.087a10.262 10.262 0 0 1 4.167-3.622c.898-.447 2.124-.65 3.104-.244.817.326 1.675 1.18 1.838 1.994.082.244-.327.773-.653.53-.45-.408-1.021-.937-1.593-1.181-.572-.244-1.103-.285-1.716-.04-1.593.65-3.064 1.912-4.044 3.418a9.044 9.044 0 0 0-1.47 4.68c0 1.505.571 2.93 1.838 3.865 1.184.855 2.736 1.058 4.166.936 2.41-.203 4.534-1.22 6.658-2.157.245 0 .613.407.409.692-2.043 1.14-4.37 2.401-6.863 2.767zM41.486 9.79c-1.062-.244-2.124-.489-3.227-.53-.899 1.14-1.348 2.483-1.593 3.907-.286 1.465-.245 3.012-.327 4.517-.082 2.035.082 3.988.327 5.9-.123.245-.49.408-.776.245-.695-.855-.858-1.953-.899-3.052-.04-2.442-.082-5.005.286-7.406.245-1.546.694-2.97 1.634-4.273-2.533-.122-4.86.407-7.19 1.058a1.288 1.288 0 0 1-.898-.57c-.082-.285.082-.447.245-.529l.245-.081.204-.081c1.716-.692 3.8-1.058 5.8-1.1 2.043-.08 4.086.123 5.883.774.204.081.572.366.694.61.041.285-.163.652-.408.61zM52.826 20.451c-1.92 4.151-3.432 8.424-4.902 12.738-.123.244-.694.325-.817 0-.204-.367-.082-1.343 0-1.71.654-2.767 1.838-5.33 2.818-7.976-1.184-1.75-2.695-4.15-3.84-6.226-1.429-2.645-2.614-5.412-3.063-8.464-.081-.407.163-.814.49-.976.245-.082.409.04.531.162.123.122.205.285.286.448.409 2.442 1.226 4.72 2.247 6.877 1.144 2.32 2.492 4.517 4.003 6.715.94-2.035 1.92-4.07 2.982-6.064 1.062-2.034 2.246-3.988 3.676-5.9.286-.367.695-.774 1.062-.57.245.122.45.488.245.773-2.165 3.296-4.084 6.674-5.718 10.173zM71.949 22.486c0 .326-.368.407-.572.366-.45-.162-.531-.895-.613-1.302-.122-.732-.122-1.465-.122-2.238V16.83c0-1.913.245-3.988.285-5.941-.245-.367-.653-.57-1.062-.652-.449-.122-.98-.162-1.43-.284-1.633-.245-3.267-.489-4.983-.407-.204 1.79-.694 3.459-.94 5.25-.367 2.644-.694 5.127-.53 7.934 0 .326.082.814-.245 1.058-.164.163-.613.163-.817-.04-.204-.245-.286-.53-.327-.814-.04-.285 0-.61-.04-.936-.042-4.273.653-8.26 1.51-12.412-.204.041-.408.082-.612.041-.368-.203-.286-.57-.123-.732.164-.326.45-.448.736-.53.285-.08.612-.162.898-.162 2.778-.204 5.719.203 8.251 1.017.49.285 1.185.61 1.226 1.262-.368 3.906-.45 7.935-.49 12.004zM82.747 23.666c-2.247.61-4.861.57-6.617-.936-.817-.691-1.43-1.709-1.471-2.808-.04-.976.368-1.871.94-2.685 1.266-1.79 3.472-3.012 5.596-3.256.898-.081 1.715.04 2.369.692.204.204 0 .61-.204.692h-.368c-.123 0-.286-.04-.409-.04-.285-.042-.53-.082-.694.04-1.96.081-3.88 1.017-5.065 2.604-.531.692-.817 1.221-.735 2.076.081 1.139.94 1.994 2.124 2.4 1.675.61 3.758.245 5.35-.325.859-.326 1.635-.651 2.37-1.18.163-.122.327 0 .408.203.041.163.041.326.041.448-.572 1.099-2.859 1.872-3.635 2.075zm2.287-2.767c-.204.244-.572.204-.735.081-.408-.284-.408-.813-.408-1.22.04-.692.163-1.384.326-2.116l.531-2.238c.327-1.466.531-2.93.082-4.151-.367-1.058-1.266-2.116-2.369-2.238-.94-.122-1.879.203-2.655.773-.409.285-1.307 1.058-1.552 1.506-.041.162.04.447.204.61.163.163.04.651-.327.57-.286-.082-.613-.163-.858-.367-.326-.284-.449-.813-.204-1.22.694-1.18 1.675-2.157 2.941-2.727.817-.407 1.797-.57 2.819-.407 1.225.204 2.287 1.099 2.9 2.238.94 1.75.817 3.947.367 5.9-.408 1.67-.817 3.216-1.062 5.006zM97.82 2.261c-.082-.203-.204-.447-.286-.65-.04-.285.163-.367.286-.367.163 0 .327.082.45.122.367.285.653.733.857 1.18.164.407.123.977-.122 1.303-.286.366-.613.732-1.022.976-.612.366-1.348.651-2.001.855-.695.203-2.206.244-2.9.04-.94-.244-1.512-.691-1.798-1.342-.204-.489-.285-1.058-.204-1.669.041-.529.204-1.058.45-1.465a.354.354 0 0 1 .285-.163c.082-.04.164-.04.286-.081.205.163.45.326.45.61 0 .285-.041.61-.082.936-.082.367-.123.692 0 .936 0 .57.368.855.899 1.018.694.203 1.674.122 2.532-.122.654-.204 1.266-.489 1.675-.855.245-.203.368-.407.368-.61.04-.204-.041-.407-.123-.651zm3.513 21.527c-.858-.976-1.103-2.278-1.307-3.54-.409-2.93-.327-6.063-.409-9.115-2.491 3.54-4.452 7.121-6.821 11.15-.245.285-.368.488-.776.65-.368 0-.695-.04-.98-.447-1.961-3.622-2.329-8.057-2.043-12.452 0-.285.082-.773.408-.895.531-.163.94.285.94.61-.245 4.07.204 7.935 1.552 11.435 1.43-2.442 2.573-4.476 3.799-6.47a76.59 76.59 0 0 1 4.33-6.348c.327-.245.776-.082.939.244.123 3.906.082 7.732.409 11.475.081 1.221.367 2.401.449 3.54 0 .163-.368.326-.49.163zM116.36 9.79c-1.062-.244-2.124-.489-3.227-.53-.899 1.14-1.348 2.483-1.593 3.907-.286 1.465-.245 3.012-.327 4.517-.081 2.035.082 3.988.327 5.9-.122.245-.49.408-.776.245-.694-.855-.858-1.953-.899-3.052-.041-2.442-.081-5.005.286-7.406.245-1.546.695-2.97 1.634-4.273-2.532-.122-4.861.407-7.189 1.058a1.29 1.29 0 0 1-.899-.57c-.081-.285.082-.447.245-.529l.246-.081.204-.081c1.715-.692 3.799-1.058 5.8-1.1 2.042-.08 4.085.123 5.882.774.204.081.572.366.695.61.04.285-.164.652-.409.61zM124.432 23.83c-2.042-.082-3.921-1.018-5.106-2.768-.98-1.465-1.225-3.174-1.021-4.843a10.724 10.724 0 0 1 2.083-5.046c1.185-1.546 2.859-2.767 4.779-3.133 1.307-.244 2.696-.122 3.677.936.449.488.857 1.017.857 1.668.041.692-.286 1.303-.857 1.75-2.86 2.36-5.882 4.558-8.987 6.348.082 1.262 1.185 2.564 2.369 3.215 1.185.651 2.574.733 3.881.57 1.307-.122 2.655-.57 3.594-1.017.164-.123.286 0 .327.122.041.081.123.244-.041.366-1.429 1.302-3.472 1.912-5.555 1.831zM126.229 9.3c-1.184 0-2.369.489-3.308 1.221-2.002 1.628-3.186 4.232-3.186 6.755 2.9-1.587 5.637-3.662 8.292-5.819.204-.162.367-.773.081-1.261-.326-.651-1.062-.896-1.879-.896zM151.204 22.73c-1.226.814-2.737 1.465-4.249 1.465-.857 0-1.47-.366-2.042-1.18-.204.163-.572.285-.735.04-.735-1.016-.94-2.44-.981-3.824-.081-3.54-.04-6.145.899-9.32.082-.325.858-.935 1.43-.772.245-.651.898-1.343 1.674-1.425 2.084 0 4.33 1.1 5.025 3.175a3.038 3.038 0 0 1-.041 1.994 3.673 3.673 0 0 1-1.185 1.546l-.245.203c1.021.326 2.165.977 2.819 1.994.49.773.531 1.71.327 2.605-.368 1.465-1.43 2.645-2.696 3.5zm1.143-5.412c-.326-.61-1.225-.977-1.879-1.302-.776-.488-1.47-.285-2.246-.122l-1.226.285a2.678 2.678 0 0 1-1.389 0c-.204-.122-.449-.53-.245-.733.491-.488 1.103-.732 1.798-.895l1.879-.204c.735-.406 1.511-1.22 1.838-1.993.204-.652.081-1.1-.327-1.628-.735-1.018-1.92-1.465-3.104-1.587-.368-.041-.491.04-.572.285-.123.325-.205.691-.409.976-.081.204-.367.285-.572.163a.787.787 0 0 1-.367-.204c-.49 1.75-.776 3.744-.858 5.82-.082 1.953 0 3.866.286 5.656.327-.366.735-.895.939-1.18.286-.285.817.163.736.448-.082.203-.245.447-.368.65-.082.245-.204.448-.204.611.245.366.817.488 1.511.407 1.021-.163 2.247-.732 3.145-1.424.817-.651 1.512-1.465 1.716-2.483.123-.488.204-1.058-.082-1.546zM179.793 11.458c-1.512-.773-3.146-1.261-4.821-1.546-1.756-.285-3.758-.407-5.187-.366-.123.04-.327.081-.327.203.041 3.947-.327 8.22-.572 12.249-.082.285-.082.57-.163.854-.041.285-.123.57-.327.774-.204.203-.94.488-1.062 0 .163-2.401.531-7.976.613-10.092l.163-4.72c.49-.57 1.144-.693 1.838-.652.327 0 .695 0 1.021.04.327.041.654.041.981 0 2.491.164 4.901.652 7.026 1.75.531.245 1.021.611 1.348 1.18.081.326-.368.448-.531.326zM183.892 9.79h-.205a.337.337 0 0 1-.326-.285c-.041-.326.081-.61.326-.855.654-.57 1.389-.813 2.206-.773.572.04 1.144.122 1.716.326l1.552.529c2.206.732 4.126 2.686 5.188 4.802.572 1.18.776 2.4.49 3.743-.286 1.221-1.021 2.36-2.002 3.297-2.451 2.32-5.514 3.01-8.904 3.01-.041 2.768-.205 5.86.163 8.587 0 .122.082.285.163.407.041.204.123.366-.041.61-.326.245-.653.163-.939 0-.409-.447-.572-.935-.613-1.505-.286-2.89-.163-5.697 0-8.627-.367-.326-.939-.773-1.062-1.262 0-.162.041-.325.123-.407.122-.203.286-.244.367-.162.123.122.368.285.572.407.245-4.07.531-7.936 1.226-11.842zm8.088 2.645c-.899-1.099-2.165-1.872-3.391-2.401-.694-.326-2.655-1.058-3.39-.733.041.57-.041 1.588-.123 2.035-.572 3.46-.939 7.162-.98 10.825 2.818.203 5.514-.651 7.679-2.523 1.185-1.018 1.879-2.442 1.757-3.907-.082-1.22-.858-2.441-1.552-3.296zM206.005 20.451c-1.92 4.151-3.432 8.424-4.902 12.738-.123.244-.694.325-.817 0-.204-.367-.082-1.343 0-1.71.654-2.767 1.838-5.33 2.818-7.976-1.184-1.75-2.695-4.15-3.839-6.226-1.43-2.645-2.614-5.412-3.064-8.464-.082-.407.164-.814.49-.976.245-.082.409.04.531.162.123.122.205.285.286.448.409 2.442 1.226 4.72 2.247 6.877 1.144 2.32 2.492 4.517 4.003 6.715.94-2.035 1.92-4.07 2.982-6.064 1.062-2.034 2.247-3.988 3.676-5.9.286-.367.695-.774 1.062-.57.245.122.45.488.245.773-2.165 3.296-4.084 6.674-5.718 10.173zM225.128 22.486c0 .326-.368.407-.572.366-.449-.162-.531-.895-.613-1.302-.122-.732-.122-1.465-.122-2.238V16.83c0-1.913.245-3.988.286-5.941-.246-.367-.654-.57-1.062-.652-.45-.122-.981-.162-1.43-.284-1.634-.245-3.268-.489-4.984-.407-.204 1.79-.694 3.459-.939 5.25-.368 2.644-.694 5.127-.531 7.934 0 .326.082.814-.245 1.058-.164.163-.613.163-.817-.04-.204-.245-.286-.53-.327-.814-.041-.285 0-.61-.041-.936-.041-4.273.654-8.26 1.512-12.412-.205.041-.409.082-.613.041-.368-.203-.286-.57-.123-.732.164-.326.45-.448.736-.53.286-.08.612-.162.898-.162 2.778-.204 5.719.203 8.252 1.017.49.285 1.184.61 1.225 1.262-.368 3.906-.449 7.935-.49 12.004zM239.847 22.486c0 .326-.367.407-.572.366-.449-.162-.531-.895-.612-1.302-.123-.732-.123-1.465-.123-2.238V16.83c0-1.913.245-3.988.286-5.941-.245-.367-.653-.57-1.062-.652-.449-.122-.98-.162-1.43-.284-1.633-.245-3.267-.489-4.983-.407-.204 1.79-.694 3.459-.94 5.25-.367 2.644-.694 5.127-.531 7.934 0 .326.082.814-.245 1.058-.163.163-.612.163-.817-.04-.204-.245-.285-.53-.326-.814-.041-.285 0-.61-.041-.936-.041-4.273.653-8.26 1.511-12.412-.204.041-.408.082-.613.041-.367-.203-.285-.57-.122-.732.163-.326.449-.448.735-.53.286-.08.613-.162.899-.162 2.777-.204 5.718.203 8.251 1.017.49.285 1.185.61 1.226 1.262-.368 3.906-.45 7.935-.491 12.004zM252.198 20.451c-1.92 4.151-3.432 8.424-4.902 12.738-.123.244-.694.325-.817 0-.204-.367-.082-1.343 0-1.71.654-2.767 1.838-5.33 2.819-7.976-1.185-1.75-2.696-4.15-3.84-6.226-1.43-2.645-2.614-5.412-3.064-8.464-.081-.407.164-.814.49-.976.246-.082.409.04.531.162.123.122.205.285.286.448.409 2.442 1.226 4.72 2.247 6.877 1.144 2.32 2.492 4.517 4.003 6.715.94-2.035 1.92-4.07 2.982-6.064 1.062-2.034 2.247-3.988 3.676-5.9.286-.367.695-.774 1.062-.57.245.122.45.488.245.773-2.165 3.296-4.084 6.674-5.718 10.173zM48.075 62.488c-.123.325-.531.325-.735.203-.45-.407-.45-.976-.49-1.546-.123-1.71-.287-3.581-.082-5.33a42.432 42.432 0 0 0-11.601.528 26.685 26.685 0 0 0 .245 6.267c-.04.203-.327.53-.654.326-.367-.163-.53-.489-.612-.774l-.205-.895c-.081-.895-.163-1.79-.204-2.645-.04-.895-.04-1.79.041-2.564.041-.325.327-.65.613-.854l1.144-.244c2.369-3.948 4.33-8.017 6.045-12.25.04-.203.123-.772-.04-.976-.123-.529.203-.814.53-1.058 1.307-.203 2.778-.163 3.922.488.449.204.653.652.735 1.1 0 2.115.04 6.51.082 8.667.163 1.18 0 2.4-.082 3.581.082.04.204.04.367.04.246.041.409 0 .532 0 .367.041.694.286.694.611-.327 2.442-.368 4.924-.245 7.325zm-2.533-9.156c-.04-.407-.081-.773-.081-1.22 0-2.402-.041-7.122-.082-9.523-.163-.326-.45-.489-.776-.57-.572-.163-1.267-.122-1.88-.081.164.57.042 1.18-.08 1.709-1.635 3.784-3.35 7.569-5.556 11.11 2.696-.326 5.514-.448 8.414-.326.041-.367.041-.733.041-1.1zM63.486 55.855c-.531.04-.9-.53-1.144-.936a24.731 24.731 0 0 1-2.165-5.005c-.694-2.157-1.062-4.355-1.225-6.715-1.226 1.872-3.268 5.29-4.535 7.122-1.307 1.953-2.614 4.028-3.676 5.982-.123.284-.572.08-.735-.163-.204-.367-.123-.855-.041-1.221.245-.366.694-1.302.94-1.831 2.655-4.029 5.432-8.139 7.883-12.168.286-.285 1.266-.447 1.348.326.204 2.482.572 4.965 1.144 7.325.572 2.36 1.43 4.557 2.532 6.674.041.122 0 .57-.326.61zM75.581 42.63a75.99 75.99 0 0 1-.327 12.574 4.35 4.35 0 0 0-.245.692c-.122.244-.204.488-.408.732-.082.163-.613.244-.735-.04.081-.937.53-5.86.408-7.977-2.982 1.71-5.76 4.72-7.843 7.529-.204.203-.694.203-.776-.204 0-.732.286-1.302.695-1.872.408-.529.898-1.017 1.266-1.587 1.021-1.22 2.206-2.238 3.431-3.214-.98.08-2.001 0-2.982-.448-1.103-.488-1.838-1.424-2.001-2.645-.123-.733 0-1.506.367-2.076.736-1.139 1.716-2.116 2.819-2.767 1.307-.773 2.737-1.18 4.33-1.058.858.285 1.838.57 2.246 1.465.082.285.082.651-.245.895zm-1.348 1.75c0-.896-.04-1.75-.163-2.564-.735-.285-1.348-.367-2.165-.122-.858.244-1.879.65-2.696 1.261-.98.733-1.716 1.669-1.756 2.89.081.528.285 1.057.735 1.464.572.367 1.307.57 1.96.61 1.471.123 2.982-.325 4.126-.895-.04-.854-.04-1.75-.04-2.645zM102.485 44.013c-1.511-.773-3.145-1.261-4.82-1.546-1.757-.285-3.758-.407-5.188-.367-.122.041-.327.082-.327.204.041 3.947-.326 8.22-.571 12.249-.082.285-.082.57-.164.854-.04.285-.122.57-.327.774-.204.203-.939.488-1.062 0 .164-2.401.531-7.976.613-10.092l.163-4.721c.49-.57 1.144-.692 1.839-.651.326 0 .694 0 1.02.04.328.041.654.041.981 0 2.492.163 4.902.652 7.026 1.75.531.245 1.021.61 1.348 1.18.082.326-.368.448-.531.326zM113.855 55.407c-1.838.936-4.044 1.343-6.045.367a6.223 6.223 0 0 1-3.187-3.704c-.612-1.912-.408-4.069.409-5.86a9.137 9.137 0 0 1 2.655-3.296c.735-.529 1.838-1.18 2.859-1.302.817-.936 2.165-1.22 3.309-.936 1.961.53 3.635 2.523 4.166 4.273.531 1.71.654 3.581.164 5.33-.613 2.361-2.165 4.07-4.33 5.128zm2.819-10.01c-.491-1.343-1.594-2.849-3.023-3.337-.654-.244-1.348-.326-1.879.081-.531.407-.858 1.058-1.103 1.628-.041.122-.041.285-.041.448 0 .162 0 .366-.041.529-.041.081-.449.325-.572.081a6.809 6.809 0 0 1-.122-1.669c-1.552.652-2.86 1.995-3.595 3.5-.776 1.587-.817 3.418-.327 5.046.409 1.262 1.185 2.32 2.492 2.849 1.634.61 3.39.407 4.861-.326 1.675-.854 2.859-2.157 3.431-3.906.531-1.547.45-3.378-.081-4.924zM127.57 56.221c-1.552.204-3.186.082-4.738-.854-2.042-1.221-2.941-3.337-2.819-5.697.123-1.832.695-3.54 1.716-5.087a10.26 10.26 0 0 1 4.167-3.622c.898-.448 2.124-.651 3.104-.244.817.325 1.675 1.18 1.838 1.994.082.244-.327.773-.653.529-.45-.407-1.022-.936-1.594-1.18-.571-.244-1.102-.285-1.715-.04-1.593.65-3.064 1.912-4.044 3.417a9.043 9.043 0 0 0-1.471 4.68c0 1.506.572 2.93 1.839 3.866 1.184.855 2.736 1.058 4.166.936 2.41-.203 4.534-1.22 6.658-2.157.245 0 .613.407.409.692-2.043 1.14-4.371 2.4-6.863 2.767zM148.153 42.345c-1.062-.245-2.124-.489-3.227-.53-.899 1.14-1.348 2.483-1.593 3.907-.286 1.465-.245 3.011-.327 4.517-.082 2.035.082 3.988.327 5.9-.123.245-.49.408-.776.245-.695-.855-.858-1.953-.899-3.052-.041-2.442-.082-5.005.286-7.406.245-1.547.694-2.97 1.634-4.273-2.533-.122-4.861.407-7.189 1.058a1.288 1.288 0 0 1-.899-.57c-.082-.285.082-.447.245-.529l.245-.081.204-.082c1.716-.691 3.799-1.058 5.801-1.098 2.042-.082 4.085.122 5.882.773.204.081.572.366.694.61.041.285-.163.651-.408.61zM156.225 56.384c-2.043-.081-3.922-1.017-5.106-2.767-.981-1.465-1.226-3.174-1.022-4.843a10.735 10.735 0 0 1 2.084-5.046c1.184-1.546 2.859-2.767 4.779-3.133 1.307-.244 2.696-.122 3.676.936.45.488.858 1.017.858 1.668.041.692-.286 1.302-.858 1.75-2.859 2.36-5.882 4.558-8.986 6.348.081 1.262 1.184 2.564 2.369 3.215 1.184.651 2.573.733 3.88.57 1.308-.122 2.656-.57 3.595-1.018.163-.122.286 0 .327.123.041.08.122.244-.041.366-1.43 1.302-3.472 1.912-5.555 1.83zm1.797-14.528c-1.185 0-2.369.489-3.309 1.221-2.001 1.628-3.186 4.232-3.186 6.755 2.9-1.587 5.637-3.662 8.292-5.819.204-.163.368-.773.082-1.261-.327-.652-1.062-.896-1.879-.896zM172.894 34.816c-.082-.203-.205-.447-.286-.65-.041-.286.163-.367.286-.367.163 0 .327.081.449.122.368.285.654.733.858 1.18.163.407.122.977-.123 1.302-.286.367-.612.733-1.021.977-.613.366-1.348.651-2.001.855-.695.203-2.206.244-2.901.04-.939-.244-1.511-.691-1.797-1.343-.204-.488-.286-1.058-.204-1.668a3.431 3.431 0 0 1 .449-1.465.354.354 0 0 1 .286-.163c.082-.04.163-.04.286-.081.204.163.449.325.449.61s-.04.61-.081.936c-.082.366-.123.692 0 .936 0 .57.367.855.898 1.017.695.204 1.675.123 2.533-.122.653-.203 1.266-.488 1.675-.854.245-.204.367-.407.367-.61.041-.204-.041-.408-.122-.652zm3.513 21.527c-.858-.976-1.103-2.279-1.307-3.54-.409-2.93-.327-6.063-.409-9.115-2.492 3.54-4.452 7.12-6.822 11.15-.245.284-.367.488-.776.65-.367 0-.694-.04-.98-.447-1.961-3.622-2.328-8.057-2.042-12.452 0-.285.081-.773.408-.895.531-.163.94.284.94.61-.246 4.07.204 7.935 1.552 11.435 1.429-2.442 2.573-4.476 3.799-6.47a76.463 76.463 0 0 1 4.33-6.349c.326-.244.776-.081.939.244.123 3.907.082 7.732.408 11.476.082 1.22.368 2.401.45 3.54 0 .163-.368.326-.49.163z"/><path d="m184.571 31.154-.286 1.261c-.449 1.913-.49 3.907-.49 5.901-.041 2.93.164 5.9.45 8.708-.082.407-.123.855-.613.936-.49-.57-.613-1.22-.695-1.83-.326-2.972-.531-6.024-.449-9.035.082-2.36.368-4.72.94-7 .081-.162.204-.61.612-.69.245-.042.654.04.776.406a7.62 7.62 0 0 1-.245 1.343zm1.185 25.718c-1.43-.447-2.451-1.953-2.819-3.255-.04-.448.082-.773.45-.977.408-.081.694.285.776.53.122.447.327.813.572 1.22.49.692 1.021 1.302 1.511 1.994.041.285-.286.529-.49.488zM207.186 43.566c-.286.488-.857.65-1.348.528-.286-.08-.612-.366-.735-.732-.286-1.017-.163-2.198.531-3.011.245-.326.735-.61 1.226-.489.449.122.653.57.776.936.245.936-.082 2.035-.45 2.767zm-.367 12.614c-.45.204-1.062.123-1.348-.284-.409-.57-.49-1.303-.286-1.954.245-.691.613-1.587 1.307-1.912.531-.285 1.062 0 1.307.488.409.692.163 1.587.082 2.32-.204.488-.531 1.058-1.062 1.343zM219.821 54.838c-1.634 2.523-3.839 4.598-6.127 5.819-.408.203-.858-.489-.49-.773.817-.692 2.247-1.954 3.186-3.012 1.552-1.709 2.655-3.621 3.554-5.778 1.021-2.401 1.552-5.372 1.307-8.261-.286-2.97-1.103-5.697-2.614-8.139-1.471-2.32-3.268-4.395-5.147-6.267-.245-.244-.245-.691-.041-.895.164-.163.531-.447.94-.081 2.083 1.79 4.044 4.029 5.514 6.551 1.103 1.832 2.002 3.826 2.492 5.942.613 2.482.694 5.412.204 8.138-.449 2.36-1.43 4.68-2.778 6.756z"/></mask><path d="M9.034 22.73c-1.225.814-2.737 1.465-4.248 1.465-.858 0-1.47-.366-2.042-1.18-.205.163-.572.285-.736.04-.735-1.016-.939-2.44-.98-3.824-.082-3.54-.04-6.145.899-9.32.081-.325.858-.935 1.43-.772.245-.651.898-1.343 1.674-1.425 2.083 0 4.33 1.1 5.025 3.175a3.036 3.036 0 0 1-.041 1.994 3.672 3.672 0 0 1-1.185 1.546l-.245.203c1.021.326 2.165.977 2.818 1.994.49.773.531 1.71.327 2.605-.367 1.465-1.43 2.645-2.696 3.5zm1.144-5.412c-.327-.61-1.225-.977-1.879-1.302-.776-.488-1.47-.285-2.247-.122l-1.225.285c-.45.122-.899.122-1.389 0-.204-.122-.45-.53-.245-.733.49-.488 1.103-.732 1.797-.895l1.88-.204c.735-.406 1.51-1.22 1.837-1.993.205-.652.082-1.1-.326-1.628-.736-1.018-1.92-1.465-3.105-1.587-.367-.041-.49.04-.572.285-.122.325-.204.691-.408.976-.082.204-.368.285-.572.163a.79.79 0 0 1-.368-.204c-.49 1.75-.776 3.744-.857 5.82-.082 1.953 0 3.866.286 5.656.326-.366.735-.895.94-1.18.285-.285.816.163.734.448-.081.203-.245.447-.367.65-.082.245-.205.448-.205.611.246.366.817.488 1.512.407 1.021-.163 2.246-.732 3.145-1.424.817-.651 1.511-1.465 1.716-2.483.122-.488.204-1.058-.082-1.546zM20.903 23.666c-1.552.204-3.186.082-4.738-.854-2.042-1.221-2.941-3.337-2.818-5.697.122-1.832.694-3.54 1.715-5.087a10.262 10.262 0 0 1 4.167-3.622c.898-.447 2.124-.65 3.104-.244.817.326 1.675 1.18 1.838 1.994.082.244-.327.773-.653.53-.45-.408-1.021-.937-1.593-1.181-.572-.244-1.103-.285-1.716-.04-1.593.65-3.064 1.912-4.044 3.418a9.044 9.044 0 0 0-1.47 4.68c0 1.505.571 2.93 1.838 3.865 1.184.855 2.736 1.058 4.166.936 2.41-.203 4.534-1.22 6.658-2.157.245 0 .613.407.409.692-2.043 1.14-4.37 2.401-6.863 2.767zM41.486 9.79c-1.062-.244-2.124-.489-3.227-.53-.899 1.14-1.348 2.483-1.593 3.907-.286 1.465-.245 3.012-.327 4.517-.082 2.035.082 3.988.327 5.9-.123.245-.49.408-.776.245-.695-.855-.858-1.953-.899-3.052-.04-2.442-.082-5.005.286-7.406.245-1.546.694-2.97 1.634-4.273-2.533-.122-4.86.407-7.19 1.058a1.288 1.288 0 0 1-.898-.57c-.082-.285.082-.447.245-.529l.245-.081.204-.081c1.716-.692 3.8-1.058 5.8-1.1 2.043-.08 4.086.123 5.883.774.204.081.572.366.694.61.041.285-.163.652-.408.61zM52.826 20.451c-1.92 4.151-3.432 8.424-4.902 12.738-.123.244-.694.325-.817 0-.204-.367-.082-1.343 0-1.71.654-2.767 1.838-5.33 2.818-7.976-1.184-1.75-2.695-4.15-3.84-6.226-1.429-2.645-2.614-5.412-3.063-8.464-.081-.407.163-.814.49-.976.245-.082.409.04.531.162.123.122.205.285.286.448.409 2.442 1.226 4.72 2.247 6.877 1.144 2.32 2.492 4.517 4.003 6.715.94-2.035 1.92-4.07 2.982-6.064 1.062-2.034 2.246-3.988 3.676-5.9.286-.367.695-.774 1.062-.57.245.122.45.488.245.773-2.165 3.296-4.084 6.674-5.718 10.173zM71.949 22.486c0 .326-.368.407-.572.366-.45-.162-.531-.895-.613-1.302-.122-.732-.122-1.465-.122-2.238V16.83c0-1.913.245-3.988.285-5.941-.245-.367-.653-.57-1.062-.652-.449-.122-.98-.162-1.43-.284-1.633-.245-3.267-.489-4.983-.407-.204 1.79-.694 3.459-.94 5.25-.367 2.644-.694 5.127-.53 7.934 0 .326.082.814-.245 1.058-.164.163-.613.163-.817-.04-.204-.245-.286-.53-.327-.814-.04-.285 0-.61-.04-.936-.042-4.273.653-8.26 1.51-12.412-.204.041-.408.082-.612.041-.368-.203-.286-.57-.123-.732.164-.326.45-.448.736-.53.285-.08.612-.162.898-.162 2.778-.204 5.719.203 8.251 1.017.49.285 1.185.61 1.226 1.262-.368 3.906-.45 7.935-.49 12.004zM82.747 23.666c-2.247.61-4.861.57-6.617-.936-.817-.691-1.43-1.709-1.471-2.808-.04-.976.368-1.871.94-2.685 1.266-1.79 3.472-3.012 5.596-3.256.898-.081 1.715.04 2.369.692.204.204 0 .61-.204.692h-.368c-.123 0-.286-.04-.409-.04-.285-.042-.53-.082-.694.04-1.96.081-3.88 1.017-5.065 2.604-.531.692-.817 1.221-.735 2.076.081 1.139.94 1.994 2.124 2.4 1.675.61 3.758.245 5.35-.325.859-.326 1.635-.651 2.37-1.18.163-.122.327 0 .408.203.041.163.041.326.041.448-.572 1.099-2.859 1.872-3.635 2.075zm2.287-2.767c-.204.244-.572.204-.735.081-.408-.284-.408-.813-.408-1.22.04-.692.163-1.384.326-2.116l.531-2.238c.327-1.466.531-2.93.082-4.151-.367-1.058-1.266-2.116-2.369-2.238-.94-.122-1.879.203-2.655.773-.409.285-1.307 1.058-1.552 1.506-.041.162.04.447.204.61.163.163.04.651-.327.57-.286-.082-.613-.163-.858-.367-.326-.284-.449-.813-.204-1.22.694-1.18 1.675-2.157 2.941-2.727.817-.407 1.797-.57 2.819-.407 1.225.204 2.287 1.099 2.9 2.238.94 1.75.817 3.947.367 5.9-.408 1.67-.817 3.216-1.062 5.006zM97.82 2.261c-.082-.203-.204-.447-.286-.65-.04-.285.163-.367.286-.367.163 0 .327.082.45.122.367.285.653.733.857 1.18.164.407.123.977-.122 1.303-.286.366-.613.732-1.022.976-.612.366-1.348.651-2.001.855-.695.203-2.206.244-2.9.04-.94-.244-1.512-.691-1.798-1.342-.204-.489-.285-1.058-.204-1.669.041-.529.204-1.058.45-1.465a.354.354 0 0 1 .285-.163c.082-.04.164-.04.286-.081.205.163.45.326.45.61 0 .285-.041.61-.082.936-.082.367-.123.692 0 .936 0 .57.368.855.899 1.018.694.203 1.674.122 2.532-.122.654-.204 1.266-.489 1.675-.855.245-.203.368-.407.368-.61.04-.204-.041-.407-.123-.651zm3.513 21.527c-.858-.976-1.103-2.278-1.307-3.54-.409-2.93-.327-6.063-.409-9.115-2.491 3.54-4.452 7.121-6.821 11.15-.245.285-.368.488-.776.65-.368 0-.695-.04-.98-.447-1.961-3.622-2.329-8.057-2.043-12.452 0-.285.082-.773.408-.895.531-.163.94.285.94.61-.245 4.07.204 7.935 1.552 11.435 1.43-2.442 2.573-4.476 3.799-6.47a76.59 76.59 0 0 1 4.33-6.348c.327-.245.776-.082.939.244.123 3.906.082 7.732.409 11.475.081 1.221.367 2.401.449 3.54 0 .163-.368.326-.49.163zM116.36 9.79c-1.062-.244-2.124-.489-3.227-.53-.899 1.14-1.348 2.483-1.593 3.907-.286 1.465-.245 3.012-.327 4.517-.081 2.035.082 3.988.327 5.9-.122.245-.49.408-.776.245-.694-.855-.858-1.953-.899-3.052-.041-2.442-.081-5.005.286-7.406.245-1.546.695-2.97 1.634-4.273-2.532-.122-4.861.407-7.189 1.058a1.29 1.29 0 0 1-.899-.57c-.081-.285.082-.447.245-.529l.246-.081.204-.081c1.715-.692 3.799-1.058 5.8-1.1 2.042-.08 4.085.123 5.882.774.204.081.572.366.695.61.04.285-.164.652-.409.61zM124.432 23.83c-2.042-.082-3.921-1.018-5.106-2.768-.98-1.465-1.225-3.174-1.021-4.843a10.724 10.724 0 0 1 2.083-5.046c1.185-1.546 2.859-2.767 4.779-3.133 1.307-.244 2.696-.122 3.677.936.449.488.857 1.017.857 1.668.041.692-.286 1.303-.857 1.75-2.86 2.36-5.882 4.558-8.987 6.348.082 1.262 1.185 2.564 2.369 3.215 1.185.651 2.574.733 3.881.57 1.307-.122 2.655-.57 3.594-1.017.164-.123.286 0 .327.122.041.081.123.244-.041.366-1.429 1.302-3.472 1.912-5.555 1.831zM126.229 9.3c-1.184 0-2.369.489-3.308 1.221-2.002 1.628-3.186 4.232-3.186 6.755 2.9-1.587 5.637-3.662 8.292-5.819.204-.162.367-.773.081-1.261-.326-.651-1.062-.896-1.879-.896zM151.204 22.73c-1.226.814-2.737 1.465-4.249 1.465-.857 0-1.47-.366-2.042-1.18-.204.163-.572.285-.735.04-.735-1.016-.94-2.44-.981-3.824-.081-3.54-.04-6.145.899-9.32.082-.325.858-.935 1.43-.772.245-.651.898-1.343 1.674-1.425 2.084 0 4.33 1.1 5.025 3.175a3.038 3.038 0 0 1-.041 1.994 3.673 3.673 0 0 1-1.185 1.546l-.245.203c1.021.326 2.165.977 2.819 1.994.49.773.531 1.71.327 2.605-.368 1.465-1.43 2.645-2.696 3.5zm1.143-5.412c-.326-.61-1.225-.977-1.879-1.302-.776-.488-1.47-.285-2.246-.122l-1.226.285a2.678 2.678 0 0 1-1.389 0c-.204-.122-.449-.53-.245-.733.491-.488 1.103-.732 1.798-.895l1.879-.204c.735-.406 1.511-1.22 1.838-1.993.204-.652.081-1.1-.327-1.628-.735-1.018-1.92-1.465-3.104-1.587-.368-.041-.491.04-.572.285-.123.325-.205.691-.409.976-.081.204-.367.285-.572.163a.787.787 0 0 1-.367-.204c-.49 1.75-.776 3.744-.858 5.82-.082 1.953 0 3.866.286 5.656.327-.366.735-.895.939-1.18.286-.285.817.163.736.448-.082.203-.245.447-.368.65-.082.245-.204.448-.204.611.245.366.817.488 1.511.407 1.021-.163 2.247-.732 3.145-1.424.817-.651 1.512-1.465 1.716-2.483.123-.488.204-1.058-.082-1.546zM179.793 11.458c-1.512-.773-3.146-1.261-4.821-1.546-1.756-.285-3.758-.407-5.187-.366-.123.04-.327.081-.327.203.041 3.947-.327 8.22-.572 12.249-.082.285-.082.57-.163.854-.041.285-.123.57-.327.774-.204.203-.94.488-1.062 0 .163-2.401.531-7.976.613-10.092l.163-4.72c.49-.57 1.144-.693 1.838-.652.327 0 .695 0 1.021.04.327.041.654.041.981 0 2.491.164 4.901.652 7.026 1.75.531.245 1.021.611 1.348 1.18.081.326-.368.448-.531.326zM183.892 9.79h-.205a.337.337 0 0 1-.326-.285c-.041-.326.081-.61.326-.855.654-.57 1.389-.813 2.206-.773.572.04 1.144.122 1.716.326l1.552.529c2.206.732 4.126 2.686 5.188 4.802.572 1.18.776 2.4.49 3.743-.286 1.221-1.021 2.36-2.002 3.297-2.451 2.32-5.514 3.01-8.904 3.01-.041 2.768-.205 5.86.163 8.587 0 .122.082.285.163.407.041.204.123.366-.041.61-.326.245-.653.163-.939 0-.409-.447-.572-.935-.613-1.505-.286-2.89-.163-5.697 0-8.627-.367-.326-.939-.773-1.062-1.262 0-.162.041-.325.123-.407.122-.203.286-.244.367-.162.123.122.368.285.572.407.245-4.07.531-7.936 1.226-11.842zm8.088 2.645c-.899-1.099-2.165-1.872-3.391-2.401-.694-.326-2.655-1.058-3.39-.733.041.57-.041 1.588-.123 2.035-.572 3.46-.939 7.162-.98 10.825 2.818.203 5.514-.651 7.679-2.523 1.185-1.018 1.879-2.442 1.757-3.907-.082-1.22-.858-2.441-1.552-3.296zM206.005 20.451c-1.92 4.151-3.432 8.424-4.902 12.738-.123.244-.694.325-.817 0-.204-.367-.082-1.343 0-1.71.654-2.767 1.838-5.33 2.818-7.976-1.184-1.75-2.695-4.15-3.839-6.226-1.43-2.645-2.614-5.412-3.064-8.464-.082-.407.164-.814.49-.976.245-.082.409.04.531.162.123.122.205.285.286.448.409 2.442 1.226 4.72 2.247 6.877 1.144 2.32 2.492 4.517 4.003 6.715.94-2.035 1.92-4.07 2.982-6.064 1.062-2.034 2.247-3.988 3.676-5.9.286-.367.695-.774 1.062-.57.245.122.45.488.245.773-2.165 3.296-4.084 6.674-5.718 10.173zM225.128 22.486c0 .326-.368.407-.572.366-.449-.162-.531-.895-.613-1.302-.122-.732-.122-1.465-.122-2.238V16.83c0-1.913.245-3.988.286-5.941-.246-.367-.654-.57-1.062-.652-.45-.122-.981-.162-1.43-.284-1.634-.245-3.268-.489-4.984-.407-.204 1.79-.694 3.459-.939 5.25-.368 2.644-.694 5.127-.531 7.934 0 .326.082.814-.245 1.058-.164.163-.613.163-.817-.04-.204-.245-.286-.53-.327-.814-.041-.285 0-.61-.041-.936-.041-4.273.654-8.26 1.512-12.412-.205.041-.409.082-.613.041-.368-.203-.286-.57-.123-.732.164-.326.45-.448.736-.53.286-.08.612-.162.898-.162 2.778-.204 5.719.203 8.252 1.017.49.285 1.184.61 1.225 1.262-.368 3.906-.449 7.935-.49 12.004zM239.847 22.486c0 .326-.367.407-.572.366-.449-.162-.531-.895-.612-1.302-.123-.732-.123-1.465-.123-2.238V16.83c0-1.913.245-3.988.286-5.941-.245-.367-.653-.57-1.062-.652-.449-.122-.98-.162-1.43-.284-1.633-.245-3.267-.489-4.983-.407-.204 1.79-.694 3.459-.94 5.25-.367 2.644-.694 5.127-.531 7.934 0 .326.082.814-.245 1.058-.163.163-.612.163-.817-.04-.204-.245-.285-.53-.326-.814-.041-.285 0-.61-.041-.936-.041-4.273.653-8.26 1.511-12.412-.204.041-.408.082-.613.041-.367-.203-.285-.57-.122-.732.163-.326.449-.448.735-.53.286-.08.613-.162.899-.162 2.777-.204 5.718.203 8.251 1.017.49.285 1.185.61 1.226 1.262-.368 3.906-.45 7.935-.491 12.004zM252.198 20.451c-1.92 4.151-3.432 8.424-4.902 12.738-.123.244-.694.325-.817 0-.204-.367-.082-1.343 0-1.71.654-2.767 1.838-5.33 2.819-7.976-1.185-1.75-2.696-4.15-3.84-6.226-1.43-2.645-2.614-5.412-3.064-8.464-.081-.407.164-.814.49-.976.246-.082.409.04.531.162.123.122.205.285.286.448.409 2.442 1.226 4.72 2.247 6.877 1.144 2.32 2.492 4.517 4.003 6.715.94-2.035 1.92-4.07 2.982-6.064 1.062-2.034 2.247-3.988 3.676-5.9.286-.367.695-.774 1.062-.57.245.122.45.488.245.773-2.165 3.296-4.084 6.674-5.718 10.173zM48.075 62.488c-.123.325-.531.325-.735.203-.45-.407-.45-.976-.49-1.546-.123-1.71-.287-3.581-.082-5.33a42.432 42.432 0 0 0-11.601.528 26.685 26.685 0 0 0 .245 6.267c-.04.203-.327.53-.654.326-.367-.163-.53-.489-.612-.774l-.205-.895c-.081-.895-.163-1.79-.204-2.645-.04-.895-.04-1.79.041-2.564.041-.325.327-.65.613-.854l1.144-.244c2.369-3.948 4.33-8.017 6.045-12.25.04-.203.123-.772-.04-.976-.123-.529.203-.814.53-1.058 1.307-.203 2.778-.163 3.922.488.449.204.653.652.735 1.1 0 2.115.04 6.51.082 8.667.163 1.18 0 2.4-.082 3.581.082.04.204.04.367.04.246.041.409 0 .532 0 .367.041.694.286.694.611-.327 2.442-.368 4.924-.245 7.325zm-2.533-9.156c-.04-.407-.081-.773-.081-1.22 0-2.402-.041-7.122-.082-9.523-.163-.326-.45-.489-.776-.57-.572-.163-1.267-.122-1.88-.081.164.57.042 1.18-.08 1.709-1.635 3.784-3.35 7.569-5.556 11.11 2.696-.326 5.514-.448 8.414-.326.041-.367.041-.733.041-1.1zM63.486 55.855c-.531.04-.9-.53-1.144-.936a24.731 24.731 0 0 1-2.165-5.005c-.694-2.157-1.062-4.355-1.225-6.715-1.226 1.872-3.268 5.29-4.535 7.122-1.307 1.953-2.614 4.028-3.676 5.982-.123.284-.572.08-.735-.163-.204-.367-.123-.855-.041-1.221.245-.366.694-1.302.94-1.831 2.655-4.029 5.432-8.139 7.883-12.168.286-.285 1.266-.447 1.348.326.204 2.482.572 4.965 1.144 7.325.572 2.36 1.43 4.557 2.532 6.674.041.122 0 .57-.326.61zM75.581 42.63a75.99 75.99 0 0 1-.327 12.574 4.35 4.35 0 0 0-.245.692c-.122.244-.204.488-.408.732-.082.163-.613.244-.735-.04.081-.937.53-5.86.408-7.977-2.982 1.71-5.76 4.72-7.843 7.529-.204.203-.694.203-.776-.204 0-.732.286-1.302.695-1.872.408-.529.898-1.017 1.266-1.587 1.021-1.22 2.206-2.238 3.431-3.214-.98.08-2.001 0-2.982-.448-1.103-.488-1.838-1.424-2.001-2.645-.123-.733 0-1.506.367-2.076.736-1.139 1.716-2.116 2.819-2.767 1.307-.773 2.737-1.18 4.33-1.058.858.285 1.838.57 2.246 1.465.082.285.082.651-.245.895zm-1.348 1.75c0-.896-.04-1.75-.163-2.564-.735-.285-1.348-.367-2.165-.122-.858.244-1.879.65-2.696 1.261-.98.733-1.716 1.669-1.756 2.89.081.528.285 1.057.735 1.464.572.367 1.307.57 1.96.61 1.471.123 2.982-.325 4.126-.895-.04-.854-.04-1.75-.04-2.645zM102.485 44.013c-1.511-.773-3.145-1.261-4.82-1.546-1.757-.285-3.758-.407-5.188-.367-.122.041-.327.082-.327.204.041 3.947-.326 8.22-.571 12.249-.082.285-.082.57-.164.854-.04.285-.122.57-.327.774-.204.203-.939.488-1.062 0 .164-2.401.531-7.976.613-10.092l.163-4.721c.49-.57 1.144-.692 1.839-.651.326 0 .694 0 1.02.04.328.041.654.041.981 0 2.492.163 4.902.652 7.026 1.75.531.245 1.021.61 1.348 1.18.082.326-.368.448-.531.326zM113.855 55.407c-1.838.936-4.044 1.343-6.045.367a6.223 6.223 0 0 1-3.187-3.704c-.612-1.912-.408-4.069.409-5.86a9.137 9.137 0 0 1 2.655-3.296c.735-.529 1.838-1.18 2.859-1.302.817-.936 2.165-1.22 3.309-.936 1.961.53 3.635 2.523 4.166 4.273.531 1.71.654 3.581.164 5.33-.613 2.361-2.165 4.07-4.33 5.128zm2.819-10.01c-.491-1.343-1.594-2.849-3.023-3.337-.654-.244-1.348-.326-1.879.081-.531.407-.858 1.058-1.103 1.628-.041.122-.041.285-.041.448 0 .162 0 .366-.041.529-.041.081-.449.325-.572.081a6.809 6.809 0 0 1-.122-1.669c-1.552.652-2.86 1.995-3.595 3.5-.776 1.587-.817 3.418-.327 5.046.409 1.262 1.185 2.32 2.492 2.849 1.634.61 3.39.407 4.861-.326 1.675-.854 2.859-2.157 3.431-3.906.531-1.547.45-3.378-.081-4.924zM127.57 56.221c-1.552.204-3.186.082-4.738-.854-2.042-1.221-2.941-3.337-2.819-5.697.123-1.832.695-3.54 1.716-5.087a10.26 10.26 0 0 1 4.167-3.622c.898-.448 2.124-.651 3.104-.244.817.325 1.675 1.18 1.838 1.994.082.244-.327.773-.653.529-.45-.407-1.022-.936-1.594-1.18-.571-.244-1.102-.285-1.715-.04-1.593.65-3.064 1.912-4.044 3.417a9.043 9.043 0 0 0-1.471 4.68c0 1.506.572 2.93 1.839 3.866 1.184.855 2.736 1.058 4.166.936 2.41-.203 4.534-1.22 6.658-2.157.245 0 .613.407.409.692-2.043 1.14-4.371 2.4-6.863 2.767zM148.153 42.345c-1.062-.245-2.124-.489-3.227-.53-.899 1.14-1.348 2.483-1.593 3.907-.286 1.465-.245 3.011-.327 4.517-.082 2.035.082 3.988.327 5.9-.123.245-.49.408-.776.245-.695-.855-.858-1.953-.899-3.052-.041-2.442-.082-5.005.286-7.406.245-1.547.694-2.97 1.634-4.273-2.533-.122-4.861.407-7.189 1.058a1.288 1.288 0 0 1-.899-.57c-.082-.285.082-.447.245-.529l.245-.081.204-.082c1.716-.691 3.799-1.058 5.801-1.098 2.042-.082 4.085.122 5.882.773.204.081.572.366.694.61.041.285-.163.651-.408.61zM156.225 56.384c-2.043-.081-3.922-1.017-5.106-2.767-.981-1.465-1.226-3.174-1.022-4.843a10.735 10.735 0 0 1 2.084-5.046c1.184-1.546 2.859-2.767 4.779-3.133 1.307-.244 2.696-.122 3.676.936.45.488.858 1.017.858 1.668.041.692-.286 1.302-.858 1.75-2.859 2.36-5.882 4.558-8.986 6.348.081 1.262 1.184 2.564 2.369 3.215 1.184.651 2.573.733 3.88.57 1.308-.122 2.656-.57 3.595-1.018.163-.122.286 0 .327.123.041.08.122.244-.041.366-1.43 1.302-3.472 1.912-5.555 1.83zm1.797-14.528c-1.185 0-2.369.489-3.309 1.221-2.001 1.628-3.186 4.232-3.186 6.755 2.9-1.587 5.637-3.662 8.292-5.819.204-.163.368-.773.082-1.261-.327-.652-1.062-.896-1.879-.896zM172.894 34.816c-.082-.203-.205-.447-.286-.65-.041-.286.163-.367.286-.367.163 0 .327.081.449.122.368.285.654.733.858 1.18.163.407.122.977-.123 1.302-.286.367-.612.733-1.021.977-.613.366-1.348.651-2.001.855-.695.203-2.206.244-2.901.04-.939-.244-1.511-.691-1.797-1.343-.204-.488-.286-1.058-.204-1.668a3.431 3.431 0 0 1 .449-1.465.354.354 0 0 1 .286-.163c.082-.04.163-.04.286-.081.204.163.449.325.449.61s-.04.61-.081.936c-.082.366-.123.692 0 .936 0 .57.367.855.898 1.017.695.204 1.675.123 2.533-.122.653-.203 1.266-.488 1.675-.854.245-.204.367-.407.367-.61.041-.204-.041-.408-.122-.652zm3.513 21.527c-.858-.976-1.103-2.279-1.307-3.54-.409-2.93-.327-6.063-.409-9.115-2.492 3.54-4.452 7.12-6.822 11.15-.245.284-.367.488-.776.65-.367 0-.694-.04-.98-.447-1.961-3.622-2.328-8.057-2.042-12.452 0-.285.081-.773.408-.895.531-.163.94.284.94.61-.246 4.07.204 7.935 1.552 11.435 1.429-2.442 2.573-4.476 3.799-6.47a76.463 76.463 0 0 1 4.33-6.349c.326-.244.776-.081.939.244.123 3.907.082 7.732.408 11.476.082 1.22.368 2.401.45 3.54 0 .163-.368.326-.49.163z" fill="#fff"/><path d="m184.571 31.154-.286 1.261c-.449 1.913-.49 3.907-.49 5.901-.041 2.93.164 5.9.45 8.708-.082.407-.123.855-.613.936-.49-.57-.613-1.22-.695-1.83-.326-2.972-.531-6.024-.449-9.035.082-2.36.368-4.72.94-7 .081-.162.204-.61.612-.69.245-.042.654.04.776.406a7.62 7.62 0 0 1-.245 1.343zm1.185 25.718c-1.43-.447-2.451-1.953-2.819-3.255-.04-.448.082-.773.45-.977.408-.081.694.285.776.53.122.447.327.813.572 1.22.49.692 1.021 1.302 1.511 1.994.041.285-.286.529-.49.488zM207.186 43.566c-.286.488-.857.65-1.348.528-.286-.08-.612-.366-.735-.732-.286-1.017-.163-2.198.531-3.011.245-.326.735-.61 1.226-.489.449.122.653.57.776.936.245.936-.082 2.035-.45 2.767zm-.367 12.614c-.45.204-1.062.123-1.348-.284-.409-.57-.49-1.303-.286-1.954.245-.691.613-1.587 1.307-1.912.531-.285 1.062 0 1.307.488.409.692.163 1.587.082 2.32-.204.488-.531 1.058-1.062 1.343zM219.821 54.838c-1.634 2.523-3.839 4.598-6.127 5.819-.408.203-.858-.489-.49-.773.817-.692 2.247-1.954 3.186-3.012 1.552-1.709 2.655-3.621 3.554-5.778 1.021-2.401 1.552-5.372 1.307-8.261-.286-2.97-1.103-5.697-2.614-8.139-1.471-2.32-3.268-4.395-5.147-6.267-.245-.244-.245-.691-.041-.895.164-.163.531-.447.94-.081 2.083 1.79 4.044 4.029 5.514 6.551 1.103 1.832 2.002 3.826 2.492 5.942.613 2.482.694 5.412.204 8.138-.449 2.36-1.43 4.68-2.778 6.756z" fill="#fff"/><path d="M9.034 22.73c-1.225.814-2.737 1.465-4.248 1.465-.858 0-1.47-.366-2.042-1.18-.205.163-.572.285-.736.04-.735-1.016-.939-2.44-.98-3.824-.082-3.54-.04-6.145.899-9.32.081-.325.858-.935 1.43-.772.245-.651.898-1.343 1.674-1.425 2.083 0 4.33 1.1 5.025 3.175a3.036 3.036 0 0 1-.041 1.994 3.672 3.672 0 0 1-1.185 1.546l-.245.203c1.021.326 2.165.977 2.818 1.994.49.773.531 1.71.327 2.605-.367 1.465-1.43 2.645-2.696 3.5zm1.144-5.412c-.327-.61-1.225-.977-1.879-1.302-.776-.488-1.47-.285-2.247-.122l-1.225.285c-.45.122-.899.122-1.389 0-.204-.122-.45-.53-.245-.733.49-.488 1.103-.732 1.797-.895l1.88-.204c.735-.406 1.51-1.22 1.837-1.993.205-.652.082-1.1-.326-1.628-.736-1.018-1.92-1.465-3.105-1.587-.367-.041-.49.04-.572.285-.122.325-.204.691-.408.976-.082.204-.368.285-.572.163a.79.79 0 0 1-.368-.204c-.49 1.75-.776 3.744-.857 5.82-.082 1.953 0 3.866.286 5.656.326-.366.735-.895.94-1.18.285-.285.816.163.734.448-.081.203-.245.447-.367.65-.082.245-.205.448-.205.611.246.366.817.488 1.512.407 1.021-.163 2.246-.732 3.145-1.424.817-.651 1.511-1.465 1.716-2.483.122-.488.204-1.058-.082-1.546zM20.903 23.666c-1.552.204-3.186.082-4.738-.854-2.042-1.221-2.941-3.337-2.818-5.697.122-1.832.694-3.54 1.715-5.087a10.262 10.262 0 0 1 4.167-3.622c.898-.447 2.124-.65 3.104-.244.817.326 1.675 1.18 1.838 1.994.082.244-.327.773-.653.53-.45-.408-1.021-.937-1.593-1.181-.572-.244-1.103-.285-1.716-.04-1.593.65-3.064 1.912-4.044 3.418a9.044 9.044 0 0 0-1.47 4.68c0 1.505.571 2.93 1.838 3.865 1.184.855 2.736 1.058 4.166.936 2.41-.203 4.534-1.22 6.658-2.157.245 0 .613.407.409.692-2.043 1.14-4.37 2.401-6.863 2.767zM41.486 9.79c-1.062-.244-2.124-.489-3.227-.53-.899 1.14-1.348 2.483-1.593 3.907-.286 1.465-.245 3.012-.327 4.517-.082 2.035.082 3.988.327 5.9-.123.245-.49.408-.776.245-.695-.855-.858-1.953-.899-3.052-.04-2.442-.082-5.005.286-7.406.245-1.546.694-2.97 1.634-4.273-2.533-.122-4.86.407-7.19 1.058a1.288 1.288 0 0 1-.898-.57c-.082-.285.082-.447.245-.529l.245-.081.204-.081c1.716-.692 3.8-1.058 5.8-1.1 2.043-.08 4.086.123 5.883.774.204.081.572.366.694.61.041.285-.163.652-.408.61zM52.826 20.451c-1.92 4.151-3.432 8.424-4.902 12.738-.123.244-.694.325-.817 0-.204-.367-.082-1.343 0-1.71.654-2.767 1.838-5.33 2.818-7.976-1.184-1.75-2.695-4.15-3.84-6.226-1.429-2.645-2.614-5.412-3.063-8.464-.081-.407.163-.814.49-.976.245-.082.409.04.531.162.123.122.205.285.286.448.409 2.442 1.226 4.72 2.247 6.877 1.144 2.32 2.492 4.517 4.003 6.715.94-2.035 1.92-4.07 2.982-6.064 1.062-2.034 2.246-3.988 3.676-5.9.286-.367.695-.774 1.062-.57.245.122.45.488.245.773-2.165 3.296-4.084 6.674-5.718 10.173zM71.949 22.486c0 .326-.368.407-.572.366-.45-.162-.531-.895-.613-1.302-.122-.732-.122-1.465-.122-2.238V16.83c0-1.913.245-3.988.285-5.941-.245-.367-.653-.57-1.062-.652-.449-.122-.98-.162-1.43-.284-1.633-.245-3.267-.489-4.983-.407-.204 1.79-.694 3.459-.94 5.25-.367 2.644-.694 5.127-.53 7.934 0 .326.082.814-.245 1.058-.164.163-.613.163-.817-.04-.204-.245-.286-.53-.327-.814-.04-.285 0-.61-.04-.936-.042-4.273.653-8.26 1.51-12.412-.204.041-.408.082-.612.041-.368-.203-.286-.57-.123-.732.164-.326.45-.448.736-.53.285-.08.612-.162.898-.162 2.778-.204 5.719.203 8.251 1.017.49.285 1.185.61 1.226 1.262-.368 3.906-.45 7.935-.49 12.004zM82.747 23.666c-2.247.61-4.861.57-6.617-.936-.817-.691-1.43-1.709-1.471-2.808-.04-.976.368-1.871.94-2.685 1.266-1.79 3.472-3.012 5.596-3.256.898-.081 1.715.04 2.369.692.204.204 0 .61-.204.692h-.368c-.123 0-.286-.04-.409-.04-.285-.042-.53-.082-.694.04-1.96.081-3.88 1.017-5.065 2.604-.531.692-.817 1.221-.735 2.076.081 1.139.94 1.994 2.124 2.4 1.675.61 3.758.245 5.35-.325.859-.326 1.635-.651 2.37-1.18.163-.122.327 0 .408.203.041.163.041.326.041.448-.572 1.099-2.859 1.872-3.635 2.075zm2.287-2.767c-.204.244-.572.204-.735.081-.408-.284-.408-.813-.408-1.22.04-.692.163-1.384.326-2.116l.531-2.238c.327-1.466.531-2.93.082-4.151-.367-1.058-1.266-2.116-2.369-2.238-.94-.122-1.879.203-2.655.773-.409.285-1.307 1.058-1.552 1.506-.041.162.04.447.204.61.163.163.04.651-.327.57-.286-.082-.613-.163-.858-.367-.326-.284-.449-.813-.204-1.22.694-1.18 1.675-2.157 2.941-2.727.817-.407 1.797-.57 2.819-.407 1.225.204 2.287 1.099 2.9 2.238.94 1.75.817 3.947.367 5.9-.408 1.67-.817 3.216-1.062 5.006zM97.82 2.261c-.082-.203-.204-.447-.286-.65-.04-.285.163-.367.286-.367.163 0 .327.082.45.122.367.285.653.733.857 1.18.164.407.123.977-.122 1.303-.286.366-.613.732-1.022.976-.612.366-1.348.651-2.001.855-.695.203-2.206.244-2.9.04-.94-.244-1.512-.691-1.798-1.342-.204-.489-.285-1.058-.204-1.669.041-.529.204-1.058.45-1.465a.354.354 0 0 1 .285-.163c.082-.04.164-.04.286-.081.205.163.45.326.45.61 0 .285-.041.61-.082.936-.082.367-.123.692 0 .936 0 .57.368.855.899 1.018.694.203 1.674.122 2.532-.122.654-.204 1.266-.489 1.675-.855.245-.203.368-.407.368-.61.04-.204-.041-.407-.123-.651zm3.513 21.527c-.858-.976-1.103-2.278-1.307-3.54-.409-2.93-.327-6.063-.409-9.115-2.491 3.54-4.452 7.121-6.821 11.15-.245.285-.368.488-.776.65-.368 0-.695-.04-.98-.447-1.961-3.622-2.329-8.057-2.043-12.452 0-.285.082-.773.408-.895.531-.163.94.285.94.61-.245 4.07.204 7.935 1.552 11.435 1.43-2.442 2.573-4.476 3.799-6.47a76.59 76.59 0 0 1 4.33-6.348c.327-.245.776-.082.939.244.123 3.906.082 7.732.409 11.475.081 1.221.367 2.401.449 3.54 0 .163-.368.326-.49.163zM116.36 9.79c-1.062-.244-2.124-.489-3.227-.53-.899 1.14-1.348 2.483-1.593 3.907-.286 1.465-.245 3.012-.327 4.517-.081 2.035.082 3.988.327 5.9-.122.245-.49.408-.776.245-.694-.855-.858-1.953-.899-3.052-.041-2.442-.081-5.005.286-7.406.245-1.546.695-2.97 1.634-4.273-2.532-.122-4.861.407-7.189 1.058a1.29 1.29 0 0 1-.899-.57c-.081-.285.082-.447.245-.529l.246-.081.204-.081c1.715-.692 3.799-1.058 5.8-1.1 2.042-.08 4.085.123 5.882.774.204.081.572.366.695.61.04.285-.164.652-.409.61zM124.432 23.83c-2.042-.082-3.921-1.018-5.106-2.768-.98-1.465-1.225-3.174-1.021-4.843a10.724 10.724 0 0 1 2.083-5.046c1.185-1.546 2.859-2.767 4.779-3.133 1.307-.244 2.696-.122 3.677.936.449.488.857 1.017.857 1.668.041.692-.286 1.303-.857 1.75-2.86 2.36-5.882 4.558-8.987 6.348.082 1.262 1.185 2.564 2.369 3.215 1.185.651 2.574.733 3.881.57 1.307-.122 2.655-.57 3.594-1.017.164-.123.286 0 .327.122.041.081.123.244-.041.366-1.429 1.302-3.472 1.912-5.555 1.831zM126.229 9.3c-1.184 0-2.369.489-3.308 1.221-2.002 1.628-3.186 4.232-3.186 6.755 2.9-1.587 5.637-3.662 8.292-5.819.204-.162.367-.773.081-1.261-.326-.651-1.062-.896-1.879-.896zM151.204 22.73c-1.226.814-2.737 1.465-4.249 1.465-.857 0-1.47-.366-2.042-1.18-.204.163-.572.285-.735.04-.735-1.016-.94-2.44-.981-3.824-.081-3.54-.04-6.145.899-9.32.082-.325.858-.935 1.43-.772.245-.651.898-1.343 1.674-1.425 2.084 0 4.33 1.1 5.025 3.175a3.038 3.038 0 0 1-.041 1.994 3.673 3.673 0 0 1-1.185 1.546l-.245.203c1.021.326 2.165.977 2.819 1.994.49.773.531 1.71.327 2.605-.368 1.465-1.43 2.645-2.696 3.5zm1.143-5.412c-.326-.61-1.225-.977-1.879-1.302-.776-.488-1.47-.285-2.246-.122l-1.226.285a2.678 2.678 0 0 1-1.389 0c-.204-.122-.449-.53-.245-.733.491-.488 1.103-.732 1.798-.895l1.879-.204c.735-.406 1.511-1.22 1.838-1.993.204-.652.081-1.1-.327-1.628-.735-1.018-1.92-1.465-3.104-1.587-.368-.041-.491.04-.572.285-.123.325-.205.691-.409.976-.081.204-.367.285-.572.163a.787.787 0 0 1-.367-.204c-.49 1.75-.776 3.744-.858 5.82-.082 1.953 0 3.866.286 5.656.327-.366.735-.895.939-1.18.286-.285.817.163.736.448-.082.203-.245.447-.368.65-.082.245-.204.448-.204.611.245.366.817.488 1.511.407 1.021-.163 2.247-.732 3.145-1.424.817-.651 1.512-1.465 1.716-2.483.123-.488.204-1.058-.082-1.546zM179.793 11.458c-1.512-.773-3.146-1.261-4.821-1.546-1.756-.285-3.758-.407-5.187-.366-.123.04-.327.081-.327.203.041 3.947-.327 8.22-.572 12.249-.082.285-.082.57-.163.854-.041.285-.123.57-.327.774-.204.203-.94.488-1.062 0 .163-2.401.531-7.976.613-10.092l.163-4.72c.49-.57 1.144-.693 1.838-.652.327 0 .695 0 1.021.04.327.041.654.041.981 0 2.491.164 4.901.652 7.026 1.75.531.245 1.021.611 1.348 1.18.081.326-.368.448-.531.326zM183.892 9.79h-.205a.337.337 0 0 1-.326-.285c-.041-.326.081-.61.326-.855.654-.57 1.389-.813 2.206-.773.572.04 1.144.122 1.716.326l1.552.529c2.206.732 4.126 2.686 5.188 4.802.572 1.18.776 2.4.49 3.743-.286 1.221-1.021 2.36-2.002 3.297-2.451 2.32-5.514 3.01-8.904 3.01-.041 2.768-.205 5.86.163 8.587 0 .122.082.285.163.407.041.204.123.366-.041.61-.326.245-.653.163-.939 0-.409-.447-.572-.935-.613-1.505-.286-2.89-.163-5.697 0-8.627-.367-.326-.939-.773-1.062-1.262 0-.162.041-.325.123-.407.122-.203.286-.244.367-.162.123.122.368.285.572.407.245-4.07.531-7.936 1.226-11.842zm8.088 2.645c-.899-1.099-2.165-1.872-3.391-2.401-.694-.326-2.655-1.058-3.39-.733.041.57-.041 1.588-.123 2.035-.572 3.46-.939 7.162-.98 10.825 2.818.203 5.514-.651 7.679-2.523 1.185-1.018 1.879-2.442 1.757-3.907-.082-1.22-.858-2.441-1.552-3.296zM206.005 20.451c-1.92 4.151-3.432 8.424-4.902 12.738-.123.244-.694.325-.817 0-.204-.367-.082-1.343 0-1.71.654-2.767 1.838-5.33 2.818-7.976-1.184-1.75-2.695-4.15-3.839-6.226-1.43-2.645-2.614-5.412-3.064-8.464-.082-.407.164-.814.49-.976.245-.082.409.04.531.162.123.122.205.285.286.448.409 2.442 1.226 4.72 2.247 6.877 1.144 2.32 2.492 4.517 4.003 6.715.94-2.035 1.92-4.07 2.982-6.064 1.062-2.034 2.247-3.988 3.676-5.9.286-.367.695-.774 1.062-.57.245.122.45.488.245.773-2.165 3.296-4.084 6.674-5.718 10.173zM225.128 22.486c0 .326-.368.407-.572.366-.449-.162-.531-.895-.613-1.302-.122-.732-.122-1.465-.122-2.238V16.83c0-1.913.245-3.988.286-5.941-.246-.367-.654-.57-1.062-.652-.45-.122-.981-.162-1.43-.284-1.634-.245-3.268-.489-4.984-.407-.204 1.79-.694 3.459-.939 5.25-.368 2.644-.694 5.127-.531 7.934 0 .326.082.814-.245 1.058-.164.163-.613.163-.817-.04-.204-.245-.286-.53-.327-.814-.041-.285 0-.61-.041-.936-.041-4.273.654-8.26 1.512-12.412-.205.041-.409.082-.613.041-.368-.203-.286-.57-.123-.732.164-.326.45-.448.736-.53.286-.08.612-.162.898-.162 2.778-.204 5.719.203 8.252 1.017.49.285 1.184.61 1.225 1.262-.368 3.906-.449 7.935-.49 12.004zM239.847 22.486c0 .326-.367.407-.572.366-.449-.162-.531-.895-.612-1.302-.123-.732-.123-1.465-.123-2.238V16.83c0-1.913.245-3.988.286-5.941-.245-.367-.653-.57-1.062-.652-.449-.122-.98-.162-1.43-.284-1.633-.245-3.267-.489-4.983-.407-.204 1.79-.694 3.459-.94 5.25-.367 2.644-.694 5.127-.531 7.934 0 .326.082.814-.245 1.058-.163.163-.612.163-.817-.04-.204-.245-.285-.53-.326-.814-.041-.285 0-.61-.041-.936-.041-4.273.653-8.26 1.511-12.412-.204.041-.408.082-.613.041-.367-.203-.285-.57-.122-.732.163-.326.449-.448.735-.53.286-.08.613-.162.899-.162 2.777-.204 5.718.203 8.251 1.017.49.285 1.185.61 1.226 1.262-.368 3.906-.45 7.935-.491 12.004zM252.198 20.451c-1.92 4.151-3.432 8.424-4.902 12.738-.123.244-.694.325-.817 0-.204-.367-.082-1.343 0-1.71.654-2.767 1.838-5.33 2.819-7.976-1.185-1.75-2.696-4.15-3.84-6.226-1.43-2.645-2.614-5.412-3.064-8.464-.081-.407.164-.814.49-.976.246-.082.409.04.531.162.123.122.205.285.286.448.409 2.442 1.226 4.72 2.247 6.877 1.144 2.32 2.492 4.517 4.003 6.715.94-2.035 1.92-4.07 2.982-6.064 1.062-2.034 2.247-3.988 3.676-5.9.286-.367.695-.774 1.062-.57.245.122.45.488.245.773-2.165 3.296-4.084 6.674-5.718 10.173zM48.075 62.488c-.123.325-.531.325-.735.203-.45-.407-.45-.976-.49-1.546-.123-1.71-.287-3.581-.082-5.33a42.432 42.432 0 0 0-11.601.528 26.685 26.685 0 0 0 .245 6.267c-.04.203-.327.53-.654.326-.367-.163-.53-.489-.612-.774l-.205-.895c-.081-.895-.163-1.79-.204-2.645-.04-.895-.04-1.79.041-2.564.041-.325.327-.65.613-.854l1.144-.244c2.369-3.948 4.33-8.017 6.045-12.25.04-.203.123-.772-.04-.976-.123-.529.203-.814.53-1.058 1.307-.203 2.778-.163 3.922.488.449.204.653.652.735 1.1 0 2.115.04 6.51.082 8.667.163 1.18 0 2.4-.082 3.581.082.04.204.04.367.04.246.041.409 0 .532 0 .367.041.694.286.694.611-.327 2.442-.368 4.924-.245 7.325zm-2.533-9.156c-.04-.407-.081-.773-.081-1.22 0-2.402-.041-7.122-.082-9.523-.163-.326-.45-.489-.776-.57-.572-.163-1.267-.122-1.88-.081.164.57.042 1.18-.08 1.709-1.635 3.784-3.35 7.569-5.556 11.11 2.696-.326 5.514-.448 8.414-.326.041-.367.041-.733.041-1.1zM63.486 55.855c-.531.04-.9-.53-1.144-.936a24.731 24.731 0 0 1-2.165-5.005c-.694-2.157-1.062-4.355-1.225-6.715-1.226 1.872-3.268 5.29-4.535 7.122-1.307 1.953-2.614 4.028-3.676 5.982-.123.284-.572.08-.735-.163-.204-.367-.123-.855-.041-1.221.245-.366.694-1.302.94-1.831 2.655-4.029 5.432-8.139 7.883-12.168.286-.285 1.266-.447 1.348.326.204 2.482.572 4.965 1.144 7.325.572 2.36 1.43 4.557 2.532 6.674.041.122 0 .57-.326.61zM75.581 42.63a75.99 75.99 0 0 1-.327 12.574 4.35 4.35 0 0 0-.245.692c-.122.244-.204.488-.408.732-.082.163-.613.244-.735-.04.081-.937.53-5.86.408-7.977-2.982 1.71-5.76 4.72-7.843 7.529-.204.203-.694.203-.776-.204 0-.732.286-1.302.695-1.872.408-.529.898-1.017 1.266-1.587 1.021-1.22 2.206-2.238 3.431-3.214-.98.08-2.001 0-2.982-.448-1.103-.488-1.838-1.424-2.001-2.645-.123-.733 0-1.506.367-2.076.736-1.139 1.716-2.116 2.819-2.767 1.307-.773 2.737-1.18 4.33-1.058.858.285 1.838.57 2.246 1.465.082.285.082.651-.245.895zm-1.348 1.75c0-.896-.04-1.75-.163-2.564-.735-.285-1.348-.367-2.165-.122-.858.244-1.879.65-2.696 1.261-.98.733-1.716 1.669-1.756 2.89.081.528.285 1.057.735 1.464.572.367 1.307.57 1.96.61 1.471.123 2.982-.325 4.126-.895-.04-.854-.04-1.75-.04-2.645zM102.485 44.013c-1.511-.773-3.145-1.261-4.82-1.546-1.757-.285-3.758-.407-5.188-.367-.122.041-.327.082-.327.204.041 3.947-.326 8.22-.571 12.249-.082.285-.082.57-.164.854-.04.285-.122.57-.327.774-.204.203-.939.488-1.062 0 .164-2.401.531-7.976.613-10.092l.163-4.721c.49-.57 1.144-.692 1.839-.651.326 0 .694 0 1.02.04.328.041.654.041.981 0 2.492.163 4.902.652 7.026 1.75.531.245 1.021.61 1.348 1.18.082.326-.368.448-.531.326zM113.855 55.407c-1.838.936-4.044 1.343-6.045.367a6.223 6.223 0 0 1-3.187-3.704c-.612-1.912-.408-4.069.409-5.86a9.137 9.137 0 0 1 2.655-3.296c.735-.529 1.838-1.18 2.859-1.302.817-.936 2.165-1.22 3.309-.936 1.961.53 3.635 2.523 4.166 4.273.531 1.71.654 3.581.164 5.33-.613 2.361-2.165 4.07-4.33 5.128zm2.819-10.01c-.491-1.343-1.594-2.849-3.023-3.337-.654-.244-1.348-.326-1.879.081-.531.407-.858 1.058-1.103 1.628-.041.122-.041.285-.041.448 0 .162 0 .366-.041.529-.041.081-.449.325-.572.081a6.809 6.809 0 0 1-.122-1.669c-1.552.652-2.86 1.995-3.595 3.5-.776 1.587-.817 3.418-.327 5.046.409 1.262 1.185 2.32 2.492 2.849 1.634.61 3.39.407 4.861-.326 1.675-.854 2.859-2.157 3.431-3.906.531-1.547.45-3.378-.081-4.924zM127.57 56.221c-1.552.204-3.186.082-4.738-.854-2.042-1.221-2.941-3.337-2.819-5.697.123-1.832.695-3.54 1.716-5.087a10.26 10.26 0 0 1 4.167-3.622c.898-.448 2.124-.651 3.104-.244.817.325 1.675 1.18 1.838 1.994.082.244-.327.773-.653.529-.45-.407-1.022-.936-1.594-1.18-.571-.244-1.102-.285-1.715-.04-1.593.65-3.064 1.912-4.044 3.417a9.043 9.043 0 0 0-1.471 4.68c0 1.506.572 2.93 1.839 3.866 1.184.855 2.736 1.058 4.166.936 2.41-.203 4.534-1.22 6.658-2.157.245 0 .613.407.409.692-2.043 1.14-4.371 2.4-6.863 2.767zM148.153 42.345c-1.062-.245-2.124-.489-3.227-.53-.899 1.14-1.348 2.483-1.593 3.907-.286 1.465-.245 3.011-.327 4.517-.082 2.035.082 3.988.327 5.9-.123.245-.49.408-.776.245-.695-.855-.858-1.953-.899-3.052-.041-2.442-.082-5.005.286-7.406.245-1.547.694-2.97 1.634-4.273-2.533-.122-4.861.407-7.189 1.058a1.288 1.288 0 0 1-.899-.57c-.082-.285.082-.447.245-.529l.245-.081.204-.082c1.716-.691 3.799-1.058 5.801-1.098 2.042-.082 4.085.122 5.882.773.204.081.572.366.694.61.041.285-.163.651-.408.61zM156.225 56.384c-2.043-.081-3.922-1.017-5.106-2.767-.981-1.465-1.226-3.174-1.022-4.843a10.735 10.735 0 0 1 2.084-5.046c1.184-1.546 2.859-2.767 4.779-3.133 1.307-.244 2.696-.122 3.676.936.45.488.858 1.017.858 1.668.041.692-.286 1.302-.858 1.75-2.859 2.36-5.882 4.558-8.986 6.348.081 1.262 1.184 2.564 2.369 3.215 1.184.651 2.573.733 3.88.57 1.308-.122 2.656-.57 3.595-1.018.163-.122.286 0 .327.123.041.08.122.244-.041.366-1.43 1.302-3.472 1.912-5.555 1.83zm1.797-14.528c-1.185 0-2.369.489-3.309 1.221-2.001 1.628-3.186 4.232-3.186 6.755 2.9-1.587 5.637-3.662 8.292-5.819.204-.163.368-.773.082-1.261-.327-.652-1.062-.896-1.879-.896zM172.894 34.816c-.082-.203-.205-.447-.286-.65-.041-.286.163-.367.286-.367.163 0 .327.081.449.122.368.285.654.733.858 1.18.163.407.122.977-.123 1.302-.286.367-.612.733-1.021.977-.613.366-1.348.651-2.001.855-.695.203-2.206.244-2.901.04-.939-.244-1.511-.691-1.797-1.343-.204-.488-.286-1.058-.204-1.668a3.431 3.431 0 0 1 .449-1.465.354.354 0 0 1 .286-.163c.082-.04.163-.04.286-.081.204.163.449.325.449.61s-.04.61-.081.936c-.082.366-.123.692 0 .936 0 .57.367.855.898 1.017.695.204 1.675.123 2.533-.122.653-.203 1.266-.488 1.675-.854.245-.204.367-.407.367-.61.041-.204-.041-.408-.122-.652zm3.513 21.527c-.858-.976-1.103-2.279-1.307-3.54-.409-2.93-.327-6.063-.409-9.115-2.492 3.54-4.452 7.12-6.822 11.15-.245.284-.367.488-.776.65-.367 0-.694-.04-.98-.447-1.961-3.622-2.328-8.057-2.042-12.452 0-.285.081-.773.408-.895.531-.163.94.284.94.61-.246 4.07.204 7.935 1.552 11.435 1.429-2.442 2.573-4.476 3.799-6.47a76.463 76.463 0 0 1 4.33-6.349c.326-.244.776-.081.939.244.123 3.907.082 7.732.408 11.476.082 1.22.368 2.401.45 3.54 0 .163-.368.326-.49.163z" stroke="#fff" mask="url(#a)"/><path d="m184.571 31.154-.286 1.261c-.449 1.913-.49 3.907-.49 5.901-.041 2.93.164 5.9.45 8.708-.082.407-.123.855-.613.936-.49-.57-.613-1.22-.695-1.83-.326-2.972-.531-6.024-.449-9.035.082-2.36.368-4.72.94-7 .081-.162.204-.61.612-.69.245-.042.654.04.776.406a7.62 7.62 0 0 1-.245 1.343zm1.185 25.718c-1.43-.447-2.451-1.953-2.819-3.255-.04-.448.082-.773.45-.977.408-.081.694.285.776.53.122.447.327.813.572 1.22.49.692 1.021 1.302 1.511 1.994.041.285-.286.529-.49.488zM207.186 43.566c-.286.488-.857.65-1.348.528-.286-.08-.612-.366-.735-.732-.286-1.017-.163-2.198.531-3.011.245-.326.735-.61 1.226-.489.449.122.653.57.776.936.245.936-.082 2.035-.45 2.767zm-.367 12.614c-.45.204-1.062.123-1.348-.284-.409-.57-.49-1.303-.286-1.954.245-.691.613-1.587 1.307-1.912.531-.285 1.062 0 1.307.488.409.692.163 1.587.082 2.32-.204.488-.531 1.058-1.062 1.343zM219.821 54.838c-1.634 2.523-3.839 4.598-6.127 5.819-.408.203-.858-.489-.49-.773.817-.692 2.247-1.954 3.186-3.012 1.552-1.709 2.655-3.621 3.554-5.778 1.021-2.401 1.552-5.372 1.307-8.261-.286-2.97-1.103-5.697-2.614-8.139-1.471-2.32-3.268-4.395-5.147-6.267-.245-.244-.245-.691-.041-.895.164-.163.531-.447.94-.081 2.083 1.79 4.044 4.029 5.514 6.551 1.103 1.832 2.002 3.826 2.492 5.942.613 2.482.694 5.412.204 8.138-.449 2.36-1.43 4.68-2.778 6.756z" stroke="#fff" mask="url(#a)"/></svg>