<svg width="770" height="70" fill="none" xmlns="http://www.w3.org/2000/svg"><mask id="a" maskUnits="userSpaceOnUse" x="0" y="0" width="770" height="70" fill="#000"><path fill="#fff" d="M0 0h770v70H0z"/><path d="M15.405 49.791c-2.045 1.389-4.566 2.5-7.088 2.5-1.431 0-2.454-.625-3.408-2.014-.34.278-.954.486-1.226.07-1.227-1.736-1.568-4.166-1.636-6.526-.136-6.04-.068-10.483 1.5-15.899.136-.555 1.43-1.596 2.385-1.319.409-1.11 1.499-2.29 2.794-2.43 3.476 0 7.224 1.875 8.383 5.416.34 1.11.34 2.29-.069 3.401a6.25 6.25 0 0 1-1.976 2.639l-.409.347c1.704.555 3.612 1.666 4.703 3.402.818 1.319.886 2.915.545 4.443-.613 2.5-2.385 4.512-4.498 5.97zm1.908-9.233c-.545-1.042-2.044-1.666-3.135-2.222-1.295-.833-2.453-.486-3.748-.208l-2.045.486c-.75.208-1.5.208-2.317 0-.34-.208-.75-.903-.409-1.25.818-.833 1.84-1.25 2.999-1.527l3.135-.347c1.227-.695 2.521-2.083 3.067-3.402.34-1.11.136-1.875-.546-2.777-1.226-1.736-3.203-2.5-5.18-2.708-.613-.07-.817.07-.953.486-.205.556-.341 1.18-.682 1.667-.136.347-.613.485-.954.277a1.312 1.312 0 0 1-.613-.347c-.818 2.985-1.295 6.387-1.432 9.928-.136 3.332 0 6.595.477 9.65a28.41 28.41 0 0 0 1.568-2.013c.477-.486 1.363.277 1.227.763-.137.347-.41.764-.614 1.111-.136.417-.34.764-.34 1.042.409.624 1.363.833 2.521.694 1.704-.278 3.749-1.25 5.248-2.43 1.363-1.11 2.522-2.5 2.863-4.235.204-.833.34-1.805-.137-2.638zM35.208 51.388c-2.59.347-5.316.139-7.906-1.458-3.407-2.083-4.907-5.693-4.702-9.72a17.956 17.956 0 0 1 2.862-8.678 17.244 17.244 0 0 1 6.952-6.178c1.5-.764 3.544-1.111 5.18-.417 1.362.555 2.794 2.014 3.066 3.402.137.417-.545 1.32-1.09.902-.75-.694-1.704-1.596-2.658-2.013-.954-.416-1.84-.486-2.862-.07-2.658 1.111-5.112 3.264-6.748 5.832-1.499 2.36-2.385 5.138-2.453 7.984 0 2.57.954 4.999 3.067 6.596 1.976 1.458 4.566 1.805 6.951 1.597 4.021-.348 7.565-2.083 11.11-3.68.408 0 1.022.694.68 1.18-3.407 1.944-7.292 4.096-11.449 4.721zM69.55 27.714c-1.773-.416-3.545-.833-5.385-.902-1.5 1.944-2.249 4.235-2.658 6.664-.477 2.5-.409 5.138-.545 7.707-.136 3.47.136 6.803.545 10.066-.204.417-.818.695-1.295.417-1.158-1.458-1.431-3.333-1.5-5.207-.067-4.166-.136-8.54.478-12.635.409-2.639 1.159-5.068 2.726-7.29-4.225-.208-8.11.694-11.995 1.805a2.146 2.146 0 0 1-1.5-.972c-.136-.486.137-.764.41-.902l.409-.14.34-.138c2.863-1.18 6.339-1.805 9.678-1.875 3.408-.139 6.815.209 9.814 1.32.34.138.954.624 1.159 1.04.068.487-.273 1.112-.682 1.042zM88.469 45.904c-3.203 7.08-5.725 14.37-8.178 21.73-.205.416-1.159.555-1.363 0-.341-.625-.137-2.291 0-2.916 1.09-4.721 3.067-9.095 4.702-13.608-1.976-2.985-4.498-7.08-6.406-10.622-2.386-4.512-4.362-9.233-5.112-14.44-.136-.694.273-1.389.818-1.666.41-.14.682.07.886.277.205.209.34.486.477.764.682 4.166 2.045 8.053 3.749 11.733 1.908 3.957 4.157 7.706 6.679 11.455 1.567-3.471 3.203-6.942 4.975-10.344 1.772-3.472 3.748-6.804 6.133-10.067.478-.625 1.16-1.319 1.773-.972.408.208.75.833.408 1.32-3.612 5.623-6.815 11.385-9.541 17.356zM120.375 49.375c0 .555-.613.694-.954.625-.75-.278-.886-1.528-1.022-2.222-.205-1.25-.205-2.5-.205-3.818v-4.235c0-3.263.409-6.804.477-10.136-.409-.625-1.09-.972-1.772-1.111-.749-.209-1.635-.278-2.385-.486-2.726-.417-5.452-.833-8.315-.694-.34 3.054-1.158 5.9-1.567 8.956-.613 4.512-1.159 8.747-.886 13.537 0 .556.136 1.389-.409 1.805-.273.278-1.022.278-1.363-.069-.341-.416-.477-.903-.545-1.389-.068-.485 0-1.04-.068-1.596-.069-7.29 1.09-14.094 2.521-21.175-.341.07-.681.139-1.022.07-.613-.348-.477-.973-.205-1.25.273-.556.75-.764 1.227-.903.477-.139 1.023-.277 1.5-.277 4.634-.348 9.541.347 13.766 1.735.818.486 1.977 1.042 2.045 2.152-.613 6.665-.75 13.538-.818 20.48zM138.392 51.388c-3.749 1.041-8.111.972-11.041-1.597-1.363-1.18-2.386-2.915-2.454-4.79-.068-1.666.614-3.194 1.568-4.582 2.113-3.055 5.793-5.137 9.337-5.554 1.499-.139 2.862.07 3.953 1.18.34.347 0 1.042-.341 1.18h-.614c-.204 0-.477-.069-.681-.069-.477-.07-.886-.139-1.159.07-3.271.138-6.474 1.735-8.451 4.443-.886 1.18-1.363 2.082-1.226 3.54.136 1.944 1.567 3.402 3.544 4.096 2.794 1.042 6.27.417 8.928-.555 1.431-.555 2.726-1.11 3.952-2.013.273-.209.546 0 .682.347.068.277.068.555.068.763-.954 1.875-4.771 3.194-6.065 3.541zm3.816-4.72c-.341.416-.954.346-1.227.138-.681-.486-.681-1.388-.681-2.083.068-1.18.272-2.36.545-3.61l.886-3.818c.545-2.5.886-4.999.136-7.082-.613-1.805-2.112-3.61-3.953-3.818-1.567-.208-3.135.347-4.429 1.32-.682.485-2.181 1.804-2.59 2.568-.068.278.068.764.34 1.041.273.278.069 1.111-.545.972-.477-.139-1.022-.277-1.431-.625-.545-.486-.75-1.388-.341-2.082 1.159-2.014 2.795-3.68 4.907-4.652 1.363-.694 2.999-.972 4.703-.694 2.044.347 3.816 1.874 4.839 3.818 1.567 2.986 1.363 6.734.613 10.067-.681 2.846-1.363 5.484-1.772 8.54zM163.54 14.87c-.136-.347-.34-.763-.477-1.11-.068-.486.273-.625.477-.625.273 0 .546.139.75.208.614.486 1.091 1.25 1.431 2.013.273.695.205 1.667-.204 2.222-.477.625-1.022 1.25-1.704 1.666-1.022.625-2.249 1.111-3.339 1.458-1.159.347-3.681.417-4.839.07-1.568-.417-2.522-1.18-2.999-2.291-.341-.834-.477-1.806-.341-2.847.068-.902.341-1.805.75-2.5a.588.588 0 0 1 .477-.277c.136-.07.273-.07.477-.139.341.278.75.556.75 1.042s-.068 1.041-.137 1.596c-.136.625-.204 1.18 0 1.597 0 .972.614 1.458 1.5 1.736 1.158.347 2.794.208 4.225-.208 1.091-.348 2.113-.834 2.795-1.458.408-.348.613-.695.613-1.042.068-.347-.068-.694-.205-1.11zm5.862 36.726c-1.432-1.666-1.84-3.887-2.181-6.04-.682-4.998-.545-10.344-.682-15.55-4.157 6.04-7.428 12.149-11.381 19.022-.409.486-.614.833-1.295 1.11-.614 0-1.159-.069-1.636-.763-3.271-6.179-3.885-13.746-3.408-21.244 0-.486.137-1.32.682-1.528.886-.277 1.568.486 1.568 1.042-.409 6.942.34 13.538 2.589 19.508 2.386-4.165 4.294-7.637 6.339-11.038 2.112-3.541 4.361-6.943 7.224-10.83.545-.417 1.295-.14 1.567.416.205 6.665.137 13.19.682 19.578.136 2.082.613 4.096.749 6.04 0 .277-.613.555-.817.277zM194.474 27.714c-1.772-.416-3.544-.833-5.384-.902-1.5 1.944-2.249 4.235-2.658 6.664-.477 2.5-.409 5.138-.545 7.707-.137 3.47.136 6.803.545 10.066-.205.417-.818.695-1.295.417-1.159-1.458-1.431-3.333-1.499-5.207-.069-4.166-.137-8.54.477-12.635.409-2.639 1.158-5.068 2.726-7.29-4.226-.208-8.11.694-11.995 1.805a2.144 2.144 0 0 1-1.499-.972c-.137-.486.136-.764.408-.902l.409-.14.341-.138c2.863-1.18 6.338-1.805 9.678-1.875 3.407-.139 6.815.209 9.814 1.32.341.138.954.624 1.158 1.04.069.487-.272 1.112-.681 1.042zM207.942 51.666c-3.408-.139-6.543-1.736-8.52-4.721-1.635-2.5-2.044-5.415-1.703-8.262.409-3.193 1.703-6.248 3.475-8.608 1.977-2.639 4.771-4.721 7.974-5.346 2.181-.417 4.498-.208 6.134 1.597.75.833 1.431 1.735 1.431 2.846.068 1.18-.477 2.222-1.431 2.985-4.771 4.027-9.814 7.776-14.994 10.83.137 2.153 1.977 4.374 3.953 5.485 1.977 1.111 4.294 1.25 6.475.972 2.181-.208 4.43-.972 5.997-1.735.273-.209.477 0 .546.208.068.139.204.416-.069.625-2.385 2.221-5.793 3.263-9.268 3.124zm2.998-24.785c-1.976 0-3.953.833-5.52 2.083-3.34 2.777-5.316 7.22-5.316 11.524 4.839-2.707 9.405-6.248 13.835-9.927.341-.278.613-1.32.136-2.153-.545-1.11-1.772-1.527-3.135-1.527zM252.609 49.791c-2.045 1.389-4.566 2.5-7.088 2.5-1.431 0-2.454-.625-3.408-2.014-.34.278-.954.486-1.226.07-1.227-1.736-1.568-4.166-1.636-6.526-.136-6.04-.068-10.483 1.499-15.899.137-.555 1.431-1.596 2.386-1.319.409-1.11 1.499-2.29 2.794-2.43 3.476 0 7.224 1.875 8.383 5.416.34 1.11.34 2.29-.068 3.401a6.252 6.252 0 0 1-1.977 2.639l-.409.347c1.704.555 3.612 1.666 4.703 3.402.818 1.319.886 2.915.545 4.443-.613 2.5-2.385 4.512-4.498 5.97zm1.908-9.233c-.545-1.042-2.044-1.666-3.135-2.222-1.295-.833-2.453-.486-3.748-.208l-2.045.486c-.75.208-1.499.208-2.317 0-.341-.208-.75-.903-.409-1.25.818-.833 1.84-1.25 2.999-1.527l3.135-.347c1.226-.695 2.521-2.083 3.067-3.402.34-1.11.136-1.875-.546-2.777-1.226-1.736-3.203-2.5-5.179-2.708-.614-.07-.818.07-.954.486-.205.556-.341 1.18-.682 1.667-.136.347-.613.485-.954.277a1.307 1.307 0 0 1-.613-.347c-.818 2.985-1.295 6.387-1.432 9.928-.136 3.332 0 6.595.477 9.65a28.272 28.272 0 0 0 1.568-2.013c.477-.486 1.363.277 1.227.763-.137.347-.409.764-.614 1.111-.136.417-.34.764-.34 1.042.408.624 1.363.833 2.521.694 1.704-.278 3.749-1.25 5.248-2.43 1.363-1.11 2.522-2.5 2.862-4.235.205-.833.341-1.805-.136-2.638zM300.308 30.56c-2.521-1.319-5.247-2.152-8.042-2.638-2.93-.486-6.27-.694-8.655-.624-.205.069-.545.138-.545.347.068 6.734-.546 14.024-.954 20.897-.137.486-.137.972-.273 1.458-.068.486-.205.972-.545 1.319-.341.347-1.568.833-1.772 0 .272-4.096.886-13.608 1.022-17.218l.273-8.053c.818-.972 1.908-1.18 3.067-1.11.545 0 1.158 0 1.703.069.546.069 1.091.069 1.636 0 4.157.277 8.178 1.11 11.722 2.985.886.416 1.704 1.041 2.249 2.013.137.556-.613.764-.886.556zM307.148 27.714h-.341c-.205 0-.477-.139-.545-.486-.068-.555.136-1.041.545-1.458 1.09-.972 2.317-1.388 3.68-1.319.954.07 1.908.208 2.863.556l2.589.902c3.681 1.25 6.884 4.582 8.656 8.192.954 2.014 1.295 4.096.818 6.387-.477 2.083-1.704 4.027-3.34 5.624-4.089 3.957-9.201 5.137-14.857 5.137-.068 4.721-.341 9.998.272 14.649 0 .208.137.486.273.694.068.347.204.625-.068 1.042-.545.416-1.091.277-1.568 0-.681-.764-.954-1.597-1.022-2.57-.477-4.928-.273-9.719 0-14.717-.613-.556-1.567-1.32-1.772-2.152 0-.278.068-.556.205-.695.204-.347.477-.416.613-.277.204.208.613.486.954.694.409-6.943.886-13.538 2.045-20.203zm13.494 4.513c-1.499-1.875-3.612-3.194-5.657-4.096-1.158-.556-4.43-1.805-5.656-1.25.068.972-.069 2.708-.205 3.471-.954 5.902-1.567 12.22-1.636 18.467 4.703.347 9.201-1.11 12.813-4.304 1.977-1.736 3.135-4.166 2.931-6.665-.137-2.083-1.431-4.165-2.59-5.623zM344.042 45.904c-3.203 7.08-5.725 14.37-8.178 21.73-.204.416-1.159.555-1.363 0-.341-.625-.136-2.291 0-2.916 1.09-4.721 3.067-9.095 4.702-13.608-1.976-2.985-4.498-7.08-6.406-10.622-2.385-4.512-4.362-9.233-5.111-14.44-.137-.694.272-1.389.817-1.666.409-.14.682.07.886.277.205.209.341.486.478.764.681 4.166 2.044 8.053 3.748 11.733 1.908 3.957 4.157 7.706 6.679 11.455 1.567-3.471 3.203-6.942 4.975-10.344 1.772-3.472 3.748-6.804 6.134-10.067.477-.625 1.158-1.319 1.772-.972.409.208.749.833.409 1.32-3.612 5.623-6.816 11.385-9.542 17.356zM375.949 49.375c0 .555-.614.694-.955.625-.749-.278-.886-1.528-1.022-2.222-.204-1.25-.204-2.5-.204-3.818v-4.235c0-3.263.409-6.804.477-10.136-.409-.625-1.091-.972-1.772-1.111-.75-.209-1.636-.278-2.386-.486-2.726-.417-5.452-.833-8.314-.694-.341 3.054-1.159 5.9-1.568 8.956-.613 4.512-1.158 8.747-.886 13.537 0 .556.137 1.389-.409 1.805-.272.278-1.022.278-1.363-.069-.341-.416-.477-.903-.545-1.389-.068-.485 0-1.04-.068-1.596-.068-7.29 1.09-14.094 2.522-21.175-.341.07-.682.139-1.023.07-.613-.348-.477-.973-.204-1.25.272-.556.749-.764 1.227-.903.477-.139 1.022-.277 1.499-.277 4.634-.348 9.541.347 13.767 1.735.818.486 1.976 1.042 2.044 2.152-.613 6.665-.749 13.538-.817 20.48zM400.508 49.375c0 .555-.614.694-.955.625-.749-.278-.886-1.528-1.022-2.222-.204-1.25-.204-2.5-.204-3.818v-4.235c0-3.263.409-6.804.477-10.136-.409-.625-1.091-.972-1.772-1.111-.75-.209-1.636-.278-2.386-.486-2.726-.417-5.452-.833-8.314-.694-.341 3.054-1.159 5.9-1.568 8.956-.613 4.512-1.158 8.747-.886 13.537 0 .556.136 1.389-.409 1.805-.272.278-1.022.278-1.363-.069-.341-.416-.477-.903-.545-1.389-.068-.485 0-1.04-.068-1.596-.068-7.29 1.09-14.094 2.521-21.175-.34.07-.681.139-1.022.07-.613-.348-.477-.973-.204-1.25.272-.556.749-.764 1.226-.903.478-.139 1.023-.277 1.5-.277 4.634-.348 9.541.347 13.767 1.735.818.486 1.976 1.042 2.044 2.152-.613 6.665-.749 13.538-.817 20.48zM421.114 45.904c-3.204 7.08-5.725 14.37-8.179 21.73-.204.416-1.158.555-1.363 0-.341-.625-.136-2.291 0-2.916 1.091-4.721 3.067-9.095 4.703-13.608-1.977-2.985-4.498-7.08-6.407-10.622-2.385-4.512-4.361-9.233-5.111-14.44-.136-.694.273-1.389.818-1.666.409-.14.681.07.886.277.204.209.341.486.477.764.681 4.166 2.044 8.053 3.748 11.733 1.909 3.957 4.158 7.706 6.679 11.455 1.568-3.471 3.203-6.942 4.975-10.344 1.772-3.472 3.749-6.804 6.134-10.067.477-.625 1.159-1.319 1.772-.972.409.208.75.833.409 1.32-3.612 5.623-6.815 11.385-9.541 17.356zM476.282 62.08c-.205.555-.886.555-1.227.347-.75-.694-.75-1.666-.818-2.638-.204-2.916-.477-6.11-.136-9.095-6.406-.625-13.222-.278-19.356.902-.272 3.541-.136 7.29.409 10.692-.068.347-.545.903-1.09.555-.613-.277-.886-.833-1.022-1.319l-.341-1.527c-.136-1.528-.273-3.055-.341-4.513-.068-1.527-.068-3.055.068-4.373.068-.556.546-1.111 1.023-1.458l1.908-.417c3.953-6.734 7.224-13.677 10.086-20.897.069-.347.205-1.32-.068-1.666-.204-.903.341-1.389.886-1.805 2.181-.347 4.635-.278 6.543.833.75.347 1.09 1.11 1.227 1.874 0 3.61.068 11.108.136 14.788.273 2.013 0 4.096-.136 6.11.136.069.341.069.613.069.409.07.682 0 .886 0 .613.07 1.159.486 1.159 1.041-.546 4.166-.614 8.4-.409 12.497zm-4.226-15.621c-.068-.694-.136-1.32-.136-2.083 0-4.096-.068-12.15-.136-16.245-.273-.556-.75-.833-1.295-.972-.954-.278-2.113-.208-3.135-.14.272.973.068 2.014-.137 2.917-2.726 6.456-5.588 12.913-9.268 18.953 4.498-.556 9.2-.764 14.039-.556.068-.624.068-1.25.068-1.874zM501.994 50.763c-.886.07-1.499-.902-1.908-1.596-1.5-2.708-2.726-5.555-3.612-8.54-1.159-3.68-1.772-7.428-2.045-11.455-2.044 3.194-5.452 9.025-7.565 12.15-2.181 3.332-4.362 6.873-6.134 10.205-.204.486-.954.139-1.226-.278-.341-.625-.205-1.458-.069-2.082.409-.625 1.159-2.222 1.568-3.125 4.43-6.873 9.064-13.885 13.153-20.758.478-.486 2.113-.763 2.25.556.34 4.235.954 8.47 1.908 12.496.954 4.027 2.385 7.776 4.225 11.386.068.208 0 .972-.545 1.041zM522.175 28.2c.409 7.012.205 14.51-.545 21.453-.136.277-.273.694-.409 1.18-.204.416-.341.833-.681 1.25-.137.277-1.023.416-1.227-.07.136-1.597.886-9.997.681-13.607-4.975 2.916-9.609 8.053-13.085 12.843-.341.347-1.159.347-1.295-.347 0-1.25.477-2.221 1.159-3.193.681-.903 1.499-1.736 2.112-2.708 1.704-2.083 3.681-3.818 5.725-5.485-1.635.14-3.339 0-4.975-.763-1.84-.833-3.067-2.43-3.339-4.513-.205-1.25 0-2.569.613-3.54 1.227-1.944 2.862-3.61 4.703-4.721 2.181-1.32 4.566-2.014 7.224-1.805 1.431.485 3.067.971 3.748 2.499.137.486.137 1.11-.409 1.527zm-2.249 2.985c0-1.527-.068-2.985-.272-4.373-1.227-.486-2.249-.625-3.612-.209-1.432.417-3.135 1.111-4.499 2.152-1.635 1.25-2.862 2.847-2.93 4.93.136.902.477 1.805 1.227 2.499.954.625 2.181.972 3.271 1.041 2.453.209 4.975-.555 6.883-1.527-.068-1.458-.068-2.985-.068-4.513zM567.063 30.56c-2.522-1.319-5.248-2.152-8.042-2.638-2.931-.486-6.27-.694-8.655-.624-.205.069-.546.138-.546.347.068 6.734-.545 14.024-.954 20.897-.136.486-.136.972-.272 1.458-.069.486-.205.972-.546 1.319-.34.347-1.567.833-1.772 0 .273-4.096.886-13.608 1.023-17.218l.272-8.053c.818-.972 1.909-1.18 3.067-1.11.545 0 1.159 0 1.704.069.545.069 1.09.069 1.636 0 4.157.277 8.178 1.11 11.722 2.985.886.416 1.704 1.041 2.249 2.013.136.556-.613.764-.886.556zM586.034 50c-3.067 1.596-6.748 2.29-10.087.624-2.59-1.319-4.43-3.54-5.316-6.317-1.022-3.263-.682-6.943.681-9.998a15.537 15.537 0 0 1 4.43-5.623c1.227-.902 3.067-2.013 4.771-2.221 1.363-1.597 3.612-2.083 5.521-1.597 3.271.902 6.065 4.304 6.951 7.29.886 2.915 1.091 6.109.273 9.094-1.023 4.027-3.612 6.943-7.224 8.748zm4.702-17.079c-.818-2.291-2.658-4.86-5.043-5.693-1.091-.416-2.249-.555-3.135.139-.886.694-1.431 1.805-1.84 2.777-.069.208-.069.486-.069.764 0 .277 0 .624-.068.902-.068.14-.749.556-.954.14-.136-.626-.272-1.875-.204-2.847-2.59 1.11-4.771 3.401-5.998 5.97-1.295 2.708-1.363 5.832-.545 8.609.682 2.152 1.976 3.957 4.157 4.86 2.726 1.041 5.657.694 8.111-.556 2.794-1.458 4.77-3.68 5.724-6.664.886-2.639.75-5.763-.136-8.401zM608.917 51.388c-2.59.347-5.316.139-7.906-1.458-3.407-2.083-4.907-5.693-4.702-9.72a17.949 17.949 0 0 1 2.862-8.678 17.242 17.242 0 0 1 6.952-6.178c1.499-.764 3.544-1.111 5.179-.417 1.363.555 2.795 2.014 3.067 3.402.136.417-.545 1.32-1.09.902-.75-.694-1.704-1.596-2.658-2.013-.954-.416-1.84-.486-2.863-.07-2.658 1.111-5.111 3.264-6.747 5.832-1.499 2.36-2.385 5.138-2.453 7.984 0 2.57.954 4.999 3.067 6.596 1.976 1.458 4.566 1.805 6.951 1.597 4.021-.348 7.565-2.083 11.109-3.68.409 0 1.022.694.682 1.18-3.408 1.944-7.293 4.096-11.45 4.721zM643.258 27.714c-1.772-.416-3.544-.833-5.384-.902-1.499 1.944-2.249 4.235-2.658 6.664-.477 2.5-.409 5.138-.545 7.707-.137 3.47.136 6.803.545 10.066-.205.417-.818.695-1.295.417-1.159-1.458-1.431-3.333-1.499-5.207-.068-4.166-.137-8.54.477-12.635.409-2.639 1.158-5.068 2.726-7.29-4.226-.208-8.11.694-11.995 1.805a2.144 2.144 0 0 1-1.499-.972c-.137-.486.136-.764.408-.902l.409-.14.341-.138c2.863-1.18 6.338-1.805 9.678-1.875 3.408-.139 6.815.209 9.814 1.32.341.138.954.624 1.159 1.04.068.487-.273 1.112-.682 1.042zM656.726 51.666c-3.408-.139-6.543-1.736-8.519-4.721-1.636-2.5-2.045-5.415-1.704-8.262.409-3.193 1.704-6.248 3.476-8.608 1.976-2.639 4.77-4.721 7.973-5.346 2.181-.417 4.499-.208 6.134 1.597.75.833 1.431 1.735 1.431 2.846.069 1.18-.477 2.222-1.431 2.985-4.771 4.027-9.814 7.776-14.993 10.83.136 2.153 1.976 4.374 3.952 5.485 1.977 1.111 4.294 1.25 6.475.972 2.181-.208 4.43-.972 5.997-1.735.273-.209.477 0 .546.208.068.139.204.416-.069.625-2.385 2.221-5.793 3.263-9.268 3.124zm2.998-24.785c-1.976 0-3.953.833-5.52 2.083-3.339 2.777-5.316 7.22-5.316 11.524 4.839-2.707 9.405-6.248 13.835-9.927.341-.278.613-1.32.136-2.153-.545-1.11-1.772-1.527-3.135-1.527zM684.537 14.87c-.136-.347-.34-.763-.477-1.11-.068-.486.273-.625.477-.625.273 0 .546.139.75.208.613.486 1.09 1.25 1.431 2.013.273.695.205 1.667-.204 2.222-.477.625-1.023 1.25-1.704 1.666-1.022.625-2.249 1.111-3.34 1.458-1.158.347-3.68.417-4.838.07-1.568-.417-2.522-1.18-2.999-2.291-.341-.834-.477-1.806-.341-2.847.068-.902.341-1.805.75-2.5a.588.588 0 0 1 .477-.277c.136-.07.273-.07.477-.139.341.278.75.556.75 1.042s-.069 1.041-.137 1.596c-.136.625-.204 1.18 0 1.597 0 .972.614 1.458 1.5 1.736 1.158.347 2.794.208 4.225-.208 1.091-.348 2.113-.834 2.794-1.458.409-.348.614-.695.614-1.042.068-.347-.068-.694-.205-1.11zm5.861 36.726c-1.431-1.666-1.84-3.887-2.18-6.04-.682-4.998-.546-10.344-.682-15.55-4.157 6.04-7.429 12.149-11.381 19.022-.409.486-.614.833-1.295 1.11-.614 0-1.159-.069-1.636-.763-3.271-6.179-3.885-13.746-3.408-21.244 0-.486.137-1.32.682-1.528.886-.277 1.567.486 1.567 1.042-.409 6.942.341 13.538 2.59 19.508 2.386-4.165 4.294-7.637 6.338-11.038 2.113-3.541 4.362-6.943 7.225-10.83.545-.417 1.295-.14 1.567.416.205 6.665.136 13.19.682 19.578.136 2.082.613 4.096.749 6.04 0 .277-.613.555-.818.277zM704.021 8.622l-.477 2.152c-.75 3.263-.818 6.665-.818 10.067-.068 4.999.273 10.067.75 14.857-.136.694-.205 1.458-1.022 1.597-.818-.972-1.023-2.083-1.159-3.124-.545-5.068-.886-10.275-.75-15.413.137-4.026.614-8.053 1.568-11.94.136-.279.341-1.042 1.022-1.181.409-.07 1.091.07 1.295.694a13.41 13.41 0 0 1-.409 2.291zm1.976 43.877c-2.385-.764-4.089-3.333-4.702-5.554-.068-.764.136-1.32.75-1.666.681-.14 1.158.486 1.295.902.204.764.545 1.389.954 2.083.818 1.18 1.703 2.222 2.521 3.402.068.486-.477.902-.818.833zM741.753 29.797c-.477.833-1.431 1.11-2.249.902-.477-.138-1.022-.624-1.227-1.25-.477-1.735-.272-3.748.886-5.137.409-.555 1.227-1.041 2.045-.833.75.209 1.091.972 1.295 1.597.409 1.597-.136 3.471-.75 4.72zm-.613 21.522c-.75.347-1.772.208-2.249-.486-.682-.972-.818-2.222-.477-3.333.409-1.18 1.022-2.707 2.181-3.263.886-.486 1.772 0 2.181.834.681 1.18.272 2.707.136 3.957-.341.833-.886 1.805-1.772 2.29zM762.834 49.028c-2.726 4.304-6.406 7.845-10.223 9.928-.681.347-1.431-.834-.817-1.32 1.363-1.18 3.748-3.332 5.315-5.137 2.59-2.916 4.43-6.179 5.93-9.858 1.704-4.096 2.59-9.165 2.181-14.094-.477-5.068-1.84-9.72-4.362-13.885-2.454-3.957-5.452-7.498-8.587-10.691-.409-.417-.409-1.18-.068-1.528.272-.277.886-.763 1.567-.139 3.476 3.055 6.747 6.874 9.201 11.178 1.84 3.124 3.339 6.526 4.157 10.136 1.022 4.235 1.159 9.234.341 13.885-.75 4.027-2.386 7.984-4.635 11.525z"/></mask><path d="M15.405 49.791c-2.045 1.389-4.566 2.5-7.088 2.5-1.431 0-2.454-.625-3.408-2.014-.34.278-.954.486-1.226.07-1.227-1.736-1.568-4.166-1.636-6.526-.136-6.04-.068-10.483 1.5-15.899.136-.555 1.43-1.596 2.385-1.319.409-1.11 1.499-2.29 2.794-2.43 3.476 0 7.224 1.875 8.383 5.416.34 1.11.34 2.29-.069 3.401a6.25 6.25 0 0 1-1.976 2.639l-.409.347c1.704.555 3.612 1.666 4.703 3.402.818 1.319.886 2.915.545 4.443-.613 2.5-2.385 4.512-4.498 5.97zm1.908-9.233c-.545-1.042-2.044-1.666-3.135-2.222-1.295-.833-2.453-.486-3.748-.208l-2.045.486c-.75.208-1.5.208-2.317 0-.34-.208-.75-.903-.409-1.25.818-.833 1.84-1.25 2.999-1.527l3.135-.347c1.227-.695 2.521-2.083 3.067-3.402.34-1.11.136-1.875-.546-2.777-1.226-1.736-3.203-2.5-5.18-2.708-.613-.07-.817.07-.953.486-.205.556-.341 1.18-.682 1.667-.136.347-.613.485-.954.277a1.312 1.312 0 0 1-.613-.347c-.818 2.985-1.295 6.387-1.432 9.928-.136 3.332 0 6.595.477 9.65a28.41 28.41 0 0 0 1.568-2.013c.477-.486 1.363.277 1.227.763-.137.347-.41.764-.614 1.111-.136.417-.34.764-.34 1.042.409.624 1.363.833 2.521.694 1.704-.278 3.749-1.25 5.248-2.43 1.363-1.11 2.522-2.5 2.863-4.235.204-.833.34-1.805-.137-2.638zM35.208 51.388c-2.59.347-5.316.139-7.906-1.458-3.407-2.083-4.907-5.693-4.702-9.72a17.956 17.956 0 0 1 2.862-8.678 17.244 17.244 0 0 1 6.952-6.178c1.5-.764 3.544-1.111 5.18-.417 1.362.555 2.794 2.014 3.066 3.402.137.417-.545 1.32-1.09.902-.75-.694-1.704-1.596-2.658-2.013-.954-.416-1.84-.486-2.862-.07-2.658 1.111-5.112 3.264-6.748 5.832-1.499 2.36-2.385 5.138-2.453 7.984 0 2.57.954 4.999 3.067 6.596 1.976 1.458 4.566 1.805 6.951 1.597 4.021-.348 7.565-2.083 11.11-3.68.408 0 1.022.694.68 1.18-3.407 1.944-7.292 4.096-11.449 4.721zM69.55 27.714c-1.773-.416-3.545-.833-5.385-.902-1.5 1.944-2.249 4.235-2.658 6.664-.477 2.5-.409 5.138-.545 7.707-.136 3.47.136 6.803.545 10.066-.204.417-.818.695-1.295.417-1.158-1.458-1.431-3.333-1.5-5.207-.067-4.166-.136-8.54.478-12.635.409-2.639 1.159-5.068 2.726-7.29-4.225-.208-8.11.694-11.995 1.805a2.146 2.146 0 0 1-1.5-.972c-.136-.486.137-.764.41-.902l.409-.14.34-.138c2.863-1.18 6.339-1.805 9.678-1.875 3.408-.139 6.815.209 9.814 1.32.34.138.954.624 1.159 1.04.068.487-.273 1.112-.682 1.042zM88.469 45.904c-3.203 7.08-5.725 14.37-8.178 21.73-.205.416-1.159.555-1.363 0-.341-.625-.137-2.291 0-2.916 1.09-4.721 3.067-9.095 4.702-13.608-1.976-2.985-4.498-7.08-6.406-10.622-2.386-4.512-4.362-9.233-5.112-14.44-.136-.694.273-1.389.818-1.666.41-.14.682.07.886.277.205.209.34.486.477.764.682 4.166 2.045 8.053 3.749 11.733 1.908 3.957 4.157 7.706 6.679 11.455 1.567-3.471 3.203-6.942 4.975-10.344 1.772-3.472 3.748-6.804 6.133-10.067.478-.625 1.16-1.319 1.773-.972.408.208.75.833.408 1.32-3.612 5.623-6.815 11.385-9.541 17.356zM120.375 49.375c0 .555-.613.694-.954.625-.75-.278-.886-1.528-1.022-2.222-.205-1.25-.205-2.5-.205-3.818v-4.235c0-3.263.409-6.804.477-10.136-.409-.625-1.09-.972-1.772-1.111-.749-.209-1.635-.278-2.385-.486-2.726-.417-5.452-.833-8.315-.694-.34 3.054-1.158 5.9-1.567 8.956-.613 4.512-1.159 8.747-.886 13.537 0 .556.136 1.389-.409 1.805-.273.278-1.022.278-1.363-.069-.341-.416-.477-.903-.545-1.389-.068-.485 0-1.04-.068-1.596-.069-7.29 1.09-14.094 2.521-21.175-.341.07-.681.139-1.022.07-.613-.348-.477-.973-.205-1.25.273-.556.75-.764 1.227-.903.477-.139 1.023-.277 1.5-.277 4.634-.348 9.541.347 13.766 1.735.818.486 1.977 1.042 2.045 2.152-.613 6.665-.75 13.538-.818 20.48zM138.392 51.388c-3.749 1.041-8.111.972-11.041-1.597-1.363-1.18-2.386-2.915-2.454-4.79-.068-1.666.614-3.194 1.568-4.582 2.113-3.055 5.793-5.137 9.337-5.554 1.499-.139 2.862.07 3.953 1.18.34.347 0 1.042-.341 1.18h-.614c-.204 0-.477-.069-.681-.069-.477-.07-.886-.139-1.159.07-3.271.138-6.474 1.735-8.451 4.443-.886 1.18-1.363 2.082-1.226 3.54.136 1.944 1.567 3.402 3.544 4.096 2.794 1.042 6.27.417 8.928-.555 1.431-.555 2.726-1.11 3.952-2.013.273-.209.546 0 .682.347.068.277.068.555.068.763-.954 1.875-4.771 3.194-6.065 3.541zm3.816-4.72c-.341.416-.954.346-1.227.138-.681-.486-.681-1.388-.681-2.083.068-1.18.272-2.36.545-3.61l.886-3.818c.545-2.5.886-4.999.136-7.082-.613-1.805-2.112-3.61-3.953-3.818-1.567-.208-3.135.347-4.429 1.32-.682.485-2.181 1.804-2.59 2.568-.068.278.068.764.34 1.041.273.278.069 1.111-.545.972-.477-.139-1.022-.277-1.431-.625-.545-.486-.75-1.388-.341-2.082 1.159-2.014 2.795-3.68 4.907-4.652 1.363-.694 2.999-.972 4.703-.694 2.044.347 3.816 1.874 4.839 3.818 1.567 2.986 1.363 6.734.613 10.067-.681 2.846-1.363 5.484-1.772 8.54zM163.54 14.87c-.136-.347-.34-.763-.477-1.11-.068-.486.273-.625.477-.625.273 0 .546.139.75.208.614.486 1.091 1.25 1.431 2.013.273.695.205 1.667-.204 2.222-.477.625-1.022 1.25-1.704 1.666-1.022.625-2.249 1.111-3.339 1.458-1.159.347-3.681.417-4.839.07-1.568-.417-2.522-1.18-2.999-2.291-.341-.834-.477-1.806-.341-2.847.068-.902.341-1.805.75-2.5a.588.588 0 0 1 .477-.277c.136-.07.273-.07.477-.139.341.278.75.556.75 1.042s-.068 1.041-.137 1.596c-.136.625-.204 1.18 0 1.597 0 .972.614 1.458 1.5 1.736 1.158.347 2.794.208 4.225-.208 1.091-.348 2.113-.834 2.795-1.458.408-.348.613-.695.613-1.042.068-.347-.068-.694-.205-1.11zm5.862 36.726c-1.432-1.666-1.84-3.887-2.181-6.04-.682-4.998-.545-10.344-.682-15.55-4.157 6.04-7.428 12.149-11.381 19.022-.409.486-.614.833-1.295 1.11-.614 0-1.159-.069-1.636-.763-3.271-6.179-3.885-13.746-3.408-21.244 0-.486.137-1.32.682-1.528.886-.277 1.568.486 1.568 1.042-.409 6.942.34 13.538 2.589 19.508 2.386-4.165 4.294-7.637 6.339-11.038 2.112-3.541 4.361-6.943 7.224-10.83.545-.417 1.295-.14 1.567.416.205 6.665.137 13.19.682 19.578.136 2.082.613 4.096.749 6.04 0 .277-.613.555-.817.277zM194.474 27.714c-1.772-.416-3.544-.833-5.384-.902-1.5 1.944-2.249 4.235-2.658 6.664-.477 2.5-.409 5.138-.545 7.707-.137 3.47.136 6.803.545 10.066-.205.417-.818.695-1.295.417-1.159-1.458-1.431-3.333-1.499-5.207-.069-4.166-.137-8.54.477-12.635.409-2.639 1.158-5.068 2.726-7.29-4.226-.208-8.11.694-11.995 1.805a2.144 2.144 0 0 1-1.499-.972c-.137-.486.136-.764.408-.902l.409-.14.341-.138c2.863-1.18 6.338-1.805 9.678-1.875 3.407-.139 6.815.209 9.814 1.32.341.138.954.624 1.158 1.04.069.487-.272 1.112-.681 1.042zM207.942 51.666c-3.408-.139-6.543-1.736-8.52-4.721-1.635-2.5-2.044-5.415-1.703-8.262.409-3.193 1.703-6.248 3.475-8.608 1.977-2.639 4.771-4.721 7.974-5.346 2.181-.417 4.498-.208 6.134 1.597.75.833 1.431 1.735 1.431 2.846.068 1.18-.477 2.222-1.431 2.985-4.771 4.027-9.814 7.776-14.994 10.83.137 2.153 1.977 4.374 3.953 5.485 1.977 1.111 4.294 1.25 6.475.972 2.181-.208 4.43-.972 5.997-1.735.273-.209.477 0 .546.208.068.139.204.416-.069.625-2.385 2.221-5.793 3.263-9.268 3.124zm2.998-24.785c-1.976 0-3.953.833-5.52 2.083-3.34 2.777-5.316 7.22-5.316 11.524 4.839-2.707 9.405-6.248 13.835-9.927.341-.278.613-1.32.136-2.153-.545-1.11-1.772-1.527-3.135-1.527zM252.609 49.791c-2.045 1.389-4.566 2.5-7.088 2.5-1.431 0-2.454-.625-3.408-2.014-.34.278-.954.486-1.226.07-1.227-1.736-1.568-4.166-1.636-6.526-.136-6.04-.068-10.483 1.499-15.899.137-.555 1.431-1.596 2.386-1.319.409-1.11 1.499-2.29 2.794-2.43 3.476 0 7.224 1.875 8.383 5.416.34 1.11.34 2.29-.068 3.401a6.252 6.252 0 0 1-1.977 2.639l-.409.347c1.704.555 3.612 1.666 4.703 3.402.818 1.319.886 2.915.545 4.443-.613 2.5-2.385 4.512-4.498 5.97zm1.908-9.233c-.545-1.042-2.044-1.666-3.135-2.222-1.295-.833-2.453-.486-3.748-.208l-2.045.486c-.75.208-1.499.208-2.317 0-.341-.208-.75-.903-.409-1.25.818-.833 1.84-1.25 2.999-1.527l3.135-.347c1.226-.695 2.521-2.083 3.067-3.402.34-1.11.136-1.875-.546-2.777-1.226-1.736-3.203-2.5-5.179-2.708-.614-.07-.818.07-.954.486-.205.556-.341 1.18-.682 1.667-.136.347-.613.485-.954.277a1.307 1.307 0 0 1-.613-.347c-.818 2.985-1.295 6.387-1.432 9.928-.136 3.332 0 6.595.477 9.65a28.272 28.272 0 0 0 1.568-2.013c.477-.486 1.363.277 1.227.763-.137.347-.409.764-.614 1.111-.136.417-.34.764-.34 1.042.408.624 1.363.833 2.521.694 1.704-.278 3.749-1.25 5.248-2.43 1.363-1.11 2.522-2.5 2.862-4.235.205-.833.341-1.805-.136-2.638zM300.308 30.56c-2.521-1.319-5.247-2.152-8.042-2.638-2.93-.486-6.27-.694-8.655-.624-.205.069-.545.138-.545.347.068 6.734-.546 14.024-.954 20.897-.137.486-.137.972-.273 1.458-.068.486-.205.972-.545 1.319-.341.347-1.568.833-1.772 0 .272-4.096.886-13.608 1.022-17.218l.273-8.053c.818-.972 1.908-1.18 3.067-1.11.545 0 1.158 0 1.703.069.546.069 1.091.069 1.636 0 4.157.277 8.178 1.11 11.722 2.985.886.416 1.704 1.041 2.249 2.013.137.556-.613.764-.886.556zM307.148 27.714h-.341c-.205 0-.477-.139-.545-.486-.068-.555.136-1.041.545-1.458 1.09-.972 2.317-1.388 3.68-1.319.954.07 1.908.208 2.863.556l2.589.902c3.681 1.25 6.884 4.582 8.656 8.192.954 2.014 1.295 4.096.818 6.387-.477 2.083-1.704 4.027-3.34 5.624-4.089 3.957-9.201 5.137-14.857 5.137-.068 4.721-.341 9.998.272 14.649 0 .208.137.486.273.694.068.347.204.625-.068 1.042-.545.416-1.091.277-1.568 0-.681-.764-.954-1.597-1.022-2.57-.477-4.928-.273-9.719 0-14.717-.613-.556-1.567-1.32-1.772-2.152 0-.278.068-.556.205-.695.204-.347.477-.416.613-.277.204.208.613.486.954.694.409-6.943.886-13.538 2.045-20.203zm13.494 4.513c-1.499-1.875-3.612-3.194-5.657-4.096-1.158-.556-4.43-1.805-5.656-1.25.068.972-.069 2.708-.205 3.471-.954 5.902-1.567 12.22-1.636 18.467 4.703.347 9.201-1.11 12.813-4.304 1.977-1.736 3.135-4.166 2.931-6.665-.137-2.083-1.431-4.165-2.59-5.623zM344.042 45.904c-3.203 7.08-5.725 14.37-8.178 21.73-.204.416-1.159.555-1.363 0-.341-.625-.136-2.291 0-2.916 1.09-4.721 3.067-9.095 4.702-13.608-1.976-2.985-4.498-7.08-6.406-10.622-2.385-4.512-4.362-9.233-5.111-14.44-.137-.694.272-1.389.817-1.666.409-.14.682.07.886.277.205.209.341.486.478.764.681 4.166 2.044 8.053 3.748 11.733 1.908 3.957 4.157 7.706 6.679 11.455 1.567-3.471 3.203-6.942 4.975-10.344 1.772-3.472 3.748-6.804 6.134-10.067.477-.625 1.158-1.319 1.772-.972.409.208.749.833.409 1.32-3.612 5.623-6.816 11.385-9.542 17.356zM375.949 49.375c0 .555-.614.694-.955.625-.749-.278-.886-1.528-1.022-2.222-.204-1.25-.204-2.5-.204-3.818v-4.235c0-3.263.409-6.804.477-10.136-.409-.625-1.091-.972-1.772-1.111-.75-.209-1.636-.278-2.386-.486-2.726-.417-5.452-.833-8.314-.694-.341 3.054-1.159 5.9-1.568 8.956-.613 4.512-1.158 8.747-.886 13.537 0 .556.137 1.389-.409 1.805-.272.278-1.022.278-1.363-.069-.341-.416-.477-.903-.545-1.389-.068-.485 0-1.04-.068-1.596-.068-7.29 1.09-14.094 2.522-21.175-.341.07-.682.139-1.023.07-.613-.348-.477-.973-.204-1.25.272-.556.749-.764 1.227-.903.477-.139 1.022-.277 1.499-.277 4.634-.348 9.541.347 13.767 1.735.818.486 1.976 1.042 2.044 2.152-.613 6.665-.749 13.538-.817 20.48zM400.508 49.375c0 .555-.614.694-.955.625-.749-.278-.886-1.528-1.022-2.222-.204-1.25-.204-2.5-.204-3.818v-4.235c0-3.263.409-6.804.477-10.136-.409-.625-1.091-.972-1.772-1.111-.75-.209-1.636-.278-2.386-.486-2.726-.417-5.452-.833-8.314-.694-.341 3.054-1.159 5.9-1.568 8.956-.613 4.512-1.158 8.747-.886 13.537 0 .556.136 1.389-.409 1.805-.272.278-1.022.278-1.363-.069-.341-.416-.477-.903-.545-1.389-.068-.485 0-1.04-.068-1.596-.068-7.29 1.09-14.094 2.521-21.175-.34.07-.681.139-1.022.07-.613-.348-.477-.973-.204-1.25.272-.556.749-.764 1.226-.903.478-.139 1.023-.277 1.5-.277 4.634-.348 9.541.347 13.767 1.735.818.486 1.976 1.042 2.044 2.152-.613 6.665-.749 13.538-.817 20.48zM421.114 45.904c-3.204 7.08-5.725 14.37-8.179 21.73-.204.416-1.158.555-1.363 0-.341-.625-.136-2.291 0-2.916 1.091-4.721 3.067-9.095 4.703-13.608-1.977-2.985-4.498-7.08-6.407-10.622-2.385-4.512-4.361-9.233-5.111-14.44-.136-.694.273-1.389.818-1.666.409-.14.681.07.886.277.204.209.341.486.477.764.681 4.166 2.044 8.053 3.748 11.733 1.909 3.957 4.158 7.706 6.679 11.455 1.568-3.471 3.203-6.942 4.975-10.344 1.772-3.472 3.749-6.804 6.134-10.067.477-.625 1.159-1.319 1.772-.972.409.208.75.833.409 1.32-3.612 5.623-6.815 11.385-9.541 17.356zM476.282 62.08c-.205.555-.886.555-1.227.347-.75-.694-.75-1.666-.818-2.638-.204-2.916-.477-6.11-.136-9.095-6.406-.625-13.222-.278-19.356.902-.272 3.541-.136 7.29.409 10.692-.068.347-.545.903-1.09.555-.613-.277-.886-.833-1.022-1.319l-.341-1.527c-.136-1.528-.273-3.055-.341-4.513-.068-1.527-.068-3.055.068-4.373.068-.556.546-1.111 1.023-1.458l1.908-.417c3.953-6.734 7.224-13.677 10.086-20.897.069-.347.205-1.32-.068-1.666-.204-.903.341-1.389.886-1.805 2.181-.347 4.635-.278 6.543.833.75.347 1.09 1.11 1.227 1.874 0 3.61.068 11.108.136 14.788.273 2.013 0 4.096-.136 6.11.136.069.341.069.613.069.409.07.682 0 .886 0 .613.07 1.159.486 1.159 1.041-.546 4.166-.614 8.4-.409 12.497zm-4.226-15.621c-.068-.694-.136-1.32-.136-2.083 0-4.096-.068-12.15-.136-16.245-.273-.556-.75-.833-1.295-.972-.954-.278-2.113-.208-3.135-.14.272.973.068 2.014-.137 2.917-2.726 6.456-5.588 12.913-9.268 18.953 4.498-.556 9.2-.764 14.039-.556.068-.624.068-1.25.068-1.874zM501.994 50.763c-.886.07-1.499-.902-1.908-1.596-1.5-2.708-2.726-5.555-3.612-8.54-1.159-3.68-1.772-7.428-2.045-11.455-2.044 3.194-5.452 9.025-7.565 12.15-2.181 3.332-4.362 6.873-6.134 10.205-.204.486-.954.139-1.226-.278-.341-.625-.205-1.458-.069-2.082.409-.625 1.159-2.222 1.568-3.125 4.43-6.873 9.064-13.885 13.153-20.758.478-.486 2.113-.763 2.25.556.34 4.235.954 8.47 1.908 12.496.954 4.027 2.385 7.776 4.225 11.386.068.208 0 .972-.545 1.041zM522.175 28.2c.409 7.012.205 14.51-.545 21.453-.136.277-.273.694-.409 1.18-.204.416-.341.833-.681 1.25-.137.277-1.023.416-1.227-.07.136-1.597.886-9.997.681-13.607-4.975 2.916-9.609 8.053-13.085 12.843-.341.347-1.159.347-1.295-.347 0-1.25.477-2.221 1.159-3.193.681-.903 1.499-1.736 2.112-2.708 1.704-2.083 3.681-3.818 5.725-5.485-1.635.14-3.339 0-4.975-.763-1.84-.833-3.067-2.43-3.339-4.513-.205-1.25 0-2.569.613-3.54 1.227-1.944 2.862-3.61 4.703-4.721 2.181-1.32 4.566-2.014 7.224-1.805 1.431.485 3.067.971 3.748 2.499.137.486.137 1.11-.409 1.527zm-2.249 2.985c0-1.527-.068-2.985-.272-4.373-1.227-.486-2.249-.625-3.612-.209-1.432.417-3.135 1.111-4.499 2.152-1.635 1.25-2.862 2.847-2.93 4.93.136.902.477 1.805 1.227 2.499.954.625 2.181.972 3.271 1.041 2.453.209 4.975-.555 6.883-1.527-.068-1.458-.068-2.985-.068-4.513zM567.063 30.56c-2.522-1.319-5.248-2.152-8.042-2.638-2.931-.486-6.27-.694-8.655-.624-.205.069-.546.138-.546.347.068 6.734-.545 14.024-.954 20.897-.136.486-.136.972-.272 1.458-.069.486-.205.972-.546 1.319-.34.347-1.567.833-1.772 0 .273-4.096.886-13.608 1.023-17.218l.272-8.053c.818-.972 1.909-1.18 3.067-1.11.545 0 1.159 0 1.704.069.545.069 1.09.069 1.636 0 4.157.277 8.178 1.11 11.722 2.985.886.416 1.704 1.041 2.249 2.013.136.556-.613.764-.886.556zM586.034 50c-3.067 1.596-6.748 2.29-10.087.624-2.59-1.319-4.43-3.54-5.316-6.317-1.022-3.263-.682-6.943.681-9.998a15.537 15.537 0 0 1 4.43-5.623c1.227-.902 3.067-2.013 4.771-2.221 1.363-1.597 3.612-2.083 5.521-1.597 3.271.902 6.065 4.304 6.951 7.29.886 2.915 1.091 6.109.273 9.094-1.023 4.027-3.612 6.943-7.224 8.748zm4.702-17.079c-.818-2.291-2.658-4.86-5.043-5.693-1.091-.416-2.249-.555-3.135.139-.886.694-1.431 1.805-1.84 2.777-.069.208-.069.486-.069.764 0 .277 0 .624-.068.902-.068.14-.749.556-.954.14-.136-.626-.272-1.875-.204-2.847-2.59 1.11-4.771 3.401-5.998 5.97-1.295 2.708-1.363 5.832-.545 8.609.682 2.152 1.976 3.957 4.157 4.86 2.726 1.041 5.657.694 8.111-.556 2.794-1.458 4.77-3.68 5.724-6.664.886-2.639.75-5.763-.136-8.401zM608.917 51.388c-2.59.347-5.316.139-7.906-1.458-3.407-2.083-4.907-5.693-4.702-9.72a17.949 17.949 0 0 1 2.862-8.678 17.242 17.242 0 0 1 6.952-6.178c1.499-.764 3.544-1.111 5.179-.417 1.363.555 2.795 2.014 3.067 3.402.136.417-.545 1.32-1.09.902-.75-.694-1.704-1.596-2.658-2.013-.954-.416-1.84-.486-2.863-.07-2.658 1.111-5.111 3.264-6.747 5.832-1.499 2.36-2.385 5.138-2.453 7.984 0 2.57.954 4.999 3.067 6.596 1.976 1.458 4.566 1.805 6.951 1.597 4.021-.348 7.565-2.083 11.109-3.68.409 0 1.022.694.682 1.18-3.408 1.944-7.293 4.096-11.45 4.721zM643.258 27.714c-1.772-.416-3.544-.833-5.384-.902-1.499 1.944-2.249 4.235-2.658 6.664-.477 2.5-.409 5.138-.545 7.707-.137 3.47.136 6.803.545 10.066-.205.417-.818.695-1.295.417-1.159-1.458-1.431-3.333-1.499-5.207-.068-4.166-.137-8.54.477-12.635.409-2.639 1.158-5.068 2.726-7.29-4.226-.208-8.11.694-11.995 1.805a2.144 2.144 0 0 1-1.499-.972c-.137-.486.136-.764.408-.902l.409-.14.341-.138c2.863-1.18 6.338-1.805 9.678-1.875 3.408-.139 6.815.209 9.814 1.32.341.138.954.624 1.159 1.04.068.487-.273 1.112-.682 1.042zM656.726 51.666c-3.408-.139-6.543-1.736-8.519-4.721-1.636-2.5-2.045-5.415-1.704-8.262.409-3.193 1.704-6.248 3.476-8.608 1.976-2.639 4.77-4.721 7.973-5.346 2.181-.417 4.499-.208 6.134 1.597.75.833 1.431 1.735 1.431 2.846.069 1.18-.477 2.222-1.431 2.985-4.771 4.027-9.814 7.776-14.993 10.83.136 2.153 1.976 4.374 3.952 5.485 1.977 1.111 4.294 1.25 6.475.972 2.181-.208 4.43-.972 5.997-1.735.273-.209.477 0 .546.208.068.139.204.416-.069.625-2.385 2.221-5.793 3.263-9.268 3.124zm2.998-24.785c-1.976 0-3.953.833-5.52 2.083-3.339 2.777-5.316 7.22-5.316 11.524 4.839-2.707 9.405-6.248 13.835-9.927.341-.278.613-1.32.136-2.153-.545-1.11-1.772-1.527-3.135-1.527zM684.537 14.87c-.136-.347-.34-.763-.477-1.11-.068-.486.273-.625.477-.625.273 0 .546.139.75.208.613.486 1.09 1.25 1.431 2.013.273.695.205 1.667-.204 2.222-.477.625-1.023 1.25-1.704 1.666-1.022.625-2.249 1.111-3.34 1.458-1.158.347-3.68.417-4.838.07-1.568-.417-2.522-1.18-2.999-2.291-.341-.834-.477-1.806-.341-2.847.068-.902.341-1.805.75-2.5a.588.588 0 0 1 .477-.277c.136-.07.273-.07.477-.139.341.278.75.556.75 1.042s-.069 1.041-.137 1.596c-.136.625-.204 1.18 0 1.597 0 .972.614 1.458 1.5 1.736 1.158.347 2.794.208 4.225-.208 1.091-.348 2.113-.834 2.794-1.458.409-.348.614-.695.614-1.042.068-.347-.068-.694-.205-1.11zm5.861 36.726c-1.431-1.666-1.84-3.887-2.18-6.04-.682-4.998-.546-10.344-.682-15.55-4.157 6.04-7.429 12.149-11.381 19.022-.409.486-.614.833-1.295 1.11-.614 0-1.159-.069-1.636-.763-3.271-6.179-3.885-13.746-3.408-21.244 0-.486.137-1.32.682-1.528.886-.277 1.567.486 1.567 1.042-.409 6.942.341 13.538 2.59 19.508 2.386-4.165 4.294-7.637 6.338-11.038 2.113-3.541 4.362-6.943 7.225-10.83.545-.417 1.295-.14 1.567.416.205 6.665.136 13.19.682 19.578.136 2.082.613 4.096.749 6.04 0 .277-.613.555-.818.277zM704.021 8.622l-.477 2.152c-.75 3.263-.818 6.665-.818 10.067-.068 4.999.273 10.067.75 14.857-.136.694-.205 1.458-1.022 1.597-.818-.972-1.023-2.083-1.159-3.124-.545-5.068-.886-10.275-.75-15.413.137-4.026.614-8.053 1.568-11.94.136-.279.341-1.042 1.022-1.181.409-.07 1.091.07 1.295.694a13.41 13.41 0 0 1-.409 2.291zm1.976 43.877c-2.385-.764-4.089-3.333-4.702-5.554-.068-.764.136-1.32.75-1.666.681-.14 1.158.486 1.295.902.204.764.545 1.389.954 2.083.818 1.18 1.703 2.222 2.521 3.402.068.486-.477.902-.818.833zM741.753 29.797c-.477.833-1.431 1.11-2.249.902-.477-.138-1.022-.624-1.227-1.25-.477-1.735-.272-3.748.886-5.137.409-.555 1.227-1.041 2.045-.833.75.209 1.091.972 1.295 1.597.409 1.597-.136 3.471-.75 4.72zm-.613 21.522c-.75.347-1.772.208-2.249-.486-.682-.972-.818-2.222-.477-3.333.409-1.18 1.022-2.707 2.181-3.263.886-.486 1.772 0 2.181.834.681 1.18.272 2.707.136 3.957-.341.833-.886 1.805-1.772 2.29zM762.834 49.028c-2.726 4.304-6.406 7.845-10.223 9.928-.681.347-1.431-.834-.817-1.32 1.363-1.18 3.748-3.332 5.315-5.137 2.59-2.916 4.43-6.179 5.93-9.858 1.704-4.096 2.59-9.165 2.181-14.094-.477-5.068-1.84-9.72-4.362-13.885-2.454-3.957-5.452-7.498-8.587-10.691-.409-.417-.409-1.18-.068-1.528.272-.277.886-.763 1.567-.139 3.476 3.055 6.747 6.874 9.201 11.178 1.84 3.124 3.339 6.526 4.157 10.136 1.022 4.235 1.159 9.234.341 13.885-.75 4.027-2.386 7.984-4.635 11.525z" fill="#fff"/><path d="M15.405 49.791c-2.045 1.389-4.566 2.5-7.088 2.5-1.431 0-2.454-.625-3.408-2.014-.34.278-.954.486-1.226.07-1.227-1.736-1.568-4.166-1.636-6.526-.136-6.04-.068-10.483 1.5-15.899.136-.555 1.43-1.596 2.385-1.319.409-1.11 1.499-2.29 2.794-2.43 3.476 0 7.224 1.875 8.383 5.416.34 1.11.34 2.29-.069 3.401a6.25 6.25 0 0 1-1.976 2.639l-.409.347c1.704.555 3.612 1.666 4.703 3.402.818 1.319.886 2.915.545 4.443-.613 2.5-2.385 4.512-4.498 5.97zm1.908-9.233c-.545-1.042-2.044-1.666-3.135-2.222-1.295-.833-2.453-.486-3.748-.208l-2.045.486c-.75.208-1.5.208-2.317 0-.34-.208-.75-.903-.409-1.25.818-.833 1.84-1.25 2.999-1.527l3.135-.347c1.227-.695 2.521-2.083 3.067-3.402.34-1.11.136-1.875-.546-2.777-1.226-1.736-3.203-2.5-5.18-2.708-.613-.07-.817.07-.953.486-.205.556-.341 1.18-.682 1.667-.136.347-.613.485-.954.277a1.312 1.312 0 0 1-.613-.347c-.818 2.985-1.295 6.387-1.432 9.928-.136 3.332 0 6.595.477 9.65a28.41 28.41 0 0 0 1.568-2.013c.477-.486 1.363.277 1.227.763-.137.347-.41.764-.614 1.111-.136.417-.34.764-.34 1.042.409.624 1.363.833 2.521.694 1.704-.278 3.749-1.25 5.248-2.43 1.363-1.11 2.522-2.5 2.863-4.235.204-.833.34-1.805-.137-2.638zM35.208 51.388c-2.59.347-5.316.139-7.906-1.458-3.407-2.083-4.907-5.693-4.702-9.72a17.956 17.956 0 0 1 2.862-8.678 17.244 17.244 0 0 1 6.952-6.178c1.5-.764 3.544-1.111 5.18-.417 1.362.555 2.794 2.014 3.066 3.402.137.417-.545 1.32-1.09.902-.75-.694-1.704-1.596-2.658-2.013-.954-.416-1.84-.486-2.862-.07-2.658 1.111-5.112 3.264-6.748 5.832-1.499 2.36-2.385 5.138-2.453 7.984 0 2.57.954 4.999 3.067 6.596 1.976 1.458 4.566 1.805 6.951 1.597 4.021-.348 7.565-2.083 11.11-3.68.408 0 1.022.694.68 1.18-3.407 1.944-7.292 4.096-11.449 4.721zM69.55 27.714c-1.773-.416-3.545-.833-5.385-.902-1.5 1.944-2.249 4.235-2.658 6.664-.477 2.5-.409 5.138-.545 7.707-.136 3.47.136 6.803.545 10.066-.204.417-.818.695-1.295.417-1.158-1.458-1.431-3.333-1.5-5.207-.067-4.166-.136-8.54.478-12.635.409-2.639 1.159-5.068 2.726-7.29-4.225-.208-8.11.694-11.995 1.805a2.146 2.146 0 0 1-1.5-.972c-.136-.486.137-.764.41-.902l.409-.14.34-.138c2.863-1.18 6.339-1.805 9.678-1.875 3.408-.139 6.815.209 9.814 1.32.34.138.954.624 1.159 1.04.068.487-.273 1.112-.682 1.042zM88.469 45.904c-3.203 7.08-5.725 14.37-8.178 21.73-.205.416-1.159.555-1.363 0-.341-.625-.137-2.291 0-2.916 1.09-4.721 3.067-9.095 4.702-13.608-1.976-2.985-4.498-7.08-6.406-10.622-2.386-4.512-4.362-9.233-5.112-14.44-.136-.694.273-1.389.818-1.666.41-.14.682.07.886.277.205.209.34.486.477.764.682 4.166 2.045 8.053 3.749 11.733 1.908 3.957 4.157 7.706 6.679 11.455 1.567-3.471 3.203-6.942 4.975-10.344 1.772-3.472 3.748-6.804 6.133-10.067.478-.625 1.16-1.319 1.773-.972.408.208.75.833.408 1.32-3.612 5.623-6.815 11.385-9.541 17.356zM120.375 49.375c0 .555-.613.694-.954.625-.75-.278-.886-1.528-1.022-2.222-.205-1.25-.205-2.5-.205-3.818v-4.235c0-3.263.409-6.804.477-10.136-.409-.625-1.09-.972-1.772-1.111-.749-.209-1.635-.278-2.385-.486-2.726-.417-5.452-.833-8.315-.694-.34 3.054-1.158 5.9-1.567 8.956-.613 4.512-1.159 8.747-.886 13.537 0 .556.136 1.389-.409 1.805-.273.278-1.022.278-1.363-.069-.341-.416-.477-.903-.545-1.389-.068-.485 0-1.04-.068-1.596-.069-7.29 1.09-14.094 2.521-21.175-.341.07-.681.139-1.022.07-.613-.348-.477-.973-.205-1.25.273-.556.75-.764 1.227-.903.477-.139 1.023-.277 1.5-.277 4.634-.348 9.541.347 13.766 1.735.818.486 1.977 1.042 2.045 2.152-.613 6.665-.75 13.538-.818 20.48zM138.392 51.388c-3.749 1.041-8.111.972-11.041-1.597-1.363-1.18-2.386-2.915-2.454-4.79-.068-1.666.614-3.194 1.568-4.582 2.113-3.055 5.793-5.137 9.337-5.554 1.499-.139 2.862.07 3.953 1.18.34.347 0 1.042-.341 1.18h-.614c-.204 0-.477-.069-.681-.069-.477-.07-.886-.139-1.159.07-3.271.138-6.474 1.735-8.451 4.443-.886 1.18-1.363 2.082-1.226 3.54.136 1.944 1.567 3.402 3.544 4.096 2.794 1.042 6.27.417 8.928-.555 1.431-.555 2.726-1.11 3.952-2.013.273-.209.546 0 .682.347.068.277.068.555.068.763-.954 1.875-4.771 3.194-6.065 3.541zm3.816-4.72c-.341.416-.954.346-1.227.138-.681-.486-.681-1.388-.681-2.083.068-1.18.272-2.36.545-3.61l.886-3.818c.545-2.5.886-4.999.136-7.082-.613-1.805-2.112-3.61-3.953-3.818-1.567-.208-3.135.347-4.429 1.32-.682.485-2.181 1.804-2.59 2.568-.068.278.068.764.34 1.041.273.278.069 1.111-.545.972-.477-.139-1.022-.277-1.431-.625-.545-.486-.75-1.388-.341-2.082 1.159-2.014 2.795-3.68 4.907-4.652 1.363-.694 2.999-.972 4.703-.694 2.044.347 3.816 1.874 4.839 3.818 1.567 2.986 1.363 6.734.613 10.067-.681 2.846-1.363 5.484-1.772 8.54zM163.54 14.87c-.136-.347-.34-.763-.477-1.11-.068-.486.273-.625.477-.625.273 0 .546.139.75.208.614.486 1.091 1.25 1.431 2.013.273.695.205 1.667-.204 2.222-.477.625-1.022 1.25-1.704 1.666-1.022.625-2.249 1.111-3.339 1.458-1.159.347-3.681.417-4.839.07-1.568-.417-2.522-1.18-2.999-2.291-.341-.834-.477-1.806-.341-2.847.068-.902.341-1.805.75-2.5a.588.588 0 0 1 .477-.277c.136-.07.273-.07.477-.139.341.278.75.556.75 1.042s-.068 1.041-.137 1.596c-.136.625-.204 1.18 0 1.597 0 .972.614 1.458 1.5 1.736 1.158.347 2.794.208 4.225-.208 1.091-.348 2.113-.834 2.795-1.458.408-.348.613-.695.613-1.042.068-.347-.068-.694-.205-1.11zm5.862 36.726c-1.432-1.666-1.84-3.887-2.181-6.04-.682-4.998-.545-10.344-.682-15.55-4.157 6.04-7.428 12.149-11.381 19.022-.409.486-.614.833-1.295 1.11-.614 0-1.159-.069-1.636-.763-3.271-6.179-3.885-13.746-3.408-21.244 0-.486.137-1.32.682-1.528.886-.277 1.568.486 1.568 1.042-.409 6.942.34 13.538 2.589 19.508 2.386-4.165 4.294-7.637 6.339-11.038 2.112-3.541 4.361-6.943 7.224-10.83.545-.417 1.295-.14 1.567.416.205 6.665.137 13.19.682 19.578.136 2.082.613 4.096.749 6.04 0 .277-.613.555-.817.277zM194.474 27.714c-1.772-.416-3.544-.833-5.384-.902-1.5 1.944-2.249 4.235-2.658 6.664-.477 2.5-.409 5.138-.545 7.707-.137 3.47.136 6.803.545 10.066-.205.417-.818.695-1.295.417-1.159-1.458-1.431-3.333-1.499-5.207-.069-4.166-.137-8.54.477-12.635.409-2.639 1.158-5.068 2.726-7.29-4.226-.208-8.11.694-11.995 1.805a2.144 2.144 0 0 1-1.499-.972c-.137-.486.136-.764.408-.902l.409-.14.341-.138c2.863-1.18 6.338-1.805 9.678-1.875 3.407-.139 6.815.209 9.814 1.32.341.138.954.624 1.158 1.04.069.487-.272 1.112-.681 1.042zM207.942 51.666c-3.408-.139-6.543-1.736-8.52-4.721-1.635-2.5-2.044-5.415-1.703-8.262.409-3.193 1.703-6.248 3.475-8.608 1.977-2.639 4.771-4.721 7.974-5.346 2.181-.417 4.498-.208 6.134 1.597.75.833 1.431 1.735 1.431 2.846.068 1.18-.477 2.222-1.431 2.985-4.771 4.027-9.814 7.776-14.994 10.83.137 2.153 1.977 4.374 3.953 5.485 1.977 1.111 4.294 1.25 6.475.972 2.181-.208 4.43-.972 5.997-1.735.273-.209.477 0 .546.208.068.139.204.416-.069.625-2.385 2.221-5.793 3.263-9.268 3.124zm2.998-24.785c-1.976 0-3.953.833-5.52 2.083-3.34 2.777-5.316 7.22-5.316 11.524 4.839-2.707 9.405-6.248 13.835-9.927.341-.278.613-1.32.136-2.153-.545-1.11-1.772-1.527-3.135-1.527zM252.609 49.791c-2.045 1.389-4.566 2.5-7.088 2.5-1.431 0-2.454-.625-3.408-2.014-.34.278-.954.486-1.226.07-1.227-1.736-1.568-4.166-1.636-6.526-.136-6.04-.068-10.483 1.499-15.899.137-.555 1.431-1.596 2.386-1.319.409-1.11 1.499-2.29 2.794-2.43 3.476 0 7.224 1.875 8.383 5.416.34 1.11.34 2.29-.068 3.401a6.252 6.252 0 0 1-1.977 2.639l-.409.347c1.704.555 3.612 1.666 4.703 3.402.818 1.319.886 2.915.545 4.443-.613 2.5-2.385 4.512-4.498 5.97zm1.908-9.233c-.545-1.042-2.044-1.666-3.135-2.222-1.295-.833-2.453-.486-3.748-.208l-2.045.486c-.75.208-1.499.208-2.317 0-.341-.208-.75-.903-.409-1.25.818-.833 1.84-1.25 2.999-1.527l3.135-.347c1.226-.695 2.521-2.083 3.067-3.402.34-1.11.136-1.875-.546-2.777-1.226-1.736-3.203-2.5-5.179-2.708-.614-.07-.818.07-.954.486-.205.556-.341 1.18-.682 1.667-.136.347-.613.485-.954.277a1.307 1.307 0 0 1-.613-.347c-.818 2.985-1.295 6.387-1.432 9.928-.136 3.332 0 6.595.477 9.65a28.272 28.272 0 0 0 1.568-2.013c.477-.486 1.363.277 1.227.763-.137.347-.409.764-.614 1.111-.136.417-.34.764-.34 1.042.408.624 1.363.833 2.521.694 1.704-.278 3.749-1.25 5.248-2.43 1.363-1.11 2.522-2.5 2.862-4.235.205-.833.341-1.805-.136-2.638zM300.308 30.56c-2.521-1.319-5.247-2.152-8.042-2.638-2.93-.486-6.27-.694-8.655-.624-.205.069-.545.138-.545.347.068 6.734-.546 14.024-.954 20.897-.137.486-.137.972-.273 1.458-.068.486-.205.972-.545 1.319-.341.347-1.568.833-1.772 0 .272-4.096.886-13.608 1.022-17.218l.273-8.053c.818-.972 1.908-1.18 3.067-1.11.545 0 1.158 0 1.703.069.546.069 1.091.069 1.636 0 4.157.277 8.178 1.11 11.722 2.985.886.416 1.704 1.041 2.249 2.013.137.556-.613.764-.886.556zM307.148 27.714h-.341c-.205 0-.477-.139-.545-.486-.068-.555.136-1.041.545-1.458 1.09-.972 2.317-1.388 3.68-1.319.954.07 1.908.208 2.863.556l2.589.902c3.681 1.25 6.884 4.582 8.656 8.192.954 2.014 1.295 4.096.818 6.387-.477 2.083-1.704 4.027-3.34 5.624-4.089 3.957-9.201 5.137-14.857 5.137-.068 4.721-.341 9.998.272 14.649 0 .208.137.486.273.694.068.347.204.625-.068 1.042-.545.416-1.091.277-1.568 0-.681-.764-.954-1.597-1.022-2.57-.477-4.928-.273-9.719 0-14.717-.613-.556-1.567-1.32-1.772-2.152 0-.278.068-.556.205-.695.204-.347.477-.416.613-.277.204.208.613.486.954.694.409-6.943.886-13.538 2.045-20.203zm13.494 4.513c-1.499-1.875-3.612-3.194-5.657-4.096-1.158-.556-4.43-1.805-5.656-1.25.068.972-.069 2.708-.205 3.471-.954 5.902-1.567 12.22-1.636 18.467 4.703.347 9.201-1.11 12.813-4.304 1.977-1.736 3.135-4.166 2.931-6.665-.137-2.083-1.431-4.165-2.59-5.623zM344.042 45.904c-3.203 7.08-5.725 14.37-8.178 21.73-.204.416-1.159.555-1.363 0-.341-.625-.136-2.291 0-2.916 1.09-4.721 3.067-9.095 4.702-13.608-1.976-2.985-4.498-7.08-6.406-10.622-2.385-4.512-4.362-9.233-5.111-14.44-.137-.694.272-1.389.817-1.666.409-.14.682.07.886.277.205.209.341.486.478.764.681 4.166 2.044 8.053 3.748 11.733 1.908 3.957 4.157 7.706 6.679 11.455 1.567-3.471 3.203-6.942 4.975-10.344 1.772-3.472 3.748-6.804 6.134-10.067.477-.625 1.158-1.319 1.772-.972.409.208.749.833.409 1.32-3.612 5.623-6.816 11.385-9.542 17.356zM375.949 49.375c0 .555-.614.694-.955.625-.749-.278-.886-1.528-1.022-2.222-.204-1.25-.204-2.5-.204-3.818v-4.235c0-3.263.409-6.804.477-10.136-.409-.625-1.091-.972-1.772-1.111-.75-.209-1.636-.278-2.386-.486-2.726-.417-5.452-.833-8.314-.694-.341 3.054-1.159 5.9-1.568 8.956-.613 4.512-1.158 8.747-.886 13.537 0 .556.137 1.389-.409 1.805-.272.278-1.022.278-1.363-.069-.341-.416-.477-.903-.545-1.389-.068-.485 0-1.04-.068-1.596-.068-7.29 1.09-14.094 2.522-21.175-.341.07-.682.139-1.023.07-.613-.348-.477-.973-.204-1.25.272-.556.749-.764 1.227-.903.477-.139 1.022-.277 1.499-.277 4.634-.348 9.541.347 13.767 1.735.818.486 1.976 1.042 2.044 2.152-.613 6.665-.749 13.538-.817 20.48zM400.508 49.375c0 .555-.614.694-.955.625-.749-.278-.886-1.528-1.022-2.222-.204-1.25-.204-2.5-.204-3.818v-4.235c0-3.263.409-6.804.477-10.136-.409-.625-1.091-.972-1.772-1.111-.75-.209-1.636-.278-2.386-.486-2.726-.417-5.452-.833-8.314-.694-.341 3.054-1.159 5.9-1.568 8.956-.613 4.512-1.158 8.747-.886 13.537 0 .556.136 1.389-.409 1.805-.272.278-1.022.278-1.363-.069-.341-.416-.477-.903-.545-1.389-.068-.485 0-1.04-.068-1.596-.068-7.29 1.09-14.094 2.521-21.175-.34.07-.681.139-1.022.07-.613-.348-.477-.973-.204-1.25.272-.556.749-.764 1.226-.903.478-.139 1.023-.277 1.5-.277 4.634-.348 9.541.347 13.767 1.735.818.486 1.976 1.042 2.044 2.152-.613 6.665-.749 13.538-.817 20.48zM421.114 45.904c-3.204 7.08-5.725 14.37-8.179 21.73-.204.416-1.158.555-1.363 0-.341-.625-.136-2.291 0-2.916 1.091-4.721 3.067-9.095 4.703-13.608-1.977-2.985-4.498-7.08-6.407-10.622-2.385-4.512-4.361-9.233-5.111-14.44-.136-.694.273-1.389.818-1.666.409-.14.681.07.886.277.204.209.341.486.477.764.681 4.166 2.044 8.053 3.748 11.733 1.909 3.957 4.158 7.706 6.679 11.455 1.568-3.471 3.203-6.942 4.975-10.344 1.772-3.472 3.749-6.804 6.134-10.067.477-.625 1.159-1.319 1.772-.972.409.208.75.833.409 1.32-3.612 5.623-6.815 11.385-9.541 17.356zM476.282 62.08c-.205.555-.886.555-1.227.347-.75-.694-.75-1.666-.818-2.638-.204-2.916-.477-6.11-.136-9.095-6.406-.625-13.222-.278-19.356.902-.272 3.541-.136 7.29.409 10.692-.068.347-.545.903-1.09.555-.613-.277-.886-.833-1.022-1.319l-.341-1.527c-.136-1.528-.273-3.055-.341-4.513-.068-1.527-.068-3.055.068-4.373.068-.556.546-1.111 1.023-1.458l1.908-.417c3.953-6.734 7.224-13.677 10.086-20.897.069-.347.205-1.32-.068-1.666-.204-.903.341-1.389.886-1.805 2.181-.347 4.635-.278 6.543.833.75.347 1.09 1.11 1.227 1.874 0 3.61.068 11.108.136 14.788.273 2.013 0 4.096-.136 6.11.136.069.341.069.613.069.409.07.682 0 .886 0 .613.07 1.159.486 1.159 1.041-.546 4.166-.614 8.4-.409 12.497zm-4.226-15.621c-.068-.694-.136-1.32-.136-2.083 0-4.096-.068-12.15-.136-16.245-.273-.556-.75-.833-1.295-.972-.954-.278-2.113-.208-3.135-.14.272.973.068 2.014-.137 2.917-2.726 6.456-5.588 12.913-9.268 18.953 4.498-.556 9.2-.764 14.039-.556.068-.624.068-1.25.068-1.874zM501.994 50.763c-.886.07-1.499-.902-1.908-1.596-1.5-2.708-2.726-5.555-3.612-8.54-1.159-3.68-1.772-7.428-2.045-11.455-2.044 3.194-5.452 9.025-7.565 12.15-2.181 3.332-4.362 6.873-6.134 10.205-.204.486-.954.139-1.226-.278-.341-.625-.205-1.458-.069-2.082.409-.625 1.159-2.222 1.568-3.125 4.43-6.873 9.064-13.885 13.153-20.758.478-.486 2.113-.763 2.25.556.34 4.235.954 8.47 1.908 12.496.954 4.027 2.385 7.776 4.225 11.386.068.208 0 .972-.545 1.041zM522.175 28.2c.409 7.012.205 14.51-.545 21.453-.136.277-.273.694-.409 1.18-.204.416-.341.833-.681 1.25-.137.277-1.023.416-1.227-.07.136-1.597.886-9.997.681-13.607-4.975 2.916-9.609 8.053-13.085 12.843-.341.347-1.159.347-1.295-.347 0-1.25.477-2.221 1.159-3.193.681-.903 1.499-1.736 2.112-2.708 1.704-2.083 3.681-3.818 5.725-5.485-1.635.14-3.339 0-4.975-.763-1.84-.833-3.067-2.43-3.339-4.513-.205-1.25 0-2.569.613-3.54 1.227-1.944 2.862-3.61 4.703-4.721 2.181-1.32 4.566-2.014 7.224-1.805 1.431.485 3.067.971 3.748 2.499.137.486.137 1.11-.409 1.527zm-2.249 2.985c0-1.527-.068-2.985-.272-4.373-1.227-.486-2.249-.625-3.612-.209-1.432.417-3.135 1.111-4.499 2.152-1.635 1.25-2.862 2.847-2.93 4.93.136.902.477 1.805 1.227 2.499.954.625 2.181.972 3.271 1.041 2.453.209 4.975-.555 6.883-1.527-.068-1.458-.068-2.985-.068-4.513zM567.063 30.56c-2.522-1.319-5.248-2.152-8.042-2.638-2.931-.486-6.27-.694-8.655-.624-.205.069-.546.138-.546.347.068 6.734-.545 14.024-.954 20.897-.136.486-.136.972-.272 1.458-.069.486-.205.972-.546 1.319-.34.347-1.567.833-1.772 0 .273-4.096.886-13.608 1.023-17.218l.272-8.053c.818-.972 1.909-1.18 3.067-1.11.545 0 1.159 0 1.704.069.545.069 1.09.069 1.636 0 4.157.277 8.178 1.11 11.722 2.985.886.416 1.704 1.041 2.249 2.013.136.556-.613.764-.886.556zM586.034 50c-3.067 1.596-6.748 2.29-10.087.624-2.59-1.319-4.43-3.54-5.316-6.317-1.022-3.263-.682-6.943.681-9.998a15.537 15.537 0 0 1 4.43-5.623c1.227-.902 3.067-2.013 4.771-2.221 1.363-1.597 3.612-2.083 5.521-1.597 3.271.902 6.065 4.304 6.951 7.29.886 2.915 1.091 6.109.273 9.094-1.023 4.027-3.612 6.943-7.224 8.748zm4.702-17.079c-.818-2.291-2.658-4.86-5.043-5.693-1.091-.416-2.249-.555-3.135.139-.886.694-1.431 1.805-1.84 2.777-.069.208-.069.486-.069.764 0 .277 0 .624-.068.902-.068.14-.749.556-.954.14-.136-.626-.272-1.875-.204-2.847-2.59 1.11-4.771 3.401-5.998 5.97-1.295 2.708-1.363 5.832-.545 8.609.682 2.152 1.976 3.957 4.157 4.86 2.726 1.041 5.657.694 8.111-.556 2.794-1.458 4.77-3.68 5.724-6.664.886-2.639.75-5.763-.136-8.401zM608.917 51.388c-2.59.347-5.316.139-7.906-1.458-3.407-2.083-4.907-5.693-4.702-9.72a17.949 17.949 0 0 1 2.862-8.678 17.242 17.242 0 0 1 6.952-6.178c1.499-.764 3.544-1.111 5.179-.417 1.363.555 2.795 2.014 3.067 3.402.136.417-.545 1.32-1.09.902-.75-.694-1.704-1.596-2.658-2.013-.954-.416-1.84-.486-2.863-.07-2.658 1.111-5.111 3.264-6.747 5.832-1.499 2.36-2.385 5.138-2.453 7.984 0 2.57.954 4.999 3.067 6.596 1.976 1.458 4.566 1.805 6.951 1.597 4.021-.348 7.565-2.083 11.109-3.68.409 0 1.022.694.682 1.18-3.408 1.944-7.293 4.096-11.45 4.721zM643.258 27.714c-1.772-.416-3.544-.833-5.384-.902-1.499 1.944-2.249 4.235-2.658 6.664-.477 2.5-.409 5.138-.545 7.707-.137 3.47.136 6.803.545 10.066-.205.417-.818.695-1.295.417-1.159-1.458-1.431-3.333-1.499-5.207-.068-4.166-.137-8.54.477-12.635.409-2.639 1.158-5.068 2.726-7.29-4.226-.208-8.11.694-11.995 1.805a2.144 2.144 0 0 1-1.499-.972c-.137-.486.136-.764.408-.902l.409-.14.341-.138c2.863-1.18 6.338-1.805 9.678-1.875 3.408-.139 6.815.209 9.814 1.32.341.138.954.624 1.159 1.04.068.487-.273 1.112-.682 1.042zM656.726 51.666c-3.408-.139-6.543-1.736-8.519-4.721-1.636-2.5-2.045-5.415-1.704-8.262.409-3.193 1.704-6.248 3.476-8.608 1.976-2.639 4.77-4.721 7.973-5.346 2.181-.417 4.499-.208 6.134 1.597.75.833 1.431 1.735 1.431 2.846.069 1.18-.477 2.222-1.431 2.985-4.771 4.027-9.814 7.776-14.993 10.83.136 2.153 1.976 4.374 3.952 5.485 1.977 1.111 4.294 1.25 6.475.972 2.181-.208 4.43-.972 5.997-1.735.273-.209.477 0 .546.208.068.139.204.416-.069.625-2.385 2.221-5.793 3.263-9.268 3.124zm2.998-24.785c-1.976 0-3.953.833-5.52 2.083-3.339 2.777-5.316 7.22-5.316 11.524 4.839-2.707 9.405-6.248 13.835-9.927.341-.278.613-1.32.136-2.153-.545-1.11-1.772-1.527-3.135-1.527zM684.537 14.87c-.136-.347-.34-.763-.477-1.11-.068-.486.273-.625.477-.625.273 0 .546.139.75.208.613.486 1.09 1.25 1.431 2.013.273.695.205 1.667-.204 2.222-.477.625-1.023 1.25-1.704 1.666-1.022.625-2.249 1.111-3.34 1.458-1.158.347-3.68.417-4.838.07-1.568-.417-2.522-1.18-2.999-2.291-.341-.834-.477-1.806-.341-2.847.068-.902.341-1.805.75-2.5a.588.588 0 0 1 .477-.277c.136-.07.273-.07.477-.139.341.278.75.556.75 1.042s-.069 1.041-.137 1.596c-.136.625-.204 1.18 0 1.597 0 .972.614 1.458 1.5 1.736 1.158.347 2.794.208 4.225-.208 1.091-.348 2.113-.834 2.794-1.458.409-.348.614-.695.614-1.042.068-.347-.068-.694-.205-1.11zm5.861 36.726c-1.431-1.666-1.84-3.887-2.18-6.04-.682-4.998-.546-10.344-.682-15.55-4.157 6.04-7.429 12.149-11.381 19.022-.409.486-.614.833-1.295 1.11-.614 0-1.159-.069-1.636-.763-3.271-6.179-3.885-13.746-3.408-21.244 0-.486.137-1.32.682-1.528.886-.277 1.567.486 1.567 1.042-.409 6.942.341 13.538 2.59 19.508 2.386-4.165 4.294-7.637 6.338-11.038 2.113-3.541 4.362-6.943 7.225-10.83.545-.417 1.295-.14 1.567.416.205 6.665.136 13.19.682 19.578.136 2.082.613 4.096.749 6.04 0 .277-.613.555-.818.277zM704.021 8.622l-.477 2.152c-.75 3.263-.818 6.665-.818 10.067-.068 4.999.273 10.067.75 14.857-.136.694-.205 1.458-1.022 1.597-.818-.972-1.023-2.083-1.159-3.124-.545-5.068-.886-10.275-.75-15.413.137-4.026.614-8.053 1.568-11.94.136-.279.341-1.042 1.022-1.181.409-.07 1.091.07 1.295.694a13.41 13.41 0 0 1-.409 2.291zm1.976 43.877c-2.385-.764-4.089-3.333-4.702-5.554-.068-.764.136-1.32.75-1.666.681-.14 1.158.486 1.295.902.204.764.545 1.389.954 2.083.818 1.18 1.703 2.222 2.521 3.402.068.486-.477.902-.818.833zM741.753 29.797c-.477.833-1.431 1.11-2.249.902-.477-.138-1.022-.624-1.227-1.25-.477-1.735-.272-3.748.886-5.137.409-.555 1.227-1.041 2.045-.833.75.209 1.091.972 1.295 1.597.409 1.597-.136 3.471-.75 4.72zm-.613 21.522c-.75.347-1.772.208-2.249-.486-.682-.972-.818-2.222-.477-3.333.409-1.18 1.022-2.707 2.181-3.263.886-.486 1.772 0 2.181.834.681 1.18.272 2.707.136 3.957-.341.833-.886 1.805-1.772 2.29zM762.834 49.028c-2.726 4.304-6.406 7.845-10.223 9.928-.681.347-1.431-.834-.817-1.32 1.363-1.18 3.748-3.332 5.315-5.137 2.59-2.916 4.43-6.179 5.93-9.858 1.704-4.096 2.59-9.165 2.181-14.094-.477-5.068-1.84-9.72-4.362-13.885-2.454-3.957-5.452-7.498-8.587-10.691-.409-.417-.409-1.18-.068-1.528.272-.277.886-.763 1.567-.139 3.476 3.055 6.747 6.874 9.201 11.178 1.84 3.124 3.339 6.526 4.157 10.136 1.022 4.235 1.159 9.234.341 13.885-.75 4.027-2.386 7.984-4.635 11.525z" stroke="#fff" stroke-width="3" mask="url(#a)"/></svg>