<svg width="324" height="23" fill="none" xmlns="http://www.w3.org/2000/svg"><mask id="a" maskUnits="userSpaceOnUse" x=".5" y="-1" width="323" height="24" fill="#000"><path fill="#fff" d="M.5-1h323v24H.5z"/><path d="M15.926 21.694c-.996-1.224-1.28-2.856-1.518-4.438-.474-3.672-.38-7.6-.474-11.425-2.894 4.437-5.171 8.926-7.923 13.976-.284.357-.427.612-.901.816-.427 0-.806-.051-1.138-.561-2.278-4.54-2.704-10.1-2.372-15.608 0-.357.094-.97.474-1.123.617-.204 1.091.358 1.091.766-.285 5.1.237 9.946 1.803 14.333 1.66-3.06 2.988-5.611 4.411-8.11a96.773 96.773 0 0 1 5.029-7.958c.38-.306.901-.102 1.091.306.142 4.897.095 9.692.474 14.384.095 1.53.427 3.01.522 4.438 0 .204-.427.408-.57.204zM34.374 21.082c-.617.05-1.044-.663-1.329-1.173a32.339 32.339 0 0 1-2.514-6.274c-.806-2.704-1.233-5.458-1.423-8.416-1.423 2.346-3.795 6.63-5.265 8.926-1.518 2.448-3.037 5.05-4.27 7.498-.142.357-.664.102-.854-.204-.237-.46-.142-1.071-.047-1.53.284-.46.806-1.633 1.09-2.296 3.084-5.05 6.31-10.201 9.156-15.25.332-.358 1.471-.562 1.566.407.237 3.112.664 6.223 1.328 9.182.664 2.958 1.66 5.712 2.941 8.365.048.153 0 .714-.38.765zM51.505 21.694c-.997-1.224-1.281-2.856-1.519-4.438-.474-3.672-.38-7.6-.474-11.425-2.894 4.437-5.17 8.926-7.922 13.976-.285.357-.427.612-.901.816-.427 0-.807-.051-1.139-.561-2.277-4.54-2.704-10.1-2.372-15.608 0-.357.095-.97.475-1.123.616-.204 1.09.358 1.09.766-.284 5.1.238 9.946 1.803 14.333 1.66-3.06 2.989-5.611 4.412-8.11a96.788 96.788 0 0 1 5.029-7.958c.379-.306.9-.102 1.09.306.143 4.897.095 9.692.475 14.384.095 1.53.427 3.01.522 4.438 0 .204-.427.408-.57.204zM81.495 20.062c0 .408-.427.51-.664.459-.522-.204-.617-1.122-.712-1.632-.142-.918-.142-1.837-.142-2.806v-3.111c0-2.397.285-4.999.332-7.447-.285-.46-.759-.714-1.233-.816-.522-.153-1.139-.204-1.66-.357-1.898-.306-3.796-.612-5.788-.51-.237 2.244-.807 4.335-1.091 6.58-.427 3.315-.807 6.426-.617 9.946 0 .408.095 1.02-.285 1.326-.19.204-.711.204-.948-.051-.237-.306-.332-.663-.38-1.02-.047-.357 0-.765-.047-1.173-.048-5.356.759-10.355 1.755-15.557-.237.05-.474.102-.712.05-.427-.254-.332-.714-.142-.918.19-.408.522-.56.854-.663.332-.102.712-.204 1.044-.204 3.225-.255 6.64.255 9.582 1.275.57.358 1.376.766 1.423 1.582-.427 4.896-.522 9.946-.569 15.047zM95.696 20.52c-2.135 1.174-4.697 1.684-7.021.46-1.803-.97-3.084-2.602-3.7-4.642-.712-2.397-.475-5.1.474-7.345a11.335 11.335 0 0 1 3.084-4.131c.853-.663 2.134-1.48 3.32-1.633.949-1.173 2.514-1.53 3.843-1.173 2.277.663 4.222 3.163 4.838 5.356.617 2.142.759 4.489.19 6.682-.711 2.958-2.514 5.1-5.028 6.427zm3.273-12.547c-.57-1.683-1.85-3.57-3.51-4.182-.76-.307-1.566-.409-2.183.102-.616.51-.996 1.326-1.28 2.04-.048.153-.048.357-.048.56 0 .205 0 .46-.047.664-.048.102-.522.408-.664.102a9.154 9.154 0 0 1-.143-2.091c-1.802.816-3.32 2.5-4.174 4.386-.902 1.99-.95 4.285-.38 6.325.474 1.581 1.376 2.908 2.894 3.57 1.897.766 3.937.51 5.645-.407 1.945-1.072 3.32-2.704 3.985-4.897.617-1.938.522-4.234-.095-6.172zM124.827 21.54c-1.803.256-3.7.103-5.503-1.07-2.372-1.53-3.416-4.183-3.273-7.141.142-2.296.806-4.438 1.992-6.376 1.186-1.938 2.846-3.52 4.839-4.54 1.043-.56 2.467-.816 3.605-.306.949.408 1.945 1.48 2.135 2.5.095.306-.38.969-.759.663-.522-.51-1.186-1.173-1.85-1.48-.664-.306-1.281-.357-1.993-.05-1.85.816-3.558 2.397-4.696 4.284a11.978 11.978 0 0 0-1.708 5.866c0 1.887.664 3.672 2.135 4.846 1.376 1.07 3.178 1.326 4.839 1.173 2.798-.255 5.265-1.53 7.732-2.704.285 0 .711.51.474.868-2.372 1.428-5.076 3.009-7.969 3.468zM142.848 21.54c-1.803.256-3.701.103-5.503-1.07-2.372-1.53-3.416-4.183-3.273-7.141.142-2.296.806-4.438 1.992-6.376 1.186-1.938 2.846-3.52 4.839-4.54 1.043-.56 2.466-.816 3.605-.306.949.408 1.945 1.48 2.135 2.5.095.306-.38.969-.759.663-.522-.51-1.186-1.173-1.85-1.48-.665-.306-1.281-.357-1.993-.05-1.85.816-3.558 2.397-4.696 4.284a11.967 11.967 0 0 0-1.708 5.866c0 1.887.664 3.672 2.135 4.846 1.375 1.07 3.178 1.326 4.838 1.173 2.799-.255 5.266-1.53 7.733-2.704.284 0 .711.51.474.868-2.372 1.428-5.076 3.009-7.969 3.468zM160.584 19.144a9.415 9.415 0 0 1-4.222 2.295c-1.186.306-2.846.459-3.843-.612-.284-.255-.711-1.071-.284-1.53.332.255.569.459.854.612.189.153.379.255.616.255-.047-3.52.143-10.304.238-13.721.047-.816-.048-1.683 0-2.5.094-.816.237-1.632.853-2.244.427-.153.807-.255 1.044.255-.237.918-.237 2.55-.285 4.336 0 1.632 0 3.366-.047 4.59a5.337 5.337 0 0 1 2.514-1.02c1.091-.102 2.23.102 3.131.663 1.423.817 2.277 2.602 1.898 4.438-.285 1.581-1.281 3.06-2.467 4.183zm.617-6.274c-.57-.97-1.566-1.326-2.657-1.326-1.091.05-2.277.51-2.989 1.224l-.379 7.294c1.471-.357 2.989-1.071 4.222-2.194.854-.765 1.66-1.683 1.992-2.856.238-.714.19-1.581-.189-2.142zm9.867 9.13c-1.186-.357-1.186-1.632-1.329-2.652-.711-5.815-.284-11.426.427-17.19.427-.714 1.186-.102 1.376.306.048 1.174 0 2.296-.142 3.469-.095 1.122-.237 2.295-.237 3.468-.048 1.99-.143 4.03-.095 6.07 0 1.99.189 4.03.474 5.917.048.255-.237.612-.474.612zM190.54 21.082c-.617.05-1.044-.663-1.329-1.173a32.395 32.395 0 0 1-2.514-6.274c-.806-2.704-1.233-5.458-1.423-8.416-1.423 2.346-3.795 6.63-5.266 8.926-1.518 2.448-3.036 5.05-4.269 7.498-.142.357-.664.102-.854-.204-.237-.46-.142-1.071-.047-1.53.284-.46.806-1.633 1.091-2.296 3.083-5.05 6.309-10.201 9.155-15.25.332-.358 1.471-.562 1.566.407.237 3.112.664 6.223 1.328 9.182.664 2.958 1.66 5.712 2.941 8.365.048.153 0 .714-.379.765zM208.761 21.643c-2.277-1.377-4.601-2.346-7.02-3.265-2.372-.918-4.649-1.836-6.926-2.907a20.262 20.262 0 0 0 .616 5.407c.143.306.048.867-.379.867-.38 0-.617-.255-.759-.51-.143-.204-.237-.51-.38-.765-.522-1.836-.711-3.826-.711-5.866-.143-.102-.332-.255-.427-.51-.143-.153-.19-.46-.048-.714.19-.153.38-.46.427-.663.095-.663.048-2.194.19-2.857.19-1.173.474-2.601.759-4.03.332-1.427.806-2.856 1.423-4.08a.61.61 0 0 1 1.139.153c-.048.663-.238 1.275-.427 1.888-.143.56-.427 1.173-.57 1.785a25.021 25.021 0 0 0-.806 5.662 86.758 86.758 0 0 1 5.171-4.591c2.182-1.734 4.506-3.214 6.973-4.285.38 0 .854 0 1.139.255.284.204.284.51.142.867-2.514 1.123-4.791 2.602-7.116 4.336a61.582 61.582 0 0 0-6.404 5.713v.05c2.325 1.378 4.886 2.296 7.353 3.214 2.182.816 4.269 1.735 6.262 3.112.427.255.759.612.996 1.07.047.307-.332.715-.617.664zM218.143 21.745c-2.372-.102-4.554-1.275-5.93-3.469-1.138-1.836-1.423-3.978-1.186-6.07.285-2.346 1.186-4.59 2.42-6.324 1.375-1.938 3.32-3.469 5.55-3.928 1.518-.306 3.131-.153 4.269 1.173.522.613.996 1.276.996 2.092.048.867-.332 1.632-.996 2.193-3.32 2.958-6.831 5.713-10.436 7.957.095 1.581 1.376 3.213 2.751 4.03 1.376.816 2.989.918 4.507.714 1.518-.153 3.083-.714 4.174-1.275.19-.153.333 0 .38.153.047.102.142.306-.047.459-1.661 1.632-4.033 2.397-6.452 2.295zm2.087-18.21c-1.375 0-2.751.613-3.842 1.53-2.325 2.041-3.7 5.305-3.7 8.468 3.368-1.99 6.546-4.59 9.63-7.294.237-.204.426-.97.094-1.581-.379-.816-1.233-1.123-2.182-1.123zM254.405 10.217c-.333 3.622-.143 7.856.094 11.426.048.357-.426.408-.664.255-.664-.561-.996-2.04-1.043-2.958a81.61 81.61 0 0 1 0-8.366c-3.511.153-7.306.052-10.769.46-.142 3.417-.047 6.681.095 9.946.048.102-.142.255-.379.306-.143 0-.38-.051-.522-.204-.617-.663-.759-1.887-.807-2.704-.237-5.151.095-10.303.57-15.353.094-.306.521-.612.901-.357.522.255.522.919.617 1.429-.095 1.326-.238 3.57-.38 5.151 3.463-.255 7.306-.102 10.769-.153.189-2.5.284-4.998.853-7.345.238-.306.712-.102.997.204.237.306.379.918.379 1.275-.237 1.939-.569 3.826-.617 5.815.143 0 .285-.05.427-.05.095 0 .238.101.238.356 0 .102 0 .306-.095.408-.143.204-.427.357-.664.46zM272.805 21.694c-.996-1.224-1.281-2.856-1.518-4.438-.474-3.672-.38-7.6-.474-11.425-2.894 4.437-5.171 8.926-7.923 13.976-.284.357-.427.612-.901.816-.427 0-.806-.051-1.138-.561-2.277-4.54-2.704-10.1-2.372-15.608 0-.357.095-.97.474-1.123.617-.204 1.091.358 1.091.766-.284 5.1.237 9.946 1.803 14.333 1.66-3.06 2.988-5.611 4.412-8.11a96.722 96.722 0 0 1 5.028-7.958c.379-.306.901-.102 1.091.306.142 4.897.095 9.692.474 14.384.095 1.53.427 3.01.522 4.438 0 .204-.427.408-.569.204zM286.699 11.187c0 .153 0 .408-.048.612 1.708 1.173 3.274 2.652 4.792 4.284 1.518 1.581 3.036 3.316 4.554 4.897.237.204-.143.56-.285.56-.759-.305-1.328-.764-1.992-1.274-.522-.46-1.091-1.02-1.708-1.48a82.356 82.356 0 0 0-5.313-4.947c-.095 2.652.19 5.152.474 7.753-.095.408-.522.459-.806.306-.332-.561-.475-1.173-.617-1.785-.095-.612-.19-1.275-.285-1.887-.284-1.888-.284-3.622-.284-5.662l-.19-.153c-2.324 1.734-4.839 3.876-7.068 5.763-.095 0-.237.052-.38.102-.142 0-.332 0-.427-.152-.189-.153-.142-.358-.095-.51.048-.154.143-.307.238-.46a73.5 73.5 0 0 1 6.451-5.61c-2.277-1.735-4.696-3.265-7.116-4.693-.474-.357-1.091-.918-.948-1.734.189-.408.759-.306.996-.153 2.941 1.683 5.787 3.417 8.444 5.56l.142-.103c.048-2.703.19-5.814.996-8.518.38-.612 1.044-.05 1.139.408.095 2.347-.474 4.54-.522 6.886 3.084-2.04 6.262-4.233 9.535-6.172.332-.102.569-.102.901.051.238.153.475.664.238 1.072-3.558 2.346-7.258 4.54-10.816 7.039zM306.765 21.745c-2.372-.102-4.554-1.275-5.93-3.469-1.138-1.836-1.423-3.978-1.186-6.07.285-2.346 1.186-4.59 2.42-6.324 1.375-1.938 3.32-3.469 5.55-3.928 1.518-.306 3.131-.153 4.269 1.173.522.613.997 1.276.997 2.092.047.867-.332 1.632-.997 2.193-3.32 2.958-6.831 5.713-10.436 7.957.095 1.581 1.376 3.213 2.751 4.03 1.376.816 2.989.918 4.507.714 1.518-.153 3.084-.714 4.175-1.275.189-.153.332 0 .379.153.048.102.142.306-.047.459-1.661 1.632-4.033 2.397-6.452 2.295zm2.087-18.21c-1.375 0-2.751.613-3.842 1.53-2.325 2.041-3.7 5.305-3.7 8.468 3.368-1.99 6.546-4.59 9.63-7.294.237-.204.427-.97.095-1.581-.38-.816-1.234-1.123-2.183-1.123zM321.522 5.678c-.332.612-.996.816-1.565.663-.332-.102-.712-.46-.854-.918-.332-1.275-.19-2.755.616-3.775.285-.408.854-.765 1.424-.612.521.153.759.714.901 1.173.284 1.173-.095 2.55-.522 3.469zm-.427 15.812c-.522.255-1.233.153-1.565-.357-.475-.714-.57-1.632-.332-2.448.284-.868.711-1.99 1.518-2.398.616-.357 1.233 0 1.518.612.474.867.189 1.99.094 2.908-.237.612-.616 1.326-1.233 1.683z"/></mask><path d="M15.926 21.694c-.996-1.224-1.28-2.856-1.518-4.438-.474-3.672-.38-7.6-.474-11.425-2.894 4.437-5.171 8.926-7.923 13.976-.284.357-.427.612-.901.816-.427 0-.806-.051-1.138-.561-2.278-4.54-2.704-10.1-2.372-15.608 0-.357.094-.97.474-1.123.617-.204 1.091.358 1.091.766-.285 5.1.237 9.946 1.803 14.333 1.66-3.06 2.988-5.611 4.411-8.11a96.773 96.773 0 0 1 5.029-7.958c.38-.306.901-.102 1.091.306.142 4.897.095 9.692.474 14.384.095 1.53.427 3.01.522 4.438 0 .204-.427.408-.57.204zM34.374 21.082c-.617.05-1.044-.663-1.329-1.173a32.339 32.339 0 0 1-2.514-6.274c-.806-2.704-1.233-5.458-1.423-8.416-1.423 2.346-3.795 6.63-5.265 8.926-1.518 2.448-3.037 5.05-4.27 7.498-.142.357-.664.102-.854-.204-.237-.46-.142-1.071-.047-1.53.284-.46.806-1.633 1.09-2.296 3.084-5.05 6.31-10.201 9.156-15.25.332-.358 1.471-.562 1.566.407.237 3.112.664 6.223 1.328 9.182.664 2.958 1.66 5.712 2.941 8.365.048.153 0 .714-.38.765zM51.505 21.694c-.997-1.224-1.281-2.856-1.519-4.438-.474-3.672-.38-7.6-.474-11.425-2.894 4.437-5.17 8.926-7.922 13.976-.285.357-.427.612-.901.816-.427 0-.807-.051-1.139-.561-2.277-4.54-2.704-10.1-2.372-15.608 0-.357.095-.97.475-1.123.616-.204 1.09.358 1.09.766-.284 5.1.238 9.946 1.803 14.333 1.66-3.06 2.989-5.611 4.412-8.11a96.788 96.788 0 0 1 5.029-7.958c.379-.306.9-.102 1.09.306.143 4.897.095 9.692.475 14.384.095 1.53.427 3.01.522 4.438 0 .204-.427.408-.57.204zM81.495 20.062c0 .408-.427.51-.664.459-.522-.204-.617-1.122-.712-1.632-.142-.918-.142-1.837-.142-2.806v-3.111c0-2.397.285-4.999.332-7.447-.285-.46-.759-.714-1.233-.816-.522-.153-1.139-.204-1.66-.357-1.898-.306-3.796-.612-5.788-.51-.237 2.244-.807 4.335-1.091 6.58-.427 3.315-.807 6.426-.617 9.946 0 .408.095 1.02-.285 1.326-.19.204-.711.204-.948-.051-.237-.306-.332-.663-.38-1.02-.047-.357 0-.765-.047-1.173-.048-5.356.759-10.355 1.755-15.557-.237.05-.474.102-.712.05-.427-.254-.332-.714-.142-.918.19-.408.522-.56.854-.663.332-.102.712-.204 1.044-.204 3.225-.255 6.64.255 9.582 1.275.57.358 1.376.766 1.423 1.582-.427 4.896-.522 9.946-.569 15.047zM95.696 20.52c-2.135 1.174-4.697 1.684-7.021.46-1.803-.97-3.084-2.602-3.7-4.642-.712-2.397-.475-5.1.474-7.345a11.335 11.335 0 0 1 3.084-4.131c.853-.663 2.134-1.48 3.32-1.633.949-1.173 2.514-1.53 3.843-1.173 2.277.663 4.222 3.163 4.838 5.356.617 2.142.759 4.489.19 6.682-.711 2.958-2.514 5.1-5.028 6.427zm3.273-12.547c-.57-1.683-1.85-3.57-3.51-4.182-.76-.307-1.566-.409-2.183.102-.616.51-.996 1.326-1.28 2.04-.048.153-.048.357-.048.56 0 .205 0 .46-.047.664-.048.102-.522.408-.664.102a9.154 9.154 0 0 1-.143-2.091c-1.802.816-3.32 2.5-4.174 4.386-.902 1.99-.95 4.285-.38 6.325.474 1.581 1.376 2.908 2.894 3.57 1.897.766 3.937.51 5.645-.407 1.945-1.072 3.32-2.704 3.985-4.897.617-1.938.522-4.234-.095-6.172zM124.827 21.54c-1.803.256-3.7.103-5.503-1.07-2.372-1.53-3.416-4.183-3.273-7.141.142-2.296.806-4.438 1.992-6.376 1.186-1.938 2.846-3.52 4.839-4.54 1.043-.56 2.467-.816 3.605-.306.949.408 1.945 1.48 2.135 2.5.095.306-.38.969-.759.663-.522-.51-1.186-1.173-1.85-1.48-.664-.306-1.281-.357-1.993-.05-1.85.816-3.558 2.397-4.696 4.284a11.978 11.978 0 0 0-1.708 5.866c0 1.887.664 3.672 2.135 4.846 1.376 1.07 3.178 1.326 4.839 1.173 2.798-.255 5.265-1.53 7.732-2.704.285 0 .711.51.474.868-2.372 1.428-5.076 3.009-7.969 3.468zM142.848 21.54c-1.803.256-3.701.103-5.503-1.07-2.372-1.53-3.416-4.183-3.273-7.141.142-2.296.806-4.438 1.992-6.376 1.186-1.938 2.846-3.52 4.839-4.54 1.043-.56 2.466-.816 3.605-.306.949.408 1.945 1.48 2.135 2.5.095.306-.38.969-.759.663-.522-.51-1.186-1.173-1.85-1.48-.665-.306-1.281-.357-1.993-.05-1.85.816-3.558 2.397-4.696 4.284a11.967 11.967 0 0 0-1.708 5.866c0 1.887.664 3.672 2.135 4.846 1.375 1.07 3.178 1.326 4.838 1.173 2.799-.255 5.266-1.53 7.733-2.704.284 0 .711.51.474.868-2.372 1.428-5.076 3.009-7.969 3.468zM160.584 19.144a9.415 9.415 0 0 1-4.222 2.295c-1.186.306-2.846.459-3.843-.612-.284-.255-.711-1.071-.284-1.53.332.255.569.459.854.612.189.153.379.255.616.255-.047-3.52.143-10.304.238-13.721.047-.816-.048-1.683 0-2.5.094-.816.237-1.632.853-2.244.427-.153.807-.255 1.044.255-.237.918-.237 2.55-.285 4.336 0 1.632 0 3.366-.047 4.59a5.337 5.337 0 0 1 2.514-1.02c1.091-.102 2.23.102 3.131.663 1.423.817 2.277 2.602 1.898 4.438-.285 1.581-1.281 3.06-2.467 4.183zm.617-6.274c-.57-.97-1.566-1.326-2.657-1.326-1.091.05-2.277.51-2.989 1.224l-.379 7.294c1.471-.357 2.989-1.071 4.222-2.194.854-.765 1.66-1.683 1.992-2.856.238-.714.19-1.581-.189-2.142zm9.867 9.13c-1.186-.357-1.186-1.632-1.329-2.652-.711-5.815-.284-11.426.427-17.19.427-.714 1.186-.102 1.376.306.048 1.174 0 2.296-.142 3.469-.095 1.122-.237 2.295-.237 3.468-.048 1.99-.143 4.03-.095 6.07 0 1.99.189 4.03.474 5.917.048.255-.237.612-.474.612zM190.54 21.082c-.617.05-1.044-.663-1.329-1.173a32.395 32.395 0 0 1-2.514-6.274c-.806-2.704-1.233-5.458-1.423-8.416-1.423 2.346-3.795 6.63-5.266 8.926-1.518 2.448-3.036 5.05-4.269 7.498-.142.357-.664.102-.854-.204-.237-.46-.142-1.071-.047-1.53.284-.46.806-1.633 1.091-2.296 3.083-5.05 6.309-10.201 9.155-15.25.332-.358 1.471-.562 1.566.407.237 3.112.664 6.223 1.328 9.182.664 2.958 1.66 5.712 2.941 8.365.048.153 0 .714-.379.765zM208.761 21.643c-2.277-1.377-4.601-2.346-7.02-3.265-2.372-.918-4.649-1.836-6.926-2.907a20.262 20.262 0 0 0 .616 5.407c.143.306.048.867-.379.867-.38 0-.617-.255-.759-.51-.143-.204-.237-.51-.38-.765-.522-1.836-.711-3.826-.711-5.866-.143-.102-.332-.255-.427-.51-.143-.153-.19-.46-.048-.714.19-.153.38-.46.427-.663.095-.663.048-2.194.19-2.857.19-1.173.474-2.601.759-4.03.332-1.427.806-2.856 1.423-4.08a.61.61 0 0 1 1.139.153c-.048.663-.238 1.275-.427 1.888-.143.56-.427 1.173-.57 1.785a25.021 25.021 0 0 0-.806 5.662 86.758 86.758 0 0 1 5.171-4.591c2.182-1.734 4.506-3.214 6.973-4.285.38 0 .854 0 1.139.255.284.204.284.51.142.867-2.514 1.123-4.791 2.602-7.116 4.336a61.582 61.582 0 0 0-6.404 5.713v.05c2.325 1.378 4.886 2.296 7.353 3.214 2.182.816 4.269 1.735 6.262 3.112.427.255.759.612.996 1.07.047.307-.332.715-.617.664zM218.143 21.745c-2.372-.102-4.554-1.275-5.93-3.469-1.138-1.836-1.423-3.978-1.186-6.07.285-2.346 1.186-4.59 2.42-6.324 1.375-1.938 3.32-3.469 5.55-3.928 1.518-.306 3.131-.153 4.269 1.173.522.613.996 1.276.996 2.092.048.867-.332 1.632-.996 2.193-3.32 2.958-6.831 5.713-10.436 7.957.095 1.581 1.376 3.213 2.751 4.03 1.376.816 2.989.918 4.507.714 1.518-.153 3.083-.714 4.174-1.275.19-.153.333 0 .38.153.047.102.142.306-.047.459-1.661 1.632-4.033 2.397-6.452 2.295zm2.087-18.21c-1.375 0-2.751.613-3.842 1.53-2.325 2.041-3.7 5.305-3.7 8.468 3.368-1.99 6.546-4.59 9.63-7.294.237-.204.426-.97.094-1.581-.379-.816-1.233-1.123-2.182-1.123zM254.405 10.217c-.333 3.622-.143 7.856.094 11.426.048.357-.426.408-.664.255-.664-.561-.996-2.04-1.043-2.958a81.61 81.61 0 0 1 0-8.366c-3.511.153-7.306.052-10.769.46-.142 3.417-.047 6.681.095 9.946.048.102-.142.255-.379.306-.143 0-.38-.051-.522-.204-.617-.663-.759-1.887-.807-2.704-.237-5.151.095-10.303.57-15.353.094-.306.521-.612.901-.357.522.255.522.919.617 1.429-.095 1.326-.238 3.57-.38 5.151 3.463-.255 7.306-.102 10.769-.153.189-2.5.284-4.998.853-7.345.238-.306.712-.102.997.204.237.306.379.918.379 1.275-.237 1.939-.569 3.826-.617 5.815.143 0 .285-.05.427-.05.095 0 .238.101.238.356 0 .102 0 .306-.095.408-.143.204-.427.357-.664.46zM272.805 21.694c-.996-1.224-1.281-2.856-1.518-4.438-.474-3.672-.38-7.6-.474-11.425-2.894 4.437-5.171 8.926-7.923 13.976-.284.357-.427.612-.901.816-.427 0-.806-.051-1.138-.561-2.277-4.54-2.704-10.1-2.372-15.608 0-.357.095-.97.474-1.123.617-.204 1.091.358 1.091.766-.284 5.1.237 9.946 1.803 14.333 1.66-3.06 2.988-5.611 4.412-8.11a96.722 96.722 0 0 1 5.028-7.958c.379-.306.901-.102 1.091.306.142 4.897.095 9.692.474 14.384.095 1.53.427 3.01.522 4.438 0 .204-.427.408-.569.204zM286.699 11.187c0 .153 0 .408-.048.612 1.708 1.173 3.274 2.652 4.792 4.284 1.518 1.581 3.036 3.316 4.554 4.897.237.204-.143.56-.285.56-.759-.305-1.328-.764-1.992-1.274-.522-.46-1.091-1.02-1.708-1.48a82.356 82.356 0 0 0-5.313-4.947c-.095 2.652.19 5.152.474 7.753-.095.408-.522.459-.806.306-.332-.561-.475-1.173-.617-1.785-.095-.612-.19-1.275-.285-1.887-.284-1.888-.284-3.622-.284-5.662l-.19-.153c-2.324 1.734-4.839 3.876-7.068 5.763-.095 0-.237.052-.38.102-.142 0-.332 0-.427-.152-.189-.153-.142-.358-.095-.51.048-.154.143-.307.238-.46a73.5 73.5 0 0 1 6.451-5.61c-2.277-1.735-4.696-3.265-7.116-4.693-.474-.357-1.091-.918-.948-1.734.189-.408.759-.306.996-.153 2.941 1.683 5.787 3.417 8.444 5.56l.142-.103c.048-2.703.19-5.814.996-8.518.38-.612 1.044-.05 1.139.408.095 2.347-.474 4.54-.522 6.886 3.084-2.04 6.262-4.233 9.535-6.172.332-.102.569-.102.901.051.238.153.475.664.238 1.072-3.558 2.346-7.258 4.54-10.816 7.039zM306.765 21.745c-2.372-.102-4.554-1.275-5.93-3.469-1.138-1.836-1.423-3.978-1.186-6.07.285-2.346 1.186-4.59 2.42-6.324 1.375-1.938 3.32-3.469 5.55-3.928 1.518-.306 3.131-.153 4.269 1.173.522.613.997 1.276.997 2.092.047.867-.332 1.632-.997 2.193-3.32 2.958-6.831 5.713-10.436 7.957.095 1.581 1.376 3.213 2.751 4.03 1.376.816 2.989.918 4.507.714 1.518-.153 3.084-.714 4.175-1.275.189-.153.332 0 .379.153.048.102.142.306-.047.459-1.661 1.632-4.033 2.397-6.452 2.295zm2.087-18.21c-1.375 0-2.751.613-3.842 1.53-2.325 2.041-3.7 5.305-3.7 8.468 3.368-1.99 6.546-4.59 9.63-7.294.237-.204.427-.97.095-1.581-.38-.816-1.234-1.123-2.183-1.123zM321.522 5.678c-.332.612-.996.816-1.565.663-.332-.102-.712-.46-.854-.918-.332-1.275-.19-2.755.616-3.775.285-.408.854-.765 1.424-.612.521.153.759.714.901 1.173.284 1.173-.095 2.55-.522 3.469zm-.427 15.812c-.522.255-1.233.153-1.565-.357-.475-.714-.57-1.632-.332-2.448.284-.868.711-1.99 1.518-2.398.616-.357 1.233 0 1.518.612.474.867.189 1.99.094 2.908-.237.612-.616 1.326-1.233 1.683z" fill="#fff"/><path d="M15.926 21.694c-.996-1.224-1.28-2.856-1.518-4.438-.474-3.672-.38-7.6-.474-11.425-2.894 4.437-5.171 8.926-7.923 13.976-.284.357-.427.612-.901.816-.427 0-.806-.051-1.138-.561-2.278-4.54-2.704-10.1-2.372-15.608 0-.357.094-.97.474-1.123.617-.204 1.091.358 1.091.766-.285 5.1.237 9.946 1.803 14.333 1.66-3.06 2.988-5.611 4.411-8.11a96.773 96.773 0 0 1 5.029-7.958c.38-.306.901-.102 1.091.306.142 4.897.095 9.692.474 14.384.095 1.53.427 3.01.522 4.438 0 .204-.427.408-.57.204zM34.374 21.082c-.617.05-1.044-.663-1.329-1.173a32.339 32.339 0 0 1-2.514-6.274c-.806-2.704-1.233-5.458-1.423-8.416-1.423 2.346-3.795 6.63-5.265 8.926-1.518 2.448-3.037 5.05-4.27 7.498-.142.357-.664.102-.854-.204-.237-.46-.142-1.071-.047-1.53.284-.46.806-1.633 1.09-2.296 3.084-5.05 6.31-10.201 9.156-15.25.332-.358 1.471-.562 1.566.407.237 3.112.664 6.223 1.328 9.182.664 2.958 1.66 5.712 2.941 8.365.048.153 0 .714-.38.765zM51.505 21.694c-.997-1.224-1.281-2.856-1.519-4.438-.474-3.672-.38-7.6-.474-11.425-2.894 4.437-5.17 8.926-7.922 13.976-.285.357-.427.612-.901.816-.427 0-.807-.051-1.139-.561-2.277-4.54-2.704-10.1-2.372-15.608 0-.357.095-.97.475-1.123.616-.204 1.09.358 1.09.766-.284 5.1.238 9.946 1.803 14.333 1.66-3.06 2.989-5.611 4.412-8.11a96.788 96.788 0 0 1 5.029-7.958c.379-.306.9-.102 1.09.306.143 4.897.095 9.692.475 14.384.095 1.53.427 3.01.522 4.438 0 .204-.427.408-.57.204zM81.495 20.062c0 .408-.427.51-.664.459-.522-.204-.617-1.122-.712-1.632-.142-.918-.142-1.837-.142-2.806v-3.111c0-2.397.285-4.999.332-7.447-.285-.46-.759-.714-1.233-.816-.522-.153-1.139-.204-1.66-.357-1.898-.306-3.796-.612-5.788-.51-.237 2.244-.807 4.335-1.091 6.58-.427 3.315-.807 6.426-.617 9.946 0 .408.095 1.02-.285 1.326-.19.204-.711.204-.948-.051-.237-.306-.332-.663-.38-1.02-.047-.357 0-.765-.047-1.173-.048-5.356.759-10.355 1.755-15.557-.237.05-.474.102-.712.05-.427-.254-.332-.714-.142-.918.19-.408.522-.56.854-.663.332-.102.712-.204 1.044-.204 3.225-.255 6.64.255 9.582 1.275.57.358 1.376.766 1.423 1.582-.427 4.896-.522 9.946-.569 15.047zM95.696 20.52c-2.135 1.174-4.697 1.684-7.021.46-1.803-.97-3.084-2.602-3.7-4.642-.712-2.397-.475-5.1.474-7.345a11.335 11.335 0 0 1 3.084-4.131c.853-.663 2.134-1.48 3.32-1.633.949-1.173 2.514-1.53 3.843-1.173 2.277.663 4.222 3.163 4.838 5.356.617 2.142.759 4.489.19 6.682-.711 2.958-2.514 5.1-5.028 6.427zm3.273-12.547c-.57-1.683-1.85-3.57-3.51-4.182-.76-.307-1.566-.409-2.183.102-.616.51-.996 1.326-1.28 2.04-.048.153-.048.357-.048.56 0 .205 0 .46-.047.664-.048.102-.522.408-.664.102a9.154 9.154 0 0 1-.143-2.091c-1.802.816-3.32 2.5-4.174 4.386-.902 1.99-.95 4.285-.38 6.325.474 1.581 1.376 2.908 2.894 3.57 1.897.766 3.937.51 5.645-.407 1.945-1.072 3.32-2.704 3.985-4.897.617-1.938.522-4.234-.095-6.172zM124.827 21.54c-1.803.256-3.7.103-5.503-1.07-2.372-1.53-3.416-4.183-3.273-7.141.142-2.296.806-4.438 1.992-6.376 1.186-1.938 2.846-3.52 4.839-4.54 1.043-.56 2.467-.816 3.605-.306.949.408 1.945 1.48 2.135 2.5.095.306-.38.969-.759.663-.522-.51-1.186-1.173-1.85-1.48-.664-.306-1.281-.357-1.993-.05-1.85.816-3.558 2.397-4.696 4.284a11.978 11.978 0 0 0-1.708 5.866c0 1.887.664 3.672 2.135 4.846 1.376 1.07 3.178 1.326 4.839 1.173 2.798-.255 5.265-1.53 7.732-2.704.285 0 .711.51.474.868-2.372 1.428-5.076 3.009-7.969 3.468zM142.848 21.54c-1.803.256-3.701.103-5.503-1.07-2.372-1.53-3.416-4.183-3.273-7.141.142-2.296.806-4.438 1.992-6.376 1.186-1.938 2.846-3.52 4.839-4.54 1.043-.56 2.466-.816 3.605-.306.949.408 1.945 1.48 2.135 2.5.095.306-.38.969-.759.663-.522-.51-1.186-1.173-1.85-1.48-.665-.306-1.281-.357-1.993-.05-1.85.816-3.558 2.397-4.696 4.284a11.967 11.967 0 0 0-1.708 5.866c0 1.887.664 3.672 2.135 4.846 1.375 1.07 3.178 1.326 4.838 1.173 2.799-.255 5.266-1.53 7.733-2.704.284 0 .711.51.474.868-2.372 1.428-5.076 3.009-7.969 3.468zM160.584 19.144a9.415 9.415 0 0 1-4.222 2.295c-1.186.306-2.846.459-3.843-.612-.284-.255-.711-1.071-.284-1.53.332.255.569.459.854.612.189.153.379.255.616.255-.047-3.52.143-10.304.238-13.721.047-.816-.048-1.683 0-2.5.094-.816.237-1.632.853-2.244.427-.153.807-.255 1.044.255-.237.918-.237 2.55-.285 4.336 0 1.632 0 3.366-.047 4.59a5.337 5.337 0 0 1 2.514-1.02c1.091-.102 2.23.102 3.131.663 1.423.817 2.277 2.602 1.898 4.438-.285 1.581-1.281 3.06-2.467 4.183zm.617-6.274c-.57-.97-1.566-1.326-2.657-1.326-1.091.05-2.277.51-2.989 1.224l-.379 7.294c1.471-.357 2.989-1.071 4.222-2.194.854-.765 1.66-1.683 1.992-2.856.238-.714.19-1.581-.189-2.142zm9.867 9.13c-1.186-.357-1.186-1.632-1.329-2.652-.711-5.815-.284-11.426.427-17.19.427-.714 1.186-.102 1.376.306.048 1.174 0 2.296-.142 3.469-.095 1.122-.237 2.295-.237 3.468-.048 1.99-.143 4.03-.095 6.07 0 1.99.189 4.03.474 5.917.048.255-.237.612-.474.612zM190.54 21.082c-.617.05-1.044-.663-1.329-1.173a32.395 32.395 0 0 1-2.514-6.274c-.806-2.704-1.233-5.458-1.423-8.416-1.423 2.346-3.795 6.63-5.266 8.926-1.518 2.448-3.036 5.05-4.269 7.498-.142.357-.664.102-.854-.204-.237-.46-.142-1.071-.047-1.53.284-.46.806-1.633 1.091-2.296 3.083-5.05 6.309-10.201 9.155-15.25.332-.358 1.471-.562 1.566.407.237 3.112.664 6.223 1.328 9.182.664 2.958 1.66 5.712 2.941 8.365.048.153 0 .714-.379.765zM208.761 21.643c-2.277-1.377-4.601-2.346-7.02-3.265-2.372-.918-4.649-1.836-6.926-2.907a20.262 20.262 0 0 0 .616 5.407c.143.306.048.867-.379.867-.38 0-.617-.255-.759-.51-.143-.204-.237-.51-.38-.765-.522-1.836-.711-3.826-.711-5.866-.143-.102-.332-.255-.427-.51-.143-.153-.19-.46-.048-.714.19-.153.38-.46.427-.663.095-.663.048-2.194.19-2.857.19-1.173.474-2.601.759-4.03.332-1.427.806-2.856 1.423-4.08a.61.61 0 0 1 1.139.153c-.048.663-.238 1.275-.427 1.888-.143.56-.427 1.173-.57 1.785a25.021 25.021 0 0 0-.806 5.662 86.758 86.758 0 0 1 5.171-4.591c2.182-1.734 4.506-3.214 6.973-4.285.38 0 .854 0 1.139.255.284.204.284.51.142.867-2.514 1.123-4.791 2.602-7.116 4.336a61.582 61.582 0 0 0-6.404 5.713v.05c2.325 1.378 4.886 2.296 7.353 3.214 2.182.816 4.269 1.735 6.262 3.112.427.255.759.612.996 1.07.047.307-.332.715-.617.664zM218.143 21.745c-2.372-.102-4.554-1.275-5.93-3.469-1.138-1.836-1.423-3.978-1.186-6.07.285-2.346 1.186-4.59 2.42-6.324 1.375-1.938 3.32-3.469 5.55-3.928 1.518-.306 3.131-.153 4.269 1.173.522.613.996 1.276.996 2.092.048.867-.332 1.632-.996 2.193-3.32 2.958-6.831 5.713-10.436 7.957.095 1.581 1.376 3.213 2.751 4.03 1.376.816 2.989.918 4.507.714 1.518-.153 3.083-.714 4.174-1.275.19-.153.333 0 .38.153.047.102.142.306-.047.459-1.661 1.632-4.033 2.397-6.452 2.295zm2.087-18.21c-1.375 0-2.751.613-3.842 1.53-2.325 2.041-3.7 5.305-3.7 8.468 3.368-1.99 6.546-4.59 9.63-7.294.237-.204.426-.97.094-1.581-.379-.816-1.233-1.123-2.182-1.123zM254.405 10.217c-.333 3.622-.143 7.856.094 11.426.048.357-.426.408-.664.255-.664-.561-.996-2.04-1.043-2.958a81.61 81.61 0 0 1 0-8.366c-3.511.153-7.306.052-10.769.46-.142 3.417-.047 6.681.095 9.946.048.102-.142.255-.379.306-.143 0-.38-.051-.522-.204-.617-.663-.759-1.887-.807-2.704-.237-5.151.095-10.303.57-15.353.094-.306.521-.612.901-.357.522.255.522.919.617 1.429-.095 1.326-.238 3.57-.38 5.151 3.463-.255 7.306-.102 10.769-.153.189-2.5.284-4.998.853-7.345.238-.306.712-.102.997.204.237.306.379.918.379 1.275-.237 1.939-.569 3.826-.617 5.815.143 0 .285-.05.427-.05.095 0 .238.101.238.356 0 .102 0 .306-.095.408-.143.204-.427.357-.664.46zM272.805 21.694c-.996-1.224-1.281-2.856-1.518-4.438-.474-3.672-.38-7.6-.474-11.425-2.894 4.437-5.171 8.926-7.923 13.976-.284.357-.427.612-.901.816-.427 0-.806-.051-1.138-.561-2.277-4.54-2.704-10.1-2.372-15.608 0-.357.095-.97.474-1.123.617-.204 1.091.358 1.091.766-.284 5.1.237 9.946 1.803 14.333 1.66-3.06 2.988-5.611 4.412-8.11a96.722 96.722 0 0 1 5.028-7.958c.379-.306.901-.102 1.091.306.142 4.897.095 9.692.474 14.384.095 1.53.427 3.01.522 4.438 0 .204-.427.408-.569.204zM286.699 11.187c0 .153 0 .408-.048.612 1.708 1.173 3.274 2.652 4.792 4.284 1.518 1.581 3.036 3.316 4.554 4.897.237.204-.143.56-.285.56-.759-.305-1.328-.764-1.992-1.274-.522-.46-1.091-1.02-1.708-1.48a82.356 82.356 0 0 0-5.313-4.947c-.095 2.652.19 5.152.474 7.753-.095.408-.522.459-.806.306-.332-.561-.475-1.173-.617-1.785-.095-.612-.19-1.275-.285-1.887-.284-1.888-.284-3.622-.284-5.662l-.19-.153c-2.324 1.734-4.839 3.876-7.068 5.763-.095 0-.237.052-.38.102-.142 0-.332 0-.427-.152-.189-.153-.142-.358-.095-.51.048-.154.143-.307.238-.46a73.5 73.5 0 0 1 6.451-5.61c-2.277-1.735-4.696-3.265-7.116-4.693-.474-.357-1.091-.918-.948-1.734.189-.408.759-.306.996-.153 2.941 1.683 5.787 3.417 8.444 5.56l.142-.103c.048-2.703.19-5.814.996-8.518.38-.612 1.044-.05 1.139.408.095 2.347-.474 4.54-.522 6.886 3.084-2.04 6.262-4.233 9.535-6.172.332-.102.569-.102.901.051.238.153.475.664.238 1.072-3.558 2.346-7.258 4.54-10.816 7.039zM306.765 21.745c-2.372-.102-4.554-1.275-5.93-3.469-1.138-1.836-1.423-3.978-1.186-6.07.285-2.346 1.186-4.59 2.42-6.324 1.375-1.938 3.32-3.469 5.55-3.928 1.518-.306 3.131-.153 4.269 1.173.522.613.997 1.276.997 2.092.047.867-.332 1.632-.997 2.193-3.32 2.958-6.831 5.713-10.436 7.957.095 1.581 1.376 3.213 2.751 4.03 1.376.816 2.989.918 4.507.714 1.518-.153 3.084-.714 4.175-1.275.189-.153.332 0 .379.153.048.102.142.306-.047.459-1.661 1.632-4.033 2.397-6.452 2.295zm2.087-18.21c-1.375 0-2.751.613-3.842 1.53-2.325 2.041-3.7 5.305-3.7 8.468 3.368-1.99 6.546-4.59 9.63-7.294.237-.204.427-.97.095-1.581-.38-.816-1.234-1.123-2.183-1.123zM321.522 5.678c-.332.612-.996.816-1.565.663-.332-.102-.712-.46-.854-.918-.332-1.275-.19-2.755.616-3.775.285-.408.854-.765 1.424-.612.521.153.759.714.901 1.173.284 1.173-.095 2.55-.522 3.469zm-.427 15.812c-.522.255-1.233.153-1.565-.357-.475-.714-.57-1.632-.332-2.448.284-.868.711-1.99 1.518-2.398.616-.357 1.233 0 1.518.612.474.867.189 1.99.094 2.908-.237.612-.616 1.326-1.233 1.683z" stroke="#fff" stroke-width="2" mask="url(#a)"/></svg>