<svg width="375" height="1078" fill="none" xmlns="http://www.w3.org/2000/svg"><g filter="url(#a)" fill="#1E4482"><path d="m95.993 12.763-11.792 3.044a45.138 45.138 0 0 1-20.514.478c-22.557-4.714-45.118 8.554-52.238 30.47a45.755 45.755 0 0 0-1.727 20.963l4.539 29.801a172.721 172.721 0 0 1 .115 51.249l-1.706 11.548a204.966 204.966 0 0 0 .293 61.83l.46 2.927a186.803 186.803 0 0 1-.332 60.143 186.81 186.81 0 0 0-.476 59.22l.861 5.653a222.435 222.435 0 0 1 .748 61.641L8.8 454.232c-.467 3.661-1.295 7.268-1.953 10.899-1.648 9.096-.85 17.783 2.004 27.736 6.28 21.896 31.571 31.347 53.05 23.761a44.249 44.249 0 0 1 27.413-.67l6.51 1.946a65.09 65.09 0 0 0 34.557.756l9.236-2.327a87.38 87.38 0 0 1 36.059-1.403 87.393 87.393 0 0 0 26.61.432l10.818-1.487a102.741 102.741 0 0 1 29.751.257l1.739.269a93.727 93.727 0 0 0 35.762-1.366l9.156-2.147a54.079 54.079 0 0 1 24.958.064c16.4 3.935 34.881 1.225 46.32-11.168 8.488-9.197 12.36-19.735 9.007-40.053l-5.612-48.018a242.387 242.387 0 0 1 .687-61.624l.79-5.665a203.466 203.466 0 0 0-.438-59.208 203.504 203.504 0 0 1-.306-60.135l.424-2.935a223.343 223.343 0 0 0 .269-61.823l-.462-3.417a247.991 247.991 0 0 1 .139-67.523l3.136-22.478c.913-6.544 1.391-13.192.369-19.72-1.558-9.946-4.577-16.683-8.951-22.249-10.052-12.79-28.538-14.444-44.237-10.186a52.583 52.583 0 0 1-27.234.078l-7.16-1.897a71.417 71.417 0 0 0-37.166.154l-1.814.497a64.79 64.79 0 0 1-35.374-.323 64.789 64.789 0 0 0-35.872-.184l-.767.217a67.552 67.552 0 0 1-36.461.077l-.955-.265a71.094 71.094 0 0 0-36.81-.341z"/><path d="m95.993 254.763-11.792 3.044a45.136 45.136 0 0 1-20.514.478c-22.557-4.714-45.118 8.554-52.238 30.47a45.754 45.754 0 0 0-1.727 20.963l4.539 29.801a172.725 172.725 0 0 1 .115 51.249l-1.706 11.548a204.966 204.966 0 0 0 .293 61.83l.46 2.927a186.803 186.803 0 0 1-.332 60.143 186.81 186.81 0 0 0-.476 59.22l.861 5.653a222.435 222.435 0 0 1 .748 61.641L8.8 696.232c-.467 3.661-1.295 7.268-1.953 10.899-1.648 9.096-.85 17.783 2.004 27.736 6.28 21.896 31.571 31.347 53.05 23.761a44.249 44.249 0 0 1 27.413-.67l6.51 1.946a65.09 65.09 0 0 0 34.557.756l9.236-2.327a87.38 87.38 0 0 1 36.059-1.403 87.393 87.393 0 0 0 26.61.432l10.818-1.487a102.741 102.741 0 0 1 29.751.257l1.739.269a93.727 93.727 0 0 0 35.762-1.366l9.156-2.147a54.079 54.079 0 0 1 24.958.064c16.4 3.935 34.881 1.225 46.32-11.168 8.488-9.197 12.36-19.735 9.007-40.053l-5.612-48.018a242.386 242.386 0 0 1 .687-61.624l.79-5.665a203.466 203.466 0 0 0-.438-59.208 203.504 203.504 0 0 1-.306-60.135l.424-2.935a223.343 223.343 0 0 0 .269-61.823l-.462-3.417a247.994 247.994 0 0 1 .139-67.523l3.136-22.478c.913-6.544 1.391-13.192.369-19.719-1.558-9.947-4.577-16.684-8.951-22.25-10.052-12.789-28.538-14.444-44.237-10.186a52.586 52.586 0 0 1-27.234.078l-7.16-1.897a71.42 71.42 0 0 0-37.166.154l-1.814.497a64.788 64.788 0 0 1-35.374-.323 64.794 64.794 0 0 0-35.872-.184l-.767.217a67.551 67.551 0 0 1-36.461.077l-.955-.265a71.088 71.088 0 0 0-36.81-.341z"/><path d="m95.993 559.763-11.792 3.044a45.136 45.136 0 0 1-20.514.478c-22.557-4.714-45.118 8.554-52.238 30.47a45.755 45.755 0 0 0-1.727 20.963l4.539 29.801a172.725 172.725 0 0 1 .115 51.249l-1.706 11.547a204.972 204.972 0 0 0 .293 61.831l.46 2.927a186.803 186.803 0 0 1-.332 60.143 186.81 186.81 0 0 0-.476 59.22l.861 5.653a222.435 222.435 0 0 1 .748 61.641l-5.423 42.5c-.467 3.66-1.295 7.27-1.953 10.9-1.648 9.1-.85 17.78 2.004 27.74 6.28 21.89 31.571 31.34 53.05 23.76a44.213 44.213 0 0 1 27.413-.67l6.51 1.94a64.979 64.979 0 0 0 34.557.76l9.236-2.33a87.345 87.345 0 0 1 36.059-1.4 87.297 87.297 0 0 0 26.61.43l10.818-1.49a102.989 102.989 0 0 1 29.751.26l1.739.27a93.608 93.608 0 0 0 35.762-1.37l9.156-2.14a53.97 53.97 0 0 1 24.958.06c16.4 3.94 34.881 1.23 46.32-11.17 8.488-9.19 12.36-19.73 9.007-40.05l-5.612-48.017a242.386 242.386 0 0 1 .687-61.624l.79-5.665a203.466 203.466 0 0 0-.438-59.208 203.504 203.504 0 0 1-.306-60.135l.424-2.935a223.343 223.343 0 0 0 .269-61.823l-.462-3.417a247.994 247.994 0 0 1 .139-67.523l3.136-22.478c.913-6.544 1.391-13.192.369-19.719-1.558-9.947-4.577-16.684-8.951-22.25-10.052-12.789-28.538-14.444-44.237-10.186a52.586 52.586 0 0 1-27.234.078l-7.16-1.897a71.42 71.42 0 0 0-37.166.154l-1.814.497a64.788 64.788 0 0 1-35.374-.323 64.794 64.794 0 0 0-35.872-.184l-.767.217a67.551 67.551 0 0 1-36.461.077l-.955-.265a71.088 71.088 0 0 0-36.81-.341z"/></g><defs><filter id="a" x="-4" y=".506" width="385" height="1077.13" filterUnits="userSpaceOnUse" color-interpolation-filters="sRGB"><feFlood flood-opacity="0" result="BackgroundImageFix"/><feBlend in="SourceGraphic" in2="BackgroundImageFix" result="shape"/><feTurbulence type="fractalNoise" baseFrequency="0.625 0.625" stitchTiles="stitch" numOctaves="3" result="noise" seed="6386"/><feColorMatrix in="noise" type="luminanceToAlpha" result="alphaNoise"/><feComponentTransfer in="alphaNoise" result="coloredNoise1"><feFuncA type="discrete" tableValues="1 1 1 1 1 1 1 1 1 1 1 1 1 1 1 1 1 1 1 1 1 1 1 1 1 1 1 1 1 1 1 1 1 1 1 1 1 1 1 1 1 1 1 1 1 1 1 1 1 1 1 0 0 0 0 0 0 0 0 0 0 0 0 0 0 0 0 0 0 0 0 0 0 0 0 0 0 0 0 0 0 0 0 0 0 0 0 0 0 0 0 0 0 0 0 0 0 0 0 0"/></feComponentTransfer><feComposite operator="in" in2="shape" in="coloredNoise1" result="noise1Clipped"/><feFlood flood-color="rgba(50, 50, 50, 0.25)" result="color1Flood"/><feComposite operator="in" in2="noise1Clipped" in="color1Flood" result="color1"/><feMerge result="effect1_noise_152_520"><feMergeNode in="shape"/><feMergeNode in="color1"/></feMerge><feTurbulence type="fractalNoise" baseFrequency="0.25 0.25" numOctaves="3" seed="7416"/><feDisplacementMap in="effect1_noise_152_520" scale="20" xChannelSelector="R" yChannelSelector="G" result="displacedImage" width="100%" height="100%"/><feMerge result="effect2_texture_152_520"><feMergeNode in="displacedImage"/></feMerge></filter></defs></svg>