<svg width="1435" height="1287" fill="none" xmlns="http://www.w3.org/2000/svg"><g filter="url(#a)" fill="#1E4482"><path d="m23.892 606.001 7.33 10.482a65.933 65.933 0 0 1 3.997 69.078c-20.403 37.832.267 84.757 41.952 95.239l37.719 9.485a96.182 96.182 0 0 0 34.723 2.242l95.543-11.264a619.391 619.391 0 0 1 142.885-.25l32.441 3.71a735.992 735.992 0 0 0 172.65-.64l8.235-1.003a670.287 670.287 0 0 1 167.926.727 670.305 670.305 0 0 0 165.323 1.039l15.873-1.872a798.869 798.869 0 0 1 172.051-1.627l134.19 13.251c37.88 8.244 71.4 4.943 114.98-7.313 40.38-11.356 53.77-61.174 27.39-93.782-19.98-24.697-17.66-60.591 5.33-82.511l1.05-1.002c25.87-24.663 25.85-65.945-.03-90.595l-3.89-3.711c-21.74-20.703-25.04-54.199-7.77-78.751 14.18-20.156 14.74-46.89 1.42-67.624l-6.23-9.696c-15.26-23.759-14.61-54.396 1.65-77.485 16.11-22.885 16.91-53.211 2.01-76.909l-6.02-9.571c-13.96-22.222-13.83-50.517.36-72.6 17.56-27.33 14.53-64.79-10.76-85.174-27.69-22.323-57.06-33.25-119.49-25.276L1122.52 24.74a871.248 871.248 0 0 1-172.032-1.493l-15.893-1.716a730.778 730.778 0 0 0-165.302.954 730.783 730.783 0 0 1-167.912.667l-8.249-.92a802.55 802.55 0 0 0-172.638-.588l-9.585 1.004a891.643 891.643 0 0 1-188.618-.303l-77.377-8.356c-8.567-.925-17.226-1.277-25.819-.636-40.544 3.025-64.048 11.552-83.346 25.055C9.436 56.82 8.593 94.975 27.264 121.105c16.33 22.854 16.487 53.518.391 76.537l-5.152 7.37c-16.34 23.368-15.49 54.669 2.093 77.116 17.735 22.641 18.431 54.259 1.711 77.659l-3.09 4.325c-16.73 23.413-16.043 55.047 1.69 77.711 17.588 22.479 18.422 53.811 2.055 77.194l-3.05 4.357c-17.361 24.805-17.37 57.816-.02 82.628z"/><path d="m23.892 1083 7.33 10.48a65.936 65.936 0 0 1 3.997 69.08c-20.403 37.83.267 84.76 41.952 95.24l37.719 9.48a96.006 96.006 0 0 0 34.723 2.25l95.543-11.27a619.615 619.615 0 0 1 142.885-.25l32.441 3.71a735.83 735.83 0 0 0 172.65-.64l8.235-1a670.24 670.24 0 0 1 167.926.73 670.989 670.989 0 0 0 165.323 1.04l15.873-1.88a798.74 798.74 0 0 1 172.051-1.62l134.19 13.25c37.88 8.24 71.4 4.94 114.98-7.31 40.38-11.36 53.77-61.18 27.39-93.79-19.98-24.69-17.66-60.59 5.33-82.51l1.05-1c25.87-24.66 25.85-65.95-.03-90.595l-3.89-3.71c-21.74-20.704-25.04-54.2-7.77-78.752 14.18-20.156 14.74-46.89 1.42-67.624l-6.23-9.696c-15.26-23.759-14.61-54.396 1.65-77.485 16.11-22.885 16.91-53.211 2.01-76.909l-6.02-9.571c-13.96-22.222-13.83-50.517.36-72.6 17.56-27.329 14.53-64.789-10.76-85.174-27.69-22.322-57.06-33.25-119.49-25.275l-134.21 12.141a871.248 871.248 0 0 1-172.032-1.494l-15.893-1.716a730.784 730.784 0 0 0-165.302.954 730.794 730.794 0 0 1-167.912.667l-8.249-.921a802.608 802.608 0 0 0-172.638-.587l-9.585 1.004a891.61 891.61 0 0 1-188.618-.303l-77.377-8.356c-8.567-.925-17.226-1.277-25.819-.636-40.544 3.026-64.048 11.552-83.346 25.056-26.313 18.411-27.156 56.568-8.485 82.696 16.33 22.854 16.487 53.518.391 76.538l-5.152 7.369c-16.34 23.368-15.49 54.669 2.093 77.117 17.735 22.64 18.431 54.258 1.711 77.658l-3.09 4.325c-16.73 23.413-16.043 55.048 1.69 77.711 17.588 22.479 18.422 53.811 2.055 77.194l-3.05 4.354c-17.361 24.81-17.37 57.82-.02 82.63z"/></g><defs><filter id="a" x=".805" y="0" width="1434.07" height="1286.14" filterUnits="userSpaceOnUse" color-interpolation-filters="sRGB"><feFlood flood-opacity="0" result="BackgroundImageFix"/><feBlend in="SourceGraphic" in2="BackgroundImageFix" result="shape"/><feTurbulence type="fractalNoise" baseFrequency="0.25 0.25" numOctaves="3" seed="7416"/><feDisplacementMap in="shape" scale="20" xChannelSelector="R" yChannelSelector="G" result="displacedImage" width="100%" height="100%"/><feMerge result="effect1_texture_152_524"><feMergeNode in="displacedImage"/></feMerge><feTurbulence type="fractalNoise" baseFrequency="0.625 0.625" stitchTiles="stitch" numOctaves="3" result="noise" seed="6386"/><feColorMatrix in="noise" type="luminanceToAlpha" result="alphaNoise"/><feComponentTransfer in="alphaNoise" result="coloredNoise1"><feFuncA type="discrete" tableValues="1 1 1 1 1 1 1 1 1 1 1 1 1 1 1 1 1 1 1 1 1 1 1 1 1 1 1 1 1 1 1 1 1 1 1 1 1 1 1 1 1 1 1 1 1 1 1 1 1 1 1 0 0 0 0 0 0 0 0 0 0 0 0 0 0 0 0 0 0 0 0 0 0 0 0 0 0 0 0 0 0 0 0 0 0 0 0 0 0 0 0 0 0 0 0 0 0 0 0 0"/></feComponentTransfer><feComposite operator="in" in2="effect1_texture_152_524" in="coloredNoise1" result="noise1Clipped"/><feFlood flood-color="rgba(50, 50, 50, 0.25)" result="color1Flood"/><feComposite operator="in" in2="noise1Clipped" in="color1Flood" result="color1"/><feMerge result="effect2_noise_152_524"><feMergeNode in="effect1_texture_152_524"/><feMergeNode in="color1"/></feMerge></filter></defs></svg>