<svg width="108" height="22" viewBox="0 0 108 22" fill="none" xmlns="http://www.w3.org/2000/svg">
<path d="M8.22217 13.0062C6.64584 13.8086 4.75425 14.1575 3.03781 13.3202C1.70669 12.6573 0.760898 11.5408 0.305515 10.1453C-0.219926 8.50553 -0.0447794 6.65643 0.655809 5.12133C1.18125 4.0049 1.98693 3.02801 2.93272 2.29535C3.56325 1.8418 4.50905 1.28358 5.38478 1.17891C6.08537 0.376476 7.24134 0.132255 8.22217 0.376476C9.90358 0.830028 11.3398 2.53957 11.7952 4.03978C12.2506 5.50511 12.3556 7.10999 11.9353 8.6102C11.4098 10.6337 10.0787 12.0991 8.22217 13.0062ZM10.6392 4.42356C10.2188 3.27223 9.27305 1.98135 8.04702 1.56269C7.48655 1.35336 6.89105 1.28358 6.43567 1.63247C5.98028 1.98135 5.70005 2.53957 5.48987 3.02801C5.45484 3.13268 5.45484 3.27223 5.45484 3.41179C5.45484 3.55134 5.45484 3.72579 5.41981 3.86534C5.38478 3.93512 5.03449 4.14445 4.9294 3.93512C4.85934 3.62112 4.78928 2.99312 4.82431 2.50468C3.49319 3.0629 2.37225 4.21423 1.74172 5.50511C1.07616 6.86576 1.04113 8.43575 1.46149 9.8313C1.81178 10.9128 2.47734 11.82 3.59828 12.2735C4.99946 12.7968 6.50572 12.6224 7.76678 11.9944C9.20299 11.2617 10.2188 10.1453 10.7093 8.64509C11.1646 7.31932 11.0946 5.74933 10.6392 4.42356Z" fill="white"/>
<path d="M24.3275 1.80691C23.4167 1.59758 22.506 1.38825 21.5602 1.35336C20.7895 2.33024 20.4042 3.48157 20.194 4.70267C19.9488 5.95866 19.9838 7.28443 19.9138 8.57531C19.8437 10.3197 19.9838 11.9944 20.194 13.6342C20.0889 13.8435 19.7737 13.983 19.5285 13.8435C18.933 13.1108 18.7928 12.1688 18.7578 11.2268C18.7228 9.13353 18.6878 6.93554 19.003 4.87711C19.2132 3.55134 19.5985 2.33024 20.4042 1.2138C18.2324 1.10914 16.2357 1.56269 14.239 2.12091C13.9588 2.08602 13.6435 1.91158 13.4684 1.63247C13.3983 1.38825 13.5384 1.24869 13.6785 1.17891L13.8887 1.10914L14.0639 1.03936C15.5351 0.446253 17.3216 0.132255 19.038 0.0973664C20.7895 0.027589 22.541 0.202032 24.0823 0.760251C24.2574 0.830028 24.5727 1.07425 24.6778 1.28358C24.7128 1.5278 24.5377 1.8418 24.3275 1.80691Z" fill="white"/>
<path d="M36.0837 12.6922C36.0837 12.9713 35.7684 13.0411 35.5933 13.0062C35.208 12.8666 35.1379 12.2386 35.0678 11.8897C34.9628 11.2617 34.9628 10.6337 34.9628 9.97085V7.84265C34.9628 6.20288 35.1729 4.42356 35.208 2.7489C34.9978 2.43491 34.6475 2.26046 34.2972 2.19069C33.9119 2.08602 33.4565 2.05113 33.0712 1.94646C31.67 1.73713 30.2688 1.5278 28.7976 1.59758C28.6224 3.13268 28.2021 4.56311 27.9919 6.09821C27.6766 8.36598 27.3964 10.4942 27.5365 12.9015C27.5365 13.1806 27.6066 13.5993 27.3263 13.8086C27.1862 13.9482 26.8009 13.9482 26.6258 13.7737C26.4506 13.5644 26.3805 13.3202 26.3455 13.0759C26.3105 12.8317 26.3455 12.5526 26.3105 12.2735C26.2755 8.6102 26.871 5.19111 27.6066 1.63247C27.4314 1.66736 27.2563 1.70224 27.0811 1.66736C26.7659 1.49291 26.8359 1.17891 26.976 1.03936C27.1162 0.760251 27.3614 0.655585 27.6066 0.585808C27.8518 0.51603 28.132 0.446253 28.3772 0.446253C30.7592 0.27181 33.2813 0.620696 35.4532 1.31847C35.8735 1.56269 36.469 1.8418 36.5041 2.40002C36.1888 5.74933 36.1187 9.2033 36.0837 12.6922Z" fill="white"/>
<path d="M40.3346 1.80691H40.1594C40.0543 1.80691 39.9142 1.73713 39.8792 1.56269C39.8442 1.28358 39.9493 1.03936 40.1594 0.830028C40.7199 0.341587 41.3504 0.132254 42.051 0.167144C42.5414 0.202032 43.0318 0.27181 43.5223 0.446253L44.8534 0.899805C46.745 1.5278 48.3913 3.20246 49.3021 5.01667C49.7925 6.02844 49.9677 7.0751 49.7225 8.22642C49.4773 9.27308 48.8467 10.25 48.006 11.0524C45.9043 13.0411 43.277 13.6342 40.3696 13.6342C40.3346 16.0066 40.1945 18.6581 40.5097 20.9957C40.5097 21.1003 40.5798 21.2399 40.6498 21.3446C40.6849 21.519 40.7549 21.6586 40.6148 21.8679C40.3346 22.0772 40.0543 22.0074 39.8091 21.8679C39.4588 21.4841 39.3187 21.0654 39.2837 20.577C39.0385 18.0999 39.1436 15.6926 39.2837 13.1806C38.9684 12.9015 38.478 12.5177 38.3729 12.0991C38.3729 11.9595 38.408 11.82 38.478 11.7502C38.5831 11.5757 38.7232 11.5408 38.7933 11.6106C38.8984 11.7153 39.1085 11.8548 39.2837 11.9595C39.4939 8.47064 39.7391 5.15622 40.3346 1.80691ZM47.2704 4.07467C46.4998 3.13268 45.4138 2.46979 44.363 2.01624C43.7675 1.73713 42.086 1.10914 41.4555 1.38825C41.4905 1.87669 41.4205 2.7489 41.3504 3.13268C40.86 6.09821 40.5448 9.27308 40.5097 12.4131C42.9268 12.5875 45.2387 11.8548 47.0953 10.25C48.1111 9.37775 48.7066 8.15664 48.6015 6.90065C48.5315 5.85399 47.8659 4.80733 47.2704 4.07467Z" fill="white"/>
<path d="M57.9667 13.7039C56.0401 14.2273 53.7982 14.1924 52.2919 12.9015C51.5913 12.3084 51.0659 11.4362 51.0309 10.4942C50.9958 9.65686 51.3461 8.88931 51.8365 8.19153C52.9225 6.65643 54.814 5.60977 56.6356 5.40044C57.4062 5.33066 58.1068 5.43533 58.6673 5.99355C58.8424 6.16799 58.6673 6.51688 58.4921 6.58666H58.1769C58.0718 6.58666 57.9317 6.55177 57.8266 6.55177C57.5814 6.51688 57.3712 6.48199 57.2311 6.58666C55.5497 6.65643 53.9033 7.45887 52.8874 8.81953C52.432 9.41264 52.1868 9.86619 52.2569 10.5989C52.327 11.5757 53.0626 12.3084 54.0784 12.6573C55.5146 13.1806 57.3011 12.8666 58.6673 12.3782C59.4029 12.0991 60.0685 11.82 60.699 11.3664C60.8391 11.2617 60.9792 11.3664 61.0493 11.5408C61.0843 11.6804 61.0843 11.82 61.0843 11.9246C60.5939 12.8666 58.6323 13.5295 57.9667 13.7039ZM59.9283 11.3315C59.7532 11.5408 59.4379 11.506 59.2978 11.4013C58.9475 11.1571 58.9475 10.7035 58.9475 10.3546C58.9825 9.76152 59.0876 9.16842 59.2278 8.54042L59.6831 6.62154C59.9634 5.36555 60.1385 4.10956 59.7532 3.0629C59.4379 2.1558 58.6673 1.24869 57.7215 1.14403C56.9158 1.03936 56.1101 1.31847 55.4446 1.80691C55.0943 2.05113 54.3236 2.71402 54.1135 3.09779C54.0784 3.23735 54.1485 3.48157 54.2886 3.62112C54.4287 3.76067 54.3236 4.17934 54.0084 4.10956C53.7632 4.03978 53.4829 3.97001 53.2728 3.79556C52.9925 3.55134 52.8874 3.09779 53.0976 2.7489C53.6931 1.73713 54.5338 0.899805 55.6197 0.411364C56.3203 0.062477 57.161 -0.0770761 58.0368 0.0624777C59.0876 0.236921 59.9984 1.00447 60.5238 1.98135C61.3295 3.48157 61.2244 5.36555 60.8391 7.04021C60.4888 8.47064 60.1385 9.79641 59.9283 11.3315Z" fill="white"/>
<path d="M69.8069 12.9015C68.756 13.5993 67.4599 14.1575 66.1639 14.1575C65.4282 14.1575 64.9028 13.8435 64.4124 13.1457C64.2372 13.2853 63.922 13.3899 63.7819 13.1806C63.1513 12.3084 62.9762 11.0873 62.9411 9.90108C62.8711 6.86576 62.9061 4.63289 63.7118 1.91158C63.7819 1.63247 64.4474 1.10914 64.9378 1.24869C65.148 0.690473 65.7085 0.0973665 66.374 0.0275891C68.1605 0.0275891 70.0872 0.969583 70.6826 2.7489C70.8578 3.30712 70.8578 3.90023 70.6476 4.45845C70.4374 4.98178 70.0872 5.43533 69.6318 5.78422L69.4216 5.95866C70.2973 6.23777 71.2782 6.79599 71.8386 7.6682C72.259 8.33109 72.294 9.13353 72.1189 9.90108C71.8036 11.1571 70.8928 12.1688 69.8069 12.9015ZM70.7877 8.26131C70.5075 7.73798 69.7369 7.42398 69.1764 7.14487C68.5108 6.72621 67.9153 6.90065 67.2498 7.04021L66.1989 7.28443C65.8136 7.38909 65.4282 7.38909 65.0079 7.28443C64.8327 7.17976 64.6226 6.83088 64.7977 6.65643C65.2181 6.23777 65.7435 6.02844 66.339 5.88888L67.9504 5.71444C68.5809 5.36555 69.2464 4.66778 69.5267 4.0049C69.7018 3.44668 69.5967 3.0629 69.2464 2.60935C68.6159 1.73713 67.6001 1.35336 66.5842 1.24869C66.2689 1.2138 66.1639 1.28358 66.0938 1.49291C65.9887 1.77202 65.9186 2.08602 65.7435 2.33024C65.6734 2.50468 65.4282 2.57446 65.2531 2.46979C65.113 2.43491 65.0079 2.36513 64.9378 2.29535C64.5175 3.79556 64.2723 5.50511 64.2022 7.28443C64.1321 8.95908 64.2022 10.5989 64.4474 12.134C64.7276 11.82 65.0779 11.3664 65.2531 11.1222C65.4983 10.878 65.9537 11.2617 65.8836 11.506C65.8136 11.6804 65.6734 11.8897 65.5684 12.0642C65.4983 12.2735 65.3932 12.4479 65.3932 12.5875C65.6034 12.9015 66.0938 13.0062 66.6893 12.9364C67.565 12.7968 68.6159 12.3084 69.3866 11.7153C70.0872 11.1571 70.6826 10.4593 70.8578 9.58708C70.9629 9.16842 71.0329 8.67997 70.7877 8.26131Z" fill="white"/>
<path d="M84.7494 13.8086C84.0138 12.9713 83.8036 11.8548 83.6285 10.7733C83.2782 8.26131 83.3483 5.57489 83.2782 2.95824C81.1414 5.99355 79.46 9.06375 77.4283 12.5177C77.2181 12.7619 77.113 12.9364 76.7627 13.0759C76.4475 13.0759 76.1672 13.0411 75.922 12.6922C74.2406 9.58708 73.9253 5.78422 74.1705 2.01624C74.1705 1.77202 74.2406 1.35336 74.5208 1.24869C74.9762 1.10914 75.3265 1.49291 75.3265 1.77202C75.1163 5.26089 75.5017 8.57531 76.6576 11.5757C77.8837 9.48241 78.8645 7.73798 79.9154 6.02844C81.0013 4.24912 82.1572 2.53957 83.6285 0.585808C83.9087 0.376475 84.294 0.516031 84.4342 0.795139C84.5393 4.14445 84.5042 7.42398 84.7845 10.6337C84.8545 11.6804 85.0997 12.6922 85.1698 13.6691C85.1698 13.8086 84.8545 13.9482 84.7494 13.8086Z" fill="white"/>
<path d="M97.6362 1.80691C96.7254 1.59758 95.8146 1.38825 94.8688 1.35336C94.0982 2.33024 93.7129 3.48157 93.5027 4.70267C93.2575 5.95866 93.2925 7.28443 93.2225 8.57531C93.1524 10.3197 93.2925 11.9944 93.5027 13.6342C93.3976 13.8435 93.0823 13.983 92.8371 13.8435C92.2416 13.1108 92.1015 12.1688 92.0665 11.2268C92.0314 9.13353 91.9964 6.93554 92.3117 4.87711C92.5219 3.55134 92.9072 2.33024 93.7129 1.2138C91.541 1.10914 89.5444 1.56269 87.5477 2.12091C87.2674 2.08602 86.9522 1.91158 86.777 1.63247C86.707 1.38825 86.8471 1.24869 86.9872 1.17891L87.1974 1.10914L87.3725 1.03936C88.8438 0.446253 90.6303 0.132255 92.3467 0.0973664C94.0982 0.027589 95.8497 0.202032 97.3909 0.760251C97.5661 0.830028 97.8814 1.07425 97.9865 1.28358C98.0215 1.5278 97.8463 1.8418 97.6362 1.80691Z" fill="white"/>
<path d="M106.66 11.506C105.889 12.2735 104.979 12.9364 103.963 13.3551C103.087 13.7039 102.071 13.8086 101.02 13.4946C100.985 13.6691 100.845 13.8784 100.67 13.8784C100.11 13.6691 99.8994 13.1457 99.7943 12.6922C99.5491 8.47064 100.004 4.31889 100.74 0.376476C100.915 -0.00729983 101.616 -0.216632 101.826 0.341587C101.616 2.36513 101.23 4.38867 101.125 6.41221C102.351 5.47022 103.928 5.01667 105.469 5.36555C106.485 5.60977 107.501 6.51688 107.816 7.52865C108.306 8.99397 107.781 10.4593 106.66 11.506ZM105.189 6.58666C103.613 6.20288 102.141 6.90065 101.02 8.08687C101.02 9.37775 101.02 11.3315 100.985 12.4131C101.896 12.6224 102.807 12.5177 103.613 12.1688C104.663 11.7502 105.609 10.9477 106.345 10.0057C106.87 9.34286 106.905 8.2962 106.485 7.56354C106.24 7.0751 105.679 6.69132 105.189 6.58666Z" fill="white"/>
<path d="M8.22217 13.0062C6.64584 13.8086 4.75425 14.1575 3.03781 13.3202C1.70669 12.6573 0.760898 11.5408 0.305515 10.1453C-0.219926 8.50553 -0.0447794 6.65643 0.655809 5.12133C1.18125 4.0049 1.98693 3.02801 2.93272 2.29535C3.56325 1.8418 4.50905 1.28358 5.38478 1.17891C6.08537 0.376476 7.24134 0.132255 8.22217 0.376476C9.90358 0.830028 11.3398 2.53957 11.7952 4.03978C12.2506 5.50511 12.3556 7.10999 11.9353 8.6102C11.4098 10.6337 10.0787 12.0991 8.22217 13.0062ZM10.6392 4.42356C10.2188 3.27223 9.27305 1.98135 8.04702 1.56269C7.48655 1.35336 6.89105 1.28358 6.43567 1.63247C5.98028 1.98135 5.70005 2.53957 5.48987 3.02801C5.45484 3.13268 5.45484 3.27223 5.45484 3.41179C5.45484 3.55134 5.45484 3.72579 5.41981 3.86534C5.38478 3.93512 5.03449 4.14445 4.9294 3.93512C4.85934 3.62112 4.78928 2.99312 4.82431 2.50468C3.49319 3.0629 2.37225 4.21423 1.74172 5.50511C1.07616 6.86576 1.04113 8.43575 1.46149 9.8313C1.81178 10.9128 2.47734 11.82 3.59828 12.2735C4.99946 12.7968 6.50572 12.6224 7.76678 11.9944C9.20299 11.2617 10.2188 10.1453 10.7093 8.64509C11.1646 7.31932 11.0946 5.74933 10.6392 4.42356Z" stroke="#262626"/>
<path d="M24.3275 1.80691C23.4167 1.59758 22.506 1.38825 21.5602 1.35336C20.7895 2.33024 20.4042 3.48157 20.194 4.70267C19.9488 5.95866 19.9838 7.28443 19.9138 8.57531C19.8437 10.3197 19.9838 11.9944 20.194 13.6342C20.0889 13.8435 19.7737 13.983 19.5285 13.8435C18.933 13.1108 18.7928 12.1688 18.7578 11.2268C18.7228 9.13353 18.6878 6.93554 19.003 4.87711C19.2132 3.55134 19.5985 2.33024 20.4042 1.2138C18.2324 1.10914 16.2357 1.56269 14.239 2.12091C13.9588 2.08602 13.6435 1.91158 13.4684 1.63247C13.3983 1.38825 13.5384 1.24869 13.6785 1.17891L13.8887 1.10914L14.0639 1.03936C15.5351 0.446253 17.3216 0.132255 19.038 0.0973664C20.7895 0.027589 22.541 0.202032 24.0823 0.760251C24.2574 0.830028 24.5727 1.07425 24.6778 1.28358C24.7128 1.5278 24.5377 1.8418 24.3275 1.80691Z" stroke="#262626"/>
<path d="M36.0837 12.6922C36.0837 12.9713 35.7684 13.0411 35.5933 13.0062C35.208 12.8666 35.1379 12.2386 35.0678 11.8897C34.9628 11.2617 34.9628 10.6337 34.9628 9.97085V7.84265C34.9628 6.20288 35.1729 4.42356 35.208 2.7489C34.9978 2.43491 34.6475 2.26046 34.2972 2.19069C33.9119 2.08602 33.4565 2.05113 33.0712 1.94646C31.67 1.73713 30.2688 1.5278 28.7976 1.59758C28.6224 3.13268 28.2021 4.56311 27.9919 6.09821C27.6766 8.36598 27.3964 10.4942 27.5365 12.9015C27.5365 13.1806 27.6066 13.5993 27.3263 13.8086C27.1862 13.9482 26.8009 13.9482 26.6258 13.7737C26.4506 13.5644 26.3805 13.3202 26.3455 13.0759C26.3105 12.8317 26.3455 12.5526 26.3105 12.2735C26.2755 8.6102 26.871 5.19111 27.6066 1.63247C27.4314 1.66736 27.2563 1.70224 27.0811 1.66736C26.7659 1.49291 26.8359 1.17891 26.976 1.03936C27.1162 0.760251 27.3614 0.655585 27.6066 0.585808C27.8518 0.51603 28.132 0.446253 28.3772 0.446253C30.7592 0.27181 33.2813 0.620696 35.4532 1.31847C35.8735 1.56269 36.469 1.8418 36.5041 2.40002C36.1888 5.74933 36.1187 9.2033 36.0837 12.6922Z" stroke="#262626"/>
<path d="M40.3346 1.80691H40.1594C40.0543 1.80691 39.9142 1.73713 39.8792 1.56269C39.8442 1.28358 39.9493 1.03936 40.1594 0.830028C40.7199 0.341587 41.3504 0.132254 42.051 0.167144C42.5414 0.202032 43.0318 0.27181 43.5223 0.446253L44.8534 0.899805C46.745 1.5278 48.3913 3.20246 49.3021 5.01667C49.7925 6.02844 49.9677 7.0751 49.7225 8.22642C49.4773 9.27308 48.8467 10.25 48.006 11.0524C45.9043 13.0411 43.277 13.6342 40.3696 13.6342C40.3346 16.0066 40.1945 18.6581 40.5097 20.9957C40.5097 21.1003 40.5798 21.2399 40.6498 21.3446C40.6849 21.519 40.7549 21.6586 40.6148 21.8679C40.3346 22.0772 40.0543 22.0074 39.8091 21.8679C39.4588 21.4841 39.3187 21.0654 39.2837 20.577C39.0385 18.0999 39.1436 15.6926 39.2837 13.1806C38.9684 12.9015 38.478 12.5177 38.3729 12.0991C38.3729 11.9595 38.408 11.82 38.478 11.7502C38.5831 11.5757 38.7232 11.5408 38.7933 11.6106C38.8984 11.7153 39.1085 11.8548 39.2837 11.9595C39.4939 8.47064 39.7391 5.15622 40.3346 1.80691ZM47.2704 4.07467C46.4998 3.13268 45.4138 2.46979 44.363 2.01624C43.7675 1.73713 42.086 1.10914 41.4555 1.38825C41.4905 1.87669 41.4205 2.7489 41.3504 3.13268C40.86 6.09821 40.5448 9.27308 40.5097 12.4131C42.9268 12.5875 45.2387 11.8548 47.0953 10.25C48.1111 9.37775 48.7066 8.15664 48.6015 6.90065C48.5315 5.85399 47.8659 4.80733 47.2704 4.07467Z" stroke="#262626"/>
<path d="M57.9667 13.7039C56.0401 14.2273 53.7982 14.1924 52.2919 12.9015C51.5913 12.3084 51.0659 11.4362 51.0309 10.4942C50.9958 9.65686 51.3461 8.88931 51.8365 8.19153C52.9225 6.65643 54.814 5.60977 56.6356 5.40044C57.4062 5.33066 58.1068 5.43533 58.6673 5.99355C58.8424 6.16799 58.6673 6.51688 58.4921 6.58666H58.1769C58.0718 6.58666 57.9317 6.55177 57.8266 6.55177C57.5814 6.51688 57.3712 6.48199 57.2311 6.58666C55.5497 6.65643 53.9033 7.45887 52.8874 8.81953C52.432 9.41264 52.1868 9.86619 52.2569 10.5989C52.327 11.5757 53.0626 12.3084 54.0784 12.6573C55.5146 13.1806 57.3011 12.8666 58.6673 12.3782C59.4029 12.0991 60.0685 11.82 60.699 11.3664C60.8391 11.2617 60.9792 11.3664 61.0493 11.5408C61.0843 11.6804 61.0843 11.82 61.0843 11.9246C60.5939 12.8666 58.6323 13.5295 57.9667 13.7039ZM59.9283 11.3315C59.7532 11.5408 59.4379 11.506 59.2978 11.4013C58.9475 11.1571 58.9475 10.7035 58.9475 10.3546C58.9825 9.76152 59.0876 9.16842 59.2278 8.54042L59.6831 6.62154C59.9634 5.36555 60.1385 4.10956 59.7532 3.0629C59.4379 2.1558 58.6673 1.24869 57.7215 1.14403C56.9158 1.03936 56.1101 1.31847 55.4446 1.80691C55.0943 2.05113 54.3236 2.71402 54.1135 3.09779C54.0784 3.23735 54.1485 3.48157 54.2886 3.62112C54.4287 3.76067 54.3236 4.17934 54.0084 4.10956C53.7632 4.03978 53.4829 3.97001 53.2728 3.79556C52.9925 3.55134 52.8874 3.09779 53.0976 2.7489C53.6931 1.73713 54.5338 0.899805 55.6197 0.411364C56.3203 0.062477 57.161 -0.0770761 58.0368 0.0624777C59.0876 0.236921 59.9984 1.00447 60.5238 1.98135C61.3295 3.48157 61.2244 5.36555 60.8391 7.04021C60.4888 8.47064 60.1385 9.79641 59.9283 11.3315Z" stroke="#262626"/>
<path d="M69.8069 12.9015C68.756 13.5993 67.4599 14.1575 66.1639 14.1575C65.4282 14.1575 64.9028 13.8435 64.4124 13.1457C64.2372 13.2853 63.922 13.3899 63.7819 13.1806C63.1513 12.3084 62.9762 11.0873 62.9411 9.90108C62.8711 6.86576 62.9061 4.63289 63.7118 1.91158C63.7819 1.63247 64.4474 1.10914 64.9378 1.24869C65.148 0.690473 65.7085 0.0973665 66.374 0.0275891C68.1605 0.0275891 70.0872 0.969583 70.6826 2.7489C70.8578 3.30712 70.8578 3.90023 70.6476 4.45845C70.4374 4.98178 70.0872 5.43533 69.6318 5.78422L69.4216 5.95866C70.2973 6.23777 71.2782 6.79599 71.8386 7.6682C72.259 8.33109 72.294 9.13353 72.1189 9.90108C71.8036 11.1571 70.8928 12.1688 69.8069 12.9015ZM70.7877 8.26131C70.5075 7.73798 69.7369 7.42398 69.1764 7.14487C68.5108 6.72621 67.9153 6.90065 67.2498 7.04021L66.1989 7.28443C65.8136 7.38909 65.4282 7.38909 65.0079 7.28443C64.8327 7.17976 64.6226 6.83088 64.7977 6.65643C65.2181 6.23777 65.7435 6.02844 66.339 5.88888L67.9504 5.71444C68.5809 5.36555 69.2464 4.66778 69.5267 4.0049C69.7018 3.44668 69.5967 3.0629 69.2464 2.60935C68.6159 1.73713 67.6001 1.35336 66.5842 1.24869C66.2689 1.2138 66.1639 1.28358 66.0938 1.49291C65.9887 1.77202 65.9186 2.08602 65.7435 2.33024C65.6734 2.50468 65.4282 2.57446 65.2531 2.46979C65.113 2.43491 65.0079 2.36513 64.9378 2.29535C64.5175 3.79556 64.2723 5.50511 64.2022 7.28443C64.1321 8.95908 64.2022 10.5989 64.4474 12.134C64.7276 11.82 65.0779 11.3664 65.2531 11.1222C65.4983 10.878 65.9537 11.2617 65.8836 11.506C65.8136 11.6804 65.6734 11.8897 65.5684 12.0642C65.4983 12.2735 65.3932 12.4479 65.3932 12.5875C65.6034 12.9015 66.0938 13.0062 66.6893 12.9364C67.565 12.7968 68.6159 12.3084 69.3866 11.7153C70.0872 11.1571 70.6826 10.4593 70.8578 9.58708C70.9629 9.16842 71.0329 8.67997 70.7877 8.26131Z" stroke="#262626"/>
<path d="M84.7494 13.8086C84.0138 12.9713 83.8036 11.8548 83.6285 10.7733C83.2782 8.26131 83.3483 5.57489 83.2782 2.95824C81.1414 5.99355 79.46 9.06375 77.4283 12.5177C77.2181 12.7619 77.113 12.9364 76.7627 13.0759C76.4475 13.0759 76.1672 13.0411 75.922 12.6922C74.2406 9.58708 73.9253 5.78422 74.1705 2.01624C74.1705 1.77202 74.2406 1.35336 74.5208 1.24869C74.9762 1.10914 75.3265 1.49291 75.3265 1.77202C75.1163 5.26089 75.5017 8.57531 76.6576 11.5757C77.8837 9.48241 78.8645 7.73798 79.9154 6.02844C81.0013 4.24912 82.1572 2.53957 83.6285 0.585808C83.9087 0.376475 84.294 0.516031 84.4342 0.795139C84.5393 4.14445 84.5042 7.42398 84.7845 10.6337C84.8545 11.6804 85.0997 12.6922 85.1698 13.6691C85.1698 13.8086 84.8545 13.9482 84.7494 13.8086Z" stroke="#262626"/>
<path d="M97.6362 1.80691C96.7254 1.59758 95.8146 1.38825 94.8688 1.35336C94.0982 2.33024 93.7129 3.48157 93.5027 4.70267C93.2575 5.95866 93.2925 7.28443 93.2225 8.57531C93.1524 10.3197 93.2925 11.9944 93.5027 13.6342C93.3976 13.8435 93.0823 13.983 92.8371 13.8435C92.2416 13.1108 92.1015 12.1688 92.0665 11.2268C92.0314 9.13353 91.9964 6.93554 92.3117 4.87711C92.5219 3.55134 92.9072 2.33024 93.7129 1.2138C91.541 1.10914 89.5444 1.56269 87.5477 2.12091C87.2674 2.08602 86.9522 1.91158 86.777 1.63247C86.707 1.38825 86.8471 1.24869 86.9872 1.17891L87.1974 1.10914L87.3725 1.03936C88.8438 0.446253 90.6303 0.132255 92.3467 0.0973664C94.0982 0.027589 95.8497 0.202032 97.3909 0.760251C97.5661 0.830028 97.8814 1.07425 97.9865 1.28358C98.0215 1.5278 97.8463 1.8418 97.6362 1.80691Z" stroke="#262626"/>
<path d="M106.66 11.506C105.889 12.2735 104.979 12.9364 103.963 13.3551C103.087 13.7039 102.071 13.8086 101.02 13.4946C100.985 13.6691 100.845 13.8784 100.67 13.8784C100.11 13.6691 99.8994 13.1457 99.7943 12.6922C99.5491 8.47064 100.004 4.31889 100.74 0.376476C100.915 -0.00729983 101.616 -0.216632 101.826 0.341587C101.616 2.36513 101.23 4.38867 101.125 6.41221C102.351 5.47022 103.928 5.01667 105.469 5.36555C106.485 5.60977 107.501 6.51688 107.816 7.52865C108.306 8.99397 107.781 10.4593 106.66 11.506ZM105.189 6.58666C103.613 6.20288 102.141 6.90065 101.02 8.08687C101.02 9.37775 101.02 11.3315 100.985 12.4131C101.896 12.6224 102.807 12.5177 103.613 12.1688C104.663 11.7502 105.609 10.9477 106.345 10.0057C106.87 9.34286 106.905 8.2962 106.485 7.56354C106.24 7.0751 105.679 6.69132 105.189 6.58666Z" stroke="#262626"/>
</svg>
