<svg width="108" height="22" fill="none" xmlns="http://www.w3.org/2000/svg"><path d="M8.222 13.006c-1.576.803-3.468 1.152-5.184.314a5.337 5.337 0 0 1-2.732-3.175c-.526-1.64-.35-3.489.35-5.024a7.834 7.834 0 0 1 2.277-2.826c.63-.453 1.576-1.011 2.452-1.116C6.085.376 7.24.132 8.222.376 9.904.83 11.34 2.54 11.795 4.04c.456 1.465.56 3.07.14 4.57-.525 2.024-1.856 3.49-3.713 4.396zm2.417-8.582c-.42-1.152-1.366-2.443-2.592-2.861-.56-.21-1.156-.28-1.611.07-.456.348-.736.907-.946 1.395-.035.105-.035.244-.035.384s0 .314-.035.453c-.035.07-.386.28-.49.07a5.81 5.81 0 0 1-.106-1.43c-1.33.558-2.452 1.71-3.082 3-.666 1.36-.7 2.93-.28 4.326.35 1.082 1.015 1.989 2.136 2.443 1.401.523 2.908.348 4.169-.28 1.436-.732 2.452-1.849 2.942-3.349.456-1.326.386-2.896-.07-4.221zM24.328 1.807c-.911-.21-1.822-.419-2.768-.454-.77.977-1.156 2.129-1.366 3.35-.245 1.256-.21 2.581-.28 3.872-.07 1.745.07 3.42.28 5.06-.105.209-.42.348-.665.209-.596-.733-.736-1.675-.771-2.617-.035-2.093-.07-4.291.245-6.35.21-1.326.596-2.547 1.401-3.663-2.172-.105-4.168.349-6.165.907a1.105 1.105 0 0 1-.77-.489c-.07-.244.07-.383.21-.453l.21-.07.175-.07c1.471-.593 3.258-.907 4.974-.942 1.752-.07 3.503.105 5.044.663.175.07.49.314.596.524.035.244-.14.558-.35.523zM36.084 12.692c0 .28-.316.35-.49.314-.386-.14-.456-.767-.526-1.116-.105-.628-.105-1.256-.105-1.92V7.844c0-1.64.21-3.42.245-5.094-.21-.314-.56-.489-.91-.558-.386-.105-.842-.14-1.227-.245-1.401-.209-2.802-.418-4.273-.348-.176 1.535-.596 2.965-.806 4.5-.315 2.268-.596 4.396-.456 6.804 0 .279.07.697-.21.907-.14.14-.525.14-.7-.035-.175-.21-.245-.454-.28-.698-.035-.244 0-.523-.035-.803-.035-3.663.56-7.082 1.296-10.64-.176.034-.35.07-.526.034-.315-.174-.245-.488-.105-.628.14-.279.385-.383.63-.453.246-.07.526-.14.771-.14 2.382-.174 4.904.175 7.076.872.42.245 1.016.524 1.051 1.082-.315 3.35-.385 6.803-.42 10.292zM40.335 1.807h-.176a.29.29 0 0 1-.28-.244c-.035-.28.07-.524.28-.733a2.58 2.58 0 0 1 1.892-.663c.49.035.98.105 1.471.28L44.853.9c1.892.628 3.538 2.302 4.45 4.117.49 1.011.665 2.058.42 3.21-.246 1.046-.876 2.023-1.717 2.825-2.102 1.99-4.729 2.582-7.636 2.582-.035 2.373-.175 5.024.14 7.362 0 .104.07.244.14.349.035.174.105.314-.035.523-.28.21-.56.14-.806 0-.35-.384-.49-.803-.525-1.291-.245-2.477-.14-4.884 0-7.396-.316-.28-.806-.663-.911-1.082 0-.14.035-.279.105-.349.105-.174.245-.21.315-.14.105.105.316.245.49.35.21-3.49.456-6.804 1.052-10.153zm6.935 2.268c-.77-.942-1.856-1.605-2.907-2.059-.596-.279-2.277-.907-2.907-.628.034.489-.036 1.36-.106 1.745-.49 2.965-.805 6.14-.84 9.28 2.417.175 4.729-.558 6.585-2.163 1.016-.872 1.612-2.093 1.507-3.35-.07-1.046-.736-2.093-1.332-2.825zM57.967 13.704c-1.927.523-4.169.488-5.675-.803-.7-.593-1.226-1.465-1.261-2.407-.035-.837.315-1.605.806-2.302 1.085-1.536 2.977-2.582 4.799-2.792.77-.07 1.47.035 2.031.594.175.174 0 .523-.175.593h-.315c-.105 0-.245-.035-.35-.035-.246-.035-.456-.07-.596.035-1.681.07-3.328.872-4.344 2.233-.455.593-.7 1.046-.63 1.779.07.977.806 1.71 1.821 2.058 1.437.524 3.223.21 4.59-.279.735-.279 1.4-.558 2.031-1.012.14-.104.28 0 .35.175.035.14.035.279.035.384-.49.942-2.452 1.604-3.117 1.779zm1.961-2.373c-.175.21-.49.175-.63.07-.35-.244-.35-.697-.35-1.046.035-.593.14-1.187.28-1.815l.455-1.918c.28-1.256.456-2.512.07-3.56-.315-.906-1.086-1.813-2.032-1.918-.805-.105-1.61.174-2.276.663-.35.244-1.121.907-1.331 1.29-.036.14.035.385.175.524.14.14.035.558-.28.489-.246-.07-.526-.14-.736-.314-.28-.245-.386-.698-.175-1.047.595-1.012 1.436-1.85 2.522-2.338a4.001 4.001 0 0 1 2.417-.349c1.05.175 1.961.942 2.487 1.92.806 1.5.7 3.384.315 5.058-.35 1.43-.7 2.756-.91 4.292zM69.807 12.902c-1.051.697-2.347 1.256-3.643 1.256-.736 0-1.261-.314-1.752-1.012-.175.14-.49.244-.63.035-.63-.873-.806-2.094-.84-3.28-.07-3.035-.036-5.268.77-7.99.07-.279.735-.802 1.226-.662.21-.559.77-1.152 1.436-1.221 1.787 0 3.713.942 4.309 2.72a2.602 2.602 0 0 1-.035 1.71c-.21.524-.56.977-1.016 1.326l-.21.175c.875.279 1.856.837 2.417 1.71.42.662.455 1.465.28 2.232-.315 1.256-1.226 2.268-2.312 3zm.98-4.64c-.28-.524-1.05-.838-1.61-1.117-.666-.419-1.262-.244-1.927-.105l-1.051.244c-.385.105-.77.105-1.191 0-.175-.104-.385-.453-.21-.628.42-.418.945-.628 1.541-.767l1.611-.175c.63-.348 1.296-1.046 1.577-1.71.175-.557.07-.941-.28-1.395-.631-.872-1.647-1.256-2.663-1.36-.315-.035-.42.035-.49.244-.105.279-.175.593-.35.837-.07.175-.316.244-.49.14a.678.678 0 0 1-.316-.175c-.42 1.5-.666 3.21-.736 4.99-.07 1.674 0 3.314.245 4.849.28-.314.63-.768.806-1.012.245-.244.7.14.63.384-.07.174-.21.384-.315.558-.07.21-.175.384-.175.524.21.314.7.418 1.296.348.876-.14 1.927-.628 2.698-1.22.7-.559 1.296-1.257 1.47-2.129.106-.419.176-.907-.07-1.326zM84.75 13.809c-.736-.838-.946-1.954-1.121-3.036-.35-2.512-.28-5.198-.35-7.815-2.138 3.036-3.819 6.106-5.85 9.56-.21.244-.316.418-.666.558-.316 0-.596-.035-.841-.384-1.681-3.105-1.997-6.908-1.751-10.676 0-.244.07-.663.35-.767.455-.14.805.244.805.523-.21 3.489.176 6.803 1.332 9.804 1.226-2.094 2.207-3.838 3.257-5.548A65.685 65.685 0 0 1 83.628.586c.28-.21.666-.07.806.21.105 3.348.07 6.628.35 9.838.07 1.046.316 2.058.386 3.035 0 .14-.316.28-.42.14zM97.636 1.807c-.91-.21-1.821-.419-2.767-.454-.77.977-1.156 2.129-1.366 3.35-.246 1.256-.21 2.581-.28 3.872-.07 1.745.07 3.42.28 5.06-.105.209-.42.348-.666.209-.595-.733-.736-1.675-.77-2.617-.036-2.093-.07-4.291.245-6.35.21-1.326.595-2.547 1.4-3.663-2.171-.105-4.168.349-6.164.907a1.105 1.105 0 0 1-.771-.489c-.07-.244.07-.383.21-.453l.21-.07.175-.07C88.844.446 90.63.132 92.347.097c1.751-.07 3.503.105 5.044.663.175.07.49.314.596.524.035.244-.14.558-.35.523zM106.66 11.506c-.771.768-1.681 1.43-2.697 1.85a4.437 4.437 0 0 1-2.943.139c-.035.174-.175.383-.35.383-.56-.209-.77-.732-.876-1.186-.245-4.221.21-8.373.946-12.316.175-.383.876-.593 1.086-.034-.21 2.023-.596 4.047-.701 6.07 1.226-.942 2.803-1.395 4.344-1.046 1.016.244 2.032 1.15 2.347 2.163.49 1.465-.035 2.93-1.156 3.977zm-1.471-4.92c-1.576-.383-3.048.315-4.169 1.5 0 1.292 0 3.245-.035 4.327.911.21 1.822.105 2.628-.244 1.05-.419 1.996-1.221 2.732-2.163.525-.663.56-1.71.14-2.442-.245-.489-.806-.873-1.296-.977z" fill="#fff"/><path d="M8.222 13.006c-1.576.803-3.468 1.152-5.184.314a5.337 5.337 0 0 1-2.732-3.175c-.526-1.64-.35-3.489.35-5.024a7.834 7.834 0 0 1 2.277-2.826c.63-.453 1.576-1.011 2.452-1.116C6.085.376 7.24.132 8.222.376 9.904.83 11.34 2.54 11.795 4.04c.456 1.465.56 3.07.14 4.57-.525 2.024-1.856 3.49-3.713 4.396zm2.417-8.582c-.42-1.152-1.366-2.443-2.592-2.861-.56-.21-1.156-.28-1.611.07-.456.348-.736.907-.946 1.395-.035.105-.035.244-.035.384s0 .314-.035.453c-.035.07-.386.28-.49.07a5.81 5.81 0 0 1-.106-1.43c-1.33.558-2.452 1.71-3.082 3-.666 1.36-.7 2.93-.28 4.326.35 1.082 1.015 1.989 2.136 2.443 1.401.523 2.908.348 4.169-.28 1.436-.732 2.452-1.849 2.942-3.349.456-1.326.386-2.896-.07-4.221zM24.328 1.807c-.911-.21-1.822-.419-2.768-.454-.77.977-1.156 2.129-1.366 3.35-.245 1.256-.21 2.581-.28 3.872-.07 1.745.07 3.42.28 5.06-.105.209-.42.348-.665.209-.596-.733-.736-1.675-.771-2.617-.035-2.093-.07-4.291.245-6.35.21-1.326.596-2.547 1.401-3.663-2.172-.105-4.168.349-6.165.907a1.105 1.105 0 0 1-.77-.489c-.07-.244.07-.383.21-.453l.21-.07.175-.07c1.471-.593 3.258-.907 4.974-.942 1.752-.07 3.503.105 5.044.663.175.07.49.314.596.524.035.244-.14.558-.35.523zM36.084 12.692c0 .28-.316.35-.49.314-.386-.14-.456-.767-.526-1.116-.105-.628-.105-1.256-.105-1.92V7.844c0-1.64.21-3.42.245-5.094-.21-.314-.56-.489-.91-.558-.386-.105-.842-.14-1.227-.245-1.401-.209-2.802-.418-4.273-.348-.176 1.535-.596 2.965-.806 4.5-.315 2.268-.596 4.396-.456 6.804 0 .279.07.697-.21.907-.14.14-.525.14-.7-.035-.175-.21-.245-.454-.28-.698-.035-.244 0-.523-.035-.803-.035-3.663.56-7.082 1.296-10.64-.176.034-.35.07-.526.034-.315-.174-.245-.488-.105-.628.14-.279.385-.383.63-.453.246-.07.526-.14.771-.14 2.382-.174 4.904.175 7.076.872.42.245 1.016.524 1.051 1.082-.315 3.35-.385 6.803-.42 10.292zM40.335 1.807h-.176a.29.29 0 0 1-.28-.244c-.035-.28.07-.524.28-.733a2.58 2.58 0 0 1 1.892-.663c.49.035.98.105 1.471.28L44.853.9c1.892.628 3.538 2.302 4.45 4.117.49 1.011.665 2.058.42 3.21-.246 1.046-.876 2.023-1.717 2.825-2.102 1.99-4.729 2.582-7.636 2.582-.035 2.373-.175 5.024.14 7.362 0 .104.07.244.14.349.035.174.105.314-.035.523-.28.21-.56.14-.806 0-.35-.384-.49-.803-.525-1.291-.245-2.477-.14-4.884 0-7.396-.316-.28-.806-.663-.911-1.082 0-.14.035-.279.105-.349.105-.174.245-.21.315-.14.105.105.316.245.49.35.21-3.49.456-6.804 1.052-10.153zm6.935 2.268c-.77-.942-1.856-1.605-2.907-2.059-.596-.279-2.277-.907-2.907-.628.034.489-.036 1.36-.106 1.745-.49 2.965-.805 6.14-.84 9.28 2.417.175 4.729-.558 6.585-2.163 1.016-.872 1.612-2.093 1.507-3.35-.07-1.046-.736-2.093-1.332-2.825zM57.967 13.704c-1.927.523-4.169.488-5.675-.803-.7-.593-1.226-1.465-1.261-2.407-.035-.837.315-1.605.806-2.302 1.085-1.536 2.977-2.582 4.799-2.792.77-.07 1.47.035 2.031.594.175.174 0 .523-.175.593h-.315c-.105 0-.245-.035-.35-.035-.246-.035-.456-.07-.596.035-1.681.07-3.328.872-4.344 2.233-.455.593-.7 1.046-.63 1.779.07.977.806 1.71 1.821 2.058 1.437.524 3.223.21 4.59-.279.735-.279 1.4-.558 2.031-1.012.14-.104.28 0 .35.175.035.14.035.279.035.384-.49.942-2.452 1.604-3.117 1.779zm1.961-2.373c-.175.21-.49.175-.63.07-.35-.244-.35-.697-.35-1.046.035-.593.14-1.187.28-1.815l.455-1.918c.28-1.256.456-2.512.07-3.56-.315-.906-1.086-1.813-2.032-1.918-.805-.105-1.61.174-2.276.663-.35.244-1.121.907-1.331 1.29-.036.14.035.385.175.524.14.14.035.558-.28.489-.246-.07-.526-.14-.736-.314-.28-.245-.386-.698-.175-1.047.595-1.012 1.436-1.85 2.522-2.338a4.001 4.001 0 0 1 2.417-.349c1.05.175 1.961.942 2.487 1.92.806 1.5.7 3.384.315 5.058-.35 1.43-.7 2.756-.91 4.292zM69.807 12.902c-1.051.697-2.347 1.256-3.643 1.256-.736 0-1.261-.314-1.752-1.012-.175.14-.49.244-.63.035-.63-.873-.806-2.094-.84-3.28-.07-3.035-.036-5.268.77-7.99.07-.279.735-.802 1.226-.662.21-.559.77-1.152 1.436-1.221 1.787 0 3.713.942 4.309 2.72a2.602 2.602 0 0 1-.035 1.71c-.21.524-.56.977-1.016 1.326l-.21.175c.875.279 1.856.837 2.417 1.71.42.662.455 1.465.28 2.232-.315 1.256-1.226 2.268-2.312 3zm.98-4.64c-.28-.524-1.05-.838-1.61-1.117-.666-.419-1.262-.244-1.927-.105l-1.051.244c-.385.105-.77.105-1.191 0-.175-.104-.385-.453-.21-.628.42-.418.945-.628 1.541-.767l1.611-.175c.63-.348 1.296-1.046 1.577-1.71.175-.557.07-.941-.28-1.395-.631-.872-1.647-1.256-2.663-1.36-.315-.035-.42.035-.49.244-.105.279-.175.593-.35.837-.07.175-.316.244-.49.14a.678.678 0 0 1-.316-.175c-.42 1.5-.666 3.21-.736 4.99-.07 1.674 0 3.314.245 4.849.28-.314.63-.768.806-1.012.245-.244.7.14.63.384-.07.174-.21.384-.315.558-.07.21-.175.384-.175.524.21.314.7.418 1.296.348.876-.14 1.927-.628 2.698-1.22.7-.559 1.296-1.257 1.47-2.129.106-.419.176-.907-.07-1.326zM84.75 13.809c-.736-.838-.946-1.954-1.121-3.036-.35-2.512-.28-5.198-.35-7.815-2.138 3.036-3.819 6.106-5.85 9.56-.21.244-.316.418-.666.558-.316 0-.596-.035-.841-.384-1.681-3.105-1.997-6.908-1.751-10.676 0-.244.07-.663.35-.767.455-.14.805.244.805.523-.21 3.489.176 6.803 1.332 9.804 1.226-2.094 2.207-3.838 3.257-5.548A65.685 65.685 0 0 1 83.628.586c.28-.21.666-.07.806.21.105 3.348.07 6.628.35 9.838.07 1.046.316 2.058.386 3.035 0 .14-.316.28-.42.14zM97.636 1.807c-.91-.21-1.821-.419-2.767-.454-.77.977-1.156 2.129-1.366 3.35-.246 1.256-.21 2.581-.28 3.872-.07 1.745.07 3.42.28 5.06-.105.209-.42.348-.666.209-.595-.733-.736-1.675-.77-2.617-.036-2.093-.07-4.291.245-6.35.21-1.326.595-2.547 1.4-3.663-2.171-.105-4.168.349-6.164.907a1.105 1.105 0 0 1-.771-.489c-.07-.244.07-.383.21-.453l.21-.07.175-.07C88.844.446 90.63.132 92.347.097c1.751-.07 3.503.105 5.044.663.175.07.49.314.596.524.035.244-.14.558-.35.523zM106.66 11.506c-.771.768-1.681 1.43-2.697 1.85a4.437 4.437 0 0 1-2.943.139c-.035.174-.175.383-.35.383-.56-.209-.77-.732-.876-1.186-.245-4.221.21-8.373.946-12.316.175-.383.876-.593 1.086-.034-.21 2.023-.596 4.047-.701 6.07 1.226-.942 2.803-1.395 4.344-1.046 1.016.244 2.032 1.15 2.347 2.163.49 1.465-.035 2.93-1.156 3.977zm-1.471-4.92c-1.576-.383-3.048.315-4.169 1.5 0 1.292 0 3.245-.035 4.327.911.21 1.822.105 2.628-.244 1.05-.419 1.996-1.221 2.732-2.163.525-.663.56-1.71.14-2.442-.245-.489-.806-.873-1.296-.977z" stroke="#fff"/></svg>