<svg width="107" height="24" fill="none" xmlns="http://www.w3.org/2000/svg"><path d="M10.03 18.542c-.692-.775-.89-1.808-1.055-2.808-.33-2.324-.264-4.809-.33-7.23-2.012 2.809-3.595 5.649-5.508 8.844-.198.225-.297.387-.627.516-.297 0-.56-.032-.791-.355-1.584-2.872-1.88-6.39-1.65-9.876 0-.226.066-.613.33-.71.429-.129.759.226.759.484-.198 3.228.165 6.294 1.253 9.07 1.155-1.937 2.078-3.55 3.068-5.132A60.74 60.74 0 0 1 8.975 6.31c.264-.193.627-.064.76.194.098 3.098.065 6.132.329 9.1.066.969.297 1.905.363 2.809 0 .129-.297.258-.396.129zM17.878 17.638c-1.254.613-2.64.968-4.124 1.13-.428.064-1.088.096-1.484-.259-.429-.29-.363-.936-.264-1.258.066-.162.429-.29.528-.065 0 .032.033.097.033.162.066.16.165.355.363.419 1.484-.064 2.87-.355 4.123-.968 1.32-.613 2.144-1.259 3.068-2.42.264-.323.33-.71.165-1.001-.198-.452-.693-.904-1.155-1.13-.56-.258-1.253-.355-2.012-.387-.66 0-1.385.032-2.111.065-.198 0-.363-.194-.396-.355a.5.5 0 0 1 .165-.485l.33-.225c.429-.13.89-.13 1.286-.097.43.032.825.097 1.22.064.397 0 .825-.161 1.122-.548l.627-.646c.165-.226.264-.452.165-.71-.627-.774-1.386-1.194-2.243-1.517-.99-.355-2.111-.484-3.266-.58-.23-.13-.296-.55-.099-.743.363-.29.792-.322 1.188-.29.89.064 2.078.323 2.837.645 1.088.452 2.012 1.098 2.639 2.13.296.646 0 1.323-.43 1.743-.33.355-.725.613-1.12.871.692.29 1.615.71 2.077 1.356.561.71.495 1.581.1 2.291-.595 1.162-2.178 2.227-3.332 2.808zM39.76 17.8c-1.484.742-3.265 1.064-4.882.29a4.963 4.963 0 0 1-2.572-2.937c-.495-1.517-.33-3.227.33-4.647a7.273 7.273 0 0 1 2.143-2.614c.594-.42 1.485-.936 2.31-1.033.66-.742 1.748-.968 2.671-.742 1.584.42 2.936 2 3.365 3.388.429 1.356.528 2.84.132 4.228-.495 1.872-1.748 3.227-3.497 4.066zm2.276-7.94c-.395-1.065-1.286-2.259-2.44-2.646-.528-.194-1.09-.258-1.518.064-.429.323-.693.84-.89 1.291-.034.097-.034.226-.034.355 0 .13 0 .29-.033.42-.033.064-.362.258-.461.064a5.285 5.285 0 0 1-.1-1.323c-1.253.517-2.308 1.582-2.902 2.776-.627 1.258-.66 2.71-.264 4.002.33 1 .957 1.839 2.012 2.259 1.32.484 2.738.322 3.925-.259 1.353-.677 2.31-1.71 2.771-3.098.43-1.226.363-2.679-.066-3.905zM51.462 17.703c-.99.645-2.21 1.161-3.43 1.161-.693 0-1.188-.29-1.65-.936-.164.13-.461.226-.593.033-.594-.807-.759-1.937-.792-3.034-.066-2.808-.033-4.873.726-7.39.066-.259.693-.743 1.154-.614.198-.516.726-1.065 1.353-1.13 1.682 0 3.496.872 4.057 2.518a2.367 2.367 0 0 1-.033 1.581 2.919 2.919 0 0 1-.956 1.227l-.198.161c.824.258 1.748.775 2.276 1.582.396.613.428 1.355.264 2.065-.297 1.162-1.155 2.098-2.178 2.776zm.924-4.293c-.264-.484-.99-.774-1.517-1.033-.627-.387-1.188-.226-1.815-.096l-.99.226a2.2 2.2 0 0 1-1.12 0c-.166-.097-.363-.42-.199-.581.396-.388.891-.581 1.452-.71l1.517-.162c.594-.322 1.22-.968 1.485-1.581.165-.516.066-.871-.264-1.291-.594-.807-1.55-1.162-2.507-1.259-.297-.032-.396.033-.462.226-.099.258-.165.549-.33.775-.066.161-.297.226-.462.129a.641.641 0 0 1-.297-.161c-.395 1.387-.626 2.969-.692 4.615-.066 1.549 0 3.066.23 4.486.264-.291.594-.71.76-.936.23-.226.659.129.593.355-.066.16-.198.355-.297.516-.066.194-.165.355-.165.484.198.29.66.387 1.22.323.825-.13 1.815-.581 2.54-1.13.66-.516 1.221-1.162 1.386-1.968.099-.388.165-.84-.066-1.227zM62.663 17.8c-1.484.742-3.265 1.064-4.881.29a4.963 4.963 0 0 1-2.573-2.937c-.495-1.517-.33-3.227.33-4.647a7.273 7.273 0 0 1 2.144-2.614c.593-.42 1.484-.936 2.309-1.033.66-.742 1.748-.968 2.671-.742 1.584.42 2.936 2 3.365 3.388.429 1.356.528 2.84.132 4.228-.495 1.872-1.748 3.227-3.497 4.066zm2.276-7.94c-.395-1.065-1.286-2.259-2.44-2.646-.528-.194-1.089-.258-1.518.064-.429.323-.693.84-.89 1.291-.034.097-.034.226-.034.355 0 .13 0 .29-.032.42-.033.064-.363.258-.462.064a5.28 5.28 0 0 1-.1-1.323c-1.253.517-2.308 1.582-2.902 2.776-.627 1.258-.66 2.71-.264 4.002.33 1 .957 1.839 2.012 2.259 1.32.484 2.738.322 3.926-.259 1.352-.677 2.309-1.71 2.77-3.098.43-1.226.363-2.679-.066-3.905zM77.235 23.447c-.857.097-1.649-.129-2.243-.71l-.099-.129-.099-.161a.382.382 0 0 1 0-.42c.33-.065.528.097.76.258.065.065.131.097.197.097.594.29 1.253.161 1.814-.032 1.683-.581 4.057-1.775 5.047-3.13.099-.453-.066-.807-.297-1.13-.297-.452-.693-.872-.758-1.42l-1.55.742a6.93 6.93 0 0 1-1.815.549c-.792.097-1.616 0-2.342-.517-.495-.355-.693-.839-.825-1.323-.99.742-2.012 1.582-3.2 2.001a4.143 4.143 0 0 1-2.011.161c-.891-.355-1.254-1.097-1.452-1.871-.297-1.324-.297-3.55-.198-4.841a25.215 25.215 0 0 1 1.089-5.519c.264-.387.692-.065.857.161-.099 1.227-.395 2.324-.593 3.486-.396 2.227-.363 4.421-.066 6.648.066.355.33.71.66.871.89.226 1.748-.161 2.54-.548.758-.517 1.55-1.065 2.242-1.678-.066-2.615.1-5.164.66-7.552.132-.194.495-.226.627-.13.264.323.363.678.297 1.066-.33 2.42-.693 5.067-.33 7.584.066.548.66.903 1.154 1.065 1.55-.032 2.87-.581 4.123-1.291-.362-3.292.033-6.616.792-9.585.231-.323.56-.162.759 0 .23.258.198.71.165 1.033-.627 2.969-1.089 6.131-.462 9.262 0 .258.099.516.264.742.462.84 1.32 1.581.594 2.646-1.749 1.808-3.959 2.97-6.3 3.615zM90.307 18.574c-1.65-.065-3.167-.807-4.124-2.195-.791-1.162-.99-2.517-.824-3.84a8.424 8.424 0 0 1 1.682-4.002c.957-1.226 2.31-2.195 3.86-2.485 1.055-.194 2.177-.097 2.968.742.363.388.693.807.693 1.323.033.55-.231 1.033-.693 1.388-2.309 1.872-4.75 3.615-7.257 5.035.066 1 .957 2.033 1.913 2.55.957.516 2.079.58 3.134.451 1.056-.097 2.144-.452 2.903-.807.132-.097.23 0 .264.097.033.065.099.194-.033.29-1.155 1.033-2.804 1.517-4.486 1.453zm1.451-11.522c-.956 0-1.913.388-2.672.969-1.616 1.29-2.573 3.356-2.573 5.357 2.342-1.259 4.552-2.905 6.696-4.615.165-.13.297-.613.066-1-.264-.517-.857-.71-1.517-.71zM103.767 1.47c-.066-.162-.165-.356-.23-.517-.033-.226.131-.29.23-.29.132 0 .264.064.363.096.297.226.528.581.693.936.132.323.099.775-.099 1.033-.231.29-.495.58-.825.774-.494.29-1.088.517-1.616.678-.561.162-1.781.194-2.342.032-.759-.193-1.22-.548-1.451-1.065-.165-.387-.231-.839-.165-1.323.033-.42.165-.839.363-1.162a.287.287 0 0 1 .23-.129c.066-.032.132-.032.231-.064.165.129.363.258.363.484 0 .226-.033.484-.066.742-.066.29-.099.549 0 .742 0 .452.297.678.726.807.561.162 1.352.097 2.045-.097.528-.161 1.023-.387 1.352-.677.198-.162.297-.323.297-.484.033-.162-.033-.323-.099-.517zm2.837 17.072c-.693-.775-.89-1.808-1.055-2.808-.33-2.324-.264-4.809-.33-7.23-2.012 2.809-3.596 5.649-5.509 8.844-.198.225-.297.387-.627.516-.296 0-.56-.032-.791-.355-1.584-2.872-1.88-6.39-1.65-9.876 0-.226.067-.613.33-.71.43-.129.759.226.759.484-.198 3.228.165 6.294 1.254 9.07 1.154-1.937 2.078-3.55 3.067-5.132a60.717 60.717 0 0 1 3.497-5.035c.264-.193.626-.064.758.194.099 3.098.066 6.132.33 9.1.066.969.297 1.905.363 2.809 0 .129-.297.258-.396.129z" fill="#262626"/></svg>