<svg width="83" height="14" fill="none" xmlns="http://www.w3.org/2000/svg"><path d="M10.092 13.128c-.697-.768-.896-1.792-1.062-2.784-.332-2.305-.265-4.77-.332-7.17-2.024 2.785-3.617 5.602-5.542 8.77-.199.224-.299.384-.63.512-.3 0-.565-.032-.797-.352C.136 9.256-.163 5.767.069 2.31c0-.224.067-.608.333-.704.431-.128.763.224.763.48-.2 3.2.166 6.241 1.261 8.994 1.162-1.92 2.09-3.52 3.086-5.09A60.222 60.222 0 0 1 9.03.999c.266-.192.63-.064.764.192.1 3.073.066 6.081.331 9.026.067.96.3 1.888.366 2.784 0 .128-.3.256-.399.128zM17.987 12.232c-1.261.608-2.655.96-4.148 1.12-.432.064-1.096.096-1.494-.256-.431-.288-.365-.928-.265-1.248.066-.16.431-.288.53-.064 0 .032.034.096.034.16.066.16.166.352.365.416 1.493-.064 2.887-.352 4.148-.96 1.328-.608 2.157-1.248 3.087-2.4.265-.32.332-.705.166-.993-.2-.448-.697-.896-1.162-1.12-.564-.256-1.261-.352-2.024-.384-.664 0-1.394.032-2.124.064-.2 0-.365-.192-.399-.352a.491.491 0 0 1 .166-.48l.332-.224c.432-.128.896-.128 1.294-.096.432.032.83.096 1.228.064.399 0 .83-.16 1.129-.544l.63-.64c.166-.224.266-.449.166-.705-.63-.768-1.394-1.184-2.256-1.504-.996-.352-2.125-.48-3.286-.576-.232-.128-.299-.544-.1-.736.366-.288.797-.32 1.195-.288.896.064 2.09.32 2.854.64 1.095.448 2.025 1.088 2.655 2.112.299.64 0 1.313-.431 1.729-.332.352-.73.608-1.129.864.697.288 1.627.704 2.091 1.344.564.704.498 1.569.1 2.273-.598 1.152-2.19 2.208-3.352 2.784zM48.566 13.16c-.233-.032-.366-.16-.465-.32l-.1-.16c-1.228-2.56-1.759-5.44-1.792-8.481a49.337 49.337 0 0 1-1.36 3.008c-.565 1.12-1.195 2.209-2.091 3.233-.399.48-1.162.544-1.76.416-.497-.224-.829-.768-1.061-1.216-1.261-2.337-1.859-4.961-2.49-7.522 0-.032-.032-.064-.066-.032C35.324 5 34.13 8.263 33.3 11.72c-.132.32.166.608.2.928.066.192-.067.384-.332.48-.365.032-.664-.256-.83-.512-.232-.544-.2-1.152-.033-1.696 1.095-3.457 2.223-6.881 4.546-9.89.3-.192.598-.192.863-.128.332 0 .63.32.664.544.73 2.753 1.328 5.57 2.755 8.066.199.256.464.416.763.32.763-.704 1.261-1.569 1.759-2.433.995-1.76 1.692-3.617 2.456-5.537l.166-.224c.1-.096.165-.16.331-.16.332-.096.565.128.697.352-.066 1.984-.033 3.84.2 5.665.232 1.825.663 3.617 1.36 5.345.033.224-.199.32-.298.32zM58.656 2.342c.199 3.233.1 6.69-.266 9.89-.066.128-.133.32-.199.544-.1.192-.166.384-.332.576-.066.128-.498.192-.597-.032.066-.736.431-4.609.332-6.273-2.423 1.344-4.68 3.713-6.372 5.921-.166.16-.564.16-.63-.16 0-.576.232-1.024.563-1.472.332-.416.73-.8 1.03-1.248.829-.96 1.791-1.76 2.787-2.529-.797.064-1.626 0-2.423-.352-.896-.384-1.493-1.12-1.626-2.08-.1-.576 0-1.184.299-1.633.597-.896 1.394-1.664 2.29-2.176C54.574.71 55.735.39 57.029.486c.697.224 1.494.448 1.826 1.152.066.224.066.512-.2.704zM57.56 3.718c0-.704-.033-1.376-.132-2.016-.598-.224-1.095-.288-1.76-.096-.696.192-1.526.512-2.19.992-.796.576-1.393 1.313-1.427 2.273.067.416.233.832.598 1.152.464.288 1.062.448 1.593.48 1.195.096 2.422-.256 3.352-.704-.034-.672-.034-1.376-.034-2.08zM66.93 13.032c-1.262.16-2.589.064-3.85-.672-1.66-.96-2.39-2.624-2.29-4.48.1-1.441.564-2.785 1.394-4.002a8.264 8.264 0 0 1 3.385-2.848c.73-.352 1.726-.512 2.522-.192.664.256 1.36.928 1.494 1.568.066.192-.266.608-.531.416-.365-.32-.83-.736-1.295-.928-.464-.192-.896-.224-1.394-.032-1.294.512-2.489 1.504-3.285 2.689a6.956 6.956 0 0 0-1.195 3.68c0 1.185.465 2.305 1.494 3.041.962.672 2.223.832 3.385.736 1.958-.16 3.684-.96 5.41-1.696.198 0 .497.32.331.544-1.66.896-3.55 1.888-5.575 2.176zM80.001 13.032c-1.825.48-3.949.448-5.376-.736-.664-.544-1.161-1.344-1.195-2.208-.033-.768.3-1.473.764-2.113 1.029-1.408 2.82-2.368 4.546-2.56.73-.064 1.394.032 1.925.544.166.16 0 .48-.166.544h-.298c-.1 0-.233-.032-.332-.032-.233-.032-.432-.064-.564.032-1.593.064-3.153.8-4.116 2.048-.431.545-.663.96-.597 1.633.066.896.763 1.568 1.726 1.888 1.36.48 3.053.192 4.347-.256.697-.256 1.328-.512 1.925-.928.133-.096.266 0 .332.16.033.128.033.256.033.352-.465.864-2.323 1.472-2.954 1.632zm1.859-2.176c-.166.192-.465.16-.597.064-.332-.224-.332-.64-.332-.96a10.16 10.16 0 0 1 .265-1.665l.432-1.76c.265-1.152.431-2.304.066-3.265-.299-.832-1.029-1.664-1.925-1.76-.763-.096-1.526.16-2.157.608-.332.224-1.062.832-1.261 1.184-.033.128.033.352.166.48.133.129.033.513-.266.449-.232-.064-.498-.128-.697-.288-.265-.225-.365-.64-.166-.96.565-.929 1.361-1.697 2.39-2.145.664-.32 1.46-.448 2.29-.32.996.16 1.858.864 2.356 1.76.763 1.376.664 3.105.299 4.641-.332 1.312-.664 2.529-.863 3.937z" fill="#262626"/></svg>