<svg width="87" height="31" fill="none" xmlns="http://www.w3.org/2000/svg"><path d="M10.03 22.687c-.692-.796-.89-1.856-1.055-2.884-.33-2.386-.264-4.938-.33-7.424-2.012 2.883-3.595 5.8-5.508 9.082-.198.232-.297.397-.627.53-.297 0-.56-.033-.792-.365C.135 18.676-.162 15.064.07 11.484c0-.232.066-.63.33-.73.429-.132.759.233.759.498-.198 3.314.165 6.463 1.253 9.314 1.155-1.99 2.078-3.646 3.068-5.27a62.446 62.446 0 0 1 3.496-5.171c.264-.199.627-.066.759.199.099 3.182.066 6.297.33 9.347.066.994.296 1.955.362 2.883 0 .133-.296.265-.396.133zM17.877 21.759c-1.253.63-2.639.994-4.123 1.16-.429.066-1.089.1-1.484-.265-.43-.299-.363-.962-.264-1.293.066-.166.428-.298.527-.066 0 .033.034.1.034.165.065.166.164.365.362.431 1.485-.066 2.87-.364 4.123-.994 1.32-.63 2.144-1.293 3.068-2.486.264-.331.33-.729.165-1.027-.198-.464-.693-.928-1.155-1.16-.56-.265-1.253-.365-2.012-.398-.66 0-1.385.033-2.11.066-.199 0-.363-.199-.396-.364a.52.52 0 0 1 .164-.498l.33-.232c.429-.132.89-.132 1.287-.099.428.033.824.1 1.22.066.396 0 .825-.165 1.122-.563l.626-.663c.165-.232.264-.464.165-.73-.627-.795-1.385-1.226-2.243-1.557-.99-.365-2.11-.497-3.265-.597-.231-.132-.297-.563-.1-.762.364-.298.792-.331 1.188-.298.89.066 2.078.331 2.837.663 1.088.464 2.012 1.127 2.639 2.187.296.663 0 1.36-.43 1.79-.329.365-.725.63-1.12.895.692.298 1.616.729 2.077 1.392.561.73.495 1.624.1 2.353-.594 1.193-2.178 2.287-3.332 2.884zM33.888 11.285h-.165a.273.273 0 0 1-.264-.232c-.033-.265.066-.497.264-.696a2.416 2.416 0 0 1 1.78-.63c.462.033.924.1 1.386.265l1.253.431c1.782.597 3.332 2.188 4.19 3.911.461.962.626 1.956.395 3.05-.23.994-.824 1.922-1.616 2.684-1.979 1.89-4.453 2.453-7.19 2.453-.033 2.254-.166 4.773.131 6.994 0 .1.066.232.132.331.033.166.1.298-.033.497-.264.2-.527.133-.758 0-.33-.364-.462-.762-.495-1.226-.23-2.353-.132-4.64 0-7.027-.297-.265-.759-.63-.858-1.027 0-.133.033-.265.1-.332.098-.165.23-.199.296-.132.1.1.297.232.462.331.198-3.314.429-6.463.99-9.645zm6.53 2.155c-.725-.895-1.748-1.525-2.737-1.956-.561-.265-2.144-.862-2.738-.597.033.464-.033 1.293-.099 1.658-.462 2.817-.759 5.833-.792 8.816 2.276.166 4.453-.53 6.202-2.055.956-.829 1.517-1.989 1.418-3.182-.066-.994-.693-1.988-1.254-2.684zM49.83 21.03a6.701 6.701 0 0 1-2.935 1.491c-.825.199-1.98.298-2.672-.398-.198-.165-.495-.696-.198-.994.231.166.396.298.594.398.132.1.264.165.429.165-.033-2.287.099-6.695.165-8.915.033-.53-.033-1.094 0-1.624.066-.53.165-1.061.593-1.459.297-.1.561-.166.726.166-.165.597-.165 1.657-.198 2.817 0 1.06 0 2.188-.033 2.983a3.858 3.858 0 0 1 1.748-.663c.759-.066 1.55.067 2.177.431.99.53 1.584 1.69 1.32 2.884-.198 1.027-.89 1.988-1.715 2.718zm.43-4.077c-.396-.63-1.09-.862-1.848-.862-.758.033-1.583.331-2.078.796l-.264 4.74c1.023-.233 2.078-.697 2.936-1.426.594-.497 1.154-1.094 1.385-1.856.165-.464.132-1.028-.132-1.392zm6.86 5.933c-.825-.232-.825-1.06-.923-1.724-.495-3.778-.198-7.424.296-11.17.297-.464.825-.066.957.2.033.762 0 1.49-.1 2.253-.065.73-.164 1.492-.164 2.254-.033 1.293-.099 2.618-.066 3.944 0 1.293.132 2.619.33 3.845.033.166-.165.398-.33.398zM70.33 2.469c-.726.265-1.518.43-2.244.696-1.32.43-2.21.994-3.133 2.021-.924.995-1.518 2.188-2.045 3.448-.528 1.292-.89 2.717-1.287 4.076 1.188-.828 2.573-1.558 4.024-1.79a5.387 5.387 0 0 1 3.827.763c1.187.762 1.979 2.088 2.309 3.48.33 1.491.197 2.884-.561 4.21a6.642 6.642 0 0 1-2.936 2.784c-1.055.53-2.44.696-3.694.497-1.451-.2-2.606-.862-3.463-2.022-.924-1.26-1.188-2.784-1.155-4.342.066-2.154.693-4.475 1.254-6.231.692-2.122 1.682-4.442 3.397-6.099.825-.795 1.814-1.425 2.87-1.79.725-.232 1.484-.397 2.243-.63.725-.231 1.418-.53 2.045-1.06.197-.033.527 0 .593.199.132.199.132.464 0 .63a5.526 5.526 0 0 1-2.045 1.16zm-.067 11.8a3.698 3.698 0 0 0-2.243-1.99c-.956-.331-2.177-.265-3.133.034-1.32.397-2.54 1.193-3.596 2.154-.296 1.458-.263 3.215.231 4.54.231.664.693 1.26 1.287 1.724.99.796 2.012.895 3.265.763 1.353-.133 2.573-.763 3.563-1.79.791-.796 1.121-1.591 1.154-2.751.033-.961-.165-1.923-.528-2.685zM79.368 21.03a6.7 6.7 0 0 1-2.935 1.491c-.825.199-1.98.298-2.672-.398-.198-.165-.495-.696-.198-.994.23.166.396.298.594.398.132.1.264.165.428.165-.032-2.287.1-6.695.165-8.915.033-.53-.032-1.094 0-1.624.066-.53.165-1.061.594-1.459.297-.1.56-.166.726.166-.165.597-.165 1.657-.198 2.817 0 1.06 0 2.188-.033 2.983a3.858 3.858 0 0 1 1.748-.663c.759-.066 1.55.067 2.177.431.99.53 1.583 1.69 1.32 2.884-.199 1.027-.891 1.988-1.716 2.718zm.429-4.077c-.396-.63-1.088-.862-1.847-.862-.759.033-1.583.331-2.078.796l-.264 4.74c1.022-.233 2.078-.697 2.936-1.426.593-.497 1.154-1.094 1.385-1.856.165-.464.132-1.028-.132-1.392zm6.86 5.933c-.824-.232-.824-1.06-.923-1.724-.494-3.778-.198-7.424.297-11.17.297-.464.825-.066.957.2a12.9 12.9 0 0 1-.1 2.253c-.065.73-.164 1.492-.164 2.254-.033 1.293-.1 2.618-.066 3.944 0 1.293.132 2.619.33 3.845.033.166-.165.398-.33.398z" fill="#262626"/></svg>