<svg width="486" height="46" viewBox="0 0 486 46" fill="none" xmlns="http://www.w3.org/2000/svg">
<path d="M18.441 2.61556C18.1237 1.73358 16.8763 1.73358 16.559 2.61556L12.929 12.7058C12.8303 12.9804 12.6165 13.1981 12.3438 13.3019L2.45554 17.0654C1.5965 17.3924 1.5965 18.6076 2.45555 18.9346L12.3438 22.6981C12.6165 22.8019 12.8303 23.0196 12.929 23.2942L16.559 33.3844C16.8763 34.2664 18.1237 34.2664 18.441 33.3844L22.071 23.2942C22.1697 23.0196 22.3835 22.8019 22.6562 22.6981L32.5445 18.9346C33.4035 18.6076 33.4035 17.3924 32.5445 17.0654L22.6562 13.3019C22.3835 13.1981 22.1697 12.9804 22.071 12.7058L18.441 2.61556Z" fill="#FFD700"/>
<path d="M69.4937 9.33518C68.8697 11.8312 68.5817 14.5192 68.2937 17.1592C68.0537 18.9832 67.9577 20.8072 67.9097 22.6792C67.8137 25.4152 67.8137 28.1512 67.7177 30.9352C67.5737 31.4152 67.1897 31.7032 66.7577 31.7032C66.1337 31.7032 65.8457 31.0792 65.7017 30.5512L65.5097 30.1672C64.3097 25.1752 62.8697 20.3272 61.0937 15.5752C60.2777 13.3192 59.5097 11.1112 58.6457 8.90318C57.7817 6.74318 56.8217 4.58318 55.6697 2.42318C55.6217 2.42318 55.5737 2.32718 55.5737 2.37518C54.2777 6.59918 53.3657 10.8712 52.9337 15.3832C52.5497 19.4632 52.5017 23.6392 52.6457 27.8632C52.7417 28.4392 52.7417 29.0632 52.8377 29.6872C52.8857 30.2632 52.9817 30.8392 53.1737 31.3672C53.2217 31.7032 52.9817 31.9432 52.6937 32.0392C51.8297 31.8472 51.6377 31.1272 51.4937 30.3592L51.3497 29.6872C50.9657 26.1832 50.9177 22.5832 51.1097 18.9832C51.3497 14.7112 51.9737 10.4392 52.8377 6.50318C53.3177 4.43918 53.9417 2.27918 54.7577 0.359178C54.9017 0.0231766 55.4777 -0.120822 55.8137 0.119178C56.1017 0.359178 56.2457 0.647177 56.4377 0.983178C57.6377 2.90318 58.5977 4.91918 59.4137 6.93518L61.8617 13.0792C63.6857 17.6872 65.1737 22.4392 66.4217 27.2872C66.4697 23.2072 66.5177 18.9352 66.9497 14.9032C67.2857 11.3992 68.0057 7.94318 69.4457 4.91918C69.5417 4.72718 69.6377 4.48718 69.7817 4.29518C70.1177 3.62318 70.5977 2.90318 71.5097 2.95118C72.0377 3.23918 71.8457 3.76718 71.6057 4.10318C70.5497 5.68718 69.9737 7.46318 69.4937 9.33518ZM81.4937 24.9832C80.3897 25.9912 79.0457 26.6632 77.3657 26.5192C75.9257 26.3752 74.6297 25.5592 73.9097 24.4552C72.6137 22.5352 72.3257 20.1352 72.7097 17.9272C72.9977 16.3432 73.7657 14.3272 74.7737 13.0792C75.1097 12.8392 75.3977 12.5032 75.8777 12.5512C76.2617 12.6952 76.3097 13.0792 76.1657 13.3192C75.2537 14.8552 74.3897 16.7752 74.1497 18.7432C73.9577 20.6152 74.1977 22.4872 75.3497 23.9752C76.0697 24.8872 77.3177 25.2232 78.5177 24.9832C80.9177 24.2152 82.1177 21.9592 82.5497 19.9432C82.9337 18.3112 82.8857 16.5352 82.5017 14.9032C82.2137 13.6072 81.5897 12.4072 80.5817 11.3992C80.1497 10.9672 79.2857 10.7752 78.6617 10.9192C77.9417 11.0632 77.3657 11.5912 76.9817 12.1672C76.7417 12.3592 76.4057 12.0712 76.4057 11.8792C76.4537 11.1592 77.1737 10.1512 77.9417 9.81518C78.9017 9.33518 80.3897 9.33518 81.3017 10.0552C82.8377 11.2552 83.4137 12.4552 83.8937 14.1352C84.4217 16.1032 84.4697 18.2152 84.0377 20.2792C83.6537 22.0552 82.7897 23.7352 81.4937 24.9832ZM75.7337 30.6472C75.4457 30.7432 74.6297 30.7912 74.2457 30.8872C73.8617 31.0792 73.2857 31.0312 72.8537 31.0312C72.6137 30.9352 72.4697 30.9832 72.2777 30.9352C72.1337 30.8872 71.9897 30.8392 71.8457 30.6472C71.7497 30.4552 71.7017 30.1672 71.7497 29.9272C71.7977 29.7352 71.8937 29.5432 72.0377 29.3992C72.3257 29.1112 72.5657 29.0152 72.8057 28.9672C73.1417 28.8712 73.3817 28.9192 73.6217 28.8712C74.1017 28.8712 75.0137 28.9192 75.4457 28.9672C75.7337 29.1112 76.0217 29.0632 76.3577 29.1592C76.6937 29.0152 79.4777 29.0632 79.9097 29.1592C80.9657 29.0632 82.2137 29.1592 83.0777 29.3992C83.3657 29.4952 84.0857 29.4952 84.3257 29.7832C84.2297 30.4552 82.6937 30.7912 82.0217 30.5992C81.6377 30.6952 80.7737 30.4552 80.1977 30.5992C79.7177 30.5032 78.6617 30.6952 78.2297 30.6472C77.4617 30.5992 76.2617 30.5512 75.7337 30.6472Z" fill="white"/>
<path d="M103.372 3.67118C103.18 3.81518 102.988 3.91118 102.844 4.10318C101.26 6.88718 100.78 10.1032 100.3 13.4152C99.8683 16.3912 99.6763 19.5592 99.8203 22.6792C99.9643 26.2312 100.54 29.6392 101.692 32.6632C101.932 33.0952 102.124 33.5272 102.316 34.0072C102.22 34.3432 101.74 34.3912 101.548 34.2472C100.06 33.4312 99.5803 31.8952 99.1963 30.3592C99.0523 29.6872 98.9083 29.0632 98.7163 28.4392C98.1883 25.3672 97.9963 22.1512 98.0923 18.9352C98.2363 14.7112 98.8603 10.4872 99.9163 6.69518C100.252 5.92718 100.492 5.06318 100.876 4.29518C101.308 3.52718 101.836 2.80718 102.748 2.42318C103.084 2.32718 103.708 2.56718 103.852 3.04718C103.804 3.38318 103.612 3.57518 103.372 3.67118Z" fill="white"/>
<path d="M145.09 19.6072C140.578 19.4152 136.066 20.1352 131.554 19.7992C130.69 19.7512 129.634 19.5112 129.01 18.7912C128.674 18.4072 129.058 17.5432 129.634 17.6392C131.698 17.8792 133.762 17.9752 135.826 17.9272C138.514 17.8792 141.346 17.6872 143.794 17.7832C144.274 17.7832 145.378 17.9752 145.714 18.5512C146.05 19.0312 145.618 19.6552 145.09 19.6072Z" fill="white"/>
<path d="M172.796 32.9512C171.356 33.9112 169.58 34.6792 167.804 34.6792C166.796 34.6792 166.076 34.2472 165.404 33.2872C165.164 33.4792 164.732 33.6232 164.54 33.3352C163.676 32.1352 163.436 30.4552 163.388 28.8232C163.292 24.6472 163.34 21.5752 164.444 17.8312C164.54 17.4472 165.452 16.7272 166.124 16.9192C166.412 16.1512 167.18 15.3352 168.092 15.2392C170.54 15.2392 173.18 16.5352 173.996 18.9832C174.236 19.7512 174.236 20.5672 173.948 21.3352C173.66 22.0552 173.18 22.6792 172.556 23.1592L172.268 23.3992C173.468 23.7832 174.812 24.5512 175.58 25.7512C176.156 26.6632 176.204 27.7672 175.964 28.8232C175.532 30.5512 174.284 31.9432 172.796 32.9512ZM174.14 26.5672C173.756 25.8472 172.7 25.4152 171.932 25.0312C171.02 24.4552 170.204 24.6952 169.292 24.8872L167.852 25.2232C167.324 25.3672 166.796 25.3672 166.22 25.2232C165.98 25.0792 165.692 24.5992 165.932 24.3592C166.508 23.7832 167.228 23.4952 168.044 23.3032L170.252 23.0632C171.116 22.5832 172.028 21.6232 172.412 20.7112C172.652 19.9432 172.508 19.4152 172.028 18.7912C171.164 17.5912 169.772 17.0632 168.38 16.9192C167.948 16.8712 167.804 16.9672 167.708 17.2552C167.564 17.6392 167.468 18.0712 167.228 18.4072C167.132 18.6472 166.796 18.7432 166.556 18.5992C166.364 18.5512 166.22 18.4552 166.124 18.3592C165.548 20.4232 165.212 22.7752 165.116 25.2232C165.02 27.5272 165.116 29.7832 165.452 31.8952C165.836 31.4632 166.316 30.8392 166.556 30.5032C166.892 30.1672 167.516 30.6952 167.42 31.0312C167.324 31.2712 167.132 31.5592 166.988 31.7992C166.892 32.0872 166.748 32.3272 166.748 32.5192C167.036 32.9512 167.708 33.0952 168.524 32.9992C169.724 32.8072 171.164 32.1352 172.22 31.3192C173.18 30.5512 173.996 29.5912 174.236 28.3912C174.38 27.8152 174.476 27.1432 174.14 26.5672Z" fill="white"/>
<path d="M187.416 34.0552C184.776 34.7752 181.704 34.7272 179.64 32.9512C178.68 32.1352 177.96 30.9352 177.912 29.6392C177.864 28.4872 178.344 27.4312 179.016 26.4712C180.504 24.3592 183.096 22.9192 185.592 22.6312C186.648 22.5352 187.608 22.6792 188.376 23.4472C188.616 23.6872 188.376 24.1672 188.136 24.2632H187.704C187.56 24.2632 187.368 24.2152 187.224 24.2152C186.888 24.1672 186.6 24.1192 186.408 24.2632C184.104 24.3592 181.848 25.4632 180.456 27.3352C179.832 28.1512 179.496 28.7752 179.592 29.7832C179.688 31.1272 180.696 32.1352 182.088 32.6152C184.056 33.3352 186.504 32.9032 188.376 32.2312C189.384 31.8472 190.296 31.4632 191.16 30.8392C191.352 30.6952 191.544 30.8392 191.64 31.0792C191.688 31.2712 191.688 31.4632 191.688 31.6072C191.016 32.9032 188.328 33.8152 187.416 34.0552ZM190.104 30.7912C189.864 31.0792 189.432 31.0312 189.24 30.8872C188.76 30.5512 188.76 29.9272 188.76 29.4472C188.808 28.6312 188.952 27.8152 189.144 26.9512L189.768 24.3112C190.152 22.5832 190.392 20.8552 189.864 19.4152C189.432 18.1672 188.376 16.9192 187.08 16.7752C185.976 16.6312 184.872 17.0152 183.96 17.6872C183.48 18.0232 182.424 18.9352 182.136 19.4632C182.088 19.6552 182.184 19.9912 182.376 20.1832C182.568 20.3752 182.424 20.9512 181.992 20.8552C181.656 20.7592 181.272 20.6632 180.984 20.4232C180.6 20.0872 180.456 19.4632 180.744 18.9832C181.56 17.5912 182.712 16.4392 184.2 15.7672C185.16 15.2872 186.312 15.0952 187.512 15.2872C188.952 15.5272 190.2 16.5832 190.92 17.9272C192.024 19.9912 191.88 22.5832 191.352 24.8872C190.872 26.8552 190.392 28.6792 190.104 30.7912Z" fill="white"/>
<path d="M215.496 33.9592C214.872 33.2872 214.44 32.4712 214.344 31.5112C212.376 32.5192 210.456 33.2872 208.2 33.3352C207.336 33.3352 206.424 33.2392 205.8 32.5672C205.224 31.9432 205.128 31.1752 204.984 30.4072C203.112 31.8952 201.144 33.2872 198.888 33.7672C197.64 34.0552 196.68 34.1032 195.864 32.9032C195.192 31.9432 194.904 29.4952 194.808 28.2952C194.52 24.0712 195.048 19.8952 196.056 16.1512C196.152 15.8152 196.44 15.3832 196.68 15.3832C197.016 15.3832 197.4 15.5752 197.544 15.9592C197.544 16.6792 197.448 17.3512 197.304 17.9752C197.112 18.6472 196.968 19.2712 196.872 19.9432C196.632 21.7192 196.344 23.5432 196.344 25.3672C196.344 27.5752 196.536 29.7352 197.112 31.7992C197.352 32.4232 198.12 32.4232 198.744 32.2312C200.952 31.6552 202.92 30.3112 204.696 28.6792C204.456 25.0792 204.504 20.9032 205.464 17.7352C205.56 17.5432 205.896 17.4472 206.232 17.5432C206.424 17.6392 206.76 17.8312 206.76 18.1192C206.472 20.5192 206.136 23.1112 206.184 25.6072C206.184 27.5272 206.424 29.4472 206.904 31.1752C207 31.6072 207.576 31.7992 208.152 31.7992C210.072 31.7032 212.568 31.0312 214.2 30.0232C213.672 25.2712 214.056 20.2792 214.968 15.8152C215.304 15.4792 215.832 15.4792 216.072 15.8152C216.408 16.1512 216.312 16.6792 216.264 17.1112V17.4952C215.448 23.1112 215.4 28.2952 216.312 33.9112C216.168 34.2472 215.784 34.1512 215.496 33.9592Z" fill="white"/>
<path d="M234.194 34.1992C233.186 33.0472 232.898 31.5112 232.658 30.0232C232.178 26.5672 232.274 22.8712 232.178 19.2712C229.25 23.4472 226.946 27.6712 224.162 32.4232C223.874 32.7592 223.73 32.9992 223.25 33.1912C222.818 33.1912 222.434 33.1432 222.098 32.6632C219.794 28.3912 219.362 23.1592 219.698 17.9752C219.698 17.6392 219.794 17.0632 220.178 16.9192C220.802 16.7272 221.282 17.2552 221.282 17.6392C220.994 22.4392 221.522 26.9992 223.106 31.1272C224.786 28.2472 226.13 25.8472 227.57 23.4952C229.058 21.0472 230.642 18.6952 232.658 16.0072C233.042 15.7192 233.57 15.9112 233.762 16.2952C233.906 20.9032 233.858 25.4152 234.242 29.8312C234.338 31.2712 234.674 32.6632 234.77 34.0072C234.77 34.1992 234.338 34.3912 234.194 34.1992Z" fill="white"/>
<path d="M265.787 34.1992C264.779 33.0472 264.491 31.5112 264.251 30.0232C263.771 26.5672 263.867 22.8712 263.771 19.2712C260.843 23.4472 258.539 27.6712 255.755 32.4232C255.467 32.7592 255.323 32.9992 254.843 33.1912C254.411 33.1912 254.027 33.1432 253.691 32.6632C251.387 28.3912 250.955 23.1592 251.291 17.9752C251.291 17.6392 251.387 17.0632 251.771 16.9192C252.395 16.7272 252.875 17.2552 252.875 17.6392C252.587 22.4392 253.115 26.9992 254.699 31.1272C256.379 28.2472 257.723 25.8472 259.163 23.4952C260.651 21.0472 262.235 18.6952 264.251 16.0072C264.635 15.7192 265.163 15.9112 265.355 16.2952C265.499 20.9032 265.451 25.4152 265.835 29.8312C265.931 31.2712 266.267 32.6632 266.363 34.0072C266.363 34.1992 265.931 34.3912 265.787 34.1992Z" fill="white"/>
<path d="M292.23 34.2472C291.894 34.1992 291.702 34.0072 291.558 33.7672L291.414 33.5272C289.638 29.6872 288.87 25.3672 288.822 20.8072C288.198 22.3432 287.574 23.8312 286.854 25.3192C286.038 26.9992 285.126 28.6312 283.83 30.1672C283.254 30.8872 282.15 30.9832 281.286 30.7912C280.566 30.4552 280.086 29.6392 279.75 28.9672C277.926 25.4632 277.062 21.5272 276.15 17.6872C276.15 17.6392 276.102 17.5912 276.054 17.6392C273.078 22.0072 271.35 26.9032 270.15 32.0872C269.958 32.5672 270.39 32.9992 270.438 33.4792C270.534 33.7672 270.342 34.0552 269.958 34.1992C269.43 34.2472 268.998 33.8152 268.758 33.4312C268.422 32.6152 268.47 31.7032 268.71 30.8872C270.294 25.7032 271.926 20.5672 275.286 16.0552C275.718 15.7672 276.15 15.7672 276.534 15.8632C277.014 15.8632 277.446 16.3432 277.494 16.6792C278.55 20.8072 279.414 25.0312 281.478 28.7752C281.766 29.1592 282.15 29.3992 282.582 29.2552C283.686 28.1992 284.406 26.9032 285.126 25.6072C286.566 22.9672 287.574 20.1832 288.678 17.3032L288.918 16.9672C289.062 16.8232 289.158 16.7272 289.398 16.7272C289.878 16.5832 290.214 16.9192 290.406 17.2552C290.31 20.2312 290.358 23.0152 290.694 25.7512C291.03 28.4872 291.654 31.1752 292.662 33.7672C292.71 34.1032 292.374 34.2472 292.23 34.2472Z" fill="white"/>
<path d="M306.824 18.0232C307.112 22.8712 306.968 28.0552 306.44 32.8552C306.344 33.0472 306.248 33.3352 306.152 33.6712C306.008 33.9592 305.912 34.2472 305.672 34.5352C305.576 34.7272 304.952 34.8232 304.808 34.4872C304.904 33.3832 305.432 27.5752 305.288 25.0792C301.784 27.0952 298.52 30.6472 296.072 33.9592C295.832 34.1992 295.256 34.1992 295.16 33.7192C295.16 32.8552 295.496 32.1832 295.976 31.5112C296.456 30.8872 297.032 30.3112 297.464 29.6392C298.664 28.1992 300.056 26.9992 301.496 25.8472C300.344 25.9432 299.144 25.8472 297.992 25.3192C296.696 24.7432 295.832 23.6392 295.64 22.1992C295.496 21.3352 295.64 20.4232 296.072 19.7512C296.936 18.4072 298.088 17.2552 299.384 16.4872C300.92 15.5752 302.6 15.0952 304.472 15.2392C305.48 15.5752 306.632 15.9112 307.112 16.9672C307.208 17.3032 307.208 17.7352 306.824 18.0232ZM305.24 20.0872C305.24 19.0312 305.192 18.0232 305.048 17.0632C304.184 16.7272 303.464 16.6312 302.504 16.9192C301.496 17.2072 300.296 17.6872 299.336 18.4072C298.184 19.2712 297.32 20.3752 297.272 21.8152C297.368 22.4392 297.608 23.0632 298.136 23.5432C298.808 23.9752 299.672 24.2152 300.44 24.2632C302.168 24.4072 303.944 23.8792 305.288 23.2072C305.24 22.1992 305.24 21.1432 305.24 20.0872Z" fill="white"/>
<path d="M338.678 34.1992C337.67 33.0472 337.382 31.5112 337.142 30.0232C336.662 26.5672 336.758 22.8712 336.662 19.2712C333.734 23.4472 331.43 27.6712 328.646 32.4232C328.358 32.7592 328.214 32.9992 327.734 33.1912C327.302 33.1912 326.918 33.1432 326.582 32.6632C324.278 28.3912 323.846 23.1592 324.182 17.9752C324.182 17.6392 324.278 17.0632 324.662 16.9192C325.286 16.7272 325.766 17.2552 325.766 17.6392C325.478 22.4392 326.006 26.9992 327.59 31.1272C329.27 28.2472 330.614 25.8472 332.054 23.4952C333.542 21.0472 335.126 18.6952 337.142 16.0072C337.526 15.7192 338.054 15.9112 338.246 16.2952C338.39 20.9032 338.342 25.4152 338.726 29.8312C338.822 31.2712 339.158 32.6632 339.254 34.0072C339.254 34.1992 338.822 34.3912 338.678 34.1992Z" fill="white"/>
<path d="M373.44 29.6872C371.568 32.2312 368.688 33.6712 365.76 34.1512C365.808 37.7512 366.048 41.4952 366.432 45.1432C366.432 45.7192 365.136 45.6712 365.04 45.1432C364.512 41.6872 364.176 37.9432 363.984 34.3432C361.824 34.1512 359.472 33.2872 357.744 31.8472C356.304 30.5992 355.344 29.1592 355.056 27.2872C354.816 25.6072 355.248 23.9272 356.112 22.5352C357.792 19.7032 361.056 17.8792 364.08 17.0632C364.368 13.5592 364.656 10.0552 365.088 6.55118C365.328 5.92718 366.48 6.26318 366.576 6.88718C366.432 9.81518 366.144 12.8392 365.904 15.7192C368.736 15.6712 371.28 17.1112 373.008 19.2712C374.208 20.7112 374.88 22.2472 375.024 24.2152C375.12 26.0872 374.592 28.1032 373.44 29.6872ZM369.456 18.2632C368.304 17.6392 367.104 17.1112 365.856 17.2552C365.52 22.2472 365.52 27.5272 365.664 32.5672C368.208 32.0392 370.608 30.7432 372.192 28.5352C373.2 27.0952 373.536 24.9352 373.104 23.1112C372.672 21.1432 371.136 19.1752 369.456 18.2632ZM357.264 23.6392C356.544 24.8872 356.304 26.2792 356.88 27.7672C357.312 28.9672 358.08 30.0232 359.136 30.7912C360.528 31.8472 362.256 32.4712 363.888 32.6632C363.792 28.0072 363.888 23.4472 363.984 18.8392C361.488 19.6072 358.56 21.3832 357.264 23.6392Z" fill="white"/>
<path d="M386.494 34.0552C383.854 34.7752 380.782 34.7272 378.718 32.9512C377.758 32.1352 377.038 30.9352 376.99 29.6392C376.942 28.4872 377.422 27.4312 378.094 26.4712C379.582 24.3592 382.174 22.9192 384.67 22.6312C385.726 22.5352 386.686 22.6792 387.454 23.4472C387.694 23.6872 387.454 24.1672 387.214 24.2632H386.782C386.638 24.2632 386.446 24.2152 386.302 24.2152C385.966 24.1672 385.678 24.1192 385.486 24.2632C383.182 24.3592 380.926 25.4632 379.534 27.3352C378.91 28.1512 378.574 28.7752 378.67 29.7832C378.766 31.1272 379.774 32.1352 381.166 32.6152C383.134 33.3352 385.582 32.9032 387.454 32.2312C388.462 31.8472 389.374 31.4632 390.238 30.8392C390.43 30.6952 390.622 30.8392 390.718 31.0792C390.766 31.2712 390.766 31.4632 390.766 31.6072C390.094 32.9032 387.406 33.8152 386.494 34.0552ZM389.182 30.7912C388.942 31.0792 388.51 31.0312 388.318 30.8872C387.838 30.5512 387.838 29.9272 387.838 29.4472C387.886 28.6312 388.03 27.8152 388.222 26.9512L388.846 24.3112C389.23 22.5832 389.47 20.8552 388.942 19.4152C388.51 18.1672 387.454 16.9192 386.158 16.7752C385.054 16.6312 383.95 17.0152 383.038 17.6872C382.558 18.0232 381.502 18.9352 381.214 19.4632C381.166 19.6552 381.262 19.9912 381.454 20.1832C381.646 20.3752 381.502 20.9512 381.07 20.8552C380.734 20.7592 380.35 20.6632 380.062 20.4232C379.678 20.0872 379.534 19.4632 379.822 18.9832C380.638 17.5912 381.79 16.4392 383.278 15.7672C384.238 15.2872 385.39 15.0952 386.59 15.2872C388.03 15.5272 389.278 16.5832 389.998 17.9272C391.102 19.9912 390.958 22.5832 390.43 24.8872C389.95 26.8552 389.47 28.6792 389.182 30.7912Z" fill="white"/>
<path d="M416.542 34.2472C416.206 34.1992 416.014 34.0072 415.87 33.7672L415.726 33.5272C413.95 29.6872 413.182 25.3672 413.134 20.8072C412.51 22.3432 411.886 23.8312 411.166 25.3192C410.35 26.9992 409.438 28.6312 408.142 30.1672C407.566 30.8872 406.462 30.9832 405.598 30.7912C404.878 30.4552 404.398 29.6392 404.062 28.9672C402.238 25.4632 401.374 21.5272 400.462 17.6872C400.462 17.6392 400.414 17.5912 400.366 17.6392C397.39 22.0072 395.662 26.9032 394.462 32.0872C394.27 32.5672 394.702 32.9992 394.75 33.4792C394.846 33.7672 394.654 34.0552 394.27 34.1992C393.742 34.2472 393.31 33.8152 393.07 33.4312C392.734 32.6152 392.782 31.7032 393.022 30.8872C394.606 25.7032 396.238 20.5672 399.598 16.0552C400.03 15.7672 400.462 15.7672 400.846 15.8632C401.326 15.8632 401.758 16.3432 401.806 16.6792C402.862 20.8072 403.726 25.0312 405.79 28.7752C406.078 29.1592 406.462 29.3992 406.894 29.2552C407.998 28.1992 408.718 26.9032 409.438 25.6072C410.878 22.9672 411.886 20.1832 412.99 17.3032L413.23 16.9672C413.374 16.8232 413.47 16.7272 413.71 16.7272C414.19 16.5832 414.526 16.9192 414.718 17.2552C414.622 20.2312 414.67 23.0152 415.006 25.7512C415.342 28.4872 415.966 31.1752 416.974 33.7672C417.022 34.1032 416.686 34.2472 416.542 34.2472Z" fill="white"/>
<path d="M434.256 34.1992C433.248 33.0472 432.96 31.5112 432.72 30.0232C432.24 26.5672 432.336 22.8712 432.24 19.2712C429.312 23.4472 427.008 27.6712 424.224 32.4232C423.936 32.7592 423.792 32.9992 423.312 33.1912C422.88 33.1912 422.496 33.1432 422.16 32.6632C419.856 28.3912 419.424 23.1592 419.76 17.9752C419.76 17.6392 419.856 17.0632 420.24 16.9192C420.864 16.7272 421.344 17.2552 421.344 17.6392C421.056 22.4392 421.584 26.9992 423.168 31.1272C424.848 28.2472 426.192 25.8472 427.632 23.4952C429.12 21.0472 430.704 18.6952 432.72 16.0072C433.104 15.7192 433.632 15.9112 433.824 16.2952C433.968 20.9032 433.92 25.4152 434.304 29.8312C434.4 31.2712 434.736 32.6632 434.832 34.0072C434.832 34.1992 434.4 34.3912 434.256 34.1992Z" fill="white"/>
<path d="M452.923 33.6232C452.299 33.6712 451.867 32.9992 451.579 32.5192C450.523 30.6472 449.659 28.6792 449.035 26.6152C448.219 24.0712 447.787 21.4792 447.595 18.6952C446.155 20.9032 443.755 24.9352 442.267 27.0952C440.731 29.3992 439.195 31.8472 437.947 34.1512C437.803 34.4872 437.275 34.2472 437.083 33.9592C436.843 33.5272 436.939 32.9512 437.035 32.5192C437.323 32.0872 437.851 30.9832 438.139 30.3592C441.259 25.6072 444.523 20.7592 447.403 16.0072C447.739 15.6712 448.891 15.4792 448.987 16.3912C449.227 19.3192 449.659 22.2472 450.331 25.0312C451.003 27.8152 452.011 30.4072 453.307 32.9032C453.355 33.0472 453.307 33.5752 452.923 33.6232Z" fill="white"/>
<path d="M470.256 34.1992C469.248 33.0472 468.96 31.5112 468.72 30.0232C468.24 26.5672 468.336 22.8712 468.24 19.2712C465.312 23.4472 463.008 27.6712 460.224 32.4232C459.936 32.7592 459.792 32.9992 459.312 33.1912C458.88 33.1912 458.496 33.1432 458.16 32.6632C455.856 28.3912 455.424 23.1592 455.76 17.9752C455.76 17.6392 455.856 17.0632 456.24 16.9192C456.864 16.7272 457.344 17.2552 457.344 17.6392C457.056 22.4392 457.584 26.9992 459.168 31.1272C460.848 28.2472 462.192 25.8472 463.632 23.4952C465.12 21.0472 466.704 18.6952 468.72 16.0072C469.104 15.7192 469.632 15.9112 469.824 16.2952C469.968 20.9032 469.92 25.4152 470.304 29.8312C470.4 31.2712 470.736 32.6632 470.832 34.0072C470.832 34.1992 470.4 34.3912 470.256 34.1992Z" fill="white"/>
<path d="M485.371 18.0232C485.659 22.8712 485.515 28.0552 484.987 32.8552C484.891 33.0472 484.795 33.3352 484.699 33.6712C484.555 33.9592 484.459 34.2472 484.219 34.5352C484.123 34.7272 483.499 34.8232 483.355 34.4872C483.451 33.3832 483.979 27.5752 483.835 25.0792C480.331 27.0952 477.067 30.6472 474.619 33.9592C474.379 34.1992 473.803 34.1992 473.707 33.7192C473.707 32.8552 474.043 32.1832 474.523 31.5112C475.003 30.8872 475.579 30.3112 476.011 29.6392C477.211 28.1992 478.603 26.9992 480.043 25.8472C478.891 25.9432 477.691 25.8472 476.539 25.3192C475.243 24.7432 474.379 23.6392 474.187 22.1992C474.043 21.3352 474.187 20.4232 474.619 19.7512C475.483 18.4072 476.635 17.2552 477.931 16.4872C479.467 15.5752 481.147 15.0952 483.019 15.2392C484.027 15.5752 485.179 15.9112 485.659 16.9672C485.755 17.3032 485.755 17.7352 485.371 18.0232ZM483.787 20.0872C483.787 19.0312 483.739 18.0232 483.595 17.0632C482.731 16.7272 482.011 16.6312 481.051 16.9192C480.043 17.2072 478.843 17.6872 477.883 18.4072C476.731 19.2712 475.867 20.3752 475.819 21.8152C475.915 22.4392 476.155 23.0632 476.683 23.5432C477.355 23.9752 478.219 24.2152 478.987 24.2632C480.715 24.4072 482.491 23.8792 483.835 23.2072C483.787 22.1992 483.787 21.1432 483.787 20.0872Z" fill="white"/>
</svg>
