<svg width="486" height="46" fill="none" xmlns="http://www.w3.org/2000/svg"><path d="M18.441 2.616c-.317-.882-1.565-.882-1.882 0l-3.63 10.09a1 1 0 0 1-.585.596l-9.888 3.763c-.86.327-.86 1.543 0 1.87l9.888 3.763a1 1 0 0 1 .585.596l3.63 10.09c.317.882 1.565.882 1.882 0l3.63-10.09a1 1 0 0 1 .585-.596l9.889-3.763c.858-.327.858-1.543 0-1.87l-9.889-3.763a1 1 0 0 1-.585-.596l-3.63-10.09z" fill="gold"/><path d="M69.494 9.335c-.624 2.496-.912 5.184-1.2 7.824-.24 1.824-.336 3.648-.384 5.52-.096 2.736-.096 5.472-.192 8.256-.144.48-.528.768-.96.768-.624 0-.912-.624-1.056-1.152l-.192-.384c-1.2-4.992-2.64-9.84-4.416-14.592-.816-2.256-1.584-4.464-2.448-6.672-.864-2.16-1.824-4.32-2.976-6.48-.048 0-.096-.096-.096-.048-1.296 4.224-2.208 8.496-2.64 13.008-.384 4.08-.432 8.256-.288 12.48.096.576.096 1.2.192 1.824.048.576.144 1.152.336 1.68.048.336-.192.576-.48.672-.864-.192-1.056-.912-1.2-1.68l-.144-.672c-.384-3.504-.432-7.104-.24-10.704.24-4.272.864-8.544 1.728-12.48.48-2.064 1.104-4.224 1.92-6.144.144-.336.72-.48 1.056-.24.288.24.432.528.624.864 1.2 1.92 2.16 3.936 2.976 5.952l2.448 6.144c1.824 4.608 3.312 9.36 4.56 14.208.048-4.08.096-8.352.528-12.384.336-3.504 1.056-6.96 2.496-9.984.096-.192.192-.432.336-.624.336-.672.816-1.392 1.728-1.344.528.288.336.816.096 1.152-1.056 1.584-1.632 3.36-2.112 5.232zm12 15.648c-1.104 1.008-2.448 1.68-4.128 1.536-1.44-.144-2.736-.96-3.456-2.064-1.296-1.92-1.584-4.32-1.2-6.528.288-1.584 1.056-3.6 2.064-4.848.336-.24.624-.576 1.104-.528a.522.522 0 0 1 .288.768c-.912 1.536-1.776 3.456-2.016 5.424-.192 1.872.048 3.744 1.2 5.232.72.912 1.968 1.248 3.168 1.008 2.4-.768 3.6-3.024 4.032-5.04.384-1.632.336-3.408-.048-5.04a7.055 7.055 0 0 0-1.92-3.504c-.432-.432-1.296-.624-1.92-.48-.72.144-1.296.672-1.68 1.248-.24.192-.576-.096-.576-.288.048-.72.768-1.728 1.536-2.064.96-.48 2.448-.48 3.36.24 1.536 1.2 2.112 2.4 2.592 4.08.528 1.968.576 4.08.144 6.144-.384 1.776-1.248 3.456-2.544 4.704zm-5.76 5.664c-.288.096-1.104.144-1.488.24-.384.192-.96.144-1.392.144-.24-.096-.384-.048-.576-.096-.144-.048-.288-.096-.432-.288a1.207 1.207 0 0 1-.096-.72c.048-.192.144-.384.288-.528.288-.288.528-.384.768-.432.336-.096.576-.048.816-.096.48 0 1.392.048 1.824.096.288.144.576.096.912.192.336-.144 3.12-.096 3.552 0 1.056-.096 2.304 0 3.168.24.288.096 1.008.096 1.248.384-.096.672-1.632 1.008-2.304.816-.384.096-1.248-.144-1.824 0-.48-.096-1.536.096-1.968.048-.768-.048-1.968-.096-2.496 0zM103.372 3.671c-.192.144-.384.24-.528.432-1.584 2.784-2.064 6-2.544 9.312-.432 2.976-.624 6.144-.48 9.264.144 3.552.72 6.96 1.872 9.984.24.432.432.864.624 1.344-.096.336-.576.384-.768.24-1.488-.816-1.968-2.352-2.352-3.888a22.437 22.437 0 0 0-.48-1.92c-.528-3.072-.72-6.288-.624-9.504.144-4.224.768-8.448 1.824-12.24.336-.768.576-1.632.96-2.4.432-.768.96-1.488 1.872-1.872.336-.096.96.144 1.104.624a.745.745 0 0 1-.48.624zM145.09 19.607c-4.512-.192-9.024.528-13.536.192-.864-.048-1.92-.288-2.544-1.008-.336-.384.048-1.248.624-1.152 2.064.24 4.128.336 6.192.288 2.688-.048 5.52-.24 7.968-.144.48 0 1.584.192 1.92.768.336.48-.096 1.104-.624 1.056zM172.796 32.951c-1.44.96-3.216 1.728-4.992 1.728-1.008 0-1.728-.432-2.4-1.392-.24.192-.672.336-.864.048-.864-1.2-1.104-2.88-1.152-4.512-.096-4.176-.048-7.248 1.056-10.992.096-.384 1.008-1.104 1.68-.912.288-.768 1.056-1.584 1.968-1.68 2.448 0 5.088 1.296 5.904 3.744.24.768.24 1.584-.048 2.352a4.33 4.33 0 0 1-1.392 1.824l-.288.24c1.2.384 2.544 1.152 3.312 2.352.576.912.624 2.016.384 3.072-.432 1.728-1.68 3.12-3.168 4.128zm1.344-6.384c-.384-.72-1.44-1.152-2.208-1.536-.912-.576-1.728-.336-2.64-.144l-1.44.336a3.135 3.135 0 0 1-1.632 0c-.24-.144-.528-.624-.288-.864.576-.576 1.296-.864 2.112-1.056l2.208-.24c.864-.48 1.776-1.44 2.16-2.352.24-.768.096-1.296-.384-1.92-.864-1.2-2.256-1.728-3.648-1.872-.432-.048-.576.048-.672.336-.144.384-.24.816-.48 1.152-.096.24-.432.336-.672.192a.928.928 0 0 1-.432-.24c-.576 2.064-.912 4.416-1.008 6.864-.096 2.304 0 4.56.336 6.672.384-.432.864-1.056 1.104-1.392.336-.336.96.192.864.528-.096.24-.288.528-.432.768-.096.288-.24.528-.24.72.288.432.96.576 1.776.48 1.2-.192 2.64-.864 3.696-1.68.96-.768 1.776-1.728 2.016-2.928.144-.576.24-1.248-.096-1.824zM187.416 34.055c-2.64.72-5.712.672-7.776-1.104-.96-.816-1.68-2.016-1.728-3.312-.048-1.152.432-2.208 1.104-3.168 1.488-2.112 4.08-3.552 6.576-3.84 1.056-.096 2.016.048 2.784.816.24.24 0 .72-.24.816h-.432c-.144 0-.336-.048-.48-.048-.336-.048-.624-.096-.816.048-2.304.096-4.56 1.2-5.952 3.072-.624.816-.96 1.44-.864 2.448.096 1.344 1.104 2.352 2.496 2.832 1.968.72 4.416.288 6.288-.384 1.008-.384 1.92-.768 2.784-1.392.192-.144.384 0 .48.24.048.192.048.384.048.528-.672 1.296-3.36 2.208-4.272 2.448zm2.688-3.264c-.24.288-.672.24-.864.096-.48-.336-.48-.96-.48-1.44.048-.816.192-1.632.384-2.496l.624-2.64c.384-1.728.624-3.456.096-4.896-.432-1.248-1.488-2.496-2.784-2.64-1.104-.144-2.208.24-3.12.912-.48.336-1.536 1.248-1.824 1.776-.048.192.048.528.24.72.192.192.048.768-.384.672-.336-.096-.72-.192-1.008-.432-.384-.336-.528-.96-.24-1.44.816-1.392 1.968-2.544 3.456-3.216.96-.48 2.112-.672 3.312-.48 1.44.24 2.688 1.296 3.408 2.64 1.104 2.064.96 4.656.432 6.96-.48 1.968-.96 3.792-1.248 5.904zM215.496 33.96c-.624-.673-1.056-1.489-1.152-2.449-1.968 1.008-3.888 1.776-6.144 1.824-.864 0-1.776-.096-2.4-.768-.576-.624-.672-1.392-.816-2.16-1.872 1.488-3.84 2.88-6.096 3.36-1.248.288-2.208.336-3.024-.864-.672-.96-.96-3.408-1.056-4.608-.288-4.224.24-8.4 1.248-12.144.096-.336.384-.768.624-.768.336 0 .72.192.864.576 0 .72-.096 1.392-.24 2.016a14.448 14.448 0 0 0-.432 1.968c-.24 1.776-.528 3.6-.528 5.424 0 2.208.192 4.368.768 6.432.24.624 1.008.624 1.632.432 2.208-.576 4.176-1.92 5.952-3.552-.24-3.6-.192-7.776.768-10.944.096-.192.432-.288.768-.192.192.096.528.288.528.576-.288 2.4-.624 4.992-.576 7.488 0 1.92.24 3.84.72 5.568.096.432.672.624 1.248.624 1.92-.096 4.416-.768 6.048-1.776-.528-4.752-.144-9.744.768-14.208.336-.336.864-.336 1.104 0 .336.336.24.864.192 1.296v.384c-.816 5.616-.864 10.8.048 16.416-.144.336-.528.24-.816.048zM234.194 34.2c-1.008-1.153-1.296-2.689-1.536-4.177-.48-3.456-.384-7.152-.48-10.752-2.928 4.176-5.232 8.4-8.016 13.152-.288.336-.432.576-.912.768-.432 0-.816-.048-1.152-.528-2.304-4.272-2.736-9.504-2.4-14.688 0-.336.096-.912.48-1.056.624-.192 1.104.336 1.104.72-.288 4.8.24 9.36 1.824 13.488 1.68-2.88 3.024-5.28 4.464-7.632a90.415 90.415 0 0 1 5.088-7.488c.384-.288.912-.096 1.104.288.144 4.608.096 9.12.48 13.536.096 1.44.432 2.832.528 4.176 0 .192-.432.384-.576.192zM265.787 34.2c-1.008-1.153-1.296-2.689-1.536-4.177-.48-3.456-.384-7.152-.48-10.752-2.928 4.176-5.232 8.4-8.016 13.152-.288.336-.432.576-.912.768-.432 0-.816-.048-1.152-.528-2.304-4.272-2.736-9.504-2.4-14.688 0-.336.096-.912.48-1.056.624-.192 1.104.336 1.104.72-.288 4.8.24 9.36 1.824 13.488 1.68-2.88 3.024-5.28 4.464-7.632a90.415 90.415 0 0 1 5.088-7.488c.384-.288.912-.096 1.104.288.144 4.608.096 9.12.48 13.536.096 1.44.432 2.832.528 4.176 0 .192-.432.384-.576.192zM292.23 34.247c-.336-.048-.528-.24-.672-.48l-.144-.24c-1.776-3.84-2.544-8.16-2.592-12.72-.624 1.536-1.248 3.024-1.968 4.512-.816 1.68-1.728 3.312-3.024 4.848-.576.72-1.68.816-2.544.624-.72-.336-1.2-1.152-1.536-1.824-1.824-3.504-2.688-7.44-3.6-11.28 0-.048-.048-.096-.096-.048-2.976 4.368-4.704 9.264-5.904 14.448-.192.48.24.912.288 1.392.096.288-.096.576-.48.72-.528.048-.96-.384-1.2-.768-.336-.816-.288-1.728-.048-2.544 1.584-5.184 3.216-10.32 6.576-14.832.432-.288.864-.288 1.248-.192.48 0 .912.48.96.816 1.056 4.128 1.92 8.352 3.984 12.096.288.384.672.624 1.104.48 1.104-1.056 1.824-2.352 2.544-3.648 1.44-2.64 2.448-5.424 3.552-8.304l.24-.336c.144-.144.24-.24.48-.24.48-.144.816.192 1.008.528-.096 2.976-.048 5.76.288 8.496.336 2.736.96 5.424 1.968 8.016.048.336-.288.48-.432.48zM306.824 18.023a89.971 89.971 0 0 1-.384 14.832c-.096.192-.192.48-.288.816-.144.288-.24.576-.48.864-.096.192-.72.288-.864-.048.096-1.104.624-6.912.48-9.408-3.504 2.016-6.768 5.568-9.216 8.88-.24.24-.816.24-.912-.24 0-.864.336-1.536.816-2.208.48-.624 1.056-1.2 1.488-1.872 1.2-1.44 2.592-2.64 4.032-3.792-1.152.096-2.352 0-3.504-.528-1.296-.576-2.16-1.68-2.352-3.12-.144-.864 0-1.776.432-2.448.864-1.344 2.016-2.496 3.312-3.264 1.536-.912 3.216-1.392 5.088-1.248 1.008.336 2.16.672 2.64 1.728.096.336.096.768-.288 1.056zm-1.584 2.064c0-1.056-.048-2.064-.192-3.024-.864-.336-1.584-.432-2.544-.144-1.008.288-2.208.768-3.168 1.488-1.152.864-2.016 1.968-2.064 3.408.096.624.336 1.248.864 1.728.672.432 1.536.672 2.304.72 1.728.144 3.504-.384 4.848-1.056-.048-1.008-.048-2.064-.048-3.12zM338.678 34.2c-1.008-1.153-1.296-2.689-1.536-4.177-.48-3.456-.384-7.152-.48-10.752-2.928 4.176-5.232 8.4-8.016 13.152-.288.336-.432.576-.912.768-.432 0-.816-.048-1.152-.528-2.304-4.272-2.736-9.504-2.4-14.688 0-.336.096-.912.48-1.056.624-.192 1.104.336 1.104.72-.288 4.8.24 9.36 1.824 13.488 1.68-2.88 3.024-5.28 4.464-7.632a90.415 90.415 0 0 1 5.088-7.488c.384-.288.912-.096 1.104.288.144 4.608.096 9.12.48 13.536.096 1.44.432 2.832.528 4.176 0 .192-.432.384-.576.192zM373.44 29.687c-1.872 2.544-4.752 3.984-7.68 4.464.048 3.6.288 7.344.672 10.992 0 .576-1.296.528-1.392 0-.528-3.456-.864-7.2-1.056-10.8-2.16-.192-4.512-1.056-6.24-2.496-1.44-1.248-2.4-2.688-2.688-4.56-.24-1.68.192-3.36 1.056-4.752 1.68-2.832 4.944-4.656 7.968-5.472.288-3.504.576-7.008 1.008-10.512.24-.624 1.392-.288 1.488.336-.144 2.928-.432 5.952-.672 8.832 2.832-.048 5.376 1.392 7.104 3.552 1.2 1.44 1.872 2.976 2.016 4.944.096 1.872-.432 3.888-1.584 5.472zm-3.984-11.424c-1.152-.624-2.352-1.152-3.6-1.008-.336 4.992-.336 10.272-.192 15.312 2.544-.528 4.944-1.824 6.528-4.032 1.008-1.44 1.344-3.6.912-5.424-.432-1.968-1.968-3.936-3.648-4.848zm-12.192 5.376c-.72 1.248-.96 2.64-.384 4.128a6.398 6.398 0 0 0 2.256 3.024c1.392 1.056 3.12 1.68 4.752 1.872-.096-4.656 0-9.216.096-13.824-2.496.768-5.424 2.544-6.72 4.8zM386.494 34.055c-2.64.72-5.712.672-7.776-1.104-.96-.816-1.68-2.016-1.728-3.312-.048-1.152.432-2.208 1.104-3.168 1.488-2.112 4.08-3.552 6.576-3.84 1.056-.096 2.016.048 2.784.816.24.24 0 .72-.24.816h-.432c-.144 0-.336-.048-.48-.048-.336-.048-.624-.096-.816.048-2.304.096-4.56 1.2-5.952 3.072-.624.816-.96 1.44-.864 2.448.096 1.344 1.104 2.352 2.496 2.832 1.968.72 4.416.288 6.288-.384 1.008-.384 1.92-.768 2.784-1.392.192-.144.384 0 .48.24.048.192.048.384.048.528-.672 1.296-3.36 2.208-4.272 2.448zm2.688-3.264c-.24.288-.672.24-.864.096-.48-.336-.48-.96-.48-1.44.048-.816.192-1.632.384-2.496l.624-2.64c.384-1.728.624-3.456.096-4.896-.432-1.248-1.488-2.496-2.784-2.64-1.104-.144-2.208.24-3.12.912-.48.336-1.536 1.248-1.824 1.776-.048.192.048.528.24.72.192.192.048.768-.384.672-.336-.096-.72-.192-1.008-.432-.384-.336-.528-.96-.24-1.44.816-1.392 1.968-2.544 3.456-3.216.96-.48 2.112-.672 3.312-.48 1.44.24 2.688 1.296 3.408 2.64 1.104 2.064.96 4.656.432 6.96-.48 1.968-.96 3.792-1.248 5.904zM416.542 34.247c-.336-.048-.528-.24-.672-.48l-.144-.24c-1.776-3.84-2.544-8.16-2.592-12.72-.624 1.536-1.248 3.024-1.968 4.512-.816 1.68-1.728 3.312-3.024 4.848-.576.72-1.68.816-2.544.624-.72-.336-1.2-1.152-1.536-1.824-1.824-3.504-2.688-7.44-3.6-11.28 0-.048-.048-.096-.096-.048-2.976 4.368-4.704 9.264-5.904 14.448-.192.48.24.912.288 1.392.096.288-.096.576-.48.72-.528.048-.96-.384-1.2-.768-.336-.816-.288-1.728-.048-2.544 1.584-5.184 3.216-10.32 6.576-14.832.432-.288.864-.288 1.248-.192.48 0 .912.48.96.816 1.056 4.128 1.92 8.352 3.984 12.096.288.384.672.624 1.104.48 1.104-1.056 1.824-2.352 2.544-3.648 1.44-2.64 2.448-5.424 3.552-8.304l.24-.336c.144-.144.24-.24.48-.24.48-.144.816.192 1.008.528-.096 2.976-.048 5.76.288 8.496.336 2.736.96 5.424 1.968 8.016.048.336-.288.48-.432.48zM434.256 34.2c-1.008-1.153-1.296-2.689-1.536-4.177-.48-3.456-.384-7.152-.48-10.752-2.928 4.176-5.232 8.4-8.016 13.152-.288.336-.432.576-.912.768-.432 0-.816-.048-1.152-.528-2.304-4.272-2.736-9.504-2.4-14.688 0-.336.096-.912.48-1.056.624-.192 1.104.336 1.104.72-.288 4.8.24 9.36 1.824 13.488 1.68-2.88 3.024-5.28 4.464-7.632a90.415 90.415 0 0 1 5.088-7.488c.384-.288.912-.096 1.104.288.144 4.608.096 9.12.48 13.536.096 1.44.432 2.832.528 4.176 0 .192-.432.384-.576.192zM452.923 33.623c-.624.048-1.056-.624-1.344-1.104a29.232 29.232 0 0 1-2.544-5.904c-.816-2.544-1.248-5.136-1.44-7.92-1.44 2.208-3.84 6.24-5.328 8.4-1.536 2.304-3.072 4.752-4.32 7.056-.144.336-.672.096-.864-.192-.24-.432-.144-1.008-.048-1.44.288-.432.816-1.536 1.104-2.16 3.12-4.752 6.384-9.6 9.264-14.352.336-.336 1.488-.528 1.584.384.24 2.928.672 5.856 1.344 8.64.672 2.784 1.68 5.376 2.976 7.872.048.144 0 .672-.384.72zM470.256 34.2c-1.008-1.153-1.296-2.689-1.536-4.177-.48-3.456-.384-7.152-.48-10.752-2.928 4.176-5.232 8.4-8.016 13.152-.288.336-.432.576-.912.768-.432 0-.816-.048-1.152-.528-2.304-4.272-2.736-9.504-2.4-14.688 0-.336.096-.912.48-1.056.624-.192 1.104.336 1.104.72-.288 4.8.24 9.36 1.824 13.488 1.68-2.88 3.024-5.28 4.464-7.632a90.415 90.415 0 0 1 5.088-7.488c.384-.288.912-.096 1.104.288.144 4.608.096 9.12.48 13.536.096 1.44.432 2.832.528 4.176 0 .192-.432.384-.576.192zM485.371 18.023a89.971 89.971 0 0 1-.384 14.832c-.096.192-.192.48-.288.816-.144.288-.24.576-.48.864-.096.192-.72.288-.864-.048.096-1.104.624-6.912.48-9.408-3.504 2.016-6.768 5.568-9.216 8.88-.24.24-.816.24-.912-.24 0-.864.336-1.536.816-2.208.48-.624 1.056-1.2 1.488-1.872 1.2-1.44 2.592-2.64 4.032-3.792-1.152.096-2.352 0-3.504-.528-1.296-.576-2.16-1.68-2.352-3.12-.144-.864 0-1.776.432-2.448.864-1.344 2.016-2.496 3.312-3.264 1.536-.912 3.216-1.392 5.088-1.248 1.008.336 2.16.672 2.64 1.728.096.336.096.768-.288 1.056zm-1.584 2.064c0-1.056-.048-2.064-.192-3.024-.864-.336-1.584-.432-2.544-.144-1.008.288-2.208.768-3.168 1.488-1.152.864-2.016 1.968-2.064 3.408.096.624.336 1.248.864 1.728.672.432 1.536.672 2.304.72 1.728.144 3.504-.384 4.848-1.056-.048-1.008-.048-2.064-.048-3.12z" fill="#fff"/></svg>