<svg width="441" height="46" viewBox="0 0 441 46" fill="none" xmlns="http://www.w3.org/2000/svg">
<path d="M18.4937 9.33518C17.8697 11.8312 17.5817 14.5192 17.2937 17.1592C17.0537 18.9832 16.9577 20.8072 16.9097 22.6792C16.8137 25.4152 16.8137 28.1512 16.7177 30.9352C16.5737 31.4152 16.1897 31.7032 15.7577 31.7032C15.1337 31.7032 14.8457 31.0792 14.7017 30.5512L14.5097 30.1672C13.3097 25.1752 11.8697 20.3272 10.0937 15.5752C9.27769 13.3192 8.50969 11.1112 7.64569 8.90318C6.78169 6.74318 5.82169 4.58318 4.66969 2.42318C4.62169 2.42318 4.57369 2.32718 4.57369 2.37518C3.27769 6.59918 2.36569 10.8712 1.93369 15.3832C1.54969 19.4632 1.50169 23.6392 1.64569 27.8632C1.74169 28.4392 1.74169 29.0632 1.83769 29.6872C1.88569 30.2632 1.98169 30.8392 2.17369 31.3672C2.22169 31.7032 1.98169 31.9432 1.69369 32.0392C0.829694 31.8472 0.637694 31.1272 0.493694 30.3592L0.349694 29.6872C-0.0343063 26.1832 -0.0823064 22.5832 0.109694 18.9832C0.349694 14.7112 0.973694 10.4392 1.83769 6.50318C2.31769 4.43918 2.94169 2.27918 3.75769 0.359178C3.90169 0.0231766 4.47769 -0.120822 4.81369 0.119178C5.10169 0.359178 5.24569 0.647177 5.43769 0.983178C6.63769 2.90318 7.59769 4.91918 8.41369 6.93518L10.8617 13.0792C12.6857 17.6872 14.1737 22.4392 15.4217 27.2872C15.4697 23.2072 15.5177 18.9352 15.9497 14.9032C16.2857 11.3992 17.0057 7.94318 18.4457 4.91918C18.5417 4.72718 18.6377 4.48718 18.7817 4.29518C19.1177 3.62318 19.5977 2.90318 20.5097 2.95118C21.0377 3.23918 20.8457 3.76718 20.6057 4.10318C19.5497 5.68718 18.9737 7.46318 18.4937 9.33518ZM30.4937 24.9832C29.3897 25.9912 28.0457 26.6632 26.3657 26.5192C24.9257 26.3752 23.6297 25.5592 22.9097 24.4552C21.6137 22.5352 21.3257 20.1352 21.7097 17.9272C21.9977 16.3432 22.7657 14.3272 23.7737 13.0792C24.1097 12.8392 24.3977 12.5032 24.8777 12.5512C25.2617 12.6952 25.3097 13.0792 25.1657 13.3192C24.2537 14.8552 23.3897 16.7752 23.1497 18.7432C22.9577 20.6152 23.1977 22.4872 24.3497 23.9752C25.0697 24.8872 26.3177 25.2232 27.5177 24.9832C29.9177 24.2152 31.1177 21.9592 31.5497 19.9432C31.9337 18.3112 31.8857 16.5352 31.5017 14.9032C31.2137 13.6072 30.5897 12.4072 29.5817 11.3992C29.1497 10.9672 28.2857 10.7752 27.6617 10.9192C26.9417 11.0632 26.3657 11.5912 25.9817 12.1672C25.7417 12.3592 25.4057 12.0712 25.4057 11.8792C25.4537 11.1592 26.1737 10.1512 26.9417 9.81518C27.9017 9.33518 29.3897 9.33518 30.3017 10.0552C31.8377 11.2552 32.4137 12.4552 32.8937 14.1352C33.4217 16.1032 33.4697 18.2152 33.0377 20.2792C32.6537 22.0552 31.7897 23.7352 30.4937 24.9832ZM24.7337 30.6472C24.4457 30.7432 23.6297 30.7912 23.2457 30.8872C22.8617 31.0792 22.2857 31.0312 21.8537 31.0312C21.6137 30.9352 21.4697 30.9832 21.2777 30.9352C21.1337 30.8872 20.9897 30.8392 20.8457 30.6472C20.7497 30.4552 20.7017 30.1672 20.7497 29.9272C20.7977 29.7352 20.8937 29.5432 21.0377 29.3992C21.3257 29.1112 21.5657 29.0152 21.8057 28.9672C22.1417 28.8712 22.3817 28.9192 22.6217 28.8712C23.1017 28.8712 24.0137 28.9192 24.4457 28.9672C24.7337 29.1112 25.0217 29.0632 25.3577 29.1592C25.6937 29.0152 28.4777 29.0632 28.9097 29.1592C29.9657 29.0632 31.2137 29.1592 32.0777 29.3992C32.3657 29.4952 33.0857 29.4952 33.3257 29.7832C33.2297 30.4552 31.6937 30.7912 31.0217 30.5992C30.6377 30.6952 29.7737 30.4552 29.1977 30.5992C28.7177 30.5032 27.6617 30.6952 27.2297 30.6472C26.4617 30.5992 25.2617 30.5512 24.7337 30.6472Z" fill="white"/>
<path d="M60.9163 22.1992C60.7243 22.3432 60.5803 22.3912 60.3883 22.4872C58.4683 23.4472 54.5323 25.3192 52.3723 26.5192C47.9083 29.0152 43.7803 31.4152 40.5643 33.3352C40.0843 33.6232 38.9803 34.1992 38.4523 34.5832C37.6843 34.8232 37.3963 33.8152 37.5403 33.3352C39.4603 31.7992 41.4283 30.1192 43.2523 28.2952C44.8363 26.6632 46.3723 24.9352 47.5243 23.1592C49.0123 20.9032 49.9243 18.5032 50.2123 15.9112C50.4043 14.1832 50.1163 12.6472 49.3483 11.2552C48.5323 9.76718 47.2363 8.47118 45.7003 7.41518C43.4923 5.87918 41.1403 4.67918 38.5003 4.19918C38.2123 4.15118 37.9723 4.19918 37.6843 4.29518C37.3963 4.39118 37.1083 4.48718 36.6763 4.34318C36.4843 3.95918 36.5803 3.62318 36.7723 3.28718L36.9643 2.99918C37.4923 2.42318 38.5003 2.51918 39.1243 2.66318C42.0043 3.23918 44.6923 4.53518 47.0923 6.35918C48.6763 7.55918 50.0203 9.09518 50.8843 10.8232C51.7963 12.5512 52.1323 14.5672 51.7963 16.6792C51.3643 19.3192 50.2603 21.7192 48.8203 23.9752C47.6203 25.7992 46.0363 27.6232 44.3563 29.3512C46.9003 27.6712 49.2043 26.6152 52.1803 24.8392C54.9163 23.1592 57.5563 22.1512 60.5803 20.9992C61.0123 20.8552 61.6363 21.1432 61.3963 21.7192C61.3003 21.9592 61.1083 22.1032 60.9163 22.1992Z" fill="white"/>
<path d="M94.0903 19.6072C89.5783 19.4152 85.0663 20.1352 80.5543 19.7992C79.6903 19.7512 78.6343 19.5112 78.0103 18.7912C77.6743 18.4072 78.0583 17.5432 78.6343 17.6392C80.6983 17.8792 82.7623 17.9752 84.8263 17.9272C87.5143 17.8792 90.3463 17.6872 92.7943 17.7832C93.2743 17.7832 94.3783 17.9752 94.7143 18.5512C95.0503 19.0312 94.6183 19.6552 94.0903 19.6072Z" fill="white"/>
<path d="M123.38 30.2632C121.124 35.1592 119.348 40.1992 117.62 45.2872C117.476 45.5752 116.804 45.6712 116.66 45.2872C116.42 44.8552 116.564 43.7032 116.66 43.2712C117.428 40.0072 118.82 36.9832 119.972 33.8632C118.58 31.7992 116.804 28.9672 115.46 26.5192C113.78 23.3992 112.388 20.1352 111.86 16.5352C111.764 16.0552 112.052 15.5752 112.436 15.3832C112.724 15.2872 112.916 15.4312 113.06 15.5752C113.204 15.7192 113.3 15.9112 113.396 16.1032C113.876 18.9832 114.836 21.6712 116.036 24.2152C117.38 26.9512 118.964 29.5432 120.74 32.1352C121.844 29.7352 122.996 27.3352 124.244 24.9832C125.492 22.5832 126.884 20.2792 128.564 18.0232C128.9 17.5912 129.38 17.1112 129.812 17.3512C130.1 17.4952 130.34 17.9272 130.1 18.2632C127.556 22.1512 125.3 26.1352 123.38 30.2632Z" fill="white"/>
<path d="M154.843 32.9512C153.403 33.9112 151.627 34.6792 149.851 34.6792C148.843 34.6792 148.123 34.2472 147.451 33.2872C147.211 33.4792 146.779 33.6232 146.587 33.3352C145.723 32.1352 145.483 30.4552 145.435 28.8232C145.339 24.6472 145.387 21.5752 146.491 17.8312C146.587 17.4472 147.499 16.7272 148.171 16.9192C148.459 16.1512 149.227 15.3352 150.139 15.2392C152.587 15.2392 155.227 16.5352 156.043 18.9832C156.283 19.7512 156.283 20.5672 155.995 21.3352C155.707 22.0552 155.227 22.6792 154.603 23.1592L154.315 23.3992C155.515 23.7832 156.859 24.5512 157.627 25.7512C158.203 26.6632 158.251 27.7672 158.011 28.8232C157.579 30.5512 156.331 31.9432 154.843 32.9512ZM156.187 26.5672C155.803 25.8472 154.747 25.4152 153.979 25.0312C153.067 24.4552 152.251 24.6952 151.339 24.8872L149.899 25.2232C149.371 25.3672 148.843 25.3672 148.267 25.2232C148.027 25.0792 147.739 24.5992 147.979 24.3592C148.555 23.7832 149.275 23.4952 150.091 23.3032L152.299 23.0632C153.163 22.5832 154.075 21.6232 154.459 20.7112C154.699 19.9432 154.555 19.4152 154.075 18.7912C153.211 17.5912 151.819 17.0632 150.427 16.9192C149.995 16.8712 149.851 16.9672 149.755 17.2552C149.611 17.6392 149.515 18.0712 149.275 18.4072C149.179 18.6472 148.843 18.7432 148.603 18.5992C148.411 18.5512 148.267 18.4552 148.171 18.3592C147.595 20.4232 147.259 22.7752 147.163 25.2232C147.067 27.5272 147.163 29.7832 147.499 31.8952C147.883 31.4632 148.363 30.8392 148.603 30.5032C148.939 30.1672 149.563 30.6952 149.467 31.0312C149.371 31.2712 149.179 31.5592 149.035 31.7992C148.939 32.0872 148.795 32.3272 148.795 32.5192C149.083 32.9512 149.755 33.0952 150.571 32.9992C151.771 32.8072 153.211 32.1352 154.267 31.3192C155.227 30.5512 156.043 29.5912 156.283 28.3912C156.427 27.8152 156.523 27.1432 156.187 26.5672Z" fill="white"/>
<path d="M169.463 34.0552C166.823 34.7752 163.751 34.7272 161.687 32.9512C160.727 32.1352 160.007 30.9352 159.959 29.6392C159.911 28.4872 160.391 27.4312 161.063 26.4712C162.551 24.3592 165.143 22.9192 167.639 22.6312C168.695 22.5352 169.655 22.6792 170.423 23.4472C170.663 23.6872 170.423 24.1672 170.183 24.2632H169.751C169.607 24.2632 169.415 24.2152 169.271 24.2152C168.935 24.1672 168.647 24.1192 168.455 24.2632C166.151 24.3592 163.895 25.4632 162.503 27.3352C161.879 28.1512 161.543 28.7752 161.639 29.7832C161.735 31.1272 162.743 32.1352 164.135 32.6152C166.103 33.3352 168.551 32.9032 170.423 32.2312C171.431 31.8472 172.343 31.4632 173.207 30.8392C173.399 30.6952 173.591 30.8392 173.687 31.0792C173.735 31.2712 173.735 31.4632 173.735 31.6072C173.063 32.9032 170.375 33.8152 169.463 34.0552ZM172.151 30.7912C171.911 31.0792 171.479 31.0312 171.287 30.8872C170.807 30.5512 170.807 29.9272 170.807 29.4472C170.855 28.6312 170.999 27.8152 171.191 26.9512L171.815 24.3112C172.199 22.5832 172.439 20.8552 171.911 19.4152C171.479 18.1672 170.423 16.9192 169.127 16.7752C168.023 16.6312 166.919 17.0152 166.007 17.6872C165.527 18.0232 164.471 18.9352 164.183 19.4632C164.135 19.6552 164.231 19.9912 164.423 20.1832C164.615 20.3752 164.471 20.9512 164.039 20.8552C163.703 20.7592 163.319 20.6632 163.031 20.4232C162.647 20.0872 162.503 19.4632 162.791 18.9832C163.607 17.5912 164.759 16.4392 166.247 15.7672C167.207 15.2872 168.359 15.0952 169.559 15.2872C170.999 15.5272 172.247 16.5832 172.967 17.9272C174.071 19.9912 173.927 22.5832 173.399 24.8872C172.919 26.8552 172.439 28.6792 172.151 30.7912Z" fill="white"/>
<path d="M184.775 34.0552C182.951 34.2952 181.031 34.1512 179.207 33.0472C176.807 31.6072 175.751 29.1112 175.895 26.3272C176.039 24.1672 176.711 22.1512 177.911 20.3272C179.111 18.5032 180.791 17.0152 182.807 16.0552C183.863 15.5272 185.303 15.2872 186.455 15.7672C187.415 16.1512 188.423 17.1592 188.615 18.1192C188.711 18.4072 188.231 19.0312 187.847 18.7432C187.319 18.2632 186.647 17.6392 185.975 17.3512C185.303 17.0632 184.679 17.0152 183.959 17.3032C182.087 18.0712 180.359 19.5592 179.207 21.3352C178.151 22.9672 177.527 24.8872 177.479 26.8552C177.479 28.6312 178.151 30.3112 179.639 31.4152C181.031 32.4232 182.855 32.6632 184.535 32.5192C187.367 32.2792 189.863 31.0792 192.359 29.9752C192.647 29.9752 193.079 30.4552 192.839 30.7912C190.439 32.1352 187.703 33.6232 184.775 34.0552Z" fill="white"/>
<path d="M215.025 34.2472C212.625 34.1512 210.417 33.0472 209.025 30.9832C207.873 29.2552 207.585 27.2392 207.825 25.2712C208.113 23.0632 209.025 20.9512 210.273 19.3192C211.665 17.4952 213.633 16.0552 215.889 15.6232C217.425 15.3352 219.057 15.4792 220.209 16.7272C220.737 17.3032 221.217 17.9272 221.217 18.6952C221.265 19.5112 220.881 20.2312 220.209 20.7592C216.849 23.5432 213.297 26.1352 209.649 28.2472C209.745 29.7352 211.041 31.2712 212.433 32.0392C213.825 32.8072 215.457 32.9032 216.993 32.7112C218.529 32.5672 220.113 32.0392 221.217 31.5112C221.409 31.3672 221.553 31.5112 221.601 31.6552C221.649 31.7512 221.745 31.9432 221.553 32.0872C219.873 33.6232 217.473 34.3432 215.025 34.2472ZM217.137 17.1112C215.745 17.1112 214.353 17.6872 213.249 18.5512C210.897 20.4712 209.505 23.5432 209.505 26.5192C212.913 24.6472 216.129 22.1992 219.249 19.6552C219.489 19.4632 219.681 18.7432 219.345 18.1672C218.961 17.3992 218.097 17.1112 217.137 17.1112Z" fill="white"/>
<path d="M232.213 34.0552C230.389 34.2952 228.469 34.1512 226.645 33.0472C224.245 31.6072 223.189 29.1112 223.333 26.3272C223.477 24.1672 224.149 22.1512 225.349 20.3272C226.549 18.5032 228.229 17.0152 230.245 16.0552C231.301 15.5272 232.741 15.2872 233.893 15.7672C234.853 16.1512 235.861 17.1592 236.053 18.1192C236.149 18.4072 235.669 19.0312 235.285 18.7432C234.757 18.2632 234.085 17.6392 233.413 17.3512C232.741 17.0632 232.117 17.0152 231.397 17.3032C229.525 18.0712 227.797 19.5592 226.645 21.3352C225.589 22.9672 224.965 24.8872 224.917 26.8552C224.917 28.6312 225.589 30.3112 227.077 31.4152C228.469 32.4232 230.293 32.6632 231.973 32.5192C234.805 32.2792 237.301 31.0792 239.797 29.9752C240.085 29.9752 240.517 30.4552 240.277 30.7912C237.877 32.1352 235.141 33.6232 232.213 34.0552Z" fill="white"/>
<path d="M256.399 17.6872C255.151 17.3992 253.903 17.1112 252.607 17.0632C251.551 18.4072 251.023 19.9912 250.735 21.6712C250.399 23.3992 250.447 25.2232 250.351 26.9992C250.255 29.3992 250.447 31.7032 250.735 33.9592C250.591 34.2472 250.159 34.4392 249.823 34.2472C249.007 33.2392 248.815 31.9432 248.767 30.6472C248.719 27.7672 248.671 24.7432 249.103 21.9112C249.391 20.0872 249.919 18.4072 251.023 16.8712C248.047 16.7272 245.311 17.3512 242.575 18.1192C242.191 18.0712 241.759 17.8312 241.519 17.4472C241.423 17.1112 241.615 16.9192 241.807 16.8232L242.095 16.7272L242.335 16.6312C244.351 15.8152 246.799 15.3832 249.151 15.3352C251.551 15.2392 253.951 15.4792 256.063 16.2472C256.303 16.3432 256.735 16.6792 256.879 16.9672C256.927 17.3032 256.687 17.7352 256.399 17.6872Z" fill="white"/>
<path d="M268.764 31.0312C267.708 32.0872 266.46 32.9992 265.068 33.5752C263.868 34.0552 262.476 34.1992 261.036 33.7672C260.988 34.0072 260.796 34.2952 260.556 34.2952C259.788 34.0072 259.5 33.2872 259.356 32.6632C259.02 26.8552 259.644 21.1432 260.652 15.7192C260.892 15.1912 261.852 14.9032 262.14 15.6712C261.852 18.4552 261.324 21.2392 261.18 24.0232C262.86 22.7272 265.02 22.1032 267.132 22.5832C268.524 22.9192 269.916 24.1672 270.348 25.5592C271.02 27.5752 270.3 29.5912 268.764 31.0312ZM266.748 24.2632C264.588 23.7352 262.572 24.6952 261.036 26.3272C261.036 28.1032 261.036 30.7912 260.988 32.2792C262.236 32.5672 263.484 32.4232 264.588 31.9432C266.028 31.3672 267.324 30.2632 268.332 28.9672C269.052 28.0552 269.1 26.6152 268.524 25.6072C268.188 24.9352 267.42 24.4072 266.748 24.2632Z" fill="white"/>
<path d="M295.65 34.0552C293.01 34.7752 289.938 34.7272 287.874 32.9512C286.914 32.1352 286.194 30.9352 286.146 29.6392C286.098 28.4872 286.578 27.4312 287.25 26.4712C288.738 24.3592 291.33 22.9192 293.826 22.6312C294.882 22.5352 295.842 22.6792 296.61 23.4472C296.85 23.6872 296.61 24.1672 296.37 24.2632H295.938C295.794 24.2632 295.602 24.2152 295.458 24.2152C295.122 24.1672 294.834 24.1192 294.642 24.2632C292.338 24.3592 290.082 25.4632 288.69 27.3352C288.066 28.1512 287.73 28.7752 287.826 29.7832C287.922 31.1272 288.93 32.1352 290.322 32.6152C292.29 33.3352 294.738 32.9032 296.61 32.2312C297.618 31.8472 298.53 31.4632 299.394 30.8392C299.586 30.6952 299.778 30.8392 299.874 31.0792C299.922 31.2712 299.922 31.4632 299.922 31.6072C299.25 32.9032 296.562 33.8152 295.65 34.0552ZM298.338 30.7912C298.098 31.0792 297.666 31.0312 297.474 30.8872C296.994 30.5512 296.994 29.9272 296.994 29.4472C297.042 28.6312 297.186 27.8152 297.378 26.9512L298.002 24.3112C298.386 22.5832 298.626 20.8552 298.098 19.4152C297.666 18.1672 296.61 16.9192 295.314 16.7752C294.21 16.6312 293.106 17.0152 292.194 17.6872C291.714 18.0232 290.658 18.9352 290.37 19.4632C290.322 19.6552 290.418 19.9912 290.61 20.1832C290.802 20.3752 290.658 20.9512 290.226 20.8552C289.89 20.7592 289.506 20.6632 289.218 20.4232C288.834 20.0872 288.69 19.4632 288.978 18.9832C289.794 17.5912 290.946 16.4392 292.434 15.7672C293.394 15.2872 294.546 15.0952 295.746 15.2872C297.186 15.5272 298.434 16.5832 299.154 17.9272C300.258 19.9912 300.114 22.5832 299.586 24.8872C299.106 26.8552 298.626 28.6792 298.338 30.7912Z" fill="white"/>
<path d="M317.923 33.6232C317.299 33.6712 316.867 32.9992 316.579 32.5192C315.523 30.6472 314.659 28.6792 314.035 26.6152C313.219 24.0712 312.787 21.4792 312.595 18.6952C311.155 20.9032 308.755 24.9352 307.267 27.0952C305.731 29.3992 304.195 31.8472 302.947 34.1512C302.803 34.4872 302.275 34.2472 302.083 33.9592C301.843 33.5272 301.939 32.9512 302.035 32.5192C302.323 32.0872 302.851 30.9832 303.139 30.3592C306.259 25.6072 309.523 20.7592 312.403 16.0072C312.739 15.6712 313.891 15.4792 313.987 16.3912C314.227 19.3192 314.659 22.2472 315.331 25.0312C316.003 27.8152 317.011 30.4072 318.307 32.9032C318.355 33.0472 318.307 33.5752 317.923 33.6232Z" fill="white"/>
<path d="M335.688 33.6232C335.064 33.6712 334.632 32.9992 334.344 32.5192C333.288 30.6472 332.424 28.6792 331.8 26.6152C330.984 24.0712 330.552 21.4792 330.36 18.6952C328.92 20.9032 326.52 24.9352 325.032 27.0952C323.496 29.3992 321.96 31.8472 320.712 34.1512C320.568 34.4872 320.04 34.2472 319.848 33.9592C319.608 33.5272 319.704 32.9512 319.8 32.5192C320.088 32.0872 320.616 30.9832 320.904 30.3592C324.024 25.6072 327.288 20.7592 330.168 16.0072C330.504 15.6712 331.656 15.4792 331.752 16.3912C331.992 19.3192 332.424 22.2472 333.096 25.0312C333.768 27.8152 334.776 30.4072 336.072 32.9032C336.12 33.0472 336.072 33.5752 335.688 33.6232Z" fill="white"/>
<path d="M345.15 34.2472C342.75 34.1512 340.542 33.0472 339.15 30.9832C337.998 29.2552 337.71 27.2392 337.95 25.2712C338.238 23.0632 339.15 20.9512 340.398 19.3192C341.79 17.4952 343.758 16.0552 346.014 15.6232C347.55 15.3352 349.182 15.4792 350.334 16.7272C350.862 17.3032 351.342 17.9272 351.342 18.6952C351.39 19.5112 351.006 20.2312 350.334 20.7592C346.974 23.5432 343.422 26.1352 339.774 28.2472C339.87 29.7352 341.166 31.2712 342.558 32.0392C343.95 32.8072 345.582 32.9032 347.118 32.7112C348.654 32.5672 350.238 32.0392 351.342 31.5112C351.534 31.3672 351.678 31.5112 351.726 31.6552C351.774 31.7512 351.87 31.9432 351.678 32.0872C349.998 33.6232 347.598 34.3432 345.15 34.2472ZM347.262 17.1112C345.87 17.1112 344.478 17.6872 343.374 18.5512C341.022 20.4712 339.63 23.5432 339.63 26.5192C343.038 24.6472 346.254 22.1992 349.374 19.6552C349.614 19.4632 349.806 18.7432 349.47 18.1672C349.086 17.3992 348.222 17.1112 347.262 17.1112Z" fill="white"/>
<path d="M356.146 17.6872H355.906C355.762 17.6872 355.57 17.5912 355.522 17.3512C355.474 16.9672 355.618 16.6312 355.906 16.3432C356.674 15.6712 357.538 15.3832 358.498 15.4312C359.17 15.4792 359.842 15.5752 360.514 15.8152L362.338 16.4392C364.93 17.3032 367.186 19.6072 368.434 22.1032C369.106 23.4952 369.346 24.9352 369.01 26.5192C368.674 27.9592 367.81 29.3032 366.658 30.4072C363.778 33.1432 360.178 33.9592 356.194 33.9592C356.146 37.2232 355.954 40.8712 356.386 44.0872C356.386 44.2312 356.482 44.4232 356.578 44.5672C356.626 44.8072 356.722 44.9992 356.53 45.2872C356.146 45.5752 355.762 45.4792 355.426 45.2872C354.946 44.7592 354.754 44.1832 354.706 43.5112C354.37 40.1032 354.514 36.7912 354.706 33.3352C354.274 32.9512 353.602 32.4232 353.458 31.8472C353.458 31.6552 353.506 31.4632 353.602 31.3672C353.746 31.1272 353.938 31.0792 354.034 31.1752C354.178 31.3192 354.466 31.5112 354.706 31.6552C354.994 26.8552 355.33 22.2952 356.146 17.6872ZM365.65 20.8072C364.594 19.5112 363.106 18.5992 361.666 17.9752C360.85 17.5912 358.546 16.7272 357.682 17.1112C357.73 17.7832 357.634 18.9832 357.538 19.5112C356.866 23.5912 356.434 27.9592 356.386 32.2792C359.698 32.5192 362.866 31.5112 365.41 29.3032C366.802 28.1032 367.618 26.4232 367.474 24.6952C367.378 23.2552 366.466 21.8152 365.65 20.8072Z" fill="white"/>
<path d="M385.922 19.6552C384.146 18.7432 382.226 18.1672 380.258 17.8312C378.194 17.4952 375.842 17.3512 374.162 17.3992C374.018 17.4472 373.778 17.4952 373.778 17.6392C373.826 22.2952 373.394 27.3352 373.106 32.0872C373.01 32.4232 373.01 32.7592 372.914 33.0952C372.866 33.4312 372.77 33.7672 372.53 34.0072C372.29 34.2472 371.426 34.5832 371.282 34.0072C371.474 31.1752 371.906 24.5992 372.002 22.1032L372.194 16.5352C372.77 15.8632 373.538 15.7192 374.354 15.7672C374.738 15.7672 375.17 15.7672 375.554 15.8152C375.938 15.8632 376.322 15.8632 376.706 15.8152C379.634 16.0072 382.466 16.5832 384.962 17.8792C385.586 18.1672 386.162 18.5992 386.546 19.2712C386.642 19.6552 386.114 19.7992 385.922 19.6552Z" fill="white"/>
<path d="M403.459 34.1992C402.451 33.0472 402.163 31.5112 401.923 30.0232C401.443 26.5672 401.539 22.8712 401.443 19.2712C398.515 23.4472 396.211 27.6712 393.427 32.4232C393.139 32.7592 392.995 32.9992 392.515 33.1912C392.083 33.1912 391.699 33.1432 391.363 32.6632C389.059 28.3912 388.627 23.1592 388.963 17.9752C388.963 17.6392 389.059 17.0632 389.443 16.9192C390.067 16.7272 390.547 17.2552 390.547 17.6392C390.259 22.4392 390.787 26.9992 392.371 31.1272C394.051 28.2472 395.395 25.8472 396.835 23.4952C398.323 21.0472 399.907 18.6952 401.923 16.0072C402.307 15.7192 402.835 15.9112 403.027 16.2952C403.171 20.9032 403.123 25.4152 403.507 29.8312C403.603 31.2712 403.939 32.6632 404.035 34.0072C404.035 34.1992 403.603 34.3912 403.459 34.1992Z" fill="white"/>
<path d="M421.694 34.1992C420.686 33.0472 420.398 31.5112 420.158 30.0232C419.678 26.5672 419.774 22.8712 419.678 19.2712C416.75 23.4472 414.446 27.6712 411.662 32.4232C411.374 32.7592 411.23 32.9992 410.75 33.1912C410.318 33.1912 409.934 33.1432 409.598 32.6632C407.294 28.3912 406.862 23.1592 407.198 17.9752C407.198 17.6392 407.294 17.0632 407.678 16.9192C408.302 16.7272 408.782 17.2552 408.782 17.6392C408.494 22.4392 409.022 26.9992 410.606 31.1272C412.286 28.2472 413.63 25.8472 415.07 23.4952C416.558 21.0472 418.142 18.6952 420.158 16.0072C420.542 15.7192 421.07 15.9112 421.262 16.2952C421.406 20.9032 421.358 25.4152 421.742 29.8312C421.838 31.2712 422.174 32.6632 422.27 34.0072C422.27 34.1992 421.838 34.3912 421.694 34.1992Z" fill="white"/>
<path d="M439.448 13.8472C437.192 17.5432 434.6 21.1912 432.536 25.0792C432.296 25.2712 431.864 25.1752 431.768 24.9352C431.672 24.4072 431.72 23.9272 431.864 23.5432C431.96 23.1112 432.104 22.7752 432.248 22.3432C433.88 19.3672 435.896 16.5352 437.672 13.6552C438.2 12.7432 438.488 11.5432 438.392 10.3432C438.344 9.47918 438.008 8.61518 437.432 7.89518C436.28 6.45518 434.84 5.35118 433.256 4.82318C432.2 4.43918 431.096 4.34318 429.896 4.58318C429.128 4.72718 428.456 5.06318 427.784 5.68718C427.16 6.26318 426.632 6.98318 426.392 7.79918C426.104 8.03918 425.576 8.03918 425.432 7.60718C425.288 6.98318 425.528 6.45518 425.72 5.87918C426.536 4.48718 427.688 3.52718 429.032 3.04718C430.184 2.66318 431.336 2.56718 432.536 2.75918C433.928 2.99918 435.176 3.57518 436.328 4.39118C437.48 5.20718 438.488 6.26318 439.256 7.55918C439.88 8.51918 440.168 9.81518 440.12 11.0632C440.12 12.0232 439.928 13.0792 439.448 13.8472ZM436.376 34.5832C435.176 34.5832 433.976 34.2952 432.92 33.7672C431.816 33.1912 430.856 32.4712 430.136 31.4152C429.944 31.1272 429.896 30.6472 429.992 30.2632C430.088 29.8792 430.376 29.6392 430.856 29.8312L432.008 31.0792C432.392 31.4632 432.824 31.8472 433.208 32.1352C434.312 32.9512 435.704 33.3832 437.096 33.8152C437.24 34.1512 436.712 34.4872 436.376 34.5832Z" fill="white"/>
</svg>
