<svg width="441" height="46" fill="none" xmlns="http://www.w3.org/2000/svg"><path d="M18.494 9.335c-.624 2.496-.912 5.184-1.2 7.824-.24 1.824-.336 3.648-.384 5.52-.096 2.736-.096 5.472-.192 8.256-.144.48-.528.768-.96.768-.624 0-.912-.624-1.056-1.152l-.192-.384c-1.2-4.992-2.64-9.84-4.416-14.592-.816-2.256-1.584-4.464-2.448-6.672-.864-2.16-1.824-4.32-2.976-6.48-.048 0-.096-.096-.096-.048-1.296 4.224-2.208 8.496-2.64 13.008-.384 4.08-.432 8.256-.288 12.48.096.576.096 1.2.192 1.824.048.576.144 1.152.336 1.68.048.336-.192.576-.48.672-.864-.192-1.056-.912-1.2-1.68l-.144-.672c-.384-3.504-.432-7.104-.24-10.704.24-4.272.864-8.544 1.728-12.48C2.318 4.44 2.942 2.28 3.758.36c.144-.336.72-.48 1.056-.24.288.24.432.528.624.864 1.2 1.92 2.16 3.936 2.976 5.952l2.448 6.144c1.824 4.608 3.312 9.36 4.56 14.208.048-4.08.096-8.352.528-12.384.336-3.504 1.056-6.96 2.496-9.984.096-.192.192-.432.336-.624.336-.672.816-1.392 1.728-1.344.528.288.336.816.096 1.152-1.056 1.584-1.632 3.36-2.112 5.232zm12 15.648c-1.104 1.008-2.448 1.68-4.128 1.536-1.44-.144-2.736-.96-3.456-2.064-1.296-1.92-1.584-4.32-1.2-6.528.288-1.584 1.056-3.6 2.064-4.848.336-.24.624-.576 1.104-.528a.522.522 0 0 1 .288.768c-.912 1.536-1.776 3.456-2.016 5.424-.192 1.872.048 3.744 1.2 5.232.72.912 1.968 1.248 3.168 1.008 2.4-.768 3.6-3.024 4.032-5.04.384-1.632.336-3.408-.048-5.04a7.055 7.055 0 0 0-1.92-3.504c-.432-.432-1.296-.624-1.92-.48-.72.144-1.296.672-1.68 1.248-.24.192-.576-.096-.576-.288.048-.72.768-1.728 1.536-2.064.96-.48 2.448-.48 3.36.24 1.536 1.2 2.112 2.4 2.592 4.08.528 1.968.576 4.08.144 6.144-.384 1.776-1.248 3.456-2.544 4.704zm-5.76 5.664c-.288.096-1.104.144-1.488.24-.384.192-.96.144-1.392.144-.24-.096-.384-.048-.576-.096-.144-.048-.288-.096-.432-.288-.096-.192-.144-.48-.096-.72.048-.192.144-.384.288-.528.288-.288.528-.384.768-.432.336-.096.576-.048.816-.096.48 0 1.392.048 1.824.096.288.144.576.096.912.192.336-.144 3.12-.096 3.552 0 1.056-.096 2.304 0 3.168.24.288.096 1.008.096 1.248.384-.096.672-1.632 1.008-2.304.816-.384.096-1.248-.144-1.824 0-.48-.096-1.536.096-1.968.048-.768-.048-1.968-.096-2.496 0zM60.916 22.2c-.192.143-.336.191-.528.287-1.92.96-5.856 2.832-8.016 4.032a492.707 492.707 0 0 0-11.808 6.816c-.48.288-1.584.864-2.112 1.248-.768.24-1.056-.768-.912-1.248 1.92-1.536 3.888-3.216 5.712-5.04 1.584-1.632 3.12-3.36 4.272-5.136 1.488-2.256 2.4-4.656 2.688-7.248.192-1.728-.096-3.264-.864-4.656-.816-1.488-2.112-2.784-3.648-3.84C43.492 5.88 41.14 4.68 38.5 4.2c-.288-.048-.528 0-.816.096-.288.096-.576.192-1.008.048-.192-.384-.096-.72.096-1.056L36.964 3c.528-.576 1.536-.48 2.16-.336 2.88.576 5.568 1.872 7.968 3.696 1.584 1.2 2.928 2.736 3.792 4.464.912 1.728 1.248 3.744.912 5.856-.432 2.64-1.536 5.04-2.976 7.296-1.2 1.824-2.784 3.648-4.464 5.376 2.544-1.68 4.848-2.736 7.824-4.512 2.736-1.68 5.376-2.688 8.4-3.84.432-.144 1.056.144.816.72-.096.24-.288.384-.48.48zM94.09 19.607c-4.512-.192-9.024.528-13.536.192-.864-.048-1.92-.288-2.544-1.008-.336-.384.048-1.248.624-1.152 2.064.24 4.128.336 6.192.288 2.688-.048 5.52-.24 7.968-.144.48 0 1.584.192 1.92.768.336.48-.096 1.104-.624 1.056zM123.38 30.263c-2.256 4.896-4.032 9.936-5.76 15.024-.144.288-.816.384-.96 0-.24-.432-.096-1.584 0-2.016.768-3.264 2.16-6.288 3.312-9.408-1.392-2.064-3.168-4.896-4.512-7.344-1.68-3.12-3.072-6.384-3.6-9.984-.096-.48.192-.96.576-1.152.288-.096.48.048.624.192.144.144.24.336.336.528.48 2.88 1.44 5.568 2.64 8.112 1.344 2.736 2.928 5.328 4.704 7.92 1.104-2.4 2.256-4.8 3.504-7.152 1.248-2.4 2.64-4.704 4.32-6.96.336-.432.816-.912 1.248-.672.288.144.528.576.288.912-2.544 3.888-4.8 7.872-6.72 12zM154.843 32.951c-1.44.96-3.216 1.728-4.992 1.728-1.008 0-1.728-.432-2.4-1.392-.24.192-.672.336-.864.048-.864-1.2-1.104-2.88-1.152-4.512-.096-4.176-.048-7.248 1.056-10.992.096-.384 1.008-1.104 1.68-.912.288-.768 1.056-1.584 1.968-1.68 2.448 0 5.088 1.296 5.904 3.744.24.768.24 1.584-.048 2.352a4.33 4.33 0 0 1-1.392 1.824l-.288.24c1.2.384 2.544 1.152 3.312 2.352.576.912.624 2.016.384 3.072-.432 1.728-1.68 3.12-3.168 4.128zm1.344-6.384c-.384-.72-1.44-1.152-2.208-1.536-.912-.576-1.728-.336-2.64-.144l-1.44.336a3.135 3.135 0 0 1-1.632 0c-.24-.144-.528-.624-.288-.864.576-.576 1.296-.864 2.112-1.056l2.208-.24c.864-.48 1.776-1.44 2.16-2.352.24-.768.096-1.296-.384-1.92-.864-1.2-2.256-1.728-3.648-1.872-.432-.048-.576.048-.672.336-.144.384-.24.816-.48 1.152-.096.24-.432.336-.672.192a.928.928 0 0 1-.432-.24c-.576 2.064-.912 4.416-1.008 6.864-.096 2.304 0 4.56.336 6.672.384-.432.864-1.056 1.104-1.392.336-.336.96.192.864.528-.096.24-.288.528-.432.768-.096.288-.24.528-.24.72.288.432.96.576 1.776.48 1.2-.192 2.64-.864 3.696-1.68.96-.768 1.776-1.728 2.016-2.928.144-.576.24-1.248-.096-1.824zM169.463 34.055c-2.64.72-5.712.672-7.776-1.104-.96-.816-1.68-2.016-1.728-3.312-.048-1.152.432-2.208 1.104-3.168 1.488-2.112 4.08-3.552 6.576-3.84 1.056-.096 2.016.048 2.784.816.24.24 0 .72-.24.816h-.432c-.144 0-.336-.048-.48-.048-.336-.048-.624-.096-.816.048-2.304.096-4.56 1.2-5.952 3.072-.624.816-.96 1.44-.864 2.448.096 1.344 1.104 2.352 2.496 2.832 1.968.72 4.416.288 6.288-.384 1.008-.384 1.92-.768 2.784-1.392.192-.144.384 0 .48.24.048.192.048.384.048.528-.672 1.296-3.36 2.208-4.272 2.448zm2.688-3.264c-.24.288-.672.24-.864.096-.48-.336-.48-.96-.48-1.44.048-.816.192-1.632.384-2.496l.624-2.64c.384-1.728.624-3.456.096-4.896-.432-1.248-1.488-2.496-2.784-2.64-1.104-.144-2.208.24-3.12.912-.48.336-1.536 1.248-1.824 1.776-.048.192.048.528.24.72.192.192.048.768-.384.672-.336-.096-.72-.192-1.008-.432-.384-.336-.528-.96-.24-1.44.816-1.392 1.968-2.544 3.456-3.216.96-.48 2.112-.672 3.312-.48 1.44.24 2.688 1.296 3.408 2.64 1.104 2.064.96 4.656.432 6.96-.48 1.968-.96 3.792-1.248 5.904zM184.775 34.055c-1.824.24-3.744.096-5.568-1.008-2.4-1.44-3.456-3.936-3.312-6.72a12.26 12.26 0 0 1 2.016-6 12.074 12.074 0 0 1 4.896-4.272c1.056-.528 2.496-.768 3.648-.288.96.384 1.968 1.392 2.16 2.352.096.288-.384.912-.768.624-.528-.48-1.2-1.104-1.872-1.392-.672-.288-1.296-.336-2.016-.048-1.872.768-3.6 2.256-4.752 4.032-1.056 1.632-1.68 3.552-1.728 5.52 0 1.776.672 3.456 2.16 4.56 1.392 1.008 3.216 1.248 4.896 1.104 2.832-.24 5.328-1.44 7.824-2.544.288 0 .72.48.48.816-2.4 1.344-5.136 2.832-8.064 3.264zM215.025 34.247c-2.4-.096-4.608-1.2-6-3.264-1.152-1.728-1.44-3.744-1.2-5.712.288-2.208 1.2-4.32 2.448-5.952 1.392-1.824 3.36-3.264 5.616-3.696 1.536-.288 3.168-.144 4.32 1.104.528.576 1.008 1.2 1.008 1.968.048.816-.336 1.536-1.008 2.064-3.36 2.784-6.912 5.376-10.56 7.488.096 1.488 1.392 3.024 2.784 3.792 1.392.768 3.024.864 4.56.672 1.536-.144 3.12-.672 4.224-1.2.192-.144.336 0 .384.144.048.096.144.288-.048.432-1.68 1.536-4.08 2.256-6.528 2.16zm2.112-17.136c-1.392 0-2.784.576-3.888 1.44-2.352 1.92-3.744 4.992-3.744 7.968 3.408-1.872 6.624-4.32 9.744-6.864.24-.192.432-.912.096-1.488-.384-.768-1.248-1.056-2.208-1.056zM232.213 34.055c-1.824.24-3.744.096-5.568-1.008-2.4-1.44-3.456-3.936-3.312-6.72a12.26 12.26 0 0 1 2.016-6 12.074 12.074 0 0 1 4.896-4.272c1.056-.528 2.496-.768 3.648-.288.96.384 1.968 1.392 2.16 2.352.096.288-.384.912-.768.624-.528-.48-1.2-1.104-1.872-1.392-.672-.288-1.296-.336-2.016-.048-1.872.768-3.6 2.256-4.752 4.032-1.056 1.632-1.68 3.552-1.728 5.52 0 1.776.672 3.456 2.16 4.56 1.392 1.008 3.216 1.248 4.896 1.104 2.832-.24 5.328-1.44 7.824-2.544.288 0 .72.48.48.816-2.4 1.344-5.136 2.832-8.064 3.264zM256.399 17.687c-1.248-.288-2.496-.576-3.792-.624-1.056 1.344-1.584 2.928-1.872 4.608-.336 1.728-.288 3.552-.384 5.328-.096 2.4.096 4.704.384 6.96-.144.288-.576.48-.912.288-.816-1.008-1.008-2.304-1.056-3.6-.048-2.88-.096-5.904.336-8.736.288-1.824.816-3.504 1.92-5.04-2.976-.144-5.712.48-8.448 1.248a1.514 1.514 0 0 1-1.056-.672c-.096-.336.096-.528.288-.624l.288-.096.24-.096c2.016-.816 4.464-1.248 6.816-1.296 2.4-.096 4.8.144 6.912.912.24.096.672.432.816.72.048.336-.192.768-.48.72zM268.764 31.031c-1.056 1.056-2.304 1.968-3.696 2.544-1.2.48-2.592.624-4.032.192-.048.24-.24.528-.48.528-.768-.288-1.056-1.008-1.2-1.632-.336-5.808.288-11.52 1.296-16.944.24-.528 1.2-.816 1.488-.048-.288 2.784-.816 5.568-.96 8.352 1.68-1.296 3.84-1.92 5.952-1.44 1.392.336 2.784 1.584 3.216 2.976.672 2.016-.048 4.032-1.584 5.472zm-2.016-6.768c-2.16-.528-4.176.432-5.712 2.064 0 1.776 0 4.464-.048 5.952a5.745 5.745 0 0 0 3.6-.336c1.44-.576 2.736-1.68 3.744-2.976.72-.912.768-2.352.192-3.36-.336-.672-1.104-1.2-1.776-1.344zM295.65 34.055c-2.64.72-5.712.672-7.776-1.104-.96-.816-1.68-2.016-1.728-3.312-.048-1.152.432-2.208 1.104-3.168 1.488-2.112 4.08-3.552 6.576-3.84 1.056-.096 2.016.048 2.784.816.24.24 0 .72-.24.816h-.432c-.144 0-.336-.048-.48-.048-.336-.048-.624-.096-.816.048-2.304.096-4.56 1.2-5.952 3.072-.624.816-.96 1.44-.864 2.448.096 1.344 1.104 2.352 2.496 2.832 1.968.72 4.416.288 6.288-.384 1.008-.384 1.92-.768 2.784-1.392.192-.144.384 0 .48.24.048.192.048.384.048.528-.672 1.296-3.36 2.208-4.272 2.448zm2.688-3.264c-.24.288-.672.24-.864.096-.48-.336-.48-.96-.48-1.44.048-.816.192-1.632.384-2.496l.624-2.64c.384-1.728.624-3.456.096-4.896-.432-1.248-1.488-2.496-2.784-2.64-1.104-.144-2.208.24-3.12.912-.48.336-1.536 1.248-1.824 1.776-.048.192.048.528.24.72.192.192.048.768-.384.672-.336-.096-.72-.192-1.008-.432-.384-.336-.528-.96-.24-1.44.816-1.392 1.968-2.544 3.456-3.216.96-.48 2.112-.672 3.312-.48 1.44.24 2.688 1.296 3.408 2.64 1.104 2.064.96 4.656.432 6.96-.48 1.968-.96 3.792-1.248 5.904zM317.923 33.623c-.624.048-1.056-.624-1.344-1.104a29.232 29.232 0 0 1-2.544-5.904c-.816-2.544-1.248-5.136-1.44-7.92-1.44 2.208-3.84 6.24-5.328 8.4-1.536 2.304-3.072 4.752-4.32 7.056-.144.336-.672.096-.864-.192-.24-.432-.144-1.008-.048-1.44.288-.432.816-1.536 1.104-2.16 3.12-4.752 6.384-9.6 9.264-14.352.336-.336 1.488-.528 1.584.384.24 2.928.672 5.856 1.344 8.64.672 2.784 1.68 5.376 2.976 7.872.048.144 0 .672-.384.72zM335.688 33.623c-.624.048-1.056-.624-1.344-1.104a29.232 29.232 0 0 1-2.544-5.904c-.816-2.544-1.248-5.136-1.44-7.92-1.44 2.208-3.84 6.24-5.328 8.4-1.536 2.304-3.072 4.752-4.32 7.056-.144.336-.672.096-.864-.192-.24-.432-.144-1.008-.048-1.44.288-.432.816-1.536 1.104-2.16 3.12-4.752 6.384-9.6 9.264-14.352.336-.336 1.488-.528 1.584.384.24 2.928.672 5.856 1.344 8.64.672 2.784 1.68 5.376 2.976 7.872.048.144 0 .672-.384.72zM345.15 34.247c-2.4-.096-4.608-1.2-6-3.264-1.152-1.728-1.44-3.744-1.2-5.712.288-2.208 1.2-4.32 2.448-5.952 1.392-1.824 3.36-3.264 5.616-3.696 1.536-.288 3.168-.144 4.32 1.104.528.576 1.008 1.2 1.008 1.968.048.816-.336 1.536-1.008 2.064-3.36 2.784-6.912 5.376-10.56 7.488.096 1.488 1.392 3.024 2.784 3.792 1.392.768 3.024.864 4.56.672 1.536-.144 3.12-.672 4.224-1.2.192-.144.336 0 .384.144.048.096.144.288-.048.432-1.68 1.536-4.08 2.256-6.528 2.16zm2.112-17.136c-1.392 0-2.784.576-3.888 1.44-2.352 1.92-3.744 4.992-3.744 7.968 3.408-1.872 6.624-4.32 9.744-6.864.24-.192.432-.912.096-1.488-.384-.768-1.248-1.056-2.208-1.056zM356.146 17.687h-.24a.397.397 0 0 1-.384-.336c-.048-.384.096-.72.384-1.008.768-.672 1.632-.96 2.592-.912.672.048 1.344.144 2.016.384l1.824.624c2.592.864 4.848 3.168 6.096 5.664.672 1.392.912 2.832.576 4.416-.336 1.44-1.2 2.784-2.352 3.888-2.88 2.736-6.48 3.552-10.464 3.552-.048 3.264-.24 6.912.192 10.128 0 .144.096.336.192.48.048.24.144.432-.048.72-.384.288-.768.192-1.104 0-.48-.528-.672-1.104-.72-1.776-.336-3.408-.192-6.72 0-10.176-.432-.384-1.104-.912-1.248-1.488 0-.192.048-.384.144-.48.144-.24.336-.288.432-.192.144.144.432.336.672.48.288-4.8.624-9.36 1.44-13.968zm9.504 3.12c-1.056-1.296-2.544-2.208-3.984-2.832-.816-.384-3.12-1.248-3.984-.864.048.672-.048 1.872-.144 2.4-.672 4.08-1.104 8.448-1.152 12.768 3.312.24 6.48-.768 9.024-2.976 1.392-1.2 2.208-2.88 2.064-4.608-.096-1.44-1.008-2.88-1.824-3.888zM385.922 19.655c-1.776-.912-3.696-1.488-5.664-1.824-2.064-.336-4.416-.48-6.096-.432-.144.048-.384.096-.384.24.048 4.656-.384 9.696-.672 14.448-.096.336-.096.672-.192 1.008-.048.336-.144.672-.384.912-.24.24-1.104.576-1.248 0 .192-2.832.624-9.408.72-11.904l.192-5.568c.576-.672 1.344-.816 2.16-.768.384 0 .816 0 1.2.048s.768.048 1.152 0c2.928.192 5.76.768 8.256 2.064.624.288 1.2.72 1.584 1.392.096.384-.432.528-.624.384zM403.459 34.2c-1.008-1.153-1.296-2.689-1.536-4.177-.48-3.456-.384-7.152-.48-10.752-2.928 4.176-5.232 8.4-8.016 13.152-.288.336-.432.576-.912.768-.432 0-.816-.048-1.152-.528-2.304-4.272-2.736-9.504-2.4-14.688 0-.336.096-.912.48-1.056.624-.192 1.104.336 1.104.72-.288 4.8.24 9.36 1.824 13.488 1.68-2.88 3.024-5.28 4.464-7.632a90.415 90.415 0 0 1 5.088-7.488c.384-.288.912-.096 1.104.288.144 4.608.096 9.12.48 13.536.096 1.44.432 2.832.528 4.176 0 .192-.432.384-.576.192zM421.694 34.2c-1.008-1.153-1.296-2.689-1.536-4.177-.48-3.456-.384-7.152-.48-10.752-2.928 4.176-5.232 8.4-8.016 13.152-.288.336-.432.576-.912.768-.432 0-.816-.048-1.152-.528-2.304-4.272-2.736-9.504-2.4-14.688 0-.336.096-.912.48-1.056.624-.192 1.104.336 1.104.72-.288 4.8.24 9.36 1.824 13.488 1.68-2.88 3.024-5.28 4.464-7.632a90.415 90.415 0 0 1 5.088-7.488c.384-.288.912-.096 1.104.288.144 4.608.096 9.12.48 13.536.096 1.44.432 2.832.528 4.176 0 .192-.432.384-.576.192zM439.448 13.847c-2.256 3.696-4.848 7.344-6.912 11.232-.24.192-.672.096-.768-.144-.096-.528-.048-1.008.096-1.392.096-.432.24-.768.384-1.2 1.632-2.976 3.648-5.808 5.424-8.688.528-.912.816-2.112.72-3.312a4.337 4.337 0 0 0-.96-2.448c-1.152-1.44-2.592-2.544-4.176-3.072-1.056-.384-2.16-.48-3.36-.24-.768.144-1.44.48-2.112 1.104-.624.576-1.152 1.296-1.392 2.112-.288.24-.816.24-.96-.192-.144-.624.096-1.152.288-1.728.816-1.392 1.968-2.352 3.312-2.832a7.237 7.237 0 0 1 3.504-.288c1.392.24 2.64.816 3.792 1.632a10.317 10.317 0 0 1 2.928 3.168c.624.96.912 2.256.864 3.504 0 .96-.192 2.016-.672 2.784zm-3.072 20.736c-1.2 0-2.4-.288-3.456-.816-1.104-.576-2.064-1.296-2.784-2.352-.192-.288-.24-.768-.144-1.152.096-.384.384-.624.864-.432l1.152 1.248c.384.384.816.768 1.2 1.056 1.104.816 2.496 1.248 3.888 1.68.144.336-.384.672-.72.768z" fill="#fff"/></svg>