<svg width="272" height="47" fill="none" xmlns="http://www.w3.org/2000/svg"><path d="M10.938 16.035c-.322-.871-1.554-.871-1.876 0L7.46 20.367a1 1 0 0 1-.591.59l-4.333 1.604c-.871.322-.871 1.554 0 1.876l4.333 1.603a1 1 0 0 1 .59.591l1.604 4.333c.322.871 1.554.871 1.876 0l1.603-4.333a1 1 0 0 1 .591-.59l4.333-1.604c.871-.322.871-1.554 0-1.876l-4.333-1.603a1 1 0 0 1-.59-.591l-1.604-4.333z" fill="gold"/><path d="M38.922 5.086c-.343 1.36-.501 2.824-.66 4.262-.132.994-.184 1.988-.21 3.008-.054 1.49-.054 2.981-.107 4.498-.079.261-.29.418-.528.418-.343 0-.501-.34-.58-.627l-.106-.21a67.553 67.553 0 0 0-2.43-7.95c-.448-1.229-.87-2.432-1.346-3.634a35.146 35.146 0 0 0-1.636-3.53c-.027 0-.053-.053-.053-.027-.713 2.301-1.215 4.629-1.452 7.087-.212 2.223-.238 4.498-.159 6.8.053.313.053.653.106.993.026.314.079.627.184.915.027.183-.105.314-.264.366-.475-.104-.58-.497-.66-.915l-.079-.366c-.211-1.91-.237-3.87-.132-5.832.132-2.327.476-4.655.95-6.799.265-1.125.608-2.301 1.057-3.347.079-.183.396-.262.58-.131.16.13.238.288.344.47.66 1.047 1.188 2.145 1.637 3.243l1.346 3.348c1.004 2.51 1.822 5.099 2.509 7.74.026-2.223.052-4.55.29-6.747.185-1.909.58-3.791 1.373-5.439.053-.105.105-.235.185-.34.185-.366.449-.758.95-.732.29.157.185.444.053.627-.58.863-.898 1.831-1.162 2.85zm6.6 8.525c-.606.55-1.346.915-2.27.837-.792-.079-1.505-.523-1.9-1.125-.713-1.046-.872-2.353-.66-3.556.158-.863.58-1.961 1.135-2.641.184-.131.343-.314.607-.288a.283.283 0 0 1 .158.418c-.501.837-.977 1.883-1.109 2.955-.105 1.02.027 2.04.66 2.85.396.498 1.083.68 1.743.55 1.32-.418 1.98-1.648 2.218-2.746.211-.889.185-1.857-.027-2.746a3.834 3.834 0 0 0-1.056-1.909c-.237-.235-.713-.34-1.056-.261-.396.078-.713.366-.924.68-.132.104-.317-.053-.317-.157.027-.392.423-.942.845-1.125.528-.261 1.347-.261 1.848.131.845.654 1.162 1.308 1.426 2.223a7.16 7.16 0 0 1 .08 3.347c-.212.968-.687 1.883-1.4 2.563zm-3.167 3.086c-.159.052-.608.078-.819.13-.211.105-.528.079-.766.079-.132-.052-.21-.026-.316-.052a.42.42 0 0 1-.238-.157c-.053-.105-.08-.262-.053-.392a.621.621 0 0 1 .159-.288.775.775 0 0 1 .422-.236c.185-.052.317-.026.449-.052.264 0 .766.026 1.003.053.159.078.317.052.502.104.185-.078 1.716-.052 1.954 0 .58-.052 1.267 0 1.742.13.159.053.555.053.687.21-.053.366-.898.55-1.268.445-.21.052-.686-.079-1.003 0-.264-.053-.845.052-1.082.026-.423-.026-1.083-.052-1.373 0zM60.514 11.833l-.264.967c-.554 1.177-1.32 2.406-2.297 3.478-1.03 1.125-2.297 2.04-3.696 2.406-.238.053-.819-.026-.792-.444a7.898 7.898 0 0 0 2.587-1.36 10.987 10.987 0 0 0 2.165-2.25 8.707 8.707 0 0 0 1.479-3.32c.053-.21.026-.863-.238-1.099-.449-.392-1.109-.601-1.769-.653-.765-.053-1.531.13-2.165.366-.897.34-1.716.941-2.482 1.543-.343.052-.528-.419-.396-.68.845-.837 1.637-1.726 2.271-2.668a7.288 7.288 0 0 0 1.056-2.405 2.564 2.564 0 0 0-.08-1.543 2.693 2.693 0 0 0-1.029-1.386 4.032 4.032 0 0 0-2.006-.628 3.29 3.29 0 0 0-1.505.288c-.08.052-.159.13-.238.157a.285.285 0 0 1-.29.026c-.185-.131-.159-.366-.027-.497.317-.445.766-.654 1.267-.759.74-.13 1.585.027 2.218.21.845.261 1.822.863 2.245 1.778.37.81.422 1.674.29 2.458-.238 1.255-.924 2.432-1.769 3.426a5.387 5.387 0 0 1 2.667-.575c.844.026 1.663.287 2.323.81.449.34.58.81.607 1.308 0 .34-.053.706-.132 1.046zM80.504 10.682c-2.482-.104-4.964.288-7.445.105-.476-.026-1.056-.157-1.4-.55-.184-.209.027-.68.344-.627 1.135.13 2.27.183 3.406.157 1.478-.026 3.036-.13 4.382-.079.264 0 .871.105 1.056.419.185.261-.052.601-.343.575zM99.44 18.606c-1.267-.706-2.56-1.203-3.907-1.674-1.32-.47-2.588-.941-3.855-1.49a9.623 9.623 0 0 0 .343 2.772c.08.157.026.444-.211.444-.211 0-.343-.13-.423-.261-.079-.105-.132-.262-.21-.393-.291-.941-.397-1.96-.397-3.007a.585.585 0 0 1-.237-.261c-.08-.079-.106-.236-.027-.367a.731.731 0 0 0 .238-.34c.053-.34.026-1.124.105-1.464.106-.601.264-1.334.423-2.066.185-.732.449-1.464.792-2.092.158-.261.554-.21.634.078-.027.34-.132.654-.238.968-.08.288-.238.602-.317.915a11.89 11.89 0 0 0-.449 2.903 47.14 47.14 0 0 1 2.878-2.354c1.215-.889 2.508-1.647 3.881-2.196.212 0 .476 0 .634.13.158.105.158.262.08.445-1.4.575-2.668 1.334-3.961 2.223a33.5 33.5 0 0 0-3.564 2.929v.026c1.293.706 2.719 1.177 4.092 1.648 1.214.418 2.376.889 3.485 1.595.238.13.422.314.554.549.027.157-.184.366-.343.34zM105.771 18.553c-1.453.393-3.142.367-4.278-.6-.528-.445-.924-1.1-.95-1.805-.027-.628.237-1.203.607-1.726.819-1.15 2.244-1.936 3.617-2.092.581-.053 1.109.026 1.532.444.132.131 0 .393-.132.445h-.238c-.079 0-.185-.026-.264-.026-.185-.027-.343-.053-.449.026-1.267.052-2.508.654-3.274 1.673-.343.445-.528.785-.475 1.334.053.732.607 1.282 1.373 1.543 1.082.392 2.429.157 3.459-.21.554-.208 1.056-.418 1.531-.758.106-.078.211 0 .264.131.026.105.026.21.026.288-.369.706-1.848 1.203-2.349 1.334zm1.478-1.778c-.132.157-.37.131-.475.053-.264-.183-.264-.523-.264-.785.026-.444.105-.89.211-1.36l.343-1.438c.211-.941.343-1.883.053-2.667-.238-.68-.818-1.36-1.531-1.439-.608-.078-1.215.131-1.716.497-.264.183-.845.68-1.004.968-.026.104.027.287.132.392.106.105.027.418-.211.366-.185-.052-.396-.104-.554-.235a.628.628 0 0 1-.132-.785c.448-.758 1.082-1.386 1.901-1.752.528-.261 1.161-.366 1.821-.261.792.13 1.479.706 1.875 1.438.607 1.124.528 2.537.238 3.792-.265 1.072-.529 2.066-.687 3.216zM118.391 18.606c-1.267-.706-2.561-1.203-3.908-1.674-1.32-.47-2.587-.941-3.854-1.49a9.589 9.589 0 0 0 .343 2.772c.079.157.026.444-.211.444-.211 0-.343-.13-.423-.261-.079-.105-.132-.262-.211-.393-.29-.941-.396-1.96-.396-3.007a.588.588 0 0 1-.238-.261c-.079-.079-.105-.236-.026-.367a.734.734 0 0 0 .238-.34c.052-.34.026-1.124.105-1.464a57.53 57.53 0 0 1 .423-2.066c.185-.732.449-1.464.792-2.092.158-.261.554-.21.633.078-.026.34-.132.654-.237.968-.079.288-.238.602-.317.915a11.919 11.919 0 0 0-.449 2.903 47.266 47.266 0 0 1 2.878-2.354c1.215-.889 2.508-1.647 3.881-2.196.211 0 .475 0 .634.13.158.105.158.262.079.445-1.399.575-2.667 1.334-3.96 2.223a33.527 33.527 0 0 0-3.565 2.929v.026c1.294.706 2.72 1.177 4.093 1.648 1.214.418 2.376.889 3.485 1.595.237.13.422.314.554.549.027.157-.185.366-.343.34zM125.645 18.03c-1.188.602-2.613.863-3.907.236a4.006 4.006 0 0 1-2.059-2.38c-.396-1.229-.264-2.615.264-3.766a5.876 5.876 0 0 1 1.716-2.118c.475-.34 1.188-.758 1.848-.837.528-.601 1.399-.784 2.138-.601 1.268.34 2.35 1.621 2.694 2.746.343 1.098.422 2.301.105 3.425-.396 1.517-1.399 2.616-2.799 3.296zm1.822-6.433c-.317-.863-1.029-1.83-1.954-2.144-.422-.157-.871-.21-1.214.052-.343.262-.554.68-.713 1.046-.026.079-.026.183-.026.288 0 .105 0 .235-.027.34-.026.052-.29.21-.369.052a4.337 4.337 0 0 1-.08-1.072c-1.003.418-1.848 1.281-2.323 2.25-.502 1.019-.528 2.196-.211 3.242.264.81.766 1.49 1.61 1.83 1.056.393 2.192.262 3.142-.209 1.083-.549 1.848-1.386 2.218-2.51.343-.994.29-2.17-.053-3.165zM133.771 18.658c-1.32-.052-2.534-.654-3.3-1.778-.634-.941-.792-2.04-.66-3.112a6.87 6.87 0 0 1 1.346-3.243c.766-.993 1.849-1.778 3.089-2.013.845-.157 1.743-.079 2.377.601.29.314.554.654.554 1.072.027.445-.185.837-.554 1.125-1.849 1.516-3.802 2.929-5.809 4.08.053.81.766 1.647 1.531 2.065.766.419 1.664.47 2.509.366.845-.078 1.716-.366 2.323-.654.106-.078.185 0 .211.079.027.052.08.157-.026.235-.924.837-2.244 1.23-3.591 1.177zm1.162-9.336c-.766 0-1.531.314-2.139.785-1.293 1.046-2.059 2.72-2.059 4.34 1.875-1.019 3.643-2.353 5.36-3.739.132-.104.237-.497.052-.81-.211-.419-.686-.576-1.214-.576zM154.032 10.708c-.977-.497-2.033-.81-3.115-.993a19.408 19.408 0 0 0-3.353-.236c-.079.026-.211.053-.211.131.026 2.537-.212 5.282-.37 7.871-.053.183-.053.366-.106.55-.026.183-.079.366-.211.496-.132.131-.607.314-.686 0 .105-1.543.343-5.125.396-6.485l.105-3.034c.317-.366.74-.444 1.188-.418.212 0 .449 0 .66.026.212.026.423.026.634 0 1.611.105 3.168.419 4.541 1.125.343.157.66.392.872.758.052.21-.238.288-.344.21zM163.916 18.318c-.343.026-.581-.34-.739-.601a15.885 15.885 0 0 1-1.4-3.217c-.448-1.386-.686-2.798-.792-4.315-.792 1.203-2.112 3.4-2.93 4.577-.845 1.255-1.69 2.589-2.376 3.844-.08.183-.37.052-.476-.105-.132-.235-.079-.549-.026-.784.158-.236.449-.837.607-1.177 1.716-2.589 3.512-5.23 5.096-7.82.185-.182.818-.287.871.21.132 1.595.37 3.19.739 4.707.37 1.517.924 2.93 1.637 4.289.027.078 0 .366-.211.392zM170.229 18.553c-1.452.393-3.142.367-4.277-.6-.528-.445-.924-1.1-.95-1.805-.027-.628.237-1.203.607-1.726.818-1.15 2.244-1.936 3.617-2.092.581-.053 1.109.026 1.531.444.132.131 0 .393-.132.445h-.237c-.079 0-.185-.026-.264-.026-.185-.027-.344-.053-.449.026-1.267.052-2.508.654-3.274 1.673-.343.445-.528.785-.475 1.334.053.732.607 1.282 1.373 1.543 1.082.392 2.429.157 3.458-.21.555-.208 1.056-.418 1.532-.758.105-.078.211 0 .264.131.026.105.026.21.026.288-.37.706-1.848 1.203-2.35 1.334zm1.479-1.778c-.132.157-.37.131-.475.053-.264-.183-.264-.523-.264-.785.026-.444.105-.89.211-1.36l.343-1.438c.211-.941.343-1.883.053-2.667-.238-.68-.819-1.36-1.532-1.439-.607-.078-1.214.131-1.716.497-.264.183-.845.68-1.003.968-.026.104.026.287.132.392.106.105.026.418-.211.366-.185-.052-.396-.104-.555-.235a.63.63 0 0 1-.132-.785c.449-.758 1.083-1.386 1.901-1.752a3.032 3.032 0 0 1 1.822-.261c.792.13 1.479.706 1.875 1.438.607 1.124.528 2.537.237 3.792-.264 1.072-.528 2.066-.686 3.216zM179.153 17.952c-.792.523-1.768.941-2.745.941-.555 0-.951-.235-1.32-.758-.132.105-.37.183-.476.026-.475-.654-.607-1.569-.633-2.458-.053-2.275-.027-3.949.58-5.988.053-.21.555-.602.925-.497.158-.419.58-.863 1.082-.916 1.347 0 2.799.707 3.248 2.04.132.419.132.863-.027 1.282a2.353 2.353 0 0 1-.766.993l-.158.131c.66.21 1.399.628 1.822 1.281.317.497.343 1.099.211 1.674-.238.942-.924 1.7-1.743 2.25zm.74-3.478c-.211-.392-.792-.628-1.215-.837-.501-.314-.95-.183-1.452-.078l-.792.183c-.29.078-.581.078-.898 0-.132-.079-.29-.34-.158-.47.317-.315.713-.472 1.162-.576l1.214-.131c.475-.261.977-.784 1.188-1.281.132-.419.053-.707-.211-1.046-.475-.654-1.241-.942-2.007-1.02-.237-.026-.316.026-.369.183-.079.209-.132.444-.264.627-.053.131-.238.183-.37.105a.509.509 0 0 1-.237-.13c-.317 1.124-.502 2.405-.555 3.739-.053 1.255 0 2.484.185 3.635a10.8 10.8 0 0 0 .607-.759c.185-.183.528.105.475.288-.052.13-.158.288-.237.418-.053.157-.132.288-.132.393.158.235.528.314.977.261.66-.104 1.452-.47 2.033-.915.528-.418.977-.941 1.109-1.595.079-.314.132-.68-.053-.994zM190.205 12.748c-.185 1.857-.079 4.027.053 5.858.026.183-.238.209-.37.13-.37-.287-.555-1.045-.581-1.516a38.833 38.833 0 0 1 0-4.289c-1.954.079-4.066.026-5.993.236-.079 1.752-.027 3.425.053 5.099.026.052-.08.13-.212.157a.442.442 0 0 1-.29-.105c-.343-.34-.423-.967-.449-1.386-.132-2.641.053-5.282.317-7.871.053-.157.29-.314.502-.183.29.13.29.47.343.732-.053.68-.132 1.83-.211 2.641 1.927-.13 4.065-.052 5.993-.078.105-1.282.158-2.563.475-3.766.132-.157.396-.052.555.105.132.157.211.47.211.653-.132.994-.317 1.962-.343 2.982.079 0 .158-.027.237-.027.053 0 .132.053.132.184 0 .052 0 .156-.053.209-.079.104-.237.183-.369.235zM198.149 18.03c-1.188.602-2.614.863-3.908.236a4.006 4.006 0 0 1-2.059-2.38c-.396-1.229-.264-2.615.264-3.766a5.876 5.876 0 0 1 1.716-2.118c.475-.34 1.188-.758 1.848-.837.528-.601 1.399-.784 2.139-.601 1.267.34 2.35 1.621 2.693 2.746.343 1.098.422 2.301.105 3.425-.396 1.517-1.399 2.616-2.798 3.296zm1.821-6.433c-.316-.863-1.029-1.83-1.953-2.144-.423-.157-.872-.21-1.215.052-.343.262-.554.68-.713 1.046-.026.079-.026.183-.026.288 0 .105 0 .235-.026.34-.027.052-.291.21-.37.052a4.294 4.294 0 0 1-.079-1.072c-1.004.418-1.848 1.281-2.324 2.25-.501 1.019-.528 2.196-.211 3.242.264.81.766 1.49 1.611 1.83 1.056.393 2.191.262 3.141-.209 1.083-.549 1.849-1.386 2.218-2.51.344-.994.291-2.17-.053-3.165zM206.274 18.658c-1.32-.052-2.534-.654-3.3-1.778-.634-.941-.792-2.04-.66-3.112a6.872 6.872 0 0 1 1.347-3.243c.765-.993 1.848-1.778 3.089-2.013.845-.157 1.742-.079 2.376.601.29.314.554.654.554 1.072.027.445-.184.837-.554 1.125-1.848 1.516-3.802 2.929-5.809 4.08.053.81.766 1.647 1.532 2.065.765.419 1.663.47 2.508.366.845-.078 1.716-.366 2.323-.654.106-.078.185 0 .212.079.026.052.079.157-.027.235-.924.837-2.244 1.23-3.591 1.177zm1.162-9.336c-.766 0-1.531.314-2.138.785-1.294 1.046-2.06 2.72-2.06 4.34 1.875-1.019 3.644-2.353 5.36-3.739.132-.104.237-.497.053-.81-.212-.419-.687-.576-1.215-.576zM226.641 2.68c-.581.21-1.214.34-1.795.55-1.056.34-1.769.784-2.508 1.594-.74.785-1.215 1.726-1.637 2.72-.423 1.02-.713 2.144-1.03 3.217.95-.654 2.059-1.23 3.221-1.413a4.365 4.365 0 0 1 3.063.602c.95.601 1.584 1.647 1.848 2.746.264 1.177.158 2.275-.449 3.32a5.282 5.282 0 0 1-2.35 2.198c-.845.418-1.954.549-2.957.392-1.162-.157-2.086-.68-2.772-1.595-.739-.994-.951-2.197-.924-3.426.053-1.7.554-3.53 1.003-4.916.555-1.674 1.347-3.505 2.72-4.812a6.343 6.343 0 0 1 2.297-1.412c.58-.183 1.188-.314 1.795-.497.581-.183 1.135-.419 1.637-.837.158-.026.422 0 .475.157.106.157.106.366 0 .497a4.442 4.442 0 0 1-1.637.915zm-.053 9.31a2.945 2.945 0 0 0-1.795-1.57c-.766-.26-1.743-.209-2.508.027-1.056.314-2.033.941-2.878 1.7-.238 1.15-.211 2.536.185 3.582.185.523.554.994 1.029 1.36.792.628 1.611.706 2.614.602 1.083-.105 2.06-.602 2.852-1.413.633-.627.897-1.255.924-2.17.026-.758-.132-1.517-.423-2.118zM237.863 18.318c-.343.026-.581-.34-.739-.601a15.826 15.826 0 0 1-1.399-3.217c-.449-1.386-.687-2.798-.792-4.315-.793 1.203-2.113 3.4-2.931 4.577-.845 1.255-1.69 2.589-2.376 3.844-.08.183-.37.052-.476-.105-.132-.235-.079-.549-.026-.784.158-.236.449-.837.607-1.177 1.716-2.589 3.512-5.23 5.096-7.82.185-.182.818-.287.871.21.132 1.595.37 3.19.739 4.707.37 1.517.925 2.93 1.637 4.289.027.078 0 .366-.211.392zM249.642 17.926c-.74.758-1.954.994-2.957.601-.951-.392-1.505-1.072-1.822-1.935-.343-.941-.423-2.066-.396-3.112-1.215-.157-2.482-.418-3.723-.235-.211.078-.422.157-.581.288-.053 1.333-.158 3.74-.185 4.994-.211.314-.528.183-.607-.026-.343-3.19-.053-6.511.396-9.597a.828.828 0 0 1 .37-.366c.29 0 .581.026.739.314-.026.183-.105.287-.211.418a.2.2 0 0 0-.053.105c-.185 1.046-.29 2.092-.37 3.19.502-.235 1.109-.261 1.717-.235 1.056.052 1.821.183 2.587.34.106-1.439.898-2.877 2.297-3.452.211-.34.581-.628.977-.654 1.188.078 2.191 1.15 2.535 2.17.369 1.099.633 2.485.58 3.792-.052 1.282-.422 2.485-1.293 3.4zm-.291-7.27c-.237-.497-.686-1.02-1.188-1.177-.317-.104-.607.053-.845.34-.079.105-.132.236-.185.34a.736.736 0 0 1-.396.34c-.079-.026-.132-.13-.158-.235-.713.68-1.03 1.621-1.162 2.589-.158 1.124-.052 2.98.502 3.948.264.419.634.759 1.188.916.634.209 1.294-.026 1.848-.366.66-.733.951-1.726 1.03-2.72.106-1.386-.211-2.824-.634-3.975zM261.576 22.58c-.08.21-.344.21-.476.132-.29-.262-.29-.628-.317-.994-.079-1.099-.184-2.302-.052-3.426a27.59 27.59 0 0 0-7.499.34 17.095 17.095 0 0 0 .159 4.027c-.027.131-.211.34-.423.21-.237-.105-.343-.314-.396-.497l-.132-.576c-.052-.575-.105-1.15-.132-1.7-.026-.575-.026-1.15.027-1.647.026-.21.211-.419.396-.55l.739-.156c1.531-2.537 2.799-5.152 3.908-7.872.026-.13.079-.496-.027-.627-.079-.34.132-.523.343-.68.845-.13 1.796-.105 2.535.314.29.13.422.418.475.706 0 1.36.027 4.184.053 5.57.106.758 0 1.543-.053 2.301.053.026.132.026.238.026.158.026.264 0 .343 0 .238.026.449.183.449.393-.211 1.569-.238 3.164-.158 4.707zm-1.637-5.883c-.027-.262-.053-.497-.053-.785 0-1.543-.027-4.576-.053-6.119-.106-.21-.29-.314-.502-.366-.369-.105-.818-.079-1.214-.052.105.366.026.758-.053 1.098-1.056 2.432-2.165 4.864-3.591 7.14 1.743-.21 3.565-.289 5.439-.21.027-.235.027-.47.027-.706zM269.002 18.03c-1.188.602-2.614.863-3.908.236a4.006 4.006 0 0 1-2.059-2.38c-.396-1.229-.264-2.615.264-3.766a5.876 5.876 0 0 1 1.716-2.118c.475-.34 1.188-.758 1.848-.837.528-.601 1.4-.784 2.139-.601 1.267.34 2.35 1.621 2.693 2.746.343 1.098.422 2.301.105 3.425-.396 1.517-1.399 2.616-2.798 3.296zm1.822-6.433c-.317-.863-1.03-1.83-1.954-2.144-.423-.157-.871-.21-1.215.052-.343.262-.554.68-.713 1.046-.026.079-.026.183-.026.288 0 .105 0 .235-.026.34-.027.052-.291.21-.37.052a4.294 4.294 0 0 1-.079-1.072c-1.003.418-1.848 1.281-2.324 2.25-.501 1.019-.528 2.196-.211 3.242.264.81.766 1.49 1.611 1.83 1.056.393 2.191.262 3.142-.209 1.082-.549 1.848-1.386 2.217-2.51.344-.994.291-2.17-.052-3.165zM33.193 40.18c-.792.523-1.769.942-2.746.942-.554 0-.95-.236-1.32-.759-.132.105-.37.183-.475.026-.475-.653-.607-1.569-.634-2.458-.053-2.275-.026-3.948.581-5.988.053-.21.555-.602.924-.497.159-.419.581-.863 1.083-.915 1.346 0 2.798.706 3.247 2.04a1.94 1.94 0 0 1-.026 1.28 2.362 2.362 0 0 1-.766.995l-.158.13c.66.21 1.399.628 1.821 1.282.317.496.344 1.098.212 1.673-.238.942-.925 1.7-1.743 2.25zm.74-3.478c-.212-.392-.793-.627-1.215-.837-.502-.314-.95-.183-1.452-.078l-.792.183a1.74 1.74 0 0 1-.898 0c-.132-.078-.29-.34-.159-.47.317-.315.713-.471 1.162-.576l1.215-.13c.475-.262.977-.785 1.188-1.282.132-.419.053-.706-.211-1.046-.476-.654-1.241-.942-2.007-1.02-.238-.026-.317.026-.37.183-.079.21-.132.445-.264.628-.052.13-.237.183-.37.104a.511.511 0 0 1-.237-.13c-.317 1.124-.502 2.405-.554 3.739-.053 1.255 0 2.484.184 3.635.212-.235.476-.575.608-.758.184-.184.528.104.475.287-.053.13-.158.288-.238.419-.053.157-.132.287-.132.392.159.235.528.314.977.261.66-.104 1.452-.47 2.033-.915.528-.418.977-.941 1.11-1.595.078-.314.131-.68-.054-.994zM40.706 39.553a5.393 5.393 0 0 1-2.35 1.176c-.66.157-1.584.236-2.138-.313-.159-.131-.396-.55-.159-.785.185.13.317.235.476.314a.56.56 0 0 0 .343.13c-.026-1.804.08-5.282.132-7.034.026-.418-.026-.863 0-1.281.053-.419.132-.837.475-1.151.238-.078.45-.13.581.13-.132.471-.132 1.308-.158 2.224 0 .836 0 1.726-.027 2.353.37-.261.898-.47 1.4-.523.607-.052 1.24.053 1.742.34a2.067 2.067 0 0 1 1.056 2.275c-.158.81-.713 1.57-1.373 2.145zm.344-3.217c-.317-.497-.872-.68-1.479-.68-.607.026-1.267.262-1.663.628l-.212 3.74c.819-.184 1.664-.55 2.35-1.125.476-.392.924-.863 1.11-1.465.131-.366.105-.81-.106-1.098zm5.491 4.681c-.66-.183-.66-.837-.739-1.36-.396-2.981-.158-5.858.238-8.813.237-.366.66-.052.765.157.027.602 0 1.177-.079 1.779-.053.575-.132 1.176-.132 1.778-.026 1.02-.08 2.066-.053 3.112 0 1.02.106 2.066.264 3.033.027.131-.132.314-.264.314zM63.803 40.023c0 .21-.238.262-.37.236-.29-.105-.343-.576-.396-.837-.08-.47-.08-.942-.08-1.438v-1.596c0-1.229.16-2.562.186-3.818-.159-.235-.423-.366-.687-.418-.29-.078-.633-.105-.924-.183-1.056-.157-2.112-.314-3.22-.262-.133 1.151-.45 2.223-.608 3.374-.238 1.7-.449 3.295-.343 5.1 0 .208.052.522-.159.68-.105.104-.396.104-.528-.027a1.005 1.005 0 0 1-.211-.523c-.026-.183 0-.392-.026-.602-.027-2.745.422-5.308.976-7.976-.132.027-.264.053-.396.027-.237-.131-.184-.366-.079-.471.106-.21.29-.288.475-.34.185-.052.397-.105.581-.105 1.796-.13 3.697.131 5.334.654.316.183.765.392.792.81-.238 2.511-.29 5.1-.317 7.715zM67.007 31.864h-.132a.218.218 0 0 1-.212-.183c-.026-.209.053-.392.212-.549a1.95 1.95 0 0 1 1.425-.497c.37.026.74.079 1.11.21l1.003.34c1.425.47 2.666 1.725 3.353 3.085.37.758.501 1.543.317 2.406-.185.785-.66 1.517-1.294 2.118-1.584 1.49-3.564 1.935-5.756 1.935-.026 1.779-.132 3.766.106 5.518 0 .079.053.183.105.262.027.13.08.235-.026.392-.211.157-.422.105-.607 0-.264-.288-.37-.602-.396-.968-.185-1.856-.106-3.66 0-5.544-.238-.209-.608-.496-.687-.81 0-.105.027-.21.08-.262.079-.13.184-.157.237-.104.08.078.238.183.37.261.158-2.615.343-5.1.792-7.61zm5.227 1.7c-.58-.706-1.399-1.203-2.191-1.543-.449-.209-1.716-.68-2.191-.47a6.83 6.83 0 0 1-.08 1.307 46.047 46.047 0 0 0-.633 6.956c1.822.13 3.564-.418 4.963-1.621.766-.654 1.215-1.57 1.136-2.51-.053-.785-.555-1.57-1.004-2.119zM79.188 40.886c-1.32-.052-2.535-.654-3.3-1.778-.634-.941-.793-2.04-.66-3.112a6.87 6.87 0 0 1 1.346-3.243c.765-.993 1.848-1.778 3.089-2.013.845-.157 1.742-.079 2.376.601.29.314.554.654.554 1.072.027.445-.184.837-.554 1.125-1.848 1.517-3.802 2.929-5.808 4.08.052.81.765 1.647 1.53 2.065.767.419 1.664.471 2.509.367.845-.079 1.716-.367 2.323-.654.106-.079.185 0 .212.078.026.053.079.157-.027.236-.924.836-2.244 1.229-3.59 1.176zm1.161-9.336c-.766 0-1.531.314-2.138.785-1.294 1.046-2.06 2.72-2.06 4.341 1.875-1.02 3.644-2.354 5.36-3.74.132-.104.238-.496.053-.81-.211-.419-.687-.575-1.215-.575zM93.21 44.809c-.08.21-.344.21-.476.13-.29-.26-.29-.627-.317-.993-.08-1.098-.185-2.301-.053-3.426a27.583 27.583 0 0 0-7.498.34 17.054 17.054 0 0 0 .159 4.027c-.027.131-.212.34-.423.21-.238-.105-.343-.314-.396-.497l-.132-.576a39.871 39.871 0 0 1-.132-1.7 11.25 11.25 0 0 1 .026-1.647c.027-.21.212-.418.396-.55l.74-.156c1.531-2.537 2.798-5.152 3.907-7.871.027-.131.08-.497-.026-.628-.08-.34.132-.523.343-.68.845-.13 1.795-.105 2.535.314.29.13.422.418.475.706 0 1.36.026 4.184.053 5.57.105.759 0 1.543-.053 2.301.053.026.132.026.238.026.158.027.264 0 .343 0 .237.027.449.184.449.393-.212 1.569-.238 3.164-.159 4.707zm-1.638-5.884c-.026-.261-.053-.497-.053-.784 0-1.543-.026-4.577-.052-6.12-.106-.209-.29-.314-.502-.366-.37-.105-.819-.078-1.215-.052.106.366.027.758-.052 1.098-1.056 2.432-2.165 4.864-3.591 7.14 1.743-.21 3.564-.288 5.439-.21.026-.235.026-.47.026-.706zM102.246 40.023c0 .21-.238.262-.37.236-.29-.105-.343-.576-.396-.837-.079-.47-.079-.942-.079-1.438v-1.596c0-1.229.159-2.562.185-3.818-.158-.235-.422-.366-.686-.418-.291-.078-.634-.105-.925-.183-1.056-.157-2.112-.314-3.22-.262-.133 1.151-.45 2.223-.608 3.374-.238 1.7-.449 3.295-.343 5.1 0 .208.053.522-.159.68-.105.104-.396.104-.528-.027a1.005 1.005 0 0 1-.21-.523c-.027-.183 0-.392-.027-.602-.027-2.745.422-5.308.977-7.976-.132.027-.264.053-.396.027-.238-.131-.185-.366-.08-.471.106-.21.29-.288.476-.34.184-.052.396-.105.58-.105 1.796-.13 3.697.131 5.334.654.317.183.765.392.792.81-.238 2.511-.291 5.1-.317 7.715zM110.15 40.259c-1.189.601-2.614.863-3.908.235a4.006 4.006 0 0 1-2.059-2.38c-.396-1.229-.264-2.615.264-3.765a5.876 5.876 0 0 1 1.716-2.119c.475-.34 1.188-.758 1.848-.836.528-.602 1.399-.785 2.139-.602 1.267.34 2.349 1.621 2.693 2.746.343 1.098.422 2.301.105 3.426-.396 1.516-1.399 2.615-2.798 3.295zm1.821-6.433c-.316-.863-1.029-1.831-1.953-2.145-.423-.157-.872-.209-1.215.052-.343.262-.554.68-.713 1.047-.026.078-.026.183-.026.287 0 .105 0 .236-.027.34-.026.053-.29.21-.369.053a4.295 4.295 0 0 1-.079-1.073c-1.004.419-1.849 1.282-2.324 2.25-.501 1.02-.528 2.196-.211 3.242.264.81.766 1.49 1.61 1.83 1.057.393 2.192.262 3.142-.209 1.083-.549 1.849-1.386 2.218-2.51.343-.994.291-2.17-.053-3.164zM120.968 37.147c-.026 1.177 0 2.432.027 3.608.026.157-.211.367-.423.236-.132-.105-.316-.497-.316-.654-.159-.863-.185-1.752-.185-2.641.026-1.125.105-2.275.185-3.374a5.927 5.927 0 0 1-2.298 2.328c-.66.366-1.372.549-2.138.444-.634-.104-1.162-.732-1.267-1.333-.027-1.674.211-3.348.475-4.943.317-.261.686.026.686.288.08.784-.026 1.543-.132 2.301-.079.732-.185 1.49-.132 2.223.132.34.476.628.792.628 1.083-.105 2.007-.707 2.693-1.517.845-.942 1.373-2.118 1.743-3.164.079-.262.132-.602.422-.733.159-.052.37 0 .449.21-.237 2.013-.554 4.053-.581 6.093zM131.32 40.86c-.554-.627-.713-1.464-.845-2.275-.264-1.883-.211-3.896-.264-5.858-1.61 2.275-2.878 4.577-4.409 7.166-.158.183-.238.313-.502.418-.237 0-.448-.026-.633-.288-1.268-2.327-1.505-5.178-1.32-8.002 0-.183.052-.497.264-.575.343-.105.607.183.607.392-.159 2.615.132 5.1 1.003 7.349.924-1.57 1.664-2.877 2.456-4.158a49.07 49.07 0 0 1 2.798-4.08c.211-.157.502-.052.608.157.079 2.51.052 4.969.264 7.374.052.785.237 1.543.29 2.276 0 .104-.238.209-.317.104zM141.033 31.864c-.686-.157-1.373-.314-2.086-.34-.581.733-.871 1.596-1.029 2.51-.185.942-.159 1.936-.212 2.904-.052 1.307.053 2.562.212 3.791-.08.157-.317.262-.502.157-.449-.549-.554-1.255-.581-1.961-.026-1.57-.053-3.217.185-4.76.158-.993.449-1.908 1.056-2.745-1.637-.079-3.142.261-4.647.68a.834.834 0 0 1-.581-.367c-.052-.183.053-.287.159-.34l.158-.052.132-.052c1.109-.445 2.456-.68 3.749-.706 1.32-.052 2.641.078 3.802.497.132.052.37.235.449.392.027.183-.105.418-.264.392zM147.359 40.782c-1.452.392-3.142.366-4.277-.602-.528-.444-.924-1.098-.95-1.804-.027-.628.237-1.203.607-1.726.818-1.15 2.244-1.935 3.617-2.092.581-.053 1.109.026 1.531.444.132.131 0 .393-.132.445h-.237c-.079 0-.185-.026-.264-.026-.185-.026-.344-.053-.449.026-1.267.052-2.508.654-3.274 1.674-.343.444-.528.784-.475 1.333.053.733.607 1.282 1.373 1.543 1.082.392 2.429.157 3.458-.209.555-.21 1.056-.418 1.532-.758.105-.079.211 0 .264.13.026.105.026.21.026.288-.369.706-1.848 1.203-2.35 1.334zm1.479-1.779c-.132.157-.37.131-.475.053-.264-.183-.264-.523-.264-.785.026-.444.105-.889.211-1.36l.343-1.438c.211-.941.343-1.883.053-2.667-.238-.68-.819-1.36-1.531-1.439-.608-.078-1.215.131-1.717.497-.264.183-.845.68-1.003.968-.026.105.026.288.132.392.106.105.026.419-.211.366-.185-.052-.396-.104-.555-.235a.63.63 0 0 1-.132-.785c.449-.758 1.083-1.386 1.901-1.752a3.032 3.032 0 0 1 1.822-.261c.792.13 1.479.706 1.875 1.438.607 1.125.528 2.537.237 3.792-.264 1.072-.528 2.066-.686 3.216zM155.043 40.886c-1.321-.052-2.535-.654-3.301-1.778-.633-.941-.792-2.04-.66-3.112a6.872 6.872 0 0 1 1.347-3.243c.765-.993 1.848-1.778 3.089-2.013.845-.157 1.742-.079 2.376.601.29.314.555.654.555 1.072.026.445-.185.837-.555 1.125-1.848 1.517-3.802 2.929-5.808 4.08.052.81.765 1.647 1.531 2.065.766.419 1.663.471 2.508.367.845-.079 1.716-.367 2.324-.654.105-.079.184 0 .211.078.026.053.079.157-.027.236-.924.836-2.244 1.229-3.59 1.176zm1.161-9.336c-.765 0-1.531.314-2.138.785-1.294 1.046-2.06 2.72-2.06 4.341 1.875-1.02 3.644-2.354 5.36-3.74.132-.104.238-.496.053-.81-.211-.419-.687-.575-1.215-.575zM167.771 31.864c-.687-.157-1.373-.314-2.086-.34-.581.733-.871 1.596-1.03 2.51-.185.942-.158 1.936-.211 2.904-.053 1.307.053 2.562.211 3.791-.079.157-.317.262-.502.157-.448-.549-.554-1.255-.58-1.961-.027-1.57-.053-3.217.184-4.76.159-.993.449-1.908 1.057-2.745-1.637-.079-3.142.261-4.647.68a.834.834 0 0 1-.581-.367c-.053-.183.053-.287.158-.34l.159-.052.132-.052c1.109-.445 2.455-.68 3.749-.706 1.32-.052 2.64.078 3.802.497.132.052.369.235.449.392.026.183-.106.418-.264.392zM172.988 40.886c-1.32-.052-2.535-.654-3.3-1.778-.634-.941-.792-2.04-.66-3.112a6.87 6.87 0 0 1 1.346-3.243c.766-.993 1.848-1.778 3.089-2.013.845-.157 1.743-.079 2.376.601.291.314.555.654.555 1.072.026.445-.185.837-.555 1.125-1.848 1.517-3.802 2.929-5.808 4.08.053.81.766 1.647 1.531 2.065.766.419 1.664.471 2.508.367.845-.079 1.717-.367 2.324-.654.105-.079.185 0 .211.078.026.053.079.157-.026.236-.924.836-2.245 1.229-3.591 1.176zm1.162-9.336c-.766 0-1.532.314-2.139.785-1.294 1.046-2.059 2.72-2.059 4.341 1.874-1.02 3.643-2.354 5.359-3.74.132-.104.238-.496.053-.81-.211-.419-.686-.575-1.214-.575zM185.769 29.772c-1.241 2.014-2.667 4.001-3.802 6.12-.132.104-.37.052-.423-.079a1.434 1.434 0 0 1 .053-.758c.053-.236.132-.419.211-.654.898-1.621 2.007-3.164 2.984-4.733.29-.497.449-1.151.396-1.805a2.353 2.353 0 0 0-.528-1.334c-.634-.784-1.426-1.386-2.297-1.673a3.383 3.383 0 0 0-1.848-.13c-.423.078-.792.26-1.162.6-.343.314-.634.707-.766 1.151-.158.131-.449.131-.528-.104-.079-.34.053-.628.159-.942.448-.758 1.082-1.281 1.821-1.543a4.02 4.02 0 0 1 1.928-.157c.765.131 1.452.445 2.086.89a5.644 5.644 0 0 1 1.61 1.726c.343.522.502 1.229.475 1.909 0 .523-.105 1.098-.369 1.516zm-1.69 11.297c-.66 0-1.32-.157-1.901-.444-.607-.314-1.135-.706-1.531-1.282-.106-.157-.132-.418-.08-.627.053-.21.212-.34.476-.236l.633.68c.212.21.449.419.66.576.608.444 1.373.68 2.139.915.079.183-.211.366-.396.418zM195.455 28.857a1.867 1.867 0 0 1-.475.418c-.264.027-.475 0-.66-.104-.581-.262-1.241-.68-1.716-1.02-.027.837-.106 1.7 0 2.51-.053.419-.528.236-.581.131-.053-.052-.106-.105-.132-.183a.56.56 0 0 1-.132-.21c-.053-.235-.053-.47-.053-.68.027-.444.053-.914.053-1.359-.607.575-1.347 1.072-2.139 1.36-.184.026-.475.026-.686-.157-.317-.261-.026-.706.343-.941l.185.34c.185-.053.37-.183.554-.262.555-.34 1.109-.837 1.558-1.334-.845-.68-1.69-1.516-2.402-2.275-.185-.157-.106-.392-.027-.523.238-.314.607-.104.687-.026.607.654 1.24 1.281 1.901 1.883 0-.706.026-1.412-.027-2.066l-.211-.602c-.026-.156.079-.523.422-.496.238.078.37.261.476.47l.079.183c.079.183.132.523.132.706v1.439l.079-.131.554-.732c.185-.262.449-.47.766-.654.423-.235 1.215 0 .977.785-.185-.027-.238-.053-.317-.079-.053 0-.105-.026-.211-.052-.158-.053-.686.654-.766.758-.317.419-.581.863-.924 1.308.634.47 1.32.889 2.086 1.255.053-.078.106-.105.158-.13.053-.053.106-.08.291-.158.211.21.237.366.211.471-.026.052-.053.079-.053.157zM205.717 28.857a1.867 1.867 0 0 1-.475.418c-.264.027-.475 0-.66-.104-.581-.262-1.241-.68-1.716-1.02-.027.837-.106 1.7 0 2.51-.053.419-.528.236-.581.131-.053-.052-.106-.105-.132-.183a.56.56 0 0 1-.132-.21c-.053-.235-.053-.47-.053-.68.026-.444.053-.914.053-1.359-.607.575-1.347 1.072-2.139 1.36-.185.026-.475.026-.686-.157-.317-.261-.027-.706.343-.941l.185.34c.185-.053.369-.183.554-.262.555-.34 1.109-.837 1.558-1.334-.845-.68-1.69-1.516-2.403-2.275-.184-.157-.105-.392-.026-.523.238-.314.607-.104.686-.026a32.4 32.4 0 0 0 1.901 1.883c0-.706.027-1.412-.026-2.066l-.211-.602c-.027-.156.079-.523.422-.496.238.078.37.261.475.47l.08.183c.079.183.132.523.132.706v1.439l.079-.131.554-.732c.185-.262.449-.47.766-.654.422-.235 1.215 0 .977.785-.185-.027-.238-.053-.317-.079-.053 0-.106-.026-.211-.052-.159-.053-.687.654-.766.758-.317.419-.581.863-.924 1.308.634.47 1.32.889 2.086 1.255a.35.35 0 0 1 .158-.13c.053-.053.106-.08.291-.158.211.21.237.366.211.471-.026.052-.053.079-.053.157z" fill="#fff"/><path d="M38.922 5.086c-.343 1.36-.501 2.824-.66 4.262-.132.994-.184 1.988-.21 3.008-.054 1.49-.054 2.981-.107 4.498-.079.261-.29.418-.528.418-.343 0-.501-.34-.58-.627l-.106-.21a67.553 67.553 0 0 0-2.43-7.95c-.448-1.229-.87-2.432-1.346-3.634a35.146 35.146 0 0 0-1.636-3.53c-.027 0-.053-.053-.053-.027-.713 2.301-1.215 4.629-1.452 7.087-.212 2.223-.238 4.498-.159 6.8.053.313.053.653.106.993.026.314.079.627.184.915.027.183-.105.314-.264.366-.475-.104-.58-.497-.66-.915l-.079-.366c-.211-1.91-.237-3.87-.132-5.832.132-2.327.476-4.655.95-6.799.265-1.125.608-2.301 1.057-3.347.079-.183.396-.262.58-.131.16.13.238.288.344.47.66 1.047 1.188 2.145 1.637 3.243l1.346 3.348c1.004 2.51 1.822 5.099 2.509 7.74.026-2.223.052-4.55.29-6.747.185-1.909.58-3.791 1.373-5.439.053-.105.105-.235.185-.34.185-.366.449-.758.95-.732.29.157.185.444.053.627-.58.863-.898 1.831-1.162 2.85zm6.6 8.525c-.606.55-1.346.915-2.27.837-.792-.079-1.505-.523-1.9-1.125-.713-1.046-.872-2.353-.66-3.556.158-.863.58-1.961 1.135-2.641.184-.131.343-.314.607-.288a.283.283 0 0 1 .158.418c-.501.837-.977 1.883-1.109 2.955-.105 1.02.027 2.04.66 2.85.396.498 1.083.68 1.743.55 1.32-.418 1.98-1.648 2.218-2.746.211-.889.185-1.857-.027-2.746a3.834 3.834 0 0 0-1.056-1.909c-.237-.235-.713-.34-1.056-.261-.396.078-.713.366-.924.68-.132.104-.317-.053-.317-.157.027-.392.423-.942.845-1.125.528-.261 1.347-.261 1.848.131.845.654 1.162 1.308 1.426 2.223a7.16 7.16 0 0 1 .08 3.347c-.212.968-.687 1.883-1.4 2.563zm-3.167 3.086c-.159.052-.608.078-.819.13-.211.105-.528.079-.766.079-.132-.052-.21-.026-.316-.052a.42.42 0 0 1-.238-.157c-.053-.105-.08-.262-.053-.392a.621.621 0 0 1 .159-.288.775.775 0 0 1 .422-.236c.185-.052.317-.026.449-.052.264 0 .766.026 1.003.053.159.078.317.052.502.104.185-.078 1.716-.052 1.954 0 .58-.052 1.267 0 1.742.13.159.053.555.053.687.21-.053.366-.898.55-1.268.445-.21.052-.686-.079-1.003 0-.264-.053-.845.052-1.082.026-.423-.026-1.083-.052-1.373 0zM60.514 11.833l-.264.967c-.554 1.177-1.32 2.406-2.297 3.478-1.03 1.125-2.297 2.04-3.696 2.406-.238.053-.819-.026-.792-.444a7.898 7.898 0 0 0 2.587-1.36 10.987 10.987 0 0 0 2.165-2.25 8.707 8.707 0 0 0 1.479-3.32c.053-.21.026-.863-.238-1.099-.449-.392-1.109-.601-1.769-.653-.765-.053-1.531.13-2.165.366-.897.34-1.716.941-2.482 1.543-.343.052-.528-.419-.396-.68.845-.837 1.637-1.726 2.271-2.668a7.288 7.288 0 0 0 1.056-2.405 2.564 2.564 0 0 0-.08-1.543 2.693 2.693 0 0 0-1.029-1.386 4.032 4.032 0 0 0-2.006-.628 3.29 3.29 0 0 0-1.505.288c-.08.052-.159.13-.238.157a.285.285 0 0 1-.29.026c-.185-.131-.159-.366-.027-.497.317-.445.766-.654 1.267-.759.74-.13 1.585.027 2.218.21.845.261 1.822.863 2.245 1.778.37.81.422 1.674.29 2.458-.238 1.255-.924 2.432-1.769 3.426a5.387 5.387 0 0 1 2.667-.575c.844.026 1.663.287 2.323.81.449.34.58.81.607 1.308 0 .34-.053.706-.132 1.046zM80.504 10.682c-2.482-.104-4.964.288-7.445.105-.476-.026-1.056-.157-1.4-.55-.184-.209.027-.68.344-.627 1.135.13 2.27.183 3.406.157 1.478-.026 3.036-.13 4.382-.079.264 0 .871.105 1.056.419.185.261-.052.601-.343.575zM99.44 18.606c-1.267-.706-2.56-1.203-3.907-1.674-1.32-.47-2.588-.941-3.855-1.49a9.623 9.623 0 0 0 .343 2.772c.08.157.026.444-.211.444-.211 0-.343-.13-.423-.261-.079-.105-.132-.262-.21-.393-.291-.941-.397-1.96-.397-3.007a.585.585 0 0 1-.237-.261c-.08-.079-.106-.236-.027-.367a.731.731 0 0 0 .238-.34c.053-.34.026-1.124.105-1.464.106-.601.264-1.334.423-2.066.185-.732.449-1.464.792-2.092.158-.261.554-.21.634.078-.027.34-.132.654-.238.968-.08.288-.238.602-.317.915a11.89 11.89 0 0 0-.449 2.903 47.14 47.14 0 0 1 2.878-2.354c1.215-.889 2.508-1.647 3.881-2.196.212 0 .476 0 .634.13.158.105.158.262.08.445-1.4.575-2.668 1.334-3.961 2.223a33.5 33.5 0 0 0-3.564 2.929v.026c1.293.706 2.719 1.177 4.092 1.648 1.214.418 2.376.889 3.485 1.595.238.13.422.314.554.549.027.157-.184.366-.343.34zM105.771 18.553c-1.453.393-3.142.367-4.278-.6-.528-.445-.924-1.1-.95-1.805-.027-.628.237-1.203.607-1.726.819-1.15 2.244-1.936 3.617-2.092.581-.053 1.109.026 1.532.444.132.131 0 .393-.132.445h-.238c-.079 0-.185-.026-.264-.026-.185-.027-.343-.053-.449.026-1.267.052-2.508.654-3.274 1.673-.343.445-.528.785-.475 1.334.053.732.607 1.282 1.373 1.543 1.082.392 2.429.157 3.459-.21.554-.208 1.056-.418 1.531-.758.106-.078.211 0 .264.131.026.105.026.21.026.288-.369.706-1.848 1.203-2.349 1.334zm1.478-1.778c-.132.157-.37.131-.475.053-.264-.183-.264-.523-.264-.785.026-.444.105-.89.211-1.36l.343-1.438c.211-.941.343-1.883.053-2.667-.238-.68-.818-1.36-1.531-1.439-.608-.078-1.215.131-1.716.497-.264.183-.845.68-1.004.968-.026.104.027.287.132.392.106.105.027.418-.211.366-.185-.052-.396-.104-.554-.235a.628.628 0 0 1-.132-.785c.448-.758 1.082-1.386 1.901-1.752.528-.261 1.161-.366 1.821-.261.792.13 1.479.706 1.875 1.438.607 1.124.528 2.537.238 3.792-.265 1.072-.529 2.066-.687 3.216zM118.391 18.606c-1.267-.706-2.561-1.203-3.908-1.674-1.32-.47-2.587-.941-3.854-1.49a9.589 9.589 0 0 0 .343 2.772c.079.157.026.444-.211.444-.211 0-.343-.13-.423-.261-.079-.105-.132-.262-.211-.393-.29-.941-.396-1.96-.396-3.007a.588.588 0 0 1-.238-.261c-.079-.079-.105-.236-.026-.367a.734.734 0 0 0 .238-.34c.052-.34.026-1.124.105-1.464a57.53 57.53 0 0 1 .423-2.066c.185-.732.449-1.464.792-2.092.158-.261.554-.21.633.078-.026.34-.132.654-.237.968-.079.288-.238.602-.317.915a11.919 11.919 0 0 0-.449 2.903 47.266 47.266 0 0 1 2.878-2.354c1.215-.889 2.508-1.647 3.881-2.196.211 0 .475 0 .634.13.158.105.158.262.079.445-1.399.575-2.667 1.334-3.96 2.223a33.527 33.527 0 0 0-3.565 2.929v.026c1.294.706 2.72 1.177 4.093 1.648 1.214.418 2.376.889 3.485 1.595.237.13.422.314.554.549.027.157-.185.366-.343.34zM125.645 18.03c-1.188.602-2.613.863-3.907.236a4.006 4.006 0 0 1-2.059-2.38c-.396-1.229-.264-2.615.264-3.766a5.876 5.876 0 0 1 1.716-2.118c.475-.34 1.188-.758 1.848-.837.528-.601 1.399-.784 2.138-.601 1.268.34 2.35 1.621 2.694 2.746.343 1.098.422 2.301.105 3.425-.396 1.517-1.399 2.616-2.799 3.296zm1.822-6.433c-.317-.863-1.029-1.83-1.954-2.144-.422-.157-.871-.21-1.214.052-.343.262-.554.68-.713 1.046-.026.079-.026.183-.026.288 0 .105 0 .235-.027.34-.026.052-.29.21-.369.052a4.337 4.337 0 0 1-.08-1.072c-1.003.418-1.848 1.281-2.323 2.25-.502 1.019-.528 2.196-.211 3.242.264.81.766 1.49 1.61 1.83 1.056.393 2.192.262 3.142-.209 1.083-.549 1.848-1.386 2.218-2.51.343-.994.29-2.17-.053-3.165zM133.771 18.658c-1.32-.052-2.534-.654-3.3-1.778-.634-.941-.792-2.04-.66-3.112a6.87 6.87 0 0 1 1.346-3.243c.766-.993 1.849-1.778 3.089-2.013.845-.157 1.743-.079 2.377.601.29.314.554.654.554 1.072.027.445-.185.837-.554 1.125-1.849 1.516-3.802 2.929-5.809 4.08.053.81.766 1.647 1.531 2.065.766.419 1.664.47 2.509.366.845-.078 1.716-.366 2.323-.654.106-.078.185 0 .211.079.027.052.08.157-.026.235-.924.837-2.244 1.23-3.591 1.177zm1.162-9.336c-.766 0-1.531.314-2.139.785-1.293 1.046-2.059 2.72-2.059 4.34 1.875-1.019 3.643-2.353 5.36-3.739.132-.104.237-.497.052-.81-.211-.419-.686-.576-1.214-.576zM154.032 10.708c-.977-.497-2.033-.81-3.115-.993a19.408 19.408 0 0 0-3.353-.236c-.079.026-.211.053-.211.131.026 2.537-.212 5.282-.37 7.871-.053.183-.053.366-.106.55-.026.183-.079.366-.211.496-.132.131-.607.314-.686 0 .105-1.543.343-5.125.396-6.485l.105-3.034c.317-.366.74-.444 1.188-.418.212 0 .449 0 .66.026.212.026.423.026.634 0 1.611.105 3.168.419 4.541 1.125.343.157.66.392.872.758.052.21-.238.288-.344.21zM163.916 18.318c-.343.026-.581-.34-.739-.601a15.885 15.885 0 0 1-1.4-3.217c-.448-1.386-.686-2.798-.792-4.315-.792 1.203-2.112 3.4-2.93 4.577-.845 1.255-1.69 2.589-2.376 3.844-.08.183-.37.052-.476-.105-.132-.235-.079-.549-.026-.784.158-.236.449-.837.607-1.177 1.716-2.589 3.512-5.23 5.096-7.82.185-.182.818-.287.871.21.132 1.595.37 3.19.739 4.707.37 1.517.924 2.93 1.637 4.289.027.078 0 .366-.211.392zM170.229 18.553c-1.452.393-3.142.367-4.277-.6-.528-.445-.924-1.1-.95-1.805-.027-.628.237-1.203.607-1.726.818-1.15 2.244-1.936 3.617-2.092.581-.053 1.109.026 1.531.444.132.131 0 .393-.132.445h-.237c-.079 0-.185-.026-.264-.026-.185-.027-.344-.053-.449.026-1.267.052-2.508.654-3.274 1.673-.343.445-.528.785-.475 1.334.053.732.607 1.282 1.373 1.543 1.082.392 2.429.157 3.458-.21.555-.208 1.056-.418 1.532-.758.105-.078.211 0 .264.131.026.105.026.21.026.288-.37.706-1.848 1.203-2.35 1.334zm1.479-1.778c-.132.157-.37.131-.475.053-.264-.183-.264-.523-.264-.785.026-.444.105-.89.211-1.36l.343-1.438c.211-.941.343-1.883.053-2.667-.238-.68-.819-1.36-1.532-1.439-.607-.078-1.214.131-1.716.497-.264.183-.845.68-1.003.968-.026.104.026.287.132.392.106.105.026.418-.211.366-.185-.052-.396-.104-.555-.235a.63.63 0 0 1-.132-.785c.449-.758 1.083-1.386 1.901-1.752a3.032 3.032 0 0 1 1.822-.261c.792.13 1.479.706 1.875 1.438.607 1.124.528 2.537.237 3.792-.264 1.072-.528 2.066-.686 3.216zM179.153 17.952c-.792.523-1.768.941-2.745.941-.555 0-.951-.235-1.32-.758-.132.105-.37.183-.476.026-.475-.654-.607-1.569-.633-2.458-.053-2.275-.027-3.949.58-5.988.053-.21.555-.602.925-.497.158-.419.58-.863 1.082-.916 1.347 0 2.799.707 3.248 2.04.132.419.132.863-.027 1.282a2.353 2.353 0 0 1-.766.993l-.158.131c.66.21 1.399.628 1.822 1.281.317.497.343 1.099.211 1.674-.238.942-.924 1.7-1.743 2.25zm.74-3.478c-.211-.392-.792-.628-1.215-.837-.501-.314-.95-.183-1.452-.078l-.792.183c-.29.078-.581.078-.898 0-.132-.079-.29-.34-.158-.47.317-.315.713-.472 1.162-.576l1.214-.131c.475-.261.977-.784 1.188-1.281.132-.419.053-.707-.211-1.046-.475-.654-1.241-.942-2.007-1.02-.237-.026-.316.026-.369.183-.079.209-.132.444-.264.627-.053.131-.238.183-.37.105a.509.509 0 0 1-.237-.13c-.317 1.124-.502 2.405-.555 3.739-.053 1.255 0 2.484.185 3.635a10.8 10.8 0 0 0 .607-.759c.185-.183.528.105.475.288-.052.13-.158.288-.237.418-.053.157-.132.288-.132.393.158.235.528.314.977.261.66-.104 1.452-.47 2.033-.915.528-.418.977-.941 1.109-1.595.079-.314.132-.68-.053-.994zM190.205 12.748c-.185 1.857-.079 4.027.053 5.858.026.183-.238.209-.37.13-.37-.287-.555-1.045-.581-1.516a38.833 38.833 0 0 1 0-4.289c-1.954.079-4.066.026-5.993.236-.079 1.752-.027 3.425.053 5.099.026.052-.08.13-.212.157a.442.442 0 0 1-.29-.105c-.343-.34-.423-.967-.449-1.386-.132-2.641.053-5.282.317-7.871.053-.157.29-.314.502-.183.29.13.29.47.343.732-.053.68-.132 1.83-.211 2.641 1.927-.13 4.065-.052 5.993-.078.105-1.282.158-2.563.475-3.766.132-.157.396-.052.555.105.132.157.211.47.211.653-.132.994-.317 1.962-.343 2.982.079 0 .158-.027.237-.027.053 0 .132.053.132.184 0 .052 0 .156-.053.209-.079.104-.237.183-.369.235zM198.149 18.03c-1.188.602-2.614.863-3.908.236a4.006 4.006 0 0 1-2.059-2.38c-.396-1.229-.264-2.615.264-3.766a5.876 5.876 0 0 1 1.716-2.118c.475-.34 1.188-.758 1.848-.837.528-.601 1.399-.784 2.139-.601 1.267.34 2.35 1.621 2.693 2.746.343 1.098.422 2.301.105 3.425-.396 1.517-1.399 2.616-2.798 3.296zm1.821-6.433c-.316-.863-1.029-1.83-1.953-2.144-.423-.157-.872-.21-1.215.052-.343.262-.554.68-.713 1.046-.026.079-.026.183-.026.288 0 .105 0 .235-.026.34-.027.052-.291.21-.37.052a4.294 4.294 0 0 1-.079-1.072c-1.004.418-1.848 1.281-2.324 2.25-.501 1.019-.528 2.196-.211 3.242.264.81.766 1.49 1.611 1.83 1.056.393 2.191.262 3.141-.209 1.083-.549 1.849-1.386 2.218-2.51.344-.994.291-2.17-.053-3.165zM206.274 18.658c-1.32-.052-2.534-.654-3.3-1.778-.634-.941-.792-2.04-.66-3.112a6.872 6.872 0 0 1 1.347-3.243c.765-.993 1.848-1.778 3.089-2.013.845-.157 1.742-.079 2.376.601.29.314.554.654.554 1.072.027.445-.184.837-.554 1.125-1.848 1.516-3.802 2.929-5.809 4.08.053.81.766 1.647 1.532 2.065.765.419 1.663.47 2.508.366.845-.078 1.716-.366 2.323-.654.106-.078.185 0 .212.079.026.052.079.157-.027.235-.924.837-2.244 1.23-3.591 1.177zm1.162-9.336c-.766 0-1.531.314-2.138.785-1.294 1.046-2.06 2.72-2.06 4.34 1.875-1.019 3.644-2.353 5.36-3.739.132-.104.237-.497.053-.81-.212-.419-.687-.576-1.215-.576zM226.641 2.68c-.581.21-1.214.34-1.795.55-1.056.34-1.769.784-2.508 1.594-.74.785-1.215 1.726-1.637 2.72-.423 1.02-.713 2.144-1.03 3.217.95-.654 2.059-1.23 3.221-1.413a4.365 4.365 0 0 1 3.063.602c.95.601 1.584 1.647 1.848 2.746.264 1.177.158 2.275-.449 3.32a5.282 5.282 0 0 1-2.35 2.198c-.845.418-1.954.549-2.957.392-1.162-.157-2.086-.68-2.772-1.595-.739-.994-.951-2.197-.924-3.426.053-1.7.554-3.53 1.003-4.916.555-1.674 1.347-3.505 2.72-4.812a6.343 6.343 0 0 1 2.297-1.412c.58-.183 1.188-.314 1.795-.497.581-.183 1.135-.419 1.637-.837.158-.026.422 0 .475.157.106.157.106.366 0 .497a4.442 4.442 0 0 1-1.637.915zm-.053 9.31a2.945 2.945 0 0 0-1.795-1.57c-.766-.26-1.743-.209-2.508.027-1.056.314-2.033.941-2.878 1.7-.238 1.15-.211 2.536.185 3.582.185.523.554.994 1.029 1.36.792.628 1.611.706 2.614.602 1.083-.105 2.06-.602 2.852-1.413.633-.627.897-1.255.924-2.17.026-.758-.132-1.517-.423-2.118zM237.863 18.318c-.343.026-.581-.34-.739-.601a15.826 15.826 0 0 1-1.399-3.217c-.449-1.386-.687-2.798-.792-4.315-.793 1.203-2.113 3.4-2.931 4.577-.845 1.255-1.69 2.589-2.376 3.844-.08.183-.37.052-.476-.105-.132-.235-.079-.549-.026-.784.158-.236.449-.837.607-1.177 1.716-2.589 3.512-5.23 5.096-7.82.185-.182.818-.287.871.21.132 1.595.37 3.19.739 4.707.37 1.517.925 2.93 1.637 4.289.027.078 0 .366-.211.392zM249.642 17.926c-.74.758-1.954.994-2.957.601-.951-.392-1.505-1.072-1.822-1.935-.343-.941-.423-2.066-.396-3.112-1.215-.157-2.482-.418-3.723-.235-.211.078-.422.157-.581.288-.053 1.333-.158 3.74-.185 4.994-.211.314-.528.183-.607-.026-.343-3.19-.053-6.511.396-9.597a.828.828 0 0 1 .37-.366c.29 0 .581.026.739.314-.026.183-.105.287-.211.418a.2.2 0 0 0-.053.105c-.185 1.046-.29 2.092-.37 3.19.502-.235 1.109-.261 1.717-.235 1.056.052 1.821.183 2.587.34.106-1.439.898-2.877 2.297-3.452.211-.34.581-.628.977-.654 1.188.078 2.191 1.15 2.535 2.17.369 1.099.633 2.485.58 3.792-.052 1.282-.422 2.485-1.293 3.4zm-.291-7.27c-.237-.497-.686-1.02-1.188-1.177-.317-.104-.607.053-.845.34-.079.105-.132.236-.185.34a.736.736 0 0 1-.396.34c-.079-.026-.132-.13-.158-.235-.713.68-1.03 1.621-1.162 2.589-.158 1.124-.052 2.98.502 3.948.264.419.634.759 1.188.916.634.209 1.294-.026 1.848-.366.66-.733.951-1.726 1.03-2.72.106-1.386-.211-2.824-.634-3.975zM261.576 22.58c-.08.21-.344.21-.476.132-.29-.262-.29-.628-.317-.994-.079-1.099-.184-2.302-.052-3.426a27.59 27.59 0 0 0-7.499.34 17.095 17.095 0 0 0 .159 4.027c-.027.131-.211.34-.423.21-.237-.105-.343-.314-.396-.497l-.132-.576c-.052-.575-.105-1.15-.132-1.7-.026-.575-.026-1.15.027-1.647.026-.21.211-.419.396-.55l.739-.156c1.531-2.537 2.799-5.152 3.908-7.872.026-.13.079-.496-.027-.627-.079-.34.132-.523.343-.68.845-.13 1.796-.105 2.535.314.29.13.422.418.475.706 0 1.36.027 4.184.053 5.57.106.758 0 1.543-.053 2.301.053.026.132.026.238.026.158.026.264 0 .343 0 .238.026.449.183.449.393-.211 1.569-.238 3.164-.158 4.707zm-1.637-5.883c-.027-.262-.053-.497-.053-.785 0-1.543-.027-4.576-.053-6.119-.106-.21-.29-.314-.502-.366-.369-.105-.818-.079-1.214-.052.105.366.026.758-.053 1.098-1.056 2.432-2.165 4.864-3.591 7.14 1.743-.21 3.565-.289 5.439-.21.027-.235.027-.47.027-.706zM269.002 18.03c-1.188.602-2.614.863-3.908.236a4.006 4.006 0 0 1-2.059-2.38c-.396-1.229-.264-2.615.264-3.766a5.876 5.876 0 0 1 1.716-2.118c.475-.34 1.188-.758 1.848-.837.528-.601 1.4-.784 2.139-.601 1.267.34 2.35 1.621 2.693 2.746.343 1.098.422 2.301.105 3.425-.396 1.517-1.399 2.616-2.798 3.296zm1.822-6.433c-.317-.863-1.03-1.83-1.954-2.144-.423-.157-.871-.21-1.215.052-.343.262-.554.68-.713 1.046-.026.079-.026.183-.026.288 0 .105 0 .235-.026.34-.027.052-.291.21-.37.052a4.294 4.294 0 0 1-.079-1.072c-1.003.418-1.848 1.281-2.324 2.25-.501 1.019-.528 2.196-.211 3.242.264.81.766 1.49 1.611 1.83 1.056.393 2.191.262 3.142-.209 1.082-.549 1.848-1.386 2.217-2.51.344-.994.291-2.17-.052-3.165zM33.193 40.18c-.792.523-1.769.942-2.746.942-.554 0-.95-.236-1.32-.759-.132.105-.37.183-.475.026-.475-.653-.607-1.569-.634-2.458-.053-2.275-.026-3.948.581-5.988.053-.21.555-.602.924-.497.159-.419.581-.863 1.083-.915 1.346 0 2.798.706 3.247 2.04a1.94 1.94 0 0 1-.026 1.28 2.362 2.362 0 0 1-.766.995l-.158.13c.66.21 1.399.628 1.821 1.282.317.496.344 1.098.212 1.673-.238.942-.925 1.7-1.743 2.25zm.74-3.478c-.212-.392-.793-.627-1.215-.837-.502-.314-.95-.183-1.452-.078l-.792.183a1.74 1.74 0 0 1-.898 0c-.132-.078-.29-.34-.159-.47.317-.315.713-.471 1.162-.576l1.215-.13c.475-.262.977-.785 1.188-1.282.132-.419.053-.706-.211-1.046-.476-.654-1.241-.942-2.007-1.02-.238-.026-.317.026-.37.183-.079.21-.132.445-.264.628-.052.13-.237.183-.37.104a.511.511 0 0 1-.237-.13c-.317 1.124-.502 2.405-.554 3.739-.053 1.255 0 2.484.184 3.635.212-.235.476-.575.608-.758.184-.184.528.104.475.287-.053.13-.158.288-.238.419-.053.157-.132.287-.132.392.159.235.528.314.977.261.66-.104 1.452-.47 2.033-.915.528-.418.977-.941 1.11-1.595.078-.314.131-.68-.054-.994zM40.706 39.553a5.393 5.393 0 0 1-2.35 1.176c-.66.157-1.584.236-2.138-.313-.159-.131-.396-.55-.159-.785.185.13.317.235.476.314a.56.56 0 0 0 .343.13c-.026-1.804.08-5.282.132-7.034.026-.418-.026-.863 0-1.281.053-.419.132-.837.475-1.151.238-.078.45-.13.581.13-.132.471-.132 1.308-.158 2.224 0 .836 0 1.726-.027 2.353.37-.261.898-.47 1.4-.523.607-.052 1.24.053 1.742.34a2.067 2.067 0 0 1 1.056 2.275c-.158.81-.713 1.57-1.373 2.145zm.344-3.217c-.317-.497-.872-.68-1.479-.68-.607.026-1.267.262-1.663.628l-.212 3.74c.819-.184 1.664-.55 2.35-1.125.476-.392.924-.863 1.11-1.465.131-.366.105-.81-.106-1.098zm5.491 4.681c-.66-.183-.66-.837-.739-1.36-.396-2.981-.158-5.858.238-8.813.237-.366.66-.052.765.157.027.602 0 1.177-.079 1.779-.053.575-.132 1.176-.132 1.778-.026 1.02-.08 2.066-.053 3.112 0 1.02.106 2.066.264 3.033.027.131-.132.314-.264.314zM63.803 40.023c0 .21-.238.262-.37.236-.29-.105-.343-.576-.396-.837-.08-.47-.08-.942-.08-1.438v-1.596c0-1.229.16-2.562.186-3.818-.159-.235-.423-.366-.687-.418-.29-.078-.633-.105-.924-.183-1.056-.157-2.112-.314-3.22-.262-.133 1.151-.45 2.223-.608 3.374-.238 1.7-.449 3.295-.343 5.1 0 .208.052.522-.159.68-.105.104-.396.104-.528-.027a1.005 1.005 0 0 1-.211-.523c-.026-.183 0-.392-.026-.602-.027-2.745.422-5.308.976-7.976-.132.027-.264.053-.396.027-.237-.131-.184-.366-.079-.471.106-.21.29-.288.475-.34.185-.052.397-.105.581-.105 1.796-.13 3.697.131 5.334.654.316.183.765.392.792.81-.238 2.511-.29 5.1-.317 7.715zM67.007 31.864h-.132a.218.218 0 0 1-.212-.183c-.026-.209.053-.392.212-.549a1.95 1.95 0 0 1 1.425-.497c.37.026.74.079 1.11.21l1.003.34c1.425.47 2.666 1.725 3.353 3.085.37.758.501 1.543.317 2.406-.185.785-.66 1.517-1.294 2.118-1.584 1.49-3.564 1.935-5.756 1.935-.026 1.779-.132 3.766.106 5.518 0 .079.053.183.105.262.027.13.08.235-.026.392-.211.157-.422.105-.607 0-.264-.288-.37-.602-.396-.968-.185-1.856-.106-3.66 0-5.544-.238-.209-.608-.496-.687-.81 0-.105.027-.21.08-.262.079-.13.184-.157.237-.104.08.078.238.183.37.261.158-2.615.343-5.1.792-7.61zm5.227 1.7c-.58-.706-1.399-1.203-2.191-1.543-.449-.209-1.716-.68-2.191-.47a6.83 6.83 0 0 1-.08 1.307 46.047 46.047 0 0 0-.633 6.956c1.822.13 3.564-.418 4.963-1.621.766-.654 1.215-1.57 1.136-2.51-.053-.785-.555-1.57-1.004-2.119zM79.188 40.886c-1.32-.052-2.535-.654-3.3-1.778-.634-.941-.793-2.04-.66-3.112a6.87 6.87 0 0 1 1.346-3.243c.765-.993 1.848-1.778 3.089-2.013.845-.157 1.742-.079 2.376.601.29.314.554.654.554 1.072.027.445-.184.837-.554 1.125-1.848 1.517-3.802 2.929-5.808 4.08.052.81.765 1.647 1.53 2.065.767.419 1.664.471 2.509.367.845-.079 1.716-.367 2.323-.654.106-.079.185 0 .212.078.026.053.079.157-.027.236-.924.836-2.244 1.229-3.59 1.176zm1.161-9.336c-.766 0-1.531.314-2.138.785-1.294 1.046-2.06 2.72-2.06 4.341 1.875-1.02 3.644-2.354 5.36-3.74.132-.104.238-.496.053-.81-.211-.419-.687-.575-1.215-.575zM93.21 44.809c-.08.21-.344.21-.476.13-.29-.26-.29-.627-.317-.993-.08-1.098-.185-2.301-.053-3.426a27.583 27.583 0 0 0-7.498.34 17.054 17.054 0 0 0 .159 4.027c-.027.131-.212.34-.423.21-.238-.105-.343-.314-.396-.497l-.132-.576a39.871 39.871 0 0 1-.132-1.7 11.25 11.25 0 0 1 .026-1.647c.027-.21.212-.418.396-.55l.74-.156c1.531-2.537 2.798-5.152 3.907-7.871.027-.131.08-.497-.026-.628-.08-.34.132-.523.343-.68.845-.13 1.795-.105 2.535.314.29.13.422.418.475.706 0 1.36.026 4.184.053 5.57.105.759 0 1.543-.053 2.301.053.026.132.026.238.026.158.027.264 0 .343 0 .237.027.449.184.449.393-.212 1.569-.238 3.164-.159 4.707zm-1.638-5.884c-.026-.261-.053-.497-.053-.784 0-1.543-.026-4.577-.052-6.12-.106-.209-.29-.314-.502-.366-.37-.105-.819-.078-1.215-.052.106.366.027.758-.052 1.098-1.056 2.432-2.165 4.864-3.591 7.14 1.743-.21 3.564-.288 5.439-.21.026-.235.026-.47.026-.706zM102.246 40.023c0 .21-.238.262-.37.236-.29-.105-.343-.576-.396-.837-.079-.47-.079-.942-.079-1.438v-1.596c0-1.229.159-2.562.185-3.818-.158-.235-.422-.366-.686-.418-.291-.078-.634-.105-.925-.183-1.056-.157-2.112-.314-3.22-.262-.133 1.151-.45 2.223-.608 3.374-.238 1.7-.449 3.295-.343 5.1 0 .208.053.522-.159.68-.105.104-.396.104-.528-.027a1.005 1.005 0 0 1-.21-.523c-.027-.183 0-.392-.027-.602-.027-2.745.422-5.308.977-7.976-.132.027-.264.053-.396.027-.238-.131-.185-.366-.08-.471.106-.21.29-.288.476-.34.184-.052.396-.105.58-.105 1.796-.13 3.697.131 5.334.654.317.183.765.392.792.81-.238 2.511-.291 5.1-.317 7.715zM110.15 40.259c-1.189.601-2.614.863-3.908.235a4.006 4.006 0 0 1-2.059-2.38c-.396-1.229-.264-2.615.264-3.765a5.876 5.876 0 0 1 1.716-2.119c.475-.34 1.188-.758 1.848-.836.528-.602 1.399-.785 2.139-.602 1.267.34 2.349 1.621 2.693 2.746.343 1.098.422 2.301.105 3.426-.396 1.516-1.399 2.615-2.798 3.295zm1.821-6.433c-.316-.863-1.029-1.831-1.953-2.145-.423-.157-.872-.209-1.215.052-.343.262-.554.68-.713 1.047-.026.078-.026.183-.026.287 0 .105 0 .236-.027.34-.026.053-.29.21-.369.053a4.295 4.295 0 0 1-.079-1.073c-1.004.419-1.849 1.282-2.324 2.25-.501 1.02-.528 2.196-.211 3.242.264.81.766 1.49 1.61 1.83 1.057.393 2.192.262 3.142-.209 1.083-.549 1.849-1.386 2.218-2.51.343-.994.291-2.17-.053-3.164zM120.968 37.147c-.026 1.177 0 2.432.027 3.608.026.157-.211.367-.423.236-.132-.105-.316-.497-.316-.654-.159-.863-.185-1.752-.185-2.641.026-1.125.105-2.275.185-3.374a5.927 5.927 0 0 1-2.298 2.328c-.66.366-1.372.549-2.138.444-.634-.104-1.162-.732-1.267-1.333-.027-1.674.211-3.348.475-4.943.317-.261.686.026.686.288.08.784-.026 1.543-.132 2.301-.079.732-.185 1.49-.132 2.223.132.34.476.628.792.628 1.083-.105 2.007-.707 2.693-1.517.845-.942 1.373-2.118 1.743-3.164.079-.262.132-.602.422-.733.159-.052.37 0 .449.21-.237 2.013-.554 4.053-.581 6.093zM131.32 40.86c-.554-.627-.713-1.464-.845-2.275-.264-1.883-.211-3.896-.264-5.858-1.61 2.275-2.878 4.577-4.409 7.166-.158.183-.238.313-.502.418-.237 0-.448-.026-.633-.288-1.268-2.327-1.505-5.178-1.32-8.002 0-.183.052-.497.264-.575.343-.105.607.183.607.392-.159 2.615.132 5.1 1.003 7.349.924-1.57 1.664-2.877 2.456-4.158a49.07 49.07 0 0 1 2.798-4.08c.211-.157.502-.052.608.157.079 2.51.052 4.969.264 7.374.052.785.237 1.543.29 2.276 0 .104-.238.209-.317.104zM141.033 31.864c-.686-.157-1.373-.314-2.086-.34-.581.733-.871 1.596-1.029 2.51-.185.942-.159 1.936-.212 2.904-.052 1.307.053 2.562.212 3.791-.08.157-.317.262-.502.157-.449-.549-.554-1.255-.581-1.961-.026-1.57-.053-3.217.185-4.76.158-.993.449-1.908 1.056-2.745-1.637-.079-3.142.261-4.647.68a.834.834 0 0 1-.581-.367c-.052-.183.053-.287.159-.34l.158-.052.132-.052c1.109-.445 2.456-.68 3.749-.706 1.32-.052 2.641.078 3.802.497.132.052.37.235.449.392.027.183-.105.418-.264.392zM147.359 40.782c-1.452.392-3.142.366-4.277-.602-.528-.444-.924-1.098-.95-1.804-.027-.628.237-1.203.607-1.726.818-1.15 2.244-1.935 3.617-2.092.581-.053 1.109.026 1.531.444.132.131 0 .393-.132.445h-.237c-.079 0-.185-.026-.264-.026-.185-.026-.344-.053-.449.026-1.267.052-2.508.654-3.274 1.674-.343.444-.528.784-.475 1.333.053.733.607 1.282 1.373 1.543 1.082.392 2.429.157 3.458-.209.555-.21 1.056-.418 1.532-.758.105-.079.211 0 .264.13.026.105.026.21.026.288-.369.706-1.848 1.203-2.35 1.334zm1.479-1.779c-.132.157-.37.131-.475.053-.264-.183-.264-.523-.264-.785.026-.444.105-.889.211-1.36l.343-1.438c.211-.941.343-1.883.053-2.667-.238-.68-.819-1.36-1.531-1.439-.608-.078-1.215.131-1.717.497-.264.183-.845.68-1.003.968-.026.105.026.288.132.392.106.105.026.419-.211.366-.185-.052-.396-.104-.555-.235a.63.63 0 0 1-.132-.785c.449-.758 1.083-1.386 1.901-1.752a3.032 3.032 0 0 1 1.822-.261c.792.13 1.479.706 1.875 1.438.607 1.125.528 2.537.237 3.792-.264 1.072-.528 2.066-.686 3.216zM155.043 40.886c-1.321-.052-2.535-.654-3.301-1.778-.633-.941-.792-2.04-.66-3.112a6.872 6.872 0 0 1 1.347-3.243c.765-.993 1.848-1.778 3.089-2.013.845-.157 1.742-.079 2.376.601.29.314.555.654.555 1.072.026.445-.185.837-.555 1.125-1.848 1.517-3.802 2.929-5.808 4.08.052.81.765 1.647 1.531 2.065.766.419 1.663.471 2.508.367.845-.079 1.716-.367 2.324-.654.105-.079.184 0 .211.078.026.053.079.157-.027.236-.924.836-2.244 1.229-3.59 1.176zm1.161-9.336c-.765 0-1.531.314-2.138.785-1.294 1.046-2.06 2.72-2.06 4.341 1.875-1.02 3.644-2.354 5.36-3.74.132-.104.238-.496.053-.81-.211-.419-.687-.575-1.215-.575zM167.771 31.864c-.687-.157-1.373-.314-2.086-.34-.581.733-.871 1.596-1.03 2.51-.185.942-.158 1.936-.211 2.904-.053 1.307.053 2.562.211 3.791-.079.157-.317.262-.502.157-.448-.549-.554-1.255-.58-1.961-.027-1.57-.053-3.217.184-4.76.159-.993.449-1.908 1.057-2.745-1.637-.079-3.142.261-4.647.68a.834.834 0 0 1-.581-.367c-.053-.183.053-.287.158-.34l.159-.052.132-.052c1.109-.445 2.455-.68 3.749-.706 1.32-.052 2.64.078 3.802.497.132.052.369.235.449.392.026.183-.106.418-.264.392zM172.988 40.886c-1.32-.052-2.535-.654-3.3-1.778-.634-.941-.792-2.04-.66-3.112a6.87 6.87 0 0 1 1.346-3.243c.766-.993 1.848-1.778 3.089-2.013.845-.157 1.743-.079 2.376.601.291.314.555.654.555 1.072.026.445-.185.837-.555 1.125-1.848 1.517-3.802 2.929-5.808 4.08.053.81.766 1.647 1.531 2.065.766.419 1.664.471 2.508.367.845-.079 1.717-.367 2.324-.654.105-.079.185 0 .211.078.026.053.079.157-.026.236-.924.836-2.245 1.229-3.591 1.176zm1.162-9.336c-.766 0-1.532.314-2.139.785-1.294 1.046-2.059 2.72-2.059 4.341 1.874-1.02 3.643-2.354 5.359-3.74.132-.104.238-.496.053-.81-.211-.419-.686-.575-1.214-.575zM185.769 29.772c-1.241 2.014-2.667 4.001-3.802 6.12-.132.104-.37.052-.423-.079a1.434 1.434 0 0 1 .053-.758c.053-.236.132-.419.211-.654.898-1.621 2.007-3.164 2.984-4.733.29-.497.449-1.151.396-1.805a2.353 2.353 0 0 0-.528-1.334c-.634-.784-1.426-1.386-2.297-1.673a3.383 3.383 0 0 0-1.848-.13c-.423.078-.792.26-1.162.6-.343.314-.634.707-.766 1.151-.158.131-.449.131-.528-.104-.079-.34.053-.628.159-.942.448-.758 1.082-1.281 1.821-1.543a4.02 4.02 0 0 1 1.928-.157c.765.131 1.452.445 2.086.89a5.644 5.644 0 0 1 1.61 1.726c.343.522.502 1.229.475 1.909 0 .523-.105 1.098-.369 1.516zm-1.69 11.297c-.66 0-1.32-.157-1.901-.444-.607-.314-1.135-.706-1.531-1.282-.106-.157-.132-.418-.08-.627.053-.21.212-.34.476-.236l.633.68c.212.21.449.419.66.576.608.444 1.373.68 2.139.915.079.183-.211.366-.396.418zM195.455 28.857a1.867 1.867 0 0 1-.475.418c-.264.027-.475 0-.66-.104-.581-.262-1.241-.68-1.716-1.02-.027.837-.106 1.7 0 2.51-.053.419-.528.236-.581.131-.053-.052-.106-.105-.132-.183a.56.56 0 0 1-.132-.21c-.053-.235-.053-.47-.053-.68.027-.444.053-.914.053-1.359-.607.575-1.347 1.072-2.139 1.36-.184.026-.475.026-.686-.157-.317-.261-.026-.706.343-.941l.185.34c.185-.053.37-.183.554-.262.555-.34 1.109-.837 1.558-1.334-.845-.68-1.69-1.516-2.402-2.275-.185-.157-.106-.392-.027-.523.238-.314.607-.104.687-.026.607.654 1.24 1.281 1.901 1.883 0-.706.026-1.412-.027-2.066l-.211-.602c-.026-.156.079-.523.422-.496.238.078.37.261.476.47l.079.183c.079.183.132.523.132.706v1.439l.079-.131.554-.732c.185-.262.449-.47.766-.654.423-.235 1.215 0 .977.785-.185-.027-.238-.053-.317-.079-.053 0-.105-.026-.211-.052-.158-.053-.686.654-.766.758-.317.419-.581.863-.924 1.308.634.47 1.32.889 2.086 1.255.053-.078.106-.105.158-.13.053-.053.106-.08.291-.158.211.21.237.366.211.471-.026.052-.053.079-.053.157zM205.717 28.857a1.867 1.867 0 0 1-.475.418c-.264.027-.475 0-.66-.104-.581-.262-1.241-.68-1.716-1.02-.027.837-.106 1.7 0 2.51-.053.419-.528.236-.581.131-.053-.052-.106-.105-.132-.183a.56.56 0 0 1-.132-.21c-.053-.235-.053-.47-.053-.68.026-.444.053-.914.053-1.359-.607.575-1.347 1.072-2.139 1.36-.185.026-.475.026-.686-.157-.317-.261-.027-.706.343-.941l.185.34c.185-.053.369-.183.554-.262.555-.34 1.109-.837 1.558-1.334-.845-.68-1.69-1.516-2.403-2.275-.184-.157-.105-.392-.026-.523.238-.314.607-.104.686-.026a32.4 32.4 0 0 0 1.901 1.883c0-.706.027-1.412-.026-2.066l-.211-.602c-.027-.156.079-.523.422-.496.238.078.37.261.475.47l.08.183c.079.183.132.523.132.706v1.439l.079-.131.554-.732c.185-.262.449-.47.766-.654.422-.235 1.215 0 .977.785-.185-.027-.238-.053-.317-.079-.053 0-.106-.026-.211-.052-.159-.053-.687.654-.766.758-.317.419-.581.863-.924 1.308.634.47 1.32.889 2.086 1.255a.35.35 0 0 1 .158-.13c.053-.053.106-.08.291-.158.211.21.237.366.211.471-.026.052-.053.079-.053.157z" fill="#fff"/></svg>