<svg width="272" height="47" viewBox="0 0 272 47" fill="none" xmlns="http://www.w3.org/2000/svg">
<path d="M10.9379 16.0345C10.6157 15.1639 9.38431 15.1639 9.06215 16.0345L7.45867 20.3679C7.35738 20.6416 7.14157 20.8574 6.86785 20.9587L2.53451 22.5621C1.66389 22.8843 1.66389 24.1157 2.53451 24.4379L6.86785 26.0413C7.14157 26.1426 7.35738 26.3584 7.45867 26.6321L9.06215 30.9655C9.38431 31.8361 10.6157 31.8361 10.9379 30.9655L12.5413 26.6321C12.6426 26.3584 12.8584 26.1426 13.1321 26.0413L17.4655 24.4379C18.3361 24.1157 18.3361 22.8843 17.4655 22.5621L13.1321 20.9587C12.8584 20.8574 12.6426 20.6416 12.5413 20.3679L10.9379 16.0345Z" fill="#FFD700"/>
<path d="M38.9223 5.08588C38.5791 6.44572 38.4207 7.91016 38.2623 9.34845C38.1303 10.3422 38.0775 11.3359 38.0511 12.3558C37.9982 13.8464 37.9982 15.337 37.9454 16.8537C37.8662 17.1152 37.655 17.2721 37.4174 17.2721C37.0742 17.2721 36.9158 16.9322 36.8365 16.6445L36.7309 16.4353C36.0709 13.7156 35.2788 11.0744 34.3019 8.48548C33.8531 7.25639 33.4306 6.05346 32.9554 4.85052C32.4802 3.67374 31.9521 2.49695 31.3185 1.32017C31.2921 1.32017 31.2657 1.26787 31.2657 1.29402C30.5528 3.59528 30.0511 5.9227 29.8135 8.38088C29.6023 10.6037 29.5759 12.8788 29.6551 15.1801C29.7079 15.4939 29.7079 15.8338 29.7607 16.1738C29.7871 16.4876 29.8399 16.8014 29.9455 17.0891C29.9719 17.2721 29.8399 17.4029 29.6815 17.4552C29.2063 17.3506 29.1007 16.9583 29.0215 16.5399L28.9423 16.1738C28.731 14.2648 28.7046 12.3035 28.8102 10.3422C28.9423 8.01476 29.2855 5.68735 29.7607 3.54298C30.0247 2.4185 30.368 1.24171 30.8168 0.195683C30.896 0.0126268 31.2129 -0.0658246 31.3977 0.0649292C31.5561 0.195683 31.6353 0.352587 31.7409 0.535643C32.401 1.58167 32.929 2.68001 33.3778 3.77834L34.7244 7.12564C35.7276 9.63611 36.5461 12.225 37.2326 14.8663C37.259 12.6435 37.2854 10.316 37.523 8.11937C37.7078 6.21036 38.1039 4.32751 38.8959 2.68001C38.9487 2.5754 39.0015 2.44465 39.0807 2.34005C39.2656 1.97393 39.5296 1.58167 40.0312 1.60782C40.3216 1.76473 40.216 2.05239 40.084 2.23544C39.5032 3.09842 39.1864 4.066 38.9223 5.08588ZM45.5229 13.611C44.9157 14.1602 44.1764 14.5263 43.2523 14.4479C42.4602 14.3694 41.7474 13.9248 41.3513 13.3234C40.6385 12.2773 40.4801 10.9698 40.6913 9.76687C40.8497 8.90389 41.2721 7.80556 41.8266 7.12564C42.0114 6.99488 42.1698 6.81183 42.4338 6.83798C42.6451 6.91643 42.6715 7.12564 42.5922 7.25639C42.0906 8.09322 41.6154 9.13925 41.4834 10.2114C41.3777 11.2313 41.5098 12.2512 42.1434 13.0619C42.5394 13.5587 43.2259 13.7418 43.886 13.611C45.2061 13.1926 45.8661 11.9635 46.1038 10.8652C46.315 9.97607 46.2886 9.0085 46.0774 8.11937C45.9189 7.4133 45.5757 6.75953 45.0213 6.21036C44.7836 5.975 44.3084 5.8704 43.9652 5.94885C43.5691 6.02731 43.2523 6.31496 43.0411 6.62877C42.9091 6.73338 42.7243 6.57647 42.7243 6.47187C42.7507 6.07961 43.1467 5.53044 43.5691 5.34739C44.0972 5.08588 44.9157 5.08588 45.4173 5.47814C46.2622 6.13191 46.579 6.78568 46.843 7.70096C47.1334 8.77314 47.1599 9.92377 46.9222 11.0483C46.711 12.0158 46.2358 12.9311 45.5229 13.611ZM42.3546 16.6968C42.1962 16.7491 41.7474 16.7753 41.5362 16.8276C41.3249 16.9322 41.0081 16.906 40.7705 16.906C40.6385 16.8537 40.5593 16.8799 40.4537 16.8537C40.3745 16.8276 40.2952 16.8014 40.216 16.6968C40.1632 16.5922 40.1368 16.4353 40.1632 16.3046C40.1896 16.2 40.2424 16.0954 40.3217 16.0169C40.4801 15.86 40.6121 15.8077 40.7441 15.7815C40.9289 15.7292 41.0609 15.7554 41.1929 15.7292C41.457 15.7292 41.9586 15.7554 42.1962 15.7815C42.3546 15.86 42.513 15.8338 42.6979 15.8861C42.8827 15.8077 44.414 15.8338 44.6516 15.8861C45.2325 15.8338 45.9189 15.8861 46.3942 16.0169C46.5526 16.0692 46.9486 16.0692 47.0806 16.2261C47.0278 16.5922 46.183 16.7753 45.8133 16.6707C45.6021 16.723 45.1269 16.5922 44.81 16.6707C44.546 16.6184 43.9652 16.723 43.7276 16.6968C43.3051 16.6707 42.6451 16.6445 42.3546 16.6968Z" fill="white"/>
<path d="M60.5143 11.8328L60.2502 12.8004C59.6958 13.9771 58.9301 15.2062 57.9532 16.2784C56.9236 17.4029 55.6562 18.3182 54.2569 18.6843C54.0193 18.7366 53.4384 18.6581 53.4648 18.2397C54.4153 17.9521 55.2866 17.4813 56.0523 16.8799C56.8707 16.2523 57.61 15.4677 58.2173 14.6309C58.9565 13.611 59.4582 12.4604 59.6958 11.3098C59.7486 11.1006 59.7222 10.4468 59.4582 10.2114C59.0093 9.81917 58.3493 9.60996 57.6892 9.55766C56.9236 9.50536 56.1579 9.68842 55.5242 9.92377C54.6266 10.2637 53.8081 10.8652 53.0424 11.4667C52.6992 11.519 52.5144 11.0483 52.6464 10.7867C53.4912 9.94992 54.2833 9.0608 54.917 8.11937C55.4186 7.38715 55.7618 6.57647 55.9731 5.7135C56.1051 5.19048 56.0787 4.66747 55.8939 4.1706C55.709 3.62143 55.3658 3.12457 54.8642 2.78461C54.3097 2.4185 53.5705 2.18314 52.8576 2.15699C52.3295 2.13084 51.8279 2.23544 51.3527 2.44465C51.2735 2.49695 51.1942 2.5754 51.115 2.60155C51.0358 2.65386 50.9302 2.68001 50.8246 2.62771C50.6398 2.49695 50.6662 2.26159 50.7982 2.13084C51.115 1.68628 51.5639 1.47707 52.0655 1.37247C52.8048 1.24171 53.6497 1.39862 54.2833 1.58167C55.1282 1.84318 56.1051 2.44465 56.5275 3.35993C56.8972 4.1706 56.95 5.03358 56.8179 5.8181C56.5803 7.07334 55.8939 8.25012 55.049 9.24385C55.8147 8.85159 56.7915 8.61623 57.7156 8.66853C58.5605 8.69468 59.379 8.95619 60.039 9.47921C60.4879 9.81917 60.6199 10.2899 60.6463 10.7867C60.6463 11.1267 60.5935 11.4928 60.5143 11.8328Z" fill="white"/>
<path d="M80.5041 10.6821C78.0223 10.5775 75.5405 10.9698 73.0587 10.7867C72.5834 10.7606 72.0026 10.6298 71.6593 10.2376C71.4745 10.0284 71.6857 9.55766 72.0026 9.60996C73.1379 9.74072 74.2732 9.79302 75.4085 9.76687C76.887 9.74072 78.4447 9.63611 79.7913 9.68842C80.0553 9.68842 80.6625 9.79302 80.8474 10.1068C81.0322 10.3683 80.7945 10.7083 80.5041 10.6821Z" fill="white"/>
<path d="M99.4402 18.6058C98.1728 17.8998 96.8791 17.4029 95.5326 16.9322C94.2125 16.4615 92.9452 15.9908 91.6779 15.4416C91.6515 16.383 91.7835 17.3506 92.0211 18.2136C92.1003 18.3705 92.0475 18.6581 91.8099 18.6581C91.5987 18.6581 91.4667 18.5274 91.3874 18.3966C91.3082 18.292 91.2554 18.1351 91.1762 18.0044C90.8858 17.0629 90.7802 16.0431 90.7802 14.997C90.701 14.9447 90.5954 14.8663 90.5426 14.7355C90.4634 14.6571 90.437 14.5002 90.5162 14.3694C90.6218 14.291 90.7274 14.134 90.7538 14.0294C90.8066 13.6895 90.7802 12.905 90.8594 12.565C90.965 11.9635 91.1234 11.2313 91.2818 10.4991C91.4667 9.76687 91.7307 9.03465 92.0739 8.40703C92.2323 8.14552 92.6284 8.19782 92.7076 8.48548C92.6812 8.82544 92.5755 9.13925 92.4699 9.45306C92.3907 9.74072 92.2323 10.0545 92.1531 10.3683C91.8891 11.3098 91.7307 12.2773 91.7043 13.2711C92.6548 12.4342 93.6052 11.6497 94.5821 10.9175C95.7966 10.0284 97.0903 9.27 98.4633 8.72084C98.6745 8.72084 98.9385 8.72084 99.0969 8.85159C99.2553 8.95619 99.2553 9.1131 99.1761 9.29615C97.7768 9.87147 96.5095 10.6298 95.2158 11.519C94.0013 12.3819 92.7868 13.3757 91.6515 14.4479V14.474C92.9452 15.1801 94.3709 15.6508 95.7438 16.1215C96.9583 16.5399 98.12 17.0106 99.2289 17.7167C99.4666 17.8475 99.6514 18.0305 99.7834 18.2659C99.8098 18.4228 99.5986 18.632 99.4402 18.6058Z" fill="white"/>
<path d="M105.771 18.5535C104.318 18.9458 102.629 18.9196 101.493 17.9521C100.965 17.5075 100.569 16.8537 100.543 16.1477C100.516 15.52 100.78 14.9447 101.15 14.4217C101.969 13.2711 103.394 12.4865 104.767 12.3296C105.348 12.2773 105.876 12.3558 106.299 12.7742C106.431 12.905 106.299 13.1665 106.167 13.2188H105.929C105.85 13.2188 105.744 13.1926 105.665 13.1926C105.48 13.1665 105.322 13.1403 105.216 13.2188C103.949 13.2711 102.708 13.8725 101.942 14.8924C101.599 15.337 101.414 15.6769 101.467 16.2261C101.52 16.9583 102.074 17.5075 102.84 17.769C103.922 18.1613 105.269 17.9259 106.299 17.5598C106.853 17.3506 107.355 17.1414 107.83 16.8014C107.936 16.723 108.041 16.8014 108.094 16.9322C108.12 17.0368 108.12 17.1414 108.12 17.2198C107.751 17.9259 106.272 18.4228 105.771 18.5535ZM107.249 16.7753C107.117 16.9322 106.879 16.906 106.774 16.8276C106.51 16.6445 106.51 16.3046 106.51 16.0431C106.536 15.5985 106.615 15.1539 106.721 14.6832L107.064 13.2449C107.275 12.3035 107.407 11.3621 107.117 10.5775C106.879 9.89762 106.299 9.2177 105.586 9.13925C104.978 9.0608 104.371 9.27 103.87 9.63611C103.606 9.81917 103.025 10.316 102.866 10.6037C102.84 10.7083 102.893 10.8914 102.998 10.996C103.104 11.1006 103.025 11.4144 102.787 11.3621C102.602 11.3098 102.391 11.2575 102.233 11.1267C102.021 10.9437 101.942 10.6037 102.101 10.3422C102.549 9.58381 103.183 8.95619 104.002 8.59008C104.53 8.32857 105.163 8.22397 105.823 8.32857C106.615 8.45933 107.302 9.03465 107.698 9.76687C108.305 10.8914 108.226 12.3035 107.936 13.5587C107.671 14.6309 107.407 15.6246 107.249 16.7753Z" fill="white"/>
<path d="M118.391 18.6058C117.124 17.8998 115.83 17.4029 114.483 16.9322C113.163 16.4615 111.896 15.9908 110.629 15.4416C110.602 16.383 110.734 17.3506 110.972 18.2136C111.051 18.3705 110.998 18.6581 110.761 18.6581C110.55 18.6581 110.418 18.5274 110.338 18.3966C110.259 18.292 110.206 18.1351 110.127 18.0044C109.837 17.0629 109.731 16.0431 109.731 14.997C109.652 14.9447 109.546 14.8663 109.493 14.7355C109.414 14.6571 109.388 14.5002 109.467 14.3694C109.573 14.291 109.678 14.134 109.705 14.0294C109.757 13.6895 109.731 12.905 109.81 12.565C109.916 11.9635 110.074 11.2313 110.233 10.4991C110.418 9.76687 110.682 9.03465 111.025 8.40703C111.183 8.14552 111.579 8.19782 111.658 8.48548C111.632 8.82544 111.526 9.13925 111.421 9.45306C111.342 9.74072 111.183 10.0545 111.104 10.3683C110.84 11.3098 110.682 12.2773 110.655 13.2711C111.606 12.4342 112.556 11.6497 113.533 10.9175C114.748 10.0284 116.041 9.27 117.414 8.72084C117.625 8.72084 117.889 8.72084 118.048 8.85159C118.206 8.95619 118.206 9.1131 118.127 9.29615C116.728 9.87147 115.46 10.6298 114.167 11.519C112.952 12.3819 111.738 13.3757 110.602 14.4479V14.474C111.896 15.1801 113.322 15.6508 114.695 16.1215C115.909 16.5399 117.071 17.0106 118.18 17.7167C118.417 17.8475 118.602 18.0305 118.734 18.2659C118.761 18.4228 118.549 18.632 118.391 18.6058Z" fill="white"/>
<path d="M125.645 18.0305C124.457 18.632 123.032 18.8935 121.738 18.2659C120.735 17.769 120.022 16.9322 119.679 15.8861C119.283 14.6571 119.415 13.2711 119.943 12.1204C120.339 11.2836 120.946 10.5514 121.659 10.0022C122.134 9.66226 122.847 9.24385 123.507 9.1654C124.035 8.56393 124.906 8.38088 125.645 8.56393C126.913 8.90389 127.995 10.1853 128.339 11.3098C128.682 12.4081 128.761 13.611 128.444 14.7355C128.048 16.2523 127.045 17.3506 125.645 18.0305ZM127.467 11.5974C127.15 10.7344 126.438 9.76687 125.513 9.45306C125.091 9.29615 124.642 9.24385 124.299 9.50536C123.956 9.76687 123.745 10.1853 123.586 10.5514C123.56 10.6298 123.56 10.7344 123.56 10.839C123.56 10.9437 123.56 11.0744 123.533 11.179C123.507 11.2313 123.243 11.3882 123.164 11.2313C123.111 10.996 123.058 10.5252 123.084 10.1591C122.081 10.5775 121.236 11.4405 120.761 12.4081C120.259 13.428 120.233 14.6048 120.55 15.6508C120.814 16.4615 121.316 17.1414 122.16 17.4813C123.216 17.8736 124.352 17.7429 125.302 17.2721C126.385 16.723 127.15 15.8861 127.52 14.7617C127.863 13.7679 127.81 12.5912 127.467 11.5974Z" fill="white"/>
<path d="M133.771 18.6581C132.451 18.6058 131.237 18.0044 130.471 16.8799C129.837 15.9385 129.679 14.8401 129.811 13.7679C129.969 12.565 130.471 11.4144 131.157 10.5252C131.923 9.53151 133.006 8.74699 134.246 8.51163C135.091 8.35473 135.989 8.43318 136.623 9.1131C136.913 9.42691 137.177 9.76687 137.177 10.1853C137.204 10.6298 136.992 11.0221 136.623 11.3098C134.774 12.8265 132.821 14.2387 130.814 15.3893C130.867 16.2 131.58 17.0368 132.345 17.4552C133.111 17.8736 134.009 17.9259 134.854 17.8213C135.699 17.7429 136.57 17.4552 137.177 17.1675C137.283 17.0891 137.362 17.1675 137.388 17.246C137.415 17.2983 137.468 17.4029 137.362 17.4813C136.438 18.3182 135.118 18.7104 133.771 18.6581ZM134.933 9.3223C134.167 9.3223 133.402 9.63611 132.794 10.1068C131.501 11.1529 130.735 12.8265 130.735 14.4479C132.61 13.428 134.378 12.0943 136.095 10.7083C136.227 10.6037 136.332 10.2114 136.147 9.89762C135.936 9.47921 135.461 9.3223 134.933 9.3223Z" fill="white"/>
<path d="M154.032 10.7083C153.055 10.2114 151.999 9.89762 150.917 9.71457C149.782 9.53151 148.488 9.45306 147.564 9.47921C147.485 9.50536 147.353 9.53151 147.353 9.60996C147.379 12.1466 147.141 14.8924 146.983 17.4813C146.93 17.6644 146.93 17.8475 146.877 18.0305C146.851 18.2136 146.798 18.3966 146.666 18.5274C146.534 18.6581 146.059 18.8412 145.98 18.5274C146.085 16.9845 146.323 13.4018 146.376 12.042L146.481 9.0085C146.798 8.64238 147.221 8.56393 147.669 8.59008C147.881 8.59008 148.118 8.59008 148.329 8.61623C148.541 8.64238 148.752 8.64238 148.963 8.61623C150.574 8.72084 152.131 9.03465 153.504 9.74072C153.847 9.89762 154.164 10.133 154.376 10.4991C154.428 10.7083 154.138 10.7867 154.032 10.7083Z" fill="white"/>
<path d="M163.916 18.3182C163.573 18.3443 163.335 17.9782 163.177 17.7167C162.596 16.6968 162.121 15.6246 161.777 14.5002C161.329 13.1142 161.091 11.702 160.985 10.1853C160.193 11.3882 158.873 13.5849 158.055 14.7617C157.21 16.0169 156.365 17.3506 155.679 18.6058C155.599 18.7889 155.309 18.6581 155.203 18.5012C155.071 18.2659 155.124 17.9521 155.177 17.7167C155.335 17.4813 155.626 16.8799 155.784 16.5399C157.5 13.951 159.296 11.3098 160.88 8.72084C161.065 8.53778 161.698 8.43318 161.751 8.93004C161.883 10.5252 162.121 12.1204 162.49 13.6372C162.86 15.1539 163.414 16.5661 164.127 17.9259C164.154 18.0044 164.127 18.292 163.916 18.3182Z" fill="white"/>
<path d="M170.229 18.5535C168.777 18.9458 167.087 18.9196 165.952 17.9521C165.424 17.5075 165.028 16.8537 165.002 16.1477C164.975 15.52 165.239 14.9447 165.609 14.4217C166.427 13.2711 167.853 12.4865 169.226 12.3296C169.807 12.2773 170.335 12.3558 170.757 12.7742C170.889 12.905 170.757 13.1665 170.625 13.2188H170.388C170.309 13.2188 170.203 13.1926 170.124 13.1926C169.939 13.1665 169.78 13.1403 169.675 13.2188C168.408 13.2711 167.167 13.8725 166.401 14.8924C166.058 15.337 165.873 15.6769 165.926 16.2261C165.979 16.9583 166.533 17.5075 167.299 17.769C168.381 18.1613 169.728 17.9259 170.757 17.5598C171.312 17.3506 171.813 17.1414 172.289 16.8014C172.394 16.723 172.5 16.8014 172.553 16.9322C172.579 17.0368 172.579 17.1414 172.579 17.2198C172.209 17.9259 170.731 18.4228 170.229 18.5535ZM171.708 16.7753C171.576 16.9322 171.338 16.906 171.233 16.8276C170.969 16.6445 170.969 16.3046 170.969 16.0431C170.995 15.5985 171.074 15.1539 171.18 14.6832L171.523 13.2449C171.734 12.3035 171.866 11.3621 171.576 10.5775C171.338 9.89762 170.757 9.2177 170.044 9.13925C169.437 9.0608 168.83 9.27 168.328 9.63611C168.064 9.81917 167.483 10.316 167.325 10.6037C167.299 10.7083 167.351 10.8914 167.457 10.996C167.563 11.1006 167.483 11.4144 167.246 11.3621C167.061 11.3098 166.85 11.2575 166.691 11.1267C166.48 10.9437 166.401 10.6037 166.559 10.3422C167.008 9.58381 167.642 8.95619 168.46 8.59008C168.988 8.32857 169.622 8.22397 170.282 8.32857C171.074 8.45933 171.761 9.03465 172.157 9.76687C172.764 10.8914 172.685 12.3035 172.394 13.5587C172.13 14.6309 171.866 15.6246 171.708 16.7753Z" fill="white"/>
<path d="M179.153 17.9521C178.361 18.4751 177.385 18.8935 176.408 18.8935C175.853 18.8935 175.457 18.6581 175.088 18.1351C174.956 18.2397 174.718 18.3182 174.612 18.1613C174.137 17.5075 174.005 16.5922 173.979 15.7031C173.926 13.428 173.952 11.7543 174.559 9.71457C174.612 9.50536 175.114 9.1131 175.484 9.2177C175.642 8.79929 176.064 8.35473 176.566 8.30242C177.913 8.30242 179.365 9.0085 179.814 10.3422C179.946 10.7606 179.946 11.2052 179.787 11.6236C179.629 12.0158 179.365 12.3558 179.021 12.6173L178.863 12.7481C179.523 12.9573 180.262 13.3757 180.685 14.0294C181.002 14.5263 181.028 15.1278 180.896 15.7031C180.658 16.6445 179.972 17.4029 179.153 17.9521ZM179.893 14.474C179.682 14.0817 179.101 13.8464 178.678 13.6372C178.177 13.3234 177.728 13.4541 177.226 13.5587L176.434 13.7418C176.144 13.8202 175.853 13.8202 175.536 13.7418C175.404 13.6633 175.246 13.4018 175.378 13.2711C175.695 12.9573 176.091 12.8004 176.54 12.6958L177.754 12.565C178.229 12.3035 178.731 11.7805 178.942 11.2836C179.074 10.8652 178.995 10.5775 178.731 10.2376C178.256 9.58381 177.49 9.29615 176.724 9.2177C176.487 9.19155 176.408 9.24385 176.355 9.40076C176.276 9.60996 176.223 9.84532 176.091 10.0284C176.038 10.1591 175.853 10.2114 175.721 10.133C175.616 10.1068 175.536 10.0545 175.484 10.0022C175.167 11.1267 174.982 12.4081 174.929 13.7418C174.876 14.997 174.929 16.2261 175.114 17.3767C175.325 17.1414 175.589 16.8014 175.721 16.6184C175.906 16.4353 176.249 16.723 176.196 16.906C176.144 17.0368 176.038 17.1937 175.959 17.3244C175.906 17.4813 175.827 17.6121 175.827 17.7167C175.985 17.9521 176.355 18.0305 176.804 17.9782C177.464 17.8736 178.256 17.5075 178.837 17.0629C179.365 16.6445 179.814 16.1215 179.946 15.4677C180.025 15.1539 180.078 14.7878 179.893 14.474Z" fill="white"/>
<path d="M190.205 12.7481C190.02 14.6048 190.126 16.7753 190.258 18.6058C190.284 18.7889 190.02 18.815 189.888 18.7366C189.518 18.4489 189.333 17.6906 189.307 17.2198C189.228 15.7554 189.228 14.3956 189.307 12.9311C187.353 13.0096 185.241 12.9573 183.314 13.1665C183.235 14.9186 183.287 16.5922 183.367 18.2659C183.393 18.3182 183.287 18.3966 183.155 18.4228C183.076 18.4228 182.944 18.3966 182.865 18.3182C182.522 17.9782 182.442 17.3506 182.416 16.9322C182.284 14.291 182.469 11.6497 182.733 9.0608C182.786 8.90389 183.023 8.74699 183.235 8.87774C183.525 9.0085 183.525 9.34845 183.578 9.60996C183.525 10.2899 183.446 11.4405 183.367 12.2512C185.294 12.1204 187.432 12.1989 189.36 12.1727C189.465 10.8914 189.518 9.60996 189.835 8.40703C189.967 8.25012 190.231 8.35473 190.39 8.51163C190.522 8.66854 190.601 8.98234 190.601 9.1654C190.469 10.1591 190.284 11.1267 190.258 12.1466C190.337 12.1466 190.416 12.1204 190.495 12.1204C190.548 12.1204 190.627 12.1727 190.627 12.3035C190.627 12.3558 190.627 12.4604 190.574 12.5127C190.495 12.6173 190.337 12.6958 190.205 12.7481Z" fill="white"/>
<path d="M198.149 18.0305C196.961 18.632 195.535 18.8935 194.241 18.2659C193.238 17.769 192.525 16.9322 192.182 15.8861C191.786 14.6571 191.918 13.2711 192.446 12.1204C192.842 11.2836 193.449 10.5514 194.162 10.0022C194.637 9.66226 195.35 9.24385 196.01 9.1654C196.538 8.56393 197.409 8.38088 198.149 8.56393C199.416 8.90389 200.499 10.1853 200.842 11.3098C201.185 12.4081 201.264 13.611 200.947 14.7355C200.551 16.2523 199.548 17.3506 198.149 18.0305ZM199.97 11.5974C199.654 10.7344 198.941 9.76687 198.017 9.45306C197.594 9.29615 197.145 9.24385 196.802 9.50536C196.459 9.76687 196.248 10.1853 196.089 10.5514C196.063 10.6298 196.063 10.7344 196.063 10.839C196.063 10.9437 196.063 11.0744 196.037 11.179C196.01 11.2313 195.746 11.3882 195.667 11.2313C195.614 10.996 195.561 10.5252 195.588 10.1591C194.584 10.5775 193.74 11.4405 193.264 12.4081C192.763 13.428 192.736 14.6048 193.053 15.6508C193.317 16.4615 193.819 17.1414 194.664 17.4813C195.72 17.8736 196.855 17.7429 197.805 17.2721C198.888 16.723 199.654 15.8861 200.023 14.7617C200.367 13.7679 200.314 12.5912 199.97 11.5974Z" fill="white"/>
<path d="M206.274 18.6581C204.954 18.6058 203.74 18.0044 202.974 16.8799C202.34 15.9385 202.182 14.8401 202.314 13.7679C202.473 12.565 202.974 11.4144 203.661 10.5252C204.426 9.53151 205.509 8.74699 206.75 8.51163C207.595 8.35473 208.492 8.43318 209.126 9.1131C209.416 9.42691 209.68 9.76687 209.68 10.1853C209.707 10.6298 209.496 11.0221 209.126 11.3098C207.278 12.8265 205.324 14.2387 203.317 15.3893C203.37 16.2 204.083 17.0368 204.849 17.4552C205.614 17.8736 206.512 17.9259 207.357 17.8213C208.202 17.7429 209.073 17.4552 209.68 17.1675C209.786 17.0891 209.865 17.1675 209.892 17.246C209.918 17.2983 209.971 17.4029 209.865 17.4813C208.941 18.3182 207.621 18.7104 206.274 18.6581ZM207.436 9.3223C206.67 9.3223 205.905 9.63611 205.298 10.1068C204.004 11.1529 203.238 12.8265 203.238 14.4479C205.113 13.428 206.882 12.0943 208.598 10.7083C208.73 10.6037 208.835 10.2114 208.651 9.89762C208.439 9.47921 207.964 9.3223 207.436 9.3223Z" fill="white"/>
<path d="M226.641 2.68001C226.06 2.88921 225.427 3.01997 224.846 3.22917C223.79 3.56913 223.077 4.0137 222.338 4.82437C221.598 5.60889 221.123 6.55032 220.701 7.54405C220.278 8.56393 219.988 9.68842 219.671 10.7606C220.621 10.1068 221.73 9.53151 222.892 9.34845C223.922 9.1654 225.057 9.37461 225.955 9.94992C226.905 10.5514 227.539 11.5974 227.803 12.6958C228.067 13.8725 227.961 14.9709 227.354 16.0169C226.826 16.9583 226.008 17.7429 225.004 18.2136C224.159 18.632 223.05 18.7627 222.047 18.6058C220.885 18.4489 219.961 17.9259 219.275 17.0106C218.536 16.0169 218.324 14.814 218.351 13.5849C218.404 11.8851 218.905 10.0545 219.354 8.66853C219.909 6.99488 220.701 5.16433 222.074 3.85679C222.734 3.22917 223.526 2.73231 224.371 2.44465C224.951 2.26159 225.559 2.13084 226.166 1.94778C226.747 1.76473 227.301 1.52937 227.803 1.11096C227.961 1.08481 228.225 1.11096 228.278 1.26787C228.384 1.42477 228.384 1.63398 228.278 1.76473C227.776 2.20929 227.222 2.49695 226.641 2.68001ZM226.588 11.9897C226.245 11.2313 225.559 10.656 224.793 10.4206C224.027 10.1591 223.05 10.2114 222.285 10.4468C221.229 10.7606 220.252 11.3882 219.407 12.1466C219.169 13.2972 219.196 14.6832 219.592 15.7292C219.777 16.2523 220.146 16.723 220.621 17.0891C221.413 17.7167 222.232 17.7952 223.235 17.6906C224.318 17.5859 225.295 17.0891 226.087 16.2784C226.72 15.6508 226.984 15.0232 227.011 14.1079C227.037 13.3495 226.879 12.5912 226.588 11.9897Z" fill="white"/>
<path d="M237.863 18.3182C237.52 18.3443 237.282 17.9782 237.124 17.7167C236.543 16.6968 236.068 15.6246 235.725 14.5002C235.276 13.1142 235.038 11.702 234.933 10.1853C234.14 11.3882 232.82 13.5849 232.002 14.7617C231.157 16.0169 230.312 17.3506 229.626 18.6058C229.546 18.7889 229.256 18.6581 229.15 18.5012C229.018 18.2659 229.071 17.9521 229.124 17.7167C229.282 17.4813 229.573 16.8799 229.731 16.5399C231.447 13.951 233.243 11.3098 234.827 8.72084C235.012 8.53778 235.645 8.43318 235.698 8.93004C235.83 10.5252 236.068 12.1204 236.437 13.6372C236.807 15.1539 237.362 16.5661 238.074 17.9259C238.101 18.0044 238.074 18.292 237.863 18.3182Z" fill="white"/>
<path d="M249.642 17.9259C248.902 18.6843 247.688 18.9196 246.685 18.5274C245.734 18.1351 245.18 17.4552 244.863 16.5922C244.52 15.6508 244.44 14.5263 244.467 13.4803C243.252 13.3234 241.985 13.0619 240.744 13.2449C240.533 13.3234 240.322 13.4018 240.163 13.5326C240.11 14.8663 240.005 17.2721 239.978 18.5274C239.767 18.8412 239.45 18.7104 239.371 18.5012C239.028 15.3108 239.318 11.9897 239.767 8.90389C239.873 8.72084 239.978 8.61623 240.137 8.53778C240.427 8.53778 240.718 8.56393 240.876 8.85159C240.85 9.03465 240.771 9.13925 240.665 9.27C240.639 9.29615 240.612 9.34845 240.612 9.37461C240.427 10.4206 240.322 11.4667 240.242 12.565C240.744 12.3296 241.351 12.3035 241.959 12.3296C243.015 12.3819 243.78 12.5127 244.546 12.6696C244.652 11.2313 245.444 9.79302 246.843 9.2177C247.054 8.87774 247.424 8.59008 247.82 8.56393C249.008 8.64238 250.011 9.71457 250.355 10.7344C250.724 11.8328 250.988 13.2188 250.935 14.5263C250.883 15.8077 250.513 17.0106 249.642 17.9259ZM249.351 10.656C249.114 10.1591 248.665 9.63611 248.163 9.47921C247.846 9.37461 247.556 9.53151 247.318 9.81917C247.239 9.92377 247.186 10.0545 247.133 10.1591C247.054 10.2899 246.949 10.4206 246.737 10.4991C246.658 10.4729 246.605 10.3683 246.579 10.2637C245.866 10.9437 245.549 11.8851 245.417 12.8527C245.259 13.9771 245.365 15.8338 245.919 16.8014C246.183 17.2198 246.553 17.5598 247.107 17.7167C247.741 17.9259 248.401 17.6906 248.955 17.3506C249.615 16.6184 249.906 15.6246 249.985 14.6309C250.091 13.2449 249.774 11.8066 249.351 10.656Z" fill="white"/>
<path d="M261.576 22.5807C261.496 22.79 261.232 22.79 261.1 22.7115C260.81 22.45 260.81 22.0839 260.783 21.7178C260.704 20.6194 260.599 19.4165 260.731 18.292C258.249 18.0567 255.609 18.1874 253.232 18.632C253.127 19.9657 253.18 21.3778 253.391 22.6592C253.364 22.79 253.18 22.9992 252.968 22.8684C252.731 22.7638 252.625 22.5546 252.572 22.3715L252.44 21.7962C252.388 21.2209 252.335 20.6456 252.308 20.0964C252.282 19.5211 252.282 18.9458 252.335 18.4489C252.361 18.2397 252.546 18.0305 252.731 17.8998L253.47 17.7429C255.001 15.2062 256.269 12.5912 257.378 9.87147C257.404 9.74072 257.457 9.37461 257.351 9.24385C257.272 8.90389 257.483 8.72084 257.694 8.56393C258.539 8.43318 259.49 8.45933 260.229 8.87774C260.519 9.0085 260.651 9.29615 260.704 9.58381C260.704 10.9437 260.731 13.7679 260.757 15.1539C260.863 15.9123 260.757 16.6968 260.704 17.4552C260.757 17.4813 260.836 17.4813 260.942 17.4813C261.1 17.5075 261.206 17.4813 261.285 17.4813C261.523 17.5075 261.734 17.6644 261.734 17.8736C261.523 19.4427 261.496 21.0379 261.576 22.5807ZM259.939 16.6968C259.912 16.4353 259.886 16.2 259.886 15.9123C259.886 14.3694 259.859 11.3359 259.833 9.79302C259.727 9.58381 259.543 9.47921 259.331 9.42691C258.962 9.3223 258.513 9.34845 258.117 9.37461C258.222 9.74072 258.143 10.133 258.064 10.4729C257.008 12.905 255.899 15.337 254.473 17.6121C256.216 17.4029 258.038 17.3244 259.912 17.4029C259.939 17.1675 259.939 16.9322 259.939 16.6968Z" fill="white"/>
<path d="M269.002 18.0305C267.814 18.632 266.388 18.8935 265.094 18.2659C264.091 17.769 263.378 16.9322 263.035 15.8861C262.639 14.6571 262.771 13.2711 263.299 12.1204C263.695 11.2836 264.302 10.5514 265.015 10.0022C265.49 9.66226 266.203 9.24385 266.863 9.1654C267.391 8.56393 268.263 8.38088 269.002 8.56393C270.269 8.90389 271.352 10.1853 271.695 11.3098C272.038 12.4081 272.117 13.611 271.8 14.7355C271.404 16.2523 270.401 17.3506 269.002 18.0305ZM270.824 11.5974C270.507 10.7344 269.794 9.76687 268.87 9.45306C268.447 9.29615 267.999 9.24385 267.655 9.50536C267.312 9.76687 267.101 10.1853 266.942 10.5514C266.916 10.6298 266.916 10.7344 266.916 10.839C266.916 10.9437 266.916 11.0744 266.89 11.179C266.863 11.2313 266.599 11.3882 266.52 11.2313C266.467 10.996 266.414 10.5252 266.441 10.1591C265.438 10.5775 264.593 11.4405 264.117 12.4081C263.616 13.428 263.589 14.6048 263.906 15.6508C264.17 16.4615 264.672 17.1414 265.517 17.4813C266.573 17.8736 267.708 17.7429 268.659 17.2721C269.741 16.723 270.507 15.8861 270.876 14.7617C271.22 13.7679 271.167 12.5912 270.824 11.5974Z" fill="white"/>
<path d="M33.193 40.1802C32.401 40.7032 31.4241 41.1217 30.4472 41.1217C29.8927 41.1217 29.4967 40.8863 29.1271 40.3633C28.9951 40.4679 28.7574 40.5463 28.6518 40.3894C28.1766 39.7357 28.0446 38.8204 28.0182 37.9313C27.9654 35.6561 27.9918 33.9825 28.599 31.9427C28.6518 31.7335 29.1535 31.3413 29.5231 31.4459C29.6815 31.0275 30.104 30.5829 30.6056 30.5306C31.9521 30.5306 33.4042 31.2367 33.8531 32.5703C33.9851 32.9888 33.9851 33.4333 33.8267 33.8517C33.6683 34.244 33.4042 34.584 33.061 34.8455L32.9026 34.9762C33.5627 35.1854 34.3019 35.6038 34.7244 36.2576C35.0412 36.7545 35.0676 37.3559 34.9356 37.9313C34.698 38.8727 34.0115 39.6311 33.193 40.1802ZM33.9323 36.7022C33.7211 36.3099 33.1402 36.0746 32.7178 35.8653C32.2161 35.5515 31.7673 35.6823 31.2657 35.7869L30.4736 35.9699C30.1832 36.0484 29.8927 36.0484 29.5759 35.9699C29.4439 35.8915 29.2855 35.63 29.4175 35.4992C29.7343 35.1854 30.1304 35.0285 30.5792 34.9239L31.7937 34.7932C32.2689 34.5317 32.7706 34.0086 32.9818 33.5118C33.1138 33.0934 33.0346 32.8057 32.7706 32.4657C32.2953 31.812 31.5297 31.5243 30.764 31.4459C30.5264 31.4197 30.4472 31.472 30.3944 31.6289C30.3152 31.8381 30.2624 32.0735 30.1304 32.2565C30.0776 32.3873 29.8927 32.4396 29.7607 32.3611C29.6551 32.335 29.5759 32.2827 29.5231 32.2304C29.2063 33.3549 29.0215 34.6363 28.9687 35.9699C28.9158 37.2252 28.9687 38.4543 29.1535 39.6049C29.3647 39.3695 29.6287 39.0296 29.7607 38.8465C29.9455 38.6635 30.2888 38.9511 30.236 39.1342C30.1832 39.2649 30.0776 39.4219 29.9983 39.5526C29.9455 39.7095 29.8663 39.8403 29.8663 39.9449C30.0247 40.1802 30.3944 40.2587 30.8432 40.2064C31.5033 40.1018 32.2953 39.7357 32.8762 39.2911C33.4042 38.8727 33.8531 38.3497 33.9851 37.6959C34.0643 37.3821 34.1171 37.016 33.9323 36.7022Z" fill="white"/>
<path d="M40.7063 39.5526C40.0199 40.1541 39.175 40.5463 38.3565 40.7294C37.6965 40.8863 36.7724 40.9647 36.2179 40.4156C36.0595 40.2848 35.8219 39.8664 36.0595 39.6311C36.2443 39.7618 36.3764 39.8664 36.5348 39.9449C36.6404 40.0233 36.746 40.0756 36.878 40.0756C36.8516 38.2712 36.9572 34.7932 37.01 33.0411C37.0364 32.6226 36.9836 32.1781 37.01 31.7597C37.0628 31.3413 37.142 30.9228 37.4853 30.609C37.7229 30.5306 37.9341 30.4783 38.0661 30.7398C37.9341 31.2105 37.9341 32.0473 37.9077 32.9626C37.9077 33.7994 37.9077 34.6886 37.8813 35.3162C38.2509 35.0547 38.779 34.8455 39.2806 34.7932C39.8879 34.7409 40.5215 34.8455 41.0232 35.1331C41.8152 35.5515 42.2905 36.4668 42.0793 37.4082C41.9208 38.2189 41.3664 38.9773 40.7063 39.5526ZM41.0496 36.3361C40.7327 35.8392 40.1783 35.6561 39.571 35.6561C38.9638 35.6823 38.3037 35.9176 37.9077 36.2838L37.6965 40.0233C38.5149 39.8403 39.3598 39.4742 40.0463 38.8988C40.5215 38.5066 40.9704 38.0359 41.1552 37.4344C41.2872 37.0683 41.2608 36.6237 41.0496 36.3361ZM46.5413 41.017C45.8812 40.834 45.8812 40.1802 45.802 39.6572C45.406 36.676 45.6436 33.7994 46.0396 30.8444C46.2772 30.4783 46.6997 30.7921 46.8053 31.0013C46.8317 31.6028 46.8053 32.1781 46.7261 32.7796C46.6733 33.3549 46.5941 33.9563 46.5941 34.5578C46.5677 35.5777 46.5149 36.6237 46.5413 37.6697C46.5413 38.6896 46.6469 39.7357 46.8053 40.7032C46.8317 40.834 46.6733 41.017 46.5413 41.017Z" fill="white"/>
<path d="M63.8028 40.0233C63.8028 40.2325 63.5652 40.2848 63.4332 40.2587C63.1427 40.1541 63.0899 39.6834 63.0371 39.4218C62.9579 38.9511 62.9579 38.4804 62.9579 37.9836V36.3884C62.9579 35.1593 63.1163 33.8256 63.1427 32.5703C62.9843 32.335 62.7203 32.2042 62.4563 32.1519C62.1659 32.0735 61.8226 32.0473 61.5322 31.9689C60.4761 31.812 59.42 31.6551 58.3111 31.7074C58.1791 32.858 57.8623 33.9302 57.7039 35.0808C57.4662 36.7806 57.255 38.3758 57.3606 40.1802C57.3606 40.3894 57.4134 40.7032 57.2022 40.8601C57.0966 40.9647 56.8062 40.9647 56.6742 40.834C56.5422 40.6771 56.4894 40.494 56.463 40.311C56.4366 40.1279 56.463 39.9187 56.4366 39.7095C56.4102 36.9637 56.859 34.4009 57.4134 31.7335C57.2814 31.7597 57.1494 31.7858 57.0174 31.7597C56.7798 31.6289 56.8326 31.3936 56.9382 31.289C57.0438 31.0798 57.2286 31.0013 57.4134 30.949C57.5983 30.8967 57.8095 30.8444 57.9943 30.8444C59.7896 30.7136 61.6906 30.9751 63.3276 31.4982C63.6444 31.6812 64.0932 31.8904 64.1196 32.3088C63.882 34.8193 63.8292 37.4082 63.8028 40.0233Z" fill="white"/>
<path d="M67.0068 31.8643H66.8748C66.7955 31.8643 66.6899 31.812 66.6635 31.6812C66.6371 31.472 66.7163 31.289 66.8748 31.1321C67.2972 30.7659 67.7724 30.609 68.3005 30.6352C68.6701 30.6613 69.0397 30.7136 69.4094 30.8444L70.4127 31.1844C71.8384 31.6551 73.0793 32.9103 73.7658 34.2701C74.1354 35.0285 74.2674 35.813 74.0826 36.676C73.8978 37.4605 73.4225 38.1928 72.7889 38.7942C71.2047 40.2848 69.2246 40.7294 67.0332 40.7294C67.0068 42.5076 66.9012 44.4951 67.1388 46.2472C67.1388 46.3257 67.1916 46.4303 67.2444 46.5087C67.2708 46.6395 67.3236 46.7441 67.218 46.901C67.0068 47.0579 66.7955 47.0056 66.6107 46.901C66.3467 46.6133 66.2411 46.2995 66.2147 45.9334C66.0299 44.0767 66.1091 42.2723 66.2147 40.3894C65.9771 40.1802 65.6074 39.8926 65.5282 39.5788C65.5282 39.4742 65.5546 39.3695 65.6074 39.3172C65.6866 39.1865 65.7923 39.1603 65.8451 39.2126C65.9243 39.2911 66.0827 39.3957 66.2147 39.4742C66.3731 36.8591 66.5579 34.3747 67.0068 31.8643ZM72.2344 33.5641C71.6536 32.858 70.8351 32.3611 70.043 32.0212C69.5942 31.812 68.3269 31.3413 67.8516 31.5505C67.878 31.9166 67.8252 32.5703 67.7724 32.858C67.4028 35.0808 67.1652 37.4605 67.1388 39.8141C68.9605 39.9449 70.7031 39.3957 72.1024 38.1928C72.8681 37.539 73.3169 36.6237 73.2377 35.6823C73.1849 34.8978 72.6833 34.1132 72.2344 33.5641Z" fill="white"/>
<path d="M79.1875 40.8863C77.8674 40.834 76.6529 40.2325 75.8872 39.108C75.2536 38.1666 75.0952 37.0683 75.2272 35.9961C75.3856 34.7932 75.8872 33.6425 76.5737 32.7534C77.3394 31.7597 78.4218 30.9751 79.6628 30.7398C80.5076 30.5829 81.4053 30.6613 82.039 31.3413C82.3294 31.6551 82.5934 31.995 82.5934 32.4134C82.6198 32.858 82.4086 33.2503 82.039 33.5379C80.1908 35.0547 78.237 36.4668 76.2305 37.6174C76.2833 38.4281 76.9961 39.2649 77.7618 39.6834C78.5275 40.1018 79.4251 40.1541 80.27 40.0495C81.1149 39.971 81.9862 39.6834 82.5934 39.3957C82.699 39.3172 82.7782 39.3957 82.8046 39.4742C82.831 39.5265 82.8838 39.6311 82.7782 39.7095C81.8541 40.5463 80.534 40.9386 79.1875 40.8863ZM80.3492 31.5505C79.5835 31.5505 78.8179 31.8643 78.2106 32.335C76.9169 33.381 76.1512 35.0547 76.1512 36.676C78.0258 35.6561 79.7948 34.3224 81.5109 32.9365C81.6429 32.8319 81.7485 32.4396 81.5637 32.1258C81.3525 31.7074 80.8773 31.5505 80.3492 31.5505Z" fill="white"/>
<path d="M93.2092 44.8089C93.13 45.0181 92.866 45.0181 92.734 44.9397C92.4435 44.6782 92.4435 44.312 92.4171 43.9459C92.3379 42.8476 92.2323 41.6447 92.3643 40.5202C89.8825 40.2848 87.2423 40.4156 84.8661 40.8601C84.7605 42.1938 84.8133 43.606 85.0245 44.8874C84.9981 45.0181 84.8133 45.2273 84.6021 45.0966C84.3644 44.992 84.2588 44.7828 84.206 44.5997L84.074 44.0244C84.0212 43.4491 83.9684 42.8738 83.942 42.3246C83.9156 41.7493 83.9156 41.174 83.9684 40.6771C83.9948 40.4679 84.1796 40.2587 84.3644 40.1279L85.1037 39.971C86.635 37.4344 87.9023 34.8193 89.0112 32.0996C89.0376 31.9689 89.0904 31.6028 88.9848 31.472C88.9056 31.1321 89.1168 30.949 89.3281 30.7921C90.1729 30.6613 91.1234 30.6875 91.8627 31.1059C92.1531 31.2367 92.2851 31.5243 92.3379 31.812C92.3379 33.1718 92.3643 35.9961 92.3907 37.3821C92.4963 38.1405 92.3907 38.925 92.3379 39.6834C92.3907 39.7095 92.4699 39.7095 92.5756 39.7095C92.734 39.7357 92.8396 39.7095 92.9188 39.7095C93.1564 39.7357 93.3676 39.8926 93.3676 40.1018C93.1564 41.6708 93.13 43.266 93.2092 44.8089ZM91.5723 38.925C91.5459 38.6635 91.5195 38.4281 91.5195 38.1405C91.5195 36.5976 91.4931 33.5641 91.4667 32.0212C91.361 31.812 91.1762 31.7074 90.965 31.6551C90.5954 31.5505 90.1465 31.5766 89.7505 31.6028C89.8561 31.9689 89.7769 32.3611 89.6977 32.7011C88.6416 35.1331 87.5327 37.5651 86.107 39.8403C87.8495 39.6311 89.6713 39.5526 91.5459 39.6311C91.5723 39.3957 91.5723 39.1603 91.5723 38.925Z" fill="white"/>
<path d="M102.246 40.0233C102.246 40.2325 102.008 40.2848 101.876 40.2587C101.586 40.1541 101.533 39.6834 101.48 39.4218C101.401 38.9511 101.401 38.4804 101.401 37.9836V36.3884C101.401 35.1593 101.56 33.8256 101.586 32.5703C101.428 32.335 101.164 32.2042 100.9 32.1519C100.609 32.0735 100.266 32.0473 99.9754 31.9689C98.9193 31.812 97.8632 31.6551 96.7543 31.7074C96.6223 32.858 96.3055 33.9302 96.1471 35.0808C95.9095 36.7806 95.6982 38.3758 95.8039 40.1802C95.8039 40.3894 95.8567 40.7032 95.6454 40.8601C95.5398 40.9647 95.2494 40.9647 95.1174 40.834C94.9854 40.6771 94.9326 40.494 94.9062 40.311C94.8798 40.1279 94.9062 39.9187 94.8798 39.7095C94.8534 36.9637 95.3022 34.4009 95.8567 31.7335C95.7246 31.7597 95.5926 31.7858 95.4606 31.7597C95.223 31.6289 95.2758 31.3936 95.3814 31.289C95.487 31.0798 95.6718 31.0013 95.8567 30.949C96.0415 30.8967 96.2527 30.8444 96.4375 30.8444C98.2329 30.7136 100.134 30.9751 101.771 31.4982C102.088 31.6812 102.536 31.8904 102.563 32.3088C102.325 34.8193 102.272 37.4082 102.246 40.0233Z" fill="white"/>
<path d="M110.15 40.2587C108.961 40.8601 107.536 41.1217 106.242 40.494C105.239 39.9972 104.526 39.1603 104.183 38.1143C103.787 36.8852 103.919 35.4992 104.447 34.3486C104.843 33.5118 105.45 32.7796 106.163 32.2304C106.638 31.8904 107.351 31.472 108.011 31.3936C108.539 30.7921 109.41 30.609 110.15 30.7921C111.417 31.1321 112.499 32.4134 112.843 33.5379C113.186 34.6363 113.265 35.8392 112.948 36.9637C112.552 38.4804 111.549 39.5788 110.15 40.2587ZM111.971 33.8256C111.655 32.9626 110.942 31.995 110.018 31.6812C109.595 31.5243 109.146 31.472 108.803 31.7335C108.46 31.995 108.249 32.4134 108.09 32.7796C108.064 32.858 108.064 32.9626 108.064 33.0672C108.064 33.1718 108.064 33.3026 108.037 33.4072C108.011 33.4595 107.747 33.6164 107.668 33.4595C107.615 33.2241 107.562 32.7534 107.589 32.3873C106.585 32.8057 105.74 33.6687 105.265 34.6363C104.764 35.6561 104.737 36.8329 105.054 37.879C105.318 38.6896 105.82 39.3695 106.664 39.7095C107.721 40.1018 108.856 39.971 109.806 39.5003C110.889 38.9511 111.655 38.1143 112.024 36.9898C112.367 35.9961 112.315 34.8193 111.971 33.8256Z" fill="white"/>
<path d="M120.968 37.1467C120.942 38.3235 120.968 39.5788 120.995 40.7555C121.021 40.9124 120.784 41.1217 120.572 40.9909C120.44 40.8863 120.256 40.494 120.256 40.3371C120.097 39.4742 120.071 38.585 120.071 37.6959C120.097 36.5714 120.176 35.4208 120.256 34.3224C119.754 35.2639 118.909 36.1269 117.958 36.6499C117.298 37.016 116.586 37.199 115.82 37.0944C115.186 36.9898 114.658 36.3622 114.553 35.7607C114.526 34.0871 114.764 32.4134 115.028 30.8182C115.345 30.5567 115.714 30.8444 115.714 31.1059C115.794 31.8904 115.688 32.6488 115.582 33.4072C115.503 34.1394 115.397 34.8978 115.45 35.63C115.582 35.9699 115.926 36.2576 116.242 36.2576C117.325 36.153 118.249 35.5515 118.935 34.7409C119.78 33.7994 120.308 32.6227 120.678 31.5766C120.757 31.3151 120.81 30.9751 121.1 30.8444C121.259 30.7921 121.47 30.8444 121.549 31.0536C121.312 33.0672 120.995 35.107 120.968 37.1467Z" fill="white"/>
<path d="M131.32 40.8601C130.766 40.2325 130.607 39.3957 130.475 38.585C130.211 36.7022 130.264 34.6886 130.211 32.7272C128.601 35.0024 127.333 37.3036 125.802 39.8926C125.644 40.0756 125.564 40.2064 125.3 40.311C125.063 40.311 124.852 40.2848 124.667 40.0233C123.399 37.6959 123.162 34.8455 123.347 32.0212C123.347 31.8381 123.399 31.5243 123.611 31.4459C123.954 31.3413 124.218 31.6289 124.218 31.8381C124.059 34.4532 124.35 36.9375 125.221 39.1865C126.145 37.6174 126.885 36.3099 127.677 35.0285C128.495 33.6948 129.366 32.4134 130.475 30.949C130.686 30.7921 130.977 30.8967 131.083 31.1059C131.162 33.6164 131.135 36.0746 131.347 38.4804C131.399 39.2649 131.584 40.0233 131.637 40.7555C131.637 40.8601 131.399 40.9647 131.32 40.8601Z" fill="white"/>
<path d="M141.033 31.8643C140.347 31.7074 139.66 31.5505 138.947 31.5243C138.366 32.2565 138.076 33.1195 137.918 34.0348C137.733 34.9762 137.759 35.9699 137.706 36.9375C137.654 38.2451 137.759 39.5003 137.918 40.7294C137.838 40.8863 137.601 40.9909 137.416 40.8863C136.967 40.3371 136.862 39.6311 136.835 38.925C136.809 37.3559 136.782 35.7084 137.02 34.1655C137.178 33.1718 137.469 32.2565 138.076 31.4197C136.439 31.3413 134.934 31.6812 133.429 32.0996C133.218 32.0735 132.98 31.9427 132.848 31.7335C132.796 31.5505 132.901 31.4459 133.007 31.3936L133.165 31.3413L133.297 31.289C134.406 30.8444 135.753 30.609 137.046 30.5829C138.366 30.5306 139.687 30.6613 140.848 31.0798C140.98 31.1321 141.218 31.3151 141.297 31.472C141.324 31.6551 141.192 31.8904 141.033 31.8643Z" fill="white"/>
<path d="M147.359 40.7817C145.907 41.174 144.217 41.1478 143.082 40.1802C142.554 39.7357 142.158 39.0819 142.132 38.3758C142.105 37.7482 142.369 37.1729 142.739 36.6499C143.557 35.4992 144.983 34.7147 146.356 34.5578C146.937 34.5055 147.465 34.584 147.887 35.0024C148.019 35.1331 147.887 35.3946 147.755 35.4469H147.518C147.439 35.4469 147.333 35.4208 147.254 35.4208C147.069 35.3946 146.91 35.3685 146.805 35.4469C145.538 35.4992 144.297 36.1007 143.531 37.1206C143.188 37.5651 143.003 37.9051 143.056 38.4543C143.109 39.1865 143.663 39.7357 144.429 39.9972C145.511 40.3894 146.858 40.1541 147.887 39.788C148.442 39.5788 148.943 39.3695 149.419 39.0296C149.524 38.9511 149.63 39.0296 149.683 39.1603C149.709 39.2649 149.709 39.3695 149.709 39.448C149.34 40.1541 147.861 40.6509 147.359 40.7817ZM148.838 39.0034C148.706 39.1603 148.468 39.1342 148.363 39.0557C148.099 38.8727 148.099 38.5327 148.099 38.2712C148.125 37.8267 148.204 37.3821 148.31 36.9114L148.653 35.4731C148.864 34.5317 148.996 33.5902 148.706 32.8057C148.468 32.1258 147.887 31.4459 147.175 31.3674C146.567 31.289 145.96 31.4982 145.458 31.8643C145.194 32.0473 144.613 32.5442 144.455 32.8319C144.429 32.9365 144.481 33.1195 144.587 33.2241C144.693 33.3287 144.613 33.6425 144.376 33.5902C144.191 33.5379 143.98 33.4856 143.821 33.3549C143.61 33.1718 143.531 32.8319 143.689 32.5703C144.138 31.812 144.772 31.1844 145.59 30.8182C146.118 30.5567 146.752 30.4521 147.412 30.5567C148.204 30.6875 148.891 31.2628 149.287 31.995C149.894 33.1195 149.815 34.5317 149.524 35.7869C149.26 36.8591 148.996 37.8528 148.838 39.0034Z" fill="white"/>
<path d="M155.043 40.8863C153.722 40.834 152.508 40.2325 151.742 39.108C151.109 38.1666 150.95 37.0683 151.082 35.9961C151.241 34.7932 151.742 33.6425 152.429 32.7534C153.194 31.7597 154.277 30.9751 155.518 30.7398C156.363 30.5829 157.26 30.6613 157.894 31.3413C158.184 31.6551 158.449 31.995 158.449 32.4134C158.475 32.858 158.264 33.2503 157.894 33.5379C156.046 35.0547 154.092 36.4668 152.086 37.6174C152.138 38.4281 152.851 39.2649 153.617 39.6834C154.383 40.1018 155.28 40.1541 156.125 40.0495C156.97 39.971 157.841 39.6834 158.449 39.3957C158.554 39.3172 158.633 39.3957 158.66 39.4742C158.686 39.5265 158.739 39.6311 158.633 39.7095C157.709 40.5463 156.389 40.9386 155.043 40.8863ZM156.204 31.5505C155.439 31.5505 154.673 31.8643 154.066 32.335C152.772 33.381 152.006 35.0547 152.006 36.676C153.881 35.6561 155.65 34.3224 157.366 32.9365C157.498 32.8319 157.604 32.4396 157.419 32.1258C157.208 31.7074 156.732 31.5505 156.204 31.5505Z" fill="white"/>
<path d="M167.771 31.8643C167.084 31.7074 166.398 31.5505 165.685 31.5243C165.104 32.2565 164.814 33.1195 164.655 34.0348C164.47 34.9762 164.497 35.9699 164.444 36.9375C164.391 38.2451 164.497 39.5003 164.655 40.7294C164.576 40.8863 164.338 40.9909 164.153 40.8863C163.705 40.3371 163.599 39.6311 163.573 38.925C163.546 37.3559 163.52 35.7084 163.757 34.1655C163.916 33.1718 164.206 32.2565 164.814 31.4197C163.177 31.3413 161.672 31.6812 160.167 32.0996C159.956 32.0735 159.718 31.9427 159.586 31.7335C159.533 31.5505 159.639 31.4459 159.744 31.3936L159.903 31.3413L160.035 31.289C161.144 30.8444 162.49 30.609 163.784 30.5829C165.104 30.5306 166.424 30.6613 167.586 31.0798C167.718 31.1321 167.955 31.3151 168.035 31.472C168.061 31.6551 167.929 31.8904 167.771 31.8643Z" fill="white"/>
<path d="M172.988 40.8863C171.668 40.834 170.453 40.2325 169.688 39.108C169.054 38.1666 168.896 37.0683 169.028 35.9961C169.186 34.7932 169.688 33.6425 170.374 32.7534C171.14 31.7597 172.222 30.9751 173.463 30.7398C174.308 30.5829 175.206 30.6613 175.839 31.3413C176.13 31.6551 176.394 31.995 176.394 32.4134C176.42 32.858 176.209 33.2503 175.839 33.5379C173.991 35.0547 172.037 36.4668 170.031 37.6174C170.084 38.4281 170.797 39.2649 171.562 39.6834C172.328 40.1018 173.226 40.1541 174.07 40.0495C174.915 39.971 175.787 39.6834 176.394 39.3957C176.499 39.3172 176.579 39.3957 176.605 39.4742C176.631 39.5265 176.684 39.6311 176.579 39.7095C175.655 40.5463 174.334 40.9386 172.988 40.8863ZM174.15 31.5505C173.384 31.5505 172.618 31.8643 172.011 32.335C170.717 33.381 169.952 35.0547 169.952 36.676C171.826 35.6561 173.595 34.3224 175.311 32.9365C175.443 32.8319 175.549 32.4396 175.364 32.1258C175.153 31.7074 174.678 31.5505 174.15 31.5505Z" fill="white"/>
<path d="M185.769 29.7722C184.528 31.7858 183.102 33.7733 181.967 35.8915C181.835 35.9961 181.597 35.9438 181.544 35.813C181.492 35.5254 181.518 35.2639 181.597 35.0547C181.65 34.8193 181.729 34.6363 181.808 34.4009C182.706 32.7796 183.815 31.2367 184.792 29.6676C185.082 29.1707 185.241 28.517 185.188 27.8632C185.161 27.3925 184.977 26.9218 184.66 26.5295C184.026 25.745 183.234 25.1435 182.363 24.8559C181.782 24.6467 181.175 24.5944 180.515 24.7251C180.092 24.8036 179.723 24.9866 179.353 25.3266C179.01 25.6404 178.719 26.0327 178.587 26.4772C178.429 26.608 178.138 26.608 178.059 26.3726C177.98 26.0327 178.112 25.745 178.218 25.4312C178.666 24.6728 179.3 24.1498 180.039 23.8883C180.673 23.6791 181.307 23.6268 181.967 23.7314C182.732 23.8621 183.419 24.1759 184.053 24.6205C184.686 25.0651 185.241 25.6404 185.663 26.3465C186.006 26.8695 186.165 27.5755 186.138 28.2555C186.138 28.7785 186.033 29.3538 185.769 29.7722ZM184.079 41.0693C183.419 41.0693 182.759 40.9124 182.178 40.6248C181.571 40.311 181.043 39.9187 180.647 39.3434C180.541 39.1865 180.515 38.925 180.567 38.7158C180.62 38.5066 180.779 38.3758 181.043 38.4804L181.676 39.1603C181.888 39.3695 182.125 39.5788 182.336 39.7357C182.944 40.1802 183.709 40.4156 184.475 40.6509C184.554 40.834 184.264 41.017 184.079 41.0693Z" fill="white"/>
<path d="M195.455 28.8569C195.323 29.0138 195.191 29.1446 194.98 29.2753C194.716 29.3015 194.505 29.2753 194.32 29.1707C193.739 28.9092 193.079 28.4908 192.604 28.1509C192.577 28.9877 192.498 29.8507 192.604 30.6613C192.551 31.0798 192.076 30.8967 192.023 30.7921C191.97 30.7398 191.917 30.6875 191.891 30.609C191.838 30.5567 191.785 30.4783 191.759 30.3998C191.706 30.1645 191.706 29.9291 191.706 29.7199C191.733 29.2753 191.759 28.8046 191.759 28.3601C191.152 28.9354 190.412 29.4323 189.62 29.7199C189.436 29.7461 189.145 29.7461 188.934 29.563C188.617 29.3015 188.908 28.8569 189.277 28.6216L189.462 28.9615C189.647 28.9092 189.832 28.7785 190.016 28.7C190.571 28.3601 191.125 27.8632 191.574 27.3663C190.729 26.6864 189.884 25.8496 189.172 25.0912C188.987 24.9343 189.066 24.699 189.145 24.5682C189.383 24.2544 189.752 24.4636 189.832 24.5421C190.439 25.1958 191.072 25.8234 191.733 26.4249C191.733 25.7188 191.759 25.0128 191.706 24.359L191.495 23.7575C191.469 23.6006 191.574 23.2345 191.917 23.2607C192.155 23.3391 192.287 23.5222 192.393 23.7314L192.472 23.9144C192.551 24.0975 192.604 24.4375 192.604 24.6205V26.0588L192.683 25.928L193.237 25.1958C193.422 24.9343 193.686 24.7251 194.003 24.5421C194.426 24.3067 195.218 24.5421 194.98 25.3266C194.795 25.3004 194.742 25.2743 194.663 25.2481C194.61 25.2481 194.558 25.222 194.452 25.1958C194.294 25.1435 193.766 25.8496 193.686 25.9542C193.369 26.3726 193.105 26.8172 192.762 27.2617C193.396 27.7325 194.082 28.1509 194.848 28.517C194.901 28.4385 194.954 28.4124 195.006 28.3862C195.059 28.3339 195.112 28.3078 195.297 28.2293C195.508 28.4385 195.534 28.5954 195.508 28.7C195.482 28.7523 195.455 28.7785 195.455 28.8569Z" fill="white"/>
<path d="M205.717 28.8569C205.585 29.0138 205.453 29.1446 205.242 29.2753C204.978 29.3015 204.767 29.2753 204.582 29.1707C204.001 28.9092 203.341 28.4908 202.866 28.1509C202.839 28.9877 202.76 29.8507 202.866 30.6613C202.813 31.0798 202.338 30.8967 202.285 30.7921C202.232 30.7398 202.179 30.6875 202.153 30.609C202.1 30.5567 202.047 30.4783 202.021 30.3998C201.968 30.1645 201.968 29.9291 201.968 29.7199C201.994 29.2753 202.021 28.8046 202.021 28.3601C201.414 28.9354 200.674 29.4323 199.882 29.7199C199.697 29.7461 199.407 29.7461 199.196 29.563C198.879 29.3015 199.169 28.8569 199.539 28.6216L199.724 28.9615C199.909 28.9092 200.093 28.7785 200.278 28.7C200.833 28.3601 201.387 27.8632 201.836 27.3663C200.991 26.6864 200.146 25.8496 199.433 25.0912C199.249 24.9343 199.328 24.699 199.407 24.5682C199.645 24.2544 200.014 24.4636 200.093 24.5421C200.701 25.1958 201.334 25.8234 201.994 26.4249C201.994 25.7188 202.021 25.0128 201.968 24.359L201.757 23.7575C201.73 23.6006 201.836 23.2345 202.179 23.2607C202.417 23.3391 202.549 23.5222 202.654 23.7314L202.734 23.9144C202.813 24.0975 202.866 24.4375 202.866 24.6205V26.0588L202.945 25.928L203.499 25.1958C203.684 24.9343 203.948 24.7251 204.265 24.5421C204.687 24.3067 205.48 24.5421 205.242 25.3266C205.057 25.3004 205.004 25.2743 204.925 25.2481C204.872 25.2481 204.819 25.222 204.714 25.1958C204.555 25.1435 204.027 25.8496 203.948 25.9542C203.631 26.3726 203.367 26.8172 203.024 27.2617C203.658 27.7325 204.344 28.1509 205.11 28.517C205.163 28.4385 205.215 28.4124 205.268 28.3862C205.321 28.3339 205.374 28.3078 205.559 28.2293C205.77 28.4385 205.796 28.5954 205.77 28.7C205.744 28.7523 205.717 28.7785 205.717 28.8569Z" fill="white"/>
<path d="M38.9223 5.08588C38.5791 6.44572 38.4207 7.91016 38.2623 9.34845C38.1303 10.3422 38.0775 11.3359 38.0511 12.3558C37.9982 13.8464 37.9982 15.337 37.9454 16.8537C37.8662 17.1152 37.655 17.2721 37.4174 17.2721C37.0742 17.2721 36.9158 16.9322 36.8365 16.6445L36.7309 16.4353C36.0709 13.7156 35.2788 11.0744 34.3019 8.48548C33.8531 7.25639 33.4306 6.05346 32.9554 4.85052C32.4802 3.67374 31.9521 2.49695 31.3185 1.32017C31.2921 1.32017 31.2657 1.26787 31.2657 1.29402C30.5528 3.59528 30.0511 5.9227 29.8135 8.38088C29.6023 10.6037 29.5759 12.8788 29.6551 15.1801C29.7079 15.4939 29.7079 15.8338 29.7607 16.1738C29.7871 16.4876 29.8399 16.8014 29.9455 17.0891C29.9719 17.2721 29.8399 17.4029 29.6815 17.4552C29.2063 17.3506 29.1007 16.9583 29.0215 16.5399L28.9423 16.1738C28.731 14.2648 28.7046 12.3035 28.8102 10.3422C28.9423 8.01476 29.2855 5.68735 29.7607 3.54298C30.0247 2.4185 30.368 1.24171 30.8168 0.195683C30.896 0.0126268 31.2129 -0.0658246 31.3977 0.0649292C31.5561 0.195683 31.6353 0.352587 31.7409 0.535643C32.401 1.58167 32.929 2.68001 33.3778 3.77834L34.7244 7.12564C35.7276 9.63611 36.5461 12.225 37.2326 14.8663C37.259 12.6435 37.2854 10.316 37.523 8.11937C37.7078 6.21036 38.1039 4.32751 38.8959 2.68001C38.9487 2.5754 39.0015 2.44465 39.0807 2.34005C39.2656 1.97393 39.5296 1.58167 40.0312 1.60782C40.3216 1.76473 40.216 2.05239 40.084 2.23544C39.5032 3.09842 39.1864 4.066 38.9223 5.08588ZM45.5229 13.611C44.9157 14.1602 44.1764 14.5263 43.2523 14.4479C42.4602 14.3694 41.7474 13.9248 41.3513 13.3234C40.6385 12.2773 40.4801 10.9698 40.6913 9.76687C40.8497 8.90389 41.2721 7.80556 41.8266 7.12564C42.0114 6.99488 42.1698 6.81183 42.4338 6.83798C42.6451 6.91643 42.6715 7.12564 42.5922 7.25639C42.0906 8.09322 41.6154 9.13925 41.4834 10.2114C41.3777 11.2313 41.5098 12.2512 42.1434 13.0619C42.5394 13.5587 43.2259 13.7418 43.886 13.611C45.2061 13.1926 45.8661 11.9635 46.1038 10.8652C46.315 9.97607 46.2886 9.0085 46.0774 8.11937C45.9189 7.4133 45.5757 6.75953 45.0213 6.21036C44.7836 5.975 44.3084 5.8704 43.9652 5.94885C43.5691 6.02731 43.2523 6.31496 43.0411 6.62877C42.9091 6.73338 42.7243 6.57647 42.7243 6.47187C42.7507 6.07961 43.1467 5.53044 43.5691 5.34739C44.0972 5.08588 44.9157 5.08588 45.4173 5.47814C46.2622 6.13191 46.579 6.78568 46.843 7.70096C47.1334 8.77314 47.1599 9.92377 46.9222 11.0483C46.711 12.0158 46.2358 12.9311 45.5229 13.611ZM42.3546 16.6968C42.1962 16.7491 41.7474 16.7753 41.5362 16.8276C41.3249 16.9322 41.0081 16.906 40.7705 16.906C40.6385 16.8537 40.5593 16.8799 40.4537 16.8537C40.3745 16.8276 40.2952 16.8014 40.216 16.6968C40.1632 16.5922 40.1368 16.4353 40.1632 16.3046C40.1896 16.2 40.2424 16.0954 40.3217 16.0169C40.4801 15.86 40.6121 15.8077 40.7441 15.7815C40.9289 15.7292 41.0609 15.7554 41.1929 15.7292C41.457 15.7292 41.9586 15.7554 42.1962 15.7815C42.3546 15.86 42.513 15.8338 42.6979 15.8861C42.8827 15.8077 44.414 15.8338 44.6516 15.8861C45.2325 15.8338 45.9189 15.8861 46.3942 16.0169C46.5526 16.0692 46.9486 16.0692 47.0806 16.2261C47.0278 16.5922 46.183 16.7753 45.8133 16.6707C45.6021 16.723 45.1269 16.5922 44.81 16.6707C44.546 16.6184 43.9652 16.723 43.7276 16.6968C43.3051 16.6707 42.6451 16.6445 42.3546 16.6968Z" fill="white"/>
<path d="M60.5143 11.8328L60.2502 12.8004C59.6958 13.9771 58.9301 15.2062 57.9532 16.2784C56.9236 17.4029 55.6562 18.3182 54.2569 18.6843C54.0193 18.7366 53.4384 18.6581 53.4648 18.2397C54.4153 17.9521 55.2866 17.4813 56.0523 16.8799C56.8707 16.2523 57.61 15.4677 58.2173 14.6309C58.9565 13.611 59.4582 12.4604 59.6958 11.3098C59.7486 11.1006 59.7222 10.4468 59.4582 10.2114C59.0093 9.81917 58.3493 9.60996 57.6892 9.55766C56.9236 9.50536 56.1579 9.68842 55.5242 9.92377C54.6266 10.2637 53.8081 10.8652 53.0424 11.4667C52.6992 11.519 52.5144 11.0483 52.6464 10.7867C53.4912 9.94992 54.2833 9.0608 54.917 8.11937C55.4186 7.38715 55.7618 6.57647 55.9731 5.7135C56.1051 5.19048 56.0787 4.66747 55.8939 4.1706C55.709 3.62143 55.3658 3.12457 54.8642 2.78461C54.3097 2.4185 53.5705 2.18314 52.8576 2.15699C52.3295 2.13084 51.8279 2.23544 51.3527 2.44465C51.2735 2.49695 51.1942 2.5754 51.115 2.60155C51.0358 2.65386 50.9302 2.68001 50.8246 2.62771C50.6398 2.49695 50.6662 2.26159 50.7982 2.13084C51.115 1.68628 51.5639 1.47707 52.0655 1.37247C52.8048 1.24171 53.6497 1.39862 54.2833 1.58167C55.1282 1.84318 56.1051 2.44465 56.5275 3.35993C56.8972 4.1706 56.95 5.03358 56.8179 5.8181C56.5803 7.07334 55.8939 8.25012 55.049 9.24385C55.8147 8.85159 56.7915 8.61623 57.7156 8.66853C58.5605 8.69468 59.379 8.95619 60.039 9.47921C60.4879 9.81917 60.6199 10.2899 60.6463 10.7867C60.6463 11.1267 60.5935 11.4928 60.5143 11.8328Z" fill="white"/>
<path d="M80.5041 10.6821C78.0223 10.5775 75.5405 10.9698 73.0587 10.7867C72.5834 10.7606 72.0026 10.6298 71.6593 10.2376C71.4745 10.0284 71.6857 9.55766 72.0026 9.60996C73.1379 9.74072 74.2732 9.79302 75.4085 9.76687C76.887 9.74072 78.4447 9.63611 79.7913 9.68842C80.0553 9.68842 80.6625 9.79302 80.8474 10.1068C81.0322 10.3683 80.7945 10.7083 80.5041 10.6821Z" fill="white"/>
<path d="M99.4402 18.6058C98.1728 17.8998 96.8791 17.4029 95.5326 16.9322C94.2125 16.4615 92.9452 15.9908 91.6779 15.4416C91.6515 16.383 91.7835 17.3506 92.0211 18.2136C92.1003 18.3705 92.0475 18.6581 91.8099 18.6581C91.5987 18.6581 91.4667 18.5274 91.3874 18.3966C91.3082 18.292 91.2554 18.1351 91.1762 18.0044C90.8858 17.0629 90.7802 16.0431 90.7802 14.997C90.701 14.9447 90.5954 14.8663 90.5426 14.7355C90.4634 14.6571 90.437 14.5002 90.5162 14.3694C90.6218 14.291 90.7274 14.134 90.7538 14.0294C90.8066 13.6895 90.7802 12.905 90.8594 12.565C90.965 11.9635 91.1234 11.2313 91.2818 10.4991C91.4667 9.76687 91.7307 9.03465 92.0739 8.40703C92.2323 8.14552 92.6284 8.19782 92.7076 8.48548C92.6812 8.82544 92.5755 9.13925 92.4699 9.45306C92.3907 9.74072 92.2323 10.0545 92.1531 10.3683C91.8891 11.3098 91.7307 12.2773 91.7043 13.2711C92.6548 12.4342 93.6052 11.6497 94.5821 10.9175C95.7966 10.0284 97.0903 9.27 98.4633 8.72084C98.6745 8.72084 98.9385 8.72084 99.0969 8.85159C99.2553 8.95619 99.2553 9.1131 99.1761 9.29615C97.7768 9.87147 96.5095 10.6298 95.2158 11.519C94.0013 12.3819 92.7868 13.3757 91.6515 14.4479V14.474C92.9452 15.1801 94.3709 15.6508 95.7438 16.1215C96.9583 16.5399 98.12 17.0106 99.2289 17.7167C99.4666 17.8475 99.6514 18.0305 99.7834 18.2659C99.8098 18.4228 99.5986 18.632 99.4402 18.6058Z" fill="white"/>
<path d="M105.771 18.5535C104.318 18.9458 102.629 18.9196 101.493 17.9521C100.965 17.5075 100.569 16.8537 100.543 16.1477C100.516 15.52 100.78 14.9447 101.15 14.4217C101.969 13.2711 103.394 12.4865 104.767 12.3296C105.348 12.2773 105.876 12.3558 106.299 12.7742C106.431 12.905 106.299 13.1665 106.167 13.2188H105.929C105.85 13.2188 105.744 13.1926 105.665 13.1926C105.48 13.1665 105.322 13.1403 105.216 13.2188C103.949 13.2711 102.708 13.8725 101.942 14.8924C101.599 15.337 101.414 15.6769 101.467 16.2261C101.52 16.9583 102.074 17.5075 102.84 17.769C103.922 18.1613 105.269 17.9259 106.299 17.5598C106.853 17.3506 107.355 17.1414 107.83 16.8014C107.936 16.723 108.041 16.8014 108.094 16.9322C108.12 17.0368 108.12 17.1414 108.12 17.2198C107.751 17.9259 106.272 18.4228 105.771 18.5535ZM107.249 16.7753C107.117 16.9322 106.879 16.906 106.774 16.8276C106.51 16.6445 106.51 16.3046 106.51 16.0431C106.536 15.5985 106.615 15.1539 106.721 14.6832L107.064 13.2449C107.275 12.3035 107.407 11.3621 107.117 10.5775C106.879 9.89762 106.299 9.2177 105.586 9.13925C104.978 9.0608 104.371 9.27 103.87 9.63611C103.606 9.81917 103.025 10.316 102.866 10.6037C102.84 10.7083 102.893 10.8914 102.998 10.996C103.104 11.1006 103.025 11.4144 102.787 11.3621C102.602 11.3098 102.391 11.2575 102.233 11.1267C102.021 10.9437 101.942 10.6037 102.101 10.3422C102.549 9.58381 103.183 8.95619 104.002 8.59008C104.53 8.32857 105.163 8.22397 105.823 8.32857C106.615 8.45933 107.302 9.03465 107.698 9.76687C108.305 10.8914 108.226 12.3035 107.936 13.5587C107.671 14.6309 107.407 15.6246 107.249 16.7753Z" fill="white"/>
<path d="M118.391 18.6058C117.124 17.8998 115.83 17.4029 114.483 16.9322C113.163 16.4615 111.896 15.9908 110.629 15.4416C110.602 16.383 110.734 17.3506 110.972 18.2136C111.051 18.3705 110.998 18.6581 110.761 18.6581C110.55 18.6581 110.418 18.5274 110.338 18.3966C110.259 18.292 110.206 18.1351 110.127 18.0044C109.837 17.0629 109.731 16.0431 109.731 14.997C109.652 14.9447 109.546 14.8663 109.493 14.7355C109.414 14.6571 109.388 14.5002 109.467 14.3694C109.573 14.291 109.678 14.134 109.705 14.0294C109.757 13.6895 109.731 12.905 109.81 12.565C109.916 11.9635 110.074 11.2313 110.233 10.4991C110.418 9.76687 110.682 9.03465 111.025 8.40703C111.183 8.14552 111.579 8.19782 111.658 8.48548C111.632 8.82544 111.526 9.13925 111.421 9.45306C111.342 9.74072 111.183 10.0545 111.104 10.3683C110.84 11.3098 110.682 12.2773 110.655 13.2711C111.606 12.4342 112.556 11.6497 113.533 10.9175C114.748 10.0284 116.041 9.27 117.414 8.72084C117.625 8.72084 117.889 8.72084 118.048 8.85159C118.206 8.95619 118.206 9.1131 118.127 9.29615C116.728 9.87147 115.46 10.6298 114.167 11.519C112.952 12.3819 111.738 13.3757 110.602 14.4479V14.474C111.896 15.1801 113.322 15.6508 114.695 16.1215C115.909 16.5399 117.071 17.0106 118.18 17.7167C118.417 17.8475 118.602 18.0305 118.734 18.2659C118.761 18.4228 118.549 18.632 118.391 18.6058Z" fill="white"/>
<path d="M125.645 18.0305C124.457 18.632 123.032 18.8935 121.738 18.2659C120.735 17.769 120.022 16.9322 119.679 15.8861C119.283 14.6571 119.415 13.2711 119.943 12.1204C120.339 11.2836 120.946 10.5514 121.659 10.0022C122.134 9.66226 122.847 9.24385 123.507 9.1654C124.035 8.56393 124.906 8.38088 125.645 8.56393C126.913 8.90389 127.995 10.1853 128.339 11.3098C128.682 12.4081 128.761 13.611 128.444 14.7355C128.048 16.2523 127.045 17.3506 125.645 18.0305ZM127.467 11.5974C127.15 10.7344 126.438 9.76687 125.513 9.45306C125.091 9.29615 124.642 9.24385 124.299 9.50536C123.956 9.76687 123.745 10.1853 123.586 10.5514C123.56 10.6298 123.56 10.7344 123.56 10.839C123.56 10.9437 123.56 11.0744 123.533 11.179C123.507 11.2313 123.243 11.3882 123.164 11.2313C123.111 10.996 123.058 10.5252 123.084 10.1591C122.081 10.5775 121.236 11.4405 120.761 12.4081C120.259 13.428 120.233 14.6048 120.55 15.6508C120.814 16.4615 121.316 17.1414 122.16 17.4813C123.216 17.8736 124.352 17.7429 125.302 17.2721C126.385 16.723 127.15 15.8861 127.52 14.7617C127.863 13.7679 127.81 12.5912 127.467 11.5974Z" fill="white"/>
<path d="M133.771 18.6581C132.451 18.6058 131.237 18.0044 130.471 16.8799C129.837 15.9385 129.679 14.8401 129.811 13.7679C129.969 12.565 130.471 11.4144 131.157 10.5252C131.923 9.53151 133.006 8.74699 134.246 8.51163C135.091 8.35473 135.989 8.43318 136.623 9.1131C136.913 9.42691 137.177 9.76687 137.177 10.1853C137.204 10.6298 136.992 11.0221 136.623 11.3098C134.774 12.8265 132.821 14.2387 130.814 15.3893C130.867 16.2 131.58 17.0368 132.345 17.4552C133.111 17.8736 134.009 17.9259 134.854 17.8213C135.699 17.7429 136.57 17.4552 137.177 17.1675C137.283 17.0891 137.362 17.1675 137.388 17.246C137.415 17.2983 137.468 17.4029 137.362 17.4813C136.438 18.3182 135.118 18.7104 133.771 18.6581ZM134.933 9.3223C134.167 9.3223 133.402 9.63611 132.794 10.1068C131.501 11.1529 130.735 12.8265 130.735 14.4479C132.61 13.428 134.378 12.0943 136.095 10.7083C136.227 10.6037 136.332 10.2114 136.147 9.89762C135.936 9.47921 135.461 9.3223 134.933 9.3223Z" fill="white"/>
<path d="M154.032 10.7083C153.055 10.2114 151.999 9.89762 150.917 9.71457C149.782 9.53151 148.488 9.45306 147.564 9.47921C147.485 9.50536 147.353 9.53151 147.353 9.60996C147.379 12.1466 147.141 14.8924 146.983 17.4813C146.93 17.6644 146.93 17.8475 146.877 18.0305C146.851 18.2136 146.798 18.3966 146.666 18.5274C146.534 18.6581 146.059 18.8412 145.98 18.5274C146.085 16.9845 146.323 13.4018 146.376 12.042L146.481 9.0085C146.798 8.64238 147.221 8.56393 147.669 8.59008C147.881 8.59008 148.118 8.59008 148.329 8.61623C148.541 8.64238 148.752 8.64238 148.963 8.61623C150.574 8.72084 152.131 9.03465 153.504 9.74072C153.847 9.89762 154.164 10.133 154.376 10.4991C154.428 10.7083 154.138 10.7867 154.032 10.7083Z" fill="white"/>
<path d="M163.916 18.3182C163.573 18.3443 163.335 17.9782 163.177 17.7167C162.596 16.6968 162.121 15.6246 161.777 14.5002C161.329 13.1142 161.091 11.702 160.985 10.1853C160.193 11.3882 158.873 13.5849 158.055 14.7617C157.21 16.0169 156.365 17.3506 155.679 18.6058C155.599 18.7889 155.309 18.6581 155.203 18.5012C155.071 18.2659 155.124 17.9521 155.177 17.7167C155.335 17.4813 155.626 16.8799 155.784 16.5399C157.5 13.951 159.296 11.3098 160.88 8.72084C161.065 8.53778 161.698 8.43318 161.751 8.93004C161.883 10.5252 162.121 12.1204 162.49 13.6372C162.86 15.1539 163.414 16.5661 164.127 17.9259C164.154 18.0044 164.127 18.292 163.916 18.3182Z" fill="white"/>
<path d="M170.229 18.5535C168.777 18.9458 167.087 18.9196 165.952 17.9521C165.424 17.5075 165.028 16.8537 165.002 16.1477C164.975 15.52 165.239 14.9447 165.609 14.4217C166.427 13.2711 167.853 12.4865 169.226 12.3296C169.807 12.2773 170.335 12.3558 170.757 12.7742C170.889 12.905 170.757 13.1665 170.625 13.2188H170.388C170.309 13.2188 170.203 13.1926 170.124 13.1926C169.939 13.1665 169.78 13.1403 169.675 13.2188C168.408 13.2711 167.167 13.8725 166.401 14.8924C166.058 15.337 165.873 15.6769 165.926 16.2261C165.979 16.9583 166.533 17.5075 167.299 17.769C168.381 18.1613 169.728 17.9259 170.757 17.5598C171.312 17.3506 171.813 17.1414 172.289 16.8014C172.394 16.723 172.5 16.8014 172.553 16.9322C172.579 17.0368 172.579 17.1414 172.579 17.2198C172.209 17.9259 170.731 18.4228 170.229 18.5535ZM171.708 16.7753C171.576 16.9322 171.338 16.906 171.233 16.8276C170.969 16.6445 170.969 16.3046 170.969 16.0431C170.995 15.5985 171.074 15.1539 171.18 14.6832L171.523 13.2449C171.734 12.3035 171.866 11.3621 171.576 10.5775C171.338 9.89762 170.757 9.2177 170.044 9.13925C169.437 9.0608 168.83 9.27 168.328 9.63611C168.064 9.81917 167.483 10.316 167.325 10.6037C167.299 10.7083 167.351 10.8914 167.457 10.996C167.563 11.1006 167.483 11.4144 167.246 11.3621C167.061 11.3098 166.85 11.2575 166.691 11.1267C166.48 10.9437 166.401 10.6037 166.559 10.3422C167.008 9.58381 167.642 8.95619 168.46 8.59008C168.988 8.32857 169.622 8.22397 170.282 8.32857C171.074 8.45933 171.761 9.03465 172.157 9.76687C172.764 10.8914 172.685 12.3035 172.394 13.5587C172.13 14.6309 171.866 15.6246 171.708 16.7753Z" fill="white"/>
<path d="M179.153 17.9521C178.361 18.4751 177.385 18.8935 176.408 18.8935C175.853 18.8935 175.457 18.6581 175.088 18.1351C174.956 18.2397 174.718 18.3182 174.612 18.1613C174.137 17.5075 174.005 16.5922 173.979 15.7031C173.926 13.428 173.952 11.7543 174.559 9.71457C174.612 9.50536 175.114 9.1131 175.484 9.2177C175.642 8.79929 176.064 8.35473 176.566 8.30242C177.913 8.30242 179.365 9.0085 179.814 10.3422C179.946 10.7606 179.946 11.2052 179.787 11.6236C179.629 12.0158 179.365 12.3558 179.021 12.6173L178.863 12.7481C179.523 12.9573 180.262 13.3757 180.685 14.0294C181.002 14.5263 181.028 15.1278 180.896 15.7031C180.658 16.6445 179.972 17.4029 179.153 17.9521ZM179.893 14.474C179.682 14.0817 179.101 13.8464 178.678 13.6372C178.177 13.3234 177.728 13.4541 177.226 13.5587L176.434 13.7418C176.144 13.8202 175.853 13.8202 175.536 13.7418C175.404 13.6633 175.246 13.4018 175.378 13.2711C175.695 12.9573 176.091 12.8004 176.54 12.6958L177.754 12.565C178.229 12.3035 178.731 11.7805 178.942 11.2836C179.074 10.8652 178.995 10.5775 178.731 10.2376C178.256 9.58381 177.49 9.29615 176.724 9.2177C176.487 9.19155 176.408 9.24385 176.355 9.40076C176.276 9.60996 176.223 9.84532 176.091 10.0284C176.038 10.1591 175.853 10.2114 175.721 10.133C175.616 10.1068 175.536 10.0545 175.484 10.0022C175.167 11.1267 174.982 12.4081 174.929 13.7418C174.876 14.997 174.929 16.2261 175.114 17.3767C175.325 17.1414 175.589 16.8014 175.721 16.6184C175.906 16.4353 176.249 16.723 176.196 16.906C176.144 17.0368 176.038 17.1937 175.959 17.3244C175.906 17.4813 175.827 17.6121 175.827 17.7167C175.985 17.9521 176.355 18.0305 176.804 17.9782C177.464 17.8736 178.256 17.5075 178.837 17.0629C179.365 16.6445 179.814 16.1215 179.946 15.4677C180.025 15.1539 180.078 14.7878 179.893 14.474Z" fill="white"/>
<path d="M190.205 12.7481C190.02 14.6048 190.126 16.7753 190.258 18.6058C190.284 18.7889 190.02 18.815 189.888 18.7366C189.518 18.4489 189.333 17.6906 189.307 17.2198C189.228 15.7554 189.228 14.3956 189.307 12.9311C187.353 13.0096 185.241 12.9573 183.314 13.1665C183.235 14.9186 183.287 16.5922 183.367 18.2659C183.393 18.3182 183.287 18.3966 183.155 18.4228C183.076 18.4228 182.944 18.3966 182.865 18.3182C182.522 17.9782 182.442 17.3506 182.416 16.9322C182.284 14.291 182.469 11.6497 182.733 9.0608C182.786 8.90389 183.023 8.74699 183.235 8.87774C183.525 9.0085 183.525 9.34845 183.578 9.60996C183.525 10.2899 183.446 11.4405 183.367 12.2512C185.294 12.1204 187.432 12.1989 189.36 12.1727C189.465 10.8914 189.518 9.60996 189.835 8.40703C189.967 8.25012 190.231 8.35473 190.39 8.51163C190.522 8.66854 190.601 8.98234 190.601 9.1654C190.469 10.1591 190.284 11.1267 190.258 12.1466C190.337 12.1466 190.416 12.1204 190.495 12.1204C190.548 12.1204 190.627 12.1727 190.627 12.3035C190.627 12.3558 190.627 12.4604 190.574 12.5127C190.495 12.6173 190.337 12.6958 190.205 12.7481Z" fill="white"/>
<path d="M198.149 18.0305C196.961 18.632 195.535 18.8935 194.241 18.2659C193.238 17.769 192.525 16.9322 192.182 15.8861C191.786 14.6571 191.918 13.2711 192.446 12.1204C192.842 11.2836 193.449 10.5514 194.162 10.0022C194.637 9.66226 195.35 9.24385 196.01 9.1654C196.538 8.56393 197.409 8.38088 198.149 8.56393C199.416 8.90389 200.499 10.1853 200.842 11.3098C201.185 12.4081 201.264 13.611 200.947 14.7355C200.551 16.2523 199.548 17.3506 198.149 18.0305ZM199.97 11.5974C199.654 10.7344 198.941 9.76687 198.017 9.45306C197.594 9.29615 197.145 9.24385 196.802 9.50536C196.459 9.76687 196.248 10.1853 196.089 10.5514C196.063 10.6298 196.063 10.7344 196.063 10.839C196.063 10.9437 196.063 11.0744 196.037 11.179C196.01 11.2313 195.746 11.3882 195.667 11.2313C195.614 10.996 195.561 10.5252 195.588 10.1591C194.584 10.5775 193.74 11.4405 193.264 12.4081C192.763 13.428 192.736 14.6048 193.053 15.6508C193.317 16.4615 193.819 17.1414 194.664 17.4813C195.72 17.8736 196.855 17.7429 197.805 17.2721C198.888 16.723 199.654 15.8861 200.023 14.7617C200.367 13.7679 200.314 12.5912 199.97 11.5974Z" fill="white"/>
<path d="M206.274 18.6581C204.954 18.6058 203.74 18.0044 202.974 16.8799C202.34 15.9385 202.182 14.8401 202.314 13.7679C202.473 12.565 202.974 11.4144 203.661 10.5252C204.426 9.53151 205.509 8.74699 206.75 8.51163C207.595 8.35473 208.492 8.43318 209.126 9.1131C209.416 9.42691 209.68 9.76687 209.68 10.1853C209.707 10.6298 209.496 11.0221 209.126 11.3098C207.278 12.8265 205.324 14.2387 203.317 15.3893C203.37 16.2 204.083 17.0368 204.849 17.4552C205.614 17.8736 206.512 17.9259 207.357 17.8213C208.202 17.7429 209.073 17.4552 209.68 17.1675C209.786 17.0891 209.865 17.1675 209.892 17.246C209.918 17.2983 209.971 17.4029 209.865 17.4813C208.941 18.3182 207.621 18.7104 206.274 18.6581ZM207.436 9.3223C206.67 9.3223 205.905 9.63611 205.298 10.1068C204.004 11.1529 203.238 12.8265 203.238 14.4479C205.113 13.428 206.882 12.0943 208.598 10.7083C208.73 10.6037 208.835 10.2114 208.651 9.89762C208.439 9.47921 207.964 9.3223 207.436 9.3223Z" fill="white"/>
<path d="M226.641 2.68001C226.06 2.88921 225.427 3.01997 224.846 3.22917C223.79 3.56913 223.077 4.0137 222.338 4.82437C221.598 5.60889 221.123 6.55032 220.701 7.54405C220.278 8.56393 219.988 9.68842 219.671 10.7606C220.621 10.1068 221.73 9.53151 222.892 9.34845C223.922 9.1654 225.057 9.37461 225.955 9.94992C226.905 10.5514 227.539 11.5974 227.803 12.6958C228.067 13.8725 227.961 14.9709 227.354 16.0169C226.826 16.9583 226.008 17.7429 225.004 18.2136C224.159 18.632 223.05 18.7627 222.047 18.6058C220.885 18.4489 219.961 17.9259 219.275 17.0106C218.536 16.0169 218.324 14.814 218.351 13.5849C218.404 11.8851 218.905 10.0545 219.354 8.66853C219.909 6.99488 220.701 5.16433 222.074 3.85679C222.734 3.22917 223.526 2.73231 224.371 2.44465C224.951 2.26159 225.559 2.13084 226.166 1.94778C226.747 1.76473 227.301 1.52937 227.803 1.11096C227.961 1.08481 228.225 1.11096 228.278 1.26787C228.384 1.42477 228.384 1.63398 228.278 1.76473C227.776 2.20929 227.222 2.49695 226.641 2.68001ZM226.588 11.9897C226.245 11.2313 225.559 10.656 224.793 10.4206C224.027 10.1591 223.05 10.2114 222.285 10.4468C221.229 10.7606 220.252 11.3882 219.407 12.1466C219.169 13.2972 219.196 14.6832 219.592 15.7292C219.777 16.2523 220.146 16.723 220.621 17.0891C221.413 17.7167 222.232 17.7952 223.235 17.6906C224.318 17.5859 225.295 17.0891 226.087 16.2784C226.72 15.6508 226.984 15.0232 227.011 14.1079C227.037 13.3495 226.879 12.5912 226.588 11.9897Z" fill="white"/>
<path d="M237.863 18.3182C237.52 18.3443 237.282 17.9782 237.124 17.7167C236.543 16.6968 236.068 15.6246 235.725 14.5002C235.276 13.1142 235.038 11.702 234.933 10.1853C234.14 11.3882 232.82 13.5849 232.002 14.7617C231.157 16.0169 230.312 17.3506 229.626 18.6058C229.546 18.7889 229.256 18.6581 229.15 18.5012C229.018 18.2659 229.071 17.9521 229.124 17.7167C229.282 17.4813 229.573 16.8799 229.731 16.5399C231.447 13.951 233.243 11.3098 234.827 8.72084C235.012 8.53778 235.645 8.43318 235.698 8.93004C235.83 10.5252 236.068 12.1204 236.437 13.6372C236.807 15.1539 237.362 16.5661 238.074 17.9259C238.101 18.0044 238.074 18.292 237.863 18.3182Z" fill="white"/>
<path d="M249.642 17.9259C248.902 18.6843 247.688 18.9196 246.685 18.5274C245.734 18.1351 245.18 17.4552 244.863 16.5922C244.52 15.6508 244.44 14.5263 244.467 13.4803C243.252 13.3234 241.985 13.0619 240.744 13.2449C240.533 13.3234 240.322 13.4018 240.163 13.5326C240.11 14.8663 240.005 17.2721 239.978 18.5274C239.767 18.8412 239.45 18.7104 239.371 18.5012C239.028 15.3108 239.318 11.9897 239.767 8.90389C239.873 8.72084 239.978 8.61623 240.137 8.53778C240.427 8.53778 240.718 8.56393 240.876 8.85159C240.85 9.03465 240.771 9.13925 240.665 9.27C240.639 9.29615 240.612 9.34845 240.612 9.37461C240.427 10.4206 240.322 11.4667 240.242 12.565C240.744 12.3296 241.351 12.3035 241.959 12.3296C243.015 12.3819 243.78 12.5127 244.546 12.6696C244.652 11.2313 245.444 9.79302 246.843 9.2177C247.054 8.87774 247.424 8.59008 247.82 8.56393C249.008 8.64238 250.011 9.71457 250.355 10.7344C250.724 11.8328 250.988 13.2188 250.935 14.5263C250.883 15.8077 250.513 17.0106 249.642 17.9259ZM249.351 10.656C249.114 10.1591 248.665 9.63611 248.163 9.47921C247.846 9.37461 247.556 9.53151 247.318 9.81917C247.239 9.92377 247.186 10.0545 247.133 10.1591C247.054 10.2899 246.949 10.4206 246.737 10.4991C246.658 10.4729 246.605 10.3683 246.579 10.2637C245.866 10.9437 245.549 11.8851 245.417 12.8527C245.259 13.9771 245.365 15.8338 245.919 16.8014C246.183 17.2198 246.553 17.5598 247.107 17.7167C247.741 17.9259 248.401 17.6906 248.955 17.3506C249.615 16.6184 249.906 15.6246 249.985 14.6309C250.091 13.2449 249.774 11.8066 249.351 10.656Z" fill="white"/>
<path d="M261.576 22.5807C261.496 22.79 261.232 22.79 261.1 22.7115C260.81 22.45 260.81 22.0839 260.783 21.7178C260.704 20.6194 260.599 19.4165 260.731 18.292C258.249 18.0567 255.609 18.1874 253.232 18.632C253.127 19.9657 253.18 21.3778 253.391 22.6592C253.364 22.79 253.18 22.9992 252.968 22.8684C252.731 22.7638 252.625 22.5546 252.572 22.3715L252.44 21.7962C252.388 21.2209 252.335 20.6456 252.308 20.0964C252.282 19.5211 252.282 18.9458 252.335 18.4489C252.361 18.2397 252.546 18.0305 252.731 17.8998L253.47 17.7429C255.001 15.2062 256.269 12.5912 257.378 9.87147C257.404 9.74072 257.457 9.37461 257.351 9.24385C257.272 8.90389 257.483 8.72084 257.694 8.56393C258.539 8.43318 259.49 8.45933 260.229 8.87774C260.519 9.0085 260.651 9.29615 260.704 9.58381C260.704 10.9437 260.731 13.7679 260.757 15.1539C260.863 15.9123 260.757 16.6968 260.704 17.4552C260.757 17.4813 260.836 17.4813 260.942 17.4813C261.1 17.5075 261.206 17.4813 261.285 17.4813C261.523 17.5075 261.734 17.6644 261.734 17.8736C261.523 19.4427 261.496 21.0379 261.576 22.5807ZM259.939 16.6968C259.912 16.4353 259.886 16.2 259.886 15.9123C259.886 14.3694 259.859 11.3359 259.833 9.79302C259.727 9.58381 259.543 9.47921 259.331 9.42691C258.962 9.3223 258.513 9.34845 258.117 9.37461C258.222 9.74072 258.143 10.133 258.064 10.4729C257.008 12.905 255.899 15.337 254.473 17.6121C256.216 17.4029 258.038 17.3244 259.912 17.4029C259.939 17.1675 259.939 16.9322 259.939 16.6968Z" fill="white"/>
<path d="M269.002 18.0305C267.814 18.632 266.388 18.8935 265.094 18.2659C264.091 17.769 263.378 16.9322 263.035 15.8861C262.639 14.6571 262.771 13.2711 263.299 12.1204C263.695 11.2836 264.302 10.5514 265.015 10.0022C265.49 9.66226 266.203 9.24385 266.863 9.1654C267.391 8.56393 268.263 8.38088 269.002 8.56393C270.269 8.90389 271.352 10.1853 271.695 11.3098C272.038 12.4081 272.117 13.611 271.8 14.7355C271.404 16.2523 270.401 17.3506 269.002 18.0305ZM270.824 11.5974C270.507 10.7344 269.794 9.76687 268.87 9.45306C268.447 9.29615 267.999 9.24385 267.655 9.50536C267.312 9.76687 267.101 10.1853 266.942 10.5514C266.916 10.6298 266.916 10.7344 266.916 10.839C266.916 10.9437 266.916 11.0744 266.89 11.179C266.863 11.2313 266.599 11.3882 266.52 11.2313C266.467 10.996 266.414 10.5252 266.441 10.1591C265.438 10.5775 264.593 11.4405 264.117 12.4081C263.616 13.428 263.589 14.6048 263.906 15.6508C264.17 16.4615 264.672 17.1414 265.517 17.4813C266.573 17.8736 267.708 17.7429 268.659 17.2721C269.741 16.723 270.507 15.8861 270.876 14.7617C271.22 13.7679 271.167 12.5912 270.824 11.5974Z" fill="white"/>
<path d="M33.193 40.1802C32.401 40.7032 31.4241 41.1217 30.4472 41.1217C29.8927 41.1217 29.4967 40.8863 29.1271 40.3633C28.9951 40.4679 28.7574 40.5463 28.6518 40.3894C28.1766 39.7357 28.0446 38.8204 28.0182 37.9313C27.9654 35.6561 27.9918 33.9825 28.599 31.9427C28.6518 31.7335 29.1535 31.3413 29.5231 31.4459C29.6815 31.0275 30.104 30.5829 30.6056 30.5306C31.9521 30.5306 33.4042 31.2367 33.8531 32.5703C33.9851 32.9888 33.9851 33.4333 33.8267 33.8517C33.6683 34.244 33.4042 34.584 33.061 34.8455L32.9026 34.9762C33.5627 35.1854 34.3019 35.6038 34.7244 36.2576C35.0412 36.7545 35.0676 37.3559 34.9356 37.9313C34.698 38.8727 34.0115 39.6311 33.193 40.1802ZM33.9323 36.7022C33.7211 36.3099 33.1402 36.0746 32.7178 35.8653C32.2161 35.5515 31.7673 35.6823 31.2657 35.7869L30.4736 35.9699C30.1832 36.0484 29.8927 36.0484 29.5759 35.9699C29.4439 35.8915 29.2855 35.63 29.4175 35.4992C29.7343 35.1854 30.1304 35.0285 30.5792 34.9239L31.7937 34.7932C32.2689 34.5317 32.7706 34.0086 32.9818 33.5118C33.1138 33.0934 33.0346 32.8057 32.7706 32.4657C32.2953 31.812 31.5297 31.5243 30.764 31.4459C30.5264 31.4197 30.4472 31.472 30.3944 31.6289C30.3152 31.8381 30.2624 32.0735 30.1304 32.2565C30.0776 32.3873 29.8927 32.4396 29.7607 32.3611C29.6551 32.335 29.5759 32.2827 29.5231 32.2304C29.2063 33.3549 29.0215 34.6363 28.9687 35.9699C28.9158 37.2252 28.9687 38.4543 29.1535 39.6049C29.3647 39.3695 29.6287 39.0296 29.7607 38.8465C29.9455 38.6635 30.2888 38.9511 30.236 39.1342C30.1832 39.2649 30.0776 39.4219 29.9983 39.5526C29.9455 39.7095 29.8663 39.8403 29.8663 39.9449C30.0247 40.1802 30.3944 40.2587 30.8432 40.2064C31.5033 40.1018 32.2953 39.7357 32.8762 39.2911C33.4042 38.8727 33.8531 38.3497 33.9851 37.6959C34.0643 37.3821 34.1171 37.016 33.9323 36.7022Z" fill="white"/>
<path d="M40.7063 39.5526C40.0199 40.1541 39.175 40.5463 38.3565 40.7294C37.6965 40.8863 36.7724 40.9647 36.2179 40.4156C36.0595 40.2848 35.8219 39.8664 36.0595 39.6311C36.2443 39.7618 36.3764 39.8664 36.5348 39.9449C36.6404 40.0233 36.746 40.0756 36.878 40.0756C36.8516 38.2712 36.9572 34.7932 37.01 33.0411C37.0364 32.6226 36.9836 32.1781 37.01 31.7597C37.0628 31.3413 37.142 30.9228 37.4853 30.609C37.7229 30.5306 37.9341 30.4783 38.0661 30.7398C37.9341 31.2105 37.9341 32.0473 37.9077 32.9626C37.9077 33.7994 37.9077 34.6886 37.8813 35.3162C38.2509 35.0547 38.779 34.8455 39.2806 34.7932C39.8879 34.7409 40.5215 34.8455 41.0232 35.1331C41.8152 35.5515 42.2905 36.4668 42.0793 37.4082C41.9208 38.2189 41.3664 38.9773 40.7063 39.5526ZM41.0496 36.3361C40.7327 35.8392 40.1783 35.6561 39.571 35.6561C38.9638 35.6823 38.3037 35.9176 37.9077 36.2838L37.6965 40.0233C38.5149 39.8403 39.3598 39.4742 40.0463 38.8988C40.5215 38.5066 40.9704 38.0359 41.1552 37.4344C41.2872 37.0683 41.2608 36.6237 41.0496 36.3361ZM46.5413 41.017C45.8812 40.834 45.8812 40.1802 45.802 39.6572C45.406 36.676 45.6436 33.7994 46.0396 30.8444C46.2772 30.4783 46.6997 30.7921 46.8053 31.0013C46.8317 31.6028 46.8053 32.1781 46.7261 32.7796C46.6733 33.3549 46.5941 33.9563 46.5941 34.5578C46.5677 35.5777 46.5149 36.6237 46.5413 37.6697C46.5413 38.6896 46.6469 39.7357 46.8053 40.7032C46.8317 40.834 46.6733 41.017 46.5413 41.017Z" fill="white"/>
<path d="M63.8028 40.0233C63.8028 40.2325 63.5652 40.2848 63.4332 40.2587C63.1427 40.1541 63.0899 39.6834 63.0371 39.4218C62.9579 38.9511 62.9579 38.4804 62.9579 37.9836V36.3884C62.9579 35.1593 63.1163 33.8256 63.1427 32.5703C62.9843 32.335 62.7203 32.2042 62.4563 32.1519C62.1659 32.0735 61.8226 32.0473 61.5322 31.9689C60.4761 31.812 59.42 31.6551 58.3111 31.7074C58.1791 32.858 57.8623 33.9302 57.7039 35.0808C57.4662 36.7806 57.255 38.3758 57.3606 40.1802C57.3606 40.3894 57.4134 40.7032 57.2022 40.8601C57.0966 40.9647 56.8062 40.9647 56.6742 40.834C56.5422 40.6771 56.4894 40.494 56.463 40.311C56.4366 40.1279 56.463 39.9187 56.4366 39.7095C56.4102 36.9637 56.859 34.4009 57.4134 31.7335C57.2814 31.7597 57.1494 31.7858 57.0174 31.7597C56.7798 31.6289 56.8326 31.3936 56.9382 31.289C57.0438 31.0798 57.2286 31.0013 57.4134 30.949C57.5983 30.8967 57.8095 30.8444 57.9943 30.8444C59.7896 30.7136 61.6906 30.9751 63.3276 31.4982C63.6444 31.6812 64.0932 31.8904 64.1196 32.3088C63.882 34.8193 63.8292 37.4082 63.8028 40.0233Z" fill="white"/>
<path d="M67.0068 31.8643H66.8748C66.7955 31.8643 66.6899 31.812 66.6635 31.6812C66.6371 31.472 66.7163 31.289 66.8748 31.1321C67.2972 30.7659 67.7724 30.609 68.3005 30.6352C68.6701 30.6613 69.0397 30.7136 69.4094 30.8444L70.4127 31.1844C71.8384 31.6551 73.0793 32.9103 73.7658 34.2701C74.1354 35.0285 74.2674 35.813 74.0826 36.676C73.8978 37.4605 73.4225 38.1928 72.7889 38.7942C71.2047 40.2848 69.2246 40.7294 67.0332 40.7294C67.0068 42.5076 66.9012 44.4951 67.1388 46.2472C67.1388 46.3257 67.1916 46.4303 67.2444 46.5087C67.2708 46.6395 67.3236 46.7441 67.218 46.901C67.0068 47.0579 66.7955 47.0056 66.6107 46.901C66.3467 46.6133 66.2411 46.2995 66.2147 45.9334C66.0299 44.0767 66.1091 42.2723 66.2147 40.3894C65.9771 40.1802 65.6074 39.8926 65.5282 39.5788C65.5282 39.4742 65.5546 39.3695 65.6074 39.3172C65.6866 39.1865 65.7923 39.1603 65.8451 39.2126C65.9243 39.2911 66.0827 39.3957 66.2147 39.4742C66.3731 36.8591 66.5579 34.3747 67.0068 31.8643ZM72.2344 33.5641C71.6536 32.858 70.8351 32.3611 70.043 32.0212C69.5942 31.812 68.3269 31.3413 67.8516 31.5505C67.878 31.9166 67.8252 32.5703 67.7724 32.858C67.4028 35.0808 67.1652 37.4605 67.1388 39.8141C68.9605 39.9449 70.7031 39.3957 72.1024 38.1928C72.8681 37.539 73.3169 36.6237 73.2377 35.6823C73.1849 34.8978 72.6833 34.1132 72.2344 33.5641Z" fill="white"/>
<path d="M79.1875 40.8863C77.8674 40.834 76.6529 40.2325 75.8872 39.108C75.2536 38.1666 75.0952 37.0683 75.2272 35.9961C75.3856 34.7932 75.8872 33.6425 76.5737 32.7534C77.3394 31.7597 78.4218 30.9751 79.6628 30.7398C80.5076 30.5829 81.4053 30.6613 82.039 31.3413C82.3294 31.6551 82.5934 31.995 82.5934 32.4134C82.6198 32.858 82.4086 33.2503 82.039 33.5379C80.1908 35.0547 78.237 36.4668 76.2305 37.6174C76.2833 38.4281 76.9961 39.2649 77.7618 39.6834C78.5275 40.1018 79.4251 40.1541 80.27 40.0495C81.1149 39.971 81.9862 39.6834 82.5934 39.3957C82.699 39.3172 82.7782 39.3957 82.8046 39.4742C82.831 39.5265 82.8838 39.6311 82.7782 39.7095C81.8541 40.5463 80.534 40.9386 79.1875 40.8863ZM80.3492 31.5505C79.5835 31.5505 78.8179 31.8643 78.2106 32.335C76.9169 33.381 76.1512 35.0547 76.1512 36.676C78.0258 35.6561 79.7948 34.3224 81.5109 32.9365C81.6429 32.8319 81.7485 32.4396 81.5637 32.1258C81.3525 31.7074 80.8773 31.5505 80.3492 31.5505Z" fill="white"/>
<path d="M93.2092 44.8089C93.13 45.0181 92.866 45.0181 92.734 44.9397C92.4435 44.6782 92.4435 44.312 92.4171 43.9459C92.3379 42.8476 92.2323 41.6447 92.3643 40.5202C89.8825 40.2848 87.2423 40.4156 84.8661 40.8601C84.7605 42.1938 84.8133 43.606 85.0245 44.8874C84.9981 45.0181 84.8133 45.2273 84.6021 45.0966C84.3644 44.992 84.2588 44.7828 84.206 44.5997L84.074 44.0244C84.0212 43.4491 83.9684 42.8738 83.942 42.3246C83.9156 41.7493 83.9156 41.174 83.9684 40.6771C83.9948 40.4679 84.1796 40.2587 84.3644 40.1279L85.1037 39.971C86.635 37.4344 87.9023 34.8193 89.0112 32.0996C89.0376 31.9689 89.0904 31.6028 88.9848 31.472C88.9056 31.1321 89.1168 30.949 89.3281 30.7921C90.1729 30.6613 91.1234 30.6875 91.8627 31.1059C92.1531 31.2367 92.2851 31.5243 92.3379 31.812C92.3379 33.1718 92.3643 35.9961 92.3907 37.3821C92.4963 38.1405 92.3907 38.925 92.3379 39.6834C92.3907 39.7095 92.4699 39.7095 92.5756 39.7095C92.734 39.7357 92.8396 39.7095 92.9188 39.7095C93.1564 39.7357 93.3676 39.8926 93.3676 40.1018C93.1564 41.6708 93.13 43.266 93.2092 44.8089ZM91.5723 38.925C91.5459 38.6635 91.5195 38.4281 91.5195 38.1405C91.5195 36.5976 91.4931 33.5641 91.4667 32.0212C91.361 31.812 91.1762 31.7074 90.965 31.6551C90.5954 31.5505 90.1465 31.5766 89.7505 31.6028C89.8561 31.9689 89.7769 32.3611 89.6977 32.7011C88.6416 35.1331 87.5327 37.5651 86.107 39.8403C87.8495 39.6311 89.6713 39.5526 91.5459 39.6311C91.5723 39.3957 91.5723 39.1603 91.5723 38.925Z" fill="white"/>
<path d="M102.246 40.0233C102.246 40.2325 102.008 40.2848 101.876 40.2587C101.586 40.1541 101.533 39.6834 101.48 39.4218C101.401 38.9511 101.401 38.4804 101.401 37.9836V36.3884C101.401 35.1593 101.56 33.8256 101.586 32.5703C101.428 32.335 101.164 32.2042 100.9 32.1519C100.609 32.0735 100.266 32.0473 99.9754 31.9689C98.9193 31.812 97.8632 31.6551 96.7543 31.7074C96.6223 32.858 96.3055 33.9302 96.1471 35.0808C95.9095 36.7806 95.6982 38.3758 95.8039 40.1802C95.8039 40.3894 95.8567 40.7032 95.6454 40.8601C95.5398 40.9647 95.2494 40.9647 95.1174 40.834C94.9854 40.6771 94.9326 40.494 94.9062 40.311C94.8798 40.1279 94.9062 39.9187 94.8798 39.7095C94.8534 36.9637 95.3022 34.4009 95.8567 31.7335C95.7246 31.7597 95.5926 31.7858 95.4606 31.7597C95.223 31.6289 95.2758 31.3936 95.3814 31.289C95.487 31.0798 95.6718 31.0013 95.8567 30.949C96.0415 30.8967 96.2527 30.8444 96.4375 30.8444C98.2329 30.7136 100.134 30.9751 101.771 31.4982C102.088 31.6812 102.536 31.8904 102.563 32.3088C102.325 34.8193 102.272 37.4082 102.246 40.0233Z" fill="white"/>
<path d="M110.15 40.2587C108.961 40.8601 107.536 41.1217 106.242 40.494C105.239 39.9972 104.526 39.1603 104.183 38.1143C103.787 36.8852 103.919 35.4992 104.447 34.3486C104.843 33.5118 105.45 32.7796 106.163 32.2304C106.638 31.8904 107.351 31.472 108.011 31.3936C108.539 30.7921 109.41 30.609 110.15 30.7921C111.417 31.1321 112.499 32.4134 112.843 33.5379C113.186 34.6363 113.265 35.8392 112.948 36.9637C112.552 38.4804 111.549 39.5788 110.15 40.2587ZM111.971 33.8256C111.655 32.9626 110.942 31.995 110.018 31.6812C109.595 31.5243 109.146 31.472 108.803 31.7335C108.46 31.995 108.249 32.4134 108.09 32.7796C108.064 32.858 108.064 32.9626 108.064 33.0672C108.064 33.1718 108.064 33.3026 108.037 33.4072C108.011 33.4595 107.747 33.6164 107.668 33.4595C107.615 33.2241 107.562 32.7534 107.589 32.3873C106.585 32.8057 105.74 33.6687 105.265 34.6363C104.764 35.6561 104.737 36.8329 105.054 37.879C105.318 38.6896 105.82 39.3695 106.664 39.7095C107.721 40.1018 108.856 39.971 109.806 39.5003C110.889 38.9511 111.655 38.1143 112.024 36.9898C112.367 35.9961 112.315 34.8193 111.971 33.8256Z" fill="white"/>
<path d="M120.968 37.1467C120.942 38.3235 120.968 39.5788 120.995 40.7555C121.021 40.9124 120.784 41.1217 120.572 40.9909C120.44 40.8863 120.256 40.494 120.256 40.3371C120.097 39.4742 120.071 38.585 120.071 37.6959C120.097 36.5714 120.176 35.4208 120.256 34.3224C119.754 35.2639 118.909 36.1269 117.958 36.6499C117.298 37.016 116.586 37.199 115.82 37.0944C115.186 36.9898 114.658 36.3622 114.553 35.7607C114.526 34.0871 114.764 32.4134 115.028 30.8182C115.345 30.5567 115.714 30.8444 115.714 31.1059C115.794 31.8904 115.688 32.6488 115.582 33.4072C115.503 34.1394 115.397 34.8978 115.45 35.63C115.582 35.9699 115.926 36.2576 116.242 36.2576C117.325 36.153 118.249 35.5515 118.935 34.7409C119.78 33.7994 120.308 32.6227 120.678 31.5766C120.757 31.3151 120.81 30.9751 121.1 30.8444C121.259 30.7921 121.47 30.8444 121.549 31.0536C121.312 33.0672 120.995 35.107 120.968 37.1467Z" fill="white"/>
<path d="M131.32 40.8601C130.766 40.2325 130.607 39.3957 130.475 38.585C130.211 36.7022 130.264 34.6886 130.211 32.7272C128.601 35.0024 127.333 37.3036 125.802 39.8926C125.644 40.0756 125.564 40.2064 125.3 40.311C125.063 40.311 124.852 40.2848 124.667 40.0233C123.399 37.6959 123.162 34.8455 123.347 32.0212C123.347 31.8381 123.399 31.5243 123.611 31.4459C123.954 31.3413 124.218 31.6289 124.218 31.8381C124.059 34.4532 124.35 36.9375 125.221 39.1865C126.145 37.6174 126.885 36.3099 127.677 35.0285C128.495 33.6948 129.366 32.4134 130.475 30.949C130.686 30.7921 130.977 30.8967 131.083 31.1059C131.162 33.6164 131.135 36.0746 131.347 38.4804C131.399 39.2649 131.584 40.0233 131.637 40.7555C131.637 40.8601 131.399 40.9647 131.32 40.8601Z" fill="white"/>
<path d="M141.033 31.8643C140.347 31.7074 139.66 31.5505 138.947 31.5243C138.366 32.2565 138.076 33.1195 137.918 34.0348C137.733 34.9762 137.759 35.9699 137.706 36.9375C137.654 38.2451 137.759 39.5003 137.918 40.7294C137.838 40.8863 137.601 40.9909 137.416 40.8863C136.967 40.3371 136.862 39.6311 136.835 38.925C136.809 37.3559 136.782 35.7084 137.02 34.1655C137.178 33.1718 137.469 32.2565 138.076 31.4197C136.439 31.3413 134.934 31.6812 133.429 32.0996C133.218 32.0735 132.98 31.9427 132.848 31.7335C132.796 31.5505 132.901 31.4459 133.007 31.3936L133.165 31.3413L133.297 31.289C134.406 30.8444 135.753 30.609 137.046 30.5829C138.366 30.5306 139.687 30.6613 140.848 31.0798C140.98 31.1321 141.218 31.3151 141.297 31.472C141.324 31.6551 141.192 31.8904 141.033 31.8643Z" fill="white"/>
<path d="M147.359 40.7817C145.907 41.174 144.217 41.1478 143.082 40.1802C142.554 39.7357 142.158 39.0819 142.132 38.3758C142.105 37.7482 142.369 37.1729 142.739 36.6499C143.557 35.4992 144.983 34.7147 146.356 34.5578C146.937 34.5055 147.465 34.584 147.887 35.0024C148.019 35.1331 147.887 35.3946 147.755 35.4469H147.518C147.439 35.4469 147.333 35.4208 147.254 35.4208C147.069 35.3946 146.91 35.3685 146.805 35.4469C145.538 35.4992 144.297 36.1007 143.531 37.1206C143.188 37.5651 143.003 37.9051 143.056 38.4543C143.109 39.1865 143.663 39.7357 144.429 39.9972C145.511 40.3894 146.858 40.1541 147.887 39.788C148.442 39.5788 148.943 39.3695 149.419 39.0296C149.524 38.9511 149.63 39.0296 149.683 39.1603C149.709 39.2649 149.709 39.3695 149.709 39.448C149.34 40.1541 147.861 40.6509 147.359 40.7817ZM148.838 39.0034C148.706 39.1603 148.468 39.1342 148.363 39.0557C148.099 38.8727 148.099 38.5327 148.099 38.2712C148.125 37.8267 148.204 37.3821 148.31 36.9114L148.653 35.4731C148.864 34.5317 148.996 33.5902 148.706 32.8057C148.468 32.1258 147.887 31.4459 147.175 31.3674C146.567 31.289 145.96 31.4982 145.458 31.8643C145.194 32.0473 144.613 32.5442 144.455 32.8319C144.429 32.9365 144.481 33.1195 144.587 33.2241C144.693 33.3287 144.613 33.6425 144.376 33.5902C144.191 33.5379 143.98 33.4856 143.821 33.3549C143.61 33.1718 143.531 32.8319 143.689 32.5703C144.138 31.812 144.772 31.1844 145.59 30.8182C146.118 30.5567 146.752 30.4521 147.412 30.5567C148.204 30.6875 148.891 31.2628 149.287 31.995C149.894 33.1195 149.815 34.5317 149.524 35.7869C149.26 36.8591 148.996 37.8528 148.838 39.0034Z" fill="white"/>
<path d="M155.043 40.8863C153.722 40.834 152.508 40.2325 151.742 39.108C151.109 38.1666 150.95 37.0683 151.082 35.9961C151.241 34.7932 151.742 33.6425 152.429 32.7534C153.194 31.7597 154.277 30.9751 155.518 30.7398C156.363 30.5829 157.26 30.6613 157.894 31.3413C158.184 31.6551 158.449 31.995 158.449 32.4134C158.475 32.858 158.264 33.2503 157.894 33.5379C156.046 35.0547 154.092 36.4668 152.086 37.6174C152.138 38.4281 152.851 39.2649 153.617 39.6834C154.383 40.1018 155.28 40.1541 156.125 40.0495C156.97 39.971 157.841 39.6834 158.449 39.3957C158.554 39.3172 158.633 39.3957 158.66 39.4742C158.686 39.5265 158.739 39.6311 158.633 39.7095C157.709 40.5463 156.389 40.9386 155.043 40.8863ZM156.204 31.5505C155.439 31.5505 154.673 31.8643 154.066 32.335C152.772 33.381 152.006 35.0547 152.006 36.676C153.881 35.6561 155.65 34.3224 157.366 32.9365C157.498 32.8319 157.604 32.4396 157.419 32.1258C157.208 31.7074 156.732 31.5505 156.204 31.5505Z" fill="white"/>
<path d="M167.771 31.8643C167.084 31.7074 166.398 31.5505 165.685 31.5243C165.104 32.2565 164.814 33.1195 164.655 34.0348C164.47 34.9762 164.497 35.9699 164.444 36.9375C164.391 38.2451 164.497 39.5003 164.655 40.7294C164.576 40.8863 164.338 40.9909 164.153 40.8863C163.705 40.3371 163.599 39.6311 163.573 38.925C163.546 37.3559 163.52 35.7084 163.757 34.1655C163.916 33.1718 164.206 32.2565 164.814 31.4197C163.177 31.3413 161.672 31.6812 160.167 32.0996C159.956 32.0735 159.718 31.9427 159.586 31.7335C159.533 31.5505 159.639 31.4459 159.744 31.3936L159.903 31.3413L160.035 31.289C161.144 30.8444 162.49 30.609 163.784 30.5829C165.104 30.5306 166.424 30.6613 167.586 31.0798C167.718 31.1321 167.955 31.3151 168.035 31.472C168.061 31.6551 167.929 31.8904 167.771 31.8643Z" fill="white"/>
<path d="M172.988 40.8863C171.668 40.834 170.453 40.2325 169.688 39.108C169.054 38.1666 168.896 37.0683 169.028 35.9961C169.186 34.7932 169.688 33.6425 170.374 32.7534C171.14 31.7597 172.222 30.9751 173.463 30.7398C174.308 30.5829 175.206 30.6613 175.839 31.3413C176.13 31.6551 176.394 31.995 176.394 32.4134C176.42 32.858 176.209 33.2503 175.839 33.5379C173.991 35.0547 172.037 36.4668 170.031 37.6174C170.084 38.4281 170.797 39.2649 171.562 39.6834C172.328 40.1018 173.226 40.1541 174.07 40.0495C174.915 39.971 175.787 39.6834 176.394 39.3957C176.499 39.3172 176.579 39.3957 176.605 39.4742C176.631 39.5265 176.684 39.6311 176.579 39.7095C175.655 40.5463 174.334 40.9386 172.988 40.8863ZM174.15 31.5505C173.384 31.5505 172.618 31.8643 172.011 32.335C170.717 33.381 169.952 35.0547 169.952 36.676C171.826 35.6561 173.595 34.3224 175.311 32.9365C175.443 32.8319 175.549 32.4396 175.364 32.1258C175.153 31.7074 174.678 31.5505 174.15 31.5505Z" fill="white"/>
<path d="M185.769 29.7722C184.528 31.7858 183.102 33.7733 181.967 35.8915C181.835 35.9961 181.597 35.9438 181.544 35.813C181.492 35.5254 181.518 35.2639 181.597 35.0547C181.65 34.8193 181.729 34.6363 181.808 34.4009C182.706 32.7796 183.815 31.2367 184.792 29.6676C185.082 29.1707 185.241 28.517 185.188 27.8632C185.161 27.3925 184.977 26.9218 184.66 26.5295C184.026 25.745 183.234 25.1435 182.363 24.8559C181.782 24.6467 181.175 24.5944 180.515 24.7251C180.092 24.8036 179.723 24.9866 179.353 25.3266C179.01 25.6404 178.719 26.0327 178.587 26.4772C178.429 26.608 178.138 26.608 178.059 26.3726C177.98 26.0327 178.112 25.745 178.218 25.4312C178.666 24.6728 179.3 24.1498 180.039 23.8883C180.673 23.6791 181.307 23.6268 181.967 23.7314C182.732 23.8621 183.419 24.1759 184.053 24.6205C184.686 25.0651 185.241 25.6404 185.663 26.3465C186.006 26.8695 186.165 27.5755 186.138 28.2555C186.138 28.7785 186.033 29.3538 185.769 29.7722ZM184.079 41.0693C183.419 41.0693 182.759 40.9124 182.178 40.6248C181.571 40.311 181.043 39.9187 180.647 39.3434C180.541 39.1865 180.515 38.925 180.567 38.7158C180.62 38.5066 180.779 38.3758 181.043 38.4804L181.676 39.1603C181.888 39.3695 182.125 39.5788 182.336 39.7357C182.944 40.1802 183.709 40.4156 184.475 40.6509C184.554 40.834 184.264 41.017 184.079 41.0693Z" fill="white"/>
<path d="M195.455 28.8569C195.323 29.0138 195.191 29.1446 194.98 29.2753C194.716 29.3015 194.505 29.2753 194.32 29.1707C193.739 28.9092 193.079 28.4908 192.604 28.1509C192.577 28.9877 192.498 29.8507 192.604 30.6613C192.551 31.0798 192.076 30.8967 192.023 30.7921C191.97 30.7398 191.917 30.6875 191.891 30.609C191.838 30.5567 191.785 30.4783 191.759 30.3998C191.706 30.1645 191.706 29.9291 191.706 29.7199C191.733 29.2753 191.759 28.8046 191.759 28.3601C191.152 28.9354 190.412 29.4323 189.62 29.7199C189.436 29.7461 189.145 29.7461 188.934 29.563C188.617 29.3015 188.908 28.8569 189.277 28.6216L189.462 28.9615C189.647 28.9092 189.832 28.7785 190.016 28.7C190.571 28.3601 191.125 27.8632 191.574 27.3663C190.729 26.6864 189.884 25.8496 189.172 25.0912C188.987 24.9343 189.066 24.699 189.145 24.5682C189.383 24.2544 189.752 24.4636 189.832 24.5421C190.439 25.1958 191.072 25.8234 191.733 26.4249C191.733 25.7188 191.759 25.0128 191.706 24.359L191.495 23.7575C191.469 23.6006 191.574 23.2345 191.917 23.2607C192.155 23.3391 192.287 23.5222 192.393 23.7314L192.472 23.9144C192.551 24.0975 192.604 24.4375 192.604 24.6205V26.0588L192.683 25.928L193.237 25.1958C193.422 24.9343 193.686 24.7251 194.003 24.5421C194.426 24.3067 195.218 24.5421 194.98 25.3266C194.795 25.3004 194.742 25.2743 194.663 25.2481C194.61 25.2481 194.558 25.222 194.452 25.1958C194.294 25.1435 193.766 25.8496 193.686 25.9542C193.369 26.3726 193.105 26.8172 192.762 27.2617C193.396 27.7325 194.082 28.1509 194.848 28.517C194.901 28.4385 194.954 28.4124 195.006 28.3862C195.059 28.3339 195.112 28.3078 195.297 28.2293C195.508 28.4385 195.534 28.5954 195.508 28.7C195.482 28.7523 195.455 28.7785 195.455 28.8569Z" fill="white"/>
<path d="M205.717 28.8569C205.585 29.0138 205.453 29.1446 205.242 29.2753C204.978 29.3015 204.767 29.2753 204.582 29.1707C204.001 28.9092 203.341 28.4908 202.866 28.1509C202.839 28.9877 202.76 29.8507 202.866 30.6613C202.813 31.0798 202.338 30.8967 202.285 30.7921C202.232 30.7398 202.179 30.6875 202.153 30.609C202.1 30.5567 202.047 30.4783 202.021 30.3998C201.968 30.1645 201.968 29.9291 201.968 29.7199C201.994 29.2753 202.021 28.8046 202.021 28.3601C201.414 28.9354 200.674 29.4323 199.882 29.7199C199.697 29.7461 199.407 29.7461 199.196 29.563C198.879 29.3015 199.169 28.8569 199.539 28.6216L199.724 28.9615C199.909 28.9092 200.093 28.7785 200.278 28.7C200.833 28.3601 201.387 27.8632 201.836 27.3663C200.991 26.6864 200.146 25.8496 199.433 25.0912C199.249 24.9343 199.328 24.699 199.407 24.5682C199.645 24.2544 200.014 24.4636 200.093 24.5421C200.701 25.1958 201.334 25.8234 201.994 26.4249C201.994 25.7188 202.021 25.0128 201.968 24.359L201.757 23.7575C201.73 23.6006 201.836 23.2345 202.179 23.2607C202.417 23.3391 202.549 23.5222 202.654 23.7314L202.734 23.9144C202.813 24.0975 202.866 24.4375 202.866 24.6205V26.0588L202.945 25.928L203.499 25.1958C203.684 24.9343 203.948 24.7251 204.265 24.5421C204.687 24.3067 205.48 24.5421 205.242 25.3266C205.057 25.3004 205.004 25.2743 204.925 25.2481C204.872 25.2481 204.819 25.222 204.714 25.1958C204.555 25.1435 204.027 25.8496 203.948 25.9542C203.631 26.3726 203.367 26.8172 203.024 27.2617C203.658 27.7325 204.344 28.1509 205.11 28.517C205.163 28.4385 205.215 28.4124 205.268 28.3862C205.321 28.3339 205.374 28.3078 205.559 28.2293C205.77 28.4385 205.796 28.5954 205.77 28.7C205.744 28.7523 205.717 28.7785 205.717 28.8569Z" fill="white"/>
</svg>
