<svg width="832" height="46" viewBox="0 0 832 46" fill="none" xmlns="http://www.w3.org/2000/svg">
<path d="M18.441 2.61556C18.1237 1.73358 16.8763 1.73358 16.559 2.61556L12.929 12.7058C12.8303 12.9804 12.6165 13.1981 12.3438 13.3019L2.45554 17.0654C1.5965 17.3924 1.5965 18.6076 2.45555 18.9346L12.3438 22.6981C12.6165 22.8019 12.8303 23.0196 12.929 23.2942L16.559 33.3844C16.8763 34.2664 18.1237 34.2664 18.441 33.3844L22.071 23.2942C22.1697 23.0196 22.3835 22.8019 22.6562 22.6981L32.5445 18.9346C33.4035 18.6076 33.4035 17.3924 32.5445 17.0654L22.6562 13.3019C22.3835 13.1981 22.1697 12.9804 22.071 12.7058L18.441 2.61556Z" fill="#FFD700"/>
<path d="M69.4937 9.33518C68.8697 11.8312 68.5817 14.5192 68.2937 17.1592C68.0537 18.9832 67.9577 20.8072 67.9097 22.6792C67.8137 25.4152 67.8137 28.1512 67.7177 30.9352C67.5737 31.4152 67.1897 31.7032 66.7577 31.7032C66.1337 31.7032 65.8457 31.0792 65.7017 30.5512L65.5097 30.1672C64.3097 25.1752 62.8697 20.3272 61.0937 15.5752C60.2777 13.3192 59.5097 11.1112 58.6457 8.90318C57.7817 6.74318 56.8217 4.58318 55.6697 2.42318C55.6217 2.42318 55.5737 2.32718 55.5737 2.37518C54.2777 6.59918 53.3657 10.8712 52.9337 15.3832C52.5497 19.4632 52.5017 23.6392 52.6457 27.8632C52.7417 28.4392 52.7417 29.0632 52.8377 29.6872C52.8857 30.2632 52.9817 30.8392 53.1737 31.3672C53.2217 31.7032 52.9817 31.9432 52.6937 32.0392C51.8297 31.8472 51.6377 31.1272 51.4937 30.3592L51.3497 29.6872C50.9657 26.1832 50.9177 22.5832 51.1097 18.9832C51.3497 14.7112 51.9737 10.4392 52.8377 6.50318C53.3177 4.43918 53.9417 2.27918 54.7577 0.359178C54.9017 0.0231766 55.4777 -0.120822 55.8137 0.119178C56.1017 0.359178 56.2457 0.647177 56.4377 0.983178C57.6377 2.90318 58.5977 4.91918 59.4137 6.93518L61.8617 13.0792C63.6857 17.6872 65.1737 22.4392 66.4217 27.2872C66.4697 23.2072 66.5177 18.9352 66.9497 14.9032C67.2857 11.3992 68.0057 7.94318 69.4457 4.91918C69.5417 4.72718 69.6377 4.48718 69.7817 4.29518C70.1177 3.62318 70.5977 2.90318 71.5097 2.95118C72.0377 3.23918 71.8457 3.76718 71.6057 4.10318C70.5497 5.68718 69.9737 7.46318 69.4937 9.33518ZM81.4937 24.9832C80.3897 25.9912 79.0457 26.6632 77.3657 26.5192C75.9257 26.3752 74.6297 25.5592 73.9097 24.4552C72.6137 22.5352 72.3257 20.1352 72.7097 17.9272C72.9977 16.3432 73.7657 14.3272 74.7737 13.0792C75.1097 12.8392 75.3977 12.5032 75.8777 12.5512C76.2617 12.6952 76.3097 13.0792 76.1657 13.3192C75.2537 14.8552 74.3897 16.7752 74.1497 18.7432C73.9577 20.6152 74.1977 22.4872 75.3497 23.9752C76.0697 24.8872 77.3177 25.2232 78.5177 24.9832C80.9177 24.2152 82.1177 21.9592 82.5497 19.9432C82.9337 18.3112 82.8857 16.5352 82.5017 14.9032C82.2137 13.6072 81.5897 12.4072 80.5817 11.3992C80.1497 10.9672 79.2857 10.7752 78.6617 10.9192C77.9417 11.0632 77.3657 11.5912 76.9817 12.1672C76.7417 12.3592 76.4057 12.0712 76.4057 11.8792C76.4537 11.1592 77.1737 10.1512 77.9417 9.81518C78.9017 9.33518 80.3897 9.33518 81.3017 10.0552C82.8377 11.2552 83.4137 12.4552 83.8937 14.1352C84.4217 16.1032 84.4697 18.2152 84.0377 20.2792C83.6537 22.0552 82.7897 23.7352 81.4937 24.9832ZM75.7337 30.6472C75.4457 30.7432 74.6297 30.7912 74.2457 30.8872C73.8617 31.0792 73.2857 31.0312 72.8537 31.0312C72.6137 30.9352 72.4697 30.9832 72.2777 30.9352C72.1337 30.8872 71.9897 30.8392 71.8457 30.6472C71.7497 30.4552 71.7017 30.1672 71.7497 29.9272C71.7977 29.7352 71.8937 29.5432 72.0377 29.3992C72.3257 29.1112 72.5657 29.0152 72.8057 28.9672C73.1417 28.8712 73.3817 28.9192 73.6217 28.8712C74.1017 28.8712 75.0137 28.9192 75.4457 28.9672C75.7337 29.1112 76.0217 29.0632 76.3577 29.1592C76.6937 29.0152 79.4777 29.0632 79.9097 29.1592C80.9657 29.0632 82.2137 29.1592 83.0777 29.3992C83.3657 29.4952 84.0857 29.4952 84.3257 29.7832C84.2297 30.4552 82.6937 30.7912 82.0217 30.5992C81.6377 30.6952 80.7737 30.4552 80.1977 30.5992C79.7177 30.5032 78.6617 30.6952 78.2297 30.6472C77.4617 30.5992 76.2617 30.5512 75.7337 30.6472Z" fill="white"/>
<path d="M108.748 21.7192L108.268 23.4952C107.26 25.6552 105.868 27.9112 104.092 29.8792C102.22 31.9432 99.9163 33.6232 97.3723 34.2952C96.9403 34.3912 95.8843 34.2472 95.9323 33.4792C97.6603 32.9512 99.2443 32.0872 100.636 30.9832C102.124 29.8312 103.468 28.3912 104.572 26.8552C105.916 24.9832 106.828 22.8712 107.26 20.7592C107.356 20.3752 107.308 19.1752 106.828 18.7432C106.012 18.0232 104.812 17.6392 103.612 17.5432C102.22 17.4472 100.828 17.7832 99.6763 18.2152C98.0443 18.8392 96.5563 19.9432 95.1643 21.0472C94.5403 21.1432 94.2043 20.2792 94.4443 19.7992C95.9803 18.2632 97.4203 16.6312 98.5723 14.9032C99.4843 13.5592 100.108 12.0712 100.492 10.4872C100.732 9.52718 100.684 8.56718 100.348 7.65518C100.012 6.64718 99.3883 5.73518 98.4763 5.11118C97.4683 4.43918 96.1243 4.00718 94.8283 3.95918C93.8683 3.91118 92.9563 4.10318 92.0923 4.48718C91.9483 4.58318 91.8043 4.72718 91.6603 4.77518C91.5163 4.87118 91.3243 4.91918 91.1323 4.82318C90.7963 4.58318 90.8443 4.15118 91.0843 3.91118C91.6603 3.09518 92.4763 2.71118 93.3883 2.51918C94.7323 2.27918 96.2683 2.56718 97.4203 2.90318C98.9563 3.38318 100.732 4.48718 101.5 6.16718C102.172 7.65518 102.268 9.23918 102.028 10.6792C101.596 12.9832 100.348 15.1432 98.8123 16.9672C100.204 16.2472 101.98 15.8152 103.66 15.9112C105.196 15.9592 106.684 16.4392 107.884 17.3992C108.7 18.0232 108.94 18.8872 108.988 19.7992C108.988 20.4232 108.892 21.0952 108.748 21.7192Z" fill="white"/>
<path d="M145.09 19.6072C140.578 19.4152 136.066 20.1352 131.554 19.7992C130.69 19.7512 129.634 19.5112 129.01 18.7912C128.674 18.4072 129.058 17.5432 129.634 17.6392C131.698 17.8792 133.762 17.9752 135.826 17.9272C138.514 17.8792 141.346 17.6872 143.794 17.7832C144.274 17.7832 145.378 17.9752 145.714 18.5512C146.05 19.0312 145.618 19.6552 145.09 19.6072Z" fill="white"/>
<path d="M179.516 34.1512C177.212 32.8552 174.86 31.9432 172.412 31.0792C170.012 30.2152 167.708 29.3512 165.404 28.3432C165.356 30.0712 165.596 31.8472 166.028 33.4312C166.172 33.7192 166.076 34.2472 165.644 34.2472C165.26 34.2472 165.02 34.0072 164.876 33.7672C164.732 33.5752 164.636 33.2872 164.492 33.0472C163.964 31.3192 163.772 29.4472 163.772 27.5272C163.628 27.4312 163.436 27.2872 163.34 27.0472C163.196 26.9032 163.148 26.6152 163.292 26.3752C163.484 26.2312 163.676 25.9432 163.724 25.7512C163.82 25.1272 163.772 23.6872 163.916 23.0632C164.108 21.9592 164.396 20.6152 164.684 19.2712C165.02 17.9272 165.5 16.5832 166.124 15.4312C166.412 14.9512 167.132 15.0472 167.276 15.5752C167.228 16.1992 167.036 16.7752 166.844 17.3512C166.7 17.8792 166.412 18.4552 166.268 19.0312C165.788 20.7592 165.5 22.5352 165.452 24.3592C167.18 22.8232 168.908 21.3832 170.684 20.0392C172.892 18.4072 175.244 17.0152 177.74 16.0072C178.124 16.0072 178.604 16.0072 178.892 16.2472C179.18 16.4392 179.18 16.7272 179.036 17.0632C176.492 18.1192 174.188 19.5112 171.836 21.1432C169.628 22.7272 167.42 24.5512 165.356 26.5192V26.5672C167.708 27.8632 170.3 28.7272 172.796 29.5912C175.004 30.3592 177.116 31.2232 179.132 32.5192C179.564 32.7592 179.9 33.0952 180.14 33.5272C180.188 33.8152 179.804 34.1992 179.516 34.1512Z" fill="white"/>
<path d="M191.025 34.0552C188.385 34.7752 185.313 34.7272 183.249 32.9512C182.289 32.1352 181.569 30.9352 181.521 29.6392C181.473 28.4872 181.953 27.4312 182.625 26.4712C184.113 24.3592 186.705 22.9192 189.201 22.6312C190.257 22.5352 191.217 22.6792 191.985 23.4472C192.225 23.6872 191.985 24.1672 191.745 24.2632H191.313C191.169 24.2632 190.977 24.2152 190.833 24.2152C190.497 24.1672 190.209 24.1192 190.017 24.2632C187.713 24.3592 185.457 25.4632 184.065 27.3352C183.441 28.1512 183.105 28.7752 183.201 29.7832C183.297 31.1272 184.305 32.1352 185.697 32.6152C187.665 33.3352 190.113 32.9032 191.985 32.2312C192.993 31.8472 193.905 31.4632 194.769 30.8392C194.961 30.6952 195.153 30.8392 195.249 31.0792C195.297 31.2712 195.297 31.4632 195.297 31.6072C194.625 32.9032 191.937 33.8152 191.025 34.0552ZM193.713 30.7912C193.473 31.0792 193.041 31.0312 192.849 30.8872C192.369 30.5512 192.369 29.9272 192.369 29.4472C192.417 28.6312 192.561 27.8152 192.753 26.9512L193.377 24.3112C193.761 22.5832 194.001 20.8552 193.473 19.4152C193.041 18.1672 191.985 16.9192 190.689 16.7752C189.585 16.6312 188.481 17.0152 187.569 17.6872C187.089 18.0232 186.033 18.9352 185.745 19.4632C185.697 19.6552 185.793 19.9912 185.985 20.1832C186.177 20.3752 186.033 20.9512 185.601 20.8552C185.265 20.7592 184.881 20.6632 184.593 20.4232C184.209 20.0872 184.065 19.4632 184.353 18.9832C185.169 17.5912 186.321 16.4392 187.809 15.7672C188.769 15.2872 189.921 15.0952 191.121 15.2872C192.561 15.5272 193.809 16.5832 194.529 17.9272C195.633 19.9912 195.489 22.5832 194.961 24.8872C194.481 26.8552 194.001 28.6792 193.713 30.7912Z" fill="white"/>
<path d="M213.97 34.1512C211.666 32.8552 209.314 31.9432 206.866 31.0792C204.466 30.2152 202.162 29.3512 199.858 28.3432C199.81 30.0712 200.05 31.8472 200.482 33.4312C200.626 33.7192 200.53 34.2472 200.098 34.2472C199.714 34.2472 199.474 34.0072 199.33 33.7672C199.186 33.5752 199.09 33.2872 198.946 33.0472C198.418 31.3192 198.226 29.4472 198.226 27.5272C198.082 27.4312 197.89 27.2872 197.794 27.0472C197.65 26.9032 197.602 26.6152 197.746 26.3752C197.938 26.2312 198.13 25.9432 198.178 25.7512C198.274 25.1272 198.226 23.6872 198.37 23.0632C198.562 21.9592 198.85 20.6152 199.138 19.2712C199.474 17.9272 199.954 16.5832 200.578 15.4312C200.866 14.9512 201.586 15.0472 201.73 15.5752C201.682 16.1992 201.49 16.7752 201.298 17.3512C201.154 17.8792 200.866 18.4552 200.722 19.0312C200.242 20.7592 199.954 22.5352 199.906 24.3592C201.634 22.8232 203.362 21.3832 205.138 20.0392C207.346 18.4072 209.698 17.0152 212.194 16.0072C212.578 16.0072 213.058 16.0072 213.346 16.2472C213.634 16.4392 213.634 16.7272 213.49 17.0632C210.946 18.1192 208.642 19.5112 206.29 21.1432C204.082 22.7272 201.874 24.5512 199.81 26.5192V26.5672C202.162 27.8632 204.754 28.7272 207.25 29.5912C209.458 30.3592 211.57 31.2232 213.586 32.5192C214.018 32.7592 214.354 33.0952 214.594 33.5272C214.642 33.8152 214.258 34.1992 213.97 34.1512Z" fill="white"/>
<path d="M227.158 33.0952C224.998 34.1992 222.406 34.6792 220.054 33.5272C218.23 32.6152 216.934 31.0792 216.31 29.1592C215.59 26.9032 215.83 24.3592 216.79 22.2472C217.51 20.7112 218.614 19.3672 219.91 18.3592C220.774 17.7352 222.07 16.9672 223.27 16.8232C224.23 15.7192 225.814 15.3832 227.158 15.7192C229.462 16.3432 231.43 18.6952 232.054 20.7592C232.678 22.7752 232.822 24.9832 232.246 27.0472C231.526 29.8312 229.702 31.8472 227.158 33.0952ZM230.47 21.2872C229.894 19.7032 228.598 17.9272 226.918 17.3512C226.15 17.0632 225.334 16.9672 224.71 17.4472C224.086 17.9272 223.702 18.6952 223.414 19.3672C223.366 19.5112 223.366 19.7032 223.366 19.8952C223.366 20.0872 223.366 20.3272 223.318 20.5192C223.27 20.6152 222.79 20.9032 222.646 20.6152C222.55 20.1832 222.454 19.3192 222.502 18.6472C220.678 19.4152 219.142 20.9992 218.278 22.7752C217.366 24.6472 217.318 26.8072 217.894 28.7272C218.374 30.2152 219.286 31.4632 220.822 32.0872C222.742 32.8072 224.806 32.5672 226.534 31.7032C228.502 30.6952 229.894 29.1592 230.566 27.0952C231.19 25.2712 231.094 23.1112 230.47 21.2872Z" fill="white"/>
<path d="M241.931 34.2472C239.531 34.1512 237.323 33.0472 235.931 30.9832C234.779 29.2552 234.491 27.2392 234.731 25.2712C235.019 23.0632 235.931 20.9512 237.179 19.3192C238.571 17.4952 240.539 16.0552 242.795 15.6232C244.331 15.3352 245.963 15.4792 247.115 16.7272C247.643 17.3032 248.123 17.9272 248.123 18.6952C248.171 19.5112 247.787 20.2312 247.115 20.7592C243.755 23.5432 240.203 26.1352 236.555 28.2472C236.651 29.7352 237.947 31.2712 239.339 32.0392C240.731 32.8072 242.363 32.9032 243.899 32.7112C245.435 32.5672 247.019 32.0392 248.123 31.5112C248.315 31.3672 248.459 31.5112 248.507 31.6552C248.555 31.7512 248.651 31.9432 248.459 32.0872C246.779 33.6232 244.379 34.3432 241.931 34.2472ZM244.043 17.1112C242.651 17.1112 241.259 17.6872 240.155 18.5512C237.803 20.4712 236.411 23.5432 236.411 26.5192C239.819 24.6472 243.035 22.1992 246.155 19.6552C246.395 19.4632 246.587 18.7432 246.251 18.1672C245.867 17.3992 245.003 17.1112 244.043 17.1112Z" fill="white"/>
<path d="M278.766 19.6552C276.99 18.7432 275.07 18.1672 273.102 17.8312C271.038 17.4952 268.686 17.3512 267.006 17.3992C266.862 17.4472 266.622 17.4952 266.622 17.6392C266.67 22.2952 266.238 27.3352 265.95 32.0872C265.854 32.4232 265.854 32.7592 265.758 33.0952C265.71 33.4312 265.614 33.7672 265.374 34.0072C265.134 34.2472 264.27 34.5832 264.126 34.0072C264.318 31.1752 264.75 24.5992 264.846 22.1032L265.038 16.5352C265.614 15.8632 266.382 15.7192 267.198 15.7672C267.582 15.7672 268.014 15.7672 268.398 15.8152C268.782 15.8632 269.166 15.8632 269.55 15.8152C272.478 16.0072 275.31 16.5832 277.806 17.8792C278.43 18.1672 279.006 18.5992 279.39 19.2712C279.486 19.6552 278.958 19.7992 278.766 19.6552Z" fill="white"/>
<path d="M296.735 33.6232C296.111 33.6712 295.679 32.9992 295.391 32.5192C294.335 30.6472 293.471 28.6792 292.847 26.6152C292.031 24.0712 291.599 21.4792 291.407 18.6952C289.967 20.9032 287.567 24.9352 286.079 27.0952C284.543 29.3992 283.007 31.8472 281.759 34.1512C281.615 34.4872 281.087 34.2472 280.895 33.9592C280.655 33.5272 280.751 32.9512 280.847 32.5192C281.135 32.0872 281.663 30.9832 281.951 30.3592C285.071 25.6072 288.335 20.7592 291.215 16.0072C291.551 15.6712 292.703 15.4792 292.799 16.3912C293.039 19.3192 293.471 22.2472 294.143 25.0312C294.815 27.8152 295.823 30.4072 297.119 32.9032C297.167 33.0472 297.119 33.5752 296.735 33.6232Z" fill="white"/>
<path d="M308.213 34.0552C305.573 34.7752 302.501 34.7272 300.437 32.9512C299.477 32.1352 298.757 30.9352 298.709 29.6392C298.661 28.4872 299.141 27.4312 299.813 26.4712C301.301 24.3592 303.893 22.9192 306.389 22.6312C307.445 22.5352 308.405 22.6792 309.173 23.4472C309.413 23.6872 309.173 24.1672 308.933 24.2632H308.501C308.357 24.2632 308.165 24.2152 308.021 24.2152C307.685 24.1672 307.397 24.1192 307.205 24.2632C304.901 24.3592 302.645 25.4632 301.253 27.3352C300.629 28.1512 300.293 28.7752 300.389 29.7832C300.485 31.1272 301.493 32.1352 302.885 32.6152C304.853 33.3352 307.301 32.9032 309.173 32.2312C310.181 31.8472 311.093 31.4632 311.957 30.8392C312.149 30.6952 312.341 30.8392 312.437 31.0792C312.485 31.2712 312.485 31.4632 312.485 31.6072C311.813 32.9032 309.125 33.8152 308.213 34.0552ZM310.901 30.7912C310.661 31.0792 310.229 31.0312 310.037 30.8872C309.557 30.5512 309.557 29.9272 309.557 29.4472C309.605 28.6312 309.749 27.8152 309.941 26.9512L310.565 24.3112C310.949 22.5832 311.189 20.8552 310.661 19.4152C310.229 18.1672 309.173 16.9192 307.877 16.7752C306.773 16.6312 305.669 17.0152 304.757 17.6872C304.277 18.0232 303.221 18.9352 302.933 19.4632C302.885 19.6552 302.981 19.9912 303.173 20.1832C303.365 20.3752 303.221 20.9512 302.789 20.8552C302.453 20.7592 302.069 20.6632 301.781 20.4232C301.397 20.0872 301.253 19.4632 301.541 18.9832C302.357 17.5912 303.509 16.4392 304.997 15.7672C305.957 15.2872 307.109 15.0952 308.309 15.2872C309.749 15.5272 310.997 16.5832 311.717 17.9272C312.821 19.9912 312.677 22.5832 312.149 24.8872C311.669 26.8552 311.189 28.6792 310.901 30.7912Z" fill="white"/>
<path d="M324.437 32.9512C322.997 33.9112 321.221 34.6792 319.445 34.6792C318.437 34.6792 317.717 34.2472 317.045 33.2872C316.805 33.4792 316.373 33.6232 316.181 33.3352C315.317 32.1352 315.077 30.4552 315.029 28.8232C314.933 24.6472 314.981 21.5752 316.085 17.8312C316.181 17.4472 317.093 16.7272 317.765 16.9192C318.053 16.1512 318.821 15.3352 319.733 15.2392C322.181 15.2392 324.821 16.5352 325.637 18.9832C325.877 19.7512 325.877 20.5672 325.589 21.3352C325.301 22.0552 324.821 22.6792 324.197 23.1592L323.909 23.3992C325.109 23.7832 326.453 24.5512 327.221 25.7512C327.797 26.6632 327.845 27.7672 327.605 28.8232C327.173 30.5512 325.925 31.9432 324.437 32.9512ZM325.781 26.5672C325.397 25.8472 324.341 25.4152 323.573 25.0312C322.661 24.4552 321.845 24.6952 320.933 24.8872L319.493 25.2232C318.965 25.3672 318.437 25.3672 317.861 25.2232C317.621 25.0792 317.333 24.5992 317.573 24.3592C318.149 23.7832 318.869 23.4952 319.685 23.3032L321.893 23.0632C322.757 22.5832 323.669 21.6232 324.053 20.7112C324.293 19.9432 324.149 19.4152 323.669 18.7912C322.805 17.5912 321.413 17.0632 320.021 16.9192C319.589 16.8712 319.445 16.9672 319.349 17.2552C319.205 17.6392 319.109 18.0712 318.869 18.4072C318.773 18.6472 318.437 18.7432 318.197 18.5992C318.005 18.5512 317.861 18.4552 317.765 18.3592C317.189 20.4232 316.853 22.7752 316.757 25.2232C316.661 27.5272 316.757 29.7832 317.093 31.8952C317.477 31.4632 317.957 30.8392 318.197 30.5032C318.533 30.1672 319.157 30.6952 319.061 31.0312C318.965 31.2712 318.773 31.5592 318.629 31.7992C318.533 32.0872 318.389 32.3272 318.389 32.5192C318.677 32.9512 319.349 33.0952 320.165 32.9992C321.365 32.8072 322.805 32.1352 323.861 31.3192C324.821 30.5512 325.637 29.5912 325.877 28.3912C326.021 27.8152 326.117 27.1432 325.781 26.5672Z" fill="white"/>
<path d="M344.528 23.3992C344.192 26.8072 344.384 30.7912 344.624 34.1512C344.672 34.4872 344.192 34.5352 343.952 34.3912C343.28 33.8632 342.944 32.4712 342.896 31.6072C342.752 28.9192 342.752 26.4232 342.896 23.7352C339.344 23.8792 335.504 23.7832 332 24.1672C331.856 27.3832 331.952 30.4552 332.096 33.5272C332.144 33.6232 331.952 33.7672 331.712 33.8152C331.568 33.8152 331.328 33.7672 331.184 33.6232C330.56 32.9992 330.416 31.8472 330.368 31.0792C330.128 26.2312 330.464 21.3832 330.944 16.6312C331.04 16.3432 331.472 16.0552 331.856 16.2952C332.384 16.5352 332.384 17.1592 332.48 17.6392C332.384 18.8872 332.24 20.9992 332.096 22.4872C335.6 22.2472 339.488 22.3912 342.992 22.3432C343.184 19.9912 343.28 17.6392 343.856 15.4312C344.096 15.1432 344.576 15.3352 344.864 15.6232C345.104 15.9112 345.248 16.4872 345.248 16.8232C345.008 18.6472 344.672 20.4232 344.624 22.2952C344.768 22.2952 344.912 22.2472 345.056 22.2472C345.152 22.2472 345.296 22.3432 345.296 22.5832C345.296 22.6792 345.296 22.8712 345.2 22.9672C345.056 23.1592 344.768 23.3032 344.528 23.3992Z" fill="white"/>
<path d="M358.971 33.0952C356.811 34.1992 354.219 34.6792 351.867 33.5272C350.043 32.6152 348.747 31.0792 348.123 29.1592C347.403 26.9032 347.643 24.3592 348.603 22.2472C349.323 20.7112 350.427 19.3672 351.723 18.3592C352.587 17.7352 353.883 16.9672 355.083 16.8232C356.043 15.7192 357.627 15.3832 358.971 15.7192C361.275 16.3432 363.243 18.6952 363.867 20.7592C364.491 22.7752 364.635 24.9832 364.059 27.0472C363.339 29.8312 361.515 31.8472 358.971 33.0952ZM362.283 21.2872C361.707 19.7032 360.411 17.9272 358.731 17.3512C357.963 17.0632 357.147 16.9672 356.523 17.4472C355.899 17.9272 355.515 18.6952 355.227 19.3672C355.179 19.5112 355.179 19.7032 355.179 19.8952C355.179 20.0872 355.179 20.3272 355.131 20.5192C355.083 20.6152 354.603 20.9032 354.459 20.6152C354.363 20.1832 354.267 19.3192 354.315 18.6472C352.491 19.4152 350.955 20.9992 350.091 22.7752C349.179 24.6472 349.131 26.8072 349.707 28.7272C350.187 30.2152 351.099 31.4632 352.635 32.0872C354.555 32.8072 356.619 32.5672 358.347 31.7032C360.315 30.6952 361.707 29.1592 362.379 27.0952C363.003 25.2712 362.907 23.1112 362.283 21.2872Z" fill="white"/>
<path d="M373.744 34.2472C371.344 34.1512 369.136 33.0472 367.744 30.9832C366.592 29.2552 366.304 27.2392 366.544 25.2712C366.832 23.0632 367.744 20.9512 368.992 19.3192C370.384 17.4952 372.352 16.0552 374.608 15.6232C376.144 15.3352 377.776 15.4792 378.928 16.7272C379.456 17.3032 379.936 17.9272 379.936 18.6952C379.984 19.5112 379.6 20.2312 378.928 20.7592C375.568 23.5432 372.016 26.1352 368.368 28.2472C368.464 29.7352 369.76 31.2712 371.152 32.0392C372.544 32.8072 374.176 32.9032 375.712 32.7112C377.248 32.5672 378.832 32.0392 379.936 31.5112C380.128 31.3672 380.272 31.5112 380.32 31.6552C380.368 31.7512 380.464 31.9432 380.272 32.0872C378.592 33.6232 376.192 34.3432 373.744 34.2472ZM375.856 17.1112C374.464 17.1112 373.072 17.6872 371.968 18.5512C369.616 20.4712 368.224 23.5432 368.224 26.5192C371.632 24.6472 374.848 22.1992 377.968 19.6552C378.208 19.4632 378.4 18.7432 378.064 18.1672C377.68 17.3992 376.816 17.1112 375.856 17.1112Z" fill="white"/>
<path d="M410.771 4.91918C409.715 5.30318 408.563 5.54318 407.507 5.92718C405.587 6.55118 404.291 7.36718 402.947 8.85518C401.603 10.2952 400.739 12.0232 399.971 13.8472C399.203 15.7192 398.675 17.7832 398.099 19.7512C399.827 18.5512 401.843 17.4952 403.955 17.1592C405.827 16.8232 407.891 17.2072 409.523 18.2632C411.251 19.3672 412.403 21.2872 412.883 23.3032C413.363 25.4632 413.171 27.4792 412.067 29.3992C411.107 31.1272 409.619 32.5672 407.795 33.4312C406.259 34.1992 404.243 34.4392 402.419 34.1512C400.307 33.8632 398.627 32.9032 397.379 31.2232C396.035 29.3992 395.651 27.1912 395.699 24.9352C395.795 21.8152 396.707 18.4552 397.523 15.9112C398.531 12.8392 399.971 9.47918 402.467 7.07918C403.667 5.92718 405.107 5.01518 406.643 4.48718C407.699 4.15118 408.803 3.91118 409.907 3.57518C410.963 3.23918 411.971 2.80718 412.883 2.03918C413.171 1.99118 413.651 2.03918 413.747 2.32718C413.939 2.61518 413.939 2.99918 413.747 3.23918C412.835 4.05518 411.827 4.58318 410.771 4.91918ZM410.675 22.0072C410.051 20.6152 408.803 19.5592 407.411 19.1272C406.019 18.6472 404.243 18.7432 402.851 19.1752C400.931 19.7512 399.155 20.9032 397.619 22.2952C397.187 24.4072 397.235 26.9512 397.955 28.8712C398.291 29.8312 398.963 30.6952 399.827 31.3672C401.267 32.5192 402.755 32.6632 404.579 32.4712C406.547 32.2792 408.323 31.3672 409.763 29.8792C410.915 28.7272 411.395 27.5752 411.443 25.8952C411.491 24.5032 411.203 23.1112 410.675 22.0072Z" fill="white"/>
<path d="M431.173 33.6232C430.549 33.6712 430.117 32.9992 429.829 32.5192C428.773 30.6472 427.909 28.6792 427.285 26.6152C426.469 24.0712 426.037 21.4792 425.845 18.6952C424.405 20.9032 422.005 24.9352 420.517 27.0952C418.981 29.3992 417.445 31.8472 416.197 34.1512C416.053 34.4872 415.525 34.2472 415.333 33.9592C415.093 33.5272 415.189 32.9512 415.285 32.5192C415.573 32.0872 416.101 30.9832 416.389 30.3592C419.509 25.6072 422.773 20.7592 425.653 16.0072C425.989 15.6712 427.141 15.4792 427.237 16.3912C427.477 19.3192 427.909 22.2472 428.581 25.0312C429.253 27.8152 430.261 30.4072 431.557 32.9032C431.605 33.0472 431.557 33.5752 431.173 33.6232Z" fill="white"/>
<path d="M452.586 32.9032C451.242 34.2952 449.034 34.7272 447.21 34.0072C445.482 33.2872 444.474 32.0392 443.898 30.4552C443.274 28.7272 443.13 26.6632 443.178 24.7432C440.97 24.4552 438.666 23.9752 436.41 24.3112C436.026 24.4552 435.642 24.5992 435.354 24.8392C435.258 27.2872 435.066 31.7032 435.018 34.0072C434.634 34.5832 434.058 34.3432 433.914 33.9592C433.29 28.1032 433.818 22.0072 434.634 16.3432C434.826 16.0072 435.018 15.8152 435.306 15.6712C435.834 15.6712 436.362 15.7192 436.65 16.2472C436.602 16.5832 436.458 16.7752 436.266 17.0152C436.218 17.0632 436.17 17.1592 436.17 17.2072C435.834 19.1272 435.642 21.0472 435.498 23.0632C436.41 22.6312 437.514 22.5832 438.618 22.6312C440.538 22.7272 441.93 22.9672 443.322 23.2552C443.514 20.6152 444.954 17.9752 447.498 16.9192C447.882 16.2952 448.554 15.7672 449.274 15.7192C451.434 15.8632 453.258 17.8312 453.882 19.7032C454.554 21.7192 455.034 24.2632 454.938 26.6632C454.842 29.0152 454.17 31.2232 452.586 32.9032ZM452.058 19.5592C451.626 18.6472 450.81 17.6872 449.898 17.3992C449.322 17.2072 448.794 17.4952 448.362 18.0232C448.218 18.2152 448.122 18.4552 448.026 18.6472C447.882 18.8872 447.69 19.1272 447.306 19.2712C447.162 19.2232 447.066 19.0312 447.018 18.8392C445.722 20.0872 445.146 21.8152 444.906 23.5912C444.618 25.6552 444.81 29.0632 445.818 30.8392C446.298 31.6072 446.97 32.2312 447.978 32.5192C449.13 32.9032 450.33 32.4712 451.338 31.8472C452.538 30.5032 453.066 28.6792 453.21 26.8552C453.402 24.3112 452.826 21.6712 452.058 19.5592Z" fill="white"/>
<path d="M474.282 41.4472C474.138 41.8312 473.658 41.8312 473.418 41.6872C472.89 41.2072 472.89 40.5352 472.842 39.8632C472.698 37.8472 472.506 35.6392 472.746 33.5752C468.234 33.1432 463.434 33.3832 459.114 34.1992C458.922 36.6472 459.018 39.2392 459.402 41.5912C459.354 41.8312 459.018 42.2152 458.634 41.9752C458.202 41.7832 458.01 41.3992 457.914 41.0632L457.674 40.0072C457.578 38.9512 457.482 37.8952 457.434 36.8872C457.386 35.8312 457.386 34.7752 457.482 33.8632C457.53 33.4792 457.866 33.0952 458.202 32.8552L459.546 32.5672C462.33 27.9112 464.634 23.1112 466.65 18.1192C466.698 17.8792 466.794 17.2072 466.602 16.9672C466.458 16.3432 466.842 16.0072 467.226 15.7192C468.762 15.4792 470.49 15.5272 471.834 16.2952C472.362 16.5352 472.602 17.0632 472.698 17.5912C472.698 20.0872 472.746 25.2712 472.794 27.8152C472.986 29.2072 472.794 30.6472 472.698 32.0392C472.794 32.0872 472.938 32.0872 473.13 32.0872C473.418 32.1352 473.61 32.0872 473.754 32.0872C474.186 32.1352 474.57 32.4232 474.57 32.8072C474.186 35.6872 474.138 38.6152 474.282 41.4472ZM471.306 30.6472C471.258 30.1672 471.21 29.7352 471.21 29.2072C471.21 26.3752 471.162 20.8072 471.114 17.9752C470.922 17.5912 470.586 17.3992 470.202 17.3032C469.53 17.1112 468.714 17.1592 467.994 17.2072C468.186 17.8792 468.042 18.5992 467.898 19.2232C465.978 23.6872 463.962 28.1512 461.37 32.3272C464.538 31.9432 467.85 31.7992 471.258 31.9432C471.306 31.5112 471.306 31.0792 471.306 30.6472Z" fill="white"/>
<path d="M487.783 33.0952C485.623 34.1992 483.031 34.6792 480.679 33.5272C478.855 32.6152 477.559 31.0792 476.935 29.1592C476.215 26.9032 476.455 24.3592 477.415 22.2472C478.135 20.7112 479.239 19.3672 480.535 18.3592C481.399 17.7352 482.695 16.9672 483.895 16.8232C484.855 15.7192 486.439 15.3832 487.783 15.7192C490.087 16.3432 492.055 18.6952 492.679 20.7592C493.303 22.7752 493.447 24.9832 492.871 27.0472C492.151 29.8312 490.327 31.8472 487.783 33.0952ZM491.095 21.2872C490.519 19.7032 489.223 17.9272 487.543 17.3512C486.775 17.0632 485.959 16.9672 485.335 17.4472C484.711 17.9272 484.327 18.6952 484.039 19.3672C483.991 19.5112 483.991 19.7032 483.991 19.8952C483.991 20.0872 483.991 20.3272 483.943 20.5192C483.895 20.6152 483.415 20.9032 483.271 20.6152C483.175 20.1832 483.079 19.3192 483.127 18.6472C481.303 19.4152 479.767 20.9992 478.903 22.7752C477.991 24.6472 477.943 26.8072 478.519 28.7272C478.999 30.2152 479.911 31.4632 481.447 32.0872C483.367 32.8072 485.431 32.5672 487.159 31.7032C489.127 30.6952 490.519 29.1592 491.191 27.0952C491.815 25.2712 491.719 23.1112 491.095 21.2872Z" fill="white"/>
<path d="M518.171 32.9512C516.731 33.9112 514.955 34.6792 513.179 34.6792C512.171 34.6792 511.451 34.2472 510.779 33.2872C510.539 33.4792 510.107 33.6232 509.915 33.3352C509.051 32.1352 508.811 30.4552 508.763 28.8232C508.667 24.6472 508.715 21.5752 509.819 17.8312C509.915 17.4472 510.827 16.7272 511.499 16.9192C511.787 16.1512 512.555 15.3352 513.467 15.2392C515.915 15.2392 518.555 16.5352 519.371 18.9832C519.611 19.7512 519.611 20.5672 519.323 21.3352C519.035 22.0552 518.555 22.6792 517.931 23.1592L517.643 23.3992C518.843 23.7832 520.187 24.5512 520.955 25.7512C521.531 26.6632 521.579 27.7672 521.339 28.8232C520.907 30.5512 519.659 31.9432 518.171 32.9512ZM519.515 26.5672C519.131 25.8472 518.075 25.4152 517.307 25.0312C516.395 24.4552 515.579 24.6952 514.667 24.8872L513.227 25.2232C512.699 25.3672 512.171 25.3672 511.595 25.2232C511.355 25.0792 511.067 24.5992 511.307 24.3592C511.883 23.7832 512.603 23.4952 513.419 23.3032L515.627 23.0632C516.491 22.5832 517.403 21.6232 517.787 20.7112C518.027 19.9432 517.883 19.4152 517.403 18.7912C516.539 17.5912 515.147 17.0632 513.755 16.9192C513.323 16.8712 513.179 16.9672 513.083 17.2552C512.939 17.6392 512.843 18.0712 512.603 18.4072C512.507 18.6472 512.171 18.7432 511.931 18.5992C511.739 18.5512 511.595 18.4552 511.499 18.3592C510.923 20.4232 510.587 22.7752 510.491 25.2232C510.395 27.5272 510.491 29.7832 510.827 31.8952C511.211 31.4632 511.691 30.8392 511.931 30.5032C512.267 30.1672 512.891 30.6952 512.795 31.0312C512.699 31.2712 512.507 31.5592 512.363 31.7992C512.267 32.0872 512.123 32.3272 512.123 32.5192C512.411 32.9512 513.083 33.0952 513.899 32.9992C515.099 32.8072 516.539 32.1352 517.595 31.3192C518.555 30.5512 519.371 29.5912 519.611 28.3912C519.755 27.8152 519.851 27.1432 519.515 26.5672Z" fill="white"/>
<path d="M531.831 31.7992C530.583 32.9032 529.047 33.6232 527.559 33.9592C526.359 34.2472 524.679 34.3912 523.671 33.3832C523.383 33.1432 522.951 32.3752 523.383 31.9432C523.719 32.1832 523.959 32.3752 524.247 32.5192C524.439 32.6632 524.631 32.7592 524.871 32.7592C524.823 29.4472 525.015 23.0632 525.111 19.8472C525.159 19.0792 525.063 18.2632 525.111 17.4952C525.207 16.7272 525.351 15.9592 525.975 15.3832C526.407 15.2392 526.791 15.1432 527.031 15.6232C526.791 16.4872 526.791 18.0232 526.743 19.7032C526.743 21.2392 526.743 22.8712 526.695 24.0232C527.367 23.5432 528.327 23.1592 529.239 23.0632C530.343 22.9672 531.495 23.1592 532.407 23.6872C533.847 24.4552 534.711 26.1352 534.327 27.8632C534.039 29.3512 533.031 30.7432 531.831 31.7992ZM532.455 25.8952C531.879 24.9832 530.871 24.6472 529.767 24.6472C528.663 24.6952 527.463 25.1272 526.743 25.7992L526.359 32.6632C527.847 32.3272 529.383 31.6552 530.631 30.5992C531.495 29.8792 532.311 29.0152 532.647 27.9112C532.887 27.2392 532.839 26.4232 532.455 25.8952ZM542.439 34.4872C541.239 34.1512 541.239 32.9512 541.095 31.9912C540.375 26.5192 540.807 21.2392 541.527 15.8152C541.959 15.1432 542.727 15.7192 542.919 16.1032C542.967 17.2072 542.919 18.2632 542.775 19.3672C542.679 20.4232 542.535 21.5272 542.535 22.6312C542.487 24.5032 542.391 26.4232 542.439 28.3432C542.439 30.2152 542.631 32.1352 542.919 33.9112C542.967 34.1512 542.679 34.4872 542.439 34.4872Z" fill="white"/>
<path d="M573.821 32.6632C573.821 33.0472 573.389 33.1432 573.149 33.0952C572.621 32.9032 572.525 32.0392 572.429 31.5592C572.285 30.6952 572.285 29.8312 572.285 28.9192V25.9912C572.285 23.7352 572.573 21.2872 572.621 18.9832C572.333 18.5512 571.853 18.3112 571.373 18.2152C570.845 18.0712 570.221 18.0232 569.693 17.8792C567.773 17.5912 565.853 17.3032 563.837 17.3992C563.597 19.5112 563.021 21.4792 562.733 23.5912C562.301 26.7112 561.917 29.6392 562.109 32.9512C562.109 33.3352 562.205 33.9112 561.821 34.1992C561.629 34.3912 561.101 34.3912 560.861 34.1512C560.621 33.8632 560.525 33.5272 560.477 33.1912C560.429 32.8552 560.477 32.4712 560.429 32.0872C560.381 27.0472 561.197 22.3432 562.205 17.4472C561.965 17.4952 561.725 17.5432 561.485 17.4952C561.053 17.2552 561.149 16.8232 561.341 16.6312C561.533 16.2472 561.869 16.1032 562.205 16.0072C562.541 15.9112 562.925 15.8152 563.261 15.8152C566.525 15.5752 569.981 16.0552 572.957 17.0152C573.533 17.3512 574.349 17.7352 574.397 18.5032C573.965 23.1112 573.869 27.8632 573.821 32.6632Z" fill="white"/>
<path d="M579.646 17.6872H579.406C579.262 17.6872 579.07 17.5912 579.022 17.3512C578.974 16.9672 579.118 16.6312 579.406 16.3432C580.174 15.6712 581.038 15.3832 581.998 15.4312C582.67 15.4792 583.342 15.5752 584.014 15.8152L585.838 16.4392C588.43 17.3032 590.686 19.6072 591.934 22.1032C592.606 23.4952 592.846 24.9352 592.51 26.5192C592.174 27.9592 591.31 29.3032 590.158 30.4072C587.278 33.1432 583.678 33.9592 579.694 33.9592C579.646 37.2232 579.454 40.8712 579.886 44.0872C579.886 44.2312 579.982 44.4232 580.078 44.5672C580.126 44.8072 580.222 44.9992 580.03 45.2872C579.646 45.5752 579.262 45.4792 578.926 45.2872C578.446 44.7592 578.254 44.1832 578.206 43.5112C577.87 40.1032 578.014 36.7912 578.206 33.3352C577.774 32.9512 577.102 32.4232 576.958 31.8472C576.958 31.6552 577.006 31.4632 577.102 31.3672C577.246 31.1272 577.438 31.0792 577.534 31.1752C577.678 31.3192 577.966 31.5112 578.206 31.6552C578.494 26.8552 578.83 22.2952 579.646 17.6872ZM589.15 20.8072C588.094 19.5112 586.606 18.5992 585.166 17.9752C584.35 17.5912 582.046 16.7272 581.182 17.1112C581.23 17.7832 581.134 18.9832 581.038 19.5112C580.366 23.5912 579.934 27.9592 579.886 32.2792C583.198 32.5192 586.366 31.5112 588.91 29.3032C590.302 28.1032 591.118 26.4232 590.974 24.6952C590.878 23.2552 589.966 21.8152 589.15 20.8072Z" fill="white"/>
<path d="M601.79 34.2472C599.39 34.1512 597.182 33.0472 595.79 30.9832C594.638 29.2552 594.35 27.2392 594.59 25.2712C594.878 23.0632 595.79 20.9512 597.038 19.3192C598.43 17.4952 600.398 16.0552 602.654 15.6232C604.19 15.3352 605.822 15.4792 606.974 16.7272C607.502 17.3032 607.982 17.9272 607.982 18.6952C608.03 19.5112 607.646 20.2312 606.974 20.7592C603.614 23.5432 600.062 26.1352 596.414 28.2472C596.51 29.7352 597.806 31.2712 599.198 32.0392C600.59 32.8072 602.222 32.9032 603.758 32.7112C605.294 32.5672 606.878 32.0392 607.982 31.5112C608.174 31.3672 608.318 31.5112 608.366 31.6552C608.414 31.7512 608.51 31.9432 608.318 32.0872C606.638 33.6232 604.238 34.3432 601.79 34.2472ZM603.902 17.1112C602.51 17.1112 601.118 17.6872 600.014 18.5512C597.662 20.4712 596.27 23.5432 596.27 26.5192C599.678 24.6472 602.894 22.1992 606.014 19.6552C606.254 19.4632 606.446 18.7432 606.11 18.1672C605.727 17.3992 604.862 17.1112 603.902 17.1112Z" fill="white"/>
<path d="M627.282 41.4472C627.138 41.8312 626.658 41.8312 626.418 41.6872C625.89 41.2072 625.89 40.5352 625.842 39.8632C625.698 37.8472 625.506 35.6392 625.746 33.5752C621.234 33.1432 616.434 33.3832 612.114 34.1992C611.922 36.6472 612.018 39.2392 612.402 41.5912C612.354 41.8312 612.018 42.2152 611.634 41.9752C611.202 41.7832 611.01 41.3992 610.914 41.0632L610.674 40.0072C610.578 38.9512 610.482 37.8952 610.434 36.8872C610.386 35.8312 610.386 34.7752 610.482 33.8632C610.53 33.4792 610.866 33.0952 611.202 32.8552L612.546 32.5672C615.33 27.9112 617.634 23.1112 619.65 18.1192C619.698 17.8792 619.794 17.2072 619.602 16.9672C619.458 16.3432 619.842 16.0072 620.226 15.7192C621.762 15.4792 623.49 15.5272 624.834 16.2952C625.362 16.5352 625.602 17.0632 625.698 17.5912C625.698 20.0872 625.746 25.2712 625.794 27.8152C625.986 29.2072 625.794 30.6472 625.698 32.0392C625.794 32.0872 625.938 32.0872 626.13 32.0872C626.418 32.1352 626.61 32.0872 626.754 32.0872C627.186 32.1352 627.57 32.4232 627.57 32.8072C627.186 35.6872 627.138 38.6152 627.282 41.4472ZM624.306 30.6472C624.258 30.1672 624.21 29.7352 624.21 29.2072C624.21 26.3752 624.162 20.8072 624.114 17.9752C623.922 17.5912 623.586 17.3992 623.202 17.3032C622.53 17.1112 621.714 17.1592 620.994 17.2072C621.186 17.8792 621.042 18.5992 620.898 19.2232C618.978 23.6872 616.962 28.1512 614.37 32.3272C617.538 31.9432 620.85 31.7992 624.258 31.9432C624.306 31.5112 624.306 31.0792 624.306 30.6472Z" fill="white"/>
<path d="M643.711 32.6632C643.711 33.0472 643.279 33.1432 643.039 33.0952C642.511 32.9032 642.415 32.0392 642.319 31.5592C642.175 30.6952 642.175 29.8312 642.175 28.9192V25.9912C642.175 23.7352 642.463 21.2872 642.511 18.9832C642.223 18.5512 641.743 18.3112 641.263 18.2152C640.735 18.0712 640.111 18.0232 639.583 17.8792C637.663 17.5912 635.743 17.3032 633.727 17.3992C633.487 19.5112 632.911 21.4792 632.623 23.5912C632.191 26.7112 631.807 29.6392 631.999 32.9512C631.999 33.3352 632.095 33.9112 631.711 34.1992C631.519 34.3912 630.991 34.3912 630.751 34.1512C630.511 33.8632 630.415 33.5272 630.367 33.1912C630.319 32.8552 630.367 32.4712 630.319 32.0872C630.271 27.0472 631.087 22.3432 632.095 17.4472C631.855 17.4952 631.615 17.5432 631.375 17.4952C630.943 17.2552 631.039 16.8232 631.231 16.6312C631.423 16.2472 631.759 16.1032 632.095 16.0072C632.431 15.9112 632.815 15.8152 633.151 15.8152C636.415 15.5752 639.871 16.0552 642.847 17.0152C643.423 17.3512 644.239 17.7352 644.287 18.5032C643.855 23.1112 643.759 27.8632 643.711 32.6632Z" fill="white"/>
<path d="M658.08 33.0952C655.92 34.1992 653.328 34.6792 650.976 33.5272C649.152 32.6152 647.856 31.0792 647.232 29.1592C646.512 26.9032 646.752 24.3592 647.712 22.2472C648.432 20.7112 649.536 19.3672 650.832 18.3592C651.696 17.7352 652.992 16.9672 654.192 16.8232C655.152 15.7192 656.736 15.3832 658.08 15.7192C660.384 16.3432 662.352 18.6952 662.976 20.7592C663.6 22.7752 663.744 24.9832 663.168 27.0472C662.448 29.8312 660.624 31.8472 658.08 33.0952ZM661.392 21.2872C660.816 19.7032 659.52 17.9272 657.84 17.3512C657.072 17.0632 656.256 16.9672 655.632 17.4472C655.008 17.9272 654.624 18.6952 654.336 19.3672C654.288 19.5112 654.288 19.7032 654.288 19.8952C654.288 20.0872 654.288 20.3272 654.24 20.5192C654.192 20.6152 653.712 20.9032 653.568 20.6152C653.472 20.1832 653.376 19.3192 653.424 18.6472C651.6 19.4152 650.064 20.9992 649.2 22.7752C648.288 24.6472 648.24 26.8072 648.816 28.7272C649.296 30.2152 650.208 31.4632 651.744 32.0872C653.664 32.8072 655.728 32.5672 657.456 31.7032C659.424 30.6952 660.816 29.1592 661.488 27.0952C662.112 25.2712 662.016 23.1112 661.392 21.2872Z" fill="white"/>
<path d="M677.749 27.3832C677.701 29.5432 677.749 31.8472 677.797 34.0072C677.845 34.2952 677.413 34.6792 677.029 34.4392C676.789 34.2472 676.453 33.5272 676.453 33.2392C676.165 31.6552 676.117 30.0232 676.117 28.3912C676.165 26.3272 676.309 24.2152 676.453 22.1992C675.541 23.9272 674.005 25.5112 672.277 26.4712C671.077 27.1432 669.781 27.4792 668.389 27.2872C667.237 27.0952 666.277 25.9432 666.085 24.8392C666.037 21.7672 666.469 18.6952 666.949 15.7672C667.525 15.2872 668.197 15.8152 668.197 16.2952C668.341 17.7352 668.149 19.1272 667.957 20.5192C667.813 21.8632 667.621 23.2552 667.717 24.5992C667.957 25.2232 668.581 25.7512 669.157 25.7512C671.125 25.5592 672.805 24.4552 674.053 22.9672C675.589 21.2392 676.549 19.0792 677.221 17.1592C677.365 16.6792 677.461 16.0552 677.989 15.8152C678.277 15.7192 678.661 15.8152 678.805 16.1992C678.373 19.8952 677.797 23.6392 677.749 27.3832Z" fill="white"/>
<path d="M696.569 34.1992C695.561 33.0472 695.273 31.5112 695.033 30.0232C694.553 26.5672 694.649 22.8712 694.553 19.2712C691.625 23.4472 689.321 27.6712 686.537 32.4232C686.249 32.7592 686.105 32.9992 685.625 33.1912C685.193 33.1912 684.809 33.1432 684.473 32.6632C682.169 28.3912 681.737 23.1592 682.073 17.9752C682.073 17.6392 682.169 17.0632 682.553 16.9192C683.177 16.7272 683.657 17.2552 683.657 17.6392C683.369 22.4392 683.897 26.9992 685.481 31.1272C687.161 28.2472 688.505 25.8472 689.945 23.4952C691.433 21.0472 693.017 18.6952 695.033 16.0072C695.417 15.7192 695.945 15.9112 696.137 16.2952C696.281 20.9032 696.233 25.4152 696.617 29.8312C696.713 31.2712 697.049 32.6632 697.145 34.0072C697.145 34.1992 696.713 34.3912 696.569 34.1992Z" fill="white"/>
<path d="M714.227 17.6872C712.979 17.3992 711.731 17.1112 710.435 17.0632C709.379 18.4072 708.851 19.9912 708.563 21.6712C708.227 23.3992 708.275 25.2232 708.179 26.9992C708.083 29.3992 708.275 31.7032 708.563 33.9592C708.419 34.2472 707.987 34.4392 707.651 34.2472C706.835 33.2392 706.643 31.9432 706.595 30.6472C706.547 27.7672 706.499 24.7432 706.931 21.9112C707.219 20.0872 707.747 18.4072 708.851 16.8712C705.875 16.7272 703.139 17.3512 700.403 18.1192C700.019 18.0712 699.587 17.8312 699.347 17.4472C699.251 17.1112 699.443 16.9192 699.635 16.8232L699.923 16.7272L700.163 16.6312C702.179 15.8152 704.627 15.3832 706.979 15.3352C709.379 15.2392 711.779 15.4792 713.891 16.2472C714.131 16.3432 714.563 16.6792 714.707 16.9672C714.755 17.3032 714.515 17.7352 714.227 17.6872Z" fill="white"/>
<path d="M725.728 34.0552C723.088 34.7752 720.016 34.7272 717.952 32.9512C716.992 32.1352 716.272 30.9352 716.224 29.6392C716.176 28.4872 716.656 27.4312 717.328 26.4712C718.816 24.3592 721.408 22.9192 723.904 22.6312C724.96 22.5352 725.92 22.6792 726.688 23.4472C726.928 23.6872 726.688 24.1672 726.448 24.2632H726.016C725.872 24.2632 725.68 24.2152 725.536 24.2152C725.2 24.1672 724.912 24.1192 724.72 24.2632C722.416 24.3592 720.16 25.4632 718.768 27.3352C718.144 28.1512 717.808 28.7752 717.904 29.7832C718 31.1272 719.008 32.1352 720.4 32.6152C722.368 33.3352 724.816 32.9032 726.688 32.2312C727.696 31.8472 728.608 31.4632 729.472 30.8392C729.664 30.6952 729.856 30.8392 729.952 31.0792C730 31.2712 730 31.4632 730 31.6072C729.328 32.9032 726.64 33.8152 725.728 34.0552ZM728.416 30.7912C728.176 31.0792 727.744 31.0312 727.552 30.8872C727.072 30.5512 727.072 29.9272 727.072 29.4472C727.12 28.6312 727.264 27.8152 727.456 26.9512L728.08 24.3112C728.464 22.5832 728.704 20.8552 728.176 19.4152C727.744 18.1672 726.688 16.9192 725.392 16.7752C724.288 16.6312 723.184 17.0152 722.272 17.6872C721.792 18.0232 720.736 18.9352 720.448 19.4632C720.4 19.6552 720.496 19.9912 720.688 20.1832C720.88 20.3752 720.736 20.9512 720.304 20.8552C719.968 20.7592 719.584 20.6632 719.296 20.4232C718.912 20.0872 718.768 19.4632 719.056 18.9832C719.872 17.5912 721.024 16.4392 722.512 15.7672C723.472 15.2872 724.624 15.0952 725.824 15.2872C727.264 15.5272 728.512 16.5832 729.232 17.9272C730.336 19.9912 730.192 22.5832 729.664 24.8872C729.184 26.8552 728.704 28.6792 728.416 30.7912Z" fill="white"/>
<path d="M739.697 34.2472C737.297 34.1512 735.089 33.0472 733.697 30.9832C732.545 29.2552 732.257 27.2392 732.497 25.2712C732.785 23.0632 733.697 20.9512 734.945 19.3192C736.337 17.4952 738.305 16.0552 740.561 15.6232C742.097 15.3352 743.729 15.4792 744.881 16.7272C745.409 17.3032 745.889 17.9272 745.889 18.6952C745.937 19.5112 745.553 20.2312 744.881 20.7592C741.521 23.5432 737.969 26.1352 734.321 28.2472C734.417 29.7352 735.713 31.2712 737.105 32.0392C738.497 32.8072 740.129 32.9032 741.665 32.7112C743.201 32.5672 744.785 32.0392 745.889 31.5112C746.081 31.3672 746.225 31.5112 746.273 31.6552C746.321 31.7512 746.417 31.9432 746.225 32.0872C744.545 33.6232 742.145 34.3432 739.697 34.2472ZM741.809 17.1112C740.417 17.1112 739.025 17.6872 737.921 18.5512C735.569 20.4712 734.177 23.5432 734.177 26.5192C737.585 24.6472 740.801 22.1992 743.921 19.6552C744.161 19.4632 744.353 18.7432 744.017 18.1672C743.633 17.3992 742.769 17.1112 741.809 17.1112Z" fill="white"/>
<path d="M762.836 17.6872C761.588 17.3992 760.34 17.1112 759.044 17.0632C757.988 18.4072 757.46 19.9912 757.172 21.6712C756.836 23.3992 756.884 25.2232 756.788 26.9992C756.692 29.3992 756.884 31.7032 757.172 33.9592C757.028 34.2472 756.596 34.4392 756.26 34.2472C755.444 33.2392 755.252 31.9432 755.204 30.6472C755.156 27.7672 755.108 24.7432 755.54 21.9112C755.828 20.0872 756.356 18.4072 757.46 16.8712C754.484 16.7272 751.748 17.3512 749.012 18.1192C748.628 18.0712 748.196 17.8312 747.956 17.4472C747.86 17.1112 748.052 16.9192 748.244 16.8232L748.532 16.7272L748.772 16.6312C750.788 15.8152 753.236 15.3832 755.588 15.3352C757.988 15.2392 760.388 15.4792 762.5 16.2472C762.74 16.3432 763.172 16.6792 763.316 16.9672C763.364 17.3032 763.124 17.7352 762.836 17.6872Z" fill="white"/>
<path d="M772.322 34.2472C769.922 34.1512 767.714 33.0472 766.322 30.9832C765.17 29.2552 764.882 27.2392 765.122 25.2712C765.41 23.0632 766.322 20.9512 767.57 19.3192C768.962 17.4952 770.93 16.0552 773.186 15.6232C774.722 15.3352 776.354 15.4792 777.506 16.7272C778.034 17.3032 778.514 17.9272 778.514 18.6952C778.562 19.5112 778.178 20.2312 777.506 20.7592C774.146 23.5432 770.594 26.1352 766.946 28.2472C767.042 29.7352 768.338 31.2712 769.73 32.0392C771.122 32.8072 772.754 32.9032 774.29 32.7112C775.826 32.5672 777.41 32.0392 778.514 31.5112C778.706 31.3672 778.85 31.5112 778.898 31.6552C778.946 31.7512 779.042 31.9432 778.85 32.0872C777.17 33.6232 774.77 34.3432 772.322 34.2472ZM774.434 17.1112C773.042 17.1112 771.65 17.6872 770.546 18.5512C768.194 20.4712 766.802 23.5432 766.802 26.5192C770.21 24.6472 773.426 22.1992 776.546 19.6552C776.786 19.4632 776.978 18.7432 776.642 18.1672C776.258 17.3992 775.394 17.1112 774.434 17.1112Z" fill="white"/>
<path d="M795.557 13.8472C793.301 17.5432 790.709 21.1912 788.645 25.0792C788.405 25.2712 787.973 25.1752 787.877 24.9352C787.781 24.4072 787.829 23.9272 787.973 23.5432C788.069 23.1112 788.213 22.7752 788.357 22.3432C789.989 19.3672 792.005 16.5352 793.781 13.6552C794.309 12.7432 794.597 11.5432 794.501 10.3432C794.453 9.47918 794.117 8.61518 793.541 7.89518C792.389 6.45518 790.949 5.35118 789.365 4.82318C788.309 4.43918 787.205 4.34318 786.005 4.58318C785.237 4.72718 784.565 5.06318 783.893 5.68718C783.269 6.26318 782.741 6.98318 782.501 7.79918C782.213 8.03918 781.685 8.03918 781.541 7.60718C781.397 6.98318 781.637 6.45518 781.829 5.87918C782.645 4.48718 783.797 3.52718 785.141 3.04718C786.293 2.66318 787.445 2.56718 788.645 2.75918C790.037 2.99918 791.285 3.57518 792.437 4.39118C793.589 5.20718 794.597 6.26318 795.365 7.55918C795.989 8.51918 796.277 9.81518 796.229 11.0632C796.229 12.0232 796.037 13.0792 795.557 13.8472ZM792.485 34.5832C791.285 34.5832 790.085 34.2952 789.029 33.7672C787.925 33.1912 786.965 32.4712 786.245 31.4152C786.053 31.1272 786.005 30.6472 786.101 30.2632C786.197 29.8792 786.485 29.6392 786.965 29.8312L788.117 31.0792C788.501 31.4632 788.933 31.8472 789.317 32.1352C790.421 32.9512 791.813 33.3832 793.205 33.8152C793.349 34.1512 792.821 34.4872 792.485 34.5832Z" fill="white"/>
<path d="M813.168 12.1672C812.928 12.4552 812.688 12.6952 812.304 12.9352C811.824 12.9832 811.44 12.9352 811.104 12.7432C810.048 12.2632 808.848 11.4952 807.984 10.8712C807.936 12.4072 807.792 13.9912 807.984 15.4792C807.888 16.2472 807.024 15.9112 806.928 15.7192C806.832 15.6232 806.736 15.5272 806.688 15.3832C806.592 15.2872 806.496 15.1432 806.448 14.9992C806.352 14.5672 806.352 14.1352 806.352 13.7512C806.4 12.9352 806.448 12.0712 806.448 11.2552C805.344 12.3112 804 13.2232 802.56 13.7512C802.224 13.7992 801.696 13.7992 801.312 13.4632C800.736 12.9832 801.264 12.1672 801.936 11.7352L802.272 12.3592C802.608 12.2632 802.944 12.0232 803.28 11.8792C804.288 11.2552 805.296 10.3432 806.112 9.43118C804.576 8.18318 803.04 6.64718 801.744 5.25518C801.408 4.96718 801.552 4.53518 801.696 4.29518C802.128 3.71918 802.8 4.10318 802.944 4.24718C804.048 5.44718 805.2 6.59918 806.4 7.70318C806.4 6.40718 806.448 5.11118 806.352 3.91118L805.968 2.80718C805.92 2.51918 806.112 1.84718 806.736 1.89518C807.168 2.03918 807.408 2.37518 807.6 2.75918L807.744 3.09518C807.888 3.43118 807.984 4.05518 807.984 4.39118V7.03118L808.128 6.79118L809.136 5.44718C809.472 4.96718 809.952 4.58318 810.528 4.24718C811.296 3.81518 812.736 4.24718 812.304 5.68718C811.968 5.63918 811.872 5.59118 811.728 5.54318C811.632 5.54318 811.536 5.49518 811.344 5.44718C811.056 5.35118 810.096 6.64718 809.952 6.83918C809.376 7.60718 808.896 8.42318 808.272 9.23918C809.424 10.1032 810.672 10.8712 812.064 11.5432C812.16 11.3992 812.256 11.3512 812.352 11.3032C812.448 11.2072 812.544 11.1592 812.88 11.0152C813.264 11.3992 813.312 11.6872 813.264 11.8792C813.216 11.9752 813.168 12.0232 813.168 12.1672Z" fill="white"/>
<path d="M831.824 12.1672C831.584 12.4552 831.344 12.6952 830.96 12.9352C830.48 12.9832 830.096 12.9352 829.76 12.7432C828.704 12.2632 827.504 11.4952 826.64 10.8712C826.592 12.4072 826.448 13.9912 826.64 15.4792C826.544 16.2472 825.68 15.9112 825.584 15.7192C825.488 15.6232 825.392 15.5272 825.344 15.3832C825.248 15.2872 825.152 15.1432 825.104 14.9992C825.008 14.5672 825.008 14.1352 825.008 13.7512C825.056 12.9352 825.104 12.0712 825.104 11.2552C824 12.3112 822.656 13.2232 821.216 13.7512C820.88 13.7992 820.352 13.7992 819.968 13.4632C819.392 12.9832 819.92 12.1672 820.592 11.7352L820.928 12.3592C821.264 12.2632 821.6 12.0232 821.936 11.8792C822.944 11.2552 823.952 10.3432 824.768 9.43118C823.232 8.18318 821.696 6.64718 820.4 5.25518C820.064 4.96718 820.208 4.53518 820.352 4.29518C820.784 3.71918 821.456 4.10318 821.6 4.24718C822.704 5.44718 823.856 6.59918 825.056 7.70318C825.056 6.40718 825.104 5.11118 825.008 3.91118L824.624 2.80718C824.576 2.51918 824.768 1.84718 825.392 1.89518C825.824 2.03918 826.064 2.37518 826.256 2.75918L826.4 3.09518C826.544 3.43118 826.64 4.05518 826.64 4.39118V7.03118L826.784 6.79118L827.792 5.44718C828.128 4.96718 828.608 4.58318 829.184 4.24718C829.952 3.81518 831.392 4.24718 830.96 5.68718C830.624 5.63918 830.528 5.59118 830.384 5.54318C830.288 5.54318 830.192 5.49518 830 5.44718C829.712 5.35118 828.752 6.64718 828.608 6.83918C828.032 7.60718 827.552 8.42318 826.928 9.23918C828.08 10.1032 829.328 10.8712 830.72 11.5432C830.816 11.3992 830.912 11.3512 831.008 11.3032C831.104 11.2072 831.2 11.1592 831.536 11.0152C831.92 11.3992 831.968 11.6872 831.92 11.8792C831.872 11.9752 831.824 12.0232 831.824 12.1672Z" fill="white"/>
</svg>
