<svg width="832" height="46" fill="none" xmlns="http://www.w3.org/2000/svg"><path d="M18.441 2.616c-.317-.882-1.565-.882-1.882 0l-3.63 10.09a1 1 0 0 1-.585.596l-9.888 3.763c-.86.327-.86 1.543 0 1.87l9.888 3.763a1 1 0 0 1 .585.596l3.63 10.09c.317.882 1.565.882 1.882 0l3.63-10.09a1 1 0 0 1 .585-.596l9.889-3.763c.858-.327.858-1.543 0-1.87l-9.889-3.763a1 1 0 0 1-.585-.596l-3.63-10.09z" fill="gold"/><path d="M69.494 9.335c-.624 2.496-.912 5.184-1.2 7.824-.24 1.824-.336 3.648-.384 5.52-.096 2.736-.096 5.472-.192 8.256-.144.48-.528.768-.96.768-.624 0-.912-.624-1.056-1.152l-.192-.384c-1.2-4.992-2.64-9.84-4.416-14.592-.816-2.256-1.584-4.464-2.448-6.672-.864-2.16-1.824-4.32-2.976-6.48-.048 0-.096-.096-.096-.048-1.296 4.224-2.208 8.496-2.64 13.008-.384 4.08-.432 8.256-.288 12.48.096.576.096 1.2.192 1.824.048.576.144 1.152.336 1.68.048.336-.192.576-.48.672-.864-.192-1.056-.912-1.2-1.68l-.144-.672c-.384-3.504-.432-7.104-.24-10.704.24-4.272.864-8.544 1.728-12.48.48-2.064 1.104-4.224 1.92-6.144.144-.336.72-.48 1.056-.24.288.24.432.528.624.864 1.2 1.92 2.16 3.936 2.976 5.952l2.448 6.144c1.824 4.608 3.312 9.36 4.56 14.208.048-4.08.096-8.352.528-12.384.336-3.504 1.056-6.96 2.496-9.984.096-.192.192-.432.336-.624.336-.672.816-1.392 1.728-1.344.528.288.336.816.096 1.152-1.056 1.584-1.632 3.36-2.112 5.232zm12 15.648c-1.104 1.008-2.448 1.68-4.128 1.536-1.44-.144-2.736-.96-3.456-2.064-1.296-1.92-1.584-4.32-1.2-6.528.288-1.584 1.056-3.6 2.064-4.848.336-.24.624-.576 1.104-.528a.522.522 0 0 1 .288.768c-.912 1.536-1.776 3.456-2.016 5.424-.192 1.872.048 3.744 1.2 5.232.72.912 1.968 1.248 3.168 1.008 2.4-.768 3.6-3.024 4.032-5.04.384-1.632.336-3.408-.048-5.04a7.055 7.055 0 0 0-1.92-3.504c-.432-.432-1.296-.624-1.92-.48-.72.144-1.296.672-1.68 1.248-.24.192-.576-.096-.576-.288.048-.72.768-1.728 1.536-2.064.96-.48 2.448-.48 3.36.24 1.536 1.2 2.112 2.4 2.592 4.08.528 1.968.576 4.08.144 6.144-.384 1.776-1.248 3.456-2.544 4.704zm-5.76 5.664c-.288.096-1.104.144-1.488.24-.384.192-.96.144-1.392.144-.24-.096-.384-.048-.576-.096-.144-.048-.288-.096-.432-.288a1.207 1.207 0 0 1-.096-.72c.048-.192.144-.384.288-.528.288-.288.528-.384.768-.432.336-.096.576-.048.816-.096.48 0 1.392.048 1.824.096.288.144.576.096.912.192.336-.144 3.12-.096 3.552 0 1.056-.096 2.304 0 3.168.24.288.096 1.008.096 1.248.384-.096.672-1.632 1.008-2.304.816-.384.096-1.248-.144-1.824 0-.48-.096-1.536.096-1.968.048-.768-.048-1.968-.096-2.496 0zM108.748 21.72l-.48 1.775c-1.008 2.16-2.4 4.416-4.176 6.384-1.872 2.064-4.176 3.744-6.72 4.416-.432.096-1.488-.048-1.44-.816a14.307 14.307 0 0 0 4.704-2.496c1.488-1.152 2.832-2.592 3.936-4.128a16.057 16.057 0 0 0 2.688-6.096c.096-.384.048-1.584-.432-2.016-.816-.72-2.016-1.104-3.216-1.2-1.392-.096-2.784.24-3.936.672-1.632.624-3.12 1.728-4.512 2.832-.624.096-.96-.768-.72-1.248 1.536-1.536 2.976-3.168 4.128-4.896.912-1.344 1.536-2.832 1.92-4.416.24-.96.192-1.92-.144-2.832-.336-1.008-.96-1.92-1.872-2.544-1.008-.672-2.352-1.104-3.648-1.152a5.934 5.934 0 0 0-2.736.528c-.144.096-.288.24-.432.288a.515.515 0 0 1-.528.048c-.336-.24-.288-.672-.048-.912.576-.816 1.392-1.2 2.304-1.392 1.344-.24 2.88.048 4.032.384 1.536.48 3.312 1.584 4.08 3.264.672 1.488.768 3.072.528 4.512-.432 2.304-1.68 4.464-3.216 6.288 1.392-.72 3.168-1.152 4.848-1.056 1.536.048 3.024.528 4.224 1.488.816.624 1.056 1.488 1.104 2.4a8.76 8.76 0 0 1-.24 1.92zM145.09 19.607c-4.512-.192-9.024.528-13.536.192-.864-.048-1.92-.288-2.544-1.008-.336-.384.048-1.248.624-1.152 2.064.24 4.128.336 6.192.288 2.688-.048 5.52-.24 7.968-.144.48 0 1.584.192 1.92.768.336.48-.096 1.104-.624 1.056zM179.516 34.151c-2.304-1.296-4.656-2.208-7.104-3.072-2.4-.864-4.704-1.728-7.008-2.736a17.822 17.822 0 0 0 .624 5.088c.144.288.048.816-.384.816-.384 0-.624-.24-.768-.48-.144-.192-.24-.48-.384-.72-.528-1.728-.72-3.6-.72-5.52-.144-.096-.336-.24-.432-.48-.144-.144-.192-.432-.048-.672.192-.144.384-.432.432-.624.096-.624.048-2.064.192-2.688.192-1.104.48-2.448.768-3.792.336-1.344.816-2.688 1.44-3.84.288-.48 1.008-.384 1.152.144-.048.624-.24 1.2-.432 1.776-.144.528-.432 1.104-.576 1.68a22.015 22.015 0 0 0-.816 5.328 85.94 85.94 0 0 1 5.232-4.32c2.208-1.632 4.56-3.024 7.056-4.032.384 0 .864 0 1.152.24.288.192.288.48.144.816-2.544 1.056-4.848 2.448-7.2 4.08a61.05 61.05 0 0 0-6.48 5.376v.048c2.352 1.296 4.944 2.16 7.44 3.024 2.208.768 4.32 1.632 6.336 2.928.432.24.768.576 1.008 1.008.048.288-.336.672-.624.624zM191.025 34.055c-2.64.72-5.712.672-7.776-1.104-.96-.816-1.68-2.016-1.728-3.312-.048-1.152.432-2.208 1.104-3.168 1.488-2.112 4.08-3.552 6.576-3.84 1.056-.096 2.016.048 2.784.816.24.24 0 .72-.24.816h-.432c-.144 0-.336-.048-.48-.048-.336-.048-.624-.096-.816.048-2.304.096-4.56 1.2-5.952 3.072-.624.816-.96 1.44-.864 2.448.096 1.344 1.104 2.352 2.496 2.832 1.968.72 4.416.288 6.288-.384 1.008-.384 1.92-.768 2.784-1.392.192-.144.384 0 .48.24.048.192.048.384.048.528-.672 1.296-3.36 2.208-4.272 2.448zm2.688-3.264c-.24.288-.672.24-.864.096-.48-.336-.48-.96-.48-1.44.048-.816.192-1.632.384-2.496l.624-2.64c.384-1.728.624-3.456.096-4.896-.432-1.248-1.488-2.496-2.784-2.64-1.104-.144-2.208.24-3.12.912-.48.336-1.536 1.248-1.824 1.776-.048.192.048.528.24.72.192.192.048.768-.384.672-.336-.096-.72-.192-1.008-.432-.384-.336-.528-.96-.24-1.44.816-1.392 1.968-2.544 3.456-3.216.96-.48 2.112-.672 3.312-.48 1.44.24 2.688 1.296 3.408 2.64 1.104 2.064.96 4.656.432 6.96-.48 1.968-.96 3.792-1.248 5.904zM213.97 34.151c-2.304-1.296-4.656-2.208-7.104-3.072-2.4-.864-4.704-1.728-7.008-2.736a17.822 17.822 0 0 0 .624 5.088c.144.288.048.816-.384.816-.384 0-.624-.24-.768-.48-.144-.192-.24-.48-.384-.72-.528-1.728-.72-3.6-.72-5.52-.144-.096-.336-.24-.432-.48-.144-.144-.192-.432-.048-.672.192-.144.384-.432.432-.624.096-.624.048-2.064.192-2.688.192-1.104.48-2.448.768-3.792.336-1.344.816-2.688 1.44-3.84.288-.48 1.008-.384 1.152.144-.048.624-.24 1.2-.432 1.776-.144.528-.432 1.104-.576 1.68a22.015 22.015 0 0 0-.816 5.328 85.94 85.94 0 0 1 5.232-4.32c2.208-1.632 4.56-3.024 7.056-4.032.384 0 .864 0 1.152.24.288.192.288.48.144.816-2.544 1.056-4.848 2.448-7.2 4.08a61.05 61.05 0 0 0-6.48 5.376v.048c2.352 1.296 4.944 2.16 7.44 3.024 2.208.768 4.32 1.632 6.336 2.928.432.24.768.576 1.008 1.008.048.288-.336.672-.624.624zM227.158 33.095c-2.16 1.104-4.752 1.584-7.104.432-1.824-.912-3.12-2.448-3.744-4.368-.72-2.256-.48-4.8.48-6.912a10.77 10.77 0 0 1 3.12-3.888c.864-.624 2.16-1.392 3.36-1.536.96-1.104 2.544-1.44 3.888-1.104 2.304.624 4.272 2.976 4.896 5.04.624 2.016.768 4.224.192 6.288-.72 2.784-2.544 4.8-5.088 6.048zm3.312-11.808c-.576-1.584-1.872-3.36-3.552-3.936-.768-.288-1.584-.384-2.208.096-.624.48-1.008 1.248-1.296 1.92-.048.144-.048.336-.048.528s0 .432-.048.624c-.048.096-.528.384-.672.096a8.025 8.025 0 0 1-.144-1.968c-1.824.768-3.36 2.352-4.224 4.128-.912 1.872-.96 4.032-.384 5.952.48 1.488 1.392 2.736 2.928 3.36 1.92.72 3.984.48 5.712-.384 1.968-1.008 3.36-2.544 4.032-4.608.624-1.824.528-3.984-.096-5.808zM241.931 34.247c-2.4-.096-4.608-1.2-6-3.264-1.152-1.728-1.44-3.744-1.2-5.712.288-2.208 1.2-4.32 2.448-5.952 1.392-1.824 3.36-3.264 5.616-3.696 1.536-.288 3.168-.144 4.32 1.104.528.576 1.008 1.2 1.008 1.968.048.816-.336 1.536-1.008 2.064-3.36 2.784-6.912 5.376-10.56 7.488.096 1.488 1.392 3.024 2.784 3.792 1.392.768 3.024.864 4.56.672 1.536-.144 3.12-.672 4.224-1.2.192-.144.336 0 .384.144.048.096.144.288-.048.432-1.68 1.536-4.08 2.256-6.528 2.16zm2.112-17.136c-1.392 0-2.784.576-3.888 1.44-2.352 1.92-3.744 4.992-3.744 7.968 3.408-1.872 6.624-4.32 9.744-6.864.24-.192.432-.912.096-1.488-.384-.768-1.248-1.056-2.208-1.056zM278.766 19.655c-1.776-.912-3.696-1.488-5.664-1.824-2.064-.336-4.416-.48-6.096-.432-.144.048-.384.096-.384.24.048 4.656-.384 9.696-.672 14.448-.096.336-.096.672-.192 1.008-.048.336-.144.672-.384.912-.24.24-1.104.576-1.248 0 .192-2.832.624-9.408.72-11.904l.192-5.568c.576-.672 1.344-.816 2.16-.768.384 0 .816 0 1.2.048s.768.048 1.152 0c2.928.192 5.76.768 8.256 2.064.624.288 1.2.72 1.584 1.392.096.384-.432.528-.624.384zM296.735 33.623c-.624.048-1.056-.624-1.344-1.104a29.232 29.232 0 0 1-2.544-5.904c-.816-2.544-1.248-5.136-1.44-7.92-1.44 2.208-3.84 6.24-5.328 8.4-1.536 2.304-3.072 4.752-4.32 7.056-.144.336-.672.096-.864-.192-.24-.432-.144-1.008-.048-1.44.288-.432.816-1.536 1.104-2.16 3.12-4.752 6.384-9.6 9.264-14.352.336-.336 1.488-.528 1.584.384.24 2.928.672 5.856 1.344 8.64.672 2.784 1.68 5.376 2.976 7.872.048.144 0 .672-.384.72zM308.213 34.055c-2.64.72-5.712.672-7.776-1.104-.96-.816-1.68-2.016-1.728-3.312-.048-1.152.432-2.208 1.104-3.168 1.488-2.112 4.08-3.552 6.576-3.84 1.056-.096 2.016.048 2.784.816.24.24 0 .72-.24.816h-.432c-.144 0-.336-.048-.48-.048-.336-.048-.624-.096-.816.048-2.304.096-4.56 1.2-5.952 3.072-.624.816-.96 1.44-.864 2.448.096 1.344 1.104 2.352 2.496 2.832 1.968.72 4.416.288 6.288-.384 1.008-.384 1.92-.768 2.784-1.392.192-.144.384 0 .48.24.048.192.048.384.048.528-.672 1.296-3.36 2.208-4.272 2.448zm2.688-3.264c-.24.288-.672.24-.864.096-.48-.336-.48-.96-.48-1.44.048-.816.192-1.632.384-2.496l.624-2.64c.384-1.728.624-3.456.096-4.896-.432-1.248-1.488-2.496-2.784-2.64-1.104-.144-2.208.24-3.12.912-.48.336-1.536 1.248-1.824 1.776-.048.192.048.528.24.72.192.192.048.768-.384.672-.336-.096-.72-.192-1.008-.432-.384-.336-.528-.96-.24-1.44.816-1.392 1.968-2.544 3.456-3.216.96-.48 2.112-.672 3.312-.48 1.44.24 2.688 1.296 3.408 2.64 1.104 2.064.96 4.656.432 6.96-.48 1.968-.96 3.792-1.248 5.904zM324.437 32.951c-1.44.96-3.216 1.728-4.992 1.728-1.008 0-1.728-.432-2.4-1.392-.24.192-.672.336-.864.048-.864-1.2-1.104-2.88-1.152-4.512-.096-4.176-.048-7.248 1.056-10.992.096-.384 1.008-1.104 1.68-.912.288-.768 1.056-1.584 1.968-1.68 2.448 0 5.088 1.296 5.904 3.744.24.768.24 1.584-.048 2.352a4.33 4.33 0 0 1-1.392 1.824l-.288.24c1.2.384 2.544 1.152 3.312 2.352.576.912.624 2.016.384 3.072-.432 1.728-1.68 3.12-3.168 4.128zm1.344-6.384c-.384-.72-1.44-1.152-2.208-1.536-.912-.576-1.728-.336-2.64-.144l-1.44.336a3.135 3.135 0 0 1-1.632 0c-.24-.144-.528-.624-.288-.864.576-.576 1.296-.864 2.112-1.056l2.208-.24c.864-.48 1.776-1.44 2.16-2.352.24-.768.096-1.296-.384-1.92-.864-1.2-2.256-1.728-3.648-1.872-.432-.048-.576.048-.672.336-.144.384-.24.816-.48 1.152-.096.24-.432.336-.672.192a.928.928 0 0 1-.432-.24c-.576 2.064-.912 4.416-1.008 6.864-.096 2.304 0 4.56.336 6.672.384-.432.864-1.056 1.104-1.392.336-.336.96.192.864.528-.096.24-.288.528-.432.768-.096.288-.24.528-.24.72.288.432.96.576 1.776.48 1.2-.192 2.64-.864 3.696-1.68.96-.768 1.776-1.728 2.016-2.928.144-.576.24-1.248-.096-1.824zM344.528 23.4c-.336 3.407-.144 7.391.096 10.751.048.336-.432.384-.672.24-.672-.528-1.008-1.92-1.056-2.784a71.777 71.777 0 0 1 0-7.872c-3.552.144-7.392.048-10.896.432-.144 3.216-.048 6.288.096 9.36.048.096-.144.24-.384.288-.144 0-.384-.048-.528-.192-.624-.624-.768-1.776-.816-2.544-.24-4.848.096-9.696.576-14.448.096-.288.528-.576.912-.336.528.24.528.864.624 1.344-.096 1.248-.24 3.36-.384 4.848 3.504-.24 7.392-.096 10.896-.144.192-2.352.288-4.704.864-6.912.24-.288.72-.096 1.008.192.24.288.384.864.384 1.2-.24 1.824-.576 3.6-.624 5.472.144 0 .288-.048.432-.048.096 0 .24.096.24.336 0 .096 0 .288-.096.384-.144.192-.432.336-.672.432zM358.971 33.095c-2.16 1.104-4.752 1.584-7.104.432-1.824-.912-3.12-2.448-3.744-4.368-.72-2.256-.48-4.8.48-6.912a10.77 10.77 0 0 1 3.12-3.888c.864-.624 2.16-1.392 3.36-1.536.96-1.104 2.544-1.44 3.888-1.104 2.304.624 4.272 2.976 4.896 5.04.624 2.016.768 4.224.192 6.288-.72 2.784-2.544 4.8-5.088 6.048zm3.312-11.808c-.576-1.584-1.872-3.36-3.552-3.936-.768-.288-1.584-.384-2.208.096-.624.48-1.008 1.248-1.296 1.92-.048.144-.048.336-.048.528s0 .432-.048.624c-.048.096-.528.384-.672.096a8.025 8.025 0 0 1-.144-1.968c-1.824.768-3.36 2.352-4.224 4.128-.912 1.872-.96 4.032-.384 5.952.48 1.488 1.392 2.736 2.928 3.36 1.92.72 3.984.48 5.712-.384 1.968-1.008 3.36-2.544 4.032-4.608.624-1.824.528-3.984-.096-5.808zM373.744 34.247c-2.4-.096-4.608-1.2-6-3.264-1.152-1.728-1.44-3.744-1.2-5.712.288-2.208 1.2-4.32 2.448-5.952 1.392-1.824 3.36-3.264 5.616-3.696 1.536-.288 3.168-.144 4.32 1.104.528.576 1.008 1.2 1.008 1.968.048.816-.336 1.536-1.008 2.064-3.36 2.784-6.912 5.376-10.56 7.488.096 1.488 1.392 3.024 2.784 3.792 1.392.768 3.024.864 4.56.672 1.536-.144 3.12-.672 4.224-1.2.192-.144.336 0 .384.144.048.096.144.288-.048.432-1.68 1.536-4.08 2.256-6.528 2.16zm2.112-17.136c-1.392 0-2.784.576-3.888 1.44-2.352 1.92-3.744 4.992-3.744 7.968 3.408-1.872 6.624-4.32 9.744-6.864.24-.192.432-.912.096-1.488-.384-.768-1.248-1.056-2.208-1.056zM410.771 4.92c-1.056.383-2.208.623-3.264 1.007-1.92.624-3.216 1.44-4.56 2.928-1.344 1.44-2.208 3.168-2.976 4.992-.768 1.872-1.296 3.936-1.872 5.904 1.728-1.2 3.744-2.256 5.856-2.592 1.872-.336 3.936.048 5.568 1.104 1.728 1.104 2.88 3.024 3.36 5.04.48 2.16.288 4.176-.816 6.096a9.646 9.646 0 0 1-4.272 4.032c-1.536.768-3.552 1.008-5.376.72-2.112-.288-3.792-1.248-5.04-2.928-1.344-1.824-1.728-4.032-1.68-6.288.096-3.12 1.008-6.48 1.824-9.024 1.008-3.072 2.448-6.432 4.944-8.832 1.2-1.152 2.64-2.064 4.176-2.592 1.056-.336 2.16-.576 3.264-.912 1.056-.336 2.064-.768 2.976-1.536.288-.048.768 0 .864.288.192.288.192.672 0 .912a8.052 8.052 0 0 1-2.976 1.68zm-.096 17.087c-.624-1.392-1.872-2.448-3.264-2.88-1.392-.48-3.168-.384-4.56.048-1.92.576-3.696 1.728-5.232 3.12-.432 2.112-.384 4.656.336 6.576.336.96 1.008 1.824 1.872 2.496 1.44 1.152 2.928 1.296 4.752 1.104 1.968-.192 3.744-1.104 5.184-2.592 1.152-1.152 1.632-2.304 1.68-3.984.048-1.392-.24-2.784-.768-3.888zM431.173 33.623c-.624.048-1.056-.624-1.344-1.104a29.232 29.232 0 0 1-2.544-5.904c-.816-2.544-1.248-5.136-1.44-7.92-1.44 2.208-3.84 6.24-5.328 8.4-1.536 2.304-3.072 4.752-4.32 7.056-.144.336-.672.096-.864-.192-.24-.432-.144-1.008-.048-1.44.288-.432.816-1.536 1.104-2.16 3.12-4.752 6.384-9.6 9.264-14.352.336-.336 1.488-.528 1.584.384.24 2.928.672 5.856 1.344 8.64.672 2.784 1.68 5.376 2.976 7.872.048.144 0 .672-.384.72zM452.586 32.903c-1.344 1.392-3.552 1.824-5.376 1.104-1.728-.72-2.736-1.968-3.312-3.552-.624-1.728-.768-3.792-.72-5.712-2.208-.288-4.512-.768-6.768-.432-.384.144-.768.288-1.056.528-.096 2.448-.288 6.864-.336 9.168-.384.576-.96.336-1.104-.048-.624-5.856-.096-11.952.72-17.616.192-.336.384-.528.672-.672.528 0 1.056.048 1.344.576-.048.336-.192.528-.384.768a.364.364 0 0 0-.096.192c-.336 1.92-.528 3.84-.672 5.856.912-.432 2.016-.48 3.12-.432 1.92.096 3.312.336 4.704.624.192-2.64 1.632-5.28 4.176-6.336.384-.624 1.056-1.152 1.776-1.2 2.16.144 3.984 2.112 4.608 3.984.672 2.016 1.152 4.56 1.056 6.96-.096 2.352-.768 4.56-2.352 6.24zm-.528-13.344c-.432-.912-1.248-1.872-2.16-2.16-.576-.192-1.104.096-1.536.624-.144.192-.24.432-.336.624-.144.24-.336.48-.72.624-.144-.048-.24-.24-.288-.432-1.296 1.248-1.872 2.976-2.112 4.752-.288 2.064-.096 5.472.912 7.248.48.768 1.152 1.392 2.16 1.68 1.152.384 2.352-.048 3.36-.672 1.2-1.344 1.728-3.168 1.872-4.992.192-2.544-.384-5.184-1.152-7.296zM474.282 41.447c-.144.384-.624.384-.864.24-.528-.48-.528-1.152-.576-1.824-.144-2.016-.336-4.224-.096-6.288a49.675 49.675 0 0 0-13.632.624c-.192 2.448-.096 5.04.288 7.392-.048.24-.384.624-.768.384-.432-.192-.624-.576-.72-.912l-.24-1.056a73.881 73.881 0 0 1-.24-3.12c-.048-1.056-.048-2.112.048-3.024.048-.384.384-.768.72-1.008l1.344-.288c2.784-4.656 5.088-9.456 7.104-14.448.048-.24.144-.912-.048-1.152-.144-.624.24-.96.624-1.248 1.536-.24 3.264-.192 4.608.576.528.24.768.768.864 1.296 0 2.496.048 7.68.096 10.224.192 1.392 0 2.832-.096 4.224.096.048.24.048.432.048.288.048.48 0 .624 0 .432.048.816.336.816.72-.384 2.88-.432 5.808-.288 8.64zm-2.976-10.8c-.048-.48-.096-.912-.096-1.44 0-2.832-.048-8.4-.096-11.232-.192-.384-.528-.576-.912-.672-.672-.192-1.488-.144-2.208-.096.192.672.048 1.392-.096 2.016-1.92 4.464-3.936 8.928-6.528 13.104a60.876 60.876 0 0 1 9.888-.384c.048-.432.048-.864.048-1.296zM487.783 33.095c-2.16 1.104-4.752 1.584-7.104.432-1.824-.912-3.12-2.448-3.744-4.368-.72-2.256-.48-4.8.48-6.912a10.77 10.77 0 0 1 3.12-3.888c.864-.624 2.16-1.392 3.36-1.536.96-1.104 2.544-1.44 3.888-1.104 2.304.624 4.272 2.976 4.896 5.04.624 2.016.768 4.224.192 6.288-.72 2.784-2.544 4.8-5.088 6.048zm3.312-11.808c-.576-1.584-1.872-3.36-3.552-3.936-.768-.288-1.584-.384-2.208.096-.624.48-1.008 1.248-1.296 1.92-.048.144-.048.336-.048.528s0 .432-.048.624c-.048.096-.528.384-.672.096a8.025 8.025 0 0 1-.144-1.968c-1.824.768-3.36 2.352-4.224 4.128-.912 1.872-.96 4.032-.384 5.952.48 1.488 1.392 2.736 2.928 3.36 1.92.72 3.984.48 5.712-.384 1.968-1.008 3.36-2.544 4.032-4.608.624-1.824.528-3.984-.096-5.808zM518.171 32.951c-1.44.96-3.216 1.728-4.992 1.728-1.008 0-1.728-.432-2.4-1.392-.24.192-.672.336-.864.048-.864-1.2-1.104-2.88-1.152-4.512-.096-4.176-.048-7.248 1.056-10.992.096-.384 1.008-1.104 1.68-.912.288-.768 1.056-1.584 1.968-1.68 2.448 0 5.088 1.296 5.904 3.744.24.768.24 1.584-.048 2.352a4.33 4.33 0 0 1-1.392 1.824l-.288.24c1.2.384 2.544 1.152 3.312 2.352.576.912.624 2.016.384 3.072-.432 1.728-1.68 3.12-3.168 4.128zm1.344-6.384c-.384-.72-1.44-1.152-2.208-1.536-.912-.576-1.728-.336-2.64-.144l-1.44.336a3.135 3.135 0 0 1-1.632 0c-.24-.144-.528-.624-.288-.864.576-.576 1.296-.864 2.112-1.056l2.208-.24c.864-.48 1.776-1.44 2.16-2.352.24-.768.096-1.296-.384-1.92-.864-1.2-2.256-1.728-3.648-1.872-.432-.048-.576.048-.672.336-.144.384-.24.816-.48 1.152-.096.24-.432.336-.672.192a.928.928 0 0 1-.432-.24c-.576 2.064-.912 4.416-1.008 6.864-.096 2.304 0 4.56.336 6.672.384-.432.864-1.056 1.104-1.392.336-.336.96.192.864.528-.096.24-.288.528-.432.768-.096.288-.24.528-.24.72.288.432.96.576 1.776.48 1.2-.192 2.64-.864 3.696-1.68.96-.768 1.776-1.728 2.016-2.928.144-.576.24-1.248-.096-1.824zM531.831 31.8c-1.248 1.103-2.784 1.823-4.272 2.16-1.2.287-2.88.431-3.888-.577-.288-.24-.72-1.008-.288-1.44.336.24.576.432.864.576.192.144.384.24.624.24-.048-3.312.144-9.696.24-12.912.048-.768-.048-1.584 0-2.352.096-.768.24-1.536.864-2.112.432-.144.816-.24 1.056.24-.24.864-.24 2.4-.288 4.08 0 1.536 0 3.168-.048 4.32a5.63 5.63 0 0 1 2.544-.96c1.104-.096 2.256.096 3.168.624a3.806 3.806 0 0 1 1.92 4.176c-.288 1.488-1.296 2.88-2.496 3.936zm.624-5.905c-.576-.912-1.584-1.248-2.688-1.248-1.104.048-2.304.48-3.024 1.152l-.384 6.864c1.488-.336 3.024-1.008 4.272-2.064.864-.72 1.68-1.584 2.016-2.688.24-.672.192-1.488-.192-2.016zm9.984 8.592c-1.2-.336-1.2-1.536-1.344-2.496-.72-5.472-.288-10.752.432-16.176.432-.672 1.2-.096 1.392.288.048 1.104 0 2.16-.144 3.264-.096 1.056-.24 2.16-.24 3.264-.048 1.872-.144 3.792-.096 5.712 0 1.872.192 3.792.48 5.568.048.24-.24.576-.48.576zM573.821 32.663c0 .384-.432.48-.672.432-.528-.192-.624-1.056-.72-1.536-.144-.864-.144-1.728-.144-2.64v-2.928c0-2.256.288-4.704.336-7.008-.288-.432-.768-.672-1.248-.768-.528-.144-1.152-.192-1.68-.336-1.92-.288-3.84-.576-5.856-.48-.24 2.112-.816 4.08-1.104 6.192-.432 3.12-.816 6.048-.624 9.36 0 .384.096.96-.288 1.248-.192.192-.72.192-.96-.048-.24-.288-.336-.624-.384-.96-.048-.336 0-.72-.048-1.104-.048-5.04.768-9.744 1.776-14.64-.24.048-.48.096-.72.048-.432-.24-.336-.672-.144-.864.192-.384.528-.528.864-.624.336-.096.72-.192 1.056-.192 3.264-.24 6.72.24 9.696 1.2.576.336 1.392.72 1.44 1.488-.432 4.608-.528 9.36-.576 14.16zM579.646 17.687h-.24a.397.397 0 0 1-.384-.336c-.048-.384.096-.72.384-1.008.768-.672 1.632-.96 2.592-.912.672.048 1.344.144 2.016.384l1.824.624c2.592.864 4.848 3.168 6.096 5.664.672 1.392.912 2.832.576 4.416-.336 1.44-1.2 2.784-2.352 3.888-2.88 2.736-6.48 3.552-10.464 3.552-.048 3.264-.24 6.912.192 10.128 0 .144.096.336.192.48.048.24.144.432-.048.72-.384.288-.768.192-1.104 0-.48-.528-.672-1.104-.72-1.776-.336-3.408-.192-6.72 0-10.176-.432-.384-1.104-.912-1.248-1.488 0-.192.048-.384.144-.48.144-.24.336-.288.432-.192.144.144.432.336.672.48.288-4.8.624-9.36 1.44-13.968zm9.504 3.12c-1.056-1.296-2.544-2.208-3.984-2.832-.816-.384-3.12-1.248-3.984-.864.048.672-.048 1.872-.144 2.4-.672 4.08-1.104 8.448-1.152 12.768 3.312.24 6.48-.768 9.024-2.976 1.392-1.2 2.208-2.88 2.064-4.608-.096-1.44-1.008-2.88-1.824-3.888zM601.79 34.247c-2.4-.096-4.608-1.2-6-3.264-1.152-1.728-1.44-3.744-1.2-5.712.288-2.208 1.2-4.32 2.448-5.952 1.392-1.824 3.36-3.264 5.616-3.696 1.536-.288 3.168-.144 4.32 1.104.528.576 1.008 1.2 1.008 1.968.048.816-.336 1.536-1.008 2.064-3.36 2.784-6.912 5.376-10.56 7.488.096 1.488 1.392 3.024 2.784 3.792 1.392.768 3.024.864 4.56.672 1.536-.144 3.12-.672 4.224-1.2.192-.144.336 0 .384.144.048.096.144.288-.048.432-1.68 1.536-4.08 2.256-6.528 2.16zm2.112-17.136c-1.392 0-2.784.576-3.888 1.44-2.352 1.92-3.744 4.992-3.744 7.968 3.408-1.872 6.624-4.32 9.744-6.864.24-.192.432-.912.096-1.488-.383-.768-1.248-1.056-2.208-1.056zM627.282 41.447c-.144.384-.624.384-.864.24-.528-.48-.528-1.152-.576-1.824-.144-2.016-.336-4.224-.096-6.288a49.675 49.675 0 0 0-13.632.624c-.192 2.448-.096 5.04.288 7.392-.048.24-.384.624-.768.384-.432-.192-.624-.576-.72-.912l-.24-1.056c-.096-1.056-.192-2.112-.24-3.12-.048-1.056-.048-2.112.048-3.024.048-.384.384-.768.72-1.008l1.344-.288c2.784-4.656 5.088-9.456 7.104-14.448.048-.24.144-.912-.048-1.152-.144-.624.24-.96.624-1.248 1.536-.24 3.264-.192 4.608.576.528.24.768.768.864 1.296 0 2.496.048 7.68.096 10.224.192 1.392 0 2.832-.096 4.224.096.048.24.048.432.048.288.048.48 0 .624 0 .432.048.816.336.816.72-.384 2.88-.432 5.808-.288 8.64zm-2.976-10.8c-.048-.48-.096-.912-.096-1.44 0-2.832-.048-8.4-.096-11.232-.192-.384-.528-.576-.912-.672-.672-.192-1.488-.144-2.208-.096.192.672.048 1.392-.096 2.016-1.92 4.464-3.936 8.928-6.528 13.104 3.168-.384 6.48-.528 9.888-.384.048-.432.048-.864.048-1.296zM643.711 32.663c0 .384-.432.48-.672.432-.528-.192-.624-1.056-.72-1.536-.144-.864-.144-1.728-.144-2.64v-2.928c0-2.256.288-4.704.336-7.008-.288-.432-.768-.672-1.248-.768-.528-.144-1.152-.192-1.68-.336-1.92-.288-3.84-.576-5.856-.48-.24 2.112-.816 4.08-1.104 6.192-.432 3.12-.816 6.048-.624 9.36 0 .384.096.96-.288 1.248-.192.192-.72.192-.96-.048-.24-.288-.336-.624-.384-.96-.048-.336 0-.72-.048-1.104-.048-5.04.768-9.744 1.776-14.64-.24.048-.48.096-.72.048-.432-.24-.336-.672-.144-.864.192-.384.528-.528.864-.624.336-.096.72-.192 1.056-.192 3.264-.24 6.72.24 9.696 1.2.576.336 1.392.72 1.44 1.488-.432 4.608-.528 9.36-.576 14.16zM658.08 33.095c-2.16 1.104-4.752 1.584-7.104.432-1.824-.912-3.12-2.448-3.744-4.368-.72-2.256-.48-4.8.48-6.912a10.77 10.77 0 0 1 3.12-3.888c.864-.624 2.16-1.392 3.36-1.536.96-1.104 2.544-1.44 3.888-1.104 2.304.624 4.272 2.976 4.896 5.04.624 2.016.768 4.224.192 6.288-.72 2.784-2.544 4.8-5.088 6.048zm3.312-11.808c-.576-1.584-1.872-3.36-3.552-3.936-.768-.288-1.584-.384-2.208.096-.624.48-1.008 1.248-1.296 1.92-.048.144-.048.336-.048.528s0 .432-.048.624c-.048.096-.528.384-.672.096a8.025 8.025 0 0 1-.144-1.968c-1.824.768-3.36 2.352-4.224 4.128-.912 1.872-.96 4.032-.384 5.952.48 1.488 1.392 2.736 2.928 3.36 1.92.72 3.984.48 5.712-.384 1.968-1.008 3.36-2.544 4.032-4.608.624-1.824.528-3.984-.096-5.808zM677.749 27.383c-.048 2.16 0 4.464.048 6.624.048.288-.384.672-.768.432-.24-.192-.576-.912-.576-1.2-.288-1.584-.336-3.216-.336-4.848.048-2.064.192-4.176.336-6.192-.912 1.728-2.448 3.312-4.176 4.272-1.2.672-2.496 1.008-3.888.816-1.152-.192-2.112-1.344-2.304-2.448-.048-3.072.384-6.144.864-9.072.576-.48 1.248.048 1.248.528.144 1.44-.048 2.832-.24 4.224-.144 1.344-.336 2.736-.24 4.08.24.624.864 1.152 1.44 1.152 1.968-.192 3.648-1.296 4.896-2.784 1.536-1.728 2.496-3.888 3.168-5.808.144-.48.24-1.104.768-1.344.288-.096.672 0 .816.384-.432 3.696-1.008 7.44-1.056 11.184zM696.569 34.2c-1.008-1.153-1.296-2.689-1.536-4.177-.48-3.456-.384-7.152-.48-10.752-2.928 4.176-5.232 8.4-8.016 13.152-.288.336-.432.576-.912.768-.432 0-.816-.048-1.152-.528-2.304-4.272-2.736-9.504-2.4-14.688 0-.336.096-.912.48-1.056.624-.192 1.104.336 1.104.72-.288 4.8.24 9.36 1.824 13.488 1.68-2.88 3.024-5.28 4.464-7.632a90.415 90.415 0 0 1 5.088-7.488c.384-.288.912-.096 1.104.288.144 4.608.096 9.12.48 13.536.096 1.44.432 2.832.528 4.176 0 .192-.432.384-.576.192zM714.227 17.687c-1.248-.288-2.496-.576-3.792-.624-1.056 1.344-1.584 2.928-1.872 4.608-.336 1.728-.288 3.552-.384 5.328-.096 2.4.096 4.704.384 6.96-.144.288-.576.48-.912.288-.816-1.008-1.008-2.304-1.056-3.6-.048-2.88-.096-5.904.336-8.736.288-1.824.816-3.504 1.92-5.04-2.976-.144-5.712.48-8.448 1.248a1.514 1.514 0 0 1-1.056-.672c-.096-.336.096-.528.288-.624l.288-.096.24-.096c2.016-.816 4.464-1.248 6.816-1.296 2.4-.096 4.8.144 6.912.912.24.096.672.432.816.72.048.336-.192.768-.48.72zM725.728 34.055c-2.64.72-5.712.672-7.776-1.104-.96-.816-1.68-2.016-1.728-3.312-.048-1.152.432-2.208 1.104-3.168 1.488-2.112 4.08-3.552 6.576-3.84 1.056-.096 2.016.048 2.784.816.24.24 0 .72-.24.816h-.432c-.144 0-.336-.048-.48-.048-.336-.048-.624-.096-.816.048-2.304.096-4.56 1.2-5.952 3.072-.624.816-.96 1.44-.864 2.448.096 1.344 1.104 2.352 2.496 2.832 1.968.72 4.416.288 6.288-.384 1.008-.384 1.92-.768 2.784-1.392.192-.144.384 0 .48.24.048.192.048.384.048.528-.672 1.296-3.36 2.208-4.272 2.448zm2.688-3.264c-.24.288-.672.24-.864.096-.48-.336-.48-.96-.48-1.44.048-.816.192-1.632.384-2.496l.624-2.64c.384-1.728.624-3.456.096-4.896-.432-1.248-1.488-2.496-2.784-2.64-1.104-.144-2.208.24-3.12.912-.48.336-1.536 1.248-1.824 1.776-.048.192.048.528.24.72.192.192.048.768-.384.672-.336-.096-.72-.192-1.008-.432-.384-.336-.528-.96-.24-1.44.816-1.392 1.968-2.544 3.456-3.216.96-.48 2.112-.672 3.312-.48 1.44.24 2.688 1.296 3.408 2.64 1.104 2.064.96 4.656.432 6.96-.48 1.968-.96 3.792-1.248 5.904zM739.697 34.247c-2.4-.096-4.608-1.2-6-3.264-1.152-1.728-1.44-3.744-1.2-5.712.288-2.208 1.2-4.32 2.448-5.952 1.392-1.824 3.36-3.264 5.616-3.696 1.536-.288 3.168-.144 4.32 1.104.528.576 1.008 1.2 1.008 1.968.048.816-.336 1.536-1.008 2.064-3.36 2.784-6.912 5.376-10.56 7.488.096 1.488 1.392 3.024 2.784 3.792 1.392.768 3.024.864 4.56.672 1.536-.144 3.12-.672 4.224-1.2.192-.144.336 0 .384.144.048.096.144.288-.048.432-1.68 1.536-4.08 2.256-6.528 2.16zm2.112-17.136c-1.392 0-2.784.576-3.888 1.44-2.352 1.92-3.744 4.992-3.744 7.968 3.408-1.872 6.624-4.32 9.744-6.864.24-.192.432-.912.096-1.488-.384-.768-1.248-1.056-2.208-1.056zM762.836 17.687c-1.248-.288-2.496-.576-3.792-.624-1.056 1.344-1.584 2.928-1.872 4.608-.336 1.728-.288 3.552-.384 5.328-.096 2.4.096 4.704.384 6.96-.144.288-.576.48-.912.288-.816-1.008-1.008-2.304-1.056-3.6-.048-2.88-.096-5.904.336-8.736.288-1.824.816-3.504 1.92-5.04-2.976-.144-5.712.48-8.448 1.248a1.514 1.514 0 0 1-1.056-.672c-.096-.336.096-.528.288-.624l.288-.096.24-.096c2.016-.816 4.464-1.248 6.816-1.296 2.4-.096 4.8.144 6.912.912.24.096.672.432.816.72.048.336-.192.768-.48.72zM772.322 34.247c-2.4-.096-4.608-1.2-6-3.264-1.152-1.728-1.44-3.744-1.2-5.712.288-2.208 1.2-4.32 2.448-5.952 1.392-1.824 3.36-3.264 5.616-3.696 1.536-.288 3.168-.144 4.32 1.104.528.576 1.008 1.2 1.008 1.968.048.816-.336 1.536-1.008 2.064-3.36 2.784-6.912 5.376-10.56 7.488.096 1.488 1.392 3.024 2.784 3.792 1.392.768 3.024.864 4.56.672 1.536-.144 3.12-.672 4.224-1.2.192-.144.336 0 .384.144.048.096.144.288-.048.432-1.68 1.536-4.08 2.256-6.528 2.16zm2.112-17.136c-1.392 0-2.784.576-3.888 1.44-2.352 1.92-3.744 4.992-3.744 7.968 3.408-1.872 6.624-4.32 9.744-6.864.24-.192.432-.912.096-1.488-.384-.768-1.248-1.056-2.208-1.056zM795.557 13.847c-2.256 3.696-4.848 7.344-6.912 11.232-.24.192-.672.096-.768-.144-.096-.528-.048-1.008.096-1.392.096-.432.24-.768.384-1.2 1.632-2.976 3.648-5.808 5.424-8.688.528-.912.816-2.112.72-3.312a4.337 4.337 0 0 0-.96-2.448c-1.152-1.44-2.592-2.544-4.176-3.072-1.056-.384-2.16-.48-3.36-.24-.768.144-1.44.48-2.112 1.104-.624.576-1.152 1.296-1.392 2.112-.288.24-.816.24-.96-.192-.144-.624.096-1.152.288-1.728.816-1.392 1.968-2.352 3.312-2.832a7.237 7.237 0 0 1 3.504-.288c1.392.24 2.64.816 3.792 1.632a10.317 10.317 0 0 1 2.928 3.168c.624.96.912 2.256.864 3.504 0 .96-.192 2.016-.672 2.784zm-3.072 20.736c-1.2 0-2.4-.288-3.456-.816-1.104-.576-2.064-1.296-2.784-2.352-.192-.288-.24-.768-.144-1.152.096-.384.384-.624.864-.432l1.152 1.248c.384.384.816.768 1.2 1.056 1.104.816 2.496 1.248 3.888 1.68.144.336-.384.672-.72.768zM813.168 12.167c-.24.288-.48.528-.864.768-.48.048-.864 0-1.2-.192-1.056-.48-2.256-1.248-3.12-1.872-.048 1.536-.192 3.12 0 4.608-.096.768-.96.432-1.056.24-.096-.096-.192-.192-.24-.336a1.045 1.045 0 0 1-.24-.384c-.096-.432-.096-.864-.096-1.248.048-.816.096-1.68.096-2.496-1.104 1.056-2.448 1.968-3.888 2.496-.336.048-.864.048-1.248-.288-.576-.48-.048-1.296.624-1.728l.336.624c.336-.096.672-.336 1.008-.48 1.008-.624 2.016-1.536 2.832-2.448-1.536-1.248-3.072-2.784-4.368-4.176-.336-.288-.192-.72-.048-.96.432-.576 1.104-.192 1.248-.048a58.676 58.676 0 0 0 3.456 3.456c0-1.296.048-2.592-.048-3.792l-.384-1.104c-.048-.288.144-.96.768-.912.432.144.672.48.864.864l.144.336c.144.336.24.96.24 1.296v2.64l.144-.24 1.008-1.344c.336-.48.816-.864 1.392-1.2.768-.432 2.208 0 1.776 1.44-.336-.048-.432-.096-.576-.144-.096 0-.192-.048-.384-.096-.288-.096-1.248 1.2-1.392 1.392-.576.768-1.056 1.584-1.68 2.4 1.152.864 2.4 1.632 3.792 2.304.096-.144.192-.192.288-.24.096-.096.192-.144.528-.288.384.384.432.672.384.864-.048.096-.096.144-.096.288zM831.824 12.167c-.24.288-.48.528-.864.768-.48.048-.864 0-1.2-.192-1.056-.48-2.256-1.248-3.12-1.872-.048 1.536-.192 3.12 0 4.608-.096.768-.96.432-1.056.24-.096-.096-.192-.192-.24-.336a1.045 1.045 0 0 1-.24-.384c-.096-.432-.096-.864-.096-1.248.048-.816.096-1.68.096-2.496-1.104 1.056-2.448 1.968-3.888 2.496-.336.048-.864.048-1.248-.288-.576-.48-.048-1.296.624-1.728l.336.624c.336-.096.672-.336 1.008-.48 1.008-.624 2.016-1.536 2.832-2.448-1.536-1.248-3.072-2.784-4.368-4.176-.336-.288-.192-.72-.048-.96.432-.576 1.104-.192 1.248-.048a58.676 58.676 0 0 0 3.456 3.456c0-1.296.048-2.592-.048-3.792l-.384-1.104c-.048-.288.144-.96.768-.912.432.144.672.48.864.864l.144.336c.144.336.24.96.24 1.296v2.64l.144-.24 1.008-1.344c.336-.48.816-.864 1.392-1.2.768-.432 2.208 0 1.776 1.44-.336-.048-.432-.096-.576-.144-.096 0-.192-.048-.384-.096-.288-.096-1.248 1.2-1.392 1.392-.576.768-1.056 1.584-1.68 2.4 1.152.864 2.4 1.632 3.792 2.304.096-.144.192-.192.288-.24.096-.096.192-.144.528-.288.384.384.432.672.384.864-.048.096-.096.144-.096.288z" fill="#fff"/></svg>