<svg width="264" height="46" viewBox="0 0 264 46" fill="none" xmlns="http://www.w3.org/2000/svg">
<path d="M10.9379 15.5345C10.6157 14.6639 9.38431 14.6639 9.06215 15.5345L7.45867 19.8679C7.35738 20.1416 7.14157 20.3574 6.86785 20.4587L2.53451 22.0621C1.66389 22.3843 1.66389 23.6157 2.53451 23.9379L6.86785 25.5413C7.14157 25.6426 7.35738 25.8584 7.45867 26.1321L9.06215 30.4655C9.38431 31.3361 10.6157 31.3361 10.9379 30.4655L12.5413 26.1321C12.6426 25.8584 12.8584 25.6426 13.1321 25.5413L17.4655 23.9379C18.3361 23.6157 18.3361 22.3843 17.4655 22.0621L13.1321 20.4587C12.8584 20.3574 12.6426 20.1416 12.5413 19.8679L10.9379 15.5345Z" fill="#FFD700"/>
<path d="M39.0229 4.97767C38.6831 6.30858 38.5263 7.74186 38.3695 9.14955C38.2388 10.1221 38.1865 11.0947 38.1604 12.0929C38.1081 13.5518 38.1081 15.0107 38.0558 16.4951C37.9774 16.7511 37.7683 16.9046 37.5331 16.9046C37.1933 16.9046 37.0364 16.5719 36.958 16.2904L36.8535 16.0856C36.2 13.4238 35.4159 10.8388 34.4488 8.30494C34.0044 7.102 33.5862 5.92466 33.1158 4.74732C32.6453 3.59557 32.1225 2.44383 31.4952 1.29208C31.4691 1.29208 31.4429 1.24089 31.4429 1.26648C30.7372 3.51879 30.2406 5.79669 30.0053 8.20256C29.7962 10.3781 29.7701 12.6048 29.8485 14.8571C29.9008 15.1642 29.9008 15.497 29.9531 15.8297C29.9792 16.1368 30.0315 16.444 30.136 16.7255C30.1622 16.9046 30.0315 17.0326 29.8747 17.0838C29.4042 16.9814 29.2996 16.5975 29.2212 16.188L29.1428 15.8297C28.9337 13.9613 28.9076 12.0417 29.0121 10.1221C29.1428 7.84424 29.4826 5.56634 29.9531 3.4676C30.2144 2.36704 30.5542 1.21529 30.9986 0.19152C31.077 0.0123581 31.3907 -0.064424 31.5736 0.0635477C31.7304 0.19152 31.8089 0.345085 31.9134 0.524247C32.5669 1.54802 33.0896 2.62298 33.534 3.69795L34.867 6.97403C35.8602 9.43109 36.6705 11.9649 37.3501 14.55C37.3762 12.3744 37.4024 10.0965 37.6376 7.94662C37.8206 6.07823 38.2126 4.23543 38.9968 2.62298C39.0491 2.52061 39.1013 2.39264 39.1797 2.29026C39.3627 1.93194 39.6241 1.54802 40.1207 1.57362C40.4082 1.72718 40.3037 2.00872 40.173 2.18788C39.598 3.0325 39.2843 3.97949 39.0229 4.97767ZM45.5574 13.3214C44.9562 13.8589 44.2244 14.2172 43.3095 14.1405C42.5254 14.0637 41.8197 13.6286 41.4276 13.0399C40.7219 12.0161 40.5651 10.7364 40.7742 9.55906C40.931 8.71445 41.3492 7.63948 41.8981 6.97403C42.0811 6.84606 42.2379 6.6669 42.4993 6.69249C42.7084 6.76927 42.7345 6.97403 42.6561 7.102C42.1595 7.92102 41.689 8.9448 41.5583 9.99417C41.4537 10.9923 41.5844 11.9905 42.2117 12.784C42.6038 13.2702 43.2834 13.4494 43.9368 13.3214C45.2437 12.9119 45.8972 11.709 46.1324 10.634C46.3415 9.76382 46.3154 8.81683 46.1063 7.94662C45.9495 7.25557 45.6097 6.61571 45.0608 6.07823C44.8255 5.84788 44.355 5.7455 44.0153 5.82228C43.6232 5.89907 43.3095 6.1806 43.1004 6.48774C42.9697 6.59011 42.7868 6.43655 42.7868 6.33417C42.8129 5.95025 43.205 5.41277 43.6232 5.23361C44.1459 4.97767 44.9562 4.97767 45.4528 5.36158C46.2893 6.00144 46.6029 6.6413 46.8643 7.53711C47.1518 8.58648 47.1779 9.71263 46.9427 10.8132C46.7336 11.7602 46.2631 12.656 45.5574 13.3214ZM42.4208 16.3416C42.264 16.3928 41.8197 16.4184 41.6106 16.4695C41.4015 16.5719 41.0878 16.5463 40.8526 16.5463C40.7219 16.4951 40.6435 16.5207 40.5389 16.4951C40.4605 16.4695 40.3821 16.444 40.3037 16.3416C40.2514 16.2392 40.2253 16.0856 40.2514 15.9577C40.2775 15.8553 40.3298 15.7529 40.4082 15.6761C40.5651 15.5226 40.6957 15.4714 40.8264 15.4458C41.0094 15.3946 41.1401 15.4202 41.2708 15.3946C41.5322 15.3946 42.0288 15.4202 42.264 15.4458C42.4208 15.5226 42.5777 15.497 42.7606 15.5481C42.9436 15.4714 44.4596 15.497 44.6948 15.5481C45.2699 15.497 45.9495 15.5481 46.4199 15.6761C46.5768 15.7273 46.9688 15.7273 47.0995 15.8809C47.0473 16.2392 46.2108 16.4184 45.8449 16.316C45.6358 16.3672 45.1653 16.2392 44.8517 16.316C44.5903 16.2648 44.0153 16.3672 43.78 16.3416C43.3618 16.316 42.7084 16.2904 42.4208 16.3416Z" fill="white"/>
<path d="M57.1314 11.0435C57.0791 11.581 57.0791 12.1185 57.1052 12.6816L57.1837 14.4476C57.2359 15.7785 57.1314 17.1606 56.5563 18.2612C56.5302 18.3379 56.4518 18.3635 56.3734 18.3891C56.3211 18.3891 56.1904 18.3891 56.1904 18.2612C56.4257 17.0326 56.3995 15.8041 56.3211 14.55C56.2688 13.4238 56.1904 12.2977 56.2688 11.1459C55.3279 11.1459 54.413 11.0179 53.5766 10.6852C52.7402 10.3525 51.9299 9.78941 51.2765 9.09836C50.4662 8.22816 49.8389 7.02522 49.4468 5.92466C49.0025 4.59375 48.8195 3.18606 48.9502 1.70159C49.0025 1.54802 49.2116 1.39446 49.3161 1.31767C49.473 1.29208 49.6821 1.42005 49.7344 1.57362C49.7082 2.98131 49.8912 4.41459 50.3094 5.66872C50.5969 6.51333 50.9628 7.28116 51.4856 7.94662C52.139 8.79123 53.0016 9.48228 54.0994 9.96857C54.7528 10.2757 55.5108 10.3525 56.2688 10.3525C56.4518 8.4585 56.4779 6.41095 56.8961 4.51697C57.0791 3.74914 57.5234 2.82774 58.4121 2.5462C58.8826 2.41823 59.4315 2.44383 59.8236 2.69977C60.0327 2.80215 59.7974 3.0325 59.6929 3.0325C59.3792 2.95571 59.0917 3.0069 58.8303 3.10928C58.5167 3.26285 58.203 3.54438 57.9939 3.85152C57.7325 4.49137 57.6019 5.18242 57.4973 5.87347C57.3928 6.59011 57.3666 7.30676 57.3143 8.0234C57.2621 8.61207 57.1837 9.71263 57.1575 10.3013C58.9349 10.1733 60.5293 9.48228 62.0714 8.68885C62.2805 8.50969 62.3851 8.86801 62.3067 8.99599C60.7907 10.1221 59.0656 10.8388 57.1314 11.0435Z" fill="white"/>
<path d="M80.1883 10.4549C77.7313 10.3525 75.2743 10.7364 72.8174 10.5572C72.3469 10.5316 71.7719 10.4037 71.4321 10.0198C71.2491 9.81501 71.4582 9.35431 71.7719 9.4055C72.8958 9.53347 74.0197 9.58466 75.1437 9.55906C76.6074 9.53347 78.1495 9.43109 79.4825 9.48228C79.7439 9.48228 80.3451 9.58466 80.5281 9.89179C80.711 10.1477 80.4758 10.4805 80.1883 10.4549Z" fill="white"/>
<path d="M95.2754 17.5701C94.4912 18.082 93.5241 18.4915 92.557 18.4915C92.0081 18.4915 91.616 18.2612 91.2501 17.7493C91.1194 17.8516 90.8842 17.9284 90.7796 17.7749C90.3092 17.135 90.1785 16.2392 90.1523 15.369C90.1 13.1423 90.1262 11.5042 90.7274 9.50787C90.7796 9.30312 91.2763 8.9192 91.6422 9.02158C91.799 8.61207 92.2172 8.17697 92.7138 8.12578C94.0469 8.12578 95.4845 8.81683 95.9288 10.1221C96.0595 10.5316 96.0595 10.9668 95.9027 11.3763C95.7458 11.7602 95.4845 12.0929 95.1447 12.3488L94.9878 12.4768C95.6413 12.6816 96.3731 13.0911 96.7913 13.7309C97.105 14.2172 97.1311 14.8059 97.0005 15.369C96.7652 16.2904 96.0856 17.0326 95.2754 17.5701ZM96.0072 14.1661C95.7981 13.7821 95.2231 13.5518 94.8049 13.347C94.3082 13.0399 93.8639 13.1679 93.3673 13.2702L92.5831 13.4494C92.2956 13.5262 92.0081 13.5262 91.6945 13.4494C91.5638 13.3726 91.4069 13.1167 91.5376 12.9887C91.8513 12.6816 92.2434 12.528 92.6877 12.4256L93.89 12.2977C94.3605 12.0417 94.8571 11.5298 95.0662 11.0435C95.1969 10.634 95.1185 10.3525 94.8571 10.0198C94.3867 9.3799 93.6287 9.09836 92.8707 9.02158C92.6354 8.99599 92.557 9.04717 92.5047 9.20074C92.4263 9.4055 92.374 9.63585 92.2434 9.81501C92.1911 9.94298 92.0081 9.99417 91.8774 9.91738C91.7729 9.89179 91.6945 9.8406 91.6422 9.78941C91.3285 10.89 91.1456 12.1441 91.0933 13.4494C91.041 14.6779 91.0933 15.8809 91.2763 17.007C91.4854 16.7767 91.7467 16.444 91.8774 16.2648C92.0604 16.0856 92.4002 16.3672 92.3479 16.5463C92.2956 16.6743 92.1911 16.8279 92.1127 16.9558C92.0604 17.1094 91.982 17.2374 91.982 17.3398C92.1388 17.5701 92.5047 17.6469 92.9491 17.5957C93.6025 17.4933 94.3867 17.135 94.9617 16.6999C95.4845 16.2904 95.9288 15.7785 96.0595 15.1386C96.1379 14.8315 96.1902 14.4732 96.0072 14.1661Z" fill="white"/>
<path d="M103.236 18.1588C101.799 18.5427 100.126 18.5171 99.0018 17.5701C98.4791 17.135 98.087 16.4951 98.0609 15.8041C98.0347 15.1898 98.2961 14.6267 98.662 14.1149C99.4723 12.9887 100.884 12.2209 102.243 12.0673C102.818 12.0161 103.341 12.0929 103.759 12.5024C103.89 12.6304 103.759 12.8863 103.628 12.9375H103.393C103.315 12.9375 103.21 12.9119 103.132 12.9119C102.949 12.8863 102.792 12.8607 102.687 12.9375C101.433 12.9887 100.204 13.5774 99.4462 14.5756C99.1064 15.0107 98.9234 15.3434 98.9757 15.8809C99.028 16.5975 99.5769 17.135 100.335 17.3909C101.407 17.7749 102.74 17.5445 103.759 17.1862C104.308 16.9814 104.804 16.7767 105.275 16.444C105.379 16.3672 105.484 16.444 105.536 16.5719C105.562 16.6743 105.562 16.7767 105.562 16.8535C105.197 17.5445 103.733 18.0308 103.236 18.1588ZM104.7 16.4184C104.569 16.5719 104.334 16.5463 104.229 16.4695C103.968 16.2904 103.968 15.9577 103.968 15.7017C103.994 15.2666 104.073 14.8315 104.177 14.3708L104.517 12.9631C104.726 12.0417 104.857 11.1203 104.569 10.3525C104.334 9.68703 103.759 9.02158 103.053 8.9448C102.452 8.86801 101.851 9.07277 101.354 9.43109C101.093 9.61025 100.518 10.0965 100.361 10.3781C100.335 10.4805 100.387 10.6596 100.492 10.762C100.596 10.8644 100.518 11.1715 100.283 11.1203C100.1 11.0691 99.8905 11.0179 99.7337 10.89C99.5246 10.7108 99.4462 10.3781 99.603 10.1221C100.047 9.3799 100.675 8.76564 101.485 8.40732C102.008 8.15137 102.635 8.04899 103.288 8.15137C104.073 8.27934 104.752 8.84242 105.144 9.55906C105.745 10.6596 105.667 12.0417 105.379 13.2702C105.118 14.3196 104.857 15.2922 104.7 16.4184Z" fill="white"/>
<path d="M119.599 18.2612C119.416 18.2356 119.311 18.1332 119.233 18.0052L119.154 17.8772C118.187 15.8297 117.769 13.5262 117.743 11.0947C117.403 11.9137 117.063 12.7072 116.671 13.5006C116.227 14.3964 115.73 15.2666 115.025 16.0856C114.711 16.4695 114.11 16.5207 113.639 16.4184C113.247 16.2392 112.986 15.8041 112.803 15.4458C111.81 13.5774 111.339 11.4786 110.843 9.43109C110.843 9.4055 110.816 9.3799 110.79 9.4055C109.17 11.7346 108.229 14.3452 107.575 17.1094C107.471 17.3653 107.706 17.5957 107.732 17.8516C107.784 18.0052 107.68 18.1588 107.471 18.2356C107.183 18.2612 106.948 18.0308 106.817 17.826C106.634 17.3909 106.66 16.9046 106.791 16.4695C107.654 13.7054 108.542 10.9668 110.372 8.56088C110.607 8.40732 110.843 8.40732 111.052 8.4585C111.313 8.4585 111.548 8.71445 111.574 8.89361C112.149 11.0947 112.62 13.347 113.744 15.3434C113.901 15.5481 114.11 15.6761 114.345 15.5993C114.946 15.0363 115.338 14.3452 115.73 13.6542C116.514 12.2465 117.063 10.762 117.665 9.22634L117.795 9.04717C117.874 8.97039 117.926 8.9192 118.057 8.9192C118.318 8.84242 118.501 9.02158 118.605 9.20074C118.553 10.7876 118.579 12.2721 118.762 13.7309C118.945 15.1898 119.285 16.6231 119.834 18.0052C119.86 18.1844 119.677 18.2612 119.599 18.2612Z" fill="white"/>
<path d="M136.31 12.4768C136.127 14.294 136.232 16.4184 136.362 18.21C136.389 18.3891 136.127 18.4147 135.997 18.3379C135.631 18.0564 135.448 17.3142 135.422 16.8535C135.343 15.4202 135.343 14.0893 135.422 12.656C133.487 12.7328 131.396 12.6816 129.488 12.8863C129.41 14.6012 129.462 16.2392 129.541 17.8772C129.567 17.9284 129.462 18.0052 129.331 18.0308C129.253 18.0308 129.122 18.0052 129.044 17.9284C128.704 17.5957 128.626 16.9814 128.6 16.5719C128.469 13.9869 128.652 11.4019 128.913 8.86801C128.965 8.71445 129.201 8.56088 129.41 8.68885C129.697 8.81683 129.697 9.14955 129.75 9.4055C129.697 10.071 129.619 11.1971 129.541 11.9905C131.449 11.8626 133.566 11.9393 135.474 11.9137C135.578 10.6596 135.631 9.4055 135.944 8.22816C136.075 8.07459 136.336 8.17697 136.493 8.33053C136.624 8.4841 136.702 8.79123 136.702 8.97039C136.572 9.94298 136.389 10.89 136.362 11.8882C136.441 11.8882 136.519 11.8626 136.598 11.8626C136.65 11.8626 136.728 11.9137 136.728 12.0417C136.728 12.0929 136.728 12.1953 136.676 12.2465C136.598 12.3488 136.441 12.4256 136.31 12.4768Z" fill="white"/>
<path d="M144.253 16.1368C143.025 18.7474 142.057 21.4349 141.117 24.1479C141.038 24.3014 140.672 24.3526 140.594 24.1479C140.463 23.9175 140.541 23.3032 140.594 23.0729C141.012 21.3325 141.77 19.72 142.397 18.0564C141.639 16.9558 140.672 15.4458 139.94 14.1405C139.025 12.4768 138.267 10.7364 137.98 8.81683C137.928 8.56088 138.085 8.30494 138.294 8.20256C138.45 8.15137 138.555 8.22816 138.633 8.30494C138.712 8.38172 138.764 8.4841 138.816 8.58648C139.078 10.1221 139.601 11.5554 140.254 12.9119C140.986 14.3708 141.848 15.7529 142.815 17.135C143.417 15.8553 144.044 14.5756 144.724 13.3214C145.403 12.0417 146.161 10.8132 147.076 9.61025C147.259 9.3799 147.52 9.12396 147.756 9.25193C147.912 9.32871 148.043 9.55906 147.912 9.73822C146.527 11.8114 145.299 13.9357 144.253 16.1368Z" fill="white"/>
<path d="M154.895 12.9631C154.895 13.0399 154.895 13.1679 154.869 13.2702C155.81 13.8589 156.673 14.6012 157.509 15.4202C158.345 16.2136 159.182 17.0838 160.018 17.8772C160.149 17.9796 159.94 18.1588 159.861 18.1588C159.443 18.0052 159.13 17.7749 158.764 17.5189C158.476 17.2886 158.163 17.007 157.823 16.7767C156.882 15.9065 155.889 15.0619 154.895 14.294C154.843 15.6249 155 16.8791 155.157 18.1844C155.104 18.3891 154.869 18.4147 154.712 18.3379C154.529 18.0564 154.451 17.7493 154.373 17.4421C154.32 17.135 154.268 16.8023 154.216 16.4951C154.059 15.5481 154.059 14.6779 154.059 13.6542L153.954 13.5774C152.674 14.4476 151.288 15.5226 150.06 16.4695C150.007 16.4695 149.929 16.4951 149.851 16.5207C149.772 16.5207 149.668 16.5207 149.615 16.444C149.511 16.3672 149.537 16.2648 149.563 16.188C149.589 16.1112 149.642 16.0344 149.694 15.9577C150.844 14.9339 152.046 13.9869 153.249 13.1423C151.994 12.2721 150.661 11.5042 149.328 10.7876C149.067 10.6084 148.727 10.3269 148.805 9.91738C148.91 9.71263 149.223 9.76382 149.354 9.8406C150.975 10.6852 152.543 11.5554 154.007 12.6304L154.085 12.5792C154.111 11.2227 154.19 9.66144 154.634 8.30494C154.843 7.99781 155.209 8.27934 155.261 8.50969C155.313 9.68703 155 10.7876 154.974 11.9649C156.673 10.9412 158.424 9.8406 160.227 8.86801C160.41 8.81683 160.541 8.81683 160.724 8.89361C160.855 8.97039 160.985 9.22634 160.855 9.43109C158.894 10.6084 156.856 11.709 154.895 12.9631Z" fill="white"/>
<path d="M165.952 18.2612C164.645 18.21 163.442 17.6213 162.684 16.5207C162.057 15.5993 161.9 14.5244 162.031 13.475C162.188 12.2977 162.684 11.1715 163.364 10.3013C164.122 9.32871 165.194 8.56088 166.422 8.33053C167.259 8.17697 168.147 8.25375 168.775 8.9192C169.062 9.22634 169.323 9.55906 169.323 9.96857C169.35 10.4037 169.14 10.7876 168.775 11.0691C166.945 12.5536 165.011 13.9357 163.024 15.0619C163.076 15.8553 163.782 16.6743 164.54 17.0838C165.298 17.4933 166.187 17.5445 167.023 17.4421C167.86 17.3653 168.722 17.0838 169.323 16.8023C169.428 16.7255 169.506 16.8023 169.533 16.8791C169.559 16.9302 169.611 17.0326 169.506 17.1094C168.592 17.9284 167.285 18.3123 165.952 18.2612ZM167.102 9.12396C166.344 9.12396 165.586 9.43109 164.985 9.89179C163.704 10.9156 162.946 12.5536 162.946 14.1405C164.802 13.1423 166.553 11.837 168.252 10.4805C168.382 10.3781 168.487 9.99417 168.304 9.68703C168.095 9.27752 167.624 9.12396 167.102 9.12396Z" fill="white"/>
<path d="M178.657 12.4768C178.474 14.294 178.578 16.4184 178.709 18.21C178.735 18.3891 178.474 18.4147 178.343 18.3379C177.977 18.0564 177.794 17.3142 177.768 16.8535C177.69 15.4202 177.69 14.0893 177.768 12.656C175.834 12.7328 173.743 12.6816 171.835 12.8863C171.756 14.6012 171.809 16.2392 171.887 17.8772C171.913 17.9284 171.809 18.0052 171.678 18.0308C171.599 18.0308 171.469 18.0052 171.39 17.9284C171.051 17.5957 170.972 16.9814 170.946 16.5719C170.815 13.9869 170.998 11.4019 171.26 8.86801C171.312 8.71445 171.547 8.56088 171.756 8.68885C172.044 8.81683 172.044 9.14955 172.096 9.4055C172.044 10.071 171.965 11.1971 171.887 11.9905C173.795 11.8626 175.912 11.9393 177.82 11.9137C177.925 10.6596 177.977 9.4055 178.291 8.22816C178.421 8.07459 178.683 8.17697 178.84 8.33053C178.97 8.4841 179.049 8.79123 179.049 8.97039C178.918 9.94298 178.735 10.89 178.709 11.8882C178.787 11.8882 178.866 11.8626 178.944 11.8626C178.996 11.8626 179.075 11.9137 179.075 12.0417C179.075 12.0929 179.075 12.1953 179.023 12.2465C178.944 12.3488 178.787 12.4256 178.657 12.4768Z" fill="white"/>
<path d="M195.756 9.43109C195.077 9.27752 194.397 9.12396 193.691 9.09836C193.116 9.81501 192.829 10.6596 192.672 11.5554C192.489 12.4768 192.515 13.4494 192.463 14.3964C192.411 15.6761 192.515 16.9046 192.672 18.1076C192.593 18.2612 192.358 18.3635 192.175 18.2612C191.731 17.7237 191.626 17.0326 191.6 16.3416C191.574 14.8059 191.548 13.1935 191.783 11.6834C191.94 10.7108 192.228 9.81501 192.829 8.99599C191.208 8.9192 189.718 9.25193 188.228 9.66144C188.019 9.63585 187.784 9.50787 187.653 9.30312C187.601 9.12396 187.706 9.02158 187.81 8.97039L187.967 8.9192L188.098 8.86801C189.196 8.43291 190.529 8.20256 191.809 8.17697C193.116 8.12578 194.423 8.25375 195.573 8.66326C195.704 8.71445 195.939 8.89361 196.018 9.04717C196.044 9.22634 195.913 9.45669 195.756 9.43109Z" fill="white"/>
<path d="M198.281 9.43109H198.151C198.072 9.43109 197.968 9.3799 197.942 9.25193C197.915 9.04717 197.994 8.86801 198.151 8.71445C198.569 8.35613 199.039 8.20256 199.562 8.22816C199.928 8.25375 200.294 8.30494 200.66 8.43291L201.653 8.76564C203.065 9.22634 204.293 10.4549 204.973 11.7858C205.339 12.528 205.469 13.2958 205.286 14.1405C205.103 14.9083 204.633 15.6249 204.006 16.2136C202.437 17.6725 200.477 18.1076 198.307 18.1076C198.281 19.848 198.177 21.7932 198.412 23.508C198.412 23.5848 198.464 23.6872 198.517 23.7639C198.543 23.8919 198.595 23.9943 198.49 24.1479C198.281 24.3014 198.072 24.2502 197.889 24.1479C197.628 23.8663 197.523 23.5592 197.497 23.2009C197.314 21.3837 197.393 19.6177 197.497 17.7749C197.262 17.5701 196.896 17.2886 196.818 16.9814C196.818 16.8791 196.844 16.7767 196.896 16.7255C196.974 16.5975 197.079 16.5719 197.131 16.6231C197.21 16.6999 197.367 16.8023 197.497 16.8791C197.654 14.3196 197.837 11.8882 198.281 9.43109ZM203.457 11.0947C202.882 10.4037 202.071 9.91738 201.287 9.58466C200.843 9.3799 199.588 8.9192 199.118 9.12396C199.144 9.48228 199.092 10.1221 199.039 10.4037C198.673 12.5792 198.438 14.9083 198.412 17.2118C200.216 17.3398 201.941 16.8023 203.326 15.6249C204.084 14.9851 204.528 14.0893 204.45 13.1679C204.398 12.4 203.901 11.6322 203.457 11.0947Z" fill="white"/>
<path d="M211.438 18.1588C210 18.5427 208.327 18.5171 207.204 17.5701C206.681 17.135 206.289 16.4951 206.263 15.8041C206.236 15.1898 206.498 14.6267 206.864 14.1149C207.674 12.9887 209.085 12.2209 210.445 12.0673C211.02 12.0161 211.542 12.0929 211.961 12.5024C212.091 12.6304 211.961 12.8863 211.83 12.9375H211.595C211.516 12.9375 211.412 12.9119 211.333 12.9119C211.15 12.8863 210.994 12.8607 210.889 12.9375C209.634 12.9887 208.406 13.5774 207.648 14.5756C207.308 15.0107 207.125 15.3434 207.177 15.8809C207.23 16.5975 207.779 17.135 208.537 17.3909C209.608 17.7749 210.941 17.5445 211.961 17.1862C212.51 16.9814 213.006 16.7767 213.477 16.444C213.581 16.3672 213.686 16.444 213.738 16.5719C213.764 16.6743 213.764 16.7767 213.764 16.8535C213.398 17.5445 211.935 18.0308 211.438 18.1588ZM212.902 16.4184C212.771 16.5719 212.536 16.5463 212.431 16.4695C212.17 16.2904 212.17 15.9577 212.17 15.7017C212.196 15.2666 212.274 14.8315 212.379 14.3708L212.719 12.9631C212.928 12.0417 213.058 11.1203 212.771 10.3525C212.536 9.68703 211.961 9.02158 211.255 8.9448C210.654 8.86801 210.053 9.07277 209.556 9.43109C209.295 9.61025 208.72 10.0965 208.563 10.3781C208.537 10.4805 208.589 10.6596 208.693 10.762C208.798 10.8644 208.72 11.1715 208.484 11.1203C208.301 11.0691 208.092 11.0179 207.935 10.89C207.726 10.7108 207.648 10.3781 207.805 10.1221C208.249 9.3799 208.876 8.76564 209.687 8.40732C210.209 8.15137 210.837 8.04899 211.49 8.15137C212.274 8.27934 212.954 8.84242 213.346 9.55906C213.947 10.6596 213.869 12.0417 213.581 13.2702C213.32 14.3196 213.058 15.2922 212.902 16.4184Z" fill="white"/>
<path d="M223.122 12.4768C222.939 14.294 223.043 16.4184 223.174 18.21C223.2 18.3891 222.939 18.4147 222.808 18.3379C222.442 18.0564 222.259 17.3142 222.233 16.8535C222.155 15.4202 222.155 14.0893 222.233 12.656C220.299 12.7328 218.208 12.6816 216.3 12.8863C216.221 14.6012 216.274 16.2392 216.352 17.8772C216.378 17.9284 216.274 18.0052 216.143 18.0308C216.064 18.0308 215.934 18.0052 215.855 17.9284C215.516 17.5957 215.437 16.9814 215.411 16.5719C215.28 13.9869 215.463 11.4019 215.725 8.86801C215.777 8.71445 216.012 8.56088 216.221 8.68885C216.509 8.81683 216.509 9.14955 216.561 9.4055C216.509 10.071 216.43 11.1971 216.352 11.9905C218.26 11.8626 220.377 11.9393 222.285 11.9137C222.39 10.6596 222.442 9.4055 222.756 8.22816C222.886 8.07459 223.148 8.17697 223.305 8.33053C223.435 8.4841 223.514 8.79123 223.514 8.97039C223.383 9.94298 223.2 10.89 223.174 11.8882C223.252 11.8882 223.331 11.8626 223.409 11.8626C223.462 11.8626 223.54 11.9137 223.54 12.0417C223.54 12.0929 223.54 12.1953 223.488 12.2465C223.409 12.3488 223.252 12.4256 223.122 12.4768Z" fill="white"/>
<path d="M229.705 18.1588C228.712 18.2867 227.667 18.21 226.673 17.6213C225.367 16.8535 224.791 15.5226 224.87 14.0381C224.948 12.8863 225.314 11.8114 225.968 10.8388C226.621 9.8662 227.536 9.07277 228.634 8.56088C229.209 8.27934 229.993 8.15137 230.62 8.40732C231.143 8.61207 231.692 9.14955 231.796 9.66144C231.849 9.81501 231.587 10.1477 231.378 9.99417C231.091 9.73822 230.725 9.4055 230.359 9.25193C229.993 9.09836 229.653 9.07277 229.261 9.22634C228.242 9.63585 227.301 10.4293 226.673 11.3763C226.098 12.2465 225.759 13.2702 225.732 14.3196C225.732 15.2666 226.098 16.1624 226.909 16.7511C227.667 17.2886 228.66 17.4165 229.575 17.3398C231.117 17.2118 232.476 16.5719 233.835 15.9833C233.992 15.9833 234.227 16.2392 234.097 16.4184C232.79 17.135 231.3 17.9284 229.705 18.1588Z" fill="white"/>
<path d="M244.915 15.8297C243.895 17.1862 242.327 17.954 240.733 18.21C240.759 20.1295 240.889 22.1259 241.098 24.0711C241.098 24.3782 240.393 24.3526 240.34 24.0711C240.053 22.2283 239.87 20.2319 239.765 18.3123C238.589 18.21 237.308 17.7493 236.368 16.9814C235.583 16.316 235.061 15.5481 234.904 14.55C234.773 13.6542 235.008 12.7584 235.479 12.0161C236.394 10.5061 238.171 9.53347 239.818 9.09836C239.975 7.22997 240.131 5.36158 240.367 3.49319C240.497 3.16047 241.125 3.33963 241.177 3.67235C241.098 5.23361 240.942 6.84606 240.811 8.38172C242.353 8.35613 243.738 9.12396 244.679 10.2757C245.333 11.0435 245.699 11.8626 245.777 12.9119C245.829 13.9101 245.542 14.9851 244.915 15.8297ZM242.745 9.73822C242.118 9.4055 241.464 9.12396 240.785 9.20074C240.602 11.8626 240.602 14.6779 240.68 17.3653C242.066 17.0838 243.372 16.3928 244.235 15.2154C244.784 14.4476 244.967 13.2958 244.732 12.3233C244.496 11.2739 243.66 10.2245 242.745 9.73822ZM236.106 12.6048C235.714 13.2702 235.583 14.0125 235.897 14.8059C236.132 15.4458 236.55 16.0088 237.126 16.4184C237.884 16.9814 238.824 17.3142 239.713 17.4165C239.661 14.9339 239.713 12.5024 239.765 10.0454C238.406 10.4549 236.812 11.4019 236.106 12.6048Z" fill="white"/>
<path d="M250.925 18.2612C249.618 18.21 248.416 17.6213 247.658 16.5207C247.031 15.5993 246.874 14.5244 247.005 13.475C247.161 12.2977 247.658 11.1715 248.338 10.3013C249.096 9.32871 250.167 8.56088 251.396 8.33053C252.232 8.17697 253.121 8.25375 253.748 8.9192C254.036 9.22634 254.297 9.55906 254.297 9.96857C254.323 10.4037 254.114 10.7876 253.748 11.0691C251.919 12.5536 249.984 13.9357 247.998 15.0619C248.05 15.8553 248.756 16.6743 249.514 17.0838C250.272 17.4933 251.161 17.5445 251.997 17.4421C252.833 17.3653 253.696 17.0838 254.297 16.8023C254.402 16.7255 254.48 16.8023 254.506 16.8791C254.532 16.9302 254.585 17.0326 254.48 17.1094C253.565 17.9284 252.258 18.3123 250.925 18.2612ZM252.075 9.12396C251.317 9.12396 250.559 9.43109 249.958 9.89179C248.677 10.9156 247.919 12.5536 247.919 14.1405C249.775 13.1423 251.526 11.837 253.225 10.4805C253.356 10.3781 253.461 9.99417 253.278 9.68703C253.069 9.27752 252.598 9.12396 252.075 9.12396Z" fill="white"/>
<path d="M256.913 9.43109H256.782C256.704 9.43109 256.599 9.3799 256.573 9.25193C256.547 9.04717 256.625 8.86801 256.782 8.71445C257.2 8.35613 257.671 8.20256 258.194 8.22816C258.56 8.25375 258.926 8.30494 259.291 8.43291L260.285 8.76564C261.696 9.22634 262.925 10.4549 263.604 11.7858C263.97 12.528 264.101 13.2958 263.918 14.1405C263.735 14.9083 263.264 15.6249 262.637 16.2136C261.069 17.6725 259.109 18.1076 256.939 18.1076C256.913 19.848 256.808 21.7932 257.044 23.508C257.044 23.5848 257.096 23.6872 257.148 23.7639C257.174 23.8919 257.227 23.9943 257.122 24.1479C256.913 24.3014 256.704 24.2502 256.521 24.1479C256.259 23.8663 256.155 23.5592 256.129 23.2009C255.946 21.3837 256.024 19.6177 256.129 17.7749C255.894 17.5701 255.528 17.2886 255.449 16.9814C255.449 16.8791 255.475 16.7767 255.528 16.7255C255.606 16.5975 255.711 16.5719 255.763 16.6231C255.841 16.6999 255.998 16.8023 256.129 16.8791C256.286 14.3196 256.469 11.8882 256.913 9.43109ZM262.088 11.0947C261.513 10.4037 260.703 9.91738 259.919 9.58466C259.474 9.3799 258.22 8.9192 257.749 9.12396C257.775 9.48228 257.723 10.1221 257.671 10.4037C257.305 12.5792 257.07 14.9083 257.044 17.2118C258.847 17.3398 260.572 16.8023 261.958 15.6249C262.716 14.9851 263.16 14.0893 263.081 13.1679C263.029 12.4 262.533 11.6322 262.088 11.0947Z" fill="white"/>
<path d="M34.1351 39.4021C32.9589 39.9908 31.5475 40.2467 30.2667 39.6325C29.2735 39.1462 28.5678 38.3271 28.228 37.3034C27.8359 36.1004 27.9666 34.7439 28.4893 33.6178C28.8814 32.7988 29.4826 32.0821 30.1883 31.5446C30.6588 31.2119 31.3645 30.8024 32.018 30.7256C32.5407 30.1369 33.4033 29.9578 34.1351 30.1369C35.3898 30.4697 36.4614 31.7238 36.8012 32.8244C37.141 33.8993 37.2194 35.0767 36.9057 36.1772C36.5137 37.6617 35.5204 38.7367 34.1351 39.4021ZM35.9386 33.1059C35.625 32.2613 34.9193 31.3143 34.0044 31.0072C33.5862 30.8536 33.1419 30.8024 32.8021 31.0583C32.4623 31.3143 32.2532 31.7238 32.0964 32.0821C32.0702 32.1589 32.0702 32.2613 32.0702 32.3637C32.0702 32.466 32.0702 32.594 32.0441 32.6964C32.018 32.7476 31.7566 32.9011 31.6782 32.7476C31.6259 32.5172 31.5736 32.0565 31.5998 31.6982C30.6065 32.1077 29.7701 32.9523 29.2996 33.8993C28.803 34.8975 28.7769 36.0492 29.0905 37.073C29.3519 37.8664 29.8485 38.5319 30.6849 38.8646C31.7304 39.2485 32.8544 39.1206 33.7953 38.6599C34.867 38.1224 35.625 37.3034 35.9909 36.2028C36.3307 35.2302 36.2784 34.0785 35.9386 33.1059Z" fill="white"/>
<path d="M46.1524 31.1863C45.4729 31.0327 44.7933 30.8792 44.0875 30.8536C43.5125 31.5702 43.225 32.4148 43.0682 33.3106C42.8852 34.232 42.9113 35.2046 42.8591 36.1516C42.8068 37.4313 42.9113 38.6599 43.0682 39.8628C42.9898 40.0164 42.7545 40.1188 42.5715 40.0164C42.1272 39.4789 42.0227 38.7878 41.9965 38.0968C41.9704 36.5611 41.9442 34.9487 42.1795 33.4386C42.3363 32.466 42.6238 31.5702 43.225 30.7512C41.6044 30.6744 40.1146 31.0072 38.6247 31.4167C38.4156 31.3911 38.1804 31.2631 38.0497 31.0583C37.9974 30.8792 38.102 30.7768 38.2065 30.7256L38.3633 30.6744L38.494 30.6232C39.5918 30.1881 40.9249 29.9578 42.2056 29.9322C43.5125 29.881 44.8194 30.009 45.9695 30.4185C46.1002 30.4697 46.3354 30.6488 46.4138 30.8024C46.44 30.9816 46.3093 31.2119 46.1524 31.1863Z" fill="white"/>
<path d="M61.4151 43.3436C61.0753 43.574 60.0821 44.1371 59.5855 44.0859C59.4548 44.0347 59.3764 43.8043 59.5071 43.7532C60.631 43.1133 61.8856 42.1663 62.8266 40.9378C62.8789 40.861 62.8789 40.6818 62.8266 40.6306C62.3038 40.2467 61.8333 39.786 61.4935 39.1974C61.2844 38.8134 61.1276 38.3783 61.1276 37.892C60.5003 38.5063 59.7423 38.967 58.9582 39.3253C58.174 39.6581 57.3638 39.8884 56.5012 40.0676C56.083 40.0932 55.6648 39.9652 55.3511 39.6325C54.9852 39.2485 54.9852 38.7367 54.9329 38.2504C54.6716 35.7421 55.0636 33.3362 55.7955 31.0839C55.8478 30.8024 56.3705 30.7256 56.5273 31.0583C56.6842 31.3399 56.5273 31.7494 56.4489 32.0309C55.8478 34.1297 55.6125 36.4588 55.8739 38.7878C55.9 39.0182 56.1353 39.1974 56.3967 39.2229C57.024 39.2485 58.2002 38.7878 58.7752 38.5575C59.69 38.1736 60.6049 37.7385 61.0753 36.8171C61.0231 34.5904 61.389 32.3125 62.0424 30.2393C62.2777 29.8298 62.6698 30.1625 62.8004 30.4185C62.7743 30.8024 62.6959 31.1351 62.6175 31.4934C62.5391 31.8262 62.4606 32.1589 62.3822 32.5172C62.0424 34.3856 61.8333 36.4332 62.0163 38.3271C62.1731 39.0694 62.8789 39.6325 63.5062 40.0932C63.7153 40.3235 63.7937 40.6562 63.7153 40.9634C63.2187 41.936 62.3561 42.755 61.4151 43.3436Z" fill="white"/>
<path d="M68.6492 40.0164C67.3423 39.9652 66.14 39.3765 65.382 38.276C64.7547 37.3546 64.5978 36.2796 64.7285 35.2302C64.8853 34.0529 65.382 32.9267 66.0616 32.0565C66.8195 31.0839 67.8912 30.3161 69.1197 30.0858C69.9561 29.9322 70.8448 30.009 71.4721 30.6744C71.7596 30.9816 72.021 31.3143 72.021 31.7238C72.0471 32.1589 71.838 32.5428 71.4721 32.8244C69.6424 34.3088 67.7082 35.6909 65.7218 36.8171C65.774 37.6105 66.4798 38.4295 67.2378 38.839C67.9958 39.2485 68.8844 39.2997 69.7209 39.1974C70.5573 39.1206 71.4198 38.839 72.021 38.5575C72.1255 38.4807 72.204 38.5575 72.2301 38.6343C72.2562 38.6855 72.3085 38.7878 72.204 38.8646C71.2891 39.6836 69.9822 40.0676 68.6492 40.0164ZM69.7993 30.8792C69.0413 30.8792 68.2833 31.1863 67.6821 31.647C66.4013 32.6708 65.6433 34.3088 65.6433 35.8957C67.4991 34.8975 69.2504 33.5922 70.9493 32.2357C71.08 32.1333 71.1846 31.7494 71.0016 31.4423C70.7925 31.0327 70.322 30.8792 69.7993 30.8792Z" fill="white"/>
<path d="M81.3543 34.232C81.1713 36.0492 81.2759 38.1736 81.4065 39.9652C81.4327 40.1443 81.1713 40.1699 81.0406 40.0932C80.6747 39.8116 80.4917 39.0694 80.4656 38.6087C80.3872 37.1754 80.3872 35.8445 80.4656 34.4112C78.5314 34.488 76.4403 34.4368 74.5323 34.6416C74.4539 36.3564 74.5061 37.9944 74.5845 39.6325C74.6107 39.6836 74.5061 39.7604 74.3754 39.786C74.297 39.786 74.1663 39.7604 74.0879 39.6836C73.7481 39.3509 73.6697 38.7367 73.6436 38.3271C73.5129 35.7421 73.6959 33.1571 73.9572 30.6232C74.0095 30.4697 74.2448 30.3161 74.4539 30.4441C74.7414 30.5721 74.7414 30.9048 74.7937 31.1607C74.7414 31.8262 74.663 32.9523 74.5845 33.7458C76.4926 33.6178 78.6098 33.6946 80.5179 33.669C80.6224 32.4148 80.6747 31.1607 80.9883 29.9834C81.119 29.8298 81.3804 29.9322 81.5372 30.0858C81.6679 30.2393 81.7463 30.5465 81.7463 30.7256C81.6156 31.6982 81.4327 32.6452 81.4065 33.6434C81.485 33.6434 81.5634 33.6178 81.6418 33.6178C81.6941 33.6178 81.7725 33.669 81.7725 33.7969C81.7725 33.8481 81.7725 33.9505 81.7202 34.0017C81.6418 34.1041 81.485 34.1809 81.3543 34.232Z" fill="white"/>
<path d="M91.1791 31.1863C90.4995 31.0327 89.8199 30.8792 89.1142 30.8536C88.5391 31.5702 88.2516 32.4148 88.0948 33.3106C87.9118 34.232 87.938 35.2046 87.8857 36.1516C87.8334 37.4313 87.938 38.6599 88.0948 39.8628C88.0164 40.0164 87.7811 40.1188 87.5982 40.0164C87.1538 39.4789 87.0493 38.7878 87.0231 38.0968C86.997 36.5611 86.9709 34.9487 87.2061 33.4386C87.3629 32.466 87.6504 31.5702 88.2516 30.7512C86.6311 30.6744 85.1412 31.0072 83.6513 31.4167C83.4422 31.3911 83.207 31.2631 83.0763 31.0583C83.024 30.8792 83.1286 30.7768 83.2331 30.7256L83.39 30.6744L83.5206 30.6232C84.6184 30.1881 85.9515 29.9578 87.2322 29.9322C88.5391 29.881 89.846 30.009 90.9961 30.4185C91.1268 30.4697 91.362 30.6488 91.4404 30.8024C91.4666 30.9816 91.3359 31.2119 91.1791 31.1863Z" fill="white"/>
<path d="M93.7042 31.1863H93.5735C93.4951 31.1863 93.3906 31.1351 93.3644 31.0072C93.3383 30.8024 93.4167 30.6232 93.5735 30.4697C93.9917 30.1114 94.4622 29.9578 94.985 29.9834C95.3509 30.009 95.7168 30.0602 96.0828 30.1881L97.076 30.5209C98.4874 30.9816 99.7159 32.2101 100.396 33.541C100.761 34.2832 100.892 35.0511 100.709 35.8957C100.526 36.6635 100.056 37.3802 99.4284 37.9688C97.8601 39.4277 95.8998 39.8628 93.7304 39.8628C93.7042 41.6032 93.5997 43.5484 93.8349 45.2632C93.8349 45.34 93.8872 45.4424 93.9395 45.5192C93.9656 45.6471 94.0179 45.7495 93.9133 45.9031C93.7042 46.0567 93.4951 46.0055 93.3121 45.9031C93.0508 45.6215 92.9462 45.3144 92.9201 44.9561C92.7371 43.1389 92.8155 41.3729 92.9201 39.5301C92.6848 39.3253 92.3189 39.0438 92.2405 38.7367C92.2405 38.6343 92.2666 38.5319 92.3189 38.4807C92.3973 38.3527 92.5019 38.3271 92.5541 38.3783C92.6326 38.4551 92.7894 38.5575 92.9201 38.6343C93.0769 36.0748 93.2599 33.6434 93.7042 31.1863ZM98.8795 32.8499C98.3045 32.1589 97.4942 31.6726 96.7101 31.3399C96.2657 31.1351 95.0111 30.6744 94.5406 30.8792C94.5668 31.2375 94.5145 31.8774 94.4622 32.1589C94.0963 34.3344 93.861 36.6635 93.8349 38.967C95.6384 39.095 97.3635 38.5575 98.7488 37.3802C99.5068 36.7403 99.9512 35.8445 99.8728 34.9231C99.8205 34.1553 99.3239 33.3874 98.8795 32.8499Z" fill="white"/>
<path d="M106.861 39.914C105.423 40.2979 103.75 40.2723 102.626 39.3253C102.104 38.8902 101.712 38.2504 101.685 37.5593C101.659 36.945 101.921 36.382 102.287 35.8701C103.097 34.7439 104.508 33.9761 105.868 33.8225C106.443 33.7713 106.965 33.8481 107.384 34.2576C107.514 34.3856 107.384 34.6416 107.253 34.6927H107.018C106.939 34.6927 106.835 34.6671 106.756 34.6671C106.573 34.6416 106.416 34.616 106.312 34.6927C105.057 34.7439 103.829 35.3326 103.071 36.3308C102.731 36.7659 102.548 37.0986 102.6 37.6361C102.653 38.3527 103.201 38.8902 103.959 39.1462C105.031 39.5301 106.364 39.2997 107.384 38.9414C107.932 38.7367 108.429 38.5319 108.9 38.1992C109.004 38.1224 109.109 38.1992 109.161 38.3271C109.187 38.4295 109.187 38.5319 109.187 38.6087C108.821 39.2997 107.357 39.786 106.861 39.914ZM108.324 38.1736C108.194 38.3271 107.959 38.3016 107.854 38.2248C107.593 38.0456 107.593 37.7129 107.593 37.4569C107.619 37.0218 107.697 36.5867 107.802 36.126L108.142 34.7183C108.351 33.7969 108.481 32.8755 108.194 32.1077C107.959 31.4423 107.384 30.7768 106.678 30.7C106.077 30.6232 105.475 30.828 104.979 31.1863C104.717 31.3655 104.142 31.8518 103.986 32.1333C103.959 32.2357 104.012 32.4148 104.116 32.5172C104.221 32.6196 104.142 32.9267 103.907 32.8755C103.724 32.8244 103.515 32.7732 103.358 32.6452C103.149 32.466 103.071 32.1333 103.228 31.8774C103.672 31.1351 104.299 30.5209 105.11 30.1625C105.632 29.9066 106.26 29.8042 106.913 29.9066C107.697 30.0346 108.377 30.5976 108.769 31.3143C109.37 32.4148 109.292 33.7969 109.004 35.0255C108.743 36.0748 108.481 37.0474 108.324 38.1736Z" fill="white"/>
<path d="M126.996 43.8555C126.917 44.0603 126.656 44.0603 126.525 43.9835C126.238 43.7276 126.238 43.3692 126.211 43.0109C126.133 41.936 126.028 40.7586 126.159 39.6581C123.702 39.4277 121.088 39.5557 118.736 39.9908C118.631 41.2961 118.684 42.6782 118.893 43.9323C118.867 44.0603 118.684 44.265 118.475 44.1371C118.239 44.0347 118.135 43.8299 118.083 43.6508L117.952 43.0877C117.9 42.5246 117.847 41.9616 117.821 41.4241C117.795 40.861 117.795 40.2979 117.847 39.8116C117.873 39.6069 118.056 39.4021 118.239 39.2741L118.971 39.1206C120.487 36.6379 121.742 34.0785 122.84 31.4167C122.866 31.2887 122.918 30.9304 122.813 30.8024C122.735 30.4697 122.944 30.2905 123.153 30.1369C123.99 30.009 124.931 30.0346 125.662 30.4441C125.95 30.5721 126.081 30.8536 126.133 31.1351C126.133 32.466 126.159 35.2302 126.185 36.5867C126.29 37.329 126.185 38.0968 126.133 38.839C126.185 38.8646 126.264 38.8646 126.368 38.8646C126.525 38.8902 126.63 38.8646 126.708 38.8646C126.943 38.8902 127.152 39.0438 127.152 39.2485C126.943 40.7842 126.917 42.3455 126.996 43.8555ZM125.375 38.0968C125.349 37.8409 125.323 37.6105 125.323 37.329C125.323 35.8189 125.297 32.8499 125.27 31.3399C125.166 31.1351 124.983 31.0327 124.774 30.9816C124.408 30.8792 123.964 30.9048 123.571 30.9304C123.676 31.2887 123.598 31.6726 123.519 32.0053C122.474 34.3856 121.376 36.7659 119.964 38.9926C121.69 38.7878 123.493 38.7111 125.349 38.7878C125.375 38.5575 125.375 38.3271 125.375 38.0968Z" fill="white"/>
<path d="M134.347 39.4021C133.171 39.9908 131.76 40.2467 130.479 39.6325C129.486 39.1462 128.78 38.3271 128.44 37.3034C128.048 36.1004 128.179 34.7439 128.702 33.6178C129.094 32.7988 129.695 32.0821 130.401 31.5446C130.871 31.2119 131.577 30.8024 132.23 30.7256C132.753 30.1369 133.616 29.9578 134.347 30.1369C135.602 30.4697 136.674 31.7238 137.013 32.8244C137.353 33.8993 137.432 35.0767 137.118 36.1772C136.726 37.6617 135.733 38.7367 134.347 39.4021ZM136.151 33.1059C135.837 32.2613 135.132 31.3143 134.217 31.0072C133.799 30.8536 133.354 30.8024 133.014 31.0583C132.675 31.3143 132.465 31.7238 132.309 32.0821C132.283 32.1589 132.283 32.2613 132.283 32.3637C132.283 32.466 132.283 32.594 132.256 32.6964C132.23 32.7476 131.969 32.9011 131.89 32.7476C131.838 32.5172 131.786 32.0565 131.812 31.6982C130.819 32.1077 129.982 32.9523 129.512 33.8993C129.015 34.8975 128.989 36.0492 129.303 37.073C129.564 37.8664 130.061 38.5319 130.897 38.8646C131.943 39.2485 133.067 39.1206 134.008 38.6599C135.079 38.1224 135.837 37.3034 136.203 36.2028C136.543 35.2302 136.491 34.0785 136.151 33.1059Z" fill="white"/>
<path d="M156.698 32.2101C156.541 34.4112 156.671 36.7147 156.907 38.7622C156.959 38.967 156.619 38.9926 156.515 38.9158C156.41 38.8134 156.332 38.6855 156.279 38.5575L156.175 38.148C155.6 35.9213 155.704 33.541 155.861 31.2119C156.018 29.0364 156.384 26.8609 156.776 24.8645C155.469 24.4806 154.084 24.199 152.672 24.0199C151.548 23.8663 150.398 23.7895 149.248 23.8919C149.144 23.8919 148.987 23.9431 148.856 23.9687C148.699 24.0199 148.569 24.0455 148.49 24.0967C148.307 24.1479 148.046 23.9687 148.124 23.7383C148.255 23.4056 148.595 23.1497 148.908 23.0729C149.484 22.9961 150.085 22.9961 150.686 23.0473C151.287 23.0729 151.94 23.1497 152.489 23.2009C154.136 23.38 155.757 23.6104 157.22 24.0455C157.482 24.1223 157.639 24.327 157.743 24.583C157.299 27.0912 156.907 29.5739 156.698 32.2101ZM147.497 24.9925C147.392 25.0693 147.157 25.402 147.105 25.5811C146.87 27.3983 146.817 29.3179 146.87 31.2375C146.948 33.7969 147.236 36.3564 147.445 38.7878L147.392 39.3765C147.366 39.5813 147.314 39.786 147.131 39.914C147.027 40.0164 146.713 39.9652 146.661 39.7604C146.478 36.7659 145.981 33.7969 145.955 30.7C145.929 28.9852 145.981 27.1936 146.216 25.4788C146.373 25.146 146.399 24.7365 146.634 24.4294C146.765 24.3014 147.027 24.1735 147.236 24.3014C147.34 24.3526 147.523 24.4806 147.602 24.583C147.732 24.7109 147.628 24.9413 147.497 24.9925Z" fill="white"/>
<path d="M162.991 40.0164C161.684 39.9652 160.481 39.3765 159.723 38.276C159.096 37.3546 158.939 36.2796 159.07 35.2302C159.227 34.0529 159.723 32.9267 160.403 32.0565C161.161 31.0839 162.233 30.3161 163.461 30.0858C164.298 29.9322 165.186 30.009 165.814 30.6744C166.101 30.9816 166.362 31.3143 166.362 31.7238C166.389 32.1589 166.18 32.5428 165.814 32.8244C163.984 34.3088 162.05 35.6909 160.063 36.8171C160.116 37.6105 160.821 38.4295 161.579 38.839C162.337 39.2485 163.226 39.2997 164.062 39.1974C164.899 39.1206 165.761 38.839 166.362 38.5575C166.467 38.4807 166.545 38.5575 166.572 38.6343C166.598 38.6855 166.65 38.7878 166.545 38.8646C165.631 39.6836 164.324 40.0676 162.991 40.0164ZM164.141 30.8792C163.383 30.8792 162.625 31.1863 162.024 31.647C160.743 32.6708 159.985 34.3088 159.985 35.8957C161.841 34.8975 163.592 33.5922 165.291 32.2357C165.422 32.1333 165.526 31.7494 165.343 31.4423C165.134 31.0327 164.663 30.8792 164.141 30.8792Z" fill="white"/>
<path d="M179.303 39.8628C178.963 39.5045 178.728 39.0694 178.675 38.5575C177.604 39.095 176.558 39.5045 175.33 39.5301C174.859 39.5301 174.363 39.4789 174.023 39.1206C173.709 38.7878 173.657 38.3783 173.579 37.9688C172.559 38.7623 171.488 39.5045 170.259 39.7604C169.579 39.914 169.057 39.9396 168.612 39.2997C168.246 38.7878 168.09 37.4825 168.037 36.8427C167.881 34.5904 168.168 32.3637 168.717 30.3673C168.769 30.1881 168.926 29.9578 169.057 29.9578C169.24 29.9578 169.449 30.0602 169.527 30.2649C169.527 30.6488 169.475 31.0072 169.396 31.3399C169.292 31.6982 169.214 32.0309 169.161 32.3893C169.031 33.3362 168.874 34.3088 168.874 35.2814C168.874 36.4588 168.978 37.6105 169.292 38.7111C169.423 39.0438 169.841 39.0438 170.181 38.9414C171.383 38.6343 172.455 37.9176 173.422 37.0474C173.291 35.1278 173.317 32.9011 173.84 31.2119C173.892 31.1095 174.075 31.0583 174.258 31.1095C174.363 31.1607 174.546 31.2631 174.546 31.4167C174.389 32.6964 174.206 34.0785 174.232 35.4094C174.232 36.4332 174.363 37.4569 174.624 38.3783C174.676 38.6087 174.99 38.7111 175.304 38.7111C176.349 38.6599 177.708 38.3016 178.597 37.7641C178.31 35.2302 178.519 32.5684 179.015 30.1881C179.198 30.009 179.486 30.009 179.616 30.1881C179.799 30.3673 179.747 30.6488 179.721 30.8792V31.0839C179.277 34.0785 179.251 36.8427 179.747 39.8372C179.669 40.0164 179.46 39.9652 179.303 39.8628Z" fill="white"/>
<path d="M190.085 39.9652C188.831 39.2741 187.55 38.7878 186.217 38.3271C184.91 37.8664 183.656 37.4058 182.401 36.8683C182.375 37.7897 182.505 38.7367 182.741 39.5813C182.819 39.7348 182.767 40.0164 182.532 40.0164C182.323 40.0164 182.192 39.8884 182.113 39.7604C182.035 39.6581 181.983 39.5045 181.904 39.3765C181.617 38.4551 181.512 37.4569 181.512 36.4332C181.434 36.382 181.329 36.3052 181.277 36.1772C181.199 36.1004 181.172 35.9469 181.251 35.8189C181.355 35.7421 181.46 35.5885 181.486 35.4862C181.538 35.1534 181.512 34.3856 181.591 34.0529C181.695 33.4642 181.852 32.7476 182.009 32.0309C182.192 31.3143 182.453 30.5976 182.793 29.9834C182.95 29.7274 183.342 29.7786 183.42 30.0602C183.394 30.3929 183.29 30.7 183.185 31.0072C183.107 31.2887 182.95 31.5958 182.871 31.903C182.61 32.8244 182.453 33.7713 182.427 34.7439C183.368 33.9249 184.309 33.1571 185.276 32.4404C186.478 31.5702 187.759 30.828 189.118 30.2905C189.327 30.2905 189.589 30.2905 189.746 30.4185C189.902 30.5209 189.903 30.6744 189.824 30.8536C188.439 31.4167 187.184 32.1589 185.903 33.0291C184.701 33.8737 183.499 34.8463 182.375 35.8957V35.9213C183.656 36.6123 185.067 37.073 186.426 37.5337C187.629 37.9432 188.779 38.4039 189.876 39.095C190.112 39.2229 190.295 39.4021 190.425 39.6325C190.451 39.786 190.242 39.9908 190.085 39.9652Z" fill="white"/>
<path d="M197.267 39.4021C196.091 39.9908 194.68 40.2467 193.399 39.6325C192.406 39.1462 191.7 38.3271 191.36 37.3034C190.968 36.1004 191.099 34.7439 191.621 33.6178C192.014 32.7988 192.615 32.0821 193.32 31.5446C193.791 31.2119 194.497 30.8024 195.15 30.7256C195.673 30.1369 196.535 29.9578 197.267 30.1369C198.522 30.4697 199.594 31.7238 199.933 32.8244C200.273 33.8993 200.352 35.0767 200.038 36.1772C199.646 37.6617 198.653 38.7367 197.267 39.4021ZM199.071 33.1059C198.757 32.2613 198.051 31.3143 197.137 31.0072C196.718 30.8536 196.274 30.8024 195.934 31.0583C195.594 31.3143 195.385 31.7238 195.229 32.0821C195.202 32.1589 195.202 32.2613 195.202 32.3637C195.202 32.466 195.202 32.594 195.176 32.6964C195.15 32.7476 194.889 32.9011 194.81 32.7476C194.758 32.5172 194.706 32.0565 194.732 31.6982C193.739 32.1077 192.902 32.9523 192.432 33.8993C191.935 34.8975 191.909 36.0492 192.223 37.073C192.484 37.8664 192.981 38.5319 193.817 38.8646C194.863 39.2485 195.987 39.1206 196.927 38.6599C197.999 38.1224 198.757 37.3034 199.123 36.2028C199.463 35.2302 199.411 34.0785 199.071 33.1059Z" fill="white"/>
<path d="M206.54 39.3253C205.756 39.8372 204.789 40.2467 203.822 40.2467C203.273 40.2467 202.881 40.0164 202.515 39.5045C202.384 39.6069 202.149 39.6836 202.044 39.5301C201.574 38.8902 201.443 37.9944 201.417 37.1242C201.365 34.8975 201.391 33.2595 201.992 31.2631C202.044 31.0583 202.541 30.6744 202.907 30.7768C203.064 30.3673 203.482 29.9322 203.979 29.881C205.312 29.881 206.749 30.5721 207.194 31.8774C207.324 32.2869 207.324 32.722 207.167 33.1315C207.011 33.5154 206.749 33.8481 206.409 34.1041L206.253 34.232C206.906 34.4368 207.638 34.8463 208.056 35.4862C208.37 35.9725 208.396 36.5611 208.265 37.1242C208.03 38.0456 207.35 38.7878 206.54 39.3253ZM207.272 35.9213C207.063 35.5374 206.488 35.307 206.07 35.1023C205.573 34.7951 205.129 34.9231 204.632 35.0255L203.848 35.2046C203.56 35.2814 203.273 35.2814 202.959 35.2046C202.829 35.1278 202.672 34.8719 202.802 34.7439C203.116 34.4368 203.508 34.2832 203.952 34.1809L205.155 34.0529C205.625 33.7969 206.122 33.2851 206.331 32.7988C206.462 32.3892 206.383 32.1077 206.122 31.775C205.651 31.1351 204.893 30.8536 204.135 30.7768C203.9 30.7512 203.822 30.8024 203.769 30.956C203.691 31.1607 203.639 31.3911 203.508 31.5702C203.456 31.6982 203.273 31.7494 203.142 31.6726C203.038 31.647 202.959 31.5958 202.907 31.5446C202.593 32.6452 202.41 33.8993 202.358 35.2046C202.306 36.4332 202.358 37.6361 202.541 38.7622C202.75 38.5319 203.011 38.1992 203.142 38.02C203.325 37.8409 203.665 38.1224 203.613 38.3016C203.56 38.4295 203.456 38.5831 203.377 38.7111C203.325 38.8646 203.247 38.9926 203.247 39.095C203.404 39.3253 203.769 39.4021 204.214 39.3509C204.867 39.2485 205.651 38.8902 206.226 38.4551C206.749 38.0456 207.194 37.5337 207.324 36.8939C207.403 36.5867 207.455 36.2284 207.272 35.9213Z" fill="white"/>
<path d="M215.416 39.4021C214.24 39.9908 212.828 40.2467 211.547 39.6325C210.554 39.1462 209.848 38.3271 209.509 37.3034C209.117 36.1004 209.247 34.7439 209.77 33.6178C210.162 32.7988 210.763 32.0821 211.469 31.5446C211.939 31.2119 212.645 30.8024 213.299 30.7256C213.821 30.1369 214.684 29.9578 215.416 30.1369C216.67 30.4697 217.742 31.7238 218.082 32.8244C218.422 33.8993 218.5 35.0767 218.186 36.1772C217.794 37.6617 216.801 38.7367 215.416 39.4021ZM217.219 33.1059C216.906 32.2613 216.2 31.3143 215.285 31.0072C214.867 30.8536 214.423 30.8024 214.083 31.0583C213.743 31.3143 213.534 31.7238 213.377 32.0821C213.351 32.1589 213.351 32.2613 213.351 32.3637C213.351 32.466 213.351 32.594 213.325 32.6964C213.299 32.7476 213.037 32.9011 212.959 32.7476C212.907 32.5172 212.854 32.0565 212.88 31.6982C211.887 32.1077 211.051 32.9523 210.58 33.8993C210.084 34.8975 210.057 36.0492 210.371 37.073C210.633 37.8664 211.129 38.5319 211.966 38.8646C213.011 39.2485 214.135 39.1206 215.076 38.6599C216.148 38.1224 216.906 37.3034 217.272 36.2028C217.611 35.2302 217.559 34.0785 217.219 33.1059Z" fill="white"/>
<path d="M227.485 29.1388C226.257 31.1095 224.845 33.0547 223.721 35.1278C223.591 35.2302 223.356 35.179 223.303 35.0511C223.251 34.7695 223.277 34.5136 223.356 34.3088C223.408 34.0785 223.486 33.8993 223.565 33.669C224.453 32.0821 225.551 30.572 226.518 29.0364C226.806 28.5501 226.963 27.9102 226.91 27.2704C226.884 26.8097 226.701 26.349 226.388 25.9651C225.76 25.1972 224.976 24.6086 224.114 24.327C223.539 24.1223 222.937 24.0711 222.284 24.199C221.866 24.2758 221.5 24.455 221.134 24.7877C220.794 25.0949 220.507 25.4788 220.376 25.9139C220.219 26.0418 219.931 26.0418 219.853 25.8115C219.775 25.4788 219.905 25.1972 220.01 24.8901C220.454 24.1479 221.082 23.636 221.813 23.38C222.441 23.1753 223.068 23.1241 223.721 23.2265C224.479 23.3544 225.159 23.6616 225.786 24.0967C226.414 24.5318 226.963 25.0948 227.381 25.7859C227.721 26.2978 227.877 26.9888 227.851 27.6543C227.851 28.1662 227.747 28.7293 227.485 29.1388ZM225.813 40.1955C225.159 40.1955 224.506 40.042 223.931 39.7604C223.329 39.4533 222.807 39.0694 222.415 38.5063C222.31 38.3527 222.284 38.0968 222.336 37.892C222.388 37.6873 222.545 37.5593 222.807 37.6617L223.434 38.3271C223.643 38.5319 223.878 38.7367 224.087 38.8902C224.689 39.3253 225.447 39.5557 226.205 39.786C226.283 39.9652 225.995 40.1443 225.813 40.1955Z" fill="white"/>
<path d="M237.075 28.243C236.944 28.3965 236.814 28.5245 236.604 28.6525C236.343 28.6781 236.134 28.6525 235.951 28.5501C235.376 28.2941 234.722 27.8846 234.252 27.5519C234.226 28.3709 234.147 29.2155 234.252 30.009C234.2 30.4185 233.729 30.2393 233.677 30.1369C233.625 30.0858 233.572 30.0346 233.546 29.9578C233.494 29.9066 233.442 29.8298 233.416 29.753C233.363 29.5227 233.363 29.2923 233.363 29.0876C233.389 28.6525 233.416 28.1918 233.416 27.7567C232.814 28.3197 232.083 28.806 231.298 29.0876C231.115 29.1132 230.828 29.1132 230.619 28.934C230.305 28.6781 230.593 28.243 230.959 28.0126L231.142 28.3453C231.325 28.2941 231.508 28.1662 231.69 28.0894C232.239 27.7567 232.788 27.2704 233.233 26.7841C232.396 26.1186 231.56 25.2996 230.854 24.5574C230.671 24.4038 230.749 24.1735 230.828 24.0455C231.063 23.7383 231.429 23.9431 231.508 24.0199C232.109 24.6597 232.736 25.274 233.389 25.8627C233.389 25.1716 233.416 24.4806 233.363 23.8407L233.154 23.2521C233.128 23.0985 233.233 22.7402 233.572 22.7658C233.808 22.8425 233.938 23.0217 234.043 23.2265L234.121 23.4056C234.2 23.5848 234.252 23.9175 234.252 24.0967V25.5044L234.33 25.3764L234.879 24.6597C235.062 24.4038 235.324 24.199 235.637 24.0199C236.055 23.7895 236.84 24.0199 236.604 24.7877C236.421 24.7621 236.369 24.7365 236.291 24.7109C236.238 24.7109 236.186 24.6853 236.082 24.6597C235.925 24.6086 235.402 25.2996 235.324 25.402C235.01 25.8115 234.749 26.2466 234.409 26.6817C235.036 27.1424 235.716 27.5519 236.474 27.9102C236.526 27.8334 236.578 27.8079 236.631 27.7823C236.683 27.7311 236.735 27.7055 236.918 27.6287C237.127 27.8335 237.153 27.987 237.127 28.0894C237.101 28.1406 237.075 28.1662 237.075 28.243Z" fill="white"/>
<path d="M247.234 28.243C247.103 28.3965 246.973 28.5245 246.763 28.6525C246.502 28.6781 246.293 28.6525 246.11 28.5501C245.535 28.2941 244.882 27.8846 244.411 27.5519C244.385 28.3709 244.307 29.2155 244.411 30.009C244.359 30.4185 243.888 30.2393 243.836 30.1369C243.784 30.0858 243.731 30.0346 243.705 29.9578C243.653 29.9066 243.601 29.8298 243.575 29.753C243.522 29.5227 243.522 29.2923 243.522 29.0876C243.548 28.6525 243.575 28.1918 243.575 27.7567C242.973 28.3197 242.242 28.806 241.457 29.0876C241.274 29.1132 240.987 29.1132 240.778 28.934C240.464 28.6781 240.752 28.243 241.118 28.0126L241.301 28.3453C241.484 28.2941 241.667 28.1662 241.85 28.0894C242.398 27.7567 242.947 27.2704 243.392 26.7841C242.555 26.1186 241.719 25.2996 241.013 24.5574C240.83 24.4038 240.909 24.1735 240.987 24.0455C241.222 23.7383 241.588 23.9431 241.667 24.0199C242.268 24.6597 242.895 25.274 243.548 25.8627C243.548 25.1716 243.575 24.4806 243.522 23.8407L243.313 23.2521C243.287 23.0985 243.392 22.7402 243.731 22.7658C243.967 22.8425 244.097 23.0217 244.202 23.2265L244.28 23.4056C244.359 23.5848 244.411 23.9175 244.411 24.0967V25.5044L244.489 25.3764L245.038 24.6597C245.221 24.4038 245.483 24.199 245.796 24.0199C246.215 23.7895 246.999 24.0199 246.763 24.7877C246.581 24.7621 246.528 24.7365 246.45 24.7109C246.398 24.7109 246.345 24.6853 246.241 24.6597C246.084 24.6086 245.561 25.2996 245.483 25.402C245.169 25.8115 244.908 26.2466 244.568 26.6817C245.195 27.1424 245.875 27.5519 246.633 27.9102C246.685 27.8334 246.737 27.8079 246.79 27.7823C246.842 27.7311 246.894 27.7055 247.077 27.6287C247.286 27.8335 247.312 27.987 247.286 28.0894C247.26 28.1406 247.234 28.1662 247.234 28.243Z" fill="white"/>
<path d="M39.0229 4.97767C38.6831 6.30858 38.5263 7.74186 38.3695 9.14955C38.2388 10.1221 38.1865 11.0947 38.1604 12.0929C38.1081 13.5518 38.1081 15.0107 38.0558 16.4951C37.9774 16.7511 37.7683 16.9046 37.5331 16.9046C37.1933 16.9046 37.0364 16.5719 36.958 16.2904L36.8535 16.0856C36.2 13.4238 35.4159 10.8388 34.4488 8.30494C34.0044 7.102 33.5862 5.92466 33.1158 4.74732C32.6453 3.59557 32.1225 2.44383 31.4952 1.29208C31.4691 1.29208 31.4429 1.24089 31.4429 1.26648C30.7372 3.51879 30.2406 5.79669 30.0053 8.20256C29.7962 10.3781 29.7701 12.6048 29.8485 14.8571C29.9008 15.1642 29.9008 15.497 29.9531 15.8297C29.9792 16.1368 30.0315 16.444 30.136 16.7255C30.1622 16.9046 30.0315 17.0326 29.8747 17.0838C29.4042 16.9814 29.2996 16.5975 29.2212 16.188L29.1428 15.8297C28.9337 13.9613 28.9076 12.0417 29.0121 10.1221C29.1428 7.84424 29.4826 5.56634 29.9531 3.4676C30.2144 2.36704 30.5542 1.21529 30.9986 0.19152C31.077 0.0123581 31.3907 -0.064424 31.5736 0.0635477C31.7304 0.19152 31.8089 0.345085 31.9134 0.524247C32.5669 1.54802 33.0896 2.62298 33.534 3.69795L34.867 6.97403C35.8602 9.43109 36.6705 11.9649 37.3501 14.55C37.3762 12.3744 37.4024 10.0965 37.6376 7.94662C37.8206 6.07823 38.2126 4.23543 38.9968 2.62298C39.0491 2.52061 39.1013 2.39264 39.1797 2.29026C39.3627 1.93194 39.6241 1.54802 40.1207 1.57362C40.4082 1.72718 40.3037 2.00872 40.173 2.18788C39.598 3.0325 39.2843 3.97949 39.0229 4.97767ZM45.5574 13.3214C44.9562 13.8589 44.2244 14.2172 43.3095 14.1405C42.5254 14.0637 41.8197 13.6286 41.4276 13.0399C40.7219 12.0161 40.5651 10.7364 40.7742 9.55906C40.931 8.71445 41.3492 7.63948 41.8981 6.97403C42.0811 6.84606 42.2379 6.6669 42.4993 6.69249C42.7084 6.76927 42.7345 6.97403 42.6561 7.102C42.1595 7.92102 41.689 8.9448 41.5583 9.99417C41.4537 10.9923 41.5844 11.9905 42.2117 12.784C42.6038 13.2702 43.2834 13.4494 43.9368 13.3214C45.2437 12.9119 45.8972 11.709 46.1324 10.634C46.3415 9.76382 46.3154 8.81683 46.1063 7.94662C45.9495 7.25557 45.6097 6.61571 45.0608 6.07823C44.8255 5.84788 44.355 5.7455 44.0153 5.82228C43.6232 5.89907 43.3095 6.1806 43.1004 6.48774C42.9697 6.59011 42.7868 6.43655 42.7868 6.33417C42.8129 5.95025 43.205 5.41277 43.6232 5.23361C44.1459 4.97767 44.9562 4.97767 45.4528 5.36158C46.2893 6.00144 46.6029 6.6413 46.8643 7.53711C47.1518 8.58648 47.1779 9.71263 46.9427 10.8132C46.7336 11.7602 46.2631 12.656 45.5574 13.3214ZM42.4208 16.3416C42.264 16.3928 41.8197 16.4184 41.6106 16.4695C41.4015 16.5719 41.0878 16.5463 40.8526 16.5463C40.7219 16.4951 40.6435 16.5207 40.5389 16.4951C40.4605 16.4695 40.3821 16.444 40.3037 16.3416C40.2514 16.2392 40.2253 16.0856 40.2514 15.9577C40.2775 15.8553 40.3298 15.7529 40.4082 15.6761C40.5651 15.5226 40.6957 15.4714 40.8264 15.4458C41.0094 15.3946 41.1401 15.4202 41.2708 15.3946C41.5322 15.3946 42.0288 15.4202 42.264 15.4458C42.4208 15.5226 42.5777 15.497 42.7606 15.5481C42.9436 15.4714 44.4596 15.497 44.6948 15.5481C45.2699 15.497 45.9495 15.5481 46.4199 15.6761C46.5768 15.7273 46.9688 15.7273 47.0995 15.8809C47.0473 16.2392 46.2108 16.4184 45.8449 16.316C45.6358 16.3672 45.1653 16.2392 44.8517 16.316C44.5903 16.2648 44.0153 16.3672 43.78 16.3416C43.3618 16.316 42.7084 16.2904 42.4208 16.3416Z" fill="white"/>
<path d="M57.1314 11.0435C57.0791 11.581 57.0791 12.1185 57.1052 12.6816L57.1837 14.4476C57.2359 15.7785 57.1314 17.1606 56.5563 18.2612C56.5302 18.3379 56.4518 18.3635 56.3734 18.3891C56.3211 18.3891 56.1904 18.3891 56.1904 18.2612C56.4257 17.0326 56.3995 15.8041 56.3211 14.55C56.2688 13.4238 56.1904 12.2977 56.2688 11.1459C55.3279 11.1459 54.413 11.0179 53.5766 10.6852C52.7402 10.3525 51.9299 9.78941 51.2765 9.09836C50.4662 8.22816 49.8389 7.02522 49.4468 5.92466C49.0025 4.59375 48.8195 3.18606 48.9502 1.70159C49.0025 1.54802 49.2116 1.39446 49.3161 1.31767C49.473 1.29208 49.6821 1.42005 49.7344 1.57362C49.7082 2.98131 49.8912 4.41459 50.3094 5.66872C50.5969 6.51333 50.9628 7.28116 51.4856 7.94662C52.139 8.79123 53.0016 9.48228 54.0994 9.96857C54.7528 10.2757 55.5108 10.3525 56.2688 10.3525C56.4518 8.4585 56.4779 6.41095 56.8961 4.51697C57.0791 3.74914 57.5234 2.82774 58.4121 2.5462C58.8826 2.41823 59.4315 2.44383 59.8236 2.69977C60.0327 2.80215 59.7974 3.0325 59.6929 3.0325C59.3792 2.95571 59.0917 3.0069 58.8303 3.10928C58.5167 3.26285 58.203 3.54438 57.9939 3.85152C57.7325 4.49137 57.6019 5.18242 57.4973 5.87347C57.3928 6.59011 57.3666 7.30676 57.3143 8.0234C57.2621 8.61207 57.1837 9.71263 57.1575 10.3013C58.9349 10.1733 60.5293 9.48228 62.0714 8.68885C62.2805 8.50969 62.3851 8.86801 62.3067 8.99599C60.7907 10.1221 59.0656 10.8388 57.1314 11.0435Z" fill="white"/>
<path d="M80.1883 10.4549C77.7313 10.3525 75.2743 10.7364 72.8174 10.5572C72.3469 10.5316 71.7719 10.4037 71.4321 10.0198C71.2491 9.81501 71.4582 9.35431 71.7719 9.4055C72.8958 9.53347 74.0197 9.58466 75.1437 9.55906C76.6074 9.53347 78.1495 9.43109 79.4825 9.48228C79.7439 9.48228 80.3451 9.58466 80.5281 9.89179C80.711 10.1477 80.4758 10.4805 80.1883 10.4549Z" fill="white"/>
<path d="M95.2754 17.5701C94.4912 18.082 93.5241 18.4915 92.557 18.4915C92.0081 18.4915 91.616 18.2612 91.2501 17.7493C91.1194 17.8516 90.8842 17.9284 90.7796 17.7749C90.3092 17.135 90.1785 16.2392 90.1523 15.369C90.1 13.1423 90.1262 11.5042 90.7274 9.50787C90.7796 9.30312 91.2763 8.9192 91.6422 9.02158C91.799 8.61207 92.2172 8.17697 92.7138 8.12578C94.0469 8.12578 95.4845 8.81683 95.9288 10.1221C96.0595 10.5316 96.0595 10.9668 95.9027 11.3763C95.7458 11.7602 95.4845 12.0929 95.1447 12.3488L94.9878 12.4768C95.6413 12.6816 96.3731 13.0911 96.7913 13.7309C97.105 14.2172 97.1311 14.8059 97.0005 15.369C96.7652 16.2904 96.0856 17.0326 95.2754 17.5701ZM96.0072 14.1661C95.7981 13.7821 95.2231 13.5518 94.8049 13.347C94.3082 13.0399 93.8639 13.1679 93.3673 13.2702L92.5831 13.4494C92.2956 13.5262 92.0081 13.5262 91.6945 13.4494C91.5638 13.3726 91.4069 13.1167 91.5376 12.9887C91.8513 12.6816 92.2434 12.528 92.6877 12.4256L93.89 12.2977C94.3605 12.0417 94.8571 11.5298 95.0662 11.0435C95.1969 10.634 95.1185 10.3525 94.8571 10.0198C94.3867 9.3799 93.6287 9.09836 92.8707 9.02158C92.6354 8.99599 92.557 9.04717 92.5047 9.20074C92.4263 9.4055 92.374 9.63585 92.2434 9.81501C92.1911 9.94298 92.0081 9.99417 91.8774 9.91738C91.7729 9.89179 91.6945 9.8406 91.6422 9.78941C91.3285 10.89 91.1456 12.1441 91.0933 13.4494C91.041 14.6779 91.0933 15.8809 91.2763 17.007C91.4854 16.7767 91.7467 16.444 91.8774 16.2648C92.0604 16.0856 92.4002 16.3672 92.3479 16.5463C92.2956 16.6743 92.1911 16.8279 92.1127 16.9558C92.0604 17.1094 91.982 17.2374 91.982 17.3398C92.1388 17.5701 92.5047 17.6469 92.9491 17.5957C93.6025 17.4933 94.3867 17.135 94.9617 16.6999C95.4845 16.2904 95.9288 15.7785 96.0595 15.1386C96.1379 14.8315 96.1902 14.4732 96.0072 14.1661Z" fill="white"/>
<path d="M103.236 18.1588C101.799 18.5427 100.126 18.5171 99.0018 17.5701C98.4791 17.135 98.087 16.4951 98.0609 15.8041C98.0347 15.1898 98.2961 14.6267 98.662 14.1149C99.4723 12.9887 100.884 12.2209 102.243 12.0673C102.818 12.0161 103.341 12.0929 103.759 12.5024C103.89 12.6304 103.759 12.8863 103.628 12.9375H103.393C103.315 12.9375 103.21 12.9119 103.132 12.9119C102.949 12.8863 102.792 12.8607 102.687 12.9375C101.433 12.9887 100.204 13.5774 99.4462 14.5756C99.1064 15.0107 98.9234 15.3434 98.9757 15.8809C99.028 16.5975 99.5769 17.135 100.335 17.3909C101.407 17.7749 102.74 17.5445 103.759 17.1862C104.308 16.9814 104.804 16.7767 105.275 16.444C105.379 16.3672 105.484 16.444 105.536 16.5719C105.562 16.6743 105.562 16.7767 105.562 16.8535C105.197 17.5445 103.733 18.0308 103.236 18.1588ZM104.7 16.4184C104.569 16.5719 104.334 16.5463 104.229 16.4695C103.968 16.2904 103.968 15.9577 103.968 15.7017C103.994 15.2666 104.073 14.8315 104.177 14.3708L104.517 12.9631C104.726 12.0417 104.857 11.1203 104.569 10.3525C104.334 9.68703 103.759 9.02158 103.053 8.9448C102.452 8.86801 101.851 9.07277 101.354 9.43109C101.093 9.61025 100.518 10.0965 100.361 10.3781C100.335 10.4805 100.387 10.6596 100.492 10.762C100.596 10.8644 100.518 11.1715 100.283 11.1203C100.1 11.0691 99.8905 11.0179 99.7337 10.89C99.5246 10.7108 99.4462 10.3781 99.603 10.1221C100.047 9.3799 100.675 8.76564 101.485 8.40732C102.008 8.15137 102.635 8.04899 103.288 8.15137C104.073 8.27934 104.752 8.84242 105.144 9.55906C105.745 10.6596 105.667 12.0417 105.379 13.2702C105.118 14.3196 104.857 15.2922 104.7 16.4184Z" fill="white"/>
<path d="M119.599 18.2612C119.416 18.2356 119.311 18.1332 119.233 18.0052L119.154 17.8772C118.187 15.8297 117.769 13.5262 117.743 11.0947C117.403 11.9137 117.063 12.7072 116.671 13.5006C116.227 14.3964 115.73 15.2666 115.025 16.0856C114.711 16.4695 114.11 16.5207 113.639 16.4184C113.247 16.2392 112.986 15.8041 112.803 15.4458C111.81 13.5774 111.339 11.4786 110.843 9.43109C110.843 9.4055 110.816 9.3799 110.79 9.4055C109.17 11.7346 108.229 14.3452 107.575 17.1094C107.471 17.3653 107.706 17.5957 107.732 17.8516C107.784 18.0052 107.68 18.1588 107.471 18.2356C107.183 18.2612 106.948 18.0308 106.817 17.826C106.634 17.3909 106.66 16.9046 106.791 16.4695C107.654 13.7054 108.542 10.9668 110.372 8.56088C110.607 8.40732 110.843 8.40732 111.052 8.4585C111.313 8.4585 111.548 8.71445 111.574 8.89361C112.149 11.0947 112.62 13.347 113.744 15.3434C113.901 15.5481 114.11 15.6761 114.345 15.5993C114.946 15.0363 115.338 14.3452 115.73 13.6542C116.514 12.2465 117.063 10.762 117.665 9.22634L117.795 9.04717C117.874 8.97039 117.926 8.9192 118.057 8.9192C118.318 8.84242 118.501 9.02158 118.605 9.20074C118.553 10.7876 118.579 12.2721 118.762 13.7309C118.945 15.1898 119.285 16.6231 119.834 18.0052C119.86 18.1844 119.677 18.2612 119.599 18.2612Z" fill="white"/>
<path d="M136.31 12.4768C136.127 14.294 136.232 16.4184 136.362 18.21C136.389 18.3891 136.127 18.4147 135.997 18.3379C135.631 18.0564 135.448 17.3142 135.422 16.8535C135.343 15.4202 135.343 14.0893 135.422 12.656C133.487 12.7328 131.396 12.6816 129.488 12.8863C129.41 14.6012 129.462 16.2392 129.541 17.8772C129.567 17.9284 129.462 18.0052 129.331 18.0308C129.253 18.0308 129.122 18.0052 129.044 17.9284C128.704 17.5957 128.626 16.9814 128.6 16.5719C128.469 13.9869 128.652 11.4019 128.913 8.86801C128.965 8.71445 129.201 8.56088 129.41 8.68885C129.697 8.81683 129.697 9.14955 129.75 9.4055C129.697 10.071 129.619 11.1971 129.541 11.9905C131.449 11.8626 133.566 11.9393 135.474 11.9137C135.578 10.6596 135.631 9.4055 135.944 8.22816C136.075 8.07459 136.336 8.17697 136.493 8.33053C136.624 8.4841 136.702 8.79123 136.702 8.97039C136.572 9.94298 136.389 10.89 136.362 11.8882C136.441 11.8882 136.519 11.8626 136.598 11.8626C136.65 11.8626 136.728 11.9137 136.728 12.0417C136.728 12.0929 136.728 12.1953 136.676 12.2465C136.598 12.3488 136.441 12.4256 136.31 12.4768Z" fill="white"/>
<path d="M144.253 16.1368C143.025 18.7474 142.057 21.4349 141.117 24.1479C141.038 24.3014 140.672 24.3526 140.594 24.1479C140.463 23.9175 140.541 23.3032 140.594 23.0729C141.012 21.3325 141.77 19.72 142.397 18.0564C141.639 16.9558 140.672 15.4458 139.94 14.1405C139.025 12.4768 138.267 10.7364 137.98 8.81683C137.928 8.56088 138.085 8.30494 138.294 8.20256C138.45 8.15137 138.555 8.22816 138.633 8.30494C138.712 8.38172 138.764 8.4841 138.816 8.58648C139.078 10.1221 139.601 11.5554 140.254 12.9119C140.986 14.3708 141.848 15.7529 142.815 17.135C143.417 15.8553 144.044 14.5756 144.724 13.3214C145.403 12.0417 146.161 10.8132 147.076 9.61025C147.259 9.3799 147.52 9.12396 147.756 9.25193C147.912 9.32871 148.043 9.55906 147.912 9.73822C146.527 11.8114 145.299 13.9357 144.253 16.1368Z" fill="white"/>
<path d="M154.895 12.9631C154.895 13.0399 154.895 13.1679 154.869 13.2702C155.81 13.8589 156.673 14.6012 157.509 15.4202C158.345 16.2136 159.182 17.0838 160.018 17.8772C160.149 17.9796 159.94 18.1588 159.861 18.1588C159.443 18.0052 159.13 17.7749 158.764 17.5189C158.476 17.2886 158.163 17.007 157.823 16.7767C156.882 15.9065 155.889 15.0619 154.895 14.294C154.843 15.6249 155 16.8791 155.157 18.1844C155.104 18.3891 154.869 18.4147 154.712 18.3379C154.529 18.0564 154.451 17.7493 154.373 17.4421C154.32 17.135 154.268 16.8023 154.216 16.4951C154.059 15.5481 154.059 14.6779 154.059 13.6542L153.954 13.5774C152.674 14.4476 151.288 15.5226 150.06 16.4695C150.007 16.4695 149.929 16.4951 149.851 16.5207C149.772 16.5207 149.668 16.5207 149.615 16.444C149.511 16.3672 149.537 16.2648 149.563 16.188C149.589 16.1112 149.642 16.0344 149.694 15.9577C150.844 14.9339 152.046 13.9869 153.249 13.1423C151.994 12.2721 150.661 11.5042 149.328 10.7876C149.067 10.6084 148.727 10.3269 148.805 9.91738C148.91 9.71263 149.223 9.76382 149.354 9.8406C150.975 10.6852 152.543 11.5554 154.007 12.6304L154.085 12.5792C154.111 11.2227 154.19 9.66144 154.634 8.30494C154.843 7.99781 155.209 8.27934 155.261 8.50969C155.313 9.68703 155 10.7876 154.974 11.9649C156.673 10.9412 158.424 9.8406 160.227 8.86801C160.41 8.81683 160.541 8.81683 160.724 8.89361C160.855 8.97039 160.985 9.22634 160.855 9.43109C158.894 10.6084 156.856 11.709 154.895 12.9631Z" fill="white"/>
<path d="M165.952 18.2612C164.645 18.21 163.442 17.6213 162.684 16.5207C162.057 15.5993 161.9 14.5244 162.031 13.475C162.188 12.2977 162.684 11.1715 163.364 10.3013C164.122 9.32871 165.194 8.56088 166.422 8.33053C167.259 8.17697 168.147 8.25375 168.775 8.9192C169.062 9.22634 169.323 9.55906 169.323 9.96857C169.35 10.4037 169.14 10.7876 168.775 11.0691C166.945 12.5536 165.011 13.9357 163.024 15.0619C163.076 15.8553 163.782 16.6743 164.54 17.0838C165.298 17.4933 166.187 17.5445 167.023 17.4421C167.86 17.3653 168.722 17.0838 169.323 16.8023C169.428 16.7255 169.506 16.8023 169.533 16.8791C169.559 16.9302 169.611 17.0326 169.506 17.1094C168.592 17.9284 167.285 18.3123 165.952 18.2612ZM167.102 9.12396C166.344 9.12396 165.586 9.43109 164.985 9.89179C163.704 10.9156 162.946 12.5536 162.946 14.1405C164.802 13.1423 166.553 11.837 168.252 10.4805C168.382 10.3781 168.487 9.99417 168.304 9.68703C168.095 9.27752 167.624 9.12396 167.102 9.12396Z" fill="white"/>
<path d="M178.657 12.4768C178.474 14.294 178.578 16.4184 178.709 18.21C178.735 18.3891 178.474 18.4147 178.343 18.3379C177.977 18.0564 177.794 17.3142 177.768 16.8535C177.69 15.4202 177.69 14.0893 177.768 12.656C175.834 12.7328 173.743 12.6816 171.835 12.8863C171.756 14.6012 171.809 16.2392 171.887 17.8772C171.913 17.9284 171.809 18.0052 171.678 18.0308C171.599 18.0308 171.469 18.0052 171.39 17.9284C171.051 17.5957 170.972 16.9814 170.946 16.5719C170.815 13.9869 170.998 11.4019 171.26 8.86801C171.312 8.71445 171.547 8.56088 171.756 8.68885C172.044 8.81683 172.044 9.14955 172.096 9.4055C172.044 10.071 171.965 11.1971 171.887 11.9905C173.795 11.8626 175.912 11.9393 177.82 11.9137C177.925 10.6596 177.977 9.4055 178.291 8.22816C178.421 8.07459 178.683 8.17697 178.84 8.33053C178.97 8.4841 179.049 8.79123 179.049 8.97039C178.918 9.94298 178.735 10.89 178.709 11.8882C178.787 11.8882 178.866 11.8626 178.944 11.8626C178.996 11.8626 179.075 11.9137 179.075 12.0417C179.075 12.0929 179.075 12.1953 179.023 12.2465C178.944 12.3488 178.787 12.4256 178.657 12.4768Z" fill="white"/>
<path d="M195.756 9.43109C195.077 9.27752 194.397 9.12396 193.691 9.09836C193.116 9.81501 192.829 10.6596 192.672 11.5554C192.489 12.4768 192.515 13.4494 192.463 14.3964C192.411 15.6761 192.515 16.9046 192.672 18.1076C192.593 18.2612 192.358 18.3635 192.175 18.2612C191.731 17.7237 191.626 17.0326 191.6 16.3416C191.574 14.8059 191.548 13.1935 191.783 11.6834C191.94 10.7108 192.228 9.81501 192.829 8.99599C191.208 8.9192 189.718 9.25193 188.228 9.66144C188.019 9.63585 187.784 9.50787 187.653 9.30312C187.601 9.12396 187.706 9.02158 187.81 8.97039L187.967 8.9192L188.098 8.86801C189.196 8.43291 190.529 8.20256 191.809 8.17697C193.116 8.12578 194.423 8.25375 195.573 8.66326C195.704 8.71445 195.939 8.89361 196.018 9.04717C196.044 9.22634 195.913 9.45669 195.756 9.43109Z" fill="white"/>
<path d="M198.281 9.43109H198.151C198.072 9.43109 197.968 9.3799 197.942 9.25193C197.915 9.04717 197.994 8.86801 198.151 8.71445C198.569 8.35613 199.039 8.20256 199.562 8.22816C199.928 8.25375 200.294 8.30494 200.66 8.43291L201.653 8.76564C203.065 9.22634 204.293 10.4549 204.973 11.7858C205.339 12.528 205.469 13.2958 205.286 14.1405C205.103 14.9083 204.633 15.6249 204.006 16.2136C202.437 17.6725 200.477 18.1076 198.307 18.1076C198.281 19.848 198.177 21.7932 198.412 23.508C198.412 23.5848 198.464 23.6872 198.517 23.7639C198.543 23.8919 198.595 23.9943 198.49 24.1479C198.281 24.3014 198.072 24.2502 197.889 24.1479C197.628 23.8663 197.523 23.5592 197.497 23.2009C197.314 21.3837 197.393 19.6177 197.497 17.7749C197.262 17.5701 196.896 17.2886 196.818 16.9814C196.818 16.8791 196.844 16.7767 196.896 16.7255C196.974 16.5975 197.079 16.5719 197.131 16.6231C197.21 16.6999 197.367 16.8023 197.497 16.8791C197.654 14.3196 197.837 11.8882 198.281 9.43109ZM203.457 11.0947C202.882 10.4037 202.071 9.91738 201.287 9.58466C200.843 9.3799 199.588 8.9192 199.118 9.12396C199.144 9.48228 199.092 10.1221 199.039 10.4037C198.673 12.5792 198.438 14.9083 198.412 17.2118C200.216 17.3398 201.941 16.8023 203.326 15.6249C204.084 14.9851 204.528 14.0893 204.45 13.1679C204.398 12.4 203.901 11.6322 203.457 11.0947Z" fill="white"/>
<path d="M211.438 18.1588C210 18.5427 208.327 18.5171 207.204 17.5701C206.681 17.135 206.289 16.4951 206.263 15.8041C206.236 15.1898 206.498 14.6267 206.864 14.1149C207.674 12.9887 209.085 12.2209 210.445 12.0673C211.02 12.0161 211.542 12.0929 211.961 12.5024C212.091 12.6304 211.961 12.8863 211.83 12.9375H211.595C211.516 12.9375 211.412 12.9119 211.333 12.9119C211.15 12.8863 210.994 12.8607 210.889 12.9375C209.634 12.9887 208.406 13.5774 207.648 14.5756C207.308 15.0107 207.125 15.3434 207.177 15.8809C207.23 16.5975 207.779 17.135 208.537 17.3909C209.608 17.7749 210.941 17.5445 211.961 17.1862C212.51 16.9814 213.006 16.7767 213.477 16.444C213.581 16.3672 213.686 16.444 213.738 16.5719C213.764 16.6743 213.764 16.7767 213.764 16.8535C213.398 17.5445 211.935 18.0308 211.438 18.1588ZM212.902 16.4184C212.771 16.5719 212.536 16.5463 212.431 16.4695C212.17 16.2904 212.17 15.9577 212.17 15.7017C212.196 15.2666 212.274 14.8315 212.379 14.3708L212.719 12.9631C212.928 12.0417 213.058 11.1203 212.771 10.3525C212.536 9.68703 211.961 9.02158 211.255 8.9448C210.654 8.86801 210.053 9.07277 209.556 9.43109C209.295 9.61025 208.72 10.0965 208.563 10.3781C208.537 10.4805 208.589 10.6596 208.693 10.762C208.798 10.8644 208.72 11.1715 208.484 11.1203C208.301 11.0691 208.092 11.0179 207.935 10.89C207.726 10.7108 207.648 10.3781 207.805 10.1221C208.249 9.3799 208.876 8.76564 209.687 8.40732C210.209 8.15137 210.837 8.04899 211.49 8.15137C212.274 8.27934 212.954 8.84242 213.346 9.55906C213.947 10.6596 213.869 12.0417 213.581 13.2702C213.32 14.3196 213.058 15.2922 212.902 16.4184Z" fill="white"/>
<path d="M223.122 12.4768C222.939 14.294 223.043 16.4184 223.174 18.21C223.2 18.3891 222.939 18.4147 222.808 18.3379C222.442 18.0564 222.259 17.3142 222.233 16.8535C222.155 15.4202 222.155 14.0893 222.233 12.656C220.299 12.7328 218.208 12.6816 216.3 12.8863C216.221 14.6012 216.274 16.2392 216.352 17.8772C216.378 17.9284 216.274 18.0052 216.143 18.0308C216.064 18.0308 215.934 18.0052 215.855 17.9284C215.516 17.5957 215.437 16.9814 215.411 16.5719C215.28 13.9869 215.463 11.4019 215.725 8.86801C215.777 8.71445 216.012 8.56088 216.221 8.68885C216.509 8.81683 216.509 9.14955 216.561 9.4055C216.509 10.071 216.43 11.1971 216.352 11.9905C218.26 11.8626 220.377 11.9393 222.285 11.9137C222.39 10.6596 222.442 9.4055 222.756 8.22816C222.886 8.07459 223.148 8.17697 223.305 8.33053C223.435 8.4841 223.514 8.79123 223.514 8.97039C223.383 9.94298 223.2 10.89 223.174 11.8882C223.252 11.8882 223.331 11.8626 223.409 11.8626C223.462 11.8626 223.54 11.9137 223.54 12.0417C223.54 12.0929 223.54 12.1953 223.488 12.2465C223.409 12.3488 223.252 12.4256 223.122 12.4768Z" fill="white"/>
<path d="M229.705 18.1588C228.712 18.2867 227.667 18.21 226.673 17.6213C225.367 16.8535 224.791 15.5226 224.87 14.0381C224.948 12.8863 225.314 11.8114 225.968 10.8388C226.621 9.8662 227.536 9.07277 228.634 8.56088C229.209 8.27934 229.993 8.15137 230.62 8.40732C231.143 8.61207 231.692 9.14955 231.796 9.66144C231.849 9.81501 231.587 10.1477 231.378 9.99417C231.091 9.73822 230.725 9.4055 230.359 9.25193C229.993 9.09836 229.653 9.07277 229.261 9.22634C228.242 9.63585 227.301 10.4293 226.673 11.3763C226.098 12.2465 225.759 13.2702 225.732 14.3196C225.732 15.2666 226.098 16.1624 226.909 16.7511C227.667 17.2886 228.66 17.4165 229.575 17.3398C231.117 17.2118 232.476 16.5719 233.835 15.9833C233.992 15.9833 234.227 16.2392 234.097 16.4184C232.79 17.135 231.3 17.9284 229.705 18.1588Z" fill="white"/>
<path d="M244.915 15.8297C243.895 17.1862 242.327 17.954 240.733 18.21C240.759 20.1295 240.889 22.1259 241.098 24.0711C241.098 24.3782 240.393 24.3526 240.34 24.0711C240.053 22.2283 239.87 20.2319 239.765 18.3123C238.589 18.21 237.308 17.7493 236.368 16.9814C235.583 16.316 235.061 15.5481 234.904 14.55C234.773 13.6542 235.008 12.7584 235.479 12.0161C236.394 10.5061 238.171 9.53347 239.818 9.09836C239.975 7.22997 240.131 5.36158 240.367 3.49319C240.497 3.16047 241.125 3.33963 241.177 3.67235C241.098 5.23361 240.942 6.84606 240.811 8.38172C242.353 8.35613 243.738 9.12396 244.679 10.2757C245.333 11.0435 245.699 11.8626 245.777 12.9119C245.829 13.9101 245.542 14.9851 244.915 15.8297ZM242.745 9.73822C242.118 9.4055 241.464 9.12396 240.785 9.20074C240.602 11.8626 240.602 14.6779 240.68 17.3653C242.066 17.0838 243.372 16.3928 244.235 15.2154C244.784 14.4476 244.967 13.2958 244.732 12.3233C244.496 11.2739 243.66 10.2245 242.745 9.73822ZM236.106 12.6048C235.714 13.2702 235.583 14.0125 235.897 14.8059C236.132 15.4458 236.55 16.0088 237.126 16.4184C237.884 16.9814 238.824 17.3142 239.713 17.4165C239.661 14.9339 239.713 12.5024 239.765 10.0454C238.406 10.4549 236.812 11.4019 236.106 12.6048Z" fill="white"/>
<path d="M250.925 18.2612C249.618 18.21 248.416 17.6213 247.658 16.5207C247.031 15.5993 246.874 14.5244 247.005 13.475C247.161 12.2977 247.658 11.1715 248.338 10.3013C249.096 9.32871 250.167 8.56088 251.396 8.33053C252.232 8.17697 253.121 8.25375 253.748 8.9192C254.036 9.22634 254.297 9.55906 254.297 9.96857C254.323 10.4037 254.114 10.7876 253.748 11.0691C251.919 12.5536 249.984 13.9357 247.998 15.0619C248.05 15.8553 248.756 16.6743 249.514 17.0838C250.272 17.4933 251.161 17.5445 251.997 17.4421C252.833 17.3653 253.696 17.0838 254.297 16.8023C254.402 16.7255 254.48 16.8023 254.506 16.8791C254.532 16.9302 254.585 17.0326 254.48 17.1094C253.565 17.9284 252.258 18.3123 250.925 18.2612ZM252.075 9.12396C251.317 9.12396 250.559 9.43109 249.958 9.89179C248.677 10.9156 247.919 12.5536 247.919 14.1405C249.775 13.1423 251.526 11.837 253.225 10.4805C253.356 10.3781 253.461 9.99417 253.278 9.68703C253.069 9.27752 252.598 9.12396 252.075 9.12396Z" fill="white"/>
<path d="M256.913 9.43109H256.782C256.704 9.43109 256.599 9.3799 256.573 9.25193C256.547 9.04717 256.625 8.86801 256.782 8.71445C257.2 8.35613 257.671 8.20256 258.194 8.22816C258.56 8.25375 258.926 8.30494 259.291 8.43291L260.285 8.76564C261.696 9.22634 262.925 10.4549 263.604 11.7858C263.97 12.528 264.101 13.2958 263.918 14.1405C263.735 14.9083 263.264 15.6249 262.637 16.2136C261.069 17.6725 259.109 18.1076 256.939 18.1076C256.913 19.848 256.808 21.7932 257.044 23.508C257.044 23.5848 257.096 23.6872 257.148 23.7639C257.174 23.8919 257.227 23.9943 257.122 24.1479C256.913 24.3014 256.704 24.2502 256.521 24.1479C256.259 23.8663 256.155 23.5592 256.129 23.2009C255.946 21.3837 256.024 19.6177 256.129 17.7749C255.894 17.5701 255.528 17.2886 255.449 16.9814C255.449 16.8791 255.475 16.7767 255.528 16.7255C255.606 16.5975 255.711 16.5719 255.763 16.6231C255.841 16.6999 255.998 16.8023 256.129 16.8791C256.286 14.3196 256.469 11.8882 256.913 9.43109ZM262.088 11.0947C261.513 10.4037 260.703 9.91738 259.919 9.58466C259.474 9.3799 258.22 8.9192 257.749 9.12396C257.775 9.48228 257.723 10.1221 257.671 10.4037C257.305 12.5792 257.07 14.9083 257.044 17.2118C258.847 17.3398 260.572 16.8023 261.958 15.6249C262.716 14.9851 263.16 14.0893 263.081 13.1679C263.029 12.4 262.533 11.6322 262.088 11.0947Z" fill="white"/>
<path d="M34.1351 39.4021C32.9589 39.9908 31.5475 40.2467 30.2667 39.6325C29.2735 39.1462 28.5678 38.3271 28.228 37.3034C27.8359 36.1004 27.9666 34.7439 28.4893 33.6178C28.8814 32.7988 29.4826 32.0821 30.1883 31.5446C30.6588 31.2119 31.3645 30.8024 32.018 30.7256C32.5407 30.1369 33.4033 29.9578 34.1351 30.1369C35.3898 30.4697 36.4614 31.7238 36.8012 32.8244C37.141 33.8993 37.2194 35.0767 36.9057 36.1772C36.5137 37.6617 35.5204 38.7367 34.1351 39.4021ZM35.9386 33.1059C35.625 32.2613 34.9193 31.3143 34.0044 31.0072C33.5862 30.8536 33.1419 30.8024 32.8021 31.0583C32.4623 31.3143 32.2532 31.7238 32.0964 32.0821C32.0702 32.1589 32.0702 32.2613 32.0702 32.3637C32.0702 32.466 32.0702 32.594 32.0441 32.6964C32.018 32.7476 31.7566 32.9011 31.6782 32.7476C31.6259 32.5172 31.5736 32.0565 31.5998 31.6982C30.6065 32.1077 29.7701 32.9523 29.2996 33.8993C28.803 34.8975 28.7769 36.0492 29.0905 37.073C29.3519 37.8664 29.8485 38.5319 30.6849 38.8646C31.7304 39.2485 32.8544 39.1206 33.7953 38.6599C34.867 38.1224 35.625 37.3034 35.9909 36.2028C36.3307 35.2302 36.2784 34.0785 35.9386 33.1059Z" fill="white"/>
<path d="M46.1524 31.1863C45.4729 31.0327 44.7933 30.8792 44.0875 30.8536C43.5125 31.5702 43.225 32.4148 43.0682 33.3106C42.8852 34.232 42.9113 35.2046 42.8591 36.1516C42.8068 37.4313 42.9113 38.6599 43.0682 39.8628C42.9898 40.0164 42.7545 40.1188 42.5715 40.0164C42.1272 39.4789 42.0227 38.7878 41.9965 38.0968C41.9704 36.5611 41.9442 34.9487 42.1795 33.4386C42.3363 32.466 42.6238 31.5702 43.225 30.7512C41.6044 30.6744 40.1146 31.0072 38.6247 31.4167C38.4156 31.3911 38.1804 31.2631 38.0497 31.0583C37.9974 30.8792 38.102 30.7768 38.2065 30.7256L38.3633 30.6744L38.494 30.6232C39.5918 30.1881 40.9249 29.9578 42.2056 29.9322C43.5125 29.881 44.8194 30.009 45.9695 30.4185C46.1002 30.4697 46.3354 30.6488 46.4138 30.8024C46.44 30.9816 46.3093 31.2119 46.1524 31.1863Z" fill="white"/>
<path d="M61.4151 43.3436C61.0753 43.574 60.0821 44.1371 59.5855 44.0859C59.4548 44.0347 59.3764 43.8043 59.5071 43.7532C60.631 43.1133 61.8856 42.1663 62.8266 40.9378C62.8789 40.861 62.8789 40.6818 62.8266 40.6306C62.3038 40.2467 61.8333 39.786 61.4935 39.1974C61.2844 38.8134 61.1276 38.3783 61.1276 37.892C60.5003 38.5063 59.7423 38.967 58.9582 39.3253C58.174 39.6581 57.3638 39.8884 56.5012 40.0676C56.083 40.0932 55.6648 39.9652 55.3511 39.6325C54.9852 39.2485 54.9852 38.7367 54.9329 38.2504C54.6716 35.7421 55.0636 33.3362 55.7955 31.0839C55.8478 30.8024 56.3705 30.7256 56.5273 31.0583C56.6842 31.3399 56.5273 31.7494 56.4489 32.0309C55.8478 34.1297 55.6125 36.4588 55.8739 38.7878C55.9 39.0182 56.1353 39.1974 56.3967 39.2229C57.024 39.2485 58.2002 38.7878 58.7752 38.5575C59.69 38.1736 60.6049 37.7385 61.0753 36.8171C61.0231 34.5904 61.389 32.3125 62.0424 30.2393C62.2777 29.8298 62.6698 30.1625 62.8004 30.4185C62.7743 30.8024 62.6959 31.1351 62.6175 31.4934C62.5391 31.8262 62.4606 32.1589 62.3822 32.5172C62.0424 34.3856 61.8333 36.4332 62.0163 38.3271C62.1731 39.0694 62.8789 39.6325 63.5062 40.0932C63.7153 40.3235 63.7937 40.6562 63.7153 40.9634C63.2187 41.936 62.3561 42.755 61.4151 43.3436Z" fill="white"/>
<path d="M68.6492 40.0164C67.3423 39.9652 66.14 39.3765 65.382 38.276C64.7547 37.3546 64.5978 36.2796 64.7285 35.2302C64.8853 34.0529 65.382 32.9267 66.0616 32.0565C66.8195 31.0839 67.8912 30.3161 69.1197 30.0858C69.9561 29.9322 70.8448 30.009 71.4721 30.6744C71.7596 30.9816 72.021 31.3143 72.021 31.7238C72.0471 32.1589 71.838 32.5428 71.4721 32.8244C69.6424 34.3088 67.7082 35.6909 65.7218 36.8171C65.774 37.6105 66.4798 38.4295 67.2378 38.839C67.9958 39.2485 68.8844 39.2997 69.7209 39.1974C70.5573 39.1206 71.4198 38.839 72.021 38.5575C72.1255 38.4807 72.204 38.5575 72.2301 38.6343C72.2562 38.6855 72.3085 38.7878 72.204 38.8646C71.2891 39.6836 69.9822 40.0676 68.6492 40.0164ZM69.7993 30.8792C69.0413 30.8792 68.2833 31.1863 67.6821 31.647C66.4013 32.6708 65.6433 34.3088 65.6433 35.8957C67.4991 34.8975 69.2504 33.5922 70.9493 32.2357C71.08 32.1333 71.1846 31.7494 71.0016 31.4423C70.7925 31.0327 70.322 30.8792 69.7993 30.8792Z" fill="white"/>
<path d="M81.3543 34.232C81.1713 36.0492 81.2759 38.1736 81.4065 39.9652C81.4327 40.1443 81.1713 40.1699 81.0406 40.0932C80.6747 39.8116 80.4917 39.0694 80.4656 38.6087C80.3872 37.1754 80.3872 35.8445 80.4656 34.4112C78.5314 34.488 76.4403 34.4368 74.5323 34.6416C74.4539 36.3564 74.5061 37.9944 74.5845 39.6325C74.6107 39.6836 74.5061 39.7604 74.3754 39.786C74.297 39.786 74.1663 39.7604 74.0879 39.6836C73.7481 39.3509 73.6697 38.7367 73.6436 38.3271C73.5129 35.7421 73.6959 33.1571 73.9572 30.6232C74.0095 30.4697 74.2448 30.3161 74.4539 30.4441C74.7414 30.5721 74.7414 30.9048 74.7937 31.1607C74.7414 31.8262 74.663 32.9523 74.5845 33.7458C76.4926 33.6178 78.6098 33.6946 80.5179 33.669C80.6224 32.4148 80.6747 31.1607 80.9883 29.9834C81.119 29.8298 81.3804 29.9322 81.5372 30.0858C81.6679 30.2393 81.7463 30.5465 81.7463 30.7256C81.6156 31.6982 81.4327 32.6452 81.4065 33.6434C81.485 33.6434 81.5634 33.6178 81.6418 33.6178C81.6941 33.6178 81.7725 33.669 81.7725 33.7969C81.7725 33.8481 81.7725 33.9505 81.7202 34.0017C81.6418 34.1041 81.485 34.1809 81.3543 34.232Z" fill="white"/>
<path d="M91.1791 31.1863C90.4995 31.0327 89.8199 30.8792 89.1142 30.8536C88.5391 31.5702 88.2516 32.4148 88.0948 33.3106C87.9118 34.232 87.938 35.2046 87.8857 36.1516C87.8334 37.4313 87.938 38.6599 88.0948 39.8628C88.0164 40.0164 87.7811 40.1188 87.5982 40.0164C87.1538 39.4789 87.0493 38.7878 87.0231 38.0968C86.997 36.5611 86.9709 34.9487 87.2061 33.4386C87.3629 32.466 87.6504 31.5702 88.2516 30.7512C86.6311 30.6744 85.1412 31.0072 83.6513 31.4167C83.4422 31.3911 83.207 31.2631 83.0763 31.0583C83.024 30.8792 83.1286 30.7768 83.2331 30.7256L83.39 30.6744L83.5206 30.6232C84.6184 30.1881 85.9515 29.9578 87.2322 29.9322C88.5391 29.881 89.846 30.009 90.9961 30.4185C91.1268 30.4697 91.362 30.6488 91.4404 30.8024C91.4666 30.9816 91.3359 31.2119 91.1791 31.1863Z" fill="white"/>
<path d="M93.7042 31.1863H93.5735C93.4951 31.1863 93.3906 31.1351 93.3644 31.0072C93.3383 30.8024 93.4167 30.6232 93.5735 30.4697C93.9917 30.1114 94.4622 29.9578 94.985 29.9834C95.3509 30.009 95.7168 30.0602 96.0828 30.1881L97.076 30.5209C98.4874 30.9816 99.7159 32.2101 100.396 33.541C100.761 34.2832 100.892 35.0511 100.709 35.8957C100.526 36.6635 100.056 37.3802 99.4284 37.9688C97.8601 39.4277 95.8998 39.8628 93.7304 39.8628C93.7042 41.6032 93.5997 43.5484 93.8349 45.2632C93.8349 45.34 93.8872 45.4424 93.9395 45.5192C93.9656 45.6471 94.0179 45.7495 93.9133 45.9031C93.7042 46.0567 93.4951 46.0055 93.3121 45.9031C93.0508 45.6215 92.9462 45.3144 92.9201 44.9561C92.7371 43.1389 92.8155 41.3729 92.9201 39.5301C92.6848 39.3253 92.3189 39.0438 92.2405 38.7367C92.2405 38.6343 92.2666 38.5319 92.3189 38.4807C92.3973 38.3527 92.5019 38.3271 92.5541 38.3783C92.6326 38.4551 92.7894 38.5575 92.9201 38.6343C93.0769 36.0748 93.2599 33.6434 93.7042 31.1863ZM98.8795 32.8499C98.3045 32.1589 97.4942 31.6726 96.7101 31.3399C96.2657 31.1351 95.0111 30.6744 94.5406 30.8792C94.5668 31.2375 94.5145 31.8774 94.4622 32.1589C94.0963 34.3344 93.861 36.6635 93.8349 38.967C95.6384 39.095 97.3635 38.5575 98.7488 37.3802C99.5068 36.7403 99.9512 35.8445 99.8728 34.9231C99.8205 34.1553 99.3239 33.3874 98.8795 32.8499Z" fill="white"/>
<path d="M106.861 39.914C105.423 40.2979 103.75 40.2723 102.626 39.3253C102.104 38.8902 101.712 38.2504 101.685 37.5593C101.659 36.945 101.921 36.382 102.287 35.8701C103.097 34.7439 104.508 33.9761 105.868 33.8225C106.443 33.7713 106.965 33.8481 107.384 34.2576C107.514 34.3856 107.384 34.6416 107.253 34.6927H107.018C106.939 34.6927 106.835 34.6671 106.756 34.6671C106.573 34.6416 106.416 34.616 106.312 34.6927C105.057 34.7439 103.829 35.3326 103.071 36.3308C102.731 36.7659 102.548 37.0986 102.6 37.6361C102.653 38.3527 103.201 38.8902 103.959 39.1462C105.031 39.5301 106.364 39.2997 107.384 38.9414C107.932 38.7367 108.429 38.5319 108.9 38.1992C109.004 38.1224 109.109 38.1992 109.161 38.3271C109.187 38.4295 109.187 38.5319 109.187 38.6087C108.821 39.2997 107.357 39.786 106.861 39.914ZM108.324 38.1736C108.194 38.3271 107.959 38.3016 107.854 38.2248C107.593 38.0456 107.593 37.7129 107.593 37.4569C107.619 37.0218 107.697 36.5867 107.802 36.126L108.142 34.7183C108.351 33.7969 108.481 32.8755 108.194 32.1077C107.959 31.4423 107.384 30.7768 106.678 30.7C106.077 30.6232 105.475 30.828 104.979 31.1863C104.717 31.3655 104.142 31.8518 103.986 32.1333C103.959 32.2357 104.012 32.4148 104.116 32.5172C104.221 32.6196 104.142 32.9267 103.907 32.8755C103.724 32.8244 103.515 32.7732 103.358 32.6452C103.149 32.466 103.071 32.1333 103.228 31.8774C103.672 31.1351 104.299 30.5209 105.11 30.1625C105.632 29.9066 106.26 29.8042 106.913 29.9066C107.697 30.0346 108.377 30.5976 108.769 31.3143C109.37 32.4148 109.292 33.7969 109.004 35.0255C108.743 36.0748 108.481 37.0474 108.324 38.1736Z" fill="white"/>
<path d="M126.996 43.8555C126.917 44.0603 126.656 44.0603 126.525 43.9835C126.238 43.7276 126.238 43.3692 126.211 43.0109C126.133 41.936 126.028 40.7586 126.159 39.6581C123.702 39.4277 121.088 39.5557 118.736 39.9908C118.631 41.2961 118.684 42.6782 118.893 43.9323C118.867 44.0603 118.684 44.265 118.475 44.1371C118.239 44.0347 118.135 43.8299 118.083 43.6508L117.952 43.0877C117.9 42.5246 117.847 41.9616 117.821 41.4241C117.795 40.861 117.795 40.2979 117.847 39.8116C117.873 39.6069 118.056 39.4021 118.239 39.2741L118.971 39.1206C120.487 36.6379 121.742 34.0785 122.84 31.4167C122.866 31.2887 122.918 30.9304 122.813 30.8024C122.735 30.4697 122.944 30.2905 123.153 30.1369C123.99 30.009 124.931 30.0346 125.662 30.4441C125.95 30.5721 126.081 30.8536 126.133 31.1351C126.133 32.466 126.159 35.2302 126.185 36.5867C126.29 37.329 126.185 38.0968 126.133 38.839C126.185 38.8646 126.264 38.8646 126.368 38.8646C126.525 38.8902 126.63 38.8646 126.708 38.8646C126.943 38.8902 127.152 39.0438 127.152 39.2485C126.943 40.7842 126.917 42.3455 126.996 43.8555ZM125.375 38.0968C125.349 37.8409 125.323 37.6105 125.323 37.329C125.323 35.8189 125.297 32.8499 125.27 31.3399C125.166 31.1351 124.983 31.0327 124.774 30.9816C124.408 30.8792 123.964 30.9048 123.571 30.9304C123.676 31.2887 123.598 31.6726 123.519 32.0053C122.474 34.3856 121.376 36.7659 119.964 38.9926C121.69 38.7878 123.493 38.7111 125.349 38.7878C125.375 38.5575 125.375 38.3271 125.375 38.0968Z" fill="white"/>
<path d="M134.347 39.4021C133.171 39.9908 131.76 40.2467 130.479 39.6325C129.486 39.1462 128.78 38.3271 128.44 37.3034C128.048 36.1004 128.179 34.7439 128.702 33.6178C129.094 32.7988 129.695 32.0821 130.401 31.5446C130.871 31.2119 131.577 30.8024 132.23 30.7256C132.753 30.1369 133.616 29.9578 134.347 30.1369C135.602 30.4697 136.674 31.7238 137.013 32.8244C137.353 33.8993 137.432 35.0767 137.118 36.1772C136.726 37.6617 135.733 38.7367 134.347 39.4021ZM136.151 33.1059C135.837 32.2613 135.132 31.3143 134.217 31.0072C133.799 30.8536 133.354 30.8024 133.014 31.0583C132.675 31.3143 132.465 31.7238 132.309 32.0821C132.283 32.1589 132.283 32.2613 132.283 32.3637C132.283 32.466 132.283 32.594 132.256 32.6964C132.23 32.7476 131.969 32.9011 131.89 32.7476C131.838 32.5172 131.786 32.0565 131.812 31.6982C130.819 32.1077 129.982 32.9523 129.512 33.8993C129.015 34.8975 128.989 36.0492 129.303 37.073C129.564 37.8664 130.061 38.5319 130.897 38.8646C131.943 39.2485 133.067 39.1206 134.008 38.6599C135.079 38.1224 135.837 37.3034 136.203 36.2028C136.543 35.2302 136.491 34.0785 136.151 33.1059Z" fill="white"/>
<path d="M156.698 32.2101C156.541 34.4112 156.671 36.7147 156.907 38.7622C156.959 38.967 156.619 38.9926 156.515 38.9158C156.41 38.8134 156.332 38.6855 156.279 38.5575L156.175 38.148C155.6 35.9213 155.704 33.541 155.861 31.2119C156.018 29.0364 156.384 26.8609 156.776 24.8645C155.469 24.4806 154.084 24.199 152.672 24.0199C151.548 23.8663 150.398 23.7895 149.248 23.8919C149.144 23.8919 148.987 23.9431 148.856 23.9687C148.699 24.0199 148.569 24.0455 148.49 24.0967C148.307 24.1479 148.046 23.9687 148.124 23.7383C148.255 23.4056 148.595 23.1497 148.908 23.0729C149.484 22.9961 150.085 22.9961 150.686 23.0473C151.287 23.0729 151.94 23.1497 152.489 23.2009C154.136 23.38 155.757 23.6104 157.22 24.0455C157.482 24.1223 157.639 24.327 157.743 24.583C157.299 27.0912 156.907 29.5739 156.698 32.2101ZM147.497 24.9925C147.392 25.0693 147.157 25.402 147.105 25.5811C146.87 27.3983 146.817 29.3179 146.87 31.2375C146.948 33.7969 147.236 36.3564 147.445 38.7878L147.392 39.3765C147.366 39.5813 147.314 39.786 147.131 39.914C147.027 40.0164 146.713 39.9652 146.661 39.7604C146.478 36.7659 145.981 33.7969 145.955 30.7C145.929 28.9852 145.981 27.1936 146.216 25.4788C146.373 25.146 146.399 24.7365 146.634 24.4294C146.765 24.3014 147.027 24.1735 147.236 24.3014C147.34 24.3526 147.523 24.4806 147.602 24.583C147.732 24.7109 147.628 24.9413 147.497 24.9925Z" fill="white"/>
<path d="M162.991 40.0164C161.684 39.9652 160.481 39.3765 159.723 38.276C159.096 37.3546 158.939 36.2796 159.07 35.2302C159.227 34.0529 159.723 32.9267 160.403 32.0565C161.161 31.0839 162.233 30.3161 163.461 30.0858C164.298 29.9322 165.186 30.009 165.814 30.6744C166.101 30.9816 166.362 31.3143 166.362 31.7238C166.389 32.1589 166.18 32.5428 165.814 32.8244C163.984 34.3088 162.05 35.6909 160.063 36.8171C160.116 37.6105 160.821 38.4295 161.579 38.839C162.337 39.2485 163.226 39.2997 164.062 39.1974C164.899 39.1206 165.761 38.839 166.362 38.5575C166.467 38.4807 166.545 38.5575 166.572 38.6343C166.598 38.6855 166.65 38.7878 166.545 38.8646C165.631 39.6836 164.324 40.0676 162.991 40.0164ZM164.141 30.8792C163.383 30.8792 162.625 31.1863 162.024 31.647C160.743 32.6708 159.985 34.3088 159.985 35.8957C161.841 34.8975 163.592 33.5922 165.291 32.2357C165.422 32.1333 165.526 31.7494 165.343 31.4423C165.134 31.0327 164.663 30.8792 164.141 30.8792Z" fill="white"/>
<path d="M179.303 39.8628C178.963 39.5045 178.728 39.0694 178.675 38.5575C177.604 39.095 176.558 39.5045 175.33 39.5301C174.859 39.5301 174.363 39.4789 174.023 39.1206C173.709 38.7878 173.657 38.3783 173.579 37.9688C172.559 38.7623 171.488 39.5045 170.259 39.7604C169.579 39.914 169.057 39.9396 168.612 39.2997C168.246 38.7878 168.09 37.4825 168.037 36.8427C167.881 34.5904 168.168 32.3637 168.717 30.3673C168.769 30.1881 168.926 29.9578 169.057 29.9578C169.24 29.9578 169.449 30.0602 169.527 30.2649C169.527 30.6488 169.475 31.0072 169.396 31.3399C169.292 31.6982 169.214 32.0309 169.161 32.3893C169.031 33.3362 168.874 34.3088 168.874 35.2814C168.874 36.4588 168.978 37.6105 169.292 38.7111C169.423 39.0438 169.841 39.0438 170.181 38.9414C171.383 38.6343 172.455 37.9176 173.422 37.0474C173.291 35.1278 173.317 32.9011 173.84 31.2119C173.892 31.1095 174.075 31.0583 174.258 31.1095C174.363 31.1607 174.546 31.2631 174.546 31.4167C174.389 32.6964 174.206 34.0785 174.232 35.4094C174.232 36.4332 174.363 37.4569 174.624 38.3783C174.676 38.6087 174.99 38.7111 175.304 38.7111C176.349 38.6599 177.708 38.3016 178.597 37.7641C178.31 35.2302 178.519 32.5684 179.015 30.1881C179.198 30.009 179.486 30.009 179.616 30.1881C179.799 30.3673 179.747 30.6488 179.721 30.8792V31.0839C179.277 34.0785 179.251 36.8427 179.747 39.8372C179.669 40.0164 179.46 39.9652 179.303 39.8628Z" fill="white"/>
<path d="M190.085 39.9652C188.831 39.2741 187.55 38.7878 186.217 38.3271C184.91 37.8664 183.656 37.4058 182.401 36.8683C182.375 37.7897 182.505 38.7367 182.741 39.5813C182.819 39.7348 182.767 40.0164 182.532 40.0164C182.323 40.0164 182.192 39.8884 182.113 39.7604C182.035 39.6581 181.983 39.5045 181.904 39.3765C181.617 38.4551 181.512 37.4569 181.512 36.4332C181.434 36.382 181.329 36.3052 181.277 36.1772C181.199 36.1004 181.172 35.9469 181.251 35.8189C181.355 35.7421 181.46 35.5885 181.486 35.4862C181.538 35.1534 181.512 34.3856 181.591 34.0529C181.695 33.4642 181.852 32.7476 182.009 32.0309C182.192 31.3143 182.453 30.5976 182.793 29.9834C182.95 29.7274 183.342 29.7786 183.42 30.0602C183.394 30.3929 183.29 30.7 183.185 31.0072C183.107 31.2887 182.95 31.5958 182.871 31.903C182.61 32.8244 182.453 33.7713 182.427 34.7439C183.368 33.9249 184.309 33.1571 185.276 32.4404C186.478 31.5702 187.759 30.828 189.118 30.2905C189.327 30.2905 189.589 30.2905 189.746 30.4185C189.902 30.5209 189.903 30.6744 189.824 30.8536C188.439 31.4167 187.184 32.1589 185.903 33.0291C184.701 33.8737 183.499 34.8463 182.375 35.8957V35.9213C183.656 36.6123 185.067 37.073 186.426 37.5337C187.629 37.9432 188.779 38.4039 189.876 39.095C190.112 39.2229 190.295 39.4021 190.425 39.6325C190.451 39.786 190.242 39.9908 190.085 39.9652Z" fill="white"/>
<path d="M197.267 39.4021C196.091 39.9908 194.68 40.2467 193.399 39.6325C192.406 39.1462 191.7 38.3271 191.36 37.3034C190.968 36.1004 191.099 34.7439 191.621 33.6178C192.014 32.7988 192.615 32.0821 193.32 31.5446C193.791 31.2119 194.497 30.8024 195.15 30.7256C195.673 30.1369 196.535 29.9578 197.267 30.1369C198.522 30.4697 199.594 31.7238 199.933 32.8244C200.273 33.8993 200.352 35.0767 200.038 36.1772C199.646 37.6617 198.653 38.7367 197.267 39.4021ZM199.071 33.1059C198.757 32.2613 198.051 31.3143 197.137 31.0072C196.718 30.8536 196.274 30.8024 195.934 31.0583C195.594 31.3143 195.385 31.7238 195.229 32.0821C195.202 32.1589 195.202 32.2613 195.202 32.3637C195.202 32.466 195.202 32.594 195.176 32.6964C195.15 32.7476 194.889 32.9011 194.81 32.7476C194.758 32.5172 194.706 32.0565 194.732 31.6982C193.739 32.1077 192.902 32.9523 192.432 33.8993C191.935 34.8975 191.909 36.0492 192.223 37.073C192.484 37.8664 192.981 38.5319 193.817 38.8646C194.863 39.2485 195.987 39.1206 196.927 38.6599C197.999 38.1224 198.757 37.3034 199.123 36.2028C199.463 35.2302 199.411 34.0785 199.071 33.1059Z" fill="white"/>
<path d="M206.54 39.3253C205.756 39.8372 204.789 40.2467 203.822 40.2467C203.273 40.2467 202.881 40.0164 202.515 39.5045C202.384 39.6069 202.149 39.6836 202.044 39.5301C201.574 38.8902 201.443 37.9944 201.417 37.1242C201.365 34.8975 201.391 33.2595 201.992 31.2631C202.044 31.0583 202.541 30.6744 202.907 30.7768C203.064 30.3673 203.482 29.9322 203.979 29.881C205.312 29.881 206.749 30.5721 207.194 31.8774C207.324 32.2869 207.324 32.722 207.167 33.1315C207.011 33.5154 206.749 33.8481 206.409 34.1041L206.253 34.232C206.906 34.4368 207.638 34.8463 208.056 35.4862C208.37 35.9725 208.396 36.5611 208.265 37.1242C208.03 38.0456 207.35 38.7878 206.54 39.3253ZM207.272 35.9213C207.063 35.5374 206.488 35.307 206.07 35.1023C205.573 34.7951 205.129 34.9231 204.632 35.0255L203.848 35.2046C203.56 35.2814 203.273 35.2814 202.959 35.2046C202.829 35.1278 202.672 34.8719 202.802 34.7439C203.116 34.4368 203.508 34.2832 203.952 34.1809L205.155 34.0529C205.625 33.7969 206.122 33.2851 206.331 32.7988C206.462 32.3892 206.383 32.1077 206.122 31.775C205.651 31.1351 204.893 30.8536 204.135 30.7768C203.9 30.7512 203.822 30.8024 203.769 30.956C203.691 31.1607 203.639 31.3911 203.508 31.5702C203.456 31.6982 203.273 31.7494 203.142 31.6726C203.038 31.647 202.959 31.5958 202.907 31.5446C202.593 32.6452 202.41 33.8993 202.358 35.2046C202.306 36.4332 202.358 37.6361 202.541 38.7622C202.75 38.5319 203.011 38.1992 203.142 38.02C203.325 37.8409 203.665 38.1224 203.613 38.3016C203.56 38.4295 203.456 38.5831 203.377 38.7111C203.325 38.8646 203.247 38.9926 203.247 39.095C203.404 39.3253 203.769 39.4021 204.214 39.3509C204.867 39.2485 205.651 38.8902 206.226 38.4551C206.749 38.0456 207.194 37.5337 207.324 36.8939C207.403 36.5867 207.455 36.2284 207.272 35.9213Z" fill="white"/>
<path d="M215.416 39.4021C214.24 39.9908 212.828 40.2467 211.547 39.6325C210.554 39.1462 209.848 38.3271 209.509 37.3034C209.117 36.1004 209.247 34.7439 209.77 33.6178C210.162 32.7988 210.763 32.0821 211.469 31.5446C211.939 31.2119 212.645 30.8024 213.299 30.7256C213.821 30.1369 214.684 29.9578 215.416 30.1369C216.67 30.4697 217.742 31.7238 218.082 32.8244C218.422 33.8993 218.5 35.0767 218.186 36.1772C217.794 37.6617 216.801 38.7367 215.416 39.4021ZM217.219 33.1059C216.906 32.2613 216.2 31.3143 215.285 31.0072C214.867 30.8536 214.423 30.8024 214.083 31.0583C213.743 31.3143 213.534 31.7238 213.377 32.0821C213.351 32.1589 213.351 32.2613 213.351 32.3637C213.351 32.466 213.351 32.594 213.325 32.6964C213.299 32.7476 213.037 32.9011 212.959 32.7476C212.907 32.5172 212.854 32.0565 212.88 31.6982C211.887 32.1077 211.051 32.9523 210.58 33.8993C210.084 34.8975 210.057 36.0492 210.371 37.073C210.633 37.8664 211.129 38.5319 211.966 38.8646C213.011 39.2485 214.135 39.1206 215.076 38.6599C216.148 38.1224 216.906 37.3034 217.272 36.2028C217.611 35.2302 217.559 34.0785 217.219 33.1059Z" fill="white"/>
<path d="M227.485 29.1388C226.257 31.1095 224.845 33.0547 223.721 35.1278C223.591 35.2302 223.356 35.179 223.303 35.0511C223.251 34.7695 223.277 34.5136 223.356 34.3088C223.408 34.0785 223.486 33.8993 223.565 33.669C224.453 32.0821 225.551 30.572 226.518 29.0364C226.806 28.5501 226.963 27.9102 226.91 27.2704C226.884 26.8097 226.701 26.349 226.388 25.9651C225.76 25.1972 224.976 24.6086 224.114 24.327C223.539 24.1223 222.937 24.0711 222.284 24.199C221.866 24.2758 221.5 24.455 221.134 24.7877C220.794 25.0949 220.507 25.4788 220.376 25.9139C220.219 26.0418 219.931 26.0418 219.853 25.8115C219.775 25.4788 219.905 25.1972 220.01 24.8901C220.454 24.1479 221.082 23.636 221.813 23.38C222.441 23.1753 223.068 23.1241 223.721 23.2265C224.479 23.3544 225.159 23.6616 225.786 24.0967C226.414 24.5318 226.963 25.0948 227.381 25.7859C227.721 26.2978 227.877 26.9888 227.851 27.6543C227.851 28.1662 227.747 28.7293 227.485 29.1388ZM225.813 40.1955C225.159 40.1955 224.506 40.042 223.931 39.7604C223.329 39.4533 222.807 39.0694 222.415 38.5063C222.31 38.3527 222.284 38.0968 222.336 37.892C222.388 37.6873 222.545 37.5593 222.807 37.6617L223.434 38.3271C223.643 38.5319 223.878 38.7367 224.087 38.8902C224.689 39.3253 225.447 39.5557 226.205 39.786C226.283 39.9652 225.995 40.1443 225.813 40.1955Z" fill="white"/>
<path d="M237.075 28.243C236.944 28.3965 236.814 28.5245 236.604 28.6525C236.343 28.6781 236.134 28.6525 235.951 28.5501C235.376 28.2941 234.722 27.8846 234.252 27.5519C234.226 28.3709 234.147 29.2155 234.252 30.009C234.2 30.4185 233.729 30.2393 233.677 30.1369C233.625 30.0858 233.572 30.0346 233.546 29.9578C233.494 29.9066 233.442 29.8298 233.416 29.753C233.363 29.5227 233.363 29.2923 233.363 29.0876C233.389 28.6525 233.416 28.1918 233.416 27.7567C232.814 28.3197 232.083 28.806 231.298 29.0876C231.115 29.1132 230.828 29.1132 230.619 28.934C230.305 28.6781 230.593 28.243 230.959 28.0126L231.142 28.3453C231.325 28.2941 231.508 28.1662 231.69 28.0894C232.239 27.7567 232.788 27.2704 233.233 26.7841C232.396 26.1186 231.56 25.2996 230.854 24.5574C230.671 24.4038 230.749 24.1735 230.828 24.0455C231.063 23.7383 231.429 23.9431 231.508 24.0199C232.109 24.6597 232.736 25.274 233.389 25.8627C233.389 25.1716 233.416 24.4806 233.363 23.8407L233.154 23.2521C233.128 23.0985 233.233 22.7402 233.572 22.7658C233.808 22.8425 233.938 23.0217 234.043 23.2265L234.121 23.4056C234.2 23.5848 234.252 23.9175 234.252 24.0967V25.5044L234.33 25.3764L234.879 24.6597C235.062 24.4038 235.324 24.199 235.637 24.0199C236.055 23.7895 236.84 24.0199 236.604 24.7877C236.421 24.7621 236.369 24.7365 236.291 24.7109C236.238 24.7109 236.186 24.6853 236.082 24.6597C235.925 24.6086 235.402 25.2996 235.324 25.402C235.01 25.8115 234.749 26.2466 234.409 26.6817C235.036 27.1424 235.716 27.5519 236.474 27.9102C236.526 27.8334 236.578 27.8079 236.631 27.7823C236.683 27.7311 236.735 27.7055 236.918 27.6287C237.127 27.8335 237.153 27.987 237.127 28.0894C237.101 28.1406 237.075 28.1662 237.075 28.243Z" fill="white"/>
<path d="M247.234 28.243C247.103 28.3965 246.973 28.5245 246.763 28.6525C246.502 28.6781 246.293 28.6525 246.11 28.5501C245.535 28.2941 244.882 27.8846 244.411 27.5519C244.385 28.3709 244.307 29.2155 244.411 30.009C244.359 30.4185 243.888 30.2393 243.836 30.1369C243.784 30.0858 243.731 30.0346 243.705 29.9578C243.653 29.9066 243.601 29.8298 243.575 29.753C243.522 29.5227 243.522 29.2923 243.522 29.0876C243.548 28.6525 243.575 28.1918 243.575 27.7567C242.973 28.3197 242.242 28.806 241.457 29.0876C241.274 29.1132 240.987 29.1132 240.778 28.934C240.464 28.6781 240.752 28.243 241.118 28.0126L241.301 28.3453C241.484 28.2941 241.667 28.1662 241.85 28.0894C242.398 27.7567 242.947 27.2704 243.392 26.7841C242.555 26.1186 241.719 25.2996 241.013 24.5574C240.83 24.4038 240.909 24.1735 240.987 24.0455C241.222 23.7383 241.588 23.9431 241.667 24.0199C242.268 24.6597 242.895 25.274 243.548 25.8627C243.548 25.1716 243.575 24.4806 243.522 23.8407L243.313 23.2521C243.287 23.0985 243.392 22.7402 243.731 22.7658C243.967 22.8425 244.097 23.0217 244.202 23.2265L244.28 23.4056C244.359 23.5848 244.411 23.9175 244.411 24.0967V25.5044L244.489 25.3764L245.038 24.6597C245.221 24.4038 245.483 24.199 245.796 24.0199C246.215 23.7895 246.999 24.0199 246.763 24.7877C246.581 24.7621 246.528 24.7365 246.45 24.7109C246.398 24.7109 246.345 24.6853 246.241 24.6597C246.084 24.6086 245.561 25.2996 245.483 25.402C245.169 25.8115 244.908 26.2466 244.568 26.6817C245.195 27.1424 245.875 27.5519 246.633 27.9102C246.685 27.8334 246.737 27.8079 246.79 27.7823C246.842 27.7311 246.894 27.7055 247.077 27.6287C247.286 27.8335 247.312 27.987 247.286 28.0894C247.26 28.1406 247.234 28.1662 247.234 28.243Z" fill="white"/>
</svg>
