<svg width="264" height="46" fill="none" xmlns="http://www.w3.org/2000/svg"><path d="M10.938 15.534c-.322-.87-1.554-.87-1.876 0L7.46 19.868a1 1 0 0 1-.591.59l-4.333 1.604c-.871.322-.871 1.554 0 1.876l4.333 1.603a1 1 0 0 1 .59.591l1.604 4.333c.322.871 1.554.871 1.876 0l1.603-4.333a1 1 0 0 1 .591-.59l4.333-1.604c.871-.322.871-1.554 0-1.876l-4.333-1.603a1 1 0 0 1-.59-.591l-1.604-4.333z" fill="gold"/><path d="M39.023 4.978c-.34 1.33-.497 2.764-.654 4.172-.13.972-.182 1.945-.209 2.943-.052 1.459-.052 2.918-.104 4.402a.548.548 0 0 1-.523.41c-.34 0-.497-.333-.575-.615l-.105-.204a65.586 65.586 0 0 0-2.404-7.781c-.445-1.203-.863-2.38-1.333-3.558a34.22 34.22 0 0 0-1.62-3.455c-.027 0-.053-.051-.053-.026-.706 2.253-1.202 4.53-1.438 6.937-.209 2.175-.235 4.402-.156 6.654.052.307.052.64.104.973.026.307.079.614.183.896.026.179-.104.307-.261.358-.47-.103-.575-.486-.654-.896l-.078-.358c-.21-1.869-.235-3.788-.13-5.708.13-2.278.47-4.556.94-6.654.261-1.101.601-2.253 1.046-3.276.078-.18.392-.256.575-.128.156.128.235.281.34.46.653 1.024 1.176 2.099 1.62 3.174l1.333 3.276c.993 2.457 1.803 4.99 2.483 7.576.026-2.176.052-4.454.288-6.603.183-1.869.575-3.712 1.359-5.324.052-.102.104-.23.183-.333.183-.358.444-.742.94-.716.288.153.184.435.053.614-.575.845-.889 1.791-1.15 2.79zm6.534 8.343c-.6.538-1.333.896-2.248.82-.784-.077-1.49-.512-1.881-1.101-.706-1.024-.863-2.304-.654-3.48.157-.846.575-1.92 1.124-2.586.183-.128.34-.307.601-.282.21.077.235.282.157.41-.496.819-.967 1.843-1.098 2.892-.104.998.026 1.997.654 2.79.392.486 1.071.665 1.725.537 1.307-.41 1.96-1.612 2.195-2.687.21-.87.183-1.817-.026-2.687a3.74 3.74 0 0 0-1.045-1.869c-.236-.23-.706-.333-1.046-.256-.392.077-.706.359-.915.666-.13.102-.313-.051-.313-.154.026-.384.418-.921.836-1.1.523-.256 1.333-.256 1.83.128.836.64 1.15 1.28 1.411 2.175a6.932 6.932 0 0 1 .079 3.276c-.21.947-.68 1.843-1.386 2.508zm-3.136 3.02c-.157.052-.601.077-.81.128-.21.103-.523.077-.758.077-.131-.05-.21-.025-.314-.05-.078-.026-.157-.052-.235-.154-.053-.103-.079-.256-.053-.384a.606.606 0 0 1 .157-.282.77.77 0 0 1 .418-.23c.183-.051.314-.026.445-.051.261 0 .758.025.993.05.157.078.314.052.497.103.183-.077 1.699-.051 1.934 0 .575-.051 1.255 0 1.725.128.157.051.549.051.68.205-.053.358-.89.537-1.255.435-.21.051-.68-.077-.993 0-.262-.051-.837.051-1.072.026-.418-.026-1.072-.052-1.36 0zM57.131 11.043a11.367 11.367 0 0 0-.026 1.639l.079 1.766c.052 1.33-.053 2.713-.628 3.813-.026.077-.104.102-.183.128-.052 0-.183 0-.183-.128.236-1.228.21-2.457.131-3.711-.052-1.126-.13-2.252-.052-3.404-.941 0-1.856-.128-2.692-.46-.837-.334-1.647-.897-2.3-1.588-.81-.87-1.438-2.073-1.83-3.173a10.34 10.34 0 0 1-.497-4.223c.052-.154.262-.308.366-.384.157-.026.366.102.418.256-.026 1.407.157 2.84.575 4.095.288.844.654 1.612 1.177 2.278.653.844 1.516 1.535 2.613 2.022.654.307 1.412.383 2.17.383.183-1.893.209-3.941.627-5.835.183-.768.627-1.69 1.516-1.97.47-.129 1.02-.103 1.412.153.209.102-.027.333-.131.333a1.398 1.398 0 0 0-.863.076 2.297 2.297 0 0 0-.836.743c-.261.64-.392 1.33-.497 2.021-.104.717-.13 1.434-.183 2.15-.052.59-.13 1.69-.157 2.278 1.778-.128 3.372-.819 4.914-1.612.21-.18.314.179.236.307-1.516 1.126-3.241 1.843-5.176 2.047zM80.188 10.455c-2.457-.103-4.914.281-7.37.102-.471-.025-1.046-.153-1.386-.537-.183-.205.026-.666.34-.614 1.124.127 2.248.179 3.372.153 1.463-.026 3.005-.128 4.338-.077.262 0 .863.103 1.046.41.183.256-.052.588-.34.563zM95.275 17.57c-.784.512-1.75.921-2.718.921-.549 0-.941-.23-1.307-.742-.13.103-.366.18-.47.026-.47-.64-.602-1.536-.628-2.406-.052-2.227-.026-3.865.575-5.861.053-.205.55-.589.915-.486.157-.41.575-.845 1.072-.896 1.333 0 2.77.69 3.215 1.996.13.41.13.845-.026 1.254a2.315 2.315 0 0 1-.758.973l-.157.128c.653.205 1.385.614 1.803 1.254.314.486.34 1.075.21 1.638-.236.921-.915 1.664-1.726 2.201zm.732-3.404c-.209-.384-.784-.614-1.202-.819-.497-.307-.941-.18-1.438-.077l-.784.18a1.742 1.742 0 0 1-.888 0c-.131-.077-.288-.333-.157-.461.313-.307.705-.461 1.15-.563l1.202-.128c.47-.256.967-.768 1.176-1.255.13-.409.052-.69-.209-1.023-.47-.64-1.228-.922-1.986-.998-.236-.026-.314.025-.366.179-.079.204-.131.435-.262.614-.052.128-.235.18-.366.102a.508.508 0 0 1-.235-.128c-.313 1.101-.496 2.355-.549 3.66-.052 1.229 0 2.432.183 3.558.21-.23.47-.563.601-.742.183-.18.523.102.47.281-.051.128-.156.282-.234.41-.053.153-.131.281-.131.384.157.23.523.307.967.256.654-.103 1.438-.461 2.013-.896.522-.41.967-.921 1.097-1.561.079-.307.131-.666-.052-.973zM103.236 18.159c-1.437.384-3.11.358-4.234-.589-.523-.435-.915-1.075-.941-1.766-.026-.614.235-1.177.601-1.69.81-1.125 2.222-1.893 3.581-2.047.575-.05 1.098.026 1.516.435.131.128 0 .384-.131.435h-.235c-.078 0-.183-.025-.261-.025-.183-.026-.34-.051-.445.025-1.254.052-2.483.64-3.24 1.639-.34.435-.524.767-.471 1.305.052.716.6 1.254 1.359 1.51 1.072.384 2.405.154 3.424-.205.549-.205 1.045-.41 1.516-.742.104-.077.209 0 .261.128.026.102.026.205.026.282-.365.69-1.829 1.177-2.326 1.305zm1.464-1.74c-.131.153-.366.127-.471.05-.261-.179-.261-.511-.261-.767.026-.435.105-.87.209-1.331l.34-1.408c.209-.921.34-1.843.052-2.61-.235-.666-.81-1.331-1.516-1.408-.601-.077-1.202.128-1.699.486-.261.18-.836.666-.993.947-.026.102.026.282.131.384.104.102.026.41-.209.358-.183-.05-.392-.102-.55-.23a.611.611 0 0 1-.13-.768c.444-.742 1.072-1.356 1.882-1.715.523-.256 1.15-.358 1.803-.256.785.128 1.464.691 1.856 1.408.601 1.1.523 2.483.235 3.711-.261 1.05-.522 2.022-.679 3.148zM119.599 18.261a.488.488 0 0 1-.366-.256l-.079-.128c-.967-2.047-1.385-4.35-1.411-6.782-.34.819-.68 1.612-1.072 2.406-.444.895-.941 1.766-1.646 2.585-.314.384-.915.435-1.386.332-.392-.179-.653-.614-.836-.972-.993-1.869-1.464-3.967-1.96-6.015 0-.025-.027-.051-.053-.025-1.62 2.329-2.561 4.94-3.215 7.703-.104.256.131.487.157.743.052.153-.052.307-.261.384-.288.025-.523-.205-.654-.41-.183-.435-.157-.921-.026-1.357.863-2.764 1.751-5.502 3.581-7.908a.828.828 0 0 1 .68-.102c.261 0 .496.255.522.435.575 2.2 1.046 4.453 2.17 6.45.157.204.366.332.601.255.601-.563.993-1.254 1.385-1.945.784-1.408 1.333-2.892 1.935-4.428l.13-.179c.079-.077.131-.128.262-.128.261-.077.444.103.548.282-.052 1.587-.026 3.071.157 4.53a17.392 17.392 0 0 0 1.072 4.274c.026.18-.157.256-.235.256zM136.31 12.477c-.183 1.817-.078 3.941.052 5.733.027.18-.235.205-.365.128-.366-.282-.549-1.024-.575-1.485a37.2 37.2 0 0 1 0-4.197c-1.935.077-4.026.026-5.934.23-.078 1.715-.026 3.353.053 4.991.026.051-.079.128-.21.154a.44.44 0 0 1-.287-.103c-.34-.332-.418-.947-.444-1.356-.131-2.585.052-5.17.313-7.704.052-.154.288-.307.497-.18.287.129.287.462.34.717-.053.666-.131 1.792-.209 2.586 1.908-.128 4.025-.052 5.933-.077.104-1.254.157-2.508.47-3.686.131-.153.392-.051.549.103.131.153.209.46.209.64-.13.972-.313 1.919-.34 2.917.079 0 .157-.025.236-.025.052 0 .13.05.13.179 0 .05 0 .153-.052.204-.078.103-.235.18-.366.23zM144.253 16.137c-1.228 2.61-2.196 5.298-3.136 8.01-.079.154-.445.206-.523 0-.131-.23-.053-.844 0-1.074.418-1.74 1.176-3.353 1.803-5.017a54.443 54.443 0 0 1-2.457-3.916c-.915-1.663-1.673-3.404-1.96-5.323a.581.581 0 0 1 .314-.614c.156-.052.261.025.339.102.079.077.131.18.183.281.262 1.536.785 2.97 1.438 4.326.732 1.459 1.594 2.84 2.561 4.223a74.711 74.711 0 0 1 1.909-3.814 26.807 26.807 0 0 1 2.352-3.71c.183-.231.444-.487.68-.36.156.078.287.308.156.487a50.683 50.683 0 0 0-3.659 6.399zM154.895 12.963c0 .077 0 .205-.026.307.941.589 1.804 1.331 2.64 2.15.836.794 1.673 1.664 2.509 2.457.131.103-.078.282-.157.282-.418-.154-.731-.384-1.097-.64-.288-.23-.601-.512-.941-.742a43.762 43.762 0 0 0-2.928-2.483c-.052 1.33.105 2.585.262 3.89-.053.205-.288.23-.445.154-.183-.282-.261-.589-.339-.896-.053-.307-.105-.64-.157-.947-.157-.947-.157-1.817-.157-2.84l-.105-.078c-1.28.87-2.666 1.946-3.894 2.893a.81.81 0 0 0-.209.05c-.079 0-.183 0-.236-.076-.104-.077-.078-.18-.052-.256.026-.077.079-.154.131-.23a39.562 39.562 0 0 1 3.555-2.816c-1.255-.87-2.588-1.638-3.921-2.354-.261-.18-.601-.461-.523-.87.105-.205.418-.154.549-.077 1.621.844 3.189 1.714 4.653 2.79l.078-.052c.026-1.356.105-2.918.549-4.274.209-.307.575-.026.627.205.052 1.177-.261 2.278-.287 3.455 1.699-1.024 3.45-2.124 5.253-3.097a.67.67 0 0 1 .497.026c.131.076.261.332.131.537-1.961 1.177-3.999 2.278-5.96 3.532zM165.952 18.261c-1.307-.051-2.51-.64-3.268-1.74-.627-.922-.784-1.997-.653-3.046a6.681 6.681 0 0 1 1.333-3.174c.758-.972 1.83-1.74 3.058-1.97.837-.154 1.725-.077 2.353.588.287.307.548.64.548 1.05.027.435-.183.819-.548 1.1-1.83 1.485-3.764 2.867-5.751 3.993.052.793.758 1.612 1.516 2.022.758.41 1.647.46 2.483.358.837-.077 1.699-.358 2.3-.64.105-.076.183 0 .21.077.026.051.078.154-.027.23-.914.82-2.221 1.203-3.554 1.152zm1.15-9.137c-.758 0-1.516.307-2.117.768-1.281 1.024-2.039 2.662-2.039 4.248 1.856-.998 3.607-2.303 5.306-3.66.13-.102.235-.486.052-.793-.209-.41-.68-.563-1.202-.563zM178.657 12.477c-.183 1.817-.079 3.941.052 5.733.026.18-.235.205-.366.128-.366-.282-.549-1.024-.575-1.485a37.677 37.677 0 0 1 0-4.197c-1.934.077-4.025.026-5.933.23-.079 1.715-.026 3.353.052 4.991.026.051-.078.128-.209.154a.442.442 0 0 1-.288-.103c-.339-.332-.418-.947-.444-1.356-.131-2.585.052-5.17.314-7.704.052-.154.287-.307.496-.18.288.129.288.462.34.717-.052.666-.131 1.792-.209 2.586 1.908-.128 4.025-.052 5.933-.077.105-1.254.157-2.508.471-3.686.13-.153.392-.051.549.103.13.153.209.46.209.64-.131.972-.314 1.919-.34 2.917.078 0 .157-.025.235-.025.052 0 .131.05.131.179 0 .05 0 .153-.052.204-.079.103-.236.18-.366.23zM195.756 9.431c-.679-.153-1.359-.307-2.065-.333-.575.717-.862 1.562-1.019 2.457-.183.922-.157 1.894-.209 2.841-.052 1.28.052 2.509.209 3.712-.079.153-.314.255-.497.153-.444-.537-.549-1.228-.575-1.92-.026-1.535-.052-3.148.183-4.658.157-.972.445-1.868 1.046-2.687-1.621-.077-3.111.256-4.601.665a.827.827 0 0 1-.575-.358c-.052-.179.053-.281.157-.333l.157-.05.131-.052c1.098-.435 2.431-.665 3.711-.691 1.307-.051 2.614.077 3.764.486.131.051.366.23.445.384.026.18-.105.41-.262.384zM198.281 9.431h-.13a.215.215 0 0 1-.209-.18c-.027-.204.052-.383.209-.537a1.944 1.944 0 0 1 1.411-.486 4.15 4.15 0 0 1 1.098.205l.993.333c1.412.46 2.64 1.689 3.32 3.02.366.742.496 1.51.313 2.354-.183.768-.653 1.485-1.28 2.074-1.569 1.459-3.529 1.894-5.699 1.894-.026 1.74-.13 3.685.105 5.4 0 .077.052.18.105.256.026.128.078.23-.027.384-.209.153-.418.102-.601 0-.261-.282-.366-.589-.392-.947-.183-1.817-.104-3.583 0-5.426-.235-.205-.601-.486-.679-.794 0-.102.026-.204.078-.256.078-.128.183-.153.235-.102.079.077.236.18.366.256.157-2.56.34-4.99.784-7.448zm5.176 1.664c-.575-.691-1.386-1.178-2.17-1.51-.444-.205-1.699-.666-2.169-.461a6.56 6.56 0 0 1-.079 1.28 44.54 44.54 0 0 0-.627 6.808c1.804.128 3.529-.41 4.914-1.587.758-.64 1.202-1.536 1.124-2.457-.052-.768-.549-1.536-.993-2.073zM211.438 18.159c-1.438.384-3.111.358-4.234-.589-.523-.435-.915-1.075-.941-1.766-.027-.614.235-1.177.601-1.69.81-1.125 2.221-1.893 3.581-2.047.575-.05 1.097.026 1.516.435.13.128 0 .384-.131.435h-.235c-.079 0-.183-.025-.262-.025-.183-.026-.339-.051-.444.025-1.255.052-2.483.64-3.241 1.639-.34.435-.523.767-.471 1.305.053.716.602 1.254 1.36 1.51 1.071.384 2.404.154 3.424-.205.549-.205 1.045-.41 1.516-.742.104-.077.209 0 .261.128.026.102.026.205.026.282-.366.69-1.829 1.177-2.326 1.305zm1.464-1.74c-.131.153-.366.127-.471.05-.261-.179-.261-.511-.261-.767.026-.435.104-.87.209-1.331l.34-1.408c.209-.921.339-1.843.052-2.61-.235-.666-.81-1.331-1.516-1.408-.601-.077-1.202.128-1.699.486-.261.18-.836.666-.993.947-.026.102.026.282.13.384.105.102.027.41-.209.358-.183-.05-.392-.102-.549-.23a.611.611 0 0 1-.13-.768c.444-.742 1.071-1.356 1.882-1.715a3.03 3.03 0 0 1 1.803-.256c.784.128 1.464.691 1.856 1.408.601 1.1.523 2.483.235 3.711-.261 1.05-.523 2.022-.679 3.148zM223.122 12.477c-.183 1.817-.079 3.941.052 5.733.026.18-.235.205-.366.128-.366-.282-.549-1.024-.575-1.485a37.677 37.677 0 0 1 0-4.197c-1.934.077-4.025.026-5.933.23-.079 1.715-.026 3.353.052 4.991.026.051-.078.128-.209.154a.442.442 0 0 1-.288-.103c-.339-.332-.418-.947-.444-1.356-.131-2.585.052-5.17.314-7.704.052-.154.287-.307.496-.18.288.129.288.462.34.717-.052.666-.131 1.792-.209 2.586 1.908-.128 4.025-.052 5.933-.077.105-1.254.157-2.508.471-3.686.13-.153.392-.051.549.103.13.153.209.46.209.64-.131.972-.314 1.919-.34 2.917.078 0 .157-.025.235-.025.053 0 .131.05.131.179 0 .05 0 .153-.052.204-.079.103-.236.18-.366.23zM229.705 18.159c-.993.128-2.038.051-3.032-.538-1.306-.767-1.882-2.098-1.803-3.583a6.438 6.438 0 0 1 1.098-3.2 6.53 6.53 0 0 1 2.666-2.277c.575-.282 1.359-.41 1.986-.154.523.205 1.072.743 1.176 1.254.053.154-.209.487-.418.333-.287-.256-.653-.588-1.019-.742-.366-.154-.706-.18-1.098-.026-1.019.41-1.96 1.203-2.588 2.15a5.629 5.629 0 0 0-.941 2.944c0 .947.366 1.842 1.177 2.431.758.538 1.751.665 2.666.589 1.542-.128 2.901-.768 4.26-1.357.157 0 .392.256.262.435-1.307.717-2.797 1.51-4.392 1.74zM244.915 15.83c-1.02 1.356-2.588 2.124-4.182 2.38.026 1.92.156 3.916.365 5.861 0 .307-.705.282-.758 0-.287-1.843-.47-3.84-.575-5.759-1.176-.102-2.457-.563-3.397-1.33-.785-.666-1.307-1.434-1.464-2.432-.131-.896.104-1.792.575-2.534.915-1.51 2.692-2.483 4.339-2.918.157-1.868.313-3.736.549-5.605.13-.333.758-.153.81.18-.079 1.56-.235 3.173-.366 4.709 1.542-.026 2.927.742 3.868 1.894.654.768 1.02 1.587 1.098 2.636.052.998-.235 2.073-.862 2.918zm-2.17-6.092c-.627-.332-1.281-.614-1.96-.537-.183 2.662-.183 5.477-.105 8.164 1.386-.281 2.692-.972 3.555-2.15.549-.767.732-1.92.497-2.892-.236-1.05-1.072-2.098-1.987-2.585zm-6.639 2.867c-.392.665-.523 1.407-.209 2.2.235.64.653 1.204 1.229 1.613.758.563 1.698.896 2.587.998-.052-2.482 0-4.914.052-7.37-1.359.409-2.953 1.356-3.659 2.559zM250.925 18.261c-1.307-.051-2.509-.64-3.267-1.74-.627-.922-.784-1.997-.653-3.046a6.672 6.672 0 0 1 1.333-3.174c.758-.972 1.829-1.74 3.058-1.97.836-.154 1.725-.077 2.352.588.288.307.549.64.549 1.05.026.435-.183.819-.549 1.1-1.829 1.485-3.764 2.867-5.75 3.993.052.793.758 1.612 1.516 2.022.758.41 1.647.46 2.483.358.836-.077 1.699-.358 2.3-.64.105-.076.183 0 .209.077.026.051.079.154-.026.23-.915.82-2.222 1.203-3.555 1.152zm1.15-9.137c-.758 0-1.516.307-2.117.768-1.281 1.024-2.039 2.662-2.039 4.248 1.856-.998 3.607-2.303 5.306-3.66.131-.102.236-.486.053-.793-.209-.41-.68-.563-1.203-.563zM256.913 9.431h-.131a.215.215 0 0 1-.209-.18c-.026-.204.052-.383.209-.537a1.946 1.946 0 0 1 1.412-.486c.366.026.732.077 1.097.205l.994.333c1.411.46 2.64 1.689 3.319 3.02.366.742.497 1.51.314 2.354-.183.768-.654 1.485-1.281 2.074-1.568 1.459-3.528 1.894-5.698 1.894-.026 1.74-.131 3.685.105 5.4 0 .077.052.18.104.256.026.128.079.23-.026.384-.209.153-.418.102-.601 0-.262-.282-.366-.589-.392-.947-.183-1.817-.105-3.583 0-5.426-.235-.205-.601-.486-.68-.794 0-.102.026-.204.079-.256.078-.128.183-.153.235-.102.078.077.235.18.366.256.157-2.56.34-4.99.784-7.448zm5.175 1.664c-.575-.691-1.385-1.178-2.169-1.51-.445-.205-1.699-.666-2.17-.461.026.358-.026.998-.078 1.28a44.54 44.54 0 0 0-.627 6.808c1.803.128 3.528-.41 4.914-1.587.758-.64 1.202-1.536 1.123-2.457-.052-.768-.548-1.536-.993-2.073zM34.135 39.402c-1.176.589-2.587.845-3.868.23a3.935 3.935 0 0 1-2.039-2.329c-.392-1.203-.261-2.56.261-3.685a5.768 5.768 0 0 1 1.7-2.073c.47-.333 1.175-.743 1.829-.82.523-.588 1.385-.767 2.117-.588 1.255.333 2.326 1.587 2.666 2.687.34 1.075.418 2.253.105 3.353-.392 1.485-1.386 2.56-2.77 3.225zm1.804-6.296c-.314-.845-1.02-1.792-1.935-2.099-.418-.153-.862-.205-1.202.051-.34.256-.549.666-.706 1.024-.026.077-.026.18-.026.282 0 .102 0 .23-.026.332-.026.052-.287.205-.366.052a4.189 4.189 0 0 1-.078-1.05c-.994.41-1.83 1.254-2.3 2.201-.497.998-.523 2.15-.21 3.174.262.793.759 1.459 1.595 1.792 1.045.383 2.17.256 3.11-.205 1.072-.538 1.83-1.357 2.196-2.457.34-.973.287-2.125-.052-3.097zM46.152 31.186c-.68-.153-1.359-.307-2.065-.332-.575.716-.862 1.56-1.019 2.457-.183.921-.157 1.894-.209 2.84-.052 1.28.052 2.509.21 3.712-.08.153-.315.256-.498.153-.444-.537-.548-1.228-.575-1.92-.026-1.535-.052-3.147.183-4.657.157-.973.445-1.869 1.046-2.688-1.62-.077-3.11.256-4.6.666a.826.826 0 0 1-.575-.359c-.053-.179.052-.281.157-.332l.156-.052.131-.05c1.098-.436 2.43-.666 3.712-.692 1.306-.051 2.613.077 3.763.487.131.05.366.23.445.383.026.18-.105.41-.262.384zM61.415 43.344c-.34.23-1.333.793-1.83.742-.13-.051-.209-.282-.078-.333 1.124-.64 2.379-1.587 3.32-2.815.052-.077.052-.256 0-.307-.523-.384-.994-.845-1.334-1.434-.209-.384-.365-.819-.365-1.305-.628.614-1.386 1.075-2.17 1.433a12.97 12.97 0 0 1-2.457.743c-.418.025-.836-.103-1.15-.435-.366-.385-.366-.896-.418-1.383-.261-2.508.13-4.914.862-7.166.053-.282.575-.358.732-.026.157.282 0 .691-.078.973a17.6 17.6 0 0 0-.575 6.757c.026.23.261.41.523.435.627.026 1.803-.435 2.378-.666.915-.383 1.83-.819 2.3-1.74-.052-2.227.314-4.505.967-6.578.236-.41.628-.076.758.18-.026.383-.104.716-.182 1.074-.079.333-.157.666-.236 1.024-.34 1.869-.549 3.916-.366 5.81.157.742.863 1.306 1.49 1.766.21.23.288.563.21.87-.497.973-1.36 1.792-2.3 2.38zM68.65 40.016c-1.308-.05-2.51-.64-3.268-1.74-.627-.921-.784-1.996-.654-3.046a6.684 6.684 0 0 1 1.334-3.173c.758-.973 1.83-1.74 3.058-1.971.836-.154 1.725-.077 2.352.588.288.308.549.64.549 1.05.026.435-.183.819-.549 1.1-1.83 1.485-3.764 2.867-5.75 3.993.052.794.758 1.612 1.516 2.022.758.41 1.646.46 2.483.358.836-.076 1.699-.358 2.3-.64.105-.076.183 0 .21.077.025.051.078.154-.027.23-.915.82-2.222 1.204-3.555 1.152zm1.15-9.137c-.759 0-1.517.307-2.118.768-1.28 1.024-2.039 2.662-2.039 4.249 1.856-.998 3.607-2.304 5.306-3.66.131-.103.236-.487.053-.794-.21-.41-.68-.563-1.203-.563zM81.354 34.232c-.183 1.817-.078 3.942.052 5.733.027.18-.235.205-.365.128-.366-.281-.55-1.024-.575-1.484a37.485 37.485 0 0 1 0-4.198c-1.935.077-4.026.026-5.934.23-.078 1.715-.026 3.353.053 4.992.026.05-.079.127-.21.153a.441.441 0 0 1-.287-.102c-.34-.333-.418-.947-.444-1.357-.131-2.585.052-5.17.313-7.704.053-.153.288-.307.497-.179.287.128.287.46.34.717-.053.665-.131 1.791-.21 2.585 1.909-.128 4.026-.051 5.934-.077.104-1.254.157-2.508.47-3.686.131-.153.392-.05.55.103.13.153.208.46.208.64-.13.972-.313 1.92-.34 2.917.079 0 .157-.025.236-.025.052 0 .13.051.13.179 0 .051 0 .154-.052.205-.078.102-.235.179-.366.23zM91.18 31.186c-.68-.153-1.36-.307-2.066-.332-.575.716-.862 1.56-1.02 2.457-.182.921-.156 1.894-.208 2.84-.053 1.28.052 2.509.209 3.712-.079.153-.314.256-.497.153-.444-.537-.549-1.228-.575-1.92-.026-1.535-.052-3.147.183-4.657.157-.973.444-1.869 1.046-2.688-1.62-.077-3.11.256-4.6.666a.826.826 0 0 1-.576-.359c-.052-.179.053-.281.157-.332l.157-.052.13-.05c1.098-.436 2.431-.666 3.712-.692 1.307-.051 2.614.077 3.764.487.13.05.366.23.444.383.027.18-.104.41-.26.384zM93.704 31.186h-.13a.215.215 0 0 1-.21-.179c-.026-.205.053-.384.21-.537a1.945 1.945 0 0 1 1.411-.487c.366.026.732.077 1.098.205l.993.333c1.411.46 2.64 1.69 3.32 3.02.365.742.496 1.51.313 2.355-.183.767-.653 1.484-1.28 2.073-1.569 1.459-3.53 1.894-5.699 1.894-.026 1.74-.13 3.685.105 5.4 0 .077.052.18.105.256.026.128.078.23-.027.384-.209.154-.418.102-.6 0-.262-.282-.367-.589-.393-.947-.183-1.817-.105-3.583 0-5.426-.235-.205-.601-.486-.68-.793 0-.103.027-.205.079-.256.078-.128.183-.154.235-.103.079.077.235.18.366.256.157-2.56.34-4.99.784-7.448zm5.175 1.664c-.575-.691-1.385-1.177-2.169-1.51-.444-.205-1.699-.666-2.17-.46.027.358-.026.997-.078 1.279a44.564 44.564 0 0 0-.627 6.808c1.803.128 3.529-.41 4.914-1.587.758-.64 1.202-1.536 1.124-2.457-.053-.768-.55-1.536-.994-2.073zM106.861 39.914c-1.438.384-3.111.358-4.235-.589-.522-.435-.914-1.075-.941-1.766-.026-.614.236-1.177.602-1.689.81-1.126 2.221-1.894 3.581-2.047.575-.052 1.097.025 1.516.435.13.128 0 .384-.131.435h-.235c-.079 0-.183-.026-.262-.026-.183-.025-.34-.051-.444.026-1.255.05-2.483.64-3.241 1.638-.34.435-.523.768-.471 1.305.053.717.601 1.254 1.359 1.51 1.072.384 2.405.154 3.425-.205.548-.204 1.045-.41 1.516-.742.104-.077.209 0 .261.128.026.102.026.205.026.282-.366.69-1.83 1.177-2.326 1.305zm1.463-1.74c-.13.153-.365.128-.47.05-.261-.178-.261-.511-.261-.767.026-.435.104-.87.209-1.331l.34-1.408c.209-.921.339-1.843.052-2.61-.235-.666-.81-1.331-1.516-1.408-.601-.077-1.203.128-1.699.486-.262.18-.837.666-.993.947-.027.103.026.282.13.384.105.103.026.41-.209.358-.183-.05-.392-.102-.549-.23a.61.61 0 0 1-.13-.768c.444-.742 1.071-1.356 1.882-1.714a3.03 3.03 0 0 1 1.803-.256c.784.128 1.464.69 1.856 1.407.601 1.1.523 2.483.235 3.712-.261 1.049-.523 2.021-.68 3.148zM126.996 43.855c-.079.205-.34.205-.471.129-.287-.256-.287-.615-.314-.973-.078-1.075-.183-2.252-.052-3.353a27.612 27.612 0 0 0-7.423.333 16.483 16.483 0 0 0 .157 3.941c-.026.128-.209.333-.418.205-.236-.102-.34-.307-.392-.486l-.131-.563c-.052-.563-.105-1.126-.131-1.664a10.944 10.944 0 0 1 .026-1.612c.026-.205.209-.41.392-.538l.732-.153c1.516-2.483 2.771-5.043 3.869-7.704.026-.128.078-.487-.027-.615-.078-.332.131-.511.34-.665.837-.128 1.778-.102 2.509.307.288.128.419.41.471.691 0 1.331.026 4.095.052 5.452.105.742 0 1.51-.052 2.252.052.026.131.026.235.026.157.025.262 0 .34 0 .235.025.444.179.444.383-.209 1.536-.235 3.098-.156 4.608zm-1.621-5.758c-.026-.256-.052-.486-.052-.768 0-1.51-.026-4.48-.053-5.99-.104-.204-.287-.306-.496-.357-.366-.103-.81-.077-1.203-.052.105.359.027.743-.052 1.075-1.045 2.38-2.143 4.76-3.555 6.988a33.863 33.863 0 0 1 5.385-.205c.026-.23.026-.46.026-.691zM134.347 39.402c-1.176.589-2.587.845-3.868.23a3.937 3.937 0 0 1-2.039-2.329c-.392-1.203-.261-2.56.262-3.685a5.764 5.764 0 0 1 1.699-2.073c.47-.333 1.176-.743 1.829-.82.523-.588 1.386-.767 2.117-.588 1.255.333 2.327 1.587 2.666 2.687.34 1.075.419 2.253.105 3.353-.392 1.485-1.385 2.56-2.771 3.225zm1.804-6.296c-.314-.845-1.019-1.792-1.934-2.099-.418-.153-.863-.205-1.203.051-.339.256-.549.666-.705 1.024-.026.077-.026.18-.026.282 0 .102 0 .23-.027.332-.026.052-.287.205-.366.052a4.214 4.214 0 0 1-.078-1.05c-.993.41-1.83 1.254-2.3 2.201-.497.998-.523 2.15-.209 3.174.261.793.758 1.459 1.594 1.792 1.046.383 2.17.256 3.111-.205 1.071-.538 1.829-1.357 2.195-2.457.34-.973.288-2.125-.052-3.097zM156.698 32.21c-.157 2.201-.027 4.505.209 6.552.052.205-.288.23-.392.154a1.078 1.078 0 0 1-.236-.358l-.104-.41c-.575-2.227-.471-4.607-.314-6.936.157-2.176.523-4.351.915-6.348a26.427 26.427 0 0 0-4.104-.844c-1.124-.154-2.274-.23-3.424-.128-.104 0-.261.051-.392.077-.157.05-.287.076-.366.128-.183.05-.444-.128-.366-.359.131-.332.471-.588.784-.665a8.235 8.235 0 0 1 1.778-.026c.601.026 1.254.103 1.803.154 1.647.179 3.268.41 4.731.845.262.076.419.281.523.537-.444 2.508-.836 4.99-1.045 7.627zm-9.201-7.218c-.105.077-.34.41-.392.59-.235 1.816-.288 3.736-.235 5.655.078 2.56.366 5.12.575 7.55l-.053.59c-.026.204-.078.409-.261.537-.104.102-.418.051-.47-.154-.183-2.994-.68-5.963-.706-9.06-.026-1.715.026-3.506.261-5.221.157-.333.183-.742.418-1.05.131-.128.393-.255.602-.128.104.052.287.18.366.282.13.128.026.358-.105.41zM162.991 40.016c-1.307-.05-2.51-.64-3.268-1.74-.627-.921-.784-1.996-.653-3.046a6.681 6.681 0 0 1 1.333-3.173c.758-.973 1.83-1.74 3.058-1.971.837-.154 1.725-.077 2.353.588.287.308.548.64.548 1.05.027.435-.182.819-.548 1.1-1.83 1.485-3.764 2.867-5.751 3.993.053.794.758 1.612 1.516 2.022.758.41 1.647.46 2.483.358.837-.076 1.699-.358 2.3-.64.105-.076.183 0 .21.077.026.051.078.154-.027.23-.914.82-2.221 1.204-3.554 1.152zm1.15-9.137c-.758 0-1.516.307-2.117.768-1.281 1.024-2.039 2.662-2.039 4.249 1.856-.998 3.607-2.304 5.306-3.66.131-.103.235-.487.052-.794-.209-.41-.68-.563-1.202-.563zM179.303 39.863c-.34-.358-.575-.794-.628-1.306-1.071.538-2.117.947-3.345.973-.471 0-.967-.051-1.307-.41-.314-.332-.366-.742-.444-1.151-1.02.793-2.091 1.535-3.32 1.791-.68.154-1.202.18-1.647-.46-.366-.512-.522-1.817-.575-2.457-.156-2.253.131-4.48.68-6.476.052-.179.209-.41.34-.41.183 0 .392.103.47.308 0 .384-.052.742-.131 1.075a7.751 7.751 0 0 0-.235 1.05c-.13.946-.287 1.919-.287 2.891 0 1.178.104 2.33.418 3.43.131.333.549.333.889.23 1.202-.307 2.274-1.023 3.241-1.894-.131-1.92-.105-4.146.418-5.835.052-.102.235-.154.418-.102.105.05.288.153.288.307-.157 1.28-.34 2.661-.314 3.992 0 1.024.131 2.048.392 2.97.052.23.366.332.68.332 1.045-.051 2.404-.41 3.293-.947-.287-2.534-.078-5.196.418-7.576.183-.179.471-.179.601 0 .183.18.131.46.105.691v.205c-.444 2.994-.47 5.759.026 8.753-.078.18-.287.128-.444.026zM190.085 39.965c-1.254-.69-2.535-1.177-3.868-1.638-1.307-.46-2.561-.921-3.816-1.459a9.295 9.295 0 0 0 .34 2.713c.078.154.026.435-.209.435-.209 0-.34-.128-.419-.256-.078-.102-.13-.255-.209-.383-.287-.922-.392-1.92-.392-2.944a.576.576 0 0 1-.235-.256c-.078-.077-.105-.23-.026-.358a.719.719 0 0 0 .235-.333c.052-.333.026-1.1.105-1.433.104-.589.261-1.305.418-2.022.183-.717.444-1.433.784-2.048.157-.256.549-.204.627.077-.026.333-.13.64-.235.947-.078.282-.235.589-.314.896a11.524 11.524 0 0 0-.444 2.84 46.671 46.671 0 0 1 2.849-2.303c1.202-.87 2.483-1.612 3.842-2.15.209 0 .471 0 .628.129.156.102.157.255.078.435-1.385.563-2.64 1.305-3.921 2.175a33.13 33.13 0 0 0-3.528 2.867v.025c1.281.691 2.692 1.152 4.051 1.613 1.203.41 2.353.87 3.45 1.561.236.128.419.307.549.538.026.153-.183.358-.34.332zM197.267 39.402c-1.176.589-2.587.845-3.868.23a3.937 3.937 0 0 1-2.039-2.329c-.392-1.203-.261-2.56.261-3.685a5.784 5.784 0 0 1 1.699-2.073c.471-.333 1.177-.743 1.83-.82.523-.588 1.385-.767 2.117-.588 1.255.333 2.327 1.587 2.666 2.687.34 1.075.419 2.253.105 3.353-.392 1.485-1.385 2.56-2.771 3.225zm1.804-6.296c-.314-.845-1.02-1.792-1.934-2.099-.419-.153-.863-.205-1.203.051-.34.256-.549.666-.705 1.024-.027.077-.027.18-.027.282 0 .102 0 .23-.026.332-.026.052-.287.205-.366.052a4.214 4.214 0 0 1-.078-1.05c-.993.41-1.83 1.254-2.3 2.201-.497.998-.523 2.15-.209 3.174.261.793.758 1.459 1.594 1.792 1.046.383 2.17.256 3.11-.205 1.072-.538 1.83-1.357 2.196-2.457.34-.973.288-2.125-.052-3.097zM206.54 39.325c-.784.512-1.751.922-2.718.922-.549 0-.941-.23-1.307-.742-.131.102-.366.179-.471.025-.47-.64-.601-1.536-.627-2.406-.052-2.227-.026-3.864.575-5.86.052-.206.549-.59.915-.487.157-.41.575-.845 1.072-.896 1.333 0 2.77.691 3.215 1.996.13.41.13.845-.027 1.255a2.307 2.307 0 0 1-.758.972l-.156.128c.653.205 1.385.614 1.803 1.254.314.486.34 1.075.209 1.638-.235.922-.915 1.664-1.725 2.201zm.732-3.404c-.209-.384-.784-.614-1.202-.819-.497-.307-.941-.179-1.438-.076l-.784.179a1.743 1.743 0 0 1-.889 0c-.13-.077-.287-.333-.157-.461.314-.307.706-.46 1.15-.563l1.203-.128c.47-.256.967-.768 1.176-1.254.131-.41.052-.691-.209-1.024-.471-.64-1.229-.921-1.987-.998-.235-.026-.313.025-.366.179-.078.205-.13.435-.261.614-.052.128-.235.18-.366.103a.509.509 0 0 1-.235-.128c-.314 1.1-.497 2.354-.549 3.66-.052 1.228 0 2.431.183 3.557.209-.23.47-.563.601-.742.183-.18.523.102.471.282-.053.127-.157.281-.236.41-.052.153-.13.28-.13.383.157.23.522.307.967.256.653-.102 1.437-.46 2.012-.896.523-.41.968-.921 1.098-1.561.079-.307.131-.666-.052-.973zM215.416 39.402c-1.176.589-2.588.845-3.869.23a3.932 3.932 0 0 1-2.038-2.329c-.392-1.203-.262-2.56.261-3.685a5.764 5.764 0 0 1 1.699-2.073c.47-.333 1.176-.743 1.83-.82.522-.588 1.385-.767 2.117-.588 1.254.333 2.326 1.587 2.666 2.687.34 1.075.418 2.253.104 3.353-.392 1.485-1.385 2.56-2.77 3.225zm1.803-6.296c-.313-.845-1.019-1.792-1.934-2.099-.418-.153-.862-.205-1.202.051-.34.256-.549.666-.706 1.024-.026.077-.026.18-.026.282 0 .102 0 .23-.026.332-.026.052-.288.205-.366.052a4.21 4.21 0 0 1-.079-1.05c-.993.41-1.829 1.254-2.3 2.201-.496.998-.523 2.15-.209 3.174.262.793.758 1.459 1.595 1.792 1.045.383 2.169.256 3.11-.205 1.072-.538 1.83-1.357 2.196-2.457.339-.973.287-2.125-.053-3.097zM227.485 29.139c-1.228 1.97-2.64 3.916-3.764 5.989-.13.102-.365.051-.418-.077a1.376 1.376 0 0 1 .053-.742c.052-.23.13-.41.209-.64.888-1.587 1.986-3.097 2.953-4.633a3.045 3.045 0 0 0 .392-1.766 2.288 2.288 0 0 0-.522-1.305c-.628-.768-1.412-1.356-2.274-1.638a3.388 3.388 0 0 0-1.83-.128c-.418.077-.784.256-1.15.589-.34.307-.627.69-.758 1.126-.157.128-.445.128-.523-.103-.078-.332.052-.614.157-.92.444-.743 1.072-1.255 1.803-1.511a4.022 4.022 0 0 1 1.908-.153c.758.127 1.438.435 2.065.87a5.538 5.538 0 0 1 1.595 1.689c.34.512.496 1.203.47 1.868 0 .512-.104 1.075-.366 1.485zm-1.672 11.057a4.312 4.312 0 0 1-1.882-.436c-.602-.307-1.124-.69-1.516-1.254-.105-.153-.131-.41-.079-.614.052-.205.209-.333.471-.23l.627.665c.209.205.444.41.653.563.602.435 1.36.666 2.118.896.078.18-.21.358-.392.41zM237.075 28.243a1.835 1.835 0 0 1-.471.41c-.261.025-.47 0-.653-.103-.575-.256-1.229-.665-1.699-.998-.026.819-.105 1.663 0 2.457-.052.41-.523.23-.575.128-.052-.051-.105-.102-.131-.18a.556.556 0 0 1-.13-.204c-.053-.23-.053-.46-.053-.665.026-.436.053-.896.053-1.331-.602.563-1.333 1.049-2.118 1.33-.183.026-.47.026-.679-.153-.314-.256-.026-.691.34-.921l.183.332c.183-.05.366-.179.548-.256.549-.332 1.098-.819 1.543-1.305-.837-.665-1.673-1.484-2.379-2.227-.183-.153-.105-.383-.026-.511.235-.308.601-.103.68-.026.601.64 1.228 1.254 1.881 1.843 0-.691.027-1.382-.026-2.022l-.209-.589c-.026-.153.079-.512.418-.486.236.077.366.256.471.46l.078.18c.079.179.131.512.131.69v1.408l.078-.128.549-.716c.183-.256.445-.461.758-.64.418-.23 1.203 0 .967.768-.183-.026-.235-.052-.313-.077-.053 0-.105-.026-.209-.051-.157-.051-.68.64-.758.742-.314.41-.575.845-.915 1.28.627.46 1.307.87 2.065 1.228a.342.342 0 0 1 .157-.128c.052-.05.104-.076.287-.153.209.204.235.358.209.46-.026.052-.052.077-.052.154z" fill="#fff"/><path d="M247.234 28.243a1.835 1.835 0 0 1-.471.41c-.261.025-.47 0-.653-.103-.575-.256-1.228-.665-1.699-.998-.026.819-.104 1.663 0 2.457-.052.41-.523.23-.575.128-.052-.051-.105-.102-.131-.18a.556.556 0 0 1-.13-.204c-.053-.23-.053-.46-.053-.665.026-.436.053-.896.053-1.331-.602.563-1.333 1.049-2.118 1.33-.183.026-.47.026-.679-.153-.314-.256-.026-.691.34-.921l.183.332c.183-.05.366-.179.549-.256.548-.332 1.097-.819 1.542-1.305-.837-.665-1.673-1.484-2.379-2.227-.183-.153-.104-.383-.026-.511.235-.308.601-.103.68-.026.601.64 1.228 1.254 1.881 1.843 0-.691.027-1.382-.026-2.022l-.209-.589c-.026-.153.079-.512.418-.486.236.077.366.256.471.46l.078.18c.079.179.131.512.131.69v1.408l.078-.128.549-.716c.183-.256.445-.461.758-.64.419-.23 1.203 0 .967.768-.182-.026-.235-.052-.313-.077-.052 0-.105-.026-.209-.051-.157-.051-.68.64-.758.742-.314.41-.575.845-.915 1.28.627.46 1.307.87 2.065 1.228a.342.342 0 0 1 .157-.128c.052-.05.104-.076.287-.153.209.204.235.358.209.46-.026.052-.052.077-.052.154zM39.023 4.978c-.34 1.33-.497 2.764-.654 4.172-.13.972-.182 1.945-.209 2.943-.052 1.459-.052 2.918-.104 4.402a.548.548 0 0 1-.523.41c-.34 0-.497-.333-.575-.615l-.105-.204a65.586 65.586 0 0 0-2.404-7.781c-.445-1.203-.863-2.38-1.333-3.558a34.22 34.22 0 0 0-1.62-3.455c-.027 0-.053-.051-.053-.026-.706 2.253-1.202 4.53-1.438 6.937-.209 2.175-.235 4.402-.156 6.654.052.307.052.64.104.973.026.307.079.614.183.896.026.179-.104.307-.261.358-.47-.103-.575-.486-.654-.896l-.078-.358c-.21-1.869-.235-3.788-.13-5.708.13-2.278.47-4.556.94-6.654.261-1.101.601-2.253 1.046-3.276.078-.18.392-.256.575-.128.156.128.235.281.34.46.653 1.024 1.176 2.099 1.62 3.174l1.333 3.276c.993 2.457 1.803 4.99 2.483 7.576.026-2.176.052-4.454.288-6.603.183-1.869.575-3.712 1.359-5.324.052-.102.104-.23.183-.333.183-.358.444-.742.94-.716.288.153.184.435.053.614-.575.845-.889 1.791-1.15 2.79zm6.534 8.343c-.6.538-1.333.896-2.248.82-.784-.077-1.49-.512-1.881-1.101-.706-1.024-.863-2.304-.654-3.48.157-.846.575-1.92 1.124-2.586.183-.128.34-.307.601-.282.21.077.235.282.157.41-.496.819-.967 1.843-1.098 2.892-.104.998.026 1.997.654 2.79.392.486 1.071.665 1.725.537 1.307-.41 1.96-1.612 2.195-2.687.21-.87.183-1.817-.026-2.687a3.74 3.74 0 0 0-1.045-1.869c-.236-.23-.706-.333-1.046-.256-.392.077-.706.359-.915.666-.13.102-.313-.051-.313-.154.026-.384.418-.921.836-1.1.523-.256 1.333-.256 1.83.128.836.64 1.15 1.28 1.411 2.175a6.932 6.932 0 0 1 .079 3.276c-.21.947-.68 1.843-1.386 2.508zm-3.136 3.02c-.157.052-.601.077-.81.128-.21.103-.523.077-.758.077-.131-.05-.21-.025-.314-.05-.078-.026-.157-.052-.235-.154-.053-.103-.079-.256-.053-.384a.606.606 0 0 1 .157-.282.77.77 0 0 1 .418-.23c.183-.051.314-.026.445-.051.261 0 .758.025.993.05.157.078.314.052.497.103.183-.077 1.699-.051 1.934 0 .575-.051 1.255 0 1.725.128.157.051.549.051.68.205-.053.358-.89.537-1.255.435-.21.051-.68-.077-.993 0-.262-.051-.837.051-1.072.026-.418-.026-1.072-.052-1.36 0zM57.131 11.043a11.367 11.367 0 0 0-.026 1.639l.079 1.766c.052 1.33-.053 2.713-.628 3.813-.026.077-.104.102-.183.128-.052 0-.183 0-.183-.128.236-1.228.21-2.457.131-3.711-.052-1.126-.13-2.252-.052-3.404-.941 0-1.856-.128-2.692-.46-.837-.334-1.647-.897-2.3-1.588-.81-.87-1.438-2.073-1.83-3.173a10.34 10.34 0 0 1-.497-4.223c.052-.154.262-.308.366-.384.157-.026.366.102.418.256-.026 1.407.157 2.84.575 4.095.288.844.654 1.612 1.177 2.278.653.844 1.516 1.535 2.613 2.022.654.307 1.412.383 2.17.383.183-1.893.209-3.941.627-5.835.183-.768.627-1.69 1.516-1.97.47-.129 1.02-.103 1.412.153.209.102-.027.333-.131.333a1.398 1.398 0 0 0-.863.076 2.297 2.297 0 0 0-.836.743c-.261.64-.392 1.33-.497 2.021-.104.717-.13 1.434-.183 2.15-.052.59-.13 1.69-.157 2.278 1.778-.128 3.372-.819 4.914-1.612.21-.18.314.179.236.307-1.516 1.126-3.241 1.843-5.176 2.047zM80.188 10.455c-2.457-.103-4.914.281-7.37.102-.471-.025-1.046-.153-1.386-.537-.183-.205.026-.666.34-.614 1.124.127 2.248.179 3.372.153 1.463-.026 3.005-.128 4.338-.077.262 0 .863.103 1.046.41.183.256-.052.588-.34.563zM95.275 17.57c-.784.512-1.75.921-2.718.921-.549 0-.941-.23-1.307-.742-.13.103-.366.18-.47.026-.47-.64-.602-1.536-.628-2.406-.052-2.227-.026-3.865.575-5.861.053-.205.55-.589.915-.486.157-.41.575-.845 1.072-.896 1.333 0 2.77.69 3.215 1.996.13.41.13.845-.026 1.254a2.315 2.315 0 0 1-.758.973l-.157.128c.653.205 1.385.614 1.803 1.254.314.486.34 1.075.21 1.638-.236.921-.915 1.664-1.726 2.201zm.732-3.404c-.209-.384-.784-.614-1.202-.819-.497-.307-.941-.18-1.438-.077l-.784.18a1.742 1.742 0 0 1-.888 0c-.131-.077-.288-.333-.157-.461.313-.307.705-.461 1.15-.563l1.202-.128c.47-.256.967-.768 1.176-1.255.13-.409.052-.69-.209-1.023-.47-.64-1.228-.922-1.986-.998-.236-.026-.314.025-.366.179-.079.204-.131.435-.262.614-.052.128-.235.18-.366.102a.508.508 0 0 1-.235-.128c-.313 1.101-.496 2.355-.549 3.66-.052 1.229 0 2.432.183 3.558.21-.23.47-.563.601-.742.183-.18.523.102.47.281-.051.128-.156.282-.234.41-.053.153-.131.281-.131.384.157.23.523.307.967.256.654-.103 1.438-.461 2.013-.896.522-.41.967-.921 1.097-1.561.079-.307.131-.666-.052-.973zM103.236 18.159c-1.437.384-3.11.358-4.234-.589-.523-.435-.915-1.075-.941-1.766-.026-.614.235-1.177.601-1.69.81-1.125 2.222-1.893 3.581-2.047.575-.05 1.098.026 1.516.435.131.128 0 .384-.131.435h-.235c-.078 0-.183-.025-.261-.025-.183-.026-.34-.051-.445.025-1.254.052-2.483.64-3.24 1.639-.34.435-.524.767-.471 1.305.052.716.6 1.254 1.359 1.51 1.072.384 2.405.154 3.424-.205.549-.205 1.045-.41 1.516-.742.104-.077.209 0 .261.128.026.102.026.205.026.282-.365.69-1.829 1.177-2.326 1.305zm1.464-1.74c-.131.153-.366.127-.471.05-.261-.179-.261-.511-.261-.767.026-.435.105-.87.209-1.331l.34-1.408c.209-.921.34-1.843.052-2.61-.235-.666-.81-1.331-1.516-1.408-.601-.077-1.202.128-1.699.486-.261.18-.836.666-.993.947-.026.102.026.282.131.384.104.102.026.41-.209.358-.183-.05-.392-.102-.55-.23a.611.611 0 0 1-.13-.768c.444-.742 1.072-1.356 1.882-1.715.523-.256 1.15-.358 1.803-.256.785.128 1.464.691 1.856 1.408.601 1.1.523 2.483.235 3.711-.261 1.05-.522 2.022-.679 3.148zM119.599 18.261a.488.488 0 0 1-.366-.256l-.079-.128c-.967-2.047-1.385-4.35-1.411-6.782-.34.819-.68 1.612-1.072 2.406-.444.895-.941 1.766-1.646 2.585-.314.384-.915.435-1.386.332-.392-.179-.653-.614-.836-.972-.993-1.869-1.464-3.967-1.96-6.015 0-.025-.027-.051-.053-.025-1.62 2.329-2.561 4.94-3.215 7.703-.104.256.131.487.157.743.052.153-.052.307-.261.384-.288.025-.523-.205-.654-.41-.183-.435-.157-.921-.026-1.357.863-2.764 1.751-5.502 3.581-7.908a.828.828 0 0 1 .68-.102c.261 0 .496.255.522.435.575 2.2 1.046 4.453 2.17 6.45.157.204.366.332.601.255.601-.563.993-1.254 1.385-1.945.784-1.408 1.333-2.892 1.935-4.428l.13-.179c.079-.077.131-.128.262-.128.261-.077.444.103.548.282-.052 1.587-.026 3.071.157 4.53a17.392 17.392 0 0 0 1.072 4.274c.026.18-.157.256-.235.256zM136.31 12.477c-.183 1.817-.078 3.941.052 5.733.027.18-.235.205-.365.128-.366-.282-.549-1.024-.575-1.485a37.2 37.2 0 0 1 0-4.197c-1.935.077-4.026.026-5.934.23-.078 1.715-.026 3.353.053 4.991.026.051-.079.128-.21.154a.44.44 0 0 1-.287-.103c-.34-.332-.418-.947-.444-1.356-.131-2.585.052-5.17.313-7.704.052-.154.288-.307.497-.18.287.129.287.462.34.717-.053.666-.131 1.792-.209 2.586 1.908-.128 4.025-.052 5.933-.077.104-1.254.157-2.508.47-3.686.131-.153.392-.051.549.103.131.153.209.46.209.64-.13.972-.313 1.919-.34 2.917.079 0 .157-.025.236-.025.052 0 .13.05.13.179 0 .05 0 .153-.052.204-.078.103-.235.18-.366.23zM144.253 16.137c-1.228 2.61-2.196 5.298-3.136 8.01-.079.154-.445.206-.523 0-.131-.23-.053-.844 0-1.074.418-1.74 1.176-3.353 1.803-5.017a54.443 54.443 0 0 1-2.457-3.916c-.915-1.663-1.673-3.404-1.96-5.323a.581.581 0 0 1 .314-.614c.156-.052.261.025.339.102.079.077.131.18.183.281.262 1.536.785 2.97 1.438 4.326.732 1.459 1.594 2.84 2.561 4.223a74.711 74.711 0 0 1 1.909-3.814 26.807 26.807 0 0 1 2.352-3.71c.183-.231.444-.487.68-.36.156.078.287.308.156.487a50.683 50.683 0 0 0-3.659 6.399zM154.895 12.963c0 .077 0 .205-.026.307.941.589 1.804 1.331 2.64 2.15.836.794 1.673 1.664 2.509 2.457.131.103-.078.282-.157.282-.418-.154-.731-.384-1.097-.64-.288-.23-.601-.512-.941-.742a43.762 43.762 0 0 0-2.928-2.483c-.052 1.33.105 2.585.262 3.89-.053.205-.288.23-.445.154-.183-.282-.261-.589-.339-.896-.053-.307-.105-.64-.157-.947-.157-.947-.157-1.817-.157-2.84l-.105-.078c-1.28.87-2.666 1.946-3.894 2.893a.81.81 0 0 0-.209.05c-.079 0-.183 0-.236-.076-.104-.077-.078-.18-.052-.256.026-.077.079-.154.131-.23a39.562 39.562 0 0 1 3.555-2.816c-1.255-.87-2.588-1.638-3.921-2.354-.261-.18-.601-.461-.523-.87.105-.205.418-.154.549-.077 1.621.844 3.189 1.714 4.653 2.79l.078-.052c.026-1.356.105-2.918.549-4.274.209-.307.575-.026.627.205.052 1.177-.261 2.278-.287 3.455 1.699-1.024 3.45-2.124 5.253-3.097a.67.67 0 0 1 .497.026c.131.076.261.332.131.537-1.961 1.177-3.999 2.278-5.96 3.532zM165.952 18.261c-1.307-.051-2.51-.64-3.268-1.74-.627-.922-.784-1.997-.653-3.046a6.681 6.681 0 0 1 1.333-3.174c.758-.972 1.83-1.74 3.058-1.97.837-.154 1.725-.077 2.353.588.287.307.548.64.548 1.05.027.435-.183.819-.548 1.1-1.83 1.485-3.764 2.867-5.751 3.993.052.793.758 1.612 1.516 2.022.758.41 1.647.46 2.483.358.837-.077 1.699-.358 2.3-.64.105-.076.183 0 .21.077.026.051.078.154-.027.23-.914.82-2.221 1.203-3.554 1.152zm1.15-9.137c-.758 0-1.516.307-2.117.768-1.281 1.024-2.039 2.662-2.039 4.248 1.856-.998 3.607-2.303 5.306-3.66.13-.102.235-.486.052-.793-.209-.41-.68-.563-1.202-.563zM178.657 12.477c-.183 1.817-.079 3.941.052 5.733.026.18-.235.205-.366.128-.366-.282-.549-1.024-.575-1.485a37.677 37.677 0 0 1 0-4.197c-1.934.077-4.025.026-5.933.23-.079 1.715-.026 3.353.052 4.991.026.051-.078.128-.209.154a.442.442 0 0 1-.288-.103c-.339-.332-.418-.947-.444-1.356-.131-2.585.052-5.17.314-7.704.052-.154.287-.307.496-.18.288.129.288.462.34.717-.052.666-.131 1.792-.209 2.586 1.908-.128 4.025-.052 5.933-.077.105-1.254.157-2.508.471-3.686.13-.153.392-.051.549.103.13.153.209.46.209.64-.131.972-.314 1.919-.34 2.917.078 0 .157-.025.235-.025.052 0 .131.05.131.179 0 .05 0 .153-.052.204-.079.103-.236.18-.366.23zM195.756 9.431c-.679-.153-1.359-.307-2.065-.333-.575.717-.862 1.562-1.019 2.457-.183.922-.157 1.894-.209 2.841-.052 1.28.052 2.509.209 3.712-.079.153-.314.255-.497.153-.444-.537-.549-1.228-.575-1.92-.026-1.535-.052-3.148.183-4.658.157-.972.445-1.868 1.046-2.687-1.621-.077-3.111.256-4.601.665a.827.827 0 0 1-.575-.358c-.052-.179.053-.281.157-.333l.157-.05.131-.052c1.098-.435 2.431-.665 3.711-.691 1.307-.051 2.614.077 3.764.486.131.051.366.23.445.384.026.18-.105.41-.262.384zM198.281 9.431h-.13a.215.215 0 0 1-.209-.18c-.027-.204.052-.383.209-.537a1.944 1.944 0 0 1 1.411-.486 4.15 4.15 0 0 1 1.098.205l.993.333c1.412.46 2.64 1.689 3.32 3.02.366.742.496 1.51.313 2.354-.183.768-.653 1.485-1.28 2.074-1.569 1.459-3.529 1.894-5.699 1.894-.026 1.74-.13 3.685.105 5.4 0 .077.052.18.105.256.026.128.078.23-.027.384-.209.153-.418.102-.601 0-.261-.282-.366-.589-.392-.947-.183-1.817-.104-3.583 0-5.426-.235-.205-.601-.486-.679-.794 0-.102.026-.204.078-.256.078-.128.183-.153.235-.102.079.077.236.18.366.256.157-2.56.34-4.99.784-7.448zm5.176 1.664c-.575-.691-1.386-1.178-2.17-1.51-.444-.205-1.699-.666-2.169-.461a6.56 6.56 0 0 1-.079 1.28 44.54 44.54 0 0 0-.627 6.808c1.804.128 3.529-.41 4.914-1.587.758-.64 1.202-1.536 1.124-2.457-.052-.768-.549-1.536-.993-2.073zM211.438 18.159c-1.438.384-3.111.358-4.234-.589-.523-.435-.915-1.075-.941-1.766-.027-.614.235-1.177.601-1.69.81-1.125 2.221-1.893 3.581-2.047.575-.05 1.097.026 1.516.435.13.128 0 .384-.131.435h-.235c-.079 0-.183-.025-.262-.025-.183-.026-.339-.051-.444.025-1.255.052-2.483.64-3.241 1.639-.34.435-.523.767-.471 1.305.053.716.602 1.254 1.36 1.51 1.071.384 2.404.154 3.424-.205.549-.205 1.045-.41 1.516-.742.104-.077.209 0 .261.128.026.102.026.205.026.282-.366.69-1.829 1.177-2.326 1.305zm1.464-1.74c-.131.153-.366.127-.471.05-.261-.179-.261-.511-.261-.767.026-.435.104-.87.209-1.331l.34-1.408c.209-.921.339-1.843.052-2.61-.235-.666-.81-1.331-1.516-1.408-.601-.077-1.202.128-1.699.486-.261.18-.836.666-.993.947-.026.102.026.282.13.384.105.102.027.41-.209.358-.183-.05-.392-.102-.549-.23a.611.611 0 0 1-.13-.768c.444-.742 1.071-1.356 1.882-1.715a3.03 3.03 0 0 1 1.803-.256c.784.128 1.464.691 1.856 1.408.601 1.1.523 2.483.235 3.711-.261 1.05-.523 2.022-.679 3.148zM223.122 12.477c-.183 1.817-.079 3.941.052 5.733.026.18-.235.205-.366.128-.366-.282-.549-1.024-.575-1.485a37.677 37.677 0 0 1 0-4.197c-1.934.077-4.025.026-5.933.23-.079 1.715-.026 3.353.052 4.991.026.051-.078.128-.209.154a.442.442 0 0 1-.288-.103c-.339-.332-.418-.947-.444-1.356-.131-2.585.052-5.17.314-7.704.052-.154.287-.307.496-.18.288.129.288.462.34.717-.052.666-.131 1.792-.209 2.586 1.908-.128 4.025-.052 5.933-.077.105-1.254.157-2.508.471-3.686.13-.153.392-.051.549.103.13.153.209.46.209.64-.131.972-.314 1.919-.34 2.917.078 0 .157-.025.235-.025.053 0 .131.05.131.179 0 .05 0 .153-.052.204-.079.103-.236.18-.366.23zM229.705 18.159c-.993.128-2.038.051-3.032-.538-1.306-.767-1.882-2.098-1.803-3.583a6.438 6.438 0 0 1 1.098-3.2 6.53 6.53 0 0 1 2.666-2.277c.575-.282 1.359-.41 1.986-.154.523.205 1.072.743 1.176 1.254.053.154-.209.487-.418.333-.287-.256-.653-.588-1.019-.742-.366-.154-.706-.18-1.098-.026-1.019.41-1.96 1.203-2.588 2.15a5.629 5.629 0 0 0-.941 2.944c0 .947.366 1.842 1.177 2.431.758.538 1.751.665 2.666.589 1.542-.128 2.901-.768 4.26-1.357.157 0 .392.256.262.435-1.307.717-2.797 1.51-4.392 1.74z" fill="#fff"/><path d="M244.915 15.83c-1.02 1.356-2.588 2.124-4.182 2.38.026 1.92.156 3.916.365 5.861 0 .307-.705.282-.758 0-.287-1.843-.47-3.84-.575-5.759-1.176-.102-2.457-.563-3.397-1.33-.785-.666-1.307-1.434-1.464-2.432-.131-.896.104-1.792.575-2.534.915-1.51 2.692-2.483 4.339-2.918.157-1.868.313-3.736.549-5.605.13-.333.758-.153.81.18-.079 1.56-.235 3.173-.366 4.709 1.542-.026 2.927.742 3.868 1.894.654.768 1.02 1.587 1.098 2.636.052.998-.235 2.073-.862 2.918zm-2.17-6.092c-.627-.332-1.281-.614-1.96-.537-.183 2.662-.183 5.477-.105 8.164 1.386-.281 2.692-.972 3.555-2.15.549-.767.732-1.92.497-2.892-.236-1.05-1.072-2.098-1.987-2.585zm-6.639 2.867c-.392.665-.523 1.407-.209 2.2.235.64.653 1.204 1.229 1.613.758.563 1.698.896 2.587.998-.052-2.482 0-4.914.052-7.37-1.359.409-2.953 1.356-3.659 2.559zM250.925 18.261c-1.307-.051-2.509-.64-3.267-1.74-.627-.922-.784-1.997-.653-3.046a6.672 6.672 0 0 1 1.333-3.174c.758-.972 1.829-1.74 3.058-1.97.836-.154 1.725-.077 2.352.588.288.307.549.64.549 1.05.026.435-.183.819-.549 1.1-1.829 1.485-3.764 2.867-5.75 3.993.052.793.758 1.612 1.516 2.022.758.41 1.647.46 2.483.358.836-.077 1.699-.358 2.3-.64.105-.076.183 0 .209.077.026.051.079.154-.026.23-.915.82-2.222 1.203-3.555 1.152zm1.15-9.137c-.758 0-1.516.307-2.117.768-1.281 1.024-2.039 2.662-2.039 4.248 1.856-.998 3.607-2.303 5.306-3.66.131-.102.236-.486.053-.793-.209-.41-.68-.563-1.203-.563zM256.913 9.431h-.131a.215.215 0 0 1-.209-.18c-.026-.204.052-.383.209-.537a1.946 1.946 0 0 1 1.412-.486c.366.026.732.077 1.097.205l.994.333c1.411.46 2.64 1.689 3.319 3.02.366.742.497 1.51.314 2.354-.183.768-.654 1.485-1.281 2.074-1.568 1.459-3.528 1.894-5.698 1.894-.026 1.74-.131 3.685.105 5.4 0 .077.052.18.104.256.026.128.079.23-.026.384-.209.153-.418.102-.601 0-.262-.282-.366-.589-.392-.947-.183-1.817-.105-3.583 0-5.426-.235-.205-.601-.486-.68-.794 0-.102.026-.204.079-.256.078-.128.183-.153.235-.102.078.077.235.18.366.256.157-2.56.34-4.99.784-7.448zm5.175 1.664c-.575-.691-1.385-1.178-2.169-1.51-.445-.205-1.699-.666-2.17-.461.026.358-.026.998-.078 1.28a44.54 44.54 0 0 0-.627 6.808c1.803.128 3.528-.41 4.914-1.587.758-.64 1.202-1.536 1.123-2.457-.052-.768-.548-1.536-.993-2.073zM34.135 39.402c-1.176.589-2.587.845-3.868.23a3.935 3.935 0 0 1-2.039-2.329c-.392-1.203-.261-2.56.261-3.685a5.768 5.768 0 0 1 1.7-2.073c.47-.333 1.175-.743 1.829-.82.523-.588 1.385-.767 2.117-.588 1.255.333 2.326 1.587 2.666 2.687.34 1.075.418 2.253.105 3.353-.392 1.485-1.386 2.56-2.77 3.225zm1.804-6.296c-.314-.845-1.02-1.792-1.935-2.099-.418-.153-.862-.205-1.202.051-.34.256-.549.666-.706 1.024-.026.077-.026.18-.026.282 0 .102 0 .23-.026.332-.026.052-.287.205-.366.052a4.189 4.189 0 0 1-.078-1.05c-.994.41-1.83 1.254-2.3 2.201-.497.998-.523 2.15-.21 3.174.262.793.759 1.459 1.595 1.792 1.045.383 2.17.256 3.11-.205 1.072-.538 1.83-1.357 2.196-2.457.34-.973.287-2.125-.052-3.097zM46.152 31.186c-.68-.153-1.359-.307-2.065-.332-.575.716-.862 1.56-1.019 2.457-.183.921-.157 1.894-.209 2.84-.052 1.28.052 2.509.21 3.712-.08.153-.315.256-.498.153-.444-.537-.548-1.228-.575-1.92-.026-1.535-.052-3.147.183-4.657.157-.973.445-1.869 1.046-2.688-1.62-.077-3.11.256-4.6.666a.826.826 0 0 1-.575-.359c-.053-.179.052-.281.157-.332l.156-.052.131-.05c1.098-.436 2.43-.666 3.712-.692 1.306-.051 2.613.077 3.763.487.131.05.366.23.445.383.026.18-.105.41-.262.384zM61.415 43.344c-.34.23-1.333.793-1.83.742-.13-.051-.209-.282-.078-.333 1.124-.64 2.379-1.587 3.32-2.815.052-.077.052-.256 0-.307-.523-.384-.994-.845-1.334-1.434-.209-.384-.365-.819-.365-1.305-.628.614-1.386 1.075-2.17 1.433a12.97 12.97 0 0 1-2.457.743c-.418.025-.836-.103-1.15-.435-.366-.385-.366-.896-.418-1.383-.261-2.508.13-4.914.862-7.166.053-.282.575-.358.732-.026.157.282 0 .691-.078.973a17.6 17.6 0 0 0-.575 6.757c.026.23.261.41.523.435.627.026 1.803-.435 2.378-.666.915-.383 1.83-.819 2.3-1.74-.052-2.227.314-4.505.967-6.578.236-.41.628-.076.758.18-.026.383-.104.716-.182 1.074-.079.333-.157.666-.236 1.024-.34 1.869-.549 3.916-.366 5.81.157.742.863 1.306 1.49 1.766.21.23.288.563.21.87-.497.973-1.36 1.792-2.3 2.38zM68.65 40.016c-1.308-.05-2.51-.64-3.268-1.74-.627-.921-.784-1.996-.654-3.046a6.684 6.684 0 0 1 1.334-3.173c.758-.973 1.83-1.74 3.058-1.971.836-.154 1.725-.077 2.352.588.288.308.549.64.549 1.05.026.435-.183.819-.549 1.1-1.83 1.485-3.764 2.867-5.75 3.993.052.794.758 1.612 1.516 2.022.758.41 1.646.46 2.483.358.836-.076 1.699-.358 2.3-.64.105-.076.183 0 .21.077.025.051.078.154-.027.23-.915.82-2.222 1.204-3.555 1.152zm1.15-9.137c-.759 0-1.517.307-2.118.768-1.28 1.024-2.039 2.662-2.039 4.249 1.856-.998 3.607-2.304 5.306-3.66.131-.103.236-.487.053-.794-.21-.41-.68-.563-1.203-.563zM81.354 34.232c-.183 1.817-.078 3.942.052 5.733.027.18-.235.205-.365.128-.366-.281-.55-1.024-.575-1.484a37.485 37.485 0 0 1 0-4.198c-1.935.077-4.026.026-5.934.23-.078 1.715-.026 3.353.053 4.992.026.05-.079.127-.21.153a.441.441 0 0 1-.287-.102c-.34-.333-.418-.947-.444-1.357-.131-2.585.052-5.17.313-7.704.053-.153.288-.307.497-.179.287.128.287.46.34.717-.053.665-.131 1.791-.21 2.585 1.909-.128 4.026-.051 5.934-.077.104-1.254.157-2.508.47-3.686.131-.153.392-.05.55.103.13.153.208.46.208.64-.13.972-.313 1.92-.34 2.917.079 0 .157-.025.236-.025.052 0 .13.051.13.179 0 .051 0 .154-.052.205-.078.102-.235.179-.366.23zM91.18 31.186c-.68-.153-1.36-.307-2.066-.332-.575.716-.862 1.56-1.02 2.457-.182.921-.156 1.894-.208 2.84-.053 1.28.052 2.509.209 3.712-.079.153-.314.256-.497.153-.444-.537-.549-1.228-.575-1.92-.026-1.535-.052-3.147.183-4.657.157-.973.444-1.869 1.046-2.688-1.62-.077-3.11.256-4.6.666a.826.826 0 0 1-.576-.359c-.052-.179.053-.281.157-.332l.157-.052.13-.05c1.098-.436 2.431-.666 3.712-.692 1.307-.051 2.614.077 3.764.487.13.05.366.23.444.383.027.18-.104.41-.26.384zM93.704 31.186h-.13a.215.215 0 0 1-.21-.179c-.026-.205.053-.384.21-.537a1.945 1.945 0 0 1 1.411-.487c.366.026.732.077 1.098.205l.993.333c1.411.46 2.64 1.69 3.32 3.02.365.742.496 1.51.313 2.355-.183.767-.653 1.484-1.28 2.073-1.569 1.459-3.53 1.894-5.699 1.894-.026 1.74-.13 3.685.105 5.4 0 .077.052.18.105.256.026.128.078.23-.027.384-.209.154-.418.102-.6 0-.262-.282-.367-.589-.393-.947-.183-1.817-.105-3.583 0-5.426-.235-.205-.601-.486-.68-.793 0-.103.027-.205.079-.256.078-.128.183-.154.235-.103.079.077.235.18.366.256.157-2.56.34-4.99.784-7.448zm5.175 1.664c-.575-.691-1.385-1.177-2.169-1.51-.444-.205-1.699-.666-2.17-.46.027.358-.026.997-.078 1.279a44.564 44.564 0 0 0-.627 6.808c1.803.128 3.529-.41 4.914-1.587.758-.64 1.202-1.536 1.124-2.457-.053-.768-.55-1.536-.994-2.073zM106.861 39.914c-1.438.384-3.111.358-4.235-.589-.522-.435-.914-1.075-.941-1.766-.026-.614.236-1.177.602-1.689.81-1.126 2.221-1.894 3.581-2.047.575-.052 1.097.025 1.516.435.13.128 0 .384-.131.435h-.235c-.079 0-.183-.026-.262-.026-.183-.025-.34-.051-.444.026-1.255.05-2.483.64-3.241 1.638-.34.435-.523.768-.471 1.305.053.717.601 1.254 1.359 1.51 1.072.384 2.405.154 3.425-.205.548-.204 1.045-.41 1.516-.742.104-.077.209 0 .261.128.026.102.026.205.026.282-.366.69-1.83 1.177-2.326 1.305zm1.463-1.74c-.13.153-.365.128-.47.05-.261-.178-.261-.511-.261-.767.026-.435.104-.87.209-1.331l.34-1.408c.209-.921.339-1.843.052-2.61-.235-.666-.81-1.331-1.516-1.408-.601-.077-1.203.128-1.699.486-.262.18-.837.666-.993.947-.027.103.026.282.13.384.105.103.026.41-.209.358-.183-.05-.392-.102-.549-.23a.61.61 0 0 1-.13-.768c.444-.742 1.071-1.356 1.882-1.714a3.03 3.03 0 0 1 1.803-.256c.784.128 1.464.69 1.856 1.407.601 1.1.523 2.483.235 3.712-.261 1.049-.523 2.021-.68 3.148zM126.996 43.855c-.079.205-.34.205-.471.129-.287-.256-.287-.615-.314-.973-.078-1.075-.183-2.252-.052-3.353a27.612 27.612 0 0 0-7.423.333 16.483 16.483 0 0 0 .157 3.941c-.026.128-.209.333-.418.205-.236-.102-.34-.307-.392-.486l-.131-.563c-.052-.563-.105-1.126-.131-1.664a10.944 10.944 0 0 1 .026-1.612c.026-.205.209-.41.392-.538l.732-.153c1.516-2.483 2.771-5.043 3.869-7.704.026-.128.078-.487-.027-.615-.078-.332.131-.511.34-.665.837-.128 1.778-.102 2.509.307.288.128.419.41.471.691 0 1.331.026 4.095.052 5.452.105.742 0 1.51-.052 2.252.052.026.131.026.235.026.157.025.262 0 .34 0 .235.025.444.179.444.383-.209 1.536-.235 3.098-.156 4.608zm-1.621-5.758c-.026-.256-.052-.486-.052-.768 0-1.51-.026-4.48-.053-5.99-.104-.204-.287-.306-.496-.357-.366-.103-.81-.077-1.203-.052.105.359.027.743-.052 1.075-1.045 2.38-2.143 4.76-3.555 6.988a33.863 33.863 0 0 1 5.385-.205c.026-.23.026-.46.026-.691zM134.347 39.402c-1.176.589-2.587.845-3.868.23a3.937 3.937 0 0 1-2.039-2.329c-.392-1.203-.261-2.56.262-3.685a5.764 5.764 0 0 1 1.699-2.073c.47-.333 1.176-.743 1.829-.82.523-.588 1.386-.767 2.117-.588 1.255.333 2.327 1.587 2.666 2.687.34 1.075.419 2.253.105 3.353-.392 1.485-1.385 2.56-2.771 3.225zm1.804-6.296c-.314-.845-1.019-1.792-1.934-2.099-.418-.153-.863-.205-1.203.051-.339.256-.549.666-.705 1.024-.026.077-.026.18-.026.282 0 .102 0 .23-.027.332-.026.052-.287.205-.366.052a4.214 4.214 0 0 1-.078-1.05c-.993.41-1.83 1.254-2.3 2.201-.497.998-.523 2.15-.209 3.174.261.793.758 1.459 1.594 1.792 1.046.383 2.17.256 3.111-.205 1.071-.538 1.829-1.357 2.195-2.457.34-.973.288-2.125-.052-3.097zM156.698 32.21c-.157 2.201-.027 4.505.209 6.552.052.205-.288.23-.392.154a1.078 1.078 0 0 1-.236-.358l-.104-.41c-.575-2.227-.471-4.607-.314-6.936.157-2.176.523-4.351.915-6.348a26.427 26.427 0 0 0-4.104-.844c-1.124-.154-2.274-.23-3.424-.128-.104 0-.261.051-.392.077-.157.05-.287.076-.366.128-.183.05-.444-.128-.366-.359.131-.332.471-.588.784-.665a8.235 8.235 0 0 1 1.778-.026c.601.026 1.254.103 1.803.154 1.647.179 3.268.41 4.731.845.262.076.419.281.523.537-.444 2.508-.836 4.99-1.045 7.627zm-9.201-7.218c-.105.077-.34.41-.392.59-.235 1.816-.288 3.736-.235 5.655.078 2.56.366 5.12.575 7.55l-.053.59c-.026.204-.078.409-.261.537-.104.102-.418.051-.47-.154-.183-2.994-.68-5.963-.706-9.06-.026-1.715.026-3.506.261-5.221.157-.333.183-.742.418-1.05.131-.128.393-.255.602-.128.104.052.287.18.366.282.13.128.026.358-.105.41zM162.991 40.016c-1.307-.05-2.51-.64-3.268-1.74-.627-.921-.784-1.996-.653-3.046a6.681 6.681 0 0 1 1.333-3.173c.758-.973 1.83-1.74 3.058-1.971.837-.154 1.725-.077 2.353.588.287.308.548.64.548 1.05.027.435-.182.819-.548 1.1-1.83 1.485-3.764 2.867-5.751 3.993.053.794.758 1.612 1.516 2.022.758.41 1.647.46 2.483.358.837-.076 1.699-.358 2.3-.64.105-.076.183 0 .21.077.026.051.078.154-.027.23-.914.82-2.221 1.204-3.554 1.152zm1.15-9.137c-.758 0-1.516.307-2.117.768-1.281 1.024-2.039 2.662-2.039 4.249 1.856-.998 3.607-2.304 5.306-3.66.131-.103.235-.487.052-.794-.209-.41-.68-.563-1.202-.563zM179.303 39.863c-.34-.358-.575-.794-.628-1.306-1.071.538-2.117.947-3.345.973-.471 0-.967-.051-1.307-.41-.314-.332-.366-.742-.444-1.151-1.02.793-2.091 1.535-3.32 1.791-.68.154-1.202.18-1.647-.46-.366-.512-.522-1.817-.575-2.457-.156-2.253.131-4.48.68-6.476.052-.179.209-.41.34-.41.183 0 .392.103.47.308 0 .384-.052.742-.131 1.075a7.751 7.751 0 0 0-.235 1.05c-.13.946-.287 1.919-.287 2.891 0 1.178.104 2.33.418 3.43.131.333.549.333.889.23 1.202-.307 2.274-1.023 3.241-1.894-.131-1.92-.105-4.146.418-5.835.052-.102.235-.154.418-.102.105.05.288.153.288.307-.157 1.28-.34 2.661-.314 3.992 0 1.024.131 2.048.392 2.97.052.23.366.332.68.332 1.045-.051 2.404-.41 3.293-.947-.287-2.534-.078-5.196.418-7.576.183-.179.471-.179.601 0 .183.18.131.46.105.691v.205c-.444 2.994-.47 5.759.026 8.753-.078.18-.287.128-.444.026zM190.085 39.965c-1.254-.69-2.535-1.177-3.868-1.638-1.307-.46-2.561-.921-3.816-1.459a9.295 9.295 0 0 0 .34 2.713c.078.154.026.435-.209.435-.209 0-.34-.128-.419-.256-.078-.102-.13-.255-.209-.383-.287-.922-.392-1.92-.392-2.944a.576.576 0 0 1-.235-.256c-.078-.077-.105-.23-.026-.358a.719.719 0 0 0 .235-.333c.052-.333.026-1.1.105-1.433.104-.589.261-1.305.418-2.022.183-.717.444-1.433.784-2.048.157-.256.549-.204.627.077-.026.333-.13.64-.235.947-.078.282-.235.589-.314.896a11.524 11.524 0 0 0-.444 2.84 46.671 46.671 0 0 1 2.849-2.303c1.202-.87 2.483-1.612 3.842-2.15.209 0 .471 0 .628.129.156.102.157.255.078.435-1.385.563-2.64 1.305-3.921 2.175a33.13 33.13 0 0 0-3.528 2.867v.025c1.281.691 2.692 1.152 4.051 1.613 1.203.41 2.353.87 3.45 1.561.236.128.419.307.549.538.026.153-.183.358-.34.332zM197.267 39.402c-1.176.589-2.587.845-3.868.23a3.937 3.937 0 0 1-2.039-2.329c-.392-1.203-.261-2.56.261-3.685a5.784 5.784 0 0 1 1.699-2.073c.471-.333 1.177-.743 1.83-.82.523-.588 1.385-.767 2.117-.588 1.255.333 2.327 1.587 2.666 2.687.34 1.075.419 2.253.105 3.353-.392 1.485-1.385 2.56-2.771 3.225zm1.804-6.296c-.314-.845-1.02-1.792-1.934-2.099-.419-.153-.863-.205-1.203.051-.34.256-.549.666-.705 1.024-.027.077-.027.18-.027.282 0 .102 0 .23-.026.332-.026.052-.287.205-.366.052a4.214 4.214 0 0 1-.078-1.05c-.993.41-1.83 1.254-2.3 2.201-.497.998-.523 2.15-.209 3.174.261.793.758 1.459 1.594 1.792 1.046.383 2.17.256 3.11-.205 1.072-.538 1.83-1.357 2.196-2.457.34-.973.288-2.125-.052-3.097zM206.54 39.325c-.784.512-1.751.922-2.718.922-.549 0-.941-.23-1.307-.742-.131.102-.366.179-.471.025-.47-.64-.601-1.536-.627-2.406-.052-2.227-.026-3.864.575-5.86.052-.206.549-.59.915-.487.157-.41.575-.845 1.072-.896 1.333 0 2.77.691 3.215 1.996.13.41.13.845-.027 1.255a2.307 2.307 0 0 1-.758.972l-.156.128c.653.205 1.385.614 1.803 1.254.314.486.34 1.075.209 1.638-.235.922-.915 1.664-1.725 2.201zm.732-3.404c-.209-.384-.784-.614-1.202-.819-.497-.307-.941-.179-1.438-.076l-.784.179a1.743 1.743 0 0 1-.889 0c-.13-.077-.287-.333-.157-.461.314-.307.706-.46 1.15-.563l1.203-.128c.47-.256.967-.768 1.176-1.254.131-.41.052-.691-.209-1.024-.471-.64-1.229-.921-1.987-.998-.235-.026-.313.025-.366.179-.078.205-.13.435-.261.614-.052.128-.235.18-.366.103a.509.509 0 0 1-.235-.128c-.314 1.1-.497 2.354-.549 3.66-.052 1.228 0 2.431.183 3.557.209-.23.47-.563.601-.742.183-.18.523.102.471.282-.053.127-.157.281-.236.41-.052.153-.13.28-.13.383.157.23.522.307.967.256.653-.102 1.437-.46 2.012-.896.523-.41.968-.921 1.098-1.561.079-.307.131-.666-.052-.973zM215.416 39.402c-1.176.589-2.588.845-3.869.23a3.932 3.932 0 0 1-2.038-2.329c-.392-1.203-.262-2.56.261-3.685a5.764 5.764 0 0 1 1.699-2.073c.47-.333 1.176-.743 1.83-.82.522-.588 1.385-.767 2.117-.588 1.254.333 2.326 1.587 2.666 2.687.34 1.075.418 2.253.104 3.353-.392 1.485-1.385 2.56-2.77 3.225zm1.803-6.296c-.313-.845-1.019-1.792-1.934-2.099-.418-.153-.862-.205-1.202.051-.34.256-.549.666-.706 1.024-.026.077-.026.18-.026.282 0 .102 0 .23-.026.332-.026.052-.288.205-.366.052a4.21 4.21 0 0 1-.079-1.05c-.993.41-1.829 1.254-2.3 2.201-.496.998-.523 2.15-.209 3.174.262.793.758 1.459 1.595 1.792 1.045.383 2.169.256 3.11-.205 1.072-.538 1.83-1.357 2.196-2.457.339-.973.287-2.125-.053-3.097zM227.485 29.139c-1.228 1.97-2.64 3.916-3.764 5.989-.13.102-.365.051-.418-.077a1.376 1.376 0 0 1 .053-.742c.052-.23.13-.41.209-.64.888-1.587 1.986-3.097 2.953-4.633a3.045 3.045 0 0 0 .392-1.766 2.288 2.288 0 0 0-.522-1.305c-.628-.768-1.412-1.356-2.274-1.638a3.388 3.388 0 0 0-1.83-.128c-.418.077-.784.256-1.15.589-.34.307-.627.69-.758 1.126-.157.128-.445.128-.523-.103-.078-.332.052-.614.157-.92.444-.743 1.072-1.255 1.803-1.511a4.022 4.022 0 0 1 1.908-.153c.758.127 1.438.435 2.065.87a5.538 5.538 0 0 1 1.595 1.689c.34.512.496 1.203.47 1.868 0 .512-.104 1.075-.366 1.485zm-1.672 11.057a4.312 4.312 0 0 1-1.882-.436c-.602-.307-1.124-.69-1.516-1.254-.105-.153-.131-.41-.079-.614.052-.205.209-.333.471-.23l.627.665c.209.205.444.41.653.563.602.435 1.36.666 2.118.896.078.18-.21.358-.392.41zM237.075 28.243a1.835 1.835 0 0 1-.471.41c-.261.025-.47 0-.653-.103-.575-.256-1.229-.665-1.699-.998-.026.819-.105 1.663 0 2.457-.052.41-.523.23-.575.128-.052-.051-.105-.102-.131-.18a.556.556 0 0 1-.13-.204c-.053-.23-.053-.46-.053-.665.026-.436.053-.896.053-1.331-.602.563-1.333 1.049-2.118 1.33-.183.026-.47.026-.679-.153-.314-.256-.026-.691.34-.921l.183.332c.183-.05.366-.179.548-.256.549-.332 1.098-.819 1.543-1.305-.837-.665-1.673-1.484-2.379-2.227-.183-.153-.105-.383-.026-.511.235-.308.601-.103.68-.026.601.64 1.228 1.254 1.881 1.843 0-.691.027-1.382-.026-2.022l-.209-.589c-.026-.153.079-.512.418-.486.236.077.366.256.471.46l.078.18c.079.179.131.512.131.69v1.408l.078-.128.549-.716c.183-.256.445-.461.758-.64.418-.23 1.203 0 .967.768-.183-.026-.235-.052-.313-.077-.053 0-.105-.026-.209-.051-.157-.051-.68.64-.758.742-.314.41-.575.845-.915 1.28.627.46 1.307.87 2.065 1.228a.342.342 0 0 1 .157-.128c.052-.05.104-.076.287-.153.209.204.235.358.209.46-.026.052-.052.077-.052.154z" fill="#fff"/><path d="M247.234 28.243a1.835 1.835 0 0 1-.471.41c-.261.025-.47 0-.653-.103-.575-.256-1.228-.665-1.699-.998-.026.819-.104 1.663 0 2.457-.052.41-.523.23-.575.128-.052-.051-.105-.102-.131-.18a.556.556 0 0 1-.13-.204c-.053-.23-.053-.46-.053-.665.026-.436.053-.896.053-1.331-.602.563-1.333 1.049-2.118 1.33-.183.026-.47.026-.679-.153-.314-.256-.026-.691.34-.921l.183.332c.183-.05.366-.179.549-.256.548-.332 1.097-.819 1.542-1.305-.837-.665-1.673-1.484-2.379-2.227-.183-.153-.104-.383-.026-.511.235-.308.601-.103.68-.026.601.64 1.228 1.254 1.881 1.843 0-.691.027-1.382-.026-2.022l-.209-.589c-.026-.153.079-.512.418-.486.236.077.366.256.471.46l.078.18c.079.179.131.512.131.69v1.408l.078-.128.549-.716c.183-.256.445-.461.758-.64.419-.23 1.203 0 .967.768-.182-.026-.235-.052-.313-.077-.052 0-.105-.026-.209-.051-.157-.051-.68.64-.758.742-.314.41-.575.845-.915 1.28.627.46 1.307.87 2.065 1.228a.342.342 0 0 1 .157-.128c.052-.05.104-.076.287-.153.209.204.235.358.209.46-.026.052-.052.077-.052.154z" fill="#fff"/></svg>