<svg width="901" height="46" viewBox="0 0 901 46" fill="none" xmlns="http://www.w3.org/2000/svg">
<path d="M18.441 2.61556C18.1237 1.73358 16.8763 1.73358 16.559 2.61556L12.929 12.7058C12.8303 12.9804 12.6165 13.1981 12.3438 13.3019L2.45554 17.0654C1.5965 17.3924 1.5965 18.6076 2.45555 18.9346L12.3438 22.6981C12.6165 22.8019 12.8303 23.0196 12.929 23.2942L16.559 33.3844C16.8763 34.2664 18.1237 34.2664 18.441 33.3844L22.071 23.2942C22.1697 23.0196 22.3835 22.8019 22.6562 22.6981L32.5445 18.9346C33.4035 18.6076 33.4035 17.3924 32.5445 17.0654L22.6562 13.3019C22.3835 13.1981 22.1697 12.9804 22.071 12.7058L18.441 2.61556Z" fill="#FFD700"/>
<path d="M69.4937 9.33518C68.8697 11.8312 68.5817 14.5192 68.2937 17.1592C68.0537 18.9832 67.9577 20.8072 67.9097 22.6792C67.8137 25.4152 67.8137 28.1512 67.7177 30.9352C67.5737 31.4152 67.1897 31.7032 66.7577 31.7032C66.1337 31.7032 65.8457 31.0792 65.7017 30.5512L65.5097 30.1672C64.3097 25.1752 62.8697 20.3272 61.0937 15.5752C60.2777 13.3192 59.5097 11.1112 58.6457 8.90318C57.7817 6.74318 56.8217 4.58318 55.6697 2.42318C55.6217 2.42318 55.5737 2.32718 55.5737 2.37518C54.2777 6.59918 53.3657 10.8712 52.9337 15.3832C52.5497 19.4632 52.5017 23.6392 52.6457 27.8632C52.7417 28.4392 52.7417 29.0632 52.8377 29.6872C52.8857 30.2632 52.9817 30.8392 53.1737 31.3672C53.2217 31.7032 52.9817 31.9432 52.6937 32.0392C51.8297 31.8472 51.6377 31.1272 51.4937 30.3592L51.3497 29.6872C50.9657 26.1832 50.9177 22.5832 51.1097 18.9832C51.3497 14.7112 51.9737 10.4392 52.8377 6.50318C53.3177 4.43918 53.9417 2.27918 54.7577 0.359178C54.9017 0.0231766 55.4777 -0.120822 55.8137 0.119178C56.1017 0.359178 56.2457 0.647177 56.4377 0.983178C57.6377 2.90318 58.5977 4.91918 59.4137 6.93518L61.8617 13.0792C63.6857 17.6872 65.1737 22.4392 66.4217 27.2872C66.4697 23.2072 66.5177 18.9352 66.9497 14.9032C67.2857 11.3992 68.0057 7.94318 69.4457 4.91918C69.5417 4.72718 69.6377 4.48718 69.7817 4.29518C70.1177 3.62318 70.5977 2.90318 71.5097 2.95118C72.0377 3.23918 71.8457 3.76718 71.6057 4.10318C70.5497 5.68718 69.9737 7.46318 69.4937 9.33518ZM81.4937 24.9832C80.3897 25.9912 79.0457 26.6632 77.3657 26.5192C75.9257 26.3752 74.6297 25.5592 73.9097 24.4552C72.6137 22.5352 72.3257 20.1352 72.7097 17.9272C72.9977 16.3432 73.7657 14.3272 74.7737 13.0792C75.1097 12.8392 75.3977 12.5032 75.8777 12.5512C76.2617 12.6952 76.3097 13.0792 76.1657 13.3192C75.2537 14.8552 74.3897 16.7752 74.1497 18.7432C73.9577 20.6152 74.1977 22.4872 75.3497 23.9752C76.0697 24.8872 77.3177 25.2232 78.5177 24.9832C80.9177 24.2152 82.1177 21.9592 82.5497 19.9432C82.9337 18.3112 82.8857 16.5352 82.5017 14.9032C82.2137 13.6072 81.5897 12.4072 80.5817 11.3992C80.1497 10.9672 79.2857 10.7752 78.6617 10.9192C77.9417 11.0632 77.3657 11.5912 76.9817 12.1672C76.7417 12.3592 76.4057 12.0712 76.4057 11.8792C76.4537 11.1592 77.1737 10.1512 77.9417 9.81518C78.9017 9.33518 80.3897 9.33518 81.3017 10.0552C82.8377 11.2552 83.4137 12.4552 83.8937 14.1352C84.4217 16.1032 84.4697 18.2152 84.0377 20.2792C83.6537 22.0552 82.7897 23.7352 81.4937 24.9832ZM75.7337 30.6472C75.4457 30.7432 74.6297 30.7912 74.2457 30.8872C73.8617 31.0792 73.2857 31.0312 72.8537 31.0312C72.6137 30.9352 72.4697 30.9832 72.2777 30.9352C72.1337 30.8872 71.9897 30.8392 71.8457 30.6472C71.7497 30.4552 71.7017 30.1672 71.7497 29.9272C71.7977 29.7352 71.8937 29.5432 72.0377 29.3992C72.3257 29.1112 72.5657 29.0152 72.8057 28.9672C73.1417 28.8712 73.3817 28.9192 73.6217 28.8712C74.1017 28.8712 75.0137 28.9192 75.4457 28.9672C75.7337 29.1112 76.0217 29.0632 76.3577 29.1592C76.6937 29.0152 79.4777 29.0632 79.9097 29.1592C80.9657 29.0632 82.2137 29.1592 83.0777 29.3992C83.3657 29.4952 84.0857 29.4952 84.3257 29.7832C84.2297 30.4552 82.6937 30.7912 82.0217 30.5992C81.6377 30.6952 80.7737 30.4552 80.1977 30.5992C79.7177 30.5032 78.6617 30.6952 78.2297 30.6472C77.4617 30.5992 76.2617 30.5512 75.7337 30.6472Z" fill="white"/>
<path d="M102.748 20.7112C102.652 21.7192 102.652 22.7272 102.7 23.7832L102.844 27.0952C102.94 29.5912 102.748 32.1832 101.692 34.2472C101.644 34.3912 101.5 34.4392 101.356 34.4872C101.26 34.4872 101.02 34.4872 101.02 34.2472C101.452 31.9432 101.404 29.6392 101.26 27.2872C101.164 25.1752 101.02 23.0632 101.164 20.9032C99.4363 20.9032 97.7563 20.6632 96.2203 20.0392C94.6843 19.4152 93.1963 18.3592 91.9963 17.0632C90.5083 15.4312 89.3563 13.1752 88.6363 11.1112C87.8203 8.61518 87.4843 5.97518 87.7243 3.19118C87.8203 2.90318 88.2043 2.61518 88.3963 2.47118C88.6843 2.42318 89.0683 2.66318 89.1643 2.95118C89.1163 5.59118 89.4523 8.27918 90.2203 10.6312C90.7483 12.2152 91.4203 13.6552 92.3803 14.9032C93.5803 16.4872 95.1643 17.7832 97.1803 18.6952C98.3803 19.2712 99.7723 19.4152 101.164 19.4152C101.5 15.8632 101.548 12.0232 102.316 8.47118C102.652 7.03118 103.468 5.30318 105.1 4.77518C105.964 4.53518 106.972 4.58318 107.692 5.06318C108.076 5.25518 107.644 5.68718 107.452 5.68718C106.876 5.54318 106.348 5.63918 105.868 5.83118C105.292 6.11918 104.716 6.64718 104.332 7.22318C103.852 8.42318 103.612 9.71918 103.42 11.0152C103.228 12.3592 103.18 13.7032 103.084 15.0472C102.988 16.1512 102.844 18.2152 102.796 19.3192C106.06 19.0792 108.988 17.7832 111.82 16.2952C112.204 15.9592 112.396 16.6312 112.252 16.8712C109.468 18.9832 106.3 20.3272 102.748 20.7112Z" fill="white"/>
<path d="M145.09 19.6072C140.578 19.4152 136.066 20.1352 131.554 19.7992C130.69 19.7512 129.634 19.5112 129.01 18.7912C128.674 18.4072 129.058 17.5432 129.634 17.6392C131.698 17.8792 133.762 17.9752 135.826 17.9272C138.514 17.8792 141.346 17.6872 143.794 17.7832C144.274 17.7832 145.378 17.9752 145.714 18.5512C146.05 19.0312 145.618 19.6552 145.09 19.6072Z" fill="white"/>
<path d="M172.796 32.9512C171.356 33.9112 169.58 34.6792 167.804 34.6792C166.796 34.6792 166.076 34.2472 165.404 33.2872C165.164 33.4792 164.732 33.6232 164.54 33.3352C163.676 32.1352 163.436 30.4552 163.388 28.8232C163.292 24.6472 163.34 21.5752 164.444 17.8312C164.54 17.4472 165.452 16.7272 166.124 16.9192C166.412 16.1512 167.18 15.3352 168.092 15.2392C170.54 15.2392 173.18 16.5352 173.996 18.9832C174.236 19.7512 174.236 20.5672 173.948 21.3352C173.66 22.0552 173.18 22.6792 172.556 23.1592L172.268 23.3992C173.468 23.7832 174.812 24.5512 175.58 25.7512C176.156 26.6632 176.204 27.7672 175.964 28.8232C175.532 30.5512 174.284 31.9432 172.796 32.9512ZM174.14 26.5672C173.756 25.8472 172.7 25.4152 171.932 25.0312C171.02 24.4552 170.204 24.6952 169.292 24.8872L167.852 25.2232C167.324 25.3672 166.796 25.3672 166.22 25.2232C165.98 25.0792 165.692 24.5992 165.932 24.3592C166.508 23.7832 167.228 23.4952 168.044 23.3032L170.252 23.0632C171.116 22.5832 172.028 21.6232 172.412 20.7112C172.652 19.9432 172.508 19.4152 172.028 18.7912C171.164 17.5912 169.772 17.0632 168.38 16.9192C167.948 16.8712 167.804 16.9672 167.708 17.2552C167.564 17.6392 167.468 18.0712 167.228 18.4072C167.132 18.6472 166.796 18.7432 166.556 18.5992C166.364 18.5512 166.22 18.4552 166.124 18.3592C165.548 20.4232 165.212 22.7752 165.116 25.2232C165.02 27.5272 165.116 29.7832 165.452 31.8952C165.836 31.4632 166.316 30.8392 166.556 30.5032C166.892 30.1672 167.516 30.6952 167.42 31.0312C167.324 31.2712 167.132 31.5592 166.988 31.7992C166.892 32.0872 166.748 32.3272 166.748 32.5192C167.036 32.9512 167.708 33.0952 168.524 32.9992C169.724 32.8072 171.164 32.1352 172.22 31.3192C173.18 30.5512 173.996 29.5912 174.236 28.3912C174.38 27.8152 174.476 27.1432 174.14 26.5672Z" fill="white"/>
<path d="M187.416 34.0552C184.776 34.7752 181.704 34.7272 179.64 32.9512C178.68 32.1352 177.96 30.9352 177.912 29.6392C177.864 28.4872 178.344 27.4312 179.016 26.4712C180.504 24.3592 183.096 22.9192 185.592 22.6312C186.648 22.5352 187.608 22.6792 188.376 23.4472C188.616 23.6872 188.376 24.1672 188.136 24.2632H187.704C187.56 24.2632 187.368 24.2152 187.224 24.2152C186.888 24.1672 186.6 24.1192 186.408 24.2632C184.104 24.3592 181.848 25.4632 180.456 27.3352C179.832 28.1512 179.496 28.7752 179.592 29.7832C179.688 31.1272 180.696 32.1352 182.088 32.6152C184.056 33.3352 186.504 32.9032 188.376 32.2312C189.384 31.8472 190.296 31.4632 191.16 30.8392C191.352 30.6952 191.544 30.8392 191.64 31.0792C191.688 31.2712 191.688 31.4632 191.688 31.6072C191.016 32.9032 188.328 33.8152 187.416 34.0552ZM190.104 30.7912C189.864 31.0792 189.432 31.0312 189.24 30.8872C188.76 30.5512 188.76 29.9272 188.76 29.4472C188.808 28.6312 188.952 27.8152 189.144 26.9512L189.768 24.3112C190.152 22.5832 190.392 20.8552 189.864 19.4152C189.432 18.1672 188.376 16.9192 187.08 16.7752C185.976 16.6312 184.872 17.0152 183.96 17.6872C183.48 18.0232 182.424 18.9352 182.136 19.4632C182.088 19.6552 182.184 19.9912 182.376 20.1832C182.568 20.3752 182.424 20.9512 181.992 20.8552C181.656 20.7592 181.272 20.6632 180.984 20.4232C180.6 20.0872 180.456 19.4632 180.744 18.9832C181.56 17.5912 182.712 16.4392 184.2 15.7672C185.16 15.2872 186.312 15.0952 187.512 15.2872C188.952 15.5272 190.2 16.5832 190.92 17.9272C192.024 19.9912 191.88 22.5832 191.352 24.8872C190.872 26.8552 190.392 28.6792 190.104 30.7912Z" fill="white"/>
<path d="M217.464 34.2472C217.128 34.1992 216.936 34.0072 216.792 33.7672L216.648 33.5272C214.872 29.6872 214.104 25.3672 214.056 20.8072C213.432 22.3432 212.808 23.8312 212.088 25.3192C211.272 26.9992 210.36 28.6312 209.064 30.1672C208.488 30.8872 207.384 30.9832 206.52 30.7912C205.8 30.4552 205.32 29.6392 204.984 28.9672C203.16 25.4632 202.296 21.5272 201.384 17.6872C201.384 17.6392 201.336 17.5912 201.288 17.6392C198.312 22.0072 196.584 26.9032 195.384 32.0872C195.192 32.5672 195.624 32.9992 195.672 33.4792C195.768 33.7672 195.576 34.0552 195.192 34.1992C194.664 34.2472 194.232 33.8152 193.992 33.4312C193.656 32.6152 193.704 31.7032 193.944 30.8872C195.528 25.7032 197.16 20.5672 200.52 16.0552C200.952 15.7672 201.384 15.7672 201.768 15.8632C202.248 15.8632 202.68 16.3432 202.728 16.6792C203.784 20.8072 204.648 25.0312 206.712 28.7752C207 29.1592 207.384 29.3992 207.816 29.2552C208.92 28.1992 209.64 26.9032 210.36 25.6072C211.8 22.9672 212.808 20.1832 213.912 17.3032L214.152 16.9672C214.296 16.8232 214.392 16.7272 214.632 16.7272C215.112 16.5832 215.448 16.9192 215.64 17.2552C215.544 20.2312 215.592 23.0152 215.928 25.7512C216.264 28.4872 216.888 31.1752 217.896 33.7672C217.944 34.1032 217.608 34.2472 217.464 34.2472Z" fill="white"/>
<path d="M248.153 23.3992C247.817 26.8072 248.009 30.7912 248.249 34.1512C248.297 34.4872 247.817 34.5352 247.577 34.3912C246.905 33.8632 246.569 32.4712 246.521 31.6072C246.377 28.9192 246.377 26.4232 246.521 23.7352C242.969 23.8792 239.129 23.7832 235.625 24.1672C235.481 27.3832 235.577 30.4552 235.721 33.5272C235.769 33.6232 235.577 33.7672 235.337 33.8152C235.193 33.8152 234.953 33.7672 234.809 33.6232C234.185 32.9992 234.041 31.8472 233.993 31.0792C233.753 26.2312 234.089 21.3832 234.569 16.6312C234.665 16.3432 235.097 16.0552 235.481 16.2952C236.009 16.5352 236.009 17.1592 236.105 17.6392C236.009 18.8872 235.865 20.9992 235.721 22.4872C239.225 22.2472 243.113 22.3912 246.617 22.3432C246.809 19.9912 246.905 17.6392 247.481 15.4312C247.721 15.1432 248.201 15.3352 248.489 15.6232C248.729 15.9112 248.873 16.4872 248.873 16.8232C248.633 18.6472 248.297 20.4232 248.249 22.2952C248.393 22.2952 248.537 22.2472 248.681 22.2472C248.777 22.2472 248.921 22.3432 248.921 22.5832C248.921 22.6792 248.921 22.8712 248.825 22.9672C248.681 23.1592 248.393 23.3032 248.153 23.3992Z" fill="white"/>
<path d="M262.74 30.2632C260.484 35.1592 258.708 40.1992 256.98 45.2872C256.836 45.5752 256.164 45.6712 256.02 45.2872C255.78 44.8552 255.924 43.7032 256.02 43.2712C256.788 40.0072 258.18 36.9832 259.332 33.8632C257.94 31.7992 256.164 28.9672 254.82 26.5192C253.14 23.3992 251.748 20.1352 251.22 16.5352C251.124 16.0552 251.412 15.5752 251.796 15.3832C252.084 15.2872 252.276 15.4312 252.42 15.5752C252.564 15.7192 252.66 15.9112 252.756 16.1032C253.236 18.9832 254.196 21.6712 255.396 24.2152C256.74 26.9512 258.324 29.5432 260.1 32.1352C261.204 29.7352 262.356 27.3352 263.604 24.9832C264.852 22.5832 266.244 20.2792 267.924 18.0232C268.26 17.5912 268.74 17.1112 269.172 17.3512C269.46 17.4952 269.7 17.9272 269.46 18.2632C266.916 22.1512 264.66 26.1352 262.74 30.2632Z" fill="white"/>
<path d="M282.283 24.3112C282.283 24.4552 282.283 24.6952 282.235 24.8872C283.963 25.9912 285.547 27.3832 287.083 28.9192C288.619 30.4072 290.155 32.0392 291.691 33.5272C291.931 33.7192 291.547 34.0552 291.403 34.0552C290.635 33.7672 290.059 33.3352 289.387 32.8552C288.859 32.4232 288.283 31.8952 287.659 31.4632C285.931 29.8312 284.107 28.2472 282.283 26.8072C282.187 29.3032 282.475 31.6552 282.763 34.1032C282.667 34.4872 282.235 34.5352 281.947 34.3912C281.611 33.8632 281.467 33.2872 281.323 32.7112C281.227 32.1352 281.131 31.5112 281.035 30.9352C280.747 29.1592 280.747 27.5272 280.747 25.6072L280.555 25.4632C278.203 27.0952 275.659 29.1112 273.403 30.8872C273.307 30.8872 273.163 30.9352 273.019 30.9832C272.875 30.9832 272.683 30.9832 272.587 30.8392C272.395 30.6952 272.443 30.5032 272.491 30.3592C272.539 30.2152 272.635 30.0712 272.731 29.9272C274.843 28.0072 277.051 26.2312 279.259 24.6472C276.955 23.0152 274.507 21.5752 272.059 20.2312C271.579 19.8952 270.955 19.3672 271.099 18.5992C271.291 18.2152 271.867 18.3112 272.107 18.4552C275.083 20.0392 277.963 21.6712 280.651 23.6872L280.795 23.5912C280.843 21.0472 280.987 18.1192 281.803 15.5752C282.187 14.9992 282.859 15.5272 282.955 15.9592C283.051 18.1672 282.475 20.2312 282.427 22.4392C285.547 20.5192 288.763 18.4552 292.075 16.6312C292.411 16.5352 292.651 16.5352 292.987 16.6792C293.227 16.8232 293.467 17.3032 293.227 17.6872C289.627 19.8952 285.883 21.9592 282.283 24.3112Z" fill="white"/>
<path d="M302.587 34.2472C300.187 34.1512 297.979 33.0472 296.587 30.9832C295.435 29.2552 295.147 27.2392 295.387 25.2712C295.675 23.0632 296.587 20.9512 297.835 19.3192C299.227 17.4952 301.195 16.0552 303.451 15.6232C304.987 15.3352 306.619 15.4792 307.771 16.7272C308.299 17.3032 308.779 17.9272 308.779 18.6952C308.827 19.5112 308.443 20.2312 307.771 20.7592C304.411 23.5432 300.859 26.1352 297.211 28.2472C297.307 29.7352 298.603 31.2712 299.995 32.0392C301.387 32.8072 303.019 32.9032 304.555 32.7112C306.091 32.5672 307.675 32.0392 308.779 31.5112C308.971 31.3672 309.115 31.5112 309.163 31.6552C309.211 31.7512 309.307 31.9432 309.115 32.0872C307.435 33.6232 305.035 34.3432 302.587 34.2472ZM304.699 17.1112C303.307 17.1112 301.915 17.6872 300.811 18.5512C298.459 20.4712 297.067 23.5432 297.067 26.5192C300.475 24.6472 303.691 22.1992 306.811 19.6552C307.051 19.4632 307.243 18.7432 306.907 18.1672C306.523 17.3992 305.659 17.1112 304.699 17.1112Z" fill="white"/>
<path d="M325.919 23.3992C325.583 26.8072 325.775 30.7912 326.015 34.1512C326.063 34.4872 325.583 34.5352 325.343 34.3912C324.671 33.8632 324.335 32.4712 324.287 31.6072C324.143 28.9192 324.143 26.4232 324.287 23.7352C320.735 23.8792 316.895 23.7832 313.391 24.1672C313.247 27.3832 313.343 30.4552 313.487 33.5272C313.535 33.6232 313.343 33.7672 313.103 33.8152C312.959 33.8152 312.719 33.7672 312.575 33.6232C311.951 32.9992 311.807 31.8472 311.759 31.0792C311.519 26.2312 311.855 21.3832 312.335 16.6312C312.431 16.3432 312.863 16.0552 313.247 16.2952C313.775 16.5352 313.775 17.1592 313.871 17.6392C313.775 18.8872 313.631 20.9992 313.487 22.4872C316.991 22.2472 320.879 22.3912 324.383 22.3432C324.575 19.9912 324.671 17.6392 325.247 15.4312C325.487 15.1432 325.967 15.3352 326.255 15.6232C326.495 15.9112 326.639 16.4872 326.639 16.8232C326.399 18.6472 326.063 20.4232 326.015 22.2952C326.159 22.2952 326.303 22.2472 326.447 22.2472C326.543 22.2472 326.687 22.3432 326.687 22.5832C326.687 22.6792 326.687 22.8712 326.591 22.9672C326.447 23.1592 326.159 23.3032 325.919 23.3992Z" fill="white"/>
<path d="M357.321 17.6872C356.073 17.3992 354.825 17.1112 353.529 17.0632C352.473 18.4072 351.945 19.9912 351.657 21.6712C351.321 23.3992 351.369 25.2232 351.273 26.9992C351.177 29.3992 351.369 31.7032 351.657 33.9592C351.513 34.2472 351.081 34.4392 350.745 34.2472C349.929 33.2392 349.737 31.9432 349.689 30.6472C349.641 27.7672 349.593 24.7432 350.025 21.9112C350.313 20.0872 350.841 18.4072 351.945 16.8712C348.969 16.7272 346.233 17.3512 343.497 18.1192C343.113 18.0712 342.681 17.8312 342.441 17.4472C342.345 17.1112 342.537 16.9192 342.729 16.8232L343.017 16.7272L343.257 16.6312C345.273 15.8152 347.721 15.3832 350.073 15.3352C352.473 15.2392 354.873 15.4792 356.985 16.2472C357.225 16.3432 357.657 16.6792 357.801 16.9672C357.849 17.3032 357.609 17.7352 357.321 17.6872Z" fill="white"/>
<path d="M361.958 17.6872H361.718C361.574 17.6872 361.382 17.5912 361.334 17.3512C361.286 16.9672 361.43 16.6312 361.718 16.3432C362.486 15.6712 363.35 15.3832 364.31 15.4312C364.982 15.4792 365.654 15.5752 366.326 15.8152L368.15 16.4392C370.742 17.3032 372.998 19.6072 374.246 22.1032C374.918 23.4952 375.158 24.9352 374.822 26.5192C374.486 27.9592 373.622 29.3032 372.47 30.4072C369.59 33.1432 365.99 33.9592 362.006 33.9592C361.958 37.2232 361.766 40.8712 362.198 44.0872C362.198 44.2312 362.294 44.4232 362.39 44.5672C362.438 44.8072 362.534 44.9992 362.342 45.2872C361.958 45.5752 361.574 45.4792 361.238 45.2872C360.758 44.7592 360.566 44.1832 360.518 43.5112C360.182 40.1032 360.326 36.7912 360.518 33.3352C360.086 32.9512 359.414 32.4232 359.27 31.8472C359.27 31.6552 359.318 31.4632 359.414 31.3672C359.558 31.1272 359.75 31.0792 359.846 31.1752C359.99 31.3192 360.278 31.5112 360.518 31.6552C360.806 26.8552 361.142 22.2952 361.958 17.6872ZM371.462 20.8072C370.406 19.5112 368.918 18.5992 367.478 17.9752C366.662 17.5912 364.358 16.7272 363.494 17.1112C363.542 17.7832 363.446 18.9832 363.35 19.5112C362.678 23.5912 362.246 27.9592 362.198 32.2792C365.51 32.5192 368.678 31.5112 371.222 29.3032C372.614 28.1032 373.43 26.4232 373.286 24.6952C373.19 23.2552 372.278 21.8152 371.462 20.8072Z" fill="white"/>
<path d="M386.119 34.0552C383.479 34.7752 380.407 34.7272 378.343 32.9512C377.383 32.1352 376.663 30.9352 376.615 29.6392C376.567 28.4872 377.047 27.4312 377.719 26.4712C379.207 24.3592 381.799 22.9192 384.295 22.6312C385.351 22.5352 386.311 22.6792 387.079 23.4472C387.319 23.6872 387.079 24.1672 386.839 24.2632H386.407C386.263 24.2632 386.071 24.2152 385.927 24.2152C385.591 24.1672 385.303 24.1192 385.111 24.2632C382.807 24.3592 380.551 25.4632 379.159 27.3352C378.535 28.1512 378.199 28.7752 378.295 29.7832C378.391 31.1272 379.399 32.1352 380.791 32.6152C382.759 33.3352 385.207 32.9032 387.079 32.2312C388.087 31.8472 388.999 31.4632 389.863 30.8392C390.055 30.6952 390.247 30.8392 390.343 31.0792C390.391 31.2712 390.391 31.4632 390.391 31.6072C389.719 32.9032 387.031 33.8152 386.119 34.0552ZM388.807 30.7912C388.567 31.0792 388.135 31.0312 387.943 30.8872C387.463 30.5512 387.463 29.9272 387.463 29.4472C387.511 28.6312 387.655 27.8152 387.847 26.9512L388.471 24.3112C388.855 22.5832 389.095 20.8552 388.567 19.4152C388.135 18.1672 387.079 16.9192 385.783 16.7752C384.679 16.6312 383.575 17.0152 382.663 17.6872C382.183 18.0232 381.127 18.9352 380.839 19.4632C380.791 19.6552 380.887 19.9912 381.079 20.1832C381.271 20.3752 381.127 20.9512 380.695 20.8552C380.359 20.7592 379.975 20.6632 379.687 20.4232C379.303 20.0872 379.159 19.4632 379.447 18.9832C380.263 17.5912 381.415 16.4392 382.903 15.7672C383.863 15.2872 385.015 15.0952 386.215 15.2872C387.655 15.5272 388.903 16.5832 389.623 17.9272C390.727 19.9912 390.583 22.5832 390.055 24.8872C389.575 26.8552 389.095 28.6792 388.807 30.7912Z" fill="white"/>
<path d="M407.575 23.3992C407.239 26.8072 407.431 30.7912 407.671 34.1512C407.719 34.4872 407.239 34.5352 406.999 34.3912C406.327 33.8632 405.991 32.4712 405.943 31.6072C405.799 28.9192 405.799 26.4232 405.943 23.7352C402.391 23.8792 398.551 23.7832 395.047 24.1672C394.903 27.3832 394.999 30.4552 395.143 33.5272C395.191 33.6232 394.999 33.7672 394.759 33.8152C394.615 33.8152 394.375 33.7672 394.231 33.6232C393.607 32.9992 393.463 31.8472 393.415 31.0792C393.175 26.2312 393.511 21.3832 393.991 16.6312C394.087 16.3432 394.519 16.0552 394.903 16.2952C395.431 16.5352 395.431 17.1592 395.527 17.6392C395.431 18.8872 395.287 20.9992 395.143 22.4872C398.647 22.2472 402.535 22.3912 406.039 22.3432C406.231 19.9912 406.327 17.6392 406.903 15.4312C407.143 15.1432 407.623 15.3352 407.911 15.6232C408.151 15.9112 408.295 16.4872 408.295 16.8232C408.055 18.6472 407.719 20.4232 407.671 22.2952C407.815 22.2952 407.959 22.2472 408.103 22.2472C408.199 22.2472 408.343 22.3432 408.343 22.5832C408.343 22.6792 408.343 22.8712 408.247 22.9672C408.103 23.1592 407.815 23.3032 407.575 23.3992Z" fill="white"/>
<path d="M419.666 34.0552C417.842 34.2952 415.922 34.1512 414.098 33.0472C411.698 31.6072 410.642 29.1112 410.786 26.3272C410.93 24.1672 411.602 22.1512 412.802 20.3272C414.002 18.5032 415.682 17.0152 417.698 16.0552C418.754 15.5272 420.194 15.2872 421.346 15.7672C422.306 16.1512 423.314 17.1592 423.506 18.1192C423.602 18.4072 423.122 19.0312 422.738 18.7432C422.21 18.2632 421.538 17.6392 420.866 17.3512C420.194 17.0632 419.57 17.0152 418.85 17.3032C416.978 18.0712 415.25 19.5592 414.098 21.3352C413.042 22.9672 412.418 24.8872 412.37 26.8552C412.37 28.6312 413.042 30.3112 414.53 31.4152C415.922 32.4232 417.746 32.6632 419.426 32.5192C422.258 32.2792 424.754 31.0792 427.25 29.9752C427.538 29.9752 427.97 30.4552 427.73 30.7912C425.33 32.1352 422.594 33.6232 419.666 34.0552Z" fill="white"/>
<path d="M447.596 29.6872C445.724 32.2312 442.844 33.6712 439.916 34.1512C439.964 37.7512 440.204 41.4952 440.588 45.1432C440.588 45.7192 439.292 45.6712 439.196 45.1432C438.668 41.6872 438.332 37.9432 438.14 34.3432C435.98 34.1512 433.628 33.2872 431.9 31.8472C430.46 30.5992 429.5 29.1592 429.212 27.2872C428.972 25.6072 429.404 23.9272 430.268 22.5352C431.948 19.7032 435.212 17.8792 438.236 17.0632C438.524 13.5592 438.812 10.0552 439.244 6.55118C439.484 5.92718 440.636 6.26318 440.732 6.88718C440.588 9.81518 440.3 12.8392 440.06 15.7192C442.892 15.6712 445.436 17.1112 447.164 19.2712C448.364 20.7112 449.036 22.2472 449.18 24.2152C449.276 26.0872 448.748 28.1032 447.596 29.6872ZM443.612 18.2632C442.46 17.6392 441.26 17.1112 440.012 17.2552C439.676 22.2472 439.676 27.5272 439.82 32.5672C442.364 32.0392 444.764 30.7432 446.348 28.5352C447.356 27.0952 447.692 24.9352 447.26 23.1112C446.828 21.1432 445.292 19.1752 443.612 18.2632ZM431.42 23.6392C430.7 24.8872 430.46 26.2792 431.036 27.7672C431.468 28.9672 432.236 30.0232 433.292 30.7912C434.684 31.8472 436.412 32.4712 438.044 32.6632C437.948 28.0072 438.044 23.4472 438.14 18.8392C435.644 19.6072 432.716 21.3832 431.42 23.6392Z" fill="white"/>
<path d="M458.634 34.2472C456.234 34.1512 454.026 33.0472 452.634 30.9832C451.482 29.2552 451.194 27.2392 451.434 25.2712C451.722 23.0632 452.634 20.9512 453.882 19.3192C455.274 17.4952 457.242 16.0552 459.498 15.6232C461.034 15.3352 462.666 15.4792 463.818 16.7272C464.346 17.3032 464.826 17.9272 464.826 18.6952C464.874 19.5112 464.49 20.2312 463.818 20.7592C460.458 23.5432 456.906 26.1352 453.258 28.2472C453.354 29.7352 454.65 31.2712 456.042 32.0392C457.434 32.8072 459.066 32.9032 460.602 32.7112C462.138 32.5672 463.722 32.0392 464.826 31.5112C465.018 31.3672 465.162 31.5112 465.21 31.6552C465.258 31.7512 465.354 31.9432 465.162 32.0872C463.482 33.6232 461.082 34.3432 458.634 34.2472ZM460.746 17.1112C459.354 17.1112 457.962 17.6872 456.858 18.5512C454.506 20.4712 453.114 23.5432 453.114 26.5192C456.522 24.6472 459.738 22.1992 462.858 19.6552C463.098 19.4632 463.29 18.7432 462.954 18.1672C462.57 17.3992 461.706 17.1112 460.746 17.1112Z" fill="white"/>
<path d="M469.63 17.6872H469.39C469.246 17.6872 469.054 17.5912 469.006 17.3512C468.958 16.9672 469.102 16.6312 469.39 16.3432C470.158 15.6712 471.022 15.3832 471.982 15.4312C472.654 15.4792 473.326 15.5752 473.998 15.8152L475.822 16.4392C478.414 17.3032 480.67 19.6072 481.918 22.1032C482.59 23.4952 482.83 24.9352 482.494 26.5192C482.158 27.9592 481.294 29.3032 480.142 30.4072C477.262 33.1432 473.662 33.9592 469.678 33.9592C469.63 37.2232 469.438 40.8712 469.87 44.0872C469.87 44.2312 469.966 44.4232 470.062 44.5672C470.11 44.8072 470.206 44.9992 470.014 45.2872C469.63 45.5752 469.246 45.4792 468.91 45.2872C468.43 44.7592 468.238 44.1832 468.19 43.5112C467.854 40.1032 467.998 36.7912 468.19 33.3352C467.758 32.9512 467.086 32.4232 466.942 31.8472C466.942 31.6552 466.99 31.4632 467.086 31.3672C467.23 31.1272 467.422 31.0792 467.518 31.1752C467.662 31.3192 467.95 31.5112 468.19 31.6552C468.478 26.8552 468.814 22.2952 469.63 17.6872ZM479.134 20.8072C478.078 19.5112 476.59 18.5992 475.15 17.9752C474.334 17.5912 472.03 16.7272 471.166 17.1112C471.214 17.7832 471.118 18.9832 471.022 19.5112C470.35 23.5912 469.918 27.9592 469.87 32.2792C473.182 32.5192 476.35 31.5112 478.894 29.3032C480.286 28.1032 481.102 26.4232 480.958 24.6952C480.862 23.2552 479.95 21.8152 479.134 20.8072Z" fill="white"/>
<path d="M508.83 33.0952C506.67 34.1992 504.078 34.6792 501.726 33.5272C499.902 32.6152 498.606 31.0792 497.982 29.1592C497.262 26.9032 497.502 24.3592 498.462 22.2472C499.182 20.7112 500.286 19.3672 501.582 18.3592C502.446 17.7352 503.742 16.9672 504.942 16.8232C505.902 15.7192 507.486 15.3832 508.83 15.7192C511.134 16.3432 513.102 18.6952 513.726 20.7592C514.35 22.7752 514.494 24.9832 513.918 27.0472C513.198 29.8312 511.374 31.8472 508.83 33.0952ZM512.142 21.2872C511.566 19.7032 510.27 17.9272 508.59 17.3512C507.822 17.0632 507.006 16.9672 506.382 17.4472C505.758 17.9272 505.374 18.6952 505.086 19.3672C505.038 19.5112 505.038 19.7032 505.038 19.8952C505.038 20.0872 505.038 20.3272 504.99 20.5192C504.942 20.6152 504.462 20.9032 504.318 20.6152C504.222 20.1832 504.126 19.3192 504.174 18.6472C502.35 19.4152 500.814 20.9992 499.95 22.7752C499.038 24.6472 498.99 26.8072 499.566 28.7272C500.046 30.2152 500.958 31.4632 502.494 32.0872C504.414 32.8072 506.478 32.5672 508.206 31.7032C510.174 30.6952 511.566 29.1592 512.238 27.0952C512.862 25.2712 512.766 23.1112 512.142 21.2872Z" fill="white"/>
<path d="M530.899 17.6872C529.651 17.3992 528.403 17.1112 527.107 17.0632C526.051 18.4072 525.523 19.9912 525.235 21.6712C524.899 23.3992 524.947 25.2232 524.851 26.9992C524.755 29.3992 524.947 31.7032 525.235 33.9592C525.091 34.2472 524.659 34.4392 524.323 34.2472C523.507 33.2392 523.315 31.9432 523.267 30.6472C523.219 27.7672 523.171 24.7432 523.603 21.9112C523.891 20.0872 524.419 18.4072 525.523 16.8712C522.547 16.7272 519.811 17.3512 517.075 18.1192C516.691 18.0712 516.259 17.8312 516.019 17.4472C515.923 17.1112 516.115 16.9192 516.307 16.8232L516.595 16.7272L516.835 16.6312C518.851 15.8152 521.299 15.3832 523.651 15.3352C526.051 15.2392 528.451 15.4792 530.563 16.2472C530.803 16.3432 531.235 16.6792 531.379 16.9672C531.427 17.3032 531.187 17.7352 530.899 17.6872Z" fill="white"/>
<path d="M558.928 40.4872C558.304 40.9192 556.48 41.9752 555.568 41.8792C555.328 41.7832 555.184 41.3512 555.424 41.2552C557.488 40.0552 559.792 38.2792 561.52 35.9752C561.616 35.8312 561.616 35.4952 561.52 35.3992C560.56 34.6792 559.696 33.8152 559.072 32.7112C558.688 31.9912 558.4 31.1752 558.4 30.2632C557.248 31.4152 555.856 32.2792 554.416 32.9512C552.976 33.5752 551.488 34.0072 549.904 34.3432C549.136 34.3912 548.368 34.1512 547.792 33.5272C547.12 32.8072 547.12 31.8472 547.024 30.9352C546.544 26.2312 547.264 21.7192 548.608 17.4952C548.704 16.9672 549.664 16.8232 549.952 17.4472C550.24 17.9752 549.952 18.7432 549.808 19.2712C548.704 23.2072 548.272 27.5752 548.752 31.9432C548.8 32.3752 549.232 32.7112 549.712 32.7592C550.864 32.8072 553.024 31.9432 554.08 31.5112C555.76 30.7912 557.44 29.9752 558.304 28.2472C558.208 24.0712 558.88 19.7992 560.08 15.9112C560.512 15.1432 561.232 15.7672 561.472 16.2472C561.424 16.9672 561.28 17.5912 561.136 18.2632C560.992 18.8872 560.848 19.5112 560.704 20.1832C560.08 23.6872 559.696 27.5272 560.032 31.0792C560.32 32.4712 561.616 33.5272 562.768 34.3912C563.152 34.8232 563.296 35.4472 563.152 36.0232C562.24 37.8472 560.656 39.3832 558.928 40.4872Z" fill="white"/>
<path d="M572.212 34.2472C569.812 34.1512 567.604 33.0472 566.212 30.9832C565.06 29.2552 564.772 27.2392 565.012 25.2712C565.3 23.0632 566.212 20.9512 567.46 19.3192C568.852 17.4952 570.82 16.0552 573.076 15.6232C574.612 15.3352 576.244 15.4792 577.396 16.7272C577.924 17.3032 578.404 17.9272 578.404 18.6952C578.452 19.5112 578.068 20.2312 577.396 20.7592C574.036 23.5432 570.484 26.1352 566.836 28.2472C566.932 29.7352 568.228 31.2712 569.62 32.0392C571.012 32.8072 572.644 32.9032 574.18 32.7112C575.716 32.5672 577.3 32.0392 578.404 31.5112C578.596 31.3672 578.74 31.5112 578.788 31.6552C578.836 31.7512 578.932 31.9432 578.74 32.0872C577.06 33.6232 574.66 34.3432 572.212 34.2472ZM574.324 17.1112C572.932 17.1112 571.54 17.6872 570.436 18.5512C568.084 20.4712 566.692 23.5432 566.692 26.5192C570.1 24.6472 573.316 22.1992 576.436 19.6552C576.676 19.4632 576.868 18.7432 576.532 18.1672C576.148 17.3992 575.284 17.1112 574.324 17.1112Z" fill="white"/>
<path d="M595.544 23.3992C595.208 26.8072 595.4 30.7912 595.64 34.1512C595.688 34.4872 595.208 34.5352 594.968 34.3912C594.296 33.8632 593.96 32.4712 593.912 31.6072C593.768 28.9192 593.768 26.4232 593.912 23.7352C590.36 23.8792 586.52 23.7832 583.016 24.1672C582.872 27.3832 582.968 30.4552 583.112 33.5272C583.16 33.6232 582.968 33.7672 582.728 33.8152C582.584 33.8152 582.344 33.7672 582.2 33.6232C581.576 32.9992 581.432 31.8472 581.384 31.0792C581.144 26.2312 581.48 21.3832 581.96 16.6312C582.056 16.3432 582.488 16.0552 582.872 16.2952C583.4 16.5352 583.4 17.1592 583.496 17.6392C583.4 18.8872 583.256 20.9992 583.112 22.4872C586.616 22.2472 590.504 22.3912 594.008 22.3432C594.2 19.9912 594.296 17.6392 594.872 15.4312C595.112 15.1432 595.592 15.3352 595.88 15.6232C596.12 15.9112 596.264 16.4872 596.264 16.8232C596.024 18.6472 595.688 20.4232 595.64 22.2952C595.784 22.2952 595.928 22.2472 596.072 22.2472C596.168 22.2472 596.312 22.3432 596.312 22.5832C596.312 22.6792 596.312 22.8712 596.216 22.9672C596.072 23.1592 595.784 23.3032 595.544 23.3992Z" fill="white"/>
<path d="M613.586 17.6872C612.338 17.3992 611.09 17.1112 609.794 17.0632C608.738 18.4072 608.21 19.9912 607.922 21.6712C607.586 23.3992 607.634 25.2232 607.538 26.9992C607.442 29.3992 607.634 31.7032 607.922 33.9592C607.778 34.2472 607.346 34.4392 607.01 34.2472C606.194 33.2392 606.002 31.9432 605.954 30.6472C605.906 27.7672 605.858 24.7432 606.29 21.9112C606.578 20.0872 607.106 18.4072 608.21 16.8712C605.234 16.7272 602.498 17.3512 599.762 18.1192C599.378 18.0712 598.946 17.8312 598.706 17.4472C598.61 17.1112 598.802 16.9192 598.994 16.8232L599.282 16.7272L599.522 16.6312C601.538 15.8152 603.986 15.3832 606.338 15.3352C608.738 15.2392 611.138 15.4792 613.25 16.2472C613.49 16.3432 613.922 16.6792 614.066 16.9672C614.114 17.3032 613.874 17.7352 613.586 17.6872Z" fill="white"/>
<path d="M618.224 17.6872H617.984C617.84 17.6872 617.648 17.5912 617.6 17.3512C617.552 16.9672 617.696 16.6312 617.984 16.3432C618.752 15.6712 619.616 15.3832 620.576 15.4312C621.248 15.4792 621.92 15.5752 622.592 15.8152L624.416 16.4392C627.008 17.3032 629.264 19.6072 630.512 22.1032C631.184 23.4952 631.424 24.9352 631.088 26.5192C630.752 27.9592 629.888 29.3032 628.736 30.4072C625.856 33.1432 622.256 33.9592 618.272 33.9592C618.224 37.2232 618.032 40.8712 618.464 44.0872C618.464 44.2312 618.56 44.4232 618.656 44.5672C618.704 44.8072 618.8 44.9992 618.608 45.2872C618.224 45.5752 617.84 45.4792 617.504 45.2872C617.024 44.7592 616.832 44.1832 616.784 43.5112C616.448 40.1032 616.592 36.7912 616.784 33.3352C616.352 32.9512 615.68 32.4232 615.536 31.8472C615.536 31.6552 615.584 31.4632 615.68 31.3672C615.824 31.1272 616.016 31.0792 616.112 31.1752C616.256 31.3192 616.544 31.5112 616.784 31.6552C617.072 26.8552 617.408 22.2952 618.224 17.6872ZM627.728 20.8072C626.672 19.5112 625.184 18.5992 623.744 17.9752C622.928 17.5912 620.624 16.7272 619.76 17.1112C619.808 17.7832 619.712 18.9832 619.616 19.5112C618.944 23.5912 618.512 27.9592 618.464 32.2792C621.776 32.5192 624.944 31.5112 627.488 29.3032C628.88 28.1032 629.696 26.4232 629.552 24.6952C629.456 23.2552 628.544 21.8152 627.728 20.8072Z" fill="white"/>
<path d="M642.385 34.0552C639.745 34.7752 636.673 34.7272 634.609 32.9512C633.649 32.1352 632.929 30.9352 632.881 29.6392C632.833 28.4872 633.313 27.4312 633.985 26.4712C635.473 24.3592 638.065 22.9192 640.561 22.6312C641.617 22.5352 642.577 22.6792 643.345 23.4472C643.585 23.6872 643.345 24.1672 643.105 24.2632H642.673C642.529 24.2632 642.337 24.2152 642.193 24.2152C641.857 24.1672 641.569 24.1192 641.377 24.2632C639.073 24.3592 636.817 25.4632 635.425 27.3352C634.801 28.1512 634.465 28.7752 634.561 29.7832C634.657 31.1272 635.665 32.1352 637.057 32.6152C639.025 33.3352 641.473 32.9032 643.345 32.2312C644.353 31.8472 645.265 31.4632 646.129 30.8392C646.321 30.6952 646.513 30.8392 646.609 31.0792C646.657 31.2712 646.657 31.4632 646.657 31.6072C645.985 32.9032 643.297 33.8152 642.385 34.0552ZM645.073 30.7912C644.833 31.0792 644.401 31.0312 644.209 30.8872C643.729 30.5512 643.729 29.9272 643.729 29.4472C643.777 28.6312 643.921 27.8152 644.113 26.9512L644.737 24.3112C645.121 22.5832 645.361 20.8552 644.833 19.4152C644.401 18.1672 643.345 16.9192 642.049 16.7752C640.945 16.6312 639.841 17.0152 638.929 17.6872C638.449 18.0232 637.393 18.9352 637.105 19.4632C637.057 19.6552 637.153 19.9912 637.345 20.1832C637.537 20.3752 637.393 20.9512 636.961 20.8552C636.625 20.7592 636.241 20.6632 635.953 20.4232C635.569 20.0872 635.425 19.4632 635.713 18.9832C636.529 17.5912 637.681 16.4392 639.169 15.7672C640.129 15.2872 641.281 15.0952 642.481 15.2872C643.921 15.5272 645.169 16.5832 645.889 17.9272C646.993 19.9912 646.849 22.5832 646.321 24.8872C645.841 26.8552 645.361 28.6792 645.073 30.7912Z" fill="white"/>
<path d="M679.36 41.4472C679.216 41.8312 678.736 41.8312 678.496 41.6872C677.968 41.2072 677.968 40.5352 677.92 39.8632C677.776 37.8472 677.584 35.6392 677.824 33.5752C673.312 33.1432 668.512 33.3832 664.192 34.1992C664 36.6472 664.096 39.2392 664.48 41.5912C664.432 41.8312 664.096 42.2152 663.712 41.9752C663.28 41.7832 663.088 41.3992 662.992 41.0632L662.752 40.0072C662.656 38.9512 662.56 37.8952 662.512 36.8872C662.464 35.8312 662.464 34.7752 662.56 33.8632C662.608 33.4792 662.944 33.0952 663.28 32.8552L664.624 32.5672C667.408 27.9112 669.712 23.1112 671.728 18.1192C671.776 17.8792 671.872 17.2072 671.68 16.9672C671.536 16.3432 671.92 16.0072 672.304 15.7192C673.84 15.4792 675.568 15.5272 676.912 16.2952C677.44 16.5352 677.68 17.0632 677.776 17.5912C677.776 20.0872 677.824 25.2712 677.872 27.8152C678.064 29.2072 677.872 30.6472 677.776 32.0392C677.872 32.0872 678.016 32.0872 678.208 32.0872C678.496 32.1352 678.688 32.0872 678.832 32.0872C679.264 32.1352 679.648 32.4232 679.648 32.8072C679.264 35.6872 679.216 38.6152 679.36 41.4472ZM676.384 30.6472C676.336 30.1672 676.288 29.7352 676.288 29.2072C676.288 26.3752 676.24 20.8072 676.192 17.9752C676 17.5912 675.664 17.3992 675.28 17.3032C674.608 17.1112 673.792 17.1592 673.072 17.2072C673.264 17.8792 673.12 18.5992 672.976 19.2232C671.056 23.6872 669.04 28.1512 666.448 32.3272C669.616 31.9432 672.928 31.7992 676.336 31.9432C676.384 31.5112 676.384 31.0792 676.384 30.6472Z" fill="white"/>
<path d="M692.861 33.0952C690.701 34.1992 688.109 34.6792 685.757 33.5272C683.933 32.6152 682.637 31.0792 682.013 29.1592C681.293 26.9032 681.533 24.3592 682.493 22.2472C683.213 20.7112 684.317 19.3672 685.613 18.3592C686.477 17.7352 687.773 16.9672 688.973 16.8232C689.933 15.7192 691.517 15.3832 692.861 15.7192C695.165 16.3432 697.133 18.6952 697.757 20.7592C698.381 22.7752 698.525 24.9832 697.949 27.0472C697.229 29.8312 695.405 31.8472 692.861 33.0952ZM696.173 21.2872C695.597 19.7032 694.301 17.9272 692.621 17.3512C691.853 17.0632 691.037 16.9672 690.413 17.4472C689.789 17.9272 689.405 18.6952 689.117 19.3672C689.069 19.5112 689.069 19.7032 689.069 19.8952C689.069 20.0872 689.069 20.3272 689.021 20.5192C688.973 20.6152 688.493 20.9032 688.349 20.6152C688.253 20.1832 688.157 19.3192 688.205 18.6472C686.381 19.4152 684.845 20.9992 683.981 22.7752C683.069 24.6472 683.021 26.8072 683.597 28.7272C684.077 30.2152 684.989 31.4632 686.525 32.0872C688.445 32.8072 690.509 32.5672 692.237 31.7032C694.205 30.6952 695.597 29.1592 696.269 27.0952C696.893 25.2712 696.797 23.1112 696.173 21.2872Z" fill="white"/>
<path d="M733.906 19.6072C733.618 23.7352 733.858 28.0552 734.29 31.8952C734.386 32.2792 733.762 32.3272 733.57 32.1832C733.378 31.9912 733.234 31.7512 733.138 31.5112L732.946 30.7432C731.89 26.5672 732.082 22.1032 732.37 17.7352C732.658 13.6552 733.33 9.57518 734.05 5.83118C731.65 5.11118 729.106 4.58318 726.514 4.24718C724.45 3.95918 722.338 3.81518 720.226 4.00718C720.034 4.00718 719.746 4.10318 719.506 4.15118C719.218 4.24718 718.978 4.29518 718.834 4.39118C718.498 4.48718 718.018 4.15118 718.162 3.71918C718.402 3.09518 719.026 2.61518 719.602 2.47118C720.658 2.32718 721.762 2.32718 722.866 2.42318C723.97 2.47118 725.17 2.61518 726.178 2.71118C729.202 3.04718 732.178 3.47918 734.866 4.29518C735.346 4.43918 735.634 4.82318 735.826 5.30318C735.01 10.0072 734.29 14.6632 733.906 19.6072ZM717.01 6.07118C716.818 6.21518 716.386 6.83918 716.29 7.17518C715.858 10.5832 715.762 14.1832 715.858 17.7832C716.002 22.5832 716.53 27.3832 716.914 31.9432L716.818 33.0472C716.77 33.4312 716.674 33.8152 716.338 34.0552C716.146 34.2472 715.57 34.1512 715.474 33.7672C715.138 28.1512 714.226 22.5832 714.178 16.7752C714.13 13.5592 714.226 10.1992 714.658 6.98318C714.946 6.35918 714.994 5.59118 715.426 5.01518C715.666 4.77518 716.146 4.53518 716.53 4.77518C716.722 4.87118 717.058 5.11118 717.202 5.30318C717.442 5.54318 717.25 5.97518 717.01 6.07118Z" fill="white"/>
<path d="M745.462 34.2472C743.062 34.1512 740.854 33.0472 739.462 30.9832C738.31 29.2552 738.022 27.2392 738.262 25.2712C738.55 23.0632 739.462 20.9512 740.71 19.3192C742.102 17.4952 744.07 16.0552 746.326 15.6232C747.862 15.3352 749.494 15.4792 750.646 16.7272C751.174 17.3032 751.654 17.9272 751.654 18.6952C751.702 19.5112 751.318 20.2312 750.646 20.7592C747.286 23.5432 743.734 26.1352 740.086 28.2472C740.182 29.7352 741.478 31.2712 742.87 32.0392C744.262 32.8072 745.894 32.9032 747.43 32.7112C748.966 32.5672 750.55 32.0392 751.654 31.5112C751.846 31.3672 751.99 31.5112 752.038 31.6552C752.086 31.7512 752.182 31.9432 751.99 32.0872C750.31 33.6232 747.91 34.3432 745.462 34.2472ZM747.574 17.1112C746.182 17.1112 744.79 17.6872 743.686 18.5512C741.334 20.4712 739.942 23.5432 739.942 26.5192C743.35 24.6472 746.566 22.1992 749.686 19.6552C749.926 19.4632 750.118 18.7432 749.782 18.1672C749.398 17.3992 748.534 17.1112 747.574 17.1112Z" fill="white"/>
<path d="M775.418 33.9592C774.794 33.2872 774.362 32.4712 774.266 31.5112C772.298 32.5192 770.378 33.2872 768.122 33.3352C767.258 33.3352 766.346 33.2392 765.722 32.5672C765.146 31.9432 765.05 31.1752 764.906 30.4072C763.034 31.8952 761.066 33.2872 758.81 33.7672C757.562 34.0552 756.602 34.1032 755.786 32.9032C755.114 31.9432 754.826 29.4952 754.73 28.2952C754.442 24.0712 754.97 19.8952 755.978 16.1512C756.074 15.8152 756.362 15.3832 756.602 15.3832C756.938 15.3832 757.322 15.5752 757.466 15.9592C757.466 16.6792 757.37 17.3512 757.226 17.9752C757.034 18.6472 756.89 19.2712 756.794 19.9432C756.554 21.7192 756.266 23.5432 756.266 25.3672C756.266 27.5752 756.458 29.7352 757.034 31.7992C757.274 32.4232 758.042 32.4232 758.666 32.2312C760.874 31.6552 762.842 30.3112 764.618 28.6792C764.378 25.0792 764.426 20.9032 765.386 17.7352C765.482 17.5432 765.818 17.4472 766.154 17.5432C766.346 17.6392 766.682 17.8312 766.682 18.1192C766.394 20.5192 766.058 23.1112 766.106 25.6072C766.106 27.5272 766.346 29.4472 766.826 31.1752C766.922 31.6072 767.498 31.7992 768.074 31.7992C769.994 31.7032 772.49 31.0312 774.122 30.0232C773.594 25.2712 773.978 20.2792 774.89 15.8152C775.226 15.4792 775.754 15.4792 775.994 15.8152C776.33 16.1512 776.234 16.6792 776.186 17.1112V17.4952C775.37 23.1112 775.322 28.2952 776.234 33.9112C776.09 34.2472 775.706 34.1512 775.418 33.9592Z" fill="white"/>
<path d="M795.22 34.1512C792.916 32.8552 790.564 31.9432 788.116 31.0792C785.716 30.2152 783.412 29.3512 781.108 28.3432C781.06 30.0712 781.3 31.8472 781.732 33.4312C781.876 33.7192 781.78 34.2472 781.348 34.2472C780.964 34.2472 780.724 34.0072 780.58 33.7672C780.436 33.5752 780.34 33.2872 780.196 33.0472C779.668 31.3192 779.476 29.4472 779.476 27.5272C779.332 27.4312 779.14 27.2872 779.044 27.0472C778.9 26.9032 778.852 26.6152 778.996 26.3752C779.188 26.2312 779.38 25.9432 779.428 25.7512C779.524 25.1272 779.476 23.6872 779.62 23.0632C779.812 21.9592 780.1 20.6152 780.388 19.2712C780.724 17.9272 781.204 16.5832 781.828 15.4312C782.116 14.9512 782.836 15.0472 782.98 15.5752C782.932 16.1992 782.74 16.7752 782.548 17.3512C782.404 17.8792 782.116 18.4552 781.972 19.0312C781.492 20.7592 781.204 22.5352 781.156 24.3592C782.884 22.8232 784.612 21.3832 786.388 20.0392C788.596 18.4072 790.948 17.0152 793.444 16.0072C793.828 16.0072 794.308 16.0072 794.596 16.2472C794.884 16.4392 794.884 16.7272 794.74 17.0632C792.196 18.1192 789.892 19.5112 787.54 21.1432C785.332 22.7272 783.124 24.5512 781.06 26.5192V26.5672C783.412 27.8632 786.004 28.7272 788.5 29.5912C790.708 30.3592 792.82 31.2232 794.836 32.5192C795.268 32.7592 795.604 33.0952 795.844 33.5272C795.892 33.8152 795.508 34.1992 795.22 34.1512Z" fill="white"/>
<path d="M808.408 33.0952C806.248 34.1992 803.656 34.6792 801.304 33.5272C799.48 32.6152 798.184 31.0792 797.56 29.1592C796.84 26.9032 797.08 24.3592 798.04 22.2472C798.76 20.7112 799.864 19.3672 801.16 18.3592C802.024 17.7352 803.32 16.9672 804.52 16.8232C805.48 15.7192 807.064 15.3832 808.408 15.7192C810.712 16.3432 812.68 18.6952 813.304 20.7592C813.928 22.7752 814.072 24.9832 813.496 27.0472C812.776 29.8312 810.952 31.8472 808.408 33.0952ZM811.72 21.2872C811.144 19.7032 809.848 17.9272 808.168 17.3512C807.4 17.0632 806.584 16.9672 805.96 17.4472C805.336 17.9272 804.952 18.6952 804.664 19.3672C804.616 19.5112 804.616 19.7032 804.616 19.8952C804.616 20.0872 804.616 20.3272 804.568 20.5192C804.52 20.6152 804.04 20.9032 803.896 20.6152C803.8 20.1832 803.704 19.3192 803.752 18.6472C801.928 19.4152 800.392 20.9992 799.528 22.7752C798.616 24.6472 798.568 26.8072 799.144 28.7272C799.624 30.2152 800.536 31.4632 802.072 32.0872C803.992 32.8072 806.056 32.5672 807.784 31.7032C809.752 30.6952 811.144 29.1592 811.816 27.0952C812.44 25.2712 812.344 23.1112 811.72 21.2872Z" fill="white"/>
<path d="M825.437 32.9512C823.997 33.9112 822.221 34.6792 820.445 34.6792C819.437 34.6792 818.717 34.2472 818.045 33.2872C817.805 33.4792 817.373 33.6232 817.181 33.3352C816.317 32.1352 816.077 30.4552 816.029 28.8232C815.933 24.6472 815.981 21.5752 817.085 17.8312C817.181 17.4472 818.093 16.7272 818.765 16.9192C819.053 16.1512 819.821 15.3352 820.733 15.2392C823.181 15.2392 825.821 16.5352 826.637 18.9832C826.877 19.7512 826.877 20.5672 826.589 21.3352C826.301 22.0552 825.821 22.6792 825.197 23.1592L824.909 23.3992C826.109 23.7832 827.453 24.5512 828.221 25.7512C828.797 26.6632 828.845 27.7672 828.605 28.8232C828.173 30.5512 826.925 31.9432 825.437 32.9512ZM826.781 26.5672C826.397 25.8472 825.341 25.4152 824.573 25.0312C823.661 24.4552 822.845 24.6952 821.933 24.8872L820.493 25.2232C819.965 25.3672 819.437 25.3672 818.861 25.2232C818.621 25.0792 818.333 24.5992 818.573 24.3592C819.149 23.7832 819.869 23.4952 820.685 23.3032L822.893 23.0632C823.757 22.5832 824.669 21.6232 825.053 20.7112C825.293 19.9432 825.149 19.4152 824.669 18.7912C823.805 17.5912 822.413 17.0632 821.021 16.9192C820.589 16.8712 820.445 16.9672 820.349 17.2552C820.205 17.6392 820.109 18.0712 819.869 18.4072C819.773 18.6472 819.437 18.7432 819.197 18.5992C819.005 18.5512 818.861 18.4552 818.765 18.3592C818.189 20.4232 817.853 22.7752 817.757 25.2232C817.661 27.5272 817.757 29.7832 818.093 31.8952C818.477 31.4632 818.957 30.8392 819.197 30.5032C819.533 30.1672 820.157 30.6952 820.061 31.0312C819.965 31.2712 819.773 31.5592 819.629 31.7992C819.533 32.0872 819.389 32.3272 819.389 32.5192C819.677 32.9512 820.349 33.0952 821.165 32.9992C822.365 32.8072 823.805 32.1352 824.861 31.3192C825.821 30.5512 826.637 29.5912 826.877 28.3912C827.021 27.8152 827.117 27.1432 826.781 26.5672Z" fill="white"/>
<path d="M841.736 33.0952C839.576 34.1992 836.984 34.6792 834.632 33.5272C832.808 32.6152 831.512 31.0792 830.888 29.1592C830.168 26.9032 830.408 24.3592 831.368 22.2472C832.088 20.7112 833.192 19.3672 834.488 18.3592C835.352 17.7352 836.648 16.9672 837.848 16.8232C838.808 15.7192 840.392 15.3832 841.736 15.7192C844.04 16.3432 846.008 18.6952 846.632 20.7592C847.256 22.7752 847.4 24.9832 846.824 27.0472C846.104 29.8312 844.28 31.8472 841.736 33.0952ZM845.048 21.2872C844.472 19.7032 843.176 17.9272 841.496 17.3512C840.728 17.0632 839.912 16.9672 839.288 17.4472C838.664 17.9272 838.28 18.6952 837.992 19.3672C837.944 19.5112 837.944 19.7032 837.944 19.8952C837.944 20.0872 837.944 20.3272 837.896 20.5192C837.848 20.6152 837.368 20.9032 837.224 20.6152C837.128 20.1832 837.032 19.3192 837.08 18.6472C835.256 19.4152 833.72 20.9992 832.856 22.7752C831.944 24.6472 831.896 26.8072 832.472 28.7272C832.952 30.2152 833.864 31.4632 835.4 32.0872C837.32 32.8072 839.384 32.5672 841.112 31.7032C843.08 30.6952 844.472 29.1592 845.144 27.0952C845.768 25.2712 845.672 23.1112 845.048 21.2872Z" fill="white"/>
<path d="M863.901 13.8472C861.645 17.5432 859.053 21.1912 856.989 25.0792C856.749 25.2712 856.317 25.1752 856.221 24.9352C856.125 24.4072 856.173 23.9272 856.317 23.5432C856.413 23.1112 856.557 22.7752 856.701 22.3432C858.333 19.3672 860.349 16.5352 862.125 13.6552C862.653 12.7432 862.941 11.5432 862.845 10.3432C862.797 9.47918 862.461 8.61518 861.885 7.89518C860.733 6.45518 859.293 5.35118 857.709 4.82318C856.653 4.43918 855.549 4.34318 854.349 4.58318C853.581 4.72718 852.909 5.06318 852.237 5.68718C851.613 6.26318 851.085 6.98318 850.845 7.79918C850.557 8.03918 850.029 8.03918 849.885 7.60718C849.741 6.98318 849.981 6.45518 850.173 5.87918C850.989 4.48718 852.141 3.52718 853.485 3.04718C854.637 2.66318 855.789 2.56718 856.989 2.75918C858.381 2.99918 859.629 3.57518 860.781 4.39118C861.933 5.20718 862.941 6.26318 863.709 7.55918C864.333 8.51918 864.621 9.81518 864.573 11.0632C864.573 12.0232 864.381 13.0792 863.901 13.8472ZM860.829 34.5832C859.629 34.5832 858.429 34.2952 857.373 33.7672C856.269 33.1912 855.309 32.4712 854.589 31.4152C854.397 31.1272 854.349 30.6472 854.445 30.2632C854.541 29.8792 854.829 29.6392 855.309 29.8312L856.461 31.0792C856.845 31.4632 857.277 31.8472 857.661 32.1352C858.765 32.9512 860.157 33.3832 861.549 33.8152C861.693 34.1512 861.165 34.4872 860.829 34.5832Z" fill="white"/>
<path d="M881.512 12.1672C881.272 12.4552 881.032 12.6952 880.648 12.9352C880.168 12.9832 879.784 12.9352 879.448 12.7432C878.392 12.2632 877.192 11.4952 876.328 10.8712C876.28 12.4072 876.136 13.9912 876.328 15.4792C876.232 16.2472 875.368 15.9112 875.272 15.7192C875.176 15.6232 875.08 15.5272 875.032 15.3832C874.936 15.2872 874.84 15.1432 874.792 14.9992C874.696 14.5672 874.696 14.1352 874.696 13.7512C874.744 12.9352 874.792 12.0712 874.792 11.2552C873.688 12.3112 872.344 13.2232 870.904 13.7512C870.568 13.7992 870.04 13.7992 869.656 13.4632C869.08 12.9832 869.608 12.1672 870.28 11.7352L870.616 12.3592C870.952 12.2632 871.288 12.0232 871.624 11.8792C872.632 11.2552 873.64 10.3432 874.456 9.43118C872.92 8.18318 871.384 6.64718 870.088 5.25518C869.752 4.96718 869.896 4.53518 870.04 4.29518C870.472 3.71918 871.144 4.10318 871.288 4.24718C872.392 5.44718 873.544 6.59918 874.744 7.70318C874.744 6.40718 874.792 5.11118 874.696 3.91118L874.312 2.80718C874.264 2.51918 874.456 1.84718 875.08 1.89518C875.512 2.03918 875.752 2.37518 875.944 2.75918L876.088 3.09518C876.232 3.43118 876.328 4.05518 876.328 4.39118V7.03118L876.472 6.79118L877.48 5.44718C877.816 4.96718 878.296 4.58318 878.872 4.24718C879.64 3.81518 881.08 4.24718 880.648 5.68718C880.312 5.63918 880.216 5.59118 880.072 5.54318C879.976 5.54318 879.88 5.49518 879.688 5.44718C879.4 5.35118 878.44 6.64718 878.296 6.83918C877.72 7.60718 877.24 8.42318 876.616 9.23918C877.768 10.1032 879.016 10.8712 880.408 11.5432C880.504 11.3992 880.6 11.3512 880.696 11.3032C880.792 11.2072 880.888 11.1592 881.224 11.0152C881.608 11.3992 881.656 11.6872 881.608 11.8792C881.56 11.9752 881.512 12.0232 881.512 12.1672Z" fill="white"/>
<path d="M900.168 12.1672C899.928 12.4552 899.688 12.6952 899.304 12.9352C898.824 12.9832 898.44 12.9352 898.104 12.7432C897.048 12.2632 895.848 11.4952 894.984 10.8712C894.936 12.4072 894.792 13.9912 894.984 15.4792C894.888 16.2472 894.024 15.9112 893.928 15.7192C893.832 15.6232 893.736 15.5272 893.688 15.3832C893.592 15.2872 893.496 15.1432 893.448 14.9992C893.352 14.5672 893.352 14.1352 893.352 13.7512C893.4 12.9352 893.448 12.0712 893.448 11.2552C892.344 12.3112 891 13.2232 889.56 13.7512C889.224 13.7992 888.696 13.7992 888.312 13.4632C887.736 12.9832 888.264 12.1672 888.936 11.7352L889.272 12.3592C889.608 12.2632 889.944 12.0232 890.28 11.8792C891.288 11.2552 892.296 10.3432 893.112 9.43118C891.576 8.18318 890.04 6.64718 888.744 5.25518C888.408 4.96718 888.552 4.53518 888.696 4.29518C889.128 3.71918 889.8 4.10318 889.944 4.24718C891.048 5.44718 892.2 6.59918 893.4 7.70318C893.4 6.40718 893.448 5.11118 893.352 3.91118L892.968 2.80718C892.92 2.51918 893.112 1.84718 893.736 1.89518C894.168 2.03918 894.408 2.37518 894.6 2.75918L894.744 3.09518C894.888 3.43118 894.984 4.05518 894.984 4.39118V7.03118L895.128 6.79118L896.136 5.44718C896.472 4.96718 896.952 4.58318 897.528 4.24718C898.296 3.81518 899.736 4.24718 899.304 5.68718C898.968 5.63918 898.872 5.59118 898.728 5.54318C898.632 5.54318 898.536 5.49518 898.344 5.44718C898.056 5.35118 897.096 6.64718 896.952 6.83918C896.376 7.60718 895.896 8.42318 895.272 9.23918C896.424 10.1032 897.672 10.8712 899.064 11.5432C899.16 11.3992 899.256 11.3512 899.352 11.3032C899.448 11.2072 899.544 11.1592 899.88 11.0152C900.264 11.3992 900.312 11.6872 900.264 11.8792C900.216 11.9752 900.168 12.0232 900.168 12.1672Z" fill="white"/>
</svg>
