<svg width="901" height="46" fill="none" xmlns="http://www.w3.org/2000/svg"><path d="M18.441 2.616c-.317-.882-1.565-.882-1.882 0l-3.63 10.09a1 1 0 0 1-.585.596l-9.888 3.763c-.86.327-.86 1.543 0 1.87l9.888 3.763a1 1 0 0 1 .585.596l3.63 10.09c.317.882 1.565.882 1.882 0l3.63-10.09a1 1 0 0 1 .585-.596l9.889-3.763c.858-.327.858-1.543 0-1.87l-9.889-3.763a1 1 0 0 1-.585-.596l-3.63-10.09z" fill="gold"/><path d="M69.494 9.335c-.624 2.496-.912 5.184-1.2 7.824-.24 1.824-.336 3.648-.384 5.52-.096 2.736-.096 5.472-.192 8.256-.144.48-.528.768-.96.768-.624 0-.912-.624-1.056-1.152l-.192-.384c-1.2-4.992-2.64-9.84-4.416-14.592-.816-2.256-1.584-4.464-2.448-6.672-.864-2.16-1.824-4.32-2.976-6.48-.048 0-.096-.096-.096-.048-1.296 4.224-2.208 8.496-2.64 13.008-.384 4.08-.432 8.256-.288 12.48.096.576.096 1.2.192 1.824.048.576.144 1.152.336 1.68.048.336-.192.576-.48.672-.864-.192-1.056-.912-1.2-1.68l-.144-.672c-.384-3.504-.432-7.104-.24-10.704.24-4.272.864-8.544 1.728-12.48.48-2.064 1.104-4.224 1.92-6.144.144-.336.72-.48 1.056-.24.288.24.432.528.624.864 1.2 1.92 2.16 3.936 2.976 5.952l2.448 6.144c1.824 4.608 3.312 9.36 4.56 14.208.048-4.08.096-8.352.528-12.384.336-3.504 1.056-6.96 2.496-9.984.096-.192.192-.432.336-.624.336-.672.816-1.392 1.728-1.344.528.288.336.816.096 1.152-1.056 1.584-1.632 3.36-2.112 5.232zm12 15.648c-1.104 1.008-2.448 1.68-4.128 1.536-1.44-.144-2.736-.96-3.456-2.064-1.296-1.92-1.584-4.32-1.2-6.528.288-1.584 1.056-3.6 2.064-4.848.336-.24.624-.576 1.104-.528a.522.522 0 0 1 .288.768c-.912 1.536-1.776 3.456-2.016 5.424-.192 1.872.048 3.744 1.2 5.232.72.912 1.968 1.248 3.168 1.008 2.4-.768 3.6-3.024 4.032-5.04.384-1.632.336-3.408-.048-5.04a7.055 7.055 0 0 0-1.92-3.504c-.432-.432-1.296-.624-1.92-.48-.72.144-1.296.672-1.68 1.248-.24.192-.576-.096-.576-.288.048-.72.768-1.728 1.536-2.064.96-.48 2.448-.48 3.36.24 1.536 1.2 2.112 2.4 2.592 4.08.528 1.968.576 4.08.144 6.144-.384 1.776-1.248 3.456-2.544 4.704zm-5.76 5.664c-.288.096-1.104.144-1.488.24-.384.192-.96.144-1.392.144-.24-.096-.384-.048-.576-.096-.144-.048-.288-.096-.432-.288a1.207 1.207 0 0 1-.096-.72c.048-.192.144-.384.288-.528.288-.288.528-.384.768-.432.336-.096.576-.048.816-.096.48 0 1.392.048 1.824.096.288.144.576.096.912.192.336-.144 3.12-.096 3.552 0 1.056-.096 2.304 0 3.168.24.288.096 1.008.096 1.248.384-.096.672-1.632 1.008-2.304.816-.384.096-1.248-.144-1.824 0-.48-.096-1.536.096-1.968.048-.768-.048-1.968-.096-2.496 0zM102.748 20.711c-.096 1.008-.096 2.016-.048 3.072l.144 3.312c.096 2.496-.096 5.088-1.152 7.152-.048.144-.192.192-.336.24-.096 0-.336 0-.336-.24.432-2.304.384-4.608.24-6.96-.096-2.112-.24-4.224-.096-6.384-1.728 0-3.408-.24-4.944-.864s-3.024-1.68-4.224-2.976c-1.488-1.632-2.64-3.888-3.36-5.952a19.779 19.779 0 0 1-.912-7.92c.096-.288.48-.576.672-.72.288-.048.672.192.768.48-.048 2.64.288 5.328 1.056 7.68.528 1.584 1.2 3.024 2.16 4.272 1.2 1.584 2.784 2.88 4.8 3.792 1.2.576 2.592.72 3.984.72.336-3.552.384-7.392 1.152-10.944.336-1.44 1.152-3.168 2.784-3.696.864-.24 1.872-.192 2.592.288.384.192-.048.624-.24.624-.576-.144-1.104-.048-1.584.144-.576.288-1.152.816-1.536 1.392-.48 1.2-.72 2.496-.912 3.792-.192 1.344-.24 2.688-.336 4.032a127.61 127.61 0 0 0-.288 4.272c3.264-.24 6.192-1.536 9.024-3.024.384-.336.576.336.432.576-2.784 2.112-5.952 3.456-9.504 3.84zM145.09 19.607c-4.512-.192-9.024.528-13.536.192-.864-.048-1.92-.288-2.544-1.008-.336-.384.048-1.248.624-1.152 2.064.24 4.128.336 6.192.288 2.688-.048 5.52-.24 7.968-.144.48 0 1.584.192 1.92.768.336.48-.096 1.104-.624 1.056zM172.796 32.951c-1.44.96-3.216 1.728-4.992 1.728-1.008 0-1.728-.432-2.4-1.392-.24.192-.672.336-.864.048-.864-1.2-1.104-2.88-1.152-4.512-.096-4.176-.048-7.248 1.056-10.992.096-.384 1.008-1.104 1.68-.912.288-.768 1.056-1.584 1.968-1.68 2.448 0 5.088 1.296 5.904 3.744.24.768.24 1.584-.048 2.352a4.33 4.33 0 0 1-1.392 1.824l-.288.24c1.2.384 2.544 1.152 3.312 2.352.576.912.624 2.016.384 3.072-.432 1.728-1.68 3.12-3.168 4.128zm1.344-6.384c-.384-.72-1.44-1.152-2.208-1.536-.912-.576-1.728-.336-2.64-.144l-1.44.336a3.135 3.135 0 0 1-1.632 0c-.24-.144-.528-.624-.288-.864.576-.576 1.296-.864 2.112-1.056l2.208-.24c.864-.48 1.776-1.44 2.16-2.352.24-.768.096-1.296-.384-1.92-.864-1.2-2.256-1.728-3.648-1.872-.432-.048-.576.048-.672.336-.144.384-.24.816-.48 1.152-.096.24-.432.336-.672.192a.928.928 0 0 1-.432-.24c-.576 2.064-.912 4.416-1.008 6.864-.096 2.304 0 4.56.336 6.672.384-.432.864-1.056 1.104-1.392.336-.336.96.192.864.528-.096.24-.288.528-.432.768-.096.288-.24.528-.24.72.288.432.96.576 1.776.48 1.2-.192 2.64-.864 3.696-1.68.96-.768 1.776-1.728 2.016-2.928.144-.576.24-1.248-.096-1.824zM187.416 34.055c-2.64.72-5.712.672-7.776-1.104-.96-.816-1.68-2.016-1.728-3.312-.048-1.152.432-2.208 1.104-3.168 1.488-2.112 4.08-3.552 6.576-3.84 1.056-.096 2.016.048 2.784.816.24.24 0 .72-.24.816h-.432c-.144 0-.336-.048-.48-.048-.336-.048-.624-.096-.816.048-2.304.096-4.56 1.2-5.952 3.072-.624.816-.96 1.44-.864 2.448.096 1.344 1.104 2.352 2.496 2.832 1.968.72 4.416.288 6.288-.384 1.008-.384 1.92-.768 2.784-1.392.192-.144.384 0 .48.24.048.192.048.384.048.528-.672 1.296-3.36 2.208-4.272 2.448zm2.688-3.264c-.24.288-.672.24-.864.096-.48-.336-.48-.96-.48-1.44.048-.816.192-1.632.384-2.496l.624-2.64c.384-1.728.624-3.456.096-4.896-.432-1.248-1.488-2.496-2.784-2.64-1.104-.144-2.208.24-3.12.912-.48.336-1.536 1.248-1.824 1.776-.048.192.048.528.24.72.192.192.048.768-.384.672-.336-.096-.72-.192-1.008-.432-.384-.336-.528-.96-.24-1.44.816-1.392 1.968-2.544 3.456-3.216.96-.48 2.112-.672 3.312-.48 1.44.24 2.688 1.296 3.408 2.64 1.104 2.064.96 4.656.432 6.96-.48 1.968-.96 3.792-1.248 5.904zM217.464 34.247c-.336-.048-.528-.24-.672-.48l-.144-.24c-1.776-3.84-2.544-8.16-2.592-12.72-.624 1.536-1.248 3.024-1.968 4.512-.816 1.68-1.728 3.312-3.024 4.848-.576.72-1.68.816-2.544.624-.72-.336-1.2-1.152-1.536-1.824-1.824-3.504-2.688-7.44-3.6-11.28 0-.048-.048-.096-.096-.048-2.976 4.368-4.704 9.264-5.904 14.448-.192.48.24.912.288 1.392.096.288-.096.576-.48.72-.528.048-.96-.384-1.2-.768-.336-.816-.288-1.728-.048-2.544 1.584-5.184 3.216-10.32 6.576-14.832.432-.288.864-.288 1.248-.192.48 0 .912.48.96.816 1.056 4.128 1.92 8.352 3.984 12.096.288.384.672.624 1.104.48 1.104-1.056 1.824-2.352 2.544-3.648 1.44-2.64 2.448-5.424 3.552-8.304l.24-.336c.144-.144.24-.24.48-.24.48-.144.816.192 1.008.528-.096 2.976-.048 5.76.288 8.496.336 2.736.96 5.424 1.968 8.016.048.336-.288.48-.432.48zM248.153 23.4c-.336 3.407-.144 7.391.096 10.751.048.336-.432.384-.672.24-.672-.528-1.008-1.92-1.056-2.784a71.777 71.777 0 0 1 0-7.872c-3.552.144-7.392.048-10.896.432-.144 3.216-.048 6.288.096 9.36.048.096-.144.24-.384.288-.144 0-.384-.048-.528-.192-.624-.624-.768-1.776-.816-2.544-.24-4.848.096-9.696.576-14.448.096-.288.528-.576.912-.336.528.24.528.864.624 1.344-.096 1.248-.24 3.36-.384 4.848 3.504-.24 7.392-.096 10.896-.144.192-2.352.288-4.704.864-6.912.24-.288.72-.096 1.008.192.24.288.384.864.384 1.2-.24 1.824-.576 3.6-.624 5.472.144 0 .288-.048.432-.048.096 0 .24.096.24.336 0 .096 0 .288-.096.384-.144.192-.432.336-.672.432zM262.74 30.263c-2.256 4.896-4.032 9.936-5.76 15.024-.144.288-.816.384-.96 0-.24-.432-.096-1.584 0-2.016.768-3.264 2.16-6.288 3.312-9.408-1.392-2.064-3.168-4.896-4.512-7.344-1.68-3.12-3.072-6.384-3.6-9.984-.096-.48.192-.96.576-1.152.288-.096.48.048.624.192.144.144.24.336.336.528.48 2.88 1.44 5.568 2.64 8.112 1.344 2.736 2.928 5.328 4.704 7.92 1.104-2.4 2.256-4.8 3.504-7.152 1.248-2.4 2.64-4.704 4.32-6.96.336-.432.816-.912 1.248-.672.288.144.528.576.288.912-2.544 3.888-4.8 7.872-6.72 12zM282.283 24.311c0 .144 0 .384-.048.576 1.728 1.104 3.312 2.496 4.848 4.032 1.536 1.488 3.072 3.12 4.608 4.608.24.192-.144.528-.288.528-.768-.288-1.344-.72-2.016-1.2-.528-.432-1.104-.96-1.728-1.392a81.1 81.1 0 0 0-5.376-4.656c-.096 2.496.192 4.848.48 7.296-.096.384-.528.432-.816.288-.336-.528-.48-1.104-.624-1.68-.096-.576-.192-1.2-.288-1.776-.288-1.776-.288-3.408-.288-5.328l-.192-.144c-2.352 1.632-4.896 3.648-7.152 5.424-.096 0-.24.048-.384.096-.144 0-.336 0-.432-.144-.192-.144-.144-.336-.096-.48.048-.144.144-.288.24-.432a73.111 73.111 0 0 1 6.528-5.28c-2.304-1.632-4.752-3.072-7.2-4.416-.48-.336-1.104-.864-.96-1.632.192-.384.768-.288 1.008-.144 2.976 1.584 5.856 3.216 8.544 5.232l.144-.096c.048-2.544.192-5.472 1.008-8.016.384-.576 1.056-.048 1.152.384.096 2.208-.48 4.272-.528 6.48 3.12-1.92 6.336-3.984 9.648-5.808.336-.096.576-.096.912.048.24.144.48.624.24 1.008-3.6 2.208-7.344 4.272-10.944 6.624zM302.587 34.247c-2.4-.096-4.608-1.2-6-3.264-1.152-1.728-1.44-3.744-1.2-5.712.288-2.208 1.2-4.32 2.448-5.952 1.392-1.824 3.36-3.264 5.616-3.696 1.536-.288 3.168-.144 4.32 1.104.528.576 1.008 1.2 1.008 1.968.048.816-.336 1.536-1.008 2.064-3.36 2.784-6.912 5.376-10.56 7.488.096 1.488 1.392 3.024 2.784 3.792 1.392.768 3.024.864 4.56.672 1.536-.144 3.12-.672 4.224-1.2.192-.144.336 0 .384.144.048.096.144.288-.048.432-1.68 1.536-4.08 2.256-6.528 2.16zm2.112-17.136c-1.392 0-2.784.576-3.888 1.44-2.352 1.92-3.744 4.992-3.744 7.968 3.408-1.872 6.624-4.32 9.744-6.864.24-.192.432-.912.096-1.488-.384-.768-1.248-1.056-2.208-1.056zM325.919 23.4c-.336 3.407-.144 7.391.096 10.751.048.336-.432.384-.672.24-.672-.528-1.008-1.92-1.056-2.784a71.777 71.777 0 0 1 0-7.872c-3.552.144-7.392.048-10.896.432-.144 3.216-.048 6.288.096 9.36.048.096-.144.24-.384.288-.144 0-.384-.048-.528-.192-.624-.624-.768-1.776-.816-2.544-.24-4.848.096-9.696.576-14.448.096-.288.528-.576.912-.336.528.24.528.864.624 1.344-.096 1.248-.24 3.36-.384 4.848 3.504-.24 7.392-.096 10.896-.144.192-2.352.288-4.704.864-6.912.24-.288.72-.096 1.008.192.24.288.384.864.384 1.2-.24 1.824-.576 3.6-.624 5.472.144 0 .288-.048.432-.048.096 0 .24.096.24.336 0 .096 0 .288-.096.384-.144.192-.432.336-.672.432zM357.321 17.687c-1.248-.288-2.496-.576-3.792-.624-1.056 1.344-1.584 2.928-1.872 4.608-.336 1.728-.288 3.552-.384 5.328-.096 2.4.096 4.704.384 6.96-.144.288-.576.48-.912.288-.816-1.008-1.008-2.304-1.056-3.6-.048-2.88-.096-5.904.336-8.736.288-1.824.816-3.504 1.92-5.04-2.976-.144-5.712.48-8.448 1.248a1.514 1.514 0 0 1-1.056-.672c-.096-.336.096-.528.288-.624l.288-.096.24-.096c2.016-.816 4.464-1.248 6.816-1.296 2.4-.096 4.8.144 6.912.912.24.096.672.432.816.72.048.336-.192.768-.48.72zM361.958 17.687h-.24a.397.397 0 0 1-.384-.336c-.048-.384.096-.72.384-1.008.768-.672 1.632-.96 2.592-.912.672.048 1.344.144 2.016.384l1.824.624c2.592.864 4.848 3.168 6.096 5.664.672 1.392.912 2.832.576 4.416-.336 1.44-1.2 2.784-2.352 3.888-2.88 2.736-6.48 3.552-10.464 3.552-.048 3.264-.24 6.912.192 10.128 0 .144.096.336.192.48.048.24.144.432-.048.72-.384.288-.768.192-1.104 0-.48-.528-.672-1.104-.72-1.776-.336-3.408-.192-6.72 0-10.176-.432-.384-1.104-.912-1.248-1.488 0-.192.048-.384.144-.48.144-.24.336-.288.432-.192.144.144.432.336.672.48.288-4.8.624-9.36 1.44-13.968zm9.504 3.12c-1.056-1.296-2.544-2.208-3.984-2.832-.816-.384-3.12-1.248-3.984-.864.048.672-.048 1.872-.144 2.4-.672 4.08-1.104 8.448-1.152 12.768 3.312.24 6.48-.768 9.024-2.976 1.392-1.2 2.208-2.88 2.064-4.608-.096-1.44-1.008-2.88-1.824-3.888zM386.119 34.055c-2.64.72-5.712.672-7.776-1.104-.96-.816-1.68-2.016-1.728-3.312-.048-1.152.432-2.208 1.104-3.168 1.488-2.112 4.08-3.552 6.576-3.84 1.056-.096 2.016.048 2.784.816.24.24 0 .72-.24.816h-.432c-.144 0-.336-.048-.48-.048-.336-.048-.624-.096-.816.048-2.304.096-4.56 1.2-5.952 3.072-.624.816-.96 1.44-.864 2.448.096 1.344 1.104 2.352 2.496 2.832 1.968.72 4.416.288 6.288-.384 1.008-.384 1.92-.768 2.784-1.392.192-.144.384 0 .48.24.048.192.048.384.048.528-.672 1.296-3.36 2.208-4.272 2.448zm2.688-3.264c-.24.288-.672.24-.864.096-.48-.336-.48-.96-.48-1.44.048-.816.192-1.632.384-2.496l.624-2.64c.384-1.728.624-3.456.096-4.896-.432-1.248-1.488-2.496-2.784-2.64-1.104-.144-2.208.24-3.12.912-.48.336-1.536 1.248-1.824 1.776-.048.192.048.528.24.72.192.192.048.768-.384.672-.336-.096-.72-.192-1.008-.432-.384-.336-.528-.96-.24-1.44.816-1.392 1.968-2.544 3.456-3.216.96-.48 2.112-.672 3.312-.48 1.44.24 2.688 1.296 3.408 2.64 1.104 2.064.96 4.656.432 6.96-.48 1.968-.96 3.792-1.248 5.904zM407.575 23.4c-.336 3.407-.144 7.391.096 10.751.048.336-.432.384-.672.24-.672-.528-1.008-1.92-1.056-2.784a71.777 71.777 0 0 1 0-7.872c-3.552.144-7.392.048-10.896.432-.144 3.216-.048 6.288.096 9.36.048.096-.144.24-.384.288-.144 0-.384-.048-.528-.192-.624-.624-.768-1.776-.816-2.544-.24-4.848.096-9.696.576-14.448.096-.288.528-.576.912-.336.528.24.528.864.624 1.344-.096 1.248-.24 3.36-.384 4.848 3.504-.24 7.392-.096 10.896-.144.192-2.352.288-4.704.864-6.912.24-.288.72-.096 1.008.192.24.288.384.864.384 1.2-.24 1.824-.576 3.6-.624 5.472.144 0 .288-.048.432-.048.096 0 .24.096.24.336 0 .096 0 .288-.096.384-.144.192-.432.336-.672.432zM419.666 34.055c-1.824.24-3.744.096-5.568-1.008-2.4-1.44-3.456-3.936-3.312-6.72a12.26 12.26 0 0 1 2.016-6 12.074 12.074 0 0 1 4.896-4.272c1.056-.528 2.496-.768 3.648-.288.96.384 1.968 1.392 2.16 2.352.096.288-.384.912-.768.624-.528-.48-1.2-1.104-1.872-1.392-.672-.288-1.296-.336-2.016-.048-1.872.768-3.6 2.256-4.752 4.032-1.056 1.632-1.68 3.552-1.728 5.52 0 1.776.672 3.456 2.16 4.56 1.392 1.008 3.216 1.248 4.896 1.104 2.832-.24 5.328-1.44 7.824-2.544.288 0 .72.48.48.816-2.4 1.344-5.136 2.832-8.064 3.264zM447.596 29.687c-1.872 2.544-4.752 3.984-7.68 4.464.048 3.6.288 7.344.672 10.992 0 .576-1.296.528-1.392 0-.528-3.456-.864-7.2-1.056-10.8-2.16-.192-4.512-1.056-6.24-2.496-1.44-1.248-2.4-2.688-2.688-4.56-.24-1.68.192-3.36 1.056-4.752 1.68-2.832 4.944-4.656 7.968-5.472.288-3.504.576-7.008 1.008-10.512.24-.624 1.392-.288 1.488.336-.144 2.928-.432 5.952-.672 8.832 2.832-.048 5.376 1.392 7.104 3.552 1.2 1.44 1.872 2.976 2.016 4.944.096 1.872-.432 3.888-1.584 5.472zm-3.984-11.424c-1.152-.624-2.352-1.152-3.6-1.008-.336 4.992-.336 10.272-.192 15.312 2.544-.528 4.944-1.824 6.528-4.032 1.008-1.44 1.344-3.6.912-5.424-.432-1.968-1.968-3.936-3.648-4.848zM431.42 23.64c-.72 1.248-.96 2.64-.384 4.128a6.398 6.398 0 0 0 2.256 3.024c1.392 1.056 3.12 1.68 4.752 1.872-.096-4.656 0-9.216.096-13.824-2.496.768-5.424 2.544-6.72 4.8zM458.634 34.247c-2.4-.096-4.608-1.2-6-3.264-1.152-1.728-1.44-3.744-1.2-5.712.288-2.208 1.2-4.32 2.448-5.952 1.392-1.824 3.36-3.264 5.616-3.696 1.536-.288 3.168-.144 4.32 1.104.528.576 1.008 1.2 1.008 1.968.048.816-.336 1.536-1.008 2.064-3.36 2.784-6.912 5.376-10.56 7.488.096 1.488 1.392 3.024 2.784 3.792 1.392.768 3.024.864 4.56.672 1.536-.144 3.12-.672 4.224-1.2.192-.144.336 0 .384.144.048.096.144.288-.048.432-1.68 1.536-4.08 2.256-6.528 2.16zm2.112-17.136c-1.392 0-2.784.576-3.888 1.44-2.352 1.92-3.744 4.992-3.744 7.968 3.408-1.872 6.624-4.32 9.744-6.864.24-.192.432-.912.096-1.488-.384-.768-1.248-1.056-2.208-1.056zM469.63 17.687h-.24a.397.397 0 0 1-.384-.336c-.048-.384.096-.72.384-1.008.768-.672 1.632-.96 2.592-.912.672.048 1.344.144 2.016.384l1.824.624c2.592.864 4.848 3.168 6.096 5.664.672 1.392.912 2.832.576 4.416-.336 1.44-1.2 2.784-2.352 3.888-2.88 2.736-6.48 3.552-10.464 3.552-.048 3.264-.24 6.912.192 10.128 0 .144.096.336.192.48.048.24.144.432-.048.72-.384.288-.768.192-1.104 0-.48-.528-.672-1.104-.72-1.776-.336-3.408-.192-6.72 0-10.176-.432-.384-1.104-.912-1.248-1.488 0-.192.048-.384.144-.48.144-.24.336-.288.432-.192.144.144.432.336.672.48.288-4.8.624-9.36 1.44-13.968zm9.504 3.12c-1.056-1.296-2.544-2.208-3.984-2.832-.816-.384-3.12-1.248-3.984-.864.048.672-.048 1.872-.144 2.4-.672 4.08-1.104 8.448-1.152 12.768 3.312.24 6.48-.768 9.024-2.976 1.392-1.2 2.208-2.88 2.064-4.608-.096-1.44-1.008-2.88-1.824-3.888zM508.83 33.095c-2.16 1.104-4.752 1.584-7.104.432-1.824-.912-3.12-2.448-3.744-4.368-.72-2.256-.48-4.8.48-6.912a10.77 10.77 0 0 1 3.12-3.888c.864-.624 2.16-1.392 3.36-1.536.96-1.104 2.544-1.44 3.888-1.104 2.304.624 4.272 2.976 4.896 5.04.624 2.016.768 4.224.192 6.288-.72 2.784-2.544 4.8-5.088 6.048zm3.312-11.808c-.576-1.584-1.872-3.36-3.552-3.936-.768-.288-1.584-.384-2.208.096-.624.48-1.008 1.248-1.296 1.92-.048.144-.048.336-.048.528s0 .432-.048.624c-.048.096-.528.384-.672.096a8.025 8.025 0 0 1-.144-1.968c-1.824.768-3.36 2.352-4.224 4.128-.912 1.872-.96 4.032-.384 5.952.48 1.488 1.392 2.736 2.928 3.36 1.92.72 3.984.48 5.712-.384 1.968-1.008 3.36-2.544 4.032-4.608.624-1.824.528-3.984-.096-5.808zM530.899 17.687c-1.248-.288-2.496-.576-3.792-.624-1.056 1.344-1.584 2.928-1.872 4.608-.336 1.728-.288 3.552-.384 5.328-.096 2.4.096 4.704.384 6.96-.144.288-.576.48-.912.288-.816-1.008-1.008-2.304-1.056-3.6-.048-2.88-.096-5.904.336-8.736.288-1.824.816-3.504 1.92-5.04-2.976-.144-5.712.48-8.448 1.248a1.514 1.514 0 0 1-1.056-.672c-.096-.336.096-.528.288-.624l.288-.096.24-.096c2.016-.816 4.464-1.248 6.816-1.296 2.4-.096 4.8.144 6.912.912.24.096.672.432.816.72.048.336-.192.768-.48.72zM558.928 40.487c-.624.432-2.448 1.488-3.36 1.392-.24-.096-.384-.528-.144-.624 2.064-1.2 4.368-2.976 6.096-5.28.096-.144.096-.48 0-.576-.96-.72-1.824-1.584-2.448-2.688-.384-.72-.672-1.536-.672-2.448-1.152 1.152-2.544 2.016-3.984 2.688-1.44.624-2.928 1.056-4.512 1.392-.768.048-1.536-.192-2.112-.816-.672-.72-.672-1.68-.768-2.592-.48-4.704.24-9.216 1.584-13.44.096-.528 1.056-.672 1.344-.048.288.528 0 1.296-.144 1.824a33.678 33.678 0 0 0-1.056 12.672c.048.432.48.768.96.816 1.152.048 3.312-.816 4.368-1.248 1.68-.72 3.36-1.536 4.224-3.264-.096-4.176.576-8.448 1.776-12.336.432-.768 1.152-.144 1.392.336-.048.72-.192 1.344-.336 2.016-.144.624-.288 1.248-.432 1.92-.624 3.504-1.008 7.344-.672 10.896.288 1.392 1.584 2.448 2.736 3.312.384.432.528 1.056.384 1.632-.912 1.824-2.496 3.36-4.224 4.464zM572.212 34.247c-2.4-.096-4.608-1.2-6-3.264-1.152-1.728-1.44-3.744-1.2-5.712.288-2.208 1.2-4.32 2.448-5.952 1.392-1.824 3.36-3.264 5.616-3.696 1.536-.288 3.168-.144 4.32 1.104.528.576 1.008 1.2 1.008 1.968.048.816-.336 1.536-1.008 2.064-3.36 2.784-6.912 5.376-10.56 7.488.096 1.488 1.392 3.024 2.784 3.792 1.392.768 3.024.864 4.56.672 1.536-.144 3.12-.672 4.224-1.2.192-.144.336 0 .384.144.048.096.144.288-.048.432-1.68 1.536-4.08 2.256-6.528 2.16zm2.112-17.136c-1.392 0-2.784.576-3.888 1.44-2.352 1.92-3.744 4.992-3.744 7.968 3.408-1.872 6.624-4.32 9.744-6.864.24-.192.432-.912.096-1.488-.384-.768-1.248-1.056-2.208-1.056zM595.544 23.4c-.336 3.407-.144 7.391.096 10.751.048.336-.432.384-.672.24-.672-.528-1.008-1.92-1.056-2.784a71.777 71.777 0 0 1 0-7.872c-3.552.144-7.392.048-10.896.432-.144 3.216-.048 6.288.096 9.36.048.096-.144.24-.384.288-.144 0-.384-.048-.528-.192-.624-.624-.768-1.776-.816-2.544-.24-4.848.096-9.696.576-14.448.096-.288.528-.576.912-.336.528.24.528.864.624 1.344-.096 1.248-.24 3.36-.384 4.848 3.504-.24 7.392-.096 10.896-.144.192-2.352.288-4.704.864-6.912.24-.288.72-.096 1.008.192.24.288.384.864.384 1.2-.24 1.824-.576 3.6-.624 5.472.144 0 .288-.048.432-.048.096 0 .24.096.24.336 0 .096 0 .288-.096.384-.144.192-.432.336-.672.432zM613.586 17.687c-1.248-.288-2.496-.576-3.792-.624-1.056 1.344-1.584 2.928-1.872 4.608-.336 1.728-.288 3.552-.384 5.328-.096 2.4.096 4.704.384 6.96-.144.288-.576.48-.912.288-.816-1.008-1.008-2.304-1.056-3.6-.048-2.88-.096-5.904.336-8.736.288-1.824.816-3.504 1.92-5.04-2.976-.144-5.712.48-8.448 1.248a1.514 1.514 0 0 1-1.056-.672c-.096-.336.096-.528.288-.624l.288-.096.24-.096c2.016-.816 4.464-1.248 6.816-1.296 2.4-.096 4.8.144 6.912.912.24.096.672.432.816.72.048.336-.192.768-.48.72zM618.224 17.687h-.24a.397.397 0 0 1-.384-.336c-.048-.384.096-.72.384-1.008.768-.672 1.632-.96 2.592-.912.672.048 1.344.144 2.016.384l1.824.624c2.592.864 4.848 3.168 6.096 5.664.672 1.392.912 2.832.576 4.416-.336 1.44-1.2 2.784-2.352 3.888-2.88 2.736-6.48 3.552-10.464 3.552-.048 3.264-.24 6.912.192 10.128 0 .144.096.336.192.48.048.24.144.432-.048.72-.384.288-.768.192-1.104 0-.48-.528-.672-1.104-.72-1.776-.336-3.408-.192-6.72 0-10.176-.432-.384-1.104-.912-1.248-1.488 0-.192.048-.384.144-.48.144-.24.336-.288.432-.192.144.144.432.336.672.48.288-4.8.624-9.36 1.44-13.968zm9.504 3.12c-1.056-1.296-2.544-2.208-3.984-2.832-.816-.384-3.12-1.248-3.984-.864.048.672-.048 1.872-.144 2.4-.672 4.08-1.104 8.448-1.152 12.768 3.312.24 6.48-.768 9.024-2.976 1.392-1.2 2.208-2.88 2.064-4.608-.096-1.44-1.008-2.88-1.824-3.888zM642.385 34.055c-2.64.72-5.712.672-7.776-1.104-.96-.816-1.68-2.016-1.728-3.312-.048-1.152.432-2.208 1.104-3.168 1.488-2.112 4.08-3.552 6.576-3.84 1.056-.096 2.016.048 2.784.816.24.24 0 .72-.24.816h-.432c-.144 0-.336-.048-.48-.048-.336-.048-.624-.096-.816.048-2.304.096-4.56 1.2-5.952 3.072-.624.816-.96 1.44-.864 2.448.096 1.344 1.104 2.352 2.496 2.832 1.968.72 4.416.288 6.288-.384 1.008-.384 1.92-.768 2.784-1.392.192-.144.384 0 .48.24.048.192.048.384.048.528-.672 1.296-3.36 2.208-4.272 2.448zm2.688-3.264c-.24.288-.672.24-.864.096-.48-.336-.48-.96-.48-1.44.048-.816.192-1.632.384-2.496l.624-2.64c.384-1.728.624-3.456.096-4.896-.432-1.248-1.488-2.496-2.784-2.64-1.104-.144-2.208.24-3.12.912-.48.336-1.536 1.248-1.824 1.776-.048.192.048.528.24.72.192.192.048.768-.384.672-.336-.096-.72-.192-1.008-.432-.384-.336-.528-.96-.24-1.44.816-1.392 1.968-2.544 3.456-3.216.96-.48 2.112-.672 3.312-.48 1.44.24 2.688 1.296 3.408 2.64 1.104 2.064.96 4.656.432 6.96-.48 1.968-.96 3.792-1.248 5.904zM679.36 41.447c-.144.384-.624.384-.864.24-.528-.48-.528-1.152-.576-1.824-.144-2.016-.336-4.224-.096-6.288a49.675 49.675 0 0 0-13.632.624c-.192 2.448-.096 5.04.288 7.392-.048.24-.384.624-.768.384-.432-.192-.624-.576-.72-.912l-.24-1.056c-.096-1.056-.192-2.112-.24-3.12-.048-1.056-.048-2.112.048-3.024.048-.384.384-.768.72-1.008l1.344-.288c2.784-4.656 5.088-9.456 7.104-14.448.048-.24.144-.912-.048-1.152-.144-.624.24-.96.624-1.248 1.536-.24 3.264-.192 4.608.576.528.24.768.768.864 1.296 0 2.496.048 7.68.096 10.224.192 1.392 0 2.832-.096 4.224.096.048.24.048.432.048.288.048.48 0 .624 0 .432.048.816.336.816.72-.384 2.88-.432 5.808-.288 8.64zm-2.976-10.8c-.048-.48-.096-.912-.096-1.44 0-2.832-.048-8.4-.096-11.232-.192-.384-.528-.576-.912-.672-.672-.192-1.488-.144-2.208-.096.192.672.048 1.392-.096 2.016-1.92 4.464-3.936 8.928-6.528 13.104 3.168-.384 6.48-.528 9.888-.384.048-.432.048-.864.048-1.296zM692.861 33.095c-2.16 1.104-4.752 1.584-7.104.432-1.824-.912-3.12-2.448-3.744-4.368-.72-2.256-.48-4.8.48-6.912a10.77 10.77 0 0 1 3.12-3.888c.864-.624 2.16-1.392 3.36-1.536.96-1.104 2.544-1.44 3.888-1.104 2.304.624 4.272 2.976 4.896 5.04.624 2.016.768 4.224.192 6.288-.72 2.784-2.544 4.8-5.088 6.048zm3.312-11.808c-.576-1.584-1.872-3.36-3.552-3.936-.768-.288-1.584-.384-2.208.096-.624.48-1.008 1.248-1.296 1.92-.048.144-.048.336-.048.528s0 .432-.048.624c-.048.096-.528.384-.672.096a8.025 8.025 0 0 1-.144-1.968c-1.824.768-3.36 2.352-4.224 4.128-.912 1.872-.96 4.032-.384 5.952.48 1.488 1.392 2.736 2.928 3.36 1.92.72 3.984.48 5.712-.384 1.968-1.008 3.36-2.544 4.032-4.608.624-1.824.528-3.984-.096-5.808zM733.906 19.607c-.288 4.128-.048 8.448.384 12.288.096.384-.528.432-.72.288a2.013 2.013 0 0 1-.432-.672l-.192-.768c-1.056-4.176-.864-8.64-.576-13.008.288-4.08.96-8.16 1.68-11.904a47.671 47.671 0 0 0-7.536-1.584c-2.064-.288-4.176-.432-6.288-.24-.192 0-.48.096-.72.144-.288.096-.528.144-.672.24-.336.096-.816-.24-.672-.672.24-.624.864-1.104 1.44-1.248 1.056-.144 2.16-.144 3.264-.048 1.104.048 2.304.192 3.312.288 3.024.336 6 .768 8.688 1.584.48.144.768.528.96 1.008-.816 4.704-1.536 9.36-1.92 14.304zM717.01 6.071c-.192.144-.624.768-.72 1.104-.432 3.408-.528 7.008-.432 10.608.144 4.8.672 9.6 1.056 14.16l-.096 1.104c-.048.384-.144.768-.48 1.008-.192.192-.768.096-.864-.288-.336-5.616-1.248-11.184-1.296-16.992-.048-3.216.048-6.576.48-9.792.288-.624.336-1.392.768-1.968.24-.24.72-.48 1.104-.24.192.096.528.336.672.528.24.24.048.672-.192.768zM745.462 34.247c-2.4-.096-4.608-1.2-6-3.264-1.152-1.728-1.44-3.744-1.2-5.712.288-2.208 1.2-4.32 2.448-5.952 1.392-1.824 3.36-3.264 5.616-3.696 1.536-.288 3.168-.144 4.32 1.104.528.576 1.008 1.2 1.008 1.968.048.816-.336 1.536-1.008 2.064-3.36 2.784-6.912 5.376-10.56 7.488.096 1.488 1.392 3.024 2.784 3.792 1.392.768 3.024.864 4.56.672 1.536-.144 3.12-.672 4.224-1.2.192-.144.336 0 .384.144.048.096.144.288-.048.432-1.68 1.536-4.08 2.256-6.528 2.16zm2.112-17.136c-1.392 0-2.784.576-3.888 1.44-2.352 1.92-3.744 4.992-3.744 7.968 3.408-1.872 6.624-4.32 9.744-6.864.24-.192.432-.912.096-1.488-.384-.768-1.248-1.056-2.208-1.056zM775.418 33.96c-.624-.673-1.056-1.489-1.152-2.449-1.968 1.008-3.888 1.776-6.144 1.824-.864 0-1.776-.096-2.4-.768-.576-.624-.672-1.392-.816-2.16-1.872 1.488-3.84 2.88-6.096 3.36-1.248.288-2.208.336-3.024-.864-.672-.96-.96-3.408-1.056-4.608-.288-4.224.24-8.4 1.248-12.144.096-.336.384-.768.624-.768.336 0 .72.192.864.576 0 .72-.096 1.392-.24 2.016a14.448 14.448 0 0 0-.432 1.968c-.24 1.776-.528 3.6-.528 5.424 0 2.208.192 4.368.768 6.432.24.624 1.008.624 1.632.432 2.208-.576 4.176-1.92 5.952-3.552-.24-3.6-.192-7.776.768-10.944.096-.192.432-.288.768-.192.192.096.528.288.528.576-.288 2.4-.624 4.992-.576 7.488 0 1.92.24 3.84.72 5.568.096.432.672.624 1.248.624 1.92-.096 4.416-.768 6.048-1.776-.528-4.752-.144-9.744.768-14.208.336-.336.864-.336 1.104 0 .336.336.24.864.192 1.296v.384c-.816 5.616-.864 10.8.048 16.416-.144.336-.528.24-.816.048zM795.22 34.151c-2.304-1.296-4.656-2.208-7.104-3.072-2.4-.864-4.704-1.728-7.008-2.736a17.822 17.822 0 0 0 .624 5.088c.144.288.048.816-.384.816-.384 0-.624-.24-.768-.48-.144-.192-.24-.48-.384-.72-.528-1.728-.72-3.6-.72-5.52-.144-.096-.336-.24-.432-.48-.144-.144-.192-.432-.048-.672.192-.144.384-.432.432-.624.096-.624.048-2.064.192-2.688.192-1.104.48-2.448.768-3.792.336-1.344.816-2.688 1.44-3.84.288-.48 1.008-.384 1.152.144-.048.624-.24 1.2-.432 1.776-.144.528-.432 1.104-.576 1.68a22.015 22.015 0 0 0-.816 5.328 85.94 85.94 0 0 1 5.232-4.32c2.208-1.632 4.56-3.024 7.056-4.032.384 0 .864 0 1.152.24.288.192.288.48.144.816-2.544 1.056-4.848 2.448-7.2 4.08a61.05 61.05 0 0 0-6.48 5.376v.048c2.352 1.296 4.944 2.16 7.44 3.024 2.208.768 4.32 1.632 6.336 2.928.432.24.768.576 1.008 1.008.048.288-.336.672-.624.624zM808.408 33.095c-2.16 1.104-4.752 1.584-7.104.432-1.824-.912-3.12-2.448-3.744-4.368-.72-2.256-.48-4.8.48-6.912a10.77 10.77 0 0 1 3.12-3.888c.864-.624 2.16-1.392 3.36-1.536.96-1.104 2.544-1.44 3.888-1.104 2.304.624 4.272 2.976 4.896 5.04.624 2.016.768 4.224.192 6.288-.72 2.784-2.544 4.8-5.088 6.048zm3.312-11.808c-.576-1.584-1.872-3.36-3.552-3.936-.768-.288-1.584-.384-2.208.096-.624.48-1.008 1.248-1.296 1.92-.048.144-.048.336-.048.528s0 .432-.048.624c-.048.096-.528.384-.672.096a8.025 8.025 0 0 1-.144-1.968c-1.824.768-3.36 2.352-4.224 4.128-.912 1.872-.96 4.032-.384 5.952.48 1.488 1.392 2.736 2.928 3.36 1.92.72 3.984.48 5.712-.384 1.968-1.008 3.36-2.544 4.032-4.608.624-1.824.528-3.984-.096-5.808zM825.437 32.951c-1.44.96-3.216 1.728-4.992 1.728-1.008 0-1.728-.432-2.4-1.392-.24.192-.672.336-.864.048-.864-1.2-1.104-2.88-1.152-4.512-.096-4.176-.048-7.248 1.056-10.992.096-.384 1.008-1.104 1.68-.912.288-.768 1.056-1.584 1.968-1.68 2.448 0 5.088 1.296 5.904 3.744.24.768.24 1.584-.048 2.352a4.33 4.33 0 0 1-1.392 1.824l-.288.24c1.2.384 2.544 1.152 3.312 2.352.576.912.624 2.016.384 3.072-.432 1.728-1.68 3.12-3.168 4.128zm1.344-6.384c-.384-.72-1.44-1.152-2.208-1.536-.912-.576-1.728-.336-2.64-.144l-1.44.336a3.135 3.135 0 0 1-1.632 0c-.24-.144-.528-.624-.288-.864.576-.576 1.296-.864 2.112-1.056l2.208-.24c.864-.48 1.776-1.44 2.16-2.352.24-.768.096-1.296-.384-1.92-.864-1.2-2.256-1.728-3.648-1.872-.432-.048-.576.048-.672.336-.144.384-.24.816-.48 1.152-.096.24-.432.336-.672.192a.928.928 0 0 1-.432-.24c-.576 2.064-.912 4.416-1.008 6.864-.096 2.304 0 4.56.336 6.672.384-.432.864-1.056 1.104-1.392.336-.336.96.192.864.528-.096.24-.288.528-.432.768-.096.288-.24.528-.24.72.288.432.96.576 1.776.48 1.2-.192 2.64-.864 3.696-1.68.96-.768 1.776-1.728 2.016-2.928.144-.576.24-1.248-.096-1.824zM841.736 33.095c-2.16 1.104-4.752 1.584-7.104.432-1.824-.912-3.12-2.448-3.744-4.368-.72-2.256-.48-4.8.48-6.912a10.77 10.77 0 0 1 3.12-3.888c.864-.624 2.16-1.392 3.36-1.536.96-1.104 2.544-1.44 3.888-1.104 2.304.624 4.272 2.976 4.896 5.04.624 2.016.768 4.224.192 6.288-.72 2.784-2.544 4.8-5.088 6.048zm3.312-11.808c-.576-1.584-1.872-3.36-3.552-3.936-.768-.288-1.584-.384-2.208.096-.624.48-1.008 1.248-1.296 1.92-.048.144-.048.336-.048.528s0 .432-.048.624c-.048.096-.528.384-.672.096a8.025 8.025 0 0 1-.144-1.968c-1.824.768-3.36 2.352-4.224 4.128-.912 1.872-.96 4.032-.384 5.952.48 1.488 1.392 2.736 2.928 3.36 1.92.72 3.984.48 5.712-.384 1.968-1.008 3.36-2.544 4.032-4.608.624-1.824.528-3.984-.096-5.808zM863.901 13.847c-2.256 3.696-4.848 7.344-6.912 11.232-.24.192-.672.096-.768-.144-.096-.528-.048-1.008.096-1.392.096-.432.24-.768.384-1.2 1.632-2.976 3.648-5.808 5.424-8.688.528-.912.816-2.112.72-3.312a4.337 4.337 0 0 0-.96-2.448c-1.152-1.44-2.592-2.544-4.176-3.072-1.056-.384-2.16-.48-3.36-.24-.768.144-1.44.48-2.112 1.104-.624.576-1.152 1.296-1.392 2.112-.288.24-.816.24-.96-.192-.144-.624.096-1.152.288-1.728.816-1.392 1.968-2.352 3.312-2.832a7.237 7.237 0 0 1 3.504-.288c1.392.24 2.64.816 3.792 1.632a10.317 10.317 0 0 1 2.928 3.168c.624.96.912 2.256.864 3.504 0 .96-.192 2.016-.672 2.784zm-3.072 20.736c-1.2 0-2.4-.288-3.456-.816-1.104-.576-2.064-1.296-2.784-2.352-.192-.288-.24-.768-.144-1.152.096-.384.384-.624.864-.432l1.152 1.248c.384.384.816.768 1.2 1.056 1.104.816 2.496 1.248 3.888 1.68.144.336-.384.672-.72.768zM881.512 12.167c-.24.288-.48.528-.864.768-.48.048-.864 0-1.2-.192-1.056-.48-2.256-1.248-3.12-1.872-.048 1.536-.192 3.12 0 4.608-.096.768-.96.432-1.056.24-.096-.096-.192-.192-.24-.336a1.045 1.045 0 0 1-.24-.384c-.096-.432-.096-.864-.096-1.248.048-.816.096-1.68.096-2.496-1.104 1.056-2.448 1.968-3.888 2.496-.336.048-.864.048-1.248-.288-.576-.48-.048-1.296.624-1.728l.336.624c.336-.096.672-.336 1.008-.48 1.008-.624 2.016-1.536 2.832-2.448-1.536-1.248-3.072-2.784-4.368-4.176-.336-.288-.192-.72-.048-.96.432-.576 1.104-.192 1.248-.048a58.676 58.676 0 0 0 3.456 3.456c0-1.296.048-2.592-.048-3.792l-.384-1.104c-.048-.288.144-.96.768-.912.432.144.672.48.864.864l.144.336c.144.336.24.96.24 1.296v2.64l.144-.24 1.008-1.344c.336-.48.816-.864 1.392-1.2.768-.432 2.208 0 1.776 1.44-.336-.048-.432-.096-.576-.144-.096 0-.192-.048-.384-.096-.288-.096-1.248 1.2-1.392 1.392-.576.768-1.056 1.584-1.68 2.4 1.152.864 2.4 1.632 3.792 2.304.096-.144.192-.192.288-.24.096-.096.192-.144.528-.288.384.384.432.672.384.864-.048.096-.096.144-.096.288zM900.168 12.167c-.24.288-.48.528-.864.768-.48.048-.864 0-1.2-.192-1.056-.48-2.256-1.248-3.12-1.872-.048 1.536-.192 3.12 0 4.608-.096.768-.96.432-1.056.24-.096-.096-.192-.192-.24-.336a1.045 1.045 0 0 1-.24-.384c-.096-.432-.096-.864-.096-1.248.048-.816.096-1.68.096-2.496-1.104 1.056-2.448 1.968-3.888 2.496-.336.048-.864.048-1.248-.288-.576-.48-.048-1.296.624-1.728l.336.624c.336-.096.672-.336 1.008-.48 1.008-.624 2.016-1.536 2.832-2.448-1.536-1.248-3.072-2.784-4.368-4.176-.336-.288-.192-.72-.048-.96.432-.576 1.104-.192 1.248-.048a58.676 58.676 0 0 0 3.456 3.456c0-1.296.048-2.592-.048-3.792l-.384-1.104c-.048-.288.144-.96.768-.912.432.144.672.48.864.864l.144.336c.144.336.24.96.24 1.296v2.64l.144-.24 1.008-1.344c.336-.48.816-.864 1.392-1.2.768-.432 2.208 0 1.776 1.44-.336-.048-.432-.096-.576-.144-.096 0-.192-.048-.384-.096-.288-.096-1.248 1.2-1.392 1.392-.576.768-1.056 1.584-1.68 2.4 1.152.864 2.4 1.632 3.792 2.304.096-.144.192-.192.288-.24.096-.096.192-.144.528-.288.384.384.432.672.384.864-.048.096-.096.144-.096.288z" fill="#fff"/></svg>