<svg width="250" height="68" fill="none" xmlns="http://www.w3.org/2000/svg"><path d="M10.81 4.993c-.334 1.335-.488 2.772-.642 4.184-.128.976-.18 1.952-.205 2.953-.051 1.463-.051 2.926-.102 4.415-.077.257-.283.411-.514.411-.333 0-.487-.334-.564-.616l-.103-.205A66.825 66.825 0 0 0 6.32 8.33c-.437-1.206-.847-2.387-1.31-3.568a34.664 34.664 0 0 0-1.59-3.466c-.026 0-.052-.051-.052-.026-.692 2.26-1.18 4.544-1.41 6.958-.206 2.182-.232 4.415-.155 6.674.051.309.051.642.103.976.025.308.077.616.18.898.025.18-.103.308-.257.36-.462-.103-.565-.488-.642-.899l-.077-.36c-.205-1.873-.23-3.799-.128-5.724.128-2.285.462-4.57.924-6.675.256-1.104.59-2.259 1.026-3.286.077-.18.385-.257.565-.128.154.128.23.282.333.462.642 1.027 1.155 2.105 1.591 3.183L6.73 6.995c.975 2.465 1.77 5.006 2.438 7.6.025-2.183.051-4.468.282-6.624.18-1.874.565-3.723 1.334-5.34.052-.103.103-.231.18-.334.18-.36.436-.744.924-.719.282.154.18.437.051.617-.565.847-.872 1.797-1.129 2.798zm6.415 8.369c-.59.54-1.309.899-2.207.822a2.538 2.538 0 0 1-1.847-1.104c-.693-1.027-.847-2.31-.642-3.492.154-.847.565-1.925 1.104-2.593.18-.128.333-.308.59-.282a.28.28 0 0 1 .154.41c-.488.822-.95 1.85-1.078 2.902-.103 1 .026 2.002.642 2.798.384.488 1.052.667 1.693.539 1.283-.41 1.925-1.617 2.156-2.696.205-.872.18-1.822-.026-2.695a3.773 3.773 0 0 0-1.026-1.874c-.231-.231-.693-.334-1.027-.257-.385.077-.693.36-.898.668-.128.102-.308-.052-.308-.155.026-.385.41-.924.821-1.103.513-.257 1.309-.257 1.796.128.822.642 1.13 1.284 1.386 2.182a7.1 7.1 0 0 1 .077 3.286c-.205.95-.667 1.849-1.36 2.516zm-3.08 3.03c-.153.05-.59.076-.795.128-.205.102-.513.077-.744.077-.128-.052-.205-.026-.308-.052-.077-.025-.154-.05-.23-.154-.052-.102-.078-.256-.052-.385a.611.611 0 0 1 .154-.282.75.75 0 0 1 .41-.231c.18-.052.309-.026.437-.052.256 0 .744.026.975.052.154.077.308.051.487.102.18-.077 1.668-.05 1.9 0 .564-.05 1.231 0 1.693.129.154.051.539.051.667.205-.051.36-.872.54-1.232.437-.205.051-.667-.077-.975 0-.256-.052-.82.051-1.052.025-.41-.025-1.052-.051-1.334 0zM32.745 1.99c-.231.05-.436.05-.642.05-.18-.025-.385 0-.564.026-1.052.231-2.053.59-2.977 1.13a12.35 12.35 0 0 0-2.848 2.362c-.205.847-.334 1.822-.18 2.72.103.617.334 1.208.821 1.67 1.54 1.489 3.285 2.541 5.107 3.388.154.103.308.308.18.514-1.822 1.745-3.927 3.183-6.133 4.159a4.344 4.344 0 0 1-2.387.256 2.607 2.607 0 0 1-1.257-.667c-.154-.154-.308-.308-.41-.488a.737.737 0 0 1-.052-.667c.18.051.256.128.333.205l.18.231c.308.283.642.462 1.052.59.539.155 1.18.155 1.72-.025.923-.282 1.796-.744 2.642-1.258 1.104-.693 2.13-1.54 3.157-2.413-.95-.565-2.156-1.207-3.234-1.977-.949-.667-1.744-1.463-2.232-2.465a4.24 4.24 0 0 1-.385-2.567c.205-1.283.565-2.798 1.078-3.902.256-.231.924-.128.718.385a6.11 6.11 0 0 0-.308.847c.693-.59 1.437-1.155 2.181-1.591 1.001-.617 2.079-1.104 3.26-1.31.23.026.487 0 .718.026.23.051.436.128.564.385.129.128 0 .308-.102.385zM51.224 10.487c-2.412-.103-4.825.282-7.237.102-.462-.025-1.026-.154-1.36-.539-.18-.205.026-.667.334-.616 1.103.129 2.207.18 3.31.154 1.437-.025 2.951-.128 4.26-.077.256 0 .847.103 1.026.41.18.258-.051.591-.333.566zM64.83 18.317c-1.284-.052-2.464-.642-3.209-1.746-.615-.924-.77-2.002-.641-3.055a6.781 6.781 0 0 1 1.309-3.183c.744-.976 1.796-1.746 3.002-1.977.821-.154 1.694-.077 2.31.59.282.308.538.642.538 1.053.026.436-.18.821-.539 1.104-1.796 1.489-3.695 2.875-5.645 4.005.051.796.744 1.617 1.488 2.028.745.41 1.617.462 2.438.36.821-.078 1.668-.36 2.258-.642.103-.078.18 0 .206.076.025.052.077.154-.026.232-.898.821-2.181 1.206-3.49 1.155zm1.128-9.165c-.744 0-1.488.308-2.078.77-1.258 1.027-2.002 2.67-2.002 4.262 1.822-1.002 3.541-2.311 5.21-3.672.128-.102.23-.487.05-.795-.205-.411-.667-.565-1.18-.565zM74.018 18.214c-.975.129-2.002.052-2.977-.539-1.283-.77-1.848-2.105-1.77-3.594a6.56 6.56 0 0 1 1.077-3.21 6.456 6.456 0 0 1 2.618-2.284c.564-.282 1.334-.41 1.95-.154.513.205 1.052.744 1.154 1.258.052.154-.205.488-.41.334-.282-.257-.642-.59-1-.745-.36-.154-.694-.18-1.079-.026-1 .411-1.924 1.207-2.54 2.157a5.722 5.722 0 0 0-.924 2.952c0 .95.36 1.849 1.155 2.44.744.538 1.72.667 2.617.59 1.514-.129 2.849-.77 4.183-1.361.154 0 .385.257.257.436-1.283.72-2.746 1.515-4.311 1.746zM86.948 9.46c-.668-.154-1.335-.308-2.028-.334-.564.719-.847 1.566-1 2.465-.18.924-.154 1.9-.206 2.85-.051 1.283.052 2.515.206 3.722-.077.154-.308.256-.488.154-.436-.54-.539-1.233-.564-1.926-.026-1.54-.052-3.157.18-4.672.153-.976.435-1.874 1.025-2.696-1.59-.077-3.053.257-4.516.668a.81.81 0 0 1-.564-.36c-.052-.18.051-.282.154-.333l.154-.052.128-.051c1.078-.436 2.386-.667 3.644-.693 1.283-.051 2.566.077 3.695.488.128.051.36.23.436.385.026.18-.102.41-.256.385zM93.558 16.597c-.565.565-1.232 1.052-1.976 1.36a3.235 3.235 0 0 1-2.155.103c-.026.129-.129.283-.257.283-.41-.154-.565-.54-.642-.873-.18-3.107.154-6.162.693-9.063.129-.282.642-.436.796-.025-.154 1.489-.436 2.978-.513 4.467.898-.694 2.052-1.027 3.181-.77.745.18 1.489.847 1.72 1.591.359 1.078-.026 2.157-.847 2.927zm-1.078-3.62c-1.155-.282-2.232.231-3.053 1.104 0 .95 0 2.387-.026 3.183a3.069 3.069 0 0 0 1.924-.18c.77-.308 1.463-.898 2.002-1.591.385-.488.41-1.258.103-1.797-.18-.36-.59-.642-.95-.719zM111.293 17.983c-.334.026-.565-.334-.719-.59a15.691 15.691 0 0 1-1.36-3.158c-.436-1.36-.667-2.747-.77-4.236-.77 1.18-2.053 3.337-2.848 4.493-.821 1.232-1.642 2.541-2.31 3.773-.077.18-.359.052-.461-.102-.129-.231-.077-.54-.026-.77.154-.231.436-.822.59-1.156 1.668-2.541 3.413-5.134 4.953-7.676.179-.18.795-.282.846.206.129 1.566.36 3.132.719 4.62a18.474 18.474 0 0 0 1.591 4.211c.025.077 0 .36-.205.385zM120.559 18.291c-.539-.616-.693-1.438-.821-2.233-.257-1.849-.205-3.825-.257-5.751-1.565 2.233-2.797 4.493-4.285 7.034-.154.18-.231.308-.488.411-.231 0-.436-.026-.615-.282-1.232-2.285-1.463-5.083-1.283-7.856 0-.18.051-.488.256-.565.334-.103.59.18.59.385-.154 2.567.129 5.006.975 7.214.899-1.54 1.617-2.824 2.387-4.082a48.177 48.177 0 0 1 2.72-4.005c.205-.154.487-.051.59.154.077 2.465.051 4.878.257 7.24.051.77.231 1.515.282 2.234 0 .102-.231.205-.308.102zM135.216 17.7c-1.154.591-2.54.848-3.797.232a3.924 3.924 0 0 1-2.002-2.336c-.385-1.207-.256-2.568.257-3.697a5.76 5.76 0 0 1 1.668-2.08c.462-.333 1.154-.744 1.796-.821.513-.59 1.36-.77 2.078-.59 1.232.333 2.284 1.591 2.618 2.695.333 1.078.41 2.259.102 3.363-.384 1.489-1.36 2.567-2.72 3.235zm1.771-6.315c-.308-.847-1.001-1.797-1.899-2.105-.41-.154-.847-.205-1.18.051-.334.257-.539.668-.693 1.027-.026.077-.026.18-.026.283 0 .102 0 .23-.025.334-.026.05-.283.205-.36.05a4.343 4.343 0 0 1-.077-1.052c-.975.411-1.796 1.258-2.258 2.208-.487 1.001-.513 2.157-.205 3.184.257.795.744 1.463 1.565 1.797 1.027.385 2.13.256 3.054-.206 1.052-.539 1.796-1.36 2.155-2.464.334-.976.283-2.131-.051-3.107zM143.832 18.214c-.975.129-2.001.052-2.976-.539-1.283-.77-1.848-2.105-1.771-3.594a6.555 6.555 0 0 1 1.078-3.21 6.456 6.456 0 0 1 2.617-2.284c.565-.282 1.335-.41 1.95-.154.514.205 1.053.744 1.155 1.258.052.154-.205.488-.41.334-.283-.257-.642-.59-1.001-.745-.359-.154-.693-.18-1.078-.026-1.001.411-1.924 1.207-2.54 2.157a5.722 5.722 0 0 0-.924 2.952c0 .95.359 1.849 1.155 2.44.744.538 1.719.667 2.617.59 1.514-.129 2.848-.77 4.183-1.361.154 0 .385.257.256.436-1.283.72-2.745 1.515-4.311 1.746zM154.838 17.7c-1.155.591-2.541.848-3.798.232a3.924 3.924 0 0 1-2.002-2.336c-.384-1.207-.256-2.568.257-3.697a5.76 5.76 0 0 1 1.668-2.08c.462-.333 1.155-.744 1.796-.821.513-.59 1.36-.77 2.079-.59 1.231.333 2.284 1.591 2.617 2.695.334 1.078.411 2.259.103 3.363-.385 1.489-1.36 2.567-2.72 3.235zm1.77-6.315c-.308-.847-1-1.797-1.899-2.105-.41-.154-.846-.205-1.18.051-.334.257-.539.668-.693 1.027-.025.077-.025.18-.025.283 0 .102 0 .23-.026.334-.026.05-.282.205-.359.05a4.245 4.245 0 0 1-.077-1.052c-.975.411-1.797 1.258-2.258 2.208-.488 1.001-.514 2.157-.206 3.184.257.795.744 1.463 1.566 1.797 1.026.385 2.129.256 3.053-.206 1.052-.539 1.796-1.36 2.156-2.464.333-.976.282-2.131-.052-3.107zM166.918 2.631c-.565.205-1.181.334-1.745.54-1.027.333-1.719.77-2.438 1.565-.718.77-1.18 1.694-1.591 2.67-.41 1.001-.693 2.105-1.001 3.158.924-.642 2.002-1.207 3.131-1.387a4.207 4.207 0 0 1 2.977.59c.923.591 1.539 1.618 1.796 2.697.256 1.155.154 2.233-.436 3.26a5.163 5.163 0 0 1-2.284 2.156c-.821.411-1.899.54-2.874.386-1.129-.155-2.027-.668-2.694-1.566-.719-.976-.924-2.157-.899-3.364.052-1.668.539-3.465.976-4.826.538-1.643 1.308-3.44 2.643-4.724a6.15 6.15 0 0 1 2.232-1.386c.565-.18 1.155-.308 1.745-.488.564-.18 1.103-.41 1.591-.821.154-.026.41 0 .462.154.102.154.102.36 0 .487a4.312 4.312 0 0 1-1.591.899zm-.051 9.14a2.875 2.875 0 0 0-1.745-1.541c-.745-.257-1.694-.205-2.438.026-1.027.308-1.976.924-2.797 1.668-.231 1.13-.205 2.49.179 3.518.18.513.539.975 1.001 1.334.77.617 1.566.694 2.541.59 1.052-.102 2.001-.59 2.771-1.385.616-.617.872-1.233.898-2.131.026-.745-.128-1.49-.41-2.08zM173.385 18.317c-1.283-.052-2.463-.642-3.207-1.746-.616-.924-.77-2.002-.642-3.055a6.784 6.784 0 0 1 1.309-3.183c.744-.976 1.796-1.746 3.002-1.977.821-.154 1.694-.077 2.31.59.282.308.539.642.539 1.053.025.436-.18.821-.539 1.104-1.797 1.489-3.695 2.875-5.646 4.005.052.796.744 1.617 1.489 2.028.744.41 1.616.462 2.437.36.822-.078 1.668-.36 2.259-.642.102-.078.179 0 .205.076.025.052.077.154-.026.232-.898.821-2.181 1.206-3.49 1.155zm1.129-9.165c-.744 0-1.488.308-2.078.77-1.258 1.027-2.002 2.67-2.002 4.262 1.822-1.002 3.541-2.311 5.209-3.672.129-.102.231-.487.052-.795-.206-.411-.667-.565-1.181-.565zM185.858 12.515c-.179 1.823-.077 3.953.052 5.75.025.18-.231.206-.36.129-.359-.283-.538-1.027-.564-1.49a38.396 38.396 0 0 1 0-4.21c-1.899.078-3.952.026-5.825.232-.077 1.72-.026 3.363.051 5.006.026.051-.077.128-.205.154a.427.427 0 0 1-.282-.103c-.334-.334-.411-.95-.437-1.36-.128-2.594.052-5.186.308-7.728.052-.154.283-.308.488-.18.282.129.282.462.334.72-.052.667-.129 1.796-.206 2.592 1.873-.128 3.952-.051 5.825-.077.103-1.258.154-2.516.462-3.697.128-.154.385-.051.539.103.128.154.205.462.205.642-.128.975-.308 1.925-.333 2.926.077 0 .154-.025.231-.025.051 0 .128.051.128.18 0 .05 0 .153-.051.205-.077.102-.231.18-.36.23zM195.606 12.515c-.179 1.823-.077 3.953.052 5.75.025.18-.231.206-.36.129-.359-.283-.538-1.027-.564-1.49a38.396 38.396 0 0 1 0-4.21c-1.899.078-3.952.026-5.825.232-.077 1.72-.026 3.363.051 5.006.026.051-.077.128-.205.154a.427.427 0 0 1-.282-.103c-.334-.334-.411-.95-.437-1.36-.128-2.594.052-5.186.308-7.728.052-.154.283-.308.488-.18.282.129.282.462.334.72-.052.667-.129 1.796-.206 2.592 1.873-.128 3.952-.051 5.825-.077.103-1.258.154-2.516.462-3.697.128-.154.385-.051.539.103.128.154.205.462.205.642-.128.975-.308 1.925-.333 2.926.077 0 .154-.025.231-.025.051 0 .128.051.128.18 0 .05 0 .153-.051.205-.077.102-.231.18-.36.23zM203.327 17.7c-1.155.591-2.54.848-3.798.232a3.92 3.92 0 0 1-2.001-2.336c-.385-1.207-.257-2.568.256-3.697a5.77 5.77 0 0 1 1.668-2.08c.462-.333 1.155-.744 1.797-.821.513-.59 1.36-.77 2.078-.59 1.232.333 2.284 1.591 2.618 2.695.333 1.078.41 2.259.102 3.363-.385 1.489-1.36 2.567-2.72 3.235zm1.771-6.315c-.308-.847-1.001-1.797-1.899-2.105-.411-.154-.847-.205-1.181.051-.333.257-.538.668-.692 1.027-.026.077-.026.18-.026.283 0 .102 0 .23-.026.334-.025.05-.282.205-.359.05a4.294 4.294 0 0 1-.077-1.052c-.975.411-1.796 1.258-2.258 2.208-.488 1.001-.513 2.157-.205 3.184.256.795.744 1.463 1.565 1.797 1.026.385 2.13.256 3.054-.206 1.052-.539 1.796-1.36 2.155-2.464.334-.976.282-2.131-.051-3.107zM211.943 18.214c-.975.129-2.001.052-2.977-.539-1.283-.77-1.847-2.105-1.77-3.594a6.555 6.555 0 0 1 1.078-3.21 6.45 6.45 0 0 1 2.617-2.284c.565-.282 1.334-.41 1.95-.154.513.205 1.052.744 1.155 1.258.051.154-.205.488-.411.334-.282-.257-.641-.59-1-.745-.36-.154-.693-.18-1.078-.026-1.001.411-1.925 1.207-2.541 2.157a5.721 5.721 0 0 0-.923 2.952c0 .95.359 1.849 1.154 2.44.745.538 1.72.667 2.618.59 1.514-.129 2.848-.77 4.182-1.361.154 0 .385.257.257.436-1.283.72-2.746 1.515-4.311 1.746zM224.873 9.46c-.667-.154-1.334-.308-2.027-.334-.565.719-.847 1.566-1.001 2.465-.18.924-.154 1.9-.205 2.85-.052 1.283.051 2.515.205 3.722-.077.154-.308.256-.487.154-.437-.54-.539-1.233-.565-1.926-.026-1.54-.051-3.157.18-4.672.154-.976.436-1.874 1.026-2.696-1.591-.077-3.054.257-4.516.668a.81.81 0 0 1-.565-.36c-.051-.18.052-.282.154-.333l.154-.052.128-.051c1.078-.436 2.387-.667 3.644-.693 1.283-.051 2.566.077 3.695.488.129.051.36.23.437.385.025.18-.103.41-.257.385zM234.152 18.291c-.539-.616-.693-1.438-.821-2.233-.257-1.849-.205-3.825-.257-5.751-1.565 2.233-2.797 4.493-4.285 7.034-.154.18-.231.308-.488.411-.23 0-.436-.026-.615-.282-1.232-2.285-1.463-5.083-1.283-7.856 0-.18.051-.488.256-.565.334-.103.59.18.59.385-.154 2.567.129 5.006.976 7.214.898-1.54 1.616-2.824 2.386-4.082a48.177 48.177 0 0 1 2.72-4.005c.205-.154.488-.051.59.154.077 2.465.051 4.878.257 7.24.051.77.231 1.515.282 2.234 0 .102-.231.205-.308.102zM5.242 39.445c-.77.514-1.72.924-2.669.924-.539 0-.924-.23-1.283-.744-.128.103-.36.18-.462.026-.462-.642-.59-1.54-.616-2.414-.051-2.233-.025-3.876.565-5.879.051-.205.539-.59.898-.487.154-.411.564-.848 1.052-.899 1.309 0 2.72.693 3.156 2.002.128.411.128.848-.025 1.259-.154.385-.411.718-.745.975l-.154.128c.642.206 1.36.617 1.771 1.258.308.488.334 1.079.205 1.643-.23.925-.898 1.67-1.693 2.208zm.718-3.414c-.205-.385-.77-.616-1.18-.822-.488-.308-.924-.18-1.412-.077l-.77.18a1.674 1.674 0 0 1-.872 0c-.128-.077-.282-.334-.154-.462.308-.308.693-.462 1.13-.565l1.18-.128c.462-.257.95-.77 1.154-1.258.129-.411.052-.693-.205-1.027-.462-.642-1.206-.924-1.95-1.001-.231-.026-.308.025-.36.18-.076.205-.128.436-.256.616-.051.128-.23.18-.36.102a.496.496 0 0 1-.23-.128c-.308 1.104-.488 2.362-.539 3.67-.051 1.233 0 2.44.18 3.57.205-.232.461-.565.59-.745.18-.18.513.103.462.282-.052.129-.154.283-.231.411-.052.154-.129.282-.129.385.154.231.514.308.95.257.641-.103 1.411-.462 1.976-.899.513-.41.95-.924 1.077-1.566.077-.308.129-.667-.05-.975zM13.057 40.036c-1.411.385-3.053.36-4.157-.59-.513-.437-.898-1.079-.924-1.772-.025-.616.231-1.181.59-1.695.796-1.13 2.182-1.9 3.516-2.053.564-.052 1.078.025 1.488.436.129.128 0 .385-.128.436h-.23c-.078 0-.18-.025-.258-.025-.18-.026-.333-.052-.436.025-1.232.052-2.438.642-3.182 1.643-.333.437-.513.77-.462 1.31.052.719.59 1.258 1.335 1.515 1.052.385 2.36.154 3.361-.206.54-.205 1.027-.41 1.489-.744.102-.077.205 0 .256.128.026.103.026.205.026.282-.36.694-1.796 1.181-2.284 1.31zm1.437-1.746c-.128.154-.36.128-.462.051-.256-.18-.256-.513-.256-.77.025-.436.102-.873.205-1.335l.334-1.412c.205-.924.333-1.848.05-2.618-.23-.668-.795-1.335-1.488-1.412-.59-.077-1.18.128-1.667.487-.257.18-.822.668-.976.95-.025.103.026.283.129.385.102.103.025.411-.205.36-.18-.052-.385-.103-.54-.231a.622.622 0 0 1-.128-.77c.437-.745 1.052-1.361 1.848-1.72.513-.257 1.129-.36 1.77-.257.77.128 1.437.693 1.822 1.412.59 1.104.514 2.49.231 3.722-.256 1.053-.513 2.028-.667 3.158zM28.069 39.984c-.334-.36-.565-.796-.616-1.309-1.052.54-2.079.95-3.285.976-.462 0-.95-.052-1.283-.411-.308-.334-.359-.745-.436-1.155-1 .795-2.053 1.54-3.259 1.797-.667.154-1.18.18-1.616-.462-.36-.514-.514-1.823-.565-2.465-.154-2.26.128-4.493.667-6.495.052-.18.206-.41.334-.41.18 0 .385.102.462.307 0 .385-.052.745-.129 1.078-.102.36-.18.694-.23 1.053-.129.95-.283 1.925-.283 2.901 0 1.18.103 2.336.41 3.44.129.334.54.334.873.231 1.18-.308 2.233-1.027 3.182-1.9-.128-1.925-.103-4.159.41-5.853.052-.103.232-.154.411-.103.103.052.282.154.282.308-.153 1.284-.333 2.67-.307 4.005 0 1.027.128 2.054.384 2.978.052.231.36.334.668.334 1.026-.051 2.36-.41 3.233-.95-.282-2.541-.077-5.211.41-7.599.18-.18.462-.18.59 0 .18.18.129.462.103.693v.206c-.436 3.003-.462 5.776.026 8.78-.077.18-.282.128-.436.025zM33.856 40.138c-1.283-.051-2.463-.642-3.208-1.745-.615-.925-.77-2.003-.641-3.055a6.782 6.782 0 0 1 1.309-3.184c.744-.975 1.796-1.746 3.002-1.977.821-.154 1.694-.077 2.31.59.282.309.538.643.538 1.053.026.437-.18.822-.539 1.104-1.796 1.49-3.695 2.876-5.645 4.005.051.796.744 1.618 1.488 2.028.745.411 1.617.462 2.438.36.821-.077 1.668-.36 2.258-.642.103-.077.18 0 .206.077.025.051.077.154-.026.231-.898.822-2.181 1.207-3.49 1.155zm1.13-9.165c-.745 0-1.49.308-2.08.77-1.257 1.027-2.001 2.67-2.001 4.262 1.822-1.001 3.541-2.31 5.21-3.671.127-.103.23-.488.05-.796-.205-.41-.667-.565-1.18-.565zM46.406 32.334c-.95-.488-1.976-.796-3.028-.976a18.689 18.689 0 0 0-3.259-.23c-.077.025-.205.05-.205.128.026 2.49-.205 5.185-.36 7.727-.05.18-.05.36-.102.54-.026.179-.077.359-.205.487-.129.128-.59.308-.667 0 .102-1.515.333-5.032.385-6.367l.102-2.978c.308-.36.719-.436 1.155-.41.205 0 .436 0 .641.025.206.026.41.026.616 0 1.566.103 3.08.41 4.414 1.104.333.154.641.385.847.745.05.205-.231.282-.334.205zM53.549 39.522c-1.155.59-2.54.847-3.798.231a3.922 3.922 0 0 1-2.002-2.336c-.385-1.206-.256-2.567.257-3.697a5.76 5.76 0 0 1 1.668-2.08c.462-.333 1.155-.744 1.796-.82.513-.591 1.36-.77 2.079-.591 1.231.334 2.284 1.591 2.617 2.695.334 1.079.41 2.26.103 3.364-.385 1.489-1.36 2.567-2.72 3.234zm1.77-6.315c-.308-.847-1-1.797-1.899-2.105-.41-.154-.846-.206-1.18.051-.334.257-.539.668-.693 1.027-.025.077-.025.18-.025.282 0 .103 0 .231-.026.334-.026.051-.282.205-.36.051a4.293 4.293 0 0 1-.076-1.052c-.976.41-1.797 1.258-2.259 2.208-.487 1-.513 2.156-.205 3.183.257.796.744 1.463 1.566 1.797 1.026.385 2.13.257 3.053-.205 1.052-.54 1.796-1.36 2.156-2.465.333-.975.282-2.13-.052-3.106zM72.13 39.291c0 .206-.232.257-.36.231-.282-.102-.334-.565-.385-.821-.077-.462-.077-.925-.077-1.412v-1.566c0-1.207.154-2.516.18-3.748-.154-.232-.411-.36-.668-.411-.282-.077-.615-.103-.898-.18-1.026-.154-2.052-.308-3.13-.257-.129 1.13-.436 2.183-.59 3.312-.231 1.669-.437 3.235-.334 5.006 0 .206.051.514-.154.668-.103.102-.385.102-.513-.026a.99.99 0 0 1-.205-.513c-.026-.18 0-.386-.026-.59-.026-2.697.41-5.212.95-7.831-.129.026-.257.051-.386.026-.23-.129-.18-.36-.077-.462.103-.206.283-.283.462-.334.18-.052.385-.103.565-.103 1.745-.128 3.592.128 5.183.642.308.18.744.385.77.796-.23 2.464-.282 5.006-.308 7.573zM82.043 40.113c-.539-.617-.693-1.438-.821-2.234-.257-1.848-.205-3.825-.257-5.75-1.565 2.233-2.797 4.492-4.285 7.034-.154.18-.23.308-.488.41-.23 0-.436-.025-.615-.282-1.232-2.285-1.463-5.083-1.283-7.856 0-.18.051-.487.256-.564.334-.103.59.18.59.385-.153 2.567.129 5.006.975 7.214.899-1.54 1.617-2.824 2.387-4.082a48.332 48.332 0 0 1 2.72-4.005c.205-.154.488-.052.59.154.077 2.464.052 4.878.257 7.24.051.77.23 1.514.282 2.233 0 .103-.23.205-.308.103zM91.483 31.281c-.667-.154-1.334-.308-2.027-.333-.565.718-.847 1.566-1 2.464-.18.924-.155 1.9-.206 2.85-.051 1.283.051 2.516.205 3.722-.077.154-.308.257-.487.154-.437-.539-.54-1.232-.565-1.925-.026-1.54-.051-3.158.18-4.672.154-.976.436-1.874 1.026-2.696-1.59-.077-3.053.257-4.516.667a.809.809 0 0 1-.565-.359c-.05-.18.052-.282.154-.334l.154-.051.129-.051c1.077-.437 2.386-.668 3.644-.694 1.282-.05 2.566.077 3.695.488.128.052.359.231.436.385.026.18-.103.411-.257.385zM97.632 40.036c-1.412.385-3.054.36-4.157-.59-.513-.437-.898-1.079-.924-1.772-.026-.616.23-1.181.59-1.695.796-1.13 2.181-1.9 3.516-2.053.564-.052 1.077.025 1.488.436.128.128 0 .385-.128.436h-.231c-.077 0-.18-.025-.257-.025-.18-.026-.334-.052-.436.025-1.232.052-2.438.642-3.182 1.643-.334.437-.513.77-.462 1.31.051.719.59 1.258 1.334 1.515 1.052.385 2.361.154 3.362-.206.539-.205 1.026-.41 1.488-.744.103-.077.206 0 .257.128.025.103.025.205.025.282-.359.694-1.796 1.181-2.283 1.31zm1.437-1.746c-.129.154-.36.128-.462.051-.257-.18-.257-.513-.257-.77.026-.436.103-.873.206-1.335l.333-1.412c.205-.924.334-1.848.051-2.618-.23-.668-.795-1.335-1.488-1.412-.59-.077-1.18.128-1.668.487-.257.18-.821.668-.975.95-.026.103.026.283.128.385.103.103.026.411-.205.36-.18-.052-.385-.103-.539-.231a.622.622 0 0 1-.128-.77c.436-.745 1.052-1.361 1.847-1.72a2.92 2.92 0 0 1 1.771-.257c.77.128 1.437.693 1.822 1.412.59 1.104.513 2.49.23 3.722-.256 1.053-.512 2.028-.666 3.158zM109.102 34.336c-.179 1.823-.077 3.954.052 5.751.025.18-.231.205-.36.128-.359-.282-.539-1.027-.564-1.489a38.398 38.398 0 0 1 0-4.21c-1.899.077-3.952.026-5.825.231-.077 1.72-.026 3.363.051 5.006.026.052-.077.129-.205.154a.427.427 0 0 1-.282-.102c-.334-.334-.411-.95-.437-1.361-.128-2.593.052-5.186.308-7.727.052-.154.283-.308.488-.18.282.128.282.462.333.719-.051.667-.128 1.797-.205 2.593 1.873-.129 3.952-.052 5.825-.077.103-1.258.154-2.516.462-3.697.128-.154.385-.052.539.102.128.154.205.463.205.642-.128.976-.308 1.926-.333 2.927.076 0 .153-.026.23-.026.052 0 .129.052.129.18 0 .051 0 .154-.052.205-.077.103-.231.18-.359.231zM119.055 40.113c-.538-.617-.692-1.438-.821-2.234-.256-1.848-.205-3.825-.256-5.75-1.566 2.233-2.797 4.492-4.286 7.034-.154.18-.231.308-.487.41-.231 0-.436-.025-.616-.282-1.232-2.285-1.463-5.083-1.283-7.856 0-.18.051-.487.257-.564.333-.103.59.18.59.385-.154 2.567.128 5.006.975 7.214.898-1.54 1.617-2.824 2.386-4.082a48.68 48.68 0 0 1 2.72-4.005c.206-.154.488-.052.591.154.077 2.464.051 4.878.256 7.24.051.77.231 1.514.282 2.233 0 .103-.231.205-.308.103zM127.136 31.461a48.059 48.059 0 0 1-.206 7.933 2.853 2.853 0 0 0-.154.436c-.077.154-.128.308-.256.462-.052.103-.385.154-.462-.025.051-.59.333-3.697.256-5.032-1.873 1.078-3.618 2.978-4.926 4.75-.129.128-.437.128-.488-.129 0-.462.18-.822.436-1.181.257-.334.565-.642.796-1.001.641-.77 1.385-1.412 2.155-2.028-.616.051-1.257 0-1.873-.283-.693-.308-1.155-.898-1.257-1.668-.077-.462 0-.95.231-1.31.461-.718 1.077-1.335 1.77-1.745.821-.488 1.719-.745 2.72-.668.539.18 1.155.36 1.412.924.051.18.051.411-.154.565zm-.847 1.104c0-.565-.026-1.104-.103-1.617-.462-.18-.847-.231-1.36-.077-.539.154-1.18.41-1.694.796-.615.462-1.077 1.052-1.103 1.822.051.334.18.668.462.924.359.232.821.36 1.232.386.923.077 1.873-.206 2.591-.565-.025-.54-.025-1.104-.025-1.669zM130.839 43.964c-.129.077-.283-.052-.283-.18.514-.873 1.437-3.03 1.309-4.03-.282.025-.564.102-.821.076-.359-.051-.539-.282-.59-.616-.052-.385.128-.796.333-1.104.206-.282.488-.436.822-.487.821-.103 1.231.616 1.257 1.334.051 1.438-.77 3.492-2.027 5.007zM151.897 40.087c-1.232-.693-2.489-1.18-3.798-1.643-1.283-.462-2.515-.924-3.746-1.463a9.522 9.522 0 0 0 .333 2.72c.077.155.026.437-.205.437-.205 0-.334-.128-.411-.256-.077-.103-.128-.257-.205-.386-.282-.924-.385-1.925-.385-2.952a.57.57 0 0 1-.231-.256c-.077-.077-.102-.232-.025-.36a.716.716 0 0 0 .23-.334c.052-.333.026-1.104.103-1.437.103-.59.257-1.31.411-2.028.179-.72.436-1.438.769-2.054.154-.257.539-.206.616.077-.025.333-.128.642-.231.95-.077.282-.231.59-.308.898-.256.924-.41 1.874-.436 2.85a46.146 46.146 0 0 1 2.797-2.31c1.181-.873 2.438-1.618 3.772-2.157.206 0 .462 0 .616.128.154.103.154.257.077.437-1.36.564-2.592 1.309-3.849 2.182a32.634 32.634 0 0 0-3.464 2.875v.026c1.257.693 2.643 1.155 3.977 1.617 1.181.41 2.31.873 3.387 1.566.231.129.411.308.539.54.026.153-.179.359-.333.333zM158.947 39.522c-1.154.59-2.54.847-3.797.231a3.924 3.924 0 0 1-2.002-2.336c-.385-1.206-.256-2.567.257-3.697a5.758 5.758 0 0 1 1.668-2.08c.462-.333 1.154-.744 1.796-.82.513-.591 1.36-.77 2.078-.591 1.232.334 2.284 1.591 2.618 2.695.333 1.079.41 2.26.102 3.364-.384 1.489-1.36 2.567-2.72 3.234zm1.771-6.315c-.308-.847-1.001-1.797-1.899-2.105-.41-.154-.847-.206-1.18.051-.334.257-.539.668-.693 1.027-.026.077-.026.18-.026.282 0 .103 0 .231-.025.334-.026.051-.283.205-.36.051a4.343 4.343 0 0 1-.077-1.052c-.975.41-1.796 1.258-2.258 2.208-.487 1-.513 2.156-.205 3.183.257.796.744 1.463 1.565 1.797 1.027.385 2.13.257 3.054-.205 1.052-.54 1.796-1.36 2.155-2.465.334-.975.283-2.13-.051-3.106zM170.745 31.281c-.667-.154-1.334-.308-2.027-.333-.564.718-.847 1.566-1.001 2.464-.179.924-.154 1.9-.205 2.85-.051 1.283.051 2.516.205 3.722-.077.154-.308.257-.487.154-.436-.539-.539-1.232-.565-1.925-.025-1.54-.051-3.158.18-4.672.154-.976.436-1.874 1.026-2.696-1.591-.077-3.053.257-4.516.667a.812.812 0 0 1-.565-.359c-.051-.18.052-.282.154-.334l.154-.051.129-.051c1.077-.437 2.386-.668 3.644-.694 1.283-.05 2.566.077 3.695.488.128.052.359.231.436.385.026.18-.103.411-.257.385zM177.792 39.522c-1.155.59-2.541.847-3.798.231a3.92 3.92 0 0 1-2.001-2.336c-.385-1.206-.257-2.567.256-3.697a5.758 5.758 0 0 1 1.668-2.08c.462-.333 1.155-.744 1.796-.82.514-.591 1.36-.77 2.079-.591 1.232.334 2.284 1.591 2.617 2.695.334 1.079.411 2.26.103 3.364-.385 1.489-1.36 2.567-2.72 3.234zm1.77-6.315c-.307-.847-1-1.797-1.898-2.105-.411-.154-.847-.206-1.181.051-.333.257-.539.668-.693 1.027-.025.077-.025.18-.025.282 0 .103 0 .231-.026.334-.026.051-.282.205-.359.051a4.245 4.245 0 0 1-.077-1.052c-.975.41-1.796 1.258-2.258 2.208-.488 1-.514 2.156-.206 3.183.257.796.745 1.463 1.566 1.797 1.026.385 2.13.257 3.053-.205 1.052-.54 1.797-1.36 2.156-2.465.333-.975.282-2.13-.052-3.106zM183.098 31.281h-.129a.212.212 0 0 1-.205-.18c-.026-.205.051-.384.205-.538.411-.36.873-.514 1.386-.488.359.025.718.077 1.078.205l.975.334c1.385.462 2.592 1.694 3.259 3.03.359.744.487 1.514.308 2.361-.18.77-.642 1.49-1.258 2.08-1.539 1.463-3.464 1.9-5.594 1.9-.025 1.745-.128 3.696.103 5.416 0 .077.051.18.103.257.025.128.077.231-.026.385-.205.154-.411.103-.59 0-.257-.282-.36-.59-.385-.95-.18-1.823-.103-3.594 0-5.442-.231-.206-.59-.488-.667-.796 0-.103.025-.206.077-.257.077-.128.179-.154.231-.103.077.077.23.18.359.257.154-2.567.333-5.006.77-7.47zm5.08 1.67c-.564-.694-1.36-1.182-2.129-1.516-.437-.205-1.668-.667-2.13-.462a6.852 6.852 0 0 1-.077 1.284 45.724 45.724 0 0 0-.616 6.829c1.77.128 3.464-.411 4.824-1.592.744-.642 1.18-1.54 1.104-2.465-.052-.77-.539-1.54-.976-2.079zM195.501 38.83a5.224 5.224 0 0 1-2.284 1.154c-.642.154-1.54.231-2.079-.308-.154-.128-.385-.539-.154-.77.18.128.308.231.462.308a.542.542 0 0 0 .334.129c-.026-1.772.077-5.186.128-6.906.026-.411-.025-.848 0-1.258.052-.411.129-.822.462-1.13.231-.077.436-.128.565.128-.129.463-.129 1.284-.154 2.183 0 .821 0 1.694-.026 2.31a3.006 3.006 0 0 1 1.36-.513c.59-.052 1.206.051 1.694.333a2.037 2.037 0 0 1 1.026 2.234c-.154.796-.693 1.54-1.334 2.105zm.333-3.159c-.308-.487-.847-.667-1.437-.667-.59.026-1.231.257-1.616.616l-.206 3.671c.796-.18 1.617-.539 2.284-1.104.462-.385.898-.847 1.078-1.437.128-.36.103-.796-.103-1.079zm5.338 4.596c-.642-.18-.642-.822-.719-1.335-.385-2.927-.154-5.75.231-8.652.231-.36.642-.051.744.154.026.59 0 1.155-.077 1.746-.051.565-.128 1.155-.128 1.746-.026 1-.077 2.028-.051 3.055 0 1 .102 2.028.256 2.978.026.128-.128.308-.256.308zM207.265 40.138c-1.283-.051-2.463-.642-3.207-1.745-.616-.925-.77-2.003-.642-3.055a6.784 6.784 0 0 1 1.309-3.184c.744-.975 1.796-1.746 3.002-1.977.821-.154 1.694-.077 2.31.59.282.309.538.643.538 1.053.026.437-.179.822-.538 1.104-1.797 1.49-3.696 2.876-5.646 4.005.052.796.744 1.618 1.489 2.028.744.411 1.616.462 2.437.36.821-.077 1.668-.36 2.258-.642.103-.077.18 0 .206.077.025.051.077.154-.026.231-.898.822-2.181 1.207-3.49 1.155zm1.129-9.165c-.744 0-1.488.308-2.078.77-1.258 1.027-2.002 2.67-2.002 4.262 1.822-1.001 3.541-2.31 5.209-3.671.129-.103.231-.488.052-.796-.206-.41-.667-.565-1.181-.565zM226.88 34.336c-.179 1.823-.077 3.954.051 5.751.026.18-.23.205-.359.128-.359-.282-.539-1.027-.564-1.489a38.398 38.398 0 0 1 0-4.21c-1.899.077-3.952.026-5.825.231-.077 1.72-.026 3.363.051 5.006.026.052-.077.129-.205.154a.425.425 0 0 1-.282-.102c-.334-.334-.411-.95-.437-1.361-.128-2.593.052-5.186.308-7.727.052-.154.282-.308.488-.18.282.128.282.462.333.719-.051.667-.128 1.797-.205 2.593 1.873-.129 3.952-.052 5.825-.077.103-1.258.154-2.516.462-3.697.128-.154.385-.052.539.102.128.154.205.463.205.642-.128.976-.308 1.926-.334 2.927.077 0 .154-.026.231-.026.052 0 .129.052.129.18 0 .051 0 .154-.052.205-.077.103-.231.18-.359.231zM233.703 40.036c-1.411.385-3.054.36-4.157-.59-.513-.437-.898-1.079-.924-1.772-.026-.616.231-1.181.59-1.695.796-1.13 2.181-1.9 3.516-2.053.564-.052 1.077.025 1.488.436.128.128 0 .385-.128.436h-.231c-.077 0-.18-.025-.257-.025-.179-.026-.333-.052-.436.025-1.232.052-2.438.642-3.182 1.643-.334.437-.513.77-.462 1.31.051.719.59 1.258 1.335 1.515 1.052.385 2.36.154 3.361-.206.539-.205 1.026-.41 1.488-.744.103-.077.206 0 .257.128.026.103.026.205.026.282-.36.694-1.797 1.181-2.284 1.31zm1.437-1.746c-.128.154-.359.128-.462.051-.257-.18-.257-.513-.257-.77.026-.436.103-.873.206-1.335l.333-1.412c.206-.924.334-1.848.052-2.618-.231-.668-.796-1.335-1.489-1.412-.59-.077-1.18.128-1.668.487-.256.18-.821.668-.975.95-.025.103.026.283.128.385.103.103.026.411-.205.36-.179-.052-.385-.103-.539-.231a.623.623 0 0 1-.128-.77c.436-.745 1.052-1.361 1.848-1.72.513-.257 1.129-.36 1.77-.257.77.128 1.437.693 1.822 1.412.59 1.104.513 2.49.231 3.722-.257 1.053-.513 2.028-.667 3.158zM249.767 40.138a.48.48 0 0 1-.36-.256l-.077-.129c-.949-2.053-1.36-4.364-1.385-6.803a41.215 41.215 0 0 1-1.052 2.413c-.437.899-.924 1.772-1.617 2.593-.308.385-.898.437-1.36.334-.385-.18-.642-.616-.821-.976-.975-1.874-1.437-3.979-1.925-6.033 0-.025-.025-.051-.051-.025-1.591 2.336-2.515 4.955-3.156 7.727-.103.257.128.488.154.745.051.154-.052.308-.257.385-.282.025-.513-.206-.641-.411-.18-.436-.154-.924-.026-1.36.847-2.773 1.719-5.52 3.515-7.933a.8.8 0 0 1 .668-.103c.256 0 .487.256.513.436.564 2.208 1.026 4.467 2.13 6.47.154.205.359.333.59.256.59-.564.975-1.258 1.36-1.95.77-1.413 1.308-2.902 1.899-4.442l.128-.18c.077-.077.128-.128.257-.128.256-.077.436.103.538.282-.051 1.592-.025 3.081.154 4.544a17.77 17.77 0 0 0 1.053 4.288c.025.18-.154.256-.231.256zM4.754 61.857c-.975.129-2.001.051-2.977-.539-1.283-.77-1.847-2.105-1.77-3.594a6.56 6.56 0 0 1 1.078-3.21 6.455 6.455 0 0 1 2.617-2.284c.565-.282 1.334-.41 1.95-.154.513.205 1.052.745 1.155 1.258.051.154-.205.488-.41.334-.283-.257-.642-.59-1.001-.745-.36-.154-.693-.18-1.078-.026-1 .411-1.925 1.207-2.54 2.157a5.723 5.723 0 0 0-.924 2.952c0 .95.359 1.849 1.154 2.44.745.538 1.72.667 2.618.59 1.514-.129 2.848-.77 4.182-1.361.154 0 .385.257.257.437-1.283.718-2.746 1.514-4.31 1.745zM17.684 53.103c-.667-.154-1.334-.308-2.027-.334-.565.719-.847 1.566-1 2.465-.18.924-.155 1.9-.206 2.85-.052 1.283.051 2.515.205 3.722-.077.154-.308.257-.488.154-.436-.54-.538-1.232-.564-1.925-.026-1.54-.051-3.158.18-4.673.154-.976.436-1.874 1.026-2.696-1.59-.076-3.054.257-4.516.668a.81.81 0 0 1-.565-.36c-.051-.18.052-.282.154-.333l.154-.051.128-.052c1.078-.436 2.387-.667 3.644-.693 1.283-.051 2.566.077 3.695.488.129.051.36.23.437.385.025.18-.103.41-.257.385zM24.73 61.344c-1.154.59-2.54.847-3.797.23a3.922 3.922 0 0 1-2.002-2.335c-.384-1.207-.256-2.568.257-3.697a5.76 5.76 0 0 1 1.668-2.08c.462-.333 1.155-.744 1.796-.821.513-.59 1.36-.77 2.079-.59 1.231.333 2.284 1.591 2.617 2.695.334 1.078.41 2.26.103 3.363-.385 1.489-1.36 2.567-2.72 3.235zm1.771-6.316c-.308-.847-1-1.797-1.899-2.105-.41-.154-.846-.205-1.18.051-.334.257-.539.668-.693 1.027-.026.078-.026.18-.026.283 0 .102 0 .23-.025.334-.026.05-.282.205-.36.05a4.287 4.287 0 0 1-.076-1.052c-.976.411-1.797 1.258-2.259 2.208-.487 1.001-.513 2.157-.205 3.184.257.795.744 1.463 1.566 1.797 1.026.385 2.13.256 3.053-.206 1.052-.539 1.796-1.36 2.156-2.464.333-.976.282-2.131-.052-3.107zM36.836 61.934c-.538-.616-.692-1.437-.82-2.233-.257-1.849-.206-3.825-.257-5.75-1.566 2.233-2.797 4.492-4.286 7.033-.154.18-.23.308-.487.411-.231 0-.436-.026-.616-.282-1.232-2.285-1.463-5.083-1.283-7.856 0-.18.051-.488.256-.565.334-.102.59.18.59.385-.153 2.568.129 5.006.976 7.214.898-1.54 1.617-2.824 2.386-4.082a48.34 48.34 0 0 1 2.72-4.005c.206-.154.488-.051.59.154.078 2.465.052 4.878.257 7.24.051.77.231 1.515.282 2.233 0 .103-.23.206-.308.103zM46.276 53.103c-.667-.154-1.334-.308-2.027-.334-.564.719-.846 1.566-1 2.465-.18.924-.154 1.9-.206 2.85-.051 1.283.052 2.515.206 3.722-.077.154-.308.257-.488.154-.436-.54-.539-1.232-.565-1.925-.025-1.54-.05-3.158.18-4.673.154-.976.436-1.874 1.027-2.696-1.591-.076-3.054.257-4.517.668a.81.81 0 0 1-.564-.36c-.052-.18.051-.282.154-.333l.154-.051.128-.052c1.078-.436 2.386-.667 3.644-.693 1.283-.051 2.566.077 3.695.488.128.051.36.23.436.385.026.18-.102.41-.257.385zM60.542 59.83c-1.206 2.618-2.156 5.313-3.08 8.035-.076.154-.436.205-.513 0-.128-.231-.05-.848 0-1.079.411-1.745 1.155-3.363 1.771-5.032a54.724 54.724 0 0 1-2.412-3.927c-.898-1.67-1.642-3.415-1.925-5.34a.586.586 0 0 1 .308-.616c.154-.052.257.025.334.102.077.077.128.18.18.283.256 1.54.77 2.978 1.41 4.338.72 1.464 1.566 2.85 2.516 4.236a75.217 75.217 0 0 1 1.873-3.825 27.046 27.046 0 0 1 2.31-3.722c.179-.231.435-.488.666-.36.155.077.283.308.155.488a51.019 51.019 0 0 0-3.593 6.418zM71.631 58.289a81.57 81.57 0 0 0 .026 3.542c.026.155-.205.36-.41.232-.129-.103-.308-.488-.308-.642-.154-.847-.18-1.72-.18-2.593.025-1.104.103-2.234.18-3.312a5.79 5.79 0 0 1-2.233 2.285c-.642.36-1.334.54-2.079.436-.615-.102-1.128-.718-1.231-1.309-.026-1.643.205-3.286.462-4.852.308-.257.667.026.667.282.077.77-.026 1.515-.128 2.26-.077.718-.18 1.463-.129 2.182.129.334.462.616.77.616 1.052-.103 1.95-.693 2.618-1.49.82-.923 1.334-2.079 1.693-3.105.077-.257.128-.591.41-.72.155-.05.36 0 .437.206-.231 1.977-.539 3.98-.565 5.982zM77.484 61.96c-1.283-.052-2.463-.642-3.208-1.746-.615-.924-.77-2.002-.641-3.055a6.78 6.78 0 0 1 1.309-3.183c.744-.976 1.796-1.746 3.002-1.977.821-.154 1.694-.077 2.31.59.282.309.538.642.538 1.053.026.436-.18.822-.539 1.104-1.796 1.489-3.695 2.875-5.645 4.005.051.796.744 1.617 1.488 2.028.744.41 1.617.462 2.438.36.821-.078 1.668-.36 2.258-.642.103-.078.18 0 .206.077.025.05.076.154-.026.23-.898.822-2.181 1.207-3.49 1.156zm1.129-9.165c-.744 0-1.488.308-2.079.77-1.257 1.027-2.001 2.67-2.001 4.262 1.822-1.002 3.541-2.31 5.21-3.671.127-.103.23-.488.05-.796-.205-.411-.667-.565-1.18-.565zM86.672 61.857c-.975.129-2.001.051-2.976-.539-1.283-.77-1.848-2.105-1.77-3.594a6.56 6.56 0 0 1 1.077-3.21 6.454 6.454 0 0 1 2.617-2.284c.565-.282 1.335-.41 1.95-.154.514.205 1.053.745 1.155 1.258.052.154-.205.488-.41.334-.282-.257-.642-.59-1.001-.745-.36-.154-.693-.18-1.078-.026-1 .411-1.924 1.207-2.54 2.157a5.724 5.724 0 0 0-.924 2.952c0 .95.36 1.849 1.155 2.44.744.538 1.719.667 2.617.59 1.514-.129 2.849-.77 4.183-1.361.154 0 .385.257.256.437-1.283.718-2.745 1.514-4.31 1.745zM99.602 53.103c-.667-.154-1.334-.308-2.027-.334-.564.719-.847 1.566-1 2.465-.18.924-.154 1.9-.206 2.85-.051 1.283.052 2.515.205 3.722-.077.154-.308.257-.487.154-.436-.54-.539-1.232-.565-1.925-.025-1.54-.051-3.158.18-4.673.154-.976.436-1.874 1.026-2.696-1.59-.076-3.053.257-4.516.668a.81.81 0 0 1-.564-.36c-.052-.18.05-.282.154-.333l.153-.051.129-.052c1.078-.436 2.386-.667 3.644-.693 1.283-.051 2.566.077 3.695.488.128.051.359.23.436.385.026.18-.103.41-.257.385zM106.213 60.24c-.565.565-1.232 1.052-1.976 1.36a3.237 3.237 0 0 1-2.156.103c-.025.128-.128.283-.256.283-.411-.154-.565-.54-.642-.873-.179-3.107.154-6.162.693-9.063.128-.282.642-.436.796-.025-.154 1.489-.437 2.978-.514 4.467.899-.694 2.053-1.027 3.182-.77.744.18 1.489.847 1.72 1.591.359 1.078-.026 2.157-.847 2.927zm-1.078-3.62c-1.155-.282-2.232.231-3.054 1.104 0 .95 0 2.388-.025 3.183a3.068 3.068 0 0 0 1.924-.18c.77-.307 1.463-.898 2.002-1.591.385-.488.41-1.258.102-1.797-.179-.36-.59-.642-.949-.719zM116.318 51.05c-1.206 1.976-2.592 3.927-3.695 6.007-.128.102-.359.05-.411-.078a1.414 1.414 0 0 1 .052-.744c.051-.231.128-.41.205-.642.872-1.592 1.95-3.106 2.9-4.647.282-.487.436-1.13.384-1.771a2.315 2.315 0 0 0-.513-1.31c-.616-.77-1.385-1.36-2.232-1.642a3.257 3.257 0 0 0-1.796-.129c-.411.077-.77.257-1.13.59-.333.309-.615.694-.744 1.13-.154.129-.436.129-.513-.102-.077-.334.051-.616.154-.925.436-.744 1.052-1.257 1.771-1.514a3.866 3.866 0 0 1 1.873-.154c.744.128 1.411.436 2.027.873a5.508 5.508 0 0 1 1.565 1.694c.334.514.488 1.207.462 1.874 0 .514-.102 1.078-.359 1.49zm-1.642 11.09a4.163 4.163 0 0 1-1.848-.437c-.59-.308-1.103-.693-1.488-1.258-.103-.154-.128-.41-.077-.616.051-.205.205-.334.462-.231l.616.668c.205.205.436.41.641.564.59.437 1.334.668 2.079.899.077.18-.206.36-.385.41z" fill="#fff"/></svg>