<svg width="580" height="88" viewBox="0 0 580 88" fill="none" xmlns="http://www.w3.org/2000/svg">
<path d="M19.442 9.33518C18.818 11.8312 18.53 14.5192 18.242 17.1592C18.002 18.9832 17.906 20.8072 17.858 22.6792C17.762 25.4152 17.762 28.1512 17.666 30.9352C17.522 31.4152 17.138 31.7032 16.706 31.7032C16.082 31.7032 15.794 31.0792 15.65 30.5512L15.458 30.1672C14.258 25.1752 12.818 20.3272 11.042 15.5752C10.226 13.3192 9.45801 11.1112 8.59402 8.90318C7.73001 6.74318 6.77001 4.58318 5.61801 2.42318C5.57001 2.42318 5.52201 2.32718 5.52201 2.37518C4.22602 6.59918 3.31401 10.8712 2.88201 15.3832C2.49801 19.4632 2.45001 23.6392 2.59401 27.8632C2.69001 28.4392 2.69001 29.0632 2.78602 29.6872C2.83401 30.2632 2.93002 30.8392 3.12201 31.3672C3.17001 31.7032 2.93002 31.9432 2.64201 32.0392C1.77801 31.8472 1.58601 31.1272 1.44201 30.3592L1.29801 29.6872C0.914015 26.1832 0.866015 22.5832 1.05801 18.9832C1.29801 14.7112 1.92201 10.4392 2.78602 6.50318C3.26602 4.43918 3.89001 2.27918 4.70601 0.359178C4.85001 0.0231766 5.42601 -0.120822 5.76202 0.119178C6.05002 0.359178 6.19401 0.647177 6.38601 0.983178C7.58601 2.90318 8.54602 4.91918 9.36202 6.93518L11.81 13.0792C13.634 17.6872 15.122 22.4392 16.37 27.2872C16.418 23.2072 16.466 18.9352 16.898 14.9032C17.234 11.3992 17.954 7.94318 19.394 4.91918C19.49 4.72718 19.586 4.48718 19.73 4.29518C20.066 3.62318 20.546 2.90318 21.458 2.95118C21.986 3.23918 21.794 3.76718 21.554 4.10318C20.498 5.68718 19.922 7.46318 19.442 9.33518ZM31.442 24.9832C30.338 25.9912 28.994 26.6632 27.314 26.5192C25.874 26.3752 24.578 25.5592 23.858 24.4552C22.562 22.5352 22.274 20.1352 22.658 17.9272C22.946 16.3432 23.714 14.3272 24.722 13.0792C25.058 12.8392 25.346 12.5032 25.826 12.5512C26.21 12.6952 26.258 13.0792 26.114 13.3192C25.202 14.8552 24.338 16.7752 24.098 18.7432C23.906 20.6152 24.146 22.4872 25.298 23.9752C26.018 24.8872 27.266 25.2232 28.466 24.9832C30.866 24.2152 32.066 21.9592 32.498 19.9432C32.882 18.3112 32.834 16.5352 32.45 14.9032C32.162 13.6072 31.538 12.4072 30.53 11.3992C30.098 10.9672 29.234 10.7752 28.61 10.9192C27.89 11.0632 27.314 11.5912 26.93 12.1672C26.69 12.3592 26.354 12.0712 26.354 11.8792C26.402 11.1592 27.122 10.1512 27.89 9.81518C28.85 9.33518 30.338 9.33518 31.25 10.0552C32.786 11.2552 33.362 12.4552 33.842 14.1352C34.37 16.1032 34.418 18.2152 33.986 20.2792C33.602 22.0552 32.738 23.7352 31.442 24.9832ZM25.682 30.6472C25.394 30.7432 24.578 30.7912 24.194 30.8872C23.81 31.0792 23.234 31.0312 22.802 31.0312C22.562 30.9352 22.418 30.9832 22.226 30.9352C22.082 30.8872 21.938 30.8392 21.794 30.6472C21.698 30.4552 21.65 30.1672 21.698 29.9272C21.746 29.7352 21.842 29.5432 21.986 29.3992C22.274 29.1112 22.514 29.0152 22.754 28.9672C23.09 28.8712 23.33 28.9192 23.57 28.8712C24.05 28.8712 24.962 28.9192 25.394 28.9672C25.682 29.1112 25.97 29.0632 26.306 29.1592C26.642 29.0152 29.426 29.0632 29.858 29.1592C30.914 29.0632 32.162 29.1592 33.026 29.3992C33.314 29.4952 34.034 29.4952 34.274 29.7832C34.178 30.4552 32.642 30.7912 31.97 30.5992C31.586 30.6952 30.722 30.4552 30.146 30.5992C29.666 30.5032 28.61 30.6952 28.178 30.6472C27.41 30.5992 26.21 30.5512 25.682 30.6472Z" fill="white"/>
<path d="M60.4726 3.71918C60.0406 3.81518 59.6566 3.81518 59.2726 3.81518C58.9366 3.76718 58.5526 3.81518 58.2166 3.86318C56.2486 4.29518 54.3766 4.96718 52.6486 5.97518C50.7286 7.12718 48.9046 8.61518 47.3206 10.3912C46.9366 11.9752 46.6966 13.7992 46.9846 15.4792C47.1766 16.6312 47.6086 17.7352 48.5206 18.5992C51.4006 21.3832 54.6646 23.3512 58.0726 24.9352C58.3606 25.1272 58.6486 25.5112 58.4086 25.8952C55.0006 29.1592 51.0646 31.8472 46.9366 33.6712C45.6886 34.1992 44.0086 34.4392 42.4726 34.1512C41.6086 33.9592 40.7446 33.5272 40.1206 32.9032C39.8326 32.6152 39.5446 32.3272 39.3526 31.9912C39.1606 31.6552 39.0646 31.2712 39.2566 30.7432C39.5926 30.8392 39.7366 30.9832 39.8806 31.1272L40.2166 31.5592C40.7926 32.0872 41.4166 32.4232 42.1846 32.6632C43.1926 32.9512 44.3926 32.9512 45.4006 32.6152C47.1286 32.0872 48.7606 31.2232 50.3446 30.2632C52.4086 28.9672 54.3286 27.3832 56.2486 25.7512C54.4726 24.6952 52.2166 23.4952 50.2006 22.0552C48.4246 20.8072 46.9366 19.3192 46.0246 17.4472C45.3526 16.0552 45.0166 14.4712 45.3046 12.6472C45.6886 10.2472 46.3606 7.41518 47.3206 5.35118C47.8006 4.91918 49.0486 5.11118 48.6646 6.07118C48.5206 6.35918 48.2326 7.12718 48.0886 7.65518C49.3846 6.55118 50.7766 5.49518 52.1686 4.67918C54.0406 3.52718 56.0566 2.61518 58.2646 2.23118C58.6966 2.27918 59.1766 2.23118 59.6086 2.27918C60.0406 2.37518 60.4246 2.51918 60.6646 2.99918C60.9046 3.23918 60.6646 3.57518 60.4726 3.71918Z" fill="white"/>
<path d="M95.0386 19.6072C90.5266 19.4152 86.0146 20.1352 81.5026 19.7992C80.6386 19.7512 79.5826 19.5112 78.9586 18.7912C78.6226 18.4072 79.0066 17.5432 79.5826 17.6392C81.6466 17.8792 83.7106 17.9752 85.7746 17.9272C88.4626 17.8792 91.2946 17.6872 93.7426 17.7832C94.2226 17.7832 95.3266 17.9752 95.6626 18.5512C95.9986 19.0312 95.5666 19.6552 95.0386 19.6072Z" fill="white"/>
<path d="M120.489 34.2472C118.089 34.1512 115.881 33.0472 114.489 30.9832C113.337 29.2552 113.049 27.2392 113.289 25.2712C113.577 23.0632 114.489 20.9512 115.737 19.3192C117.129 17.4952 119.097 16.0552 121.353 15.6232C122.889 15.3352 124.521 15.4792 125.673 16.7272C126.201 17.3032 126.681 17.9272 126.681 18.6952C126.729 19.5112 126.345 20.2312 125.673 20.7592C122.313 23.5432 118.761 26.1352 115.113 28.2472C115.209 29.7352 116.505 31.2712 117.897 32.0392C119.289 32.8072 120.921 32.9032 122.457 32.7112C123.993 32.5672 125.577 32.0392 126.681 31.5112C126.873 31.3672 127.017 31.5112 127.065 31.6552C127.113 31.7512 127.209 31.9432 127.017 32.0872C125.337 33.6232 122.937 34.3432 120.489 34.2472ZM122.601 17.1112C121.209 17.1112 119.817 17.6872 118.713 18.5512C116.361 20.4712 114.969 23.5432 114.969 26.5192C118.377 24.6472 121.593 22.1992 124.713 19.6552C124.953 19.4632 125.145 18.7432 124.809 18.1672C124.425 17.3992 123.561 17.1112 122.601 17.1112Z" fill="white"/>
<path d="M137.677 34.0552C135.853 34.2952 133.933 34.1512 132.109 33.0472C129.709 31.6072 128.653 29.1112 128.797 26.3272C128.941 24.1672 129.613 22.1512 130.813 20.3272C132.013 18.5032 133.693 17.0152 135.709 16.0552C136.765 15.5272 138.205 15.2872 139.357 15.7672C140.317 16.1512 141.325 17.1592 141.517 18.1192C141.613 18.4072 141.133 19.0312 140.749 18.7432C140.221 18.2632 139.549 17.6392 138.877 17.3512C138.205 17.0632 137.581 17.0152 136.861 17.3032C134.989 18.0712 133.261 19.5592 132.109 21.3352C131.053 22.9672 130.429 24.8872 130.381 26.8552C130.381 28.6312 131.053 30.3112 132.541 31.4152C133.933 32.4232 135.757 32.6632 137.437 32.5192C140.269 32.2792 142.765 31.0792 145.261 29.9752C145.549 29.9752 145.981 30.4552 145.741 30.7912C143.341 32.1352 140.605 33.6232 137.677 34.0552Z" fill="white"/>
<path d="M161.863 17.6872C160.615 17.3992 159.367 17.1112 158.071 17.0632C157.015 18.4072 156.487 19.9912 156.199 21.6712C155.863 23.3992 155.911 25.2232 155.815 26.9992C155.719 29.3992 155.911 31.7032 156.199 33.9592C156.055 34.2472 155.623 34.4392 155.287 34.2472C154.471 33.2392 154.279 31.9432 154.231 30.6472C154.183 27.7672 154.135 24.7432 154.567 21.9112C154.855 20.0872 155.383 18.4072 156.487 16.8712C153.511 16.7272 150.775 17.3512 148.039 18.1192C147.655 18.0712 147.223 17.8312 146.983 17.4472C146.887 17.1112 147.079 16.9192 147.271 16.8232L147.559 16.7272L147.799 16.6312C149.815 15.8152 152.263 15.3832 154.615 15.3352C157.015 15.2392 159.415 15.4792 161.527 16.2472C161.767 16.3432 162.199 16.6792 162.343 16.9672C162.391 17.3032 162.151 17.7352 161.863 17.6872Z" fill="white"/>
<path d="M174.228 31.0312C173.172 32.0872 171.924 32.9992 170.532 33.5752C169.332 34.0552 167.94 34.1992 166.5 33.7672C166.452 34.0072 166.26 34.2952 166.02 34.2952C165.252 34.0072 164.964 33.2872 164.82 32.6632C164.484 26.8552 165.108 21.1432 166.116 15.7192C166.356 15.1912 167.316 14.9032 167.604 15.6712C167.316 18.4552 166.788 21.2392 166.644 24.0232C168.324 22.7272 170.484 22.1032 172.596 22.5832C173.988 22.9192 175.38 24.1672 175.812 25.5592C176.484 27.5752 175.764 29.5912 174.228 31.0312ZM172.212 24.2632C170.052 23.7352 168.036 24.6952 166.5 26.3272C166.5 28.1032 166.5 30.7912 166.452 32.2792C167.7 32.5672 168.948 32.4232 170.052 31.9432C171.492 31.3672 172.788 30.2632 173.796 28.9672C174.516 28.0552 174.564 26.6152 173.988 25.6072C173.652 24.9352 172.884 24.4072 172.212 24.2632Z" fill="white"/>
<path d="M207.402 33.6232C206.778 33.6712 206.346 32.9992 206.058 32.5192C205.002 30.6472 204.138 28.6792 203.514 26.6152C202.698 24.0712 202.266 21.4792 202.074 18.6952C200.634 20.9032 198.234 24.9352 196.746 27.0952C195.21 29.3992 193.674 31.8472 192.426 34.1512C192.282 34.4872 191.754 34.2472 191.562 33.9592C191.322 33.5272 191.418 32.9512 191.514 32.5192C191.802 32.0872 192.33 30.9832 192.618 30.3592C195.738 25.6072 199.002 20.7592 201.882 16.0072C202.218 15.6712 203.37 15.4792 203.466 16.3912C203.706 19.3192 204.138 22.2472 204.81 25.0312C205.482 27.8152 206.49 30.4072 207.786 32.9032C207.834 33.0472 207.786 33.5752 207.402 33.6232Z" fill="white"/>
<path d="M224.736 34.1992C223.728 33.0472 223.44 31.5112 223.2 30.0232C222.72 26.5672 222.816 22.8712 222.72 19.2712C219.792 23.4472 217.488 27.6712 214.704 32.4232C214.416 32.7592 214.272 32.9992 213.792 33.1912C213.36 33.1912 212.976 33.1432 212.64 32.6632C210.336 28.3912 209.904 23.1592 210.24 17.9752C210.24 17.6392 210.336 17.0632 210.72 16.9192C211.344 16.7272 211.824 17.2552 211.824 17.6392C211.536 22.4392 212.064 26.9992 213.648 31.1272C215.328 28.2472 216.672 25.8472 218.112 23.4952C219.6 21.0472 221.184 18.6952 223.2 16.0072C223.584 15.7192 224.112 15.9112 224.304 16.2952C224.448 20.9032 224.4 25.4152 224.784 29.8312C224.88 31.2712 225.216 32.6632 225.312 34.0072C225.312 34.1992 224.88 34.3912 224.736 34.1992Z" fill="white"/>
<path d="M252.154 33.0952C249.994 34.1992 247.402 34.6792 245.05 33.5272C243.226 32.6152 241.93 31.0792 241.306 29.1592C240.586 26.9032 240.826 24.3592 241.786 22.2472C242.506 20.7112 243.61 19.3672 244.906 18.3592C245.77 17.7352 247.066 16.9672 248.266 16.8232C249.226 15.7192 250.81 15.3832 252.154 15.7192C254.458 16.3432 256.426 18.6952 257.049 20.7592C257.673 22.7752 257.818 24.9832 257.242 27.0472C256.522 29.8312 254.698 31.8472 252.154 33.0952ZM255.466 21.2872C254.89 19.7032 253.594 17.9272 251.914 17.3512C251.146 17.0632 250.33 16.9672 249.706 17.4472C249.082 17.9272 248.698 18.6952 248.41 19.3672C248.362 19.5112 248.362 19.7032 248.362 19.8952C248.362 20.0872 248.362 20.3272 248.314 20.5192C248.266 20.6152 247.786 20.9032 247.642 20.6152C247.546 20.1832 247.45 19.3192 247.498 18.6472C245.674 19.4152 244.138 20.9992 243.274 22.7752C242.362 24.6472 242.314 26.8072 242.89 28.7272C243.37 30.2152 244.282 31.4632 245.818 32.0872C247.738 32.8072 249.802 32.5672 251.53 31.7032C253.498 30.6952 254.89 29.1592 255.562 27.0952C256.186 25.2712 256.09 23.1112 255.466 21.2872Z" fill="white"/>
<path d="M268.27 34.0552C266.446 34.2952 264.526 34.1512 262.702 33.0472C260.302 31.6072 259.246 29.1112 259.39 26.3272C259.534 24.1672 260.206 22.1512 261.406 20.3272C262.606 18.5032 264.286 17.0152 266.302 16.0552C267.358 15.5272 268.798 15.2872 269.95 15.7672C270.91 16.1512 271.918 17.1592 272.11 18.1192C272.206 18.4072 271.726 19.0312 271.342 18.7432C270.814 18.2632 270.142 17.6392 269.47 17.3512C268.798 17.0632 268.174 17.0152 267.454 17.3032C265.582 18.0712 263.854 19.5592 262.702 21.3352C261.646 22.9672 261.022 24.8872 260.974 26.8552C260.974 28.6312 261.646 30.3112 263.134 31.4152C264.526 32.4232 266.35 32.6632 268.03 32.5192C270.862 32.2792 273.358 31.0792 275.854 29.9752C276.142 29.9752 276.574 30.4552 276.334 30.7912C273.934 32.1352 271.198 33.6232 268.27 34.0552Z" fill="white"/>
<path d="M288.857 33.0952C286.697 34.1992 284.105 34.6792 281.753 33.5272C279.929 32.6152 278.633 31.0792 278.009 29.1592C277.289 26.9032 277.529 24.3592 278.489 22.2472C279.209 20.7112 280.313 19.3672 281.609 18.3592C282.473 17.7352 283.769 16.9672 284.969 16.8232C285.929 15.7192 287.513 15.3832 288.857 15.7192C291.161 16.3432 293.129 18.6952 293.753 20.7592C294.377 22.7752 294.521 24.9832 293.945 27.0472C293.225 29.8312 291.401 31.8472 288.857 33.0952ZM292.169 21.2872C291.593 19.7032 290.297 17.9272 288.617 17.3512C287.849 17.0632 287.033 16.9672 286.409 17.4472C285.785 17.9272 285.401 18.6952 285.113 19.3672C285.065 19.5112 285.065 19.7032 285.065 19.8952C285.065 20.0872 285.065 20.3272 285.017 20.5192C284.969 20.6152 284.489 20.9032 284.345 20.6152C284.249 20.1832 284.153 19.3192 284.201 18.6472C282.377 19.4152 280.841 20.9992 279.977 22.7752C279.065 24.6472 279.017 26.8072 279.593 28.7272C280.073 30.2152 280.985 31.4632 282.521 32.0872C284.441 32.8072 286.505 32.5672 288.233 31.7032C290.201 30.6952 291.593 29.1592 292.265 27.0952C292.889 25.2712 292.793 23.1112 292.169 21.2872Z" fill="white"/>
<path d="M311.453 4.91918C310.397 5.30318 309.245 5.54318 308.189 5.92718C306.269 6.55118 304.973 7.36718 303.629 8.85518C302.285 10.2952 301.421 12.0232 300.653 13.8472C299.885 15.7192 299.357 17.7832 298.781 19.7512C300.509 18.5512 302.525 17.4952 304.637 17.1592C306.509 16.8232 308.573 17.2072 310.205 18.2632C311.933 19.3672 313.085 21.2872 313.565 23.3032C314.045 25.4632 313.853 27.4792 312.749 29.3992C311.789 31.1272 310.301 32.5672 308.477 33.4312C306.941 34.1992 304.925 34.4392 303.101 34.1512C300.989 33.8632 299.309 32.9032 298.061 31.2232C296.717 29.3992 296.333 27.1912 296.381 24.9352C296.477 21.8152 297.389 18.4552 298.205 15.9112C299.213 12.8392 300.653 9.47918 303.149 7.07918C304.349 5.92718 305.789 5.01518 307.325 4.48718C308.381 4.15118 309.485 3.91118 310.589 3.57518C311.645 3.23918 312.653 2.80718 313.565 2.03918C313.853 1.99118 314.333 2.03918 314.429 2.32718C314.621 2.61518 314.621 2.99918 314.429 3.23918C313.517 4.05518 312.509 4.58318 311.453 4.91918ZM311.357 22.0072C310.733 20.6152 309.485 19.5592 308.093 19.1272C306.701 18.6472 304.925 18.7432 303.533 19.1752C301.613 19.7512 299.837 20.9032 298.301 22.2952C297.869 24.4072 297.917 26.9512 298.637 28.8712C298.973 29.8312 299.645 30.6952 300.509 31.3672C301.949 32.5192 303.437 32.6632 305.261 32.4712C307.229 32.2792 309.005 31.3672 310.445 29.8792C311.597 28.7272 312.077 27.5752 312.125 25.8952C312.173 24.5032 311.885 23.1112 311.357 22.0072Z" fill="white"/>
<path d="M323.551 34.2472C321.151 34.1512 318.943 33.0472 317.551 30.9832C316.399 29.2552 316.111 27.2392 316.351 25.2712C316.639 23.0632 317.551 20.9512 318.799 19.3192C320.191 17.4952 322.159 16.0552 324.415 15.6232C325.951 15.3352 327.583 15.4792 328.735 16.7272C329.263 17.3032 329.743 17.9272 329.743 18.6952C329.791 19.5112 329.407 20.2312 328.735 20.7592C325.375 23.5432 321.823 26.1352 318.175 28.2472C318.271 29.7352 319.567 31.2712 320.959 32.0392C322.351 32.8072 323.983 32.9032 325.519 32.7112C327.055 32.5672 328.639 32.0392 329.743 31.5112C329.935 31.3672 330.079 31.5112 330.127 31.6552C330.175 31.7512 330.271 31.9432 330.079 32.0872C328.399 33.6232 325.999 34.3432 323.551 34.2472ZM325.663 17.1112C324.271 17.1112 322.879 17.6872 321.775 18.5512C319.423 20.4712 318.031 23.5432 318.031 26.5192C321.439 24.6472 324.655 22.1992 327.775 19.6552C328.015 19.4632 328.207 18.7432 327.871 18.1672C327.487 17.3992 326.623 17.1112 325.663 17.1112Z" fill="white"/>
<path d="M346.883 23.3992C346.547 26.8072 346.739 30.7912 346.979 34.1512C347.027 34.4872 346.547 34.5352 346.307 34.3912C345.635 33.8632 345.299 32.4712 345.251 31.6072C345.107 28.9192 345.107 26.4232 345.251 23.7352C341.699 23.8792 337.859 23.7832 334.355 24.1672C334.211 27.3832 334.307 30.4552 334.451 33.5272C334.499 33.6232 334.307 33.7672 334.067 33.8152C333.923 33.8152 333.683 33.7672 333.539 33.6232C332.915 32.9992 332.771 31.8472 332.723 31.0792C332.483 26.2312 332.819 21.3832 333.299 16.6312C333.395 16.3432 333.827 16.0552 334.211 16.2952C334.739 16.5352 334.739 17.1592 334.835 17.6392C334.739 18.8872 334.595 20.9992 334.451 22.4872C337.955 22.2472 341.843 22.3912 345.347 22.3432C345.539 19.9912 345.635 17.6392 346.211 15.4312C346.451 15.1432 346.931 15.3352 347.219 15.6232C347.459 15.9112 347.603 16.4872 347.603 16.8232C347.363 18.6472 347.027 20.4232 346.979 22.2952C347.123 22.2952 347.267 22.2472 347.411 22.2472C347.507 22.2472 347.651 22.3432 347.651 22.5832C347.651 22.6792 347.651 22.8712 347.555 22.9672C347.411 23.1592 347.123 23.3032 346.883 23.3992Z" fill="white"/>
<path d="M365.117 23.3992C364.781 26.8072 364.973 30.7912 365.213 34.1512C365.261 34.4872 364.781 34.5352 364.541 34.3912C363.869 33.8632 363.533 32.4712 363.485 31.6072C363.341 28.9192 363.341 26.4232 363.485 23.7352C359.933 23.8792 356.093 23.7832 352.589 24.1672C352.445 27.3832 352.541 30.4552 352.685 33.5272C352.733 33.6232 352.541 33.7672 352.301 33.8152C352.157 33.8152 351.917 33.7672 351.773 33.6232C351.149 32.9992 351.005 31.8472 350.957 31.0792C350.717 26.2312 351.053 21.3832 351.533 16.6312C351.629 16.3432 352.061 16.0552 352.445 16.2952C352.973 16.5352 352.973 17.1592 353.069 17.6392C352.973 18.8872 352.829 20.9992 352.685 22.4872C356.189 22.2472 360.077 22.3912 363.581 22.3432C363.773 19.9912 363.869 17.6392 364.445 15.4312C364.685 15.1432 365.165 15.3352 365.453 15.6232C365.693 15.9112 365.837 16.4872 365.837 16.8232C365.597 18.6472 365.261 20.4232 365.213 22.2952C365.357 22.2952 365.501 22.2472 365.645 22.2472C365.741 22.2472 365.885 22.3432 365.885 22.5832C365.885 22.6792 365.885 22.8712 365.789 22.9672C365.645 23.1592 365.357 23.3032 365.117 23.3992Z" fill="white"/>
<path d="M379.56 33.0952C377.4 34.1992 374.808 34.6792 372.456 33.5272C370.632 32.6152 369.336 31.0792 368.712 29.1592C367.992 26.9032 368.232 24.3592 369.192 22.2472C369.912 20.7112 371.016 19.3672 372.312 18.3592C373.176 17.7352 374.472 16.9672 375.672 16.8232C376.632 15.7192 378.216 15.3832 379.56 15.7192C381.864 16.3432 383.832 18.6952 384.456 20.7592C385.08 22.7752 385.224 24.9832 384.648 27.0472C383.928 29.8312 382.104 31.8472 379.56 33.0952ZM382.872 21.2872C382.296 19.7032 381 17.9272 379.32 17.3512C378.552 17.0632 377.736 16.9672 377.112 17.4472C376.488 17.9272 376.104 18.6952 375.816 19.3672C375.768 19.5112 375.768 19.7032 375.768 19.8952C375.768 20.0872 375.768 20.3272 375.72 20.5192C375.672 20.6152 375.192 20.9032 375.048 20.6152C374.952 20.1832 374.856 19.3192 374.904 18.6472C373.08 19.4152 371.544 20.9992 370.68 22.7752C369.768 24.6472 369.72 26.8072 370.296 28.7272C370.776 30.2152 371.688 31.4632 373.224 32.0872C375.144 32.8072 377.208 32.5672 378.936 31.7032C380.904 30.6952 382.296 29.1592 382.968 27.0952C383.592 25.2712 383.496 23.1112 382.872 21.2872Z" fill="white"/>
<path d="M395.677 34.0552C393.853 34.2952 391.933 34.1512 390.109 33.0472C387.709 31.6072 386.652 29.1112 386.797 26.3272C386.941 24.1672 387.612 22.1512 388.812 20.3272C390.013 18.5032 391.693 17.0152 393.709 16.0552C394.765 15.5272 396.204 15.2872 397.357 15.7672C398.316 16.1512 399.325 17.1592 399.517 18.1192C399.613 18.4072 399.133 19.0312 398.749 18.7432C398.22 18.2632 397.549 17.6392 396.877 17.3512C396.205 17.0632 395.581 17.0152 394.861 17.3032C392.988 18.0712 391.261 19.5592 390.109 21.3352C389.053 22.9672 388.429 24.8872 388.381 26.8552C388.381 28.6312 389.053 30.3112 390.541 31.4152C391.933 32.4232 393.757 32.6632 395.437 32.5192C398.269 32.2792 400.765 31.0792 403.261 29.9752C403.549 29.9752 403.98 30.4552 403.741 30.7912C401.341 32.1352 398.605 33.6232 395.677 34.0552Z" fill="white"/>
<path d="M419.863 17.6872C418.615 17.3992 417.367 17.1112 416.071 17.0632C415.015 18.4072 414.487 19.9912 414.199 21.6712C413.863 23.3992 413.911 25.2232 413.815 26.9992C413.719 29.3992 413.911 31.7032 414.199 33.9592C414.055 34.2472 413.623 34.4392 413.287 34.2472C412.471 33.2392 412.279 31.9432 412.231 30.6472C412.183 27.7672 412.135 24.7432 412.567 21.9112C412.855 20.0872 413.383 18.4072 414.487 16.8712C411.511 16.7272 408.775 17.3512 406.039 18.1192C405.655 18.0712 405.223 17.8312 404.983 17.4472C404.887 17.1112 405.079 16.9192 405.271 16.8232L405.559 16.7272L405.799 16.6312C407.815 15.8152 410.263 15.3832 412.615 15.3352C415.015 15.2392 417.415 15.4792 419.527 16.2472C419.767 16.3432 420.199 16.6792 420.343 16.9672C420.391 17.3032 420.151 17.7352 419.863 17.6872Z" fill="white"/>
<path d="M437.22 34.1992C436.212 33.0472 435.924 31.5112 435.684 30.0232C435.204 26.5672 435.3 22.8712 435.204 19.2712C432.276 23.4472 429.972 27.6712 427.188 32.4232C426.9 32.7592 426.756 32.9992 426.276 33.1912C425.844 33.1912 425.46 33.1432 425.124 32.6632C422.82 28.3912 422.388 23.1592 422.724 17.9752C422.724 17.6392 422.82 17.0632 423.204 16.9192C423.828 16.7272 424.308 17.2552 424.308 17.6392C424.02 22.4392 424.548 26.9992 426.132 31.1272C427.812 28.2472 429.156 25.8472 430.596 23.4952C432.084 21.0472 433.668 18.6952 435.684 16.0072C436.068 15.7192 436.596 15.9112 436.788 16.2952C436.932 20.9032 436.884 25.4152 437.268 29.8312C437.364 31.2712 437.7 32.6632 437.796 34.0072C437.796 34.1992 437.364 34.3912 437.22 34.1992Z" fill="white"/>
<path d="M463.198 32.9512C461.758 33.9112 459.982 34.6792 458.206 34.6792C457.198 34.6792 456.478 34.2472 455.806 33.2872C455.566 33.4792 455.134 33.6232 454.942 33.3352C454.078 32.1352 453.838 30.4552 453.79 28.8232C453.694 24.6472 453.742 21.5752 454.846 17.8312C454.942 17.4472 455.854 16.7272 456.526 16.9192C456.814 16.1512 457.582 15.3352 458.494 15.2392C460.942 15.2392 463.582 16.5352 464.398 18.9832C464.638 19.7512 464.638 20.5672 464.35 21.3352C464.062 22.0552 463.582 22.6792 462.958 23.1592L462.67 23.3992C463.87 23.7832 465.214 24.5512 465.982 25.7512C466.558 26.6632 466.606 27.7672 466.366 28.8232C465.934 30.5512 464.686 31.9432 463.198 32.9512ZM464.542 26.5672C464.158 25.8472 463.102 25.4152 462.334 25.0312C461.422 24.4552 460.606 24.6952 459.694 24.8872L458.254 25.2232C457.726 25.3672 457.198 25.3672 456.622 25.2232C456.382 25.0792 456.094 24.5992 456.334 24.3592C456.91 23.7832 457.63 23.4952 458.446 23.3032L460.654 23.0632C461.518 22.5832 462.43 21.6232 462.814 20.7112C463.054 19.9432 462.91 19.4152 462.43 18.7912C461.566 17.5912 460.174 17.0632 458.782 16.9192C458.35 16.8712 458.206 16.9672 458.11 17.2552C457.966 17.6392 457.87 18.0712 457.63 18.4072C457.534 18.6472 457.198 18.7432 456.958 18.5992C456.766 18.5512 456.622 18.4552 456.526 18.3592C455.95 20.4232 455.614 22.7752 455.518 25.2232C455.422 27.5272 455.518 29.7832 455.854 31.8952C456.238 31.4632 456.718 30.8392 456.958 30.5032C457.294 30.1672 457.918 30.6952 457.822 31.0312C457.726 31.2712 457.534 31.5592 457.39 31.7992C457.294 32.0872 457.15 32.3272 457.15 32.5192C457.438 32.9512 458.11 33.0952 458.926 32.9992C460.126 32.8072 461.566 32.1352 462.622 31.3192C463.582 30.5512 464.398 29.5912 464.638 28.3912C464.782 27.8152 464.878 27.1432 464.542 26.5672Z" fill="white"/>
<path d="M477.817 34.0552C475.177 34.7752 472.105 34.7272 470.041 32.9512C469.081 32.1352 468.361 30.9352 468.313 29.6392C468.265 28.4872 468.745 27.4312 469.417 26.4712C470.905 24.3592 473.497 22.9192 475.993 22.6312C477.049 22.5352 478.009 22.6792 478.777 23.4472C479.017 23.6872 478.777 24.1672 478.537 24.2632H478.105C477.961 24.2632 477.769 24.2152 477.625 24.2152C477.289 24.1672 477.001 24.1192 476.809 24.2632C474.505 24.3592 472.249 25.4632 470.857 27.3352C470.233 28.1512 469.897 28.7752 469.993 29.7832C470.089 31.1272 471.097 32.1352 472.489 32.6152C474.457 33.3352 476.905 32.9032 478.777 32.2312C479.785 31.8472 480.697 31.4632 481.561 30.8392C481.753 30.6952 481.945 30.8392 482.041 31.0792C482.089 31.2712 482.089 31.4632 482.089 31.6072C481.417 32.9032 478.729 33.8152 477.817 34.0552ZM480.505 30.7912C480.265 31.0792 479.833 31.0312 479.641 30.8872C479.161 30.5512 479.161 29.9272 479.161 29.4472C479.209 28.6312 479.353 27.8152 479.545 26.9512L480.169 24.3112C480.553 22.5832 480.793 20.8552 480.265 19.4152C479.833 18.1672 478.777 16.9192 477.481 16.7752C476.377 16.6312 475.273 17.0152 474.361 17.6872C473.881 18.0232 472.825 18.9352 472.537 19.4632C472.489 19.6552 472.585 19.9912 472.777 20.1832C472.969 20.3752 472.825 20.9512 472.393 20.8552C472.057 20.7592 471.673 20.6632 471.385 20.4232C471.001 20.0872 470.857 19.4632 471.145 18.9832C471.961 17.5912 473.113 16.4392 474.601 15.7672C475.561 15.2872 476.713 15.0952 477.913 15.2872C479.353 15.5272 480.601 16.5832 481.321 17.9272C482.425 19.9912 482.281 22.5832 481.753 24.8872C481.273 26.8552 480.793 28.6792 480.505 30.7912Z" fill="white"/>
<path d="M505.898 33.9592C505.274 33.2872 504.842 32.4712 504.746 31.5112C502.778 32.5192 500.858 33.2872 498.602 33.3352C497.738 33.3352 496.826 33.2392 496.202 32.5672C495.626 31.9432 495.53 31.1752 495.386 30.4072C493.514 31.8952 491.546 33.2872 489.29 33.7672C488.042 34.0552 487.082 34.1032 486.266 32.9032C485.594 31.9432 485.306 29.4952 485.21 28.2952C484.922 24.0712 485.45 19.8952 486.458 16.1512C486.554 15.8152 486.842 15.3832 487.082 15.3832C487.418 15.3832 487.802 15.5752 487.946 15.9592C487.946 16.6792 487.85 17.3512 487.706 17.9752C487.514 18.6472 487.37 19.2712 487.274 19.9432C487.034 21.7192 486.746 23.5432 486.746 25.3672C486.746 27.5752 486.938 29.7352 487.514 31.7992C487.754 32.4232 488.522 32.4232 489.146 32.2312C491.354 31.6552 493.322 30.3112 495.098 28.6792C494.858 25.0792 494.906 20.9032 495.866 17.7352C495.962 17.5432 496.298 17.4472 496.634 17.5432C496.826 17.6392 497.162 17.8312 497.162 18.1192C496.874 20.5192 496.538 23.1112 496.586 25.6072C496.586 27.5272 496.826 29.4472 497.306 31.1752C497.402 31.6072 497.978 31.7992 498.554 31.7992C500.474 31.7032 502.97 31.0312 504.602 30.0232C504.074 25.2712 504.458 20.2792 505.37 15.8152C505.706 15.4792 506.234 15.4792 506.474 15.8152C506.81 16.1512 506.714 16.6792 506.666 17.1112V17.4952C505.85 23.1112 505.802 28.2952 506.714 33.9112C506.57 34.2472 506.186 34.1512 505.898 33.9592Z" fill="white"/>
<path d="M516.723 34.2472C514.323 34.1512 512.115 33.0472 510.723 30.9832C509.571 29.2552 509.283 27.2392 509.523 25.2712C509.811 23.0632 510.723 20.9512 511.971 19.3192C513.363 17.4952 515.331 16.0552 517.587 15.6232C519.123 15.3352 520.755 15.4792 521.907 16.7272C522.435 17.3032 522.915 17.9272 522.915 18.6952C522.963 19.5112 522.579 20.2312 521.907 20.7592C518.547 23.5432 514.995 26.1352 511.347 28.2472C511.443 29.7352 512.739 31.2712 514.131 32.0392C515.523 32.8072 517.155 32.9032 518.691 32.7112C520.227 32.5672 521.811 32.0392 522.915 31.5112C523.107 31.3672 523.251 31.5112 523.299 31.6552C523.347 31.7512 523.443 31.9432 523.251 32.0872C521.571 33.6232 519.171 34.3432 516.723 34.2472ZM518.835 17.1112C517.443 17.1112 516.051 17.6872 514.947 18.5512C512.595 20.4712 511.203 23.5432 511.203 26.5192C514.611 24.6472 517.827 22.1992 520.947 19.6552C521.187 19.4632 521.379 18.7432 521.043 18.1672C520.659 17.3992 519.795 17.1112 518.835 17.1112Z" fill="white"/>
<path d="M540.199 19.6552C538.423 18.7432 536.503 18.1672 534.535 17.8312C532.471 17.4952 530.119 17.3512 528.439 17.3992C528.295 17.4472 528.055 17.4952 528.055 17.6392C528.103 22.2952 527.671 27.3352 527.383 32.0872C527.287 32.4232 527.287 32.7592 527.191 33.0952C527.143 33.4312 527.047 33.7672 526.807 34.0072C526.567 34.2472 525.703 34.5832 525.559 34.0072C525.751 31.1752 526.183 24.5992 526.279 22.1032L526.471 16.5352C527.047 15.8632 527.815 15.7192 528.631 15.7672C529.015 15.7672 529.447 15.7672 529.831 15.8152C530.215 15.8632 530.599 15.8632 530.983 15.8152C533.911 16.0072 536.743 16.5832 539.239 17.8792C539.863 18.1672 540.439 18.5992 540.823 19.2712C540.919 19.6552 540.391 19.7992 540.199 19.6552Z" fill="white"/>
<path d="M553.56 33.0952C551.4 34.1992 548.808 34.6792 546.456 33.5272C544.632 32.6152 543.336 31.0792 542.712 29.1592C541.992 26.9032 542.232 24.3592 543.192 22.2472C543.912 20.7112 545.016 19.3672 546.312 18.3592C547.176 17.7352 548.472 16.9672 549.672 16.8232C550.632 15.7192 552.216 15.3832 553.56 15.7192C555.864 16.3432 557.832 18.6952 558.456 20.7592C559.08 22.7752 559.224 24.9832 558.648 27.0472C557.928 29.8312 556.104 31.8472 553.56 33.0952ZM556.872 21.2872C556.296 19.7032 555 17.9272 553.32 17.3512C552.552 17.0632 551.736 16.9672 551.112 17.4472C550.488 17.9272 550.104 18.6952 549.816 19.3672C549.768 19.5112 549.768 19.7032 549.768 19.8952C549.768 20.0872 549.768 20.3272 549.72 20.5192C549.672 20.6152 549.192 20.9032 549.048 20.6152C548.952 20.1832 548.856 19.3192 548.904 18.6472C547.08 19.4152 545.544 20.9992 544.68 22.7752C543.768 24.6472 543.72 26.8072 544.296 28.7272C544.776 30.2152 545.688 31.4632 547.224 32.0872C549.144 32.8072 551.208 32.5672 552.936 31.7032C554.904 30.6952 556.296 29.1592 556.968 27.0952C557.592 25.2712 557.496 23.1112 556.872 21.2872Z" fill="white"/>
<path d="M13.394 74.6632C13.394 75.0472 12.962 75.1432 12.722 75.0952C12.194 74.9032 12.098 74.0392 12.002 73.5592C11.858 72.6952 11.858 71.8312 11.858 70.9192V67.9912C11.858 65.7352 12.146 63.2872 12.194 60.9832C11.906 60.5512 11.426 60.3112 10.946 60.2152C10.418 60.0712 9.79401 60.0232 9.26602 59.8792C7.34601 59.5912 5.42601 59.3032 3.41001 59.3992C3.17001 61.5112 2.59402 63.4792 2.30601 65.5912C1.87401 68.7112 1.49001 71.6392 1.68201 74.9512C1.68201 75.3352 1.77801 75.9112 1.39401 76.1992C1.20201 76.3912 0.674015 76.3912 0.434015 76.1512C0.194015 75.8632 0.0980147 75.5272 0.0500146 75.1912C0.00201465 74.8552 0.0500146 74.4712 0.00201465 74.0872C-0.0459854 69.0472 0.770015 64.3432 1.77801 59.4472C1.53801 59.4952 1.29801 59.5432 1.05801 59.4952C0.626015 59.2552 0.722015 58.8232 0.914015 58.6312C1.10601 58.2472 1.44201 58.1032 1.77801 58.0072C2.11401 57.9112 2.49801 57.8152 2.83401 57.8152C6.09801 57.5752 9.55401 58.0552 12.53 59.0152C13.106 59.3512 13.922 59.7352 13.97 60.5032C13.538 65.1112 13.442 69.8632 13.394 74.6632Z" fill="white"/>
<path d="M31.9389 76.1992C30.9309 75.0472 30.6429 73.5112 30.4029 72.0232C29.9229 68.5672 30.0189 64.8712 29.9229 61.2712C26.9949 65.4472 24.6909 69.6712 21.9069 74.4232C21.6189 74.7592 21.4749 74.9992 20.9949 75.1912C20.5629 75.1912 20.1789 75.1432 19.8429 74.6632C17.5389 70.3912 17.1069 65.1592 17.4429 59.9752C17.4429 59.6392 17.5389 59.0632 17.9229 58.9192C18.5469 58.7272 19.0269 59.2552 19.0269 59.6392C18.7389 64.4392 19.2669 68.9992 20.8509 73.1272C22.5309 70.2472 23.8749 67.8472 25.3149 65.4952C26.8029 63.0472 28.3869 60.6952 30.4029 58.0072C30.7869 57.7192 31.3149 57.9112 31.5069 58.2952C31.6509 62.9032 31.6029 67.4152 31.9869 71.8312C32.0829 73.2712 32.4189 74.6632 32.5149 76.0072C32.5149 76.1992 32.0829 76.3912 31.9389 76.1992Z" fill="white"/>
<path d="M49.5973 59.6872C48.3493 59.3992 47.1013 59.1112 45.8053 59.0632C44.7493 60.4072 44.2213 61.9912 43.9333 63.6712C43.5973 65.3992 43.6453 67.2232 43.5493 68.9992C43.4533 71.3992 43.6453 73.7032 43.9333 75.9592C43.7893 76.2472 43.3573 76.4392 43.0213 76.2472C42.2053 75.2392 42.0133 73.9432 41.9653 72.6472C41.9173 69.7672 41.8693 66.7432 42.3013 63.9112C42.5893 62.0872 43.1173 60.4072 44.2213 58.8712C41.2453 58.7272 38.5093 59.3512 35.7733 60.1192C35.3893 60.0712 34.9573 59.8312 34.7173 59.4472C34.6213 59.1112 34.8133 58.9192 35.0053 58.8232L35.2933 58.7272L35.5333 58.6312C37.5493 57.8152 39.9973 57.3832 42.3493 57.3352C44.7493 57.2392 47.1493 57.4792 49.2613 58.2472C49.5013 58.3432 49.9333 58.6792 50.0773 58.9672C50.1253 59.3032 49.8853 59.7352 49.5973 59.6872Z" fill="white"/>
<path d="M61.0985 76.0552C58.4585 76.7752 55.3865 76.7272 53.3225 74.9512C52.3625 74.1352 51.6425 72.9352 51.5945 71.6392C51.5465 70.4872 52.0265 69.4312 52.6985 68.4712C54.1865 66.3592 56.7785 64.9192 59.2745 64.6312C60.3305 64.5352 61.2905 64.6792 62.0585 65.4472C62.2985 65.6872 62.0585 66.1672 61.8185 66.2632H61.3865C61.2425 66.2632 61.0505 66.2152 60.9065 66.2152C60.5705 66.1672 60.2825 66.1192 60.0905 66.2632C57.7865 66.3592 55.5305 67.4632 54.1385 69.3352C53.5145 70.1512 53.1785 70.7752 53.2745 71.7832C53.3705 73.1272 54.3785 74.1352 55.7705 74.6152C57.7385 75.3352 60.1865 74.9032 62.0585 74.2312C63.0665 73.8472 63.9785 73.4632 64.8425 72.8392C65.0345 72.6952 65.2265 72.8392 65.3225 73.0792C65.3705 73.2712 65.3705 73.4632 65.3705 73.6072C64.6985 74.9032 62.0105 75.8152 61.0985 76.0552ZM63.7865 72.7912C63.5465 73.0792 63.1145 73.0312 62.9225 72.8872C62.4425 72.5512 62.4425 71.9272 62.4425 71.4472C62.4905 70.6312 62.6345 69.8152 62.8265 68.9512L63.4505 66.3112C63.8345 64.5832 64.0745 62.8552 63.5465 61.4152C63.1145 60.1672 62.0585 58.9192 60.7625 58.7752C59.6585 58.6312 58.5545 59.0152 57.6425 59.6872C57.1625 60.0232 56.1065 60.9352 55.8185 61.4632C55.7705 61.6552 55.8665 61.9912 56.0585 62.1832C56.2505 62.3752 56.1065 62.9512 55.6745 62.8552C55.3385 62.7592 54.9545 62.6632 54.6665 62.4232C54.2825 62.0872 54.1385 61.4632 54.4265 60.9832C55.2425 59.5912 56.3945 58.4392 57.8825 57.7672C58.8425 57.2872 59.9945 57.0952 61.1945 57.2872C62.6345 57.5272 63.8825 58.5832 64.6025 59.9272C65.7065 61.9912 65.5625 64.5832 65.0345 66.8872C64.5545 68.8552 64.0745 70.6792 63.7865 72.7912Z" fill="white"/>
<path d="M82.5549 65.3992C82.2189 68.8072 82.4109 72.7912 82.6509 76.1512C82.6989 76.4872 82.2189 76.5352 81.9789 76.3912C81.3069 75.8632 80.9709 74.4712 80.9229 73.6072C80.7789 70.9192 80.7789 68.4232 80.9229 65.7352C77.3709 65.8792 73.5309 65.7832 70.0269 66.1672C69.8829 69.3832 69.9789 72.4552 70.1229 75.5272C70.1709 75.6232 69.9789 75.7672 69.7389 75.8152C69.5949 75.8152 69.3549 75.7672 69.2109 75.6232C68.5869 74.9992 68.4429 73.8472 68.3949 73.0792C68.1549 68.2312 68.4909 63.3832 68.9709 58.6312C69.0669 58.3432 69.4989 58.0552 69.8829 58.2952C70.4109 58.5352 70.4109 59.1592 70.5069 59.6392C70.4109 60.8872 70.2669 62.9992 70.1229 64.4872C73.6269 64.2472 77.5149 64.3912 81.0189 64.3432C81.2109 61.9912 81.3069 59.6392 81.8829 57.4312C82.1229 57.1432 82.6029 57.3352 82.8909 57.6232C83.1309 57.9112 83.2749 58.4872 83.2749 58.8232C83.0349 60.6472 82.6989 62.4232 82.6509 64.2952C82.7949 64.2952 82.9389 64.2472 83.0829 64.2472C83.1789 64.2472 83.3229 64.3432 83.3229 64.5832C83.3229 64.6792 83.3229 64.8712 83.2269 64.9672C83.0829 65.1592 82.7949 65.3032 82.5549 65.3992Z" fill="white"/>
<path d="M101.173 76.1992C100.165 75.0472 99.8773 73.5112 99.6373 72.0232C99.1573 68.5672 99.2533 64.8712 99.1573 61.2712C96.2293 65.4472 93.9253 69.6712 91.1413 74.4232C90.8533 74.7592 90.7093 74.9992 90.2293 75.1912C89.7973 75.1912 89.4133 75.1432 89.0773 74.6632C86.7733 70.3912 86.3413 65.1592 86.6773 59.9752C86.6773 59.6392 86.7733 59.0632 87.1573 58.9192C87.7813 58.7272 88.2613 59.2552 88.2613 59.6392C87.9733 64.4392 88.5013 68.9992 90.0853 73.1272C91.7653 70.2472 93.1093 67.8472 94.5493 65.4952C96.0373 63.0472 97.6213 60.6952 99.6373 58.0072C100.021 57.7192 100.549 57.9112 100.741 58.2952C100.885 62.9032 100.837 67.4152 101.221 71.8312C101.317 73.2712 101.653 74.6632 101.749 76.0072C101.749 76.1992 101.317 76.3912 101.173 76.1992Z" fill="white"/>
<path d="M116.288 60.0232C116.576 64.8712 116.432 70.0552 115.904 74.8552C115.808 75.0472 115.712 75.3352 115.616 75.6712C115.472 75.9592 115.376 76.2472 115.136 76.5352C115.04 76.7272 114.416 76.8232 114.272 76.4872C114.368 75.3832 114.896 69.5752 114.752 67.0792C111.248 69.0952 107.984 72.6472 105.536 75.9592C105.296 76.1992 104.72 76.1992 104.624 75.7192C104.624 74.8552 104.96 74.1832 105.44 73.5112C105.92 72.8872 106.496 72.3112 106.928 71.6392C108.128 70.1992 109.52 68.9992 110.96 67.8472C109.808 67.9432 108.608 67.8472 107.456 67.3192C106.16 66.7432 105.296 65.6392 105.104 64.1992C104.96 63.3352 105.104 62.4232 105.536 61.7512C106.4 60.4072 107.552 59.2552 108.848 58.4872C110.384 57.5752 112.064 57.0952 113.936 57.2392C114.944 57.5752 116.096 57.9112 116.576 58.9672C116.672 59.3032 116.672 59.7352 116.288 60.0232ZM114.704 62.0872C114.704 61.0312 114.656 60.0232 114.512 59.0632C113.648 58.7272 112.928 58.6312 111.968 58.9192C110.96 59.2072 109.76 59.6872 108.8 60.4072C107.648 61.2712 106.784 62.3752 106.736 63.8152C106.832 64.4392 107.072 65.0632 107.6 65.5432C108.272 65.9752 109.136 66.2152 109.904 66.2632C111.632 66.4072 113.408 65.8792 114.752 65.2072C114.704 64.1992 114.704 63.1432 114.704 62.0872Z" fill="white"/>
<path d="M123.215 83.3992C122.975 83.5432 122.687 83.3032 122.687 83.0632C123.647 81.4312 125.375 77.3992 125.135 75.5272C124.607 75.5752 124.079 75.7192 123.599 75.6712C122.927 75.5752 122.591 75.1432 122.495 74.5192C122.399 73.7992 122.735 73.0312 123.119 72.4552C123.503 71.9272 124.031 71.6392 124.655 71.5432C126.191 71.3512 126.959 72.6952 127.007 74.0392C127.103 76.7272 125.567 80.5672 123.215 83.3992Z" fill="white"/>
<path d="M162.605 76.1512C160.301 74.8552 157.949 73.9432 155.501 73.0792C153.101 72.2152 150.797 71.3512 148.493 70.3432C148.445 72.0712 148.685 73.8472 149.117 75.4312C149.261 75.7192 149.165 76.2472 148.733 76.2472C148.349 76.2472 148.109 76.0072 147.965 75.7672C147.821 75.5752 147.725 75.2872 147.581 75.0472C147.053 73.3192 146.861 71.4472 146.861 69.5272C146.717 69.4312 146.525 69.2872 146.429 69.0472C146.285 68.9032 146.237 68.6152 146.381 68.3752C146.573 68.2312 146.765 67.9432 146.813 67.7512C146.909 67.1272 146.861 65.6872 147.005 65.0632C147.197 63.9592 147.485 62.6152 147.773 61.2712C148.109 59.9272 148.589 58.5832 149.213 57.4312C149.501 56.9512 150.221 57.0472 150.365 57.5752C150.317 58.1992 150.125 58.7752 149.933 59.3512C149.789 59.8792 149.501 60.4552 149.357 61.0312C148.877 62.7592 148.589 64.5352 148.541 66.3592C150.269 64.8232 151.997 63.3832 153.773 62.0392C155.981 60.4072 158.333 59.0152 160.829 58.0072C161.213 58.0072 161.693 58.0072 161.981 58.2472C162.269 58.4392 162.269 58.7272 162.125 59.0632C159.581 60.1192 157.277 61.5112 154.925 63.1432C152.717 64.7272 150.509 66.5512 148.445 68.5192V68.5672C150.797 69.8632 153.389 70.7272 155.885 71.5912C158.093 72.3592 160.205 73.2232 162.221 74.5192C162.653 74.7592 162.989 75.0952 163.229 75.5272C163.277 75.8152 162.893 76.1992 162.605 76.1512Z" fill="white"/>
<path d="M175.794 75.0952C173.634 76.1992 171.042 76.6792 168.69 75.5272C166.866 74.6152 165.57 73.0792 164.946 71.1592C164.226 68.9032 164.466 66.3592 165.426 64.2472C166.146 62.7112 167.25 61.3672 168.546 60.3592C169.41 59.7352 170.706 58.9672 171.906 58.8232C172.866 57.7192 174.45 57.3832 175.794 57.7192C178.098 58.3432 180.066 60.6952 180.69 62.7592C181.314 64.7752 181.458 66.9832 180.882 69.0472C180.162 71.8312 178.338 73.8472 175.794 75.0952ZM179.106 63.2872C178.53 61.7032 177.234 59.9272 175.554 59.3512C174.786 59.0632 173.97 58.9672 173.346 59.4472C172.722 59.9272 172.338 60.6952 172.05 61.3672C172.002 61.5112 172.002 61.7032 172.002 61.8952C172.002 62.0872 172.002 62.3272 171.954 62.5192C171.906 62.6152 171.426 62.9032 171.282 62.6152C171.186 62.1832 171.09 61.3192 171.138 60.6472C169.314 61.4152 167.778 62.9992 166.914 64.7752C166.002 66.6472 165.954 68.8072 166.53 70.7272C167.01 72.2152 167.922 73.4632 169.458 74.0872C171.378 74.8072 173.442 74.5672 175.17 73.7032C177.138 72.6952 178.53 71.1592 179.202 69.0952C179.826 67.2712 179.73 65.1112 179.106 63.2872Z" fill="white"/>
<path d="M197.863 59.6872C196.615 59.3992 195.367 59.1112 194.071 59.0632C193.015 60.4072 192.487 61.9912 192.199 63.6712C191.863 65.3992 191.911 67.2232 191.815 68.9992C191.719 71.3992 191.911 73.7032 192.199 75.9592C192.055 76.2472 191.623 76.4392 191.287 76.2472C190.471 75.2392 190.279 73.9432 190.231 72.6472C190.183 69.7672 190.135 66.7432 190.567 63.9112C190.855 62.0872 191.383 60.4072 192.487 58.8712C189.511 58.7272 186.775 59.3512 184.039 60.1192C183.655 60.0712 183.223 59.8312 182.983 59.4472C182.887 59.1112 183.079 58.9192 183.271 58.8232L183.559 58.7272L183.799 58.6312C185.815 57.8152 188.263 57.3832 190.615 57.3352C193.015 57.2392 195.415 57.4792 197.527 58.2472C197.767 58.3432 198.199 58.6792 198.343 58.9672C198.391 59.3032 198.151 59.7352 197.863 59.6872Z" fill="white"/>
<path d="M211.044 75.0952C208.884 76.1992 206.292 76.6792 203.94 75.5272C202.116 74.6152 200.82 73.0792 200.196 71.1592C199.476 68.9032 199.716 66.3592 200.676 64.2472C201.396 62.7112 202.5 61.3672 203.796 60.3592C204.66 59.7352 205.956 58.9672 207.156 58.8232C208.116 57.7192 209.7 57.3832 211.044 57.7192C213.348 58.3432 215.316 60.6952 215.94 62.7592C216.564 64.7752 216.708 66.9832 216.132 69.0472C215.412 71.8312 213.588 73.8472 211.044 75.0952ZM214.356 63.2872C213.78 61.7032 212.484 59.9272 210.804 59.3512C210.036 59.0632 209.22 58.9672 208.596 59.4472C207.972 59.9272 207.588 60.6952 207.3 61.3672C207.252 61.5112 207.252 61.7032 207.252 61.8952C207.252 62.0872 207.252 62.3272 207.204 62.5192C207.156 62.6152 206.676 62.9032 206.532 62.6152C206.436 62.1832 206.34 61.3192 206.388 60.6472C204.564 61.4152 203.028 62.9992 202.164 64.7752C201.252 66.6472 201.204 68.8072 201.78 70.7272C202.26 72.2152 203.172 73.4632 204.708 74.0872C206.628 74.8072 208.692 74.5672 210.42 73.7032C212.388 72.6952 213.78 71.1592 214.452 69.0952C215.076 67.2712 214.98 65.1112 214.356 63.2872Z" fill="white"/>
<path d="M220.969 59.6872H220.729C220.585 59.6872 220.393 59.5912 220.345 59.3512C220.297 58.9672 220.441 58.6312 220.729 58.3432C221.497 57.6712 222.361 57.3832 223.321 57.4312C223.993 57.4792 224.665 57.5752 225.337 57.8152L227.161 58.4392C229.753 59.3032 232.009 61.6072 233.257 64.1032C233.929 65.4952 234.169 66.9352 233.833 68.5192C233.497 69.9592 232.633 71.3032 231.481 72.4072C228.601 75.1432 225.001 75.9592 221.017 75.9592C220.969 79.2232 220.777 82.8712 221.209 86.0872C221.209 86.2312 221.305 86.4232 221.401 86.5672C221.449 86.8072 221.545 86.9992 221.353 87.2872C220.969 87.5752 220.585 87.4792 220.249 87.2872C219.769 86.7592 219.577 86.1832 219.529 85.5112C219.193 82.1032 219.337 78.7912 219.529 75.3352C219.097 74.9512 218.425 74.4232 218.281 73.8472C218.281 73.6552 218.329 73.4632 218.425 73.3672C218.569 73.1272 218.761 73.0792 218.857 73.1752C219.001 73.3192 219.289 73.5112 219.529 73.6552C219.817 68.8552 220.153 64.2952 220.969 59.6872ZM230.473 62.8072C229.417 61.5112 227.929 60.5992 226.489 59.9752C225.673 59.5912 223.369 58.7272 222.505 59.1112C222.553 59.7832 222.457 60.9832 222.361 61.5112C221.689 65.5912 221.257 69.9592 221.209 74.2792C224.521 74.5192 227.689 73.5112 230.233 71.3032C231.625 70.1032 232.441 68.4232 232.297 66.6952C232.201 65.2552 231.289 63.8152 230.473 62.8072Z" fill="white"/>
<path d="M244.17 73.7992C242.922 74.9032 241.386 75.6232 239.898 75.9592C238.698 76.2472 237.018 76.3912 236.01 75.3832C235.722 75.1432 235.29 74.3752 235.722 73.9432C236.058 74.1832 236.298 74.3752 236.586 74.5192C236.778 74.6632 236.97 74.7592 237.21 74.7592C237.162 71.4472 237.354 65.0632 237.45 61.8472C237.498 61.0792 237.402 60.2632 237.45 59.4952C237.546 58.7272 237.69 57.9592 238.314 57.3832C238.746 57.2392 239.13 57.1432 239.37 57.6232C239.13 58.4872 239.13 60.0232 239.082 61.7032C239.082 63.2392 239.082 64.8712 239.034 66.0232C239.706 65.5432 240.666 65.1592 241.578 65.0632C242.682 64.9672 243.834 65.1592 244.746 65.6872C246.186 66.4552 247.05 68.1352 246.666 69.8632C246.378 71.3512 245.37 72.7432 244.17 73.7992ZM244.794 67.8952C244.218 66.9832 243.21 66.6472 242.106 66.6472C241.002 66.6952 239.802 67.1272 239.082 67.7992L238.698 74.6632C240.186 74.3272 241.722 73.6552 242.97 72.5992C243.834 71.8792 244.65 71.0152 244.986 69.9112C245.226 69.2392 245.178 68.4232 244.794 67.8952ZM254.778 76.4872C253.578 76.1512 253.578 74.9512 253.434 73.9912C252.714 68.5192 253.146 63.2392 253.866 57.8152C254.298 57.1432 255.066 57.7192 255.258 58.1032C255.306 59.2072 255.258 60.2632 255.114 61.3672C255.018 62.4232 254.874 63.5272 254.874 64.6312C254.826 66.5032 254.73 68.4232 254.778 70.3432C254.778 72.2152 254.97 74.1352 255.258 75.9112C255.306 76.1512 255.018 76.4872 254.778 76.4872Z" fill="white"/>
<path d="M266.176 76.2472C263.776 76.1512 261.568 75.0472 260.176 72.9832C259.024 71.2552 258.736 69.2392 258.976 67.2712C259.264 65.0632 260.176 62.9512 261.424 61.3192C262.816 59.4952 264.784 58.0552 267.04 57.6232C268.576 57.3352 270.208 57.4792 271.36 58.7272C271.888 59.3032 272.368 59.9272 272.368 60.6952C272.416 61.5112 272.032 62.2312 271.36 62.7592C268 65.5432 264.448 68.1352 260.8 70.2472C260.896 71.7352 262.192 73.2712 263.584 74.0392C264.976 74.8072 266.608 74.9032 268.144 74.7112C269.68 74.5672 271.264 74.0392 272.368 73.5112C272.56 73.3672 272.704 73.5112 272.752 73.6552C272.8 73.7512 272.896 73.9432 272.704 74.0872C271.024 75.6232 268.624 76.3432 266.176 76.2472ZM268.288 59.1112C266.896 59.1112 265.504 59.6872 264.4 60.5512C262.048 62.4712 260.656 65.5432 260.656 68.5192C264.064 66.6472 267.28 64.1992 270.4 61.6552C270.64 61.4632 270.832 60.7432 270.496 60.1672C270.112 59.3992 269.248 59.1112 268.288 59.1112Z" fill="white"/>
<path d="M302.867 65.3992C302.531 68.8072 302.723 72.7912 302.963 76.1512C303.011 76.4872 302.531 76.5352 302.291 76.3912C301.619 75.8632 301.283 74.4712 301.235 73.6072C301.091 70.9192 301.091 68.4232 301.235 65.7352C297.683 65.8792 293.843 65.7832 290.339 66.1672C290.195 69.3832 290.291 72.4552 290.435 75.5272C290.483 75.6232 290.291 75.7672 290.051 75.8152C289.907 75.8152 289.667 75.7672 289.523 75.6232C288.899 74.9992 288.755 73.8472 288.707 73.0792C288.467 68.2312 288.803 63.3832 289.283 58.6312C289.379 58.3432 289.811 58.0552 290.195 58.2952C290.723 58.5352 290.723 59.1592 290.819 59.6392C290.723 60.8872 290.579 62.9992 290.435 64.4872C293.939 64.2472 297.827 64.3912 301.331 64.3432C301.523 61.9912 301.619 59.6392 302.195 57.4312C302.435 57.1432 302.915 57.3352 303.203 57.6232C303.443 57.9112 303.587 58.4872 303.587 58.8232C303.347 60.6472 303.011 62.4232 302.963 64.2952C303.107 64.2952 303.251 64.2472 303.395 64.2472C303.491 64.2472 303.635 64.3432 303.635 64.5832C303.635 64.6792 303.635 64.8712 303.539 64.9672C303.395 65.1592 303.107 65.3032 302.867 65.3992Z" fill="white"/>
<path d="M315.63 76.0552C312.99 76.7752 309.918 76.7272 307.854 74.9512C306.894 74.1352 306.174 72.9352 306.126 71.6392C306.078 70.4872 306.558 69.4312 307.23 68.4712C308.718 66.3592 311.31 64.9192 313.806 64.6312C314.862 64.5352 315.822 64.6792 316.59 65.4472C316.83 65.6872 316.59 66.1672 316.35 66.2632H315.918C315.774 66.2632 315.582 66.2152 315.438 66.2152C315.102 66.1672 314.814 66.1192 314.622 66.2632C312.318 66.3592 310.062 67.4632 308.67 69.3352C308.046 70.1512 307.71 70.7752 307.806 71.7832C307.902 73.1272 308.91 74.1352 310.302 74.6152C312.27 75.3352 314.718 74.9032 316.59 74.2312C317.598 73.8472 318.51 73.4632 319.374 72.8392C319.566 72.6952 319.758 72.8392 319.854 73.0792C319.902 73.2712 319.902 73.4632 319.902 73.6072C319.23 74.9032 316.542 75.8152 315.63 76.0552ZM318.318 72.7912C318.078 73.0792 317.646 73.0312 317.454 72.8872C316.974 72.5512 316.974 71.9272 316.974 71.4472C317.022 70.6312 317.166 69.8152 317.358 68.9512L317.982 66.3112C318.366 64.5832 318.606 62.8552 318.078 61.4152C317.646 60.1672 316.59 58.9192 315.294 58.7752C314.19 58.6312 313.086 59.0152 312.174 59.6872C311.694 60.0232 310.638 60.9352 310.35 61.4632C310.302 61.6552 310.398 61.9912 310.59 62.1832C310.782 62.3752 310.638 62.9512 310.206 62.8552C309.87 62.7592 309.486 62.6632 309.198 62.4232C308.814 62.0872 308.67 61.4632 308.958 60.9832C309.774 59.5912 310.926 58.4392 312.414 57.7672C313.374 57.2872 314.526 57.0952 315.726 57.2872C317.166 57.5272 318.414 58.5832 319.134 59.9272C320.238 61.9912 320.094 64.5832 319.566 66.8872C319.086 68.8552 318.606 70.6792 318.318 72.7912Z" fill="white"/>
<path d="M345.678 76.2472C345.342 76.1992 345.15 76.0072 345.006 75.7672L344.862 75.5272C343.086 71.6872 342.318 67.3672 342.27 62.8072C341.646 64.3432 341.022 65.8312 340.302 67.3192C339.486 68.9992 338.574 70.6312 337.278 72.1672C336.702 72.8872 335.598 72.9832 334.734 72.7912C334.014 72.4552 333.534 71.6392 333.198 70.9672C331.374 67.4632 330.51 63.5272 329.598 59.6872C329.598 59.6392 329.55 59.5912 329.502 59.6392C326.526 64.0072 324.798 68.9032 323.598 74.0872C323.406 74.5672 323.838 74.9992 323.886 75.4792C323.982 75.7672 323.79 76.0552 323.406 76.1992C322.878 76.2472 322.446 75.8152 322.206 75.4312C321.87 74.6152 321.918 73.7032 322.158 72.8872C323.742 67.7032 325.374 62.5672 328.734 58.0552C329.166 57.7672 329.598 57.7672 329.982 57.8632C330.462 57.8632 330.894 58.3432 330.942 58.6792C331.998 62.8072 332.862 67.0312 334.926 70.7752C335.214 71.1592 335.598 71.3992 336.03 71.2552C337.134 70.1992 337.854 68.9032 338.574 67.6072C340.014 64.9672 341.022 62.1832 342.126 59.3032L342.366 58.9672C342.51 58.8232 342.606 58.7272 342.846 58.7272C343.326 58.5832 343.662 58.9192 343.854 59.2552C343.758 62.2312 343.806 65.0152 344.142 67.7512C344.478 70.4872 345.102 73.1752 346.11 75.7672C346.158 76.1032 345.822 76.2472 345.678 76.2472Z" fill="white"/>
<path d="M370.223 76.0552C368.399 76.2952 366.479 76.1512 364.655 75.0472C362.255 73.6072 361.199 71.1112 361.343 68.3272C361.487 66.1672 362.159 64.1512 363.359 62.3272C364.559 60.5032 366.239 59.0152 368.255 58.0552C369.311 57.5272 370.751 57.2872 371.903 57.7672C372.863 58.1512 373.871 59.1592 374.063 60.1192C374.159 60.4072 373.679 61.0312 373.295 60.7432C372.767 60.2632 372.095 59.6392 371.423 59.3512C370.751 59.0632 370.127 59.0152 369.407 59.3032C367.535 60.0712 365.807 61.5592 364.655 63.3352C363.599 64.9672 362.975 66.8872 362.927 68.8552C362.927 70.6312 363.599 72.3112 365.087 73.4152C366.479 74.4232 368.303 74.6632 369.983 74.5192C372.815 74.2792 375.311 73.0792 377.807 71.9752C378.095 71.9752 378.527 72.4552 378.287 72.7912C375.887 74.1352 373.151 75.6232 370.223 76.0552Z" fill="white"/>
<path d="M394.41 59.6872C393.162 59.3992 391.914 59.1112 390.618 59.0632C389.562 60.4072 389.034 61.9912 388.746 63.6712C388.41 65.3992 388.458 67.2232 388.362 68.9992C388.266 71.3992 388.458 73.7032 388.746 75.9592C388.602 76.2472 388.17 76.4392 387.834 76.2472C387.018 75.2392 386.826 73.9432 386.778 72.6472C386.73 69.7672 386.682 66.7432 387.114 63.9112C387.402 62.0872 387.93 60.4072 389.034 58.8712C386.058 58.7272 383.322 59.3512 380.586 60.1192C380.202 60.0712 379.77 59.8312 379.53 59.4472C379.434 59.1112 379.626 58.9192 379.818 58.8232L380.106 58.7272L380.346 58.6312C382.362 57.8152 384.81 57.3832 387.162 57.3352C389.562 57.2392 391.962 57.4792 394.074 58.2472C394.314 58.3432 394.746 58.6792 394.89 58.9672C394.938 59.3032 394.698 59.7352 394.41 59.6872Z" fill="white"/>
<path d="M407.591 75.0952C405.431 76.1992 402.839 76.6792 400.487 75.5272C398.663 74.6152 397.367 73.0792 396.743 71.1592C396.023 68.9032 396.263 66.3592 397.223 64.2472C397.943 62.7112 399.047 61.3672 400.343 60.3592C401.207 59.7352 402.503 58.9672 403.703 58.8232C404.663 57.7192 406.247 57.3832 407.591 57.7192C409.895 58.3432 411.863 60.6952 412.487 62.7592C413.111 64.7752 413.255 66.9832 412.679 69.0472C411.959 71.8312 410.135 73.8472 407.591 75.0952ZM410.903 63.2872C410.327 61.7032 409.031 59.9272 407.351 59.3512C406.583 59.0632 405.767 58.9672 405.143 59.4472C404.519 59.9272 404.135 60.6952 403.847 61.3672C403.799 61.5112 403.799 61.7032 403.799 61.8952C403.799 62.0872 403.799 62.3272 403.751 62.5192C403.703 62.6152 403.223 62.9032 403.079 62.6152C402.983 62.1832 402.887 61.3192 402.935 60.6472C401.111 61.4152 399.575 62.9992 398.711 64.7752C397.799 66.6472 397.751 68.8072 398.327 70.7272C398.807 72.2152 399.719 73.4632 401.255 74.0872C403.175 74.8072 405.239 74.5672 406.967 73.7032C408.935 72.6952 410.327 71.1592 410.999 69.0952C411.623 67.2712 411.527 65.1112 410.903 63.2872Z" fill="white"/>
<path d="M430.236 76.1992C429.228 75.0472 428.94 73.5112 428.7 72.0232C428.22 68.5672 428.316 64.8712 428.22 61.2712C425.292 65.4472 422.988 69.6712 420.204 74.4232C419.916 74.7592 419.772 74.9992 419.292 75.1912C418.86 75.1912 418.476 75.1432 418.14 74.6632C415.836 70.3912 415.404 65.1592 415.74 59.9752C415.74 59.6392 415.836 59.0632 416.22 58.9192C416.844 58.7272 417.324 59.2552 417.324 59.6392C417.036 64.4392 417.564 68.9992 419.148 73.1272C420.828 70.2472 422.172 67.8472 423.612 65.4952C425.1 63.0472 426.684 60.6952 428.7 58.0072C429.084 57.7192 429.612 57.9112 429.804 58.2952C429.948 62.9032 429.9 67.4152 430.284 71.8312C430.38 73.2712 430.716 74.6632 430.812 76.0072C430.812 76.1992 430.38 76.3912 430.236 76.1992Z" fill="white"/>
<path d="M447.894 59.6872C446.646 59.3992 445.398 59.1112 444.102 59.0632C443.046 60.4072 442.518 61.9912 442.23 63.6712C441.894 65.3992 441.942 67.2232 441.846 68.9992C441.75 71.3992 441.942 73.7032 442.23 75.9592C442.086 76.2472 441.654 76.4392 441.318 76.2472C440.502 75.2392 440.31 73.9432 440.262 72.6472C440.214 69.7672 440.166 66.7432 440.598 63.9112C440.886 62.0872 441.414 60.4072 442.518 58.8712C439.542 58.7272 436.806 59.3512 434.07 60.1192C433.686 60.0712 433.254 59.8312 433.014 59.4472C432.918 59.1112 433.11 58.9192 433.302 58.8232L433.59 58.7272L433.83 58.6312C435.846 57.8152 438.294 57.3832 440.646 57.3352C443.046 57.2392 445.446 57.4792 447.558 58.2472C447.798 58.3432 448.23 58.6792 448.374 58.9672C448.422 59.3032 448.182 59.7352 447.894 59.6872Z" fill="white"/>
<path d="M474.579 72.2632C472.323 77.1592 470.547 82.1992 468.819 87.2872C468.675 87.5752 468.003 87.6712 467.859 87.2872C467.619 86.8552 467.763 85.7032 467.859 85.2712C468.627 82.0072 470.019 78.9832 471.171 75.8632C469.779 73.7992 468.003 70.9672 466.659 68.5192C464.979 65.3992 463.587 62.1352 463.059 58.5352C462.963 58.0552 463.251 57.5752 463.635 57.3832C463.923 57.2872 464.115 57.4312 464.259 57.5752C464.403 57.7192 464.499 57.9112 464.595 58.1032C465.075 60.9832 466.035 63.6712 467.235 66.2152C468.579 68.9512 470.163 71.5432 471.939 74.1352C473.043 71.7352 474.195 69.3352 475.443 66.9832C476.691 64.5832 478.083 62.2792 479.763 60.0232C480.099 59.5912 480.579 59.1112 481.011 59.3512C481.299 59.4952 481.539 59.9272 481.299 60.2632C478.755 64.1512 476.499 68.1352 474.579 72.2632Z" fill="white"/>
<path d="M495.322 69.3832C495.274 71.5432 495.322 73.8472 495.37 76.0072C495.418 76.2952 494.986 76.6792 494.602 76.4392C494.362 76.2472 494.026 75.5272 494.026 75.2392C493.738 73.6552 493.69 72.0232 493.69 70.3912C493.738 68.3272 493.882 66.2152 494.026 64.1992C493.114 65.9272 491.578 67.5112 489.85 68.4712C488.65 69.1432 487.354 69.4792 485.962 69.2872C484.81 69.0952 483.85 67.9432 483.658 66.8392C483.61 63.7672 484.042 60.6952 484.522 57.7672C485.098 57.2872 485.77 57.8152 485.77 58.2952C485.914 59.7352 485.722 61.1272 485.53 62.5192C485.386 63.8632 485.194 65.2552 485.29 66.5992C485.53 67.2232 486.154 67.7512 486.73 67.7512C488.698 67.5592 490.378 66.4552 491.626 64.9672C493.162 63.2392 494.122 61.0792 494.794 59.1592C494.938 58.6792 495.034 58.0552 495.562 57.8152C495.85 57.7192 496.234 57.8152 496.378 58.1992C495.946 61.8952 495.37 65.6392 495.322 69.3832Z" fill="white"/>
<path d="M506.27 76.2472C503.87 76.1512 501.662 75.0472 500.27 72.9832C499.118 71.2552 498.83 69.2392 499.07 67.2712C499.358 65.0632 500.27 62.9512 501.518 61.3192C502.91 59.4952 504.878 58.0552 507.134 57.6232C508.67 57.3352 510.302 57.4792 511.454 58.7272C511.982 59.3032 512.462 59.9272 512.462 60.6952C512.51 61.5112 512.126 62.2312 511.454 62.7592C508.094 65.5432 504.542 68.1352 500.894 70.2472C500.99 71.7352 502.286 73.2712 503.678 74.0392C505.07 74.8072 506.702 74.9032 508.238 74.7112C509.774 74.5672 511.358 74.0392 512.462 73.5112C512.654 73.3672 512.798 73.5112 512.846 73.6552C512.894 73.7512 512.99 73.9432 512.798 74.0872C511.118 75.6232 508.718 76.3432 506.27 76.2472ZM508.382 59.1112C506.99 59.1112 505.598 59.6872 504.494 60.5512C502.142 62.4712 500.75 65.5432 500.75 68.5192C504.158 66.6472 507.374 64.1992 510.494 61.6552C510.734 61.4632 510.926 60.7432 510.59 60.1672C510.206 59.3992 509.342 59.1112 508.382 59.1112Z" fill="white"/>
<path d="M523.458 76.0552C521.634 76.2952 519.714 76.1512 517.89 75.0472C515.49 73.6072 514.434 71.1112 514.578 68.3272C514.722 66.1672 515.394 64.1512 516.594 62.3272C517.794 60.5032 519.474 59.0152 521.49 58.0552C522.546 57.5272 523.986 57.2872 525.138 57.7672C526.098 58.1512 527.106 59.1592 527.298 60.1192C527.394 60.4072 526.914 61.0312 526.53 60.7432C526.002 60.2632 525.33 59.6392 524.658 59.3512C523.986 59.0632 523.362 59.0152 522.642 59.3032C520.77 60.0712 519.042 61.5592 517.89 63.3352C516.834 64.9672 516.21 66.8872 516.162 68.8552C516.162 70.6312 516.834 72.3112 518.322 73.4152C519.714 74.4232 521.538 74.6632 523.218 74.5192C526.05 74.2792 528.546 73.0792 531.042 71.9752C531.33 71.9752 531.762 72.4552 531.522 72.7912C529.122 74.1352 526.386 75.6232 523.458 76.0552Z" fill="white"/>
<path d="M547.644 59.6872C546.396 59.3992 545.148 59.1112 543.852 59.0632C542.796 60.4072 542.268 61.9912 541.98 63.6712C541.644 65.3992 541.692 67.2232 541.596 68.9992C541.5 71.3992 541.692 73.7032 541.98 75.9592C541.836 76.2472 541.404 76.4392 541.068 76.2472C540.252 75.2392 540.06 73.9432 540.012 72.6472C539.964 69.7672 539.916 66.7432 540.348 63.9112C540.636 62.0872 541.164 60.4072 542.268 58.8712C539.292 58.7272 536.556 59.3512 533.82 60.1192C533.436 60.0712 533.004 59.8312 532.764 59.4472C532.668 59.1112 532.86 58.9192 533.052 58.8232L533.34 58.7272L533.58 58.6312C535.596 57.8152 538.044 57.3832 540.396 57.3352C542.796 57.2392 545.196 57.4792 547.308 58.2472C547.548 58.3432 547.98 58.6792 548.124 58.9672C548.172 59.3032 547.932 59.7352 547.644 59.6872Z" fill="white"/>
<path d="M560.009 73.0312C558.953 74.0872 557.705 74.9992 556.313 75.5752C555.113 76.0552 553.721 76.1992 552.281 75.7672C552.233 76.0072 552.041 76.2952 551.801 76.2952C551.033 76.0072 550.745 75.2872 550.601 74.6632C550.265 68.8552 550.889 63.1432 551.897 57.7192C552.137 57.1912 553.097 56.9032 553.385 57.6712C553.097 60.4552 552.569 63.2392 552.425 66.0232C554.105 64.7272 556.265 64.1032 558.377 64.5832C559.769 64.9192 561.161 66.1672 561.593 67.5592C562.265 69.5752 561.545 71.5912 560.009 73.0312ZM557.993 66.2632C555.833 65.7352 553.817 66.6952 552.281 68.3272C552.281 70.1032 552.281 72.7912 552.233 74.2792C553.481 74.5672 554.729 74.4232 555.833 73.9432C557.273 73.3672 558.569 72.2632 559.577 70.9672C560.297 70.0552 560.345 68.6152 559.769 67.6072C559.433 66.9352 558.665 66.4072 557.993 66.2632Z" fill="white"/>
<path d="M578.912 55.8472C576.656 59.5432 574.064 63.1912 572 67.0792C571.76 67.2712 571.328 67.1752 571.232 66.9352C571.136 66.4072 571.184 65.9272 571.328 65.5432C571.424 65.1112 571.568 64.7752 571.712 64.3432C573.344 61.3672 575.36 58.5352 577.136 55.6552C577.664 54.7432 577.952 53.5432 577.856 52.3432C577.808 51.4792 577.472 50.6152 576.896 49.8952C575.744 48.4552 574.304 47.3512 572.72 46.8232C571.664 46.4392 570.56 46.3432 569.36 46.5832C568.592 46.7272 567.92 47.0632 567.248 47.6872C566.624 48.2632 566.096 48.9832 565.856 49.7992C565.568 50.0392 565.04 50.0392 564.896 49.6072C564.752 48.9832 564.992 48.4552 565.184 47.8792C566 46.4872 567.152 45.5272 568.496 45.0472C569.648 44.6632 570.8 44.5672 572 44.7592C573.392 44.9992 574.64 45.5752 575.792 46.3912C576.944 47.2072 577.952 48.2632 578.72 49.5592C579.344 50.5192 579.632 51.8152 579.584 53.0632C579.584 54.0232 579.392 55.0792 578.912 55.8472ZM575.84 76.5832C574.64 76.5832 573.44 76.2952 572.384 75.7672C571.28 75.1912 570.32 74.4712 569.6 73.4152C569.408 73.1272 569.36 72.6472 569.456 72.2632C569.552 71.8792 569.84 71.6392 570.32 71.8312L571.472 73.0792C571.856 73.4632 572.288 73.8472 572.672 74.1352C573.776 74.9512 575.168 75.3832 576.56 75.8152C576.704 76.1512 576.176 76.4872 575.84 76.5832Z" fill="white"/>
</svg>
