<svg width="234" height="63" viewBox="0 0 234 63" fill="none" xmlns="http://www.w3.org/2000/svg">
<path d="M10.5244 7.52702C10.348 7.73801 10.1716 7.91383 9.88932 8.08966C9.53647 8.12482 9.25419 8.08966 9.0072 7.949C8.23093 7.59735 7.34881 7.03472 6.71368 6.57758C6.6784 7.70284 6.57254 8.86328 6.71368 9.95338C6.64311 10.516 6.00798 10.2699 5.93741 10.1292C5.86684 10.0589 5.79627 9.98855 5.76099 9.88305C5.69042 9.81272 5.61985 9.70723 5.58457 9.60174C5.514 9.28525 5.514 8.96877 5.514 8.68745C5.54928 8.08966 5.58457 7.45669 5.58457 6.85889C4.77301 7.63252 3.78504 8.30064 2.72649 8.68745C2.4795 8.72262 2.09136 8.72262 1.80908 8.47647C1.38566 8.12482 1.7738 7.52702 2.26779 7.21054L2.51478 7.66768C2.76177 7.59735 3.00877 7.42153 3.25576 7.31603C3.99675 6.85889 4.73773 6.19077 5.33757 5.52264C4.20845 4.60836 3.07934 3.48309 2.12665 2.46331C1.87965 2.25233 1.98551 1.93584 2.09136 1.76002C2.40893 1.33805 2.90291 1.61936 3.00877 1.72486C3.82032 2.60397 4.66716 3.44792 5.54928 4.25671C5.54928 3.30726 5.58457 2.35782 5.514 1.4787L5.23172 0.669917C5.19643 0.458928 5.33757 -0.0333767 5.79627 0.00178956C6.11384 0.107282 6.29026 0.353436 6.4314 0.634753L6.53726 0.880905C6.64311 1.12706 6.71368 1.5842 6.71368 1.83035V3.76441L6.81954 3.58858L7.56052 2.60397C7.80751 2.25233 8.16036 1.97101 8.58378 1.72486C9.14834 1.40837 10.2069 1.72486 9.88932 2.7798C9.64233 2.74463 9.57176 2.70947 9.4659 2.6743C9.39533 2.6743 9.32476 2.63914 9.18362 2.60397C8.97191 2.53364 8.26622 3.48309 8.16036 3.62375C7.73694 4.18638 7.38409 4.78418 6.92539 5.38198C7.77223 6.01494 8.68963 6.57758 9.7129 7.06988C9.78347 6.96439 9.85404 6.92922 9.92461 6.89406C9.99518 6.82373 10.0657 6.78856 10.3127 6.68307C10.595 6.96439 10.6303 7.17538 10.595 7.31603C10.5597 7.38636 10.5244 7.42153 10.5244 7.52702Z" fill="white"/>
<path d="M24.2387 7.52702C24.0623 7.73801 23.8858 7.91383 23.6036 8.08966C23.2507 8.12482 22.9684 8.08966 22.7214 7.949C21.9452 7.59735 21.063 7.03472 20.4279 6.57758C20.3926 7.70284 20.2868 8.86328 20.4279 9.95338C20.3574 10.516 19.7222 10.2699 19.6517 10.1292C19.5811 10.0589 19.5105 9.98855 19.4752 9.88305C19.4047 9.81272 19.3341 9.70723 19.2988 9.60174C19.2282 9.28525 19.2282 8.96877 19.2282 8.68745C19.2635 8.08966 19.2988 7.45669 19.2988 6.85889C18.4873 7.63252 17.4993 8.30064 16.4407 8.68745C16.1937 8.72262 15.8056 8.72262 15.5233 8.47647C15.0999 8.12482 15.488 7.52702 15.982 7.21054L16.229 7.66768C16.476 7.59735 16.723 7.42153 16.97 7.31603C17.711 6.85889 18.452 6.19077 19.0518 5.52264C17.9227 4.60836 16.7936 3.48309 15.8409 2.46331C15.5939 2.25233 15.6997 1.93584 15.8056 1.76002C16.1232 1.33805 16.6172 1.61936 16.723 1.72486C17.5346 2.60397 18.3814 3.44792 19.2635 4.25671C19.2635 3.30726 19.2988 2.35782 19.2282 1.4787L18.946 0.669917C18.9107 0.458928 19.0518 -0.0333767 19.5105 0.00178956C19.8281 0.107282 20.0045 0.353436 20.1456 0.634753L20.2515 0.880905C20.3574 1.12706 20.4279 1.5842 20.4279 1.83035V3.76441L20.5338 3.58858L21.2748 2.60397C21.5218 2.25233 21.8746 1.97101 22.298 1.72486C22.8626 1.40837 23.9211 1.72486 23.6036 2.7798C23.3566 2.74463 23.286 2.70947 23.1801 2.6743C23.1096 2.6743 23.039 2.63914 22.8979 2.60397C22.6862 2.53364 21.9805 3.48309 21.8746 3.62375C21.4512 4.18638 21.0983 4.78418 20.6396 5.38198C21.4865 6.01494 22.4039 6.57758 23.4271 7.06988C23.4977 6.96439 23.5683 6.92922 23.6388 6.89406C23.7094 6.82373 23.78 6.78856 24.027 6.68307C24.3093 6.96439 24.3445 7.17538 24.3093 7.31603C24.274 7.38636 24.2387 7.42153 24.2387 7.52702Z" fill="white"/>
<path d="M34.6362 22.7533C33.5776 23.4566 32.2721 24.0192 30.9665 24.0192C30.2255 24.0192 29.6963 23.7028 29.2023 22.9995C29.0259 23.1401 28.7083 23.2456 28.5671 23.0346C27.932 22.1555 27.7556 20.9247 27.7203 19.7292C27.6497 16.6698 27.685 14.4193 28.4966 11.6764C28.5672 11.3951 29.2376 10.8677 29.7316 11.0083C29.9433 10.4457 30.5078 9.84789 31.1782 9.77756C32.9778 9.77756 34.9184 10.727 35.5183 12.5204C35.6947 13.083 35.6947 13.6808 35.483 14.2435C35.2713 14.7709 34.9184 15.2281 34.4597 15.5797L34.248 15.7555C35.1301 16.0369 36.1181 16.5995 36.6827 17.4786C37.1061 18.1467 37.1414 18.9555 36.965 19.7292C36.6474 20.9951 35.73 22.0149 34.6362 22.7533ZM35.6241 18.0764C35.3418 17.5489 34.5656 17.2325 34.001 16.9511C33.3306 16.5292 32.7308 16.705 32.0604 16.8456L31.0018 17.0918C30.6137 17.1973 30.2255 17.1973 29.8021 17.0918C29.6257 16.9863 29.414 16.6347 29.5904 16.4588C30.0138 16.0369 30.5431 15.8259 31.1429 15.6852L32.7661 15.5094C33.4012 15.1577 34.0716 14.4545 34.3539 13.7863C34.5303 13.2237 34.4244 12.8369 34.0716 12.3797C33.4365 11.5006 32.4132 11.1138 31.3899 11.0083C31.0724 10.9732 30.9665 11.0435 30.896 11.2545C30.7901 11.5358 30.7195 11.8523 30.5431 12.0984C30.4725 12.2742 30.2255 12.3446 30.0491 12.2391C29.908 12.2039 29.8021 12.1336 29.7316 12.0633C29.3081 13.5753 29.0611 15.2984 28.9906 17.0918C28.92 18.7797 28.9906 20.4324 29.2376 21.9797C29.5198 21.6632 29.8727 21.2061 30.0491 20.9599C30.2961 20.7138 30.7548 21.1006 30.6842 21.3467C30.6137 21.5225 30.4725 21.7335 30.3667 21.9094C30.2961 22.1203 30.1903 22.2962 30.1903 22.4368C30.402 22.7533 30.896 22.8588 31.4958 22.7885C32.3779 22.6478 33.4365 22.1555 34.2127 21.5577C34.9184 20.9951 35.5183 20.2918 35.6947 19.4127C35.8005 18.9907 35.8711 18.4984 35.6241 18.0764Z" fill="white"/>
<path d="M44.6772 21.9094C43.7598 22.7181 42.6307 23.2456 41.5368 23.4918C40.6547 23.7028 39.4197 23.8082 38.6787 23.0698C38.467 22.894 38.1495 22.3313 38.467 22.0149C38.714 22.1907 38.8905 22.3313 39.1022 22.4368C39.2433 22.5423 39.3844 22.6127 39.5609 22.6127C39.5256 20.1863 39.6667 15.5094 39.7373 13.1534C39.7726 12.5907 39.702 11.9929 39.7373 11.4303C39.8079 10.8677 39.9137 10.305 40.3724 9.88305C40.69 9.77756 40.9723 9.70723 41.1487 10.0589C40.9723 10.6918 40.9723 11.8171 40.937 13.0479C40.937 14.1731 40.937 15.3687 40.9017 16.2127C41.3957 15.861 42.1014 15.5797 42.7718 15.5094C43.5833 15.4391 44.4302 15.5797 45.1006 15.9665C46.1591 16.5292 46.7943 17.7599 46.512 19.0259C46.3003 20.116 45.5593 21.1357 44.6772 21.9094ZM45.1359 17.5841C44.7125 16.916 43.9715 16.6698 43.1599 16.6698C42.3484 16.705 41.4663 17.0215 40.937 17.5138L40.6547 22.5423C41.7485 22.2962 42.8776 21.8039 43.7951 21.0302C44.4302 20.5028 45.03 19.8698 45.277 19.061C45.4534 18.5687 45.4182 17.9709 45.1359 17.5841ZM52.4751 23.8786C51.593 23.6324 51.593 22.7533 51.4872 22.05C50.9579 18.0412 51.2754 14.1731 51.8047 10.1995C52.1223 9.70723 52.6868 10.1292 52.828 10.4105C52.8633 11.2193 52.828 11.9929 52.7221 12.8017C52.6516 13.5753 52.5457 14.3841 52.5457 15.1929C52.5104 16.5643 52.4399 17.9709 52.4751 19.3775C52.4751 20.7489 52.6163 22.1555 52.828 23.4566C52.8633 23.6324 52.6516 23.8786 52.4751 23.8786Z" fill="white"/>
<path d="M66.6056 2.21716C65.8294 2.49848 64.9825 2.6743 64.2063 2.95562C62.7949 3.41276 61.8422 4.01056 60.8542 5.10066C59.8662 6.1556 59.2311 7.42153 58.6665 8.75778C58.102 10.1292 57.7138 11.6413 57.2904 13.083C58.5607 12.2039 60.0426 11.4303 61.5952 11.1841C62.9713 10.938 64.4885 11.2193 65.6882 11.9929C66.9585 12.8017 67.8053 14.2083 68.1582 15.6852C68.511 17.2676 68.3699 18.7445 67.5583 20.1511C66.8526 21.4171 65.7588 22.472 64.418 23.105C63.2889 23.6676 61.8069 23.8434 60.4661 23.6324C58.9135 23.4214 57.6785 22.7181 56.7611 21.4874C55.7732 20.1511 55.4909 18.5336 55.5262 16.8808C55.5967 14.5951 56.2672 12.1336 56.867 10.2699C57.608 8.01933 58.6665 5.5578 60.5013 3.79957C61.3835 2.95562 62.442 2.28749 63.5711 1.90068C64.3474 1.65453 65.159 1.4787 65.9705 1.23255C66.7468 0.986399 67.4878 0.669917 68.1582 0.107282C68.3699 0.0721179 68.7227 0.107282 68.7933 0.318271C68.9344 0.529259 68.9344 0.810576 68.7933 0.986399C68.1229 1.5842 67.3819 1.97101 66.6056 2.21716ZM66.5351 14.7358C66.0764 13.716 65.1589 12.9424 64.1357 12.6259C63.1124 12.2742 61.8069 12.3446 60.7836 12.6611C59.3722 13.083 58.0667 13.927 56.9376 14.9468C56.62 16.494 56.6553 18.3577 57.1846 19.7643C57.4316 20.4676 57.9255 21.1006 58.5607 21.5929C59.6192 22.4368 60.7131 22.5423 62.0539 22.4017C63.5006 22.261 64.8061 21.5929 65.8646 20.5028C66.7115 19.6588 67.0643 18.8149 67.0996 17.5841C67.1349 16.5643 66.9232 15.5446 66.5351 14.7358Z" fill="white"/>
<path d="M75.4988 23.7028C73.7346 23.6324 72.1114 22.8236 71.0882 21.3116C70.2414 20.0456 70.0296 18.5687 70.2061 17.127C70.4178 15.5094 71.0882 13.9621 72.0056 12.7666C73.0289 11.4303 74.4755 10.3754 76.1339 10.0589C77.263 9.84789 78.4627 9.95338 79.3096 10.8677C79.6977 11.2896 80.0505 11.7468 80.0505 12.3094C80.0858 12.9072 79.8036 13.4347 79.3096 13.8215C76.8396 15.861 74.2285 17.7599 71.5469 19.3072C71.6175 20.3973 72.5702 21.5225 73.5934 22.0852C74.6167 22.6478 75.8164 22.7181 76.9455 22.5775C78.0746 22.472 79.239 22.0852 80.0505 21.6984C80.1917 21.5929 80.2975 21.6984 80.3328 21.8039C80.3681 21.8742 80.4387 22.0149 80.2975 22.1203C79.0626 23.2456 77.2983 23.7731 75.4988 23.7028ZM77.0513 11.149C76.0281 11.149 75.0048 11.571 74.1933 12.2039C72.4643 13.6105 71.441 15.861 71.441 18.0412C73.9463 16.6698 76.3103 14.8764 78.6039 13.0127C78.7803 12.872 78.9214 12.3446 78.6744 11.9226C78.3922 11.36 77.757 11.149 77.0513 11.149Z" fill="white"/>
<path d="M83.5818 11.571H83.4054C83.2995 11.571 83.1584 11.5006 83.1231 11.3248C83.0878 11.0435 83.1937 10.7973 83.4054 10.5863C83.9699 10.094 84.6051 9.88305 85.3108 9.91822C85.8047 9.95338 86.2987 10.0237 86.7927 10.1995L88.1335 10.6567C90.0389 11.2896 91.6973 12.9775 92.6147 14.8061C93.1087 15.8259 93.2851 16.8808 93.0381 18.0412C92.7911 19.0962 92.156 20.0808 91.3092 20.8896C89.1921 22.894 86.5457 23.4918 83.6171 23.4918C83.5818 25.883 83.4407 28.5555 83.7582 30.9115C83.7582 31.017 83.8288 31.1577 83.8994 31.2632C83.9346 31.439 84.0052 31.5796 83.8641 31.7906C83.5818 32.0016 83.2995 31.9313 83.0525 31.7906C82.6997 31.4038 82.5585 30.9818 82.5232 30.4895C82.2763 27.9928 82.3821 25.5665 82.5232 23.0346C82.2057 22.7533 81.7117 22.3665 81.6058 21.9445C81.6058 21.8039 81.6411 21.6632 81.7117 21.5929C81.8175 21.4171 81.9587 21.3819 82.0293 21.4522C82.1351 21.5577 82.3468 21.6984 82.5232 21.8039C82.735 18.2874 82.982 14.9468 83.5818 11.571ZM90.5682 13.8567C89.7919 12.9072 88.6981 12.2391 87.6396 11.7819C87.0397 11.5006 85.346 10.8677 84.7109 11.149C84.7462 11.6413 84.6756 12.5204 84.605 12.9072C84.1111 15.8962 83.7935 19.0962 83.7582 22.261C86.1929 22.4368 88.5217 21.6984 90.3918 20.0808C91.415 19.2017 92.0149 17.9709 91.909 16.705C91.8385 15.6501 91.168 14.5951 90.5682 13.8567Z" fill="white"/>
<path d="M105.647 23.6676C104.906 22.8236 104.695 21.6984 104.518 20.6083C104.165 18.0764 104.236 15.3687 104.165 12.7314C102.013 15.7907 100.319 18.8852 98.2727 22.3665C98.061 22.6127 97.9551 22.7885 97.6023 22.9291C97.2847 22.9291 97.0025 22.894 96.7555 22.5423C95.0618 19.4127 94.7442 15.5797 94.9912 11.7819C94.9912 11.5358 95.0618 11.1138 95.3441 11.0083C95.8028 10.8677 96.1556 11.2545 96.1556 11.5358C95.9439 15.0523 96.332 18.3929 97.4964 21.4171C98.7314 19.3072 99.7194 17.5489 100.778 15.8259C101.872 14.0325 103.036 12.3094 104.518 10.3402C104.8 10.1292 105.189 10.2699 105.33 10.5512C105.436 13.927 105.4 17.2325 105.683 20.4676C105.753 21.5225 106 22.5423 106.071 23.5269C106.071 23.6676 105.753 23.8082 105.647 23.6676Z" fill="white"/>
<path d="M118.628 11.571C117.711 11.36 116.793 11.149 115.84 11.1138C115.064 12.0984 114.676 13.2589 114.464 14.4896C114.217 15.7555 114.253 17.0918 114.182 18.3929C114.111 20.1511 114.253 21.839 114.464 23.4918C114.358 23.7028 114.041 23.8434 113.794 23.7028C113.194 22.9643 113.053 22.0149 113.018 21.0654C112.982 18.9555 112.947 16.7402 113.265 14.6654C113.476 13.3292 113.864 12.0984 114.676 10.9732C112.488 10.8677 110.477 11.3248 108.466 11.8874C108.184 11.8523 107.866 11.6764 107.69 11.3951C107.619 11.149 107.76 11.0083 107.901 10.938L108.113 10.8677L108.289 10.7973C109.771 10.1995 111.571 9.88305 113.3 9.84789C115.064 9.77756 116.828 9.95338 118.381 10.516C118.557 10.5863 118.875 10.8325 118.981 11.0435C119.016 11.2896 118.84 11.6061 118.628 11.571Z" fill="white"/>
<path d="M125.601 23.7028C123.836 23.6324 122.213 22.8236 121.19 21.3116C120.343 20.0456 120.131 18.5687 120.308 17.127C120.52 15.5094 121.19 13.9621 122.107 12.7666C123.131 11.4303 124.577 10.3754 126.236 10.0589C127.365 9.84789 128.564 9.95338 129.411 10.8677C129.799 11.2896 130.152 11.7468 130.152 12.3094C130.188 12.9072 129.905 13.4347 129.411 13.8215C126.941 15.861 124.33 17.7599 121.649 19.3072C121.719 20.3973 122.672 21.5225 123.695 22.0852C124.718 22.6478 125.918 22.7181 127.047 22.5775C128.176 22.472 129.341 22.0852 130.152 21.6984C130.293 21.5929 130.399 21.6984 130.435 21.8039C130.47 21.8742 130.54 22.0149 130.399 22.1203C129.164 23.2456 127.4 23.7731 125.601 23.7028ZM127.153 11.149C126.13 11.149 125.107 11.571 124.295 12.2039C122.566 13.6105 121.543 15.861 121.543 18.0412C124.048 16.6698 126.412 14.8764 128.706 13.0127C128.882 12.872 129.023 12.3446 128.776 11.9226C128.494 11.36 127.859 11.149 127.153 11.149Z" fill="white"/>
<path d="M148.726 22.7533C147.668 23.4566 146.362 24.0192 145.057 24.0192C144.316 24.0192 143.786 23.7028 143.292 22.9995C143.116 23.1401 142.798 23.2456 142.657 23.0346C142.022 22.1555 141.846 20.9247 141.81 19.7292C141.74 16.6698 141.775 14.4193 142.587 11.6764C142.657 11.3951 143.328 10.8677 143.822 11.0083C144.033 10.4457 144.598 9.84789 145.268 9.77756C147.068 9.77756 149.008 10.727 149.608 12.5204C149.785 13.083 149.785 13.6808 149.573 14.2435C149.361 14.7709 149.008 15.2281 148.55 15.5797L148.338 15.7555C149.22 16.0369 150.208 16.5995 150.773 17.4786C151.196 18.1467 151.231 18.9555 151.055 19.7292C150.737 20.9951 149.82 22.0149 148.726 22.7533ZM149.714 18.0764C149.432 17.5489 148.656 17.2325 148.091 16.9511C147.421 16.5292 146.821 16.705 146.15 16.8456L145.092 17.0918C144.704 17.1973 144.316 17.1973 143.892 17.0918C143.716 16.9863 143.504 16.6347 143.68 16.4588C144.104 16.0369 144.633 15.8259 145.233 15.6852L146.856 15.5094C147.491 15.1577 148.162 14.4545 148.444 13.7863C148.62 13.2237 148.515 12.8369 148.162 12.3797C147.527 11.5006 146.503 11.1138 145.48 11.0083C145.162 10.9732 145.057 11.0435 144.986 11.2545C144.88 11.5358 144.81 11.8523 144.633 12.0984C144.563 12.2742 144.316 12.3446 144.139 12.2391C143.998 12.2039 143.892 12.1336 143.822 12.0633C143.398 13.5753 143.151 15.2984 143.081 17.0918C143.01 18.7797 143.081 20.4324 143.328 21.9797C143.61 21.6632 143.963 21.2061 144.139 20.9599C144.386 20.7138 144.845 21.1006 144.774 21.3467C144.704 21.5225 144.563 21.7335 144.457 21.9094C144.386 22.1203 144.28 22.2962 144.28 22.4368C144.492 22.7533 144.986 22.8588 145.586 22.7885C146.468 22.6478 147.527 22.1555 148.303 21.5577C149.008 20.9951 149.608 20.2918 149.785 19.4127C149.891 18.9907 149.961 18.4984 149.714 18.0764Z" fill="white"/>
<path d="M159.473 23.5621C157.532 24.0896 155.274 24.0544 153.757 22.7533C153.051 22.1555 152.522 21.2764 152.487 20.3269C152.451 19.483 152.804 18.7094 153.298 18.0061C154.392 16.4588 156.297 15.4039 158.132 15.1929C158.908 15.1226 159.614 15.2281 160.179 15.7907C160.355 15.9665 160.179 16.3182 160.002 16.3885H159.685C159.579 16.3885 159.438 16.3533 159.332 16.3533C159.085 16.3182 158.873 16.283 158.732 16.3885C157.038 16.4588 155.38 17.2676 154.357 18.639C153.898 19.2368 153.651 19.694 153.722 20.4324C153.792 21.4171 154.533 22.1555 155.556 22.5072C157.003 23.0346 158.803 22.7181 160.179 22.2258C160.92 21.9445 161.59 21.6632 162.225 21.2061C162.366 21.1006 162.507 21.2061 162.578 21.3819C162.613 21.5225 162.613 21.6632 162.613 21.7687C162.119 22.7181 160.143 23.3863 159.473 23.5621ZM161.449 21.1709C161.272 21.3819 160.955 21.3467 160.814 21.2412C160.461 20.9951 160.461 20.5379 160.461 20.1863C160.496 19.5885 160.602 18.9907 160.743 18.3577L161.202 16.4237C161.484 15.1577 161.661 13.8918 161.272 12.8369C160.955 11.9226 160.179 11.0083 159.226 10.9028C158.414 10.7973 157.603 11.0786 156.932 11.571C156.58 11.8171 155.803 12.4852 155.592 12.872C155.556 13.0127 155.627 13.2589 155.768 13.3995C155.909 13.5402 155.803 13.9621 155.486 13.8918C155.239 13.8215 154.956 13.7512 154.745 13.5753C154.462 13.3292 154.357 12.872 154.568 12.5204C155.168 11.5006 156.015 10.6567 157.109 10.1644C157.815 9.81272 158.661 9.67206 159.544 9.81272C160.602 9.98855 161.519 10.7622 162.049 11.7468C162.86 13.2589 162.754 15.1577 162.366 16.8456C162.013 18.2874 161.661 19.6237 161.449 21.1709Z" fill="white"/>
<path d="M166.177 11.571H166.001C165.895 11.571 165.754 11.5006 165.719 11.3248C165.683 11.0435 165.789 10.7973 166.001 10.5863C166.565 10.094 167.201 9.88305 167.906 9.91822C168.4 9.95338 168.894 10.0237 169.388 10.1995L170.729 10.6567C172.634 11.2896 174.293 12.9775 175.21 14.8061C175.704 15.8259 175.881 16.8808 175.634 18.0412C175.387 19.0962 174.752 20.0808 173.905 20.8896C171.788 22.894 169.141 23.4918 166.213 23.4918C166.177 25.883 166.036 28.5555 166.354 30.9115C166.354 31.017 166.424 31.1577 166.495 31.2632C166.53 31.439 166.601 31.5796 166.46 31.7906C166.177 32.0016 165.895 31.9313 165.648 31.7906C165.295 31.4038 165.154 30.9818 165.119 30.4895C164.872 27.9928 164.978 25.5665 165.119 23.0346C164.801 22.7533 164.307 22.3665 164.201 21.9445C164.201 21.8039 164.237 21.6632 164.307 21.5929C164.413 21.4171 164.554 21.3819 164.625 21.4522C164.731 21.5577 164.942 21.6984 165.119 21.8039C165.33 18.2874 165.577 14.9468 166.177 11.571ZM173.164 13.8567C172.387 12.9072 171.294 12.2391 170.235 11.7819C169.635 11.5006 167.942 10.8677 167.306 11.149C167.342 11.6413 167.271 12.5204 167.201 12.9072C166.707 15.8962 166.389 19.0962 166.354 22.261C168.788 22.4368 171.117 21.6984 172.987 20.0808C174.011 19.2017 174.61 17.9709 174.505 16.705C174.434 15.6501 173.764 14.5951 173.164 13.8567Z" fill="white"/>
<path d="M188.243 23.6676C187.502 22.8236 187.29 21.6984 187.114 20.6083C186.761 18.0764 186.831 15.3687 186.761 12.7314C184.608 15.7907 182.915 18.8852 180.868 22.3665C180.657 22.6127 180.551 22.7885 180.198 22.9291C179.88 22.9291 179.598 22.894 179.351 22.5423C177.657 19.4127 177.34 15.5797 177.587 11.7819C177.587 11.5358 177.657 11.1138 177.94 11.0083C178.398 10.8677 178.751 11.2545 178.751 11.5358C178.539 15.0523 178.928 18.3929 180.092 21.4171C181.327 19.3072 182.315 17.5489 183.373 15.8259C184.467 14.0325 185.632 12.3094 187.114 10.3402C187.396 10.1292 187.784 10.2699 187.925 10.5512C188.031 13.927 187.996 17.2325 188.278 20.4676C188.349 21.5225 188.596 22.5423 188.666 23.5269C188.666 23.6676 188.349 23.8082 188.243 23.6676Z" fill="white"/>
<path d="M197.342 23.5621C195.402 24.0896 193.143 24.0544 191.626 22.7533C190.92 22.1555 190.391 21.2764 190.356 20.3269C190.32 19.483 190.673 18.7094 191.167 18.0061C192.261 16.4588 194.167 15.4039 196.001 15.1929C196.778 15.1226 197.483 15.2281 198.048 15.7907C198.224 15.9665 198.048 16.3182 197.871 16.3885H197.554C197.448 16.3885 197.307 16.3533 197.201 16.3533C196.954 16.3182 196.742 16.283 196.601 16.3885C194.907 16.4588 193.249 17.2676 192.226 18.639C191.767 19.2368 191.52 19.694 191.591 20.4324C191.661 21.4171 192.402 22.1555 193.426 22.5072C194.872 23.0346 196.672 22.7181 198.048 22.2258C198.789 21.9445 199.459 21.6632 200.094 21.2061C200.236 21.1006 200.377 21.2061 200.447 21.3819C200.483 21.5225 200.483 21.6632 200.483 21.7687C199.989 22.7181 198.013 23.3863 197.342 23.5621ZM199.318 21.1709C199.142 21.3819 198.824 21.3467 198.683 21.2412C198.33 20.9951 198.33 20.5379 198.33 20.1863C198.365 19.5885 198.471 18.9907 198.612 18.3577L199.071 16.4237C199.353 15.1577 199.53 13.8918 199.142 12.8369C198.824 11.9226 198.048 11.0083 197.095 10.9028C196.284 10.7973 195.472 11.0786 194.802 11.571C194.449 11.8171 193.673 12.4852 193.461 12.872C193.426 13.0127 193.496 13.2589 193.637 13.3995C193.778 13.5402 193.673 13.9621 193.355 13.8918C193.108 13.8215 192.826 13.7512 192.614 13.5753C192.332 13.3292 192.226 12.872 192.438 12.5204C193.037 11.5006 193.884 10.6567 194.978 10.1644C195.684 9.81272 196.531 9.67206 197.413 9.81272C198.471 9.98855 199.389 10.7622 199.918 11.7468C200.73 13.2589 200.624 15.1577 200.236 16.8456C199.883 18.2874 199.53 19.6237 199.318 21.1709Z" fill="white"/>
<path d="M213.115 15.7555C212.868 18.2522 213.009 21.1709 213.185 23.6324C213.221 23.8786 212.868 23.9137 212.691 23.8082C212.197 23.4214 211.95 22.4017 211.915 21.7687C211.809 19.7995 211.809 17.9709 211.915 16.0017C209.304 16.1072 206.481 16.0369 203.905 16.3182C203.8 18.6742 203.87 20.9247 203.976 23.1753C204.011 23.2456 203.87 23.3511 203.694 23.3863C203.588 23.3863 203.411 23.3511 203.306 23.2456C202.847 22.7885 202.741 21.9445 202.706 21.3819C202.529 17.8303 202.776 14.2786 203.129 10.7973C203.2 10.5863 203.517 10.3754 203.8 10.5512C204.188 10.727 204.188 11.1841 204.258 11.5358C204.188 12.4501 204.082 13.9973 203.976 15.0874C206.552 14.9116 209.41 15.0171 211.986 14.9819C212.127 13.2589 212.197 11.5358 212.621 9.91822C212.797 9.70723 213.15 9.84789 213.362 10.0589C213.538 10.2699 213.644 10.6918 213.644 10.938C213.468 12.2742 213.221 13.5753 213.185 14.9468C213.291 14.9468 213.397 14.9116 213.503 14.9116C213.573 14.9116 213.679 14.9819 213.679 15.1577C213.679 15.2281 213.679 15.3687 213.609 15.4391C213.503 15.5797 213.291 15.6852 213.115 15.7555Z" fill="white"/>
<path d="M226.378 11.571C225.46 11.36 224.543 11.149 223.59 11.1138C222.814 12.0984 222.426 13.2589 222.214 14.4896C221.967 15.7555 222.002 17.0918 221.932 18.3929C221.861 20.1511 222.002 21.839 222.214 23.4918C222.108 23.7028 221.791 23.8434 221.544 23.7028C220.944 22.9643 220.803 22.0149 220.767 21.0654C220.732 18.9555 220.697 16.7402 221.014 14.6654C221.226 13.3292 221.614 12.0984 222.426 10.9732C220.238 10.8677 218.227 11.3248 216.216 11.8874C215.933 11.8523 215.616 11.6764 215.439 11.3951C215.369 11.149 215.51 11.0083 215.651 10.938L215.863 10.8677L216.039 10.7973C217.521 10.1995 219.321 9.88305 221.05 9.84789C222.814 9.77756 224.578 9.95338 226.131 10.516C226.307 10.5863 226.625 10.8325 226.731 11.0435C226.766 11.2896 226.589 11.6061 226.378 11.571Z" fill="white"/>
<path d="M230.633 28.9423C230.457 29.0478 230.245 28.872 230.245 28.6961C230.951 27.5005 232.221 24.5467 232.045 23.1753C231.657 23.2105 231.269 23.3159 230.916 23.2808C230.422 23.2104 230.175 22.894 230.104 22.4368C230.034 21.9094 230.281 21.3467 230.563 20.9247C230.845 20.5379 231.233 20.3269 231.692 20.2566C232.821 20.116 233.386 21.1006 233.421 22.0852C233.492 24.0544 232.362 26.8676 230.633 28.9423Z" fill="white"/>
<path d="M12.1476 54.4015C10.4539 53.452 8.72492 52.7839 6.92539 52.1509C5.16115 51.518 3.46747 50.885 1.7738 50.1466C1.73851 51.4125 1.91494 52.7136 2.2325 53.874C2.33836 54.085 2.26779 54.4718 1.95022 54.4718C1.66794 54.4718 1.49152 54.296 1.38566 54.1202C1.27981 53.9795 1.20924 53.7685 1.10339 53.5927C0.715252 52.3268 0.574112 50.9553 0.574112 49.5488C0.468257 49.4784 0.327118 49.3729 0.256548 49.1971C0.150694 49.0916 0.115409 48.8806 0.221263 48.7048C0.362403 48.5993 0.503542 48.3883 0.538827 48.2477C0.609397 47.7905 0.574112 46.7356 0.679967 46.2785C0.821106 45.4697 1.03282 44.4851 1.24452 43.5004C1.49152 42.5158 1.84437 41.5312 2.30307 40.6873C2.51478 40.3356 3.04405 40.406 3.14991 40.7928C3.11462 41.2499 2.97348 41.6719 2.83234 42.0939C2.72649 42.4807 2.51478 42.9026 2.40893 43.3246C2.05608 44.5905 1.84437 45.8916 1.80908 47.2279C3.07934 46.1026 4.34959 45.0477 5.65513 44.0631C7.27824 42.8675 9.0072 41.8477 10.842 41.1092C11.1243 41.1092 11.4771 41.1092 11.6888 41.2851C11.9006 41.4257 11.9006 41.6367 11.7947 41.8829C9.9246 42.6565 8.23093 43.6763 6.50197 44.8719C4.87887 46.0323 3.25576 47.3686 1.73851 48.8103V48.8455C3.46747 49.7949 5.37286 50.4279 7.20767 51.0608C8.83077 51.6235 10.3833 52.2564 11.8653 53.2059C12.1828 53.3817 12.4298 53.6279 12.6063 53.9443C12.6415 54.1553 12.3593 54.4366 12.1476 54.4015Z" fill="white"/>
<path d="M25.23 54.0147C24.7713 54.0498 24.4537 53.5575 24.242 53.2059C23.4657 51.8345 22.8306 50.3927 22.3719 48.8806C21.7721 47.0169 21.4545 45.118 21.3134 43.0785C20.2548 44.696 18.4906 47.6499 17.3967 49.2323C16.2676 50.9202 15.1385 52.7136 14.2211 54.4015C14.1152 54.6476 13.7271 54.4718 13.586 54.2608C13.4095 53.9443 13.4801 53.5224 13.5507 53.2059C13.7624 52.8894 14.1505 52.0806 14.3622 51.6235C16.6557 48.1422 19.0551 44.5905 21.1722 41.1092C21.4192 40.8631 22.266 40.7224 22.3366 41.3906C22.513 43.5356 22.8306 45.6807 23.3246 47.7202C23.8186 49.7597 24.5596 51.6586 25.5123 53.4872C25.5475 53.5927 25.5122 53.9795 25.23 54.0147Z" fill="white"/>
<path d="M37.9719 54.4366C37.231 53.5927 37.0193 52.4674 36.8428 51.3773C36.49 48.8455 36.5606 46.1378 36.49 43.5004C34.3376 46.5598 32.6439 49.6543 30.5974 53.1356C30.3857 53.3817 30.2798 53.5575 29.927 53.6982C29.6094 53.6982 29.3272 53.663 29.0802 53.3114C27.3865 50.1817 27.0689 46.3488 27.3159 42.551C27.3159 42.3048 27.3865 41.8829 27.6688 41.7774C28.1275 41.6367 28.4803 42.0235 28.4803 42.3048C28.2686 45.8213 28.6567 49.1619 29.8211 52.1861C31.0561 50.0762 32.0441 48.318 33.1026 46.5949C34.1965 44.8015 35.3609 43.0785 36.8428 41.1092C37.1251 40.8983 37.5132 41.0389 37.6544 41.3202C37.7602 44.696 37.725 48.0015 38.0072 51.2367C38.0778 52.2916 38.3248 53.3114 38.3954 54.296C38.3954 54.4366 38.0778 54.5773 37.9719 54.4366Z" fill="white"/>
<path d="M52.1876 54.4015C50.4939 53.452 48.765 52.7839 46.9655 52.1509C45.2012 51.518 43.5075 50.885 41.8139 50.1466C41.7786 51.4125 41.955 52.7136 42.2726 53.874C42.3784 54.085 42.3079 54.4718 41.9903 54.4718C41.708 54.4718 41.5316 54.296 41.4257 54.1202C41.3199 53.9795 41.2493 53.7685 41.1435 53.5927C40.7553 52.3268 40.6142 50.9553 40.6142 49.5488C40.5083 49.4784 40.3672 49.3729 40.2966 49.1971C40.1908 49.0916 40.1555 48.8806 40.2613 48.7048C40.4025 48.5993 40.5436 48.3883 40.5789 48.2477C40.6495 47.7905 40.6142 46.7356 40.72 46.2785C40.8612 45.4697 41.0729 44.4851 41.2846 43.5004C41.5316 42.5158 41.8844 41.5312 42.3431 40.6873C42.5548 40.3356 43.0841 40.406 43.19 40.7928C43.1547 41.2499 43.0135 41.6719 42.8724 42.0939C42.7666 42.4807 42.5548 42.9026 42.449 43.3246C42.0961 44.5905 41.8844 45.8916 41.8492 47.2279C43.1194 46.1026 44.3897 45.0477 45.6952 44.0631C47.3183 42.8675 49.0473 41.8477 50.8821 41.1092C51.1644 41.1092 51.5172 41.1092 51.7289 41.2851C51.9406 41.4257 51.9406 41.6367 51.8348 41.8829C49.9647 42.6565 48.271 43.6763 46.542 44.8719C44.9189 46.0323 43.2958 47.3686 41.7786 48.8103V48.8455C43.5075 49.7949 45.4129 50.4279 47.2477 51.0608C48.8708 51.6235 50.4234 52.2564 51.9053 53.2059C52.2229 53.3817 52.4699 53.6279 52.6463 53.9443C52.6816 54.1553 52.3993 54.4366 52.1876 54.4015Z" fill="white"/>
<path d="M64.6702 46.5246C64.4232 49.0213 64.5643 51.94 64.7408 54.4015C64.7761 54.6476 64.4232 54.6828 64.2468 54.5773C63.7528 54.1905 63.5058 53.1707 63.4705 52.5378C63.3647 50.5685 63.3647 48.74 63.4705 46.7708C60.8594 46.8762 58.0366 46.8059 55.4608 47.0872C55.355 49.4433 55.4256 51.6938 55.5314 53.9443C55.5667 54.0147 55.4256 54.1202 55.2491 54.1553C55.1433 54.1553 54.9669 54.1202 54.861 54.0147C54.4023 53.5575 54.2964 52.7136 54.2612 52.1509C54.0847 48.5993 54.3317 45.0477 54.6846 41.5664C54.7551 41.3554 55.0727 41.1444 55.355 41.3202C55.7431 41.4961 55.7431 41.9532 55.8137 42.3048C55.7431 43.2191 55.6373 44.7664 55.5314 45.8565C58.1072 45.6806 60.9653 45.7861 63.5411 45.751C63.6822 44.0279 63.7528 42.3048 64.1762 40.6873C64.3526 40.4763 64.7055 40.6169 64.9172 40.8279C65.0936 41.0389 65.1995 41.4609 65.1995 41.707C65.023 43.0433 64.7761 44.3444 64.7408 45.7158C64.8466 45.7158 64.9525 45.6807 65.0583 45.6807C65.1289 45.6807 65.2348 45.751 65.2348 45.9268C65.2348 45.9971 65.2348 46.1378 65.1642 46.2081C65.0583 46.3488 64.8466 46.4543 64.6702 46.5246Z" fill="white"/>
<path d="M75.3927 51.5531C73.7343 55.1399 72.4287 58.8322 71.1585 62.5597C71.0526 62.7707 70.5586 62.841 70.4528 62.5597C70.2764 62.2432 70.3822 61.3992 70.4528 61.0828C71.0173 58.6916 72.0406 56.4762 72.8874 54.1905C71.8642 52.6784 70.5586 50.6037 69.5707 48.8103C68.3357 46.5246 67.3124 44.1334 66.9243 41.4961C66.8537 41.1444 67.0654 40.7928 67.3477 40.6521C67.5594 40.5818 67.7006 40.6873 67.8064 40.7928C67.9123 40.8983 67.9828 41.0389 68.0534 41.1796C68.4063 43.2895 69.112 45.2587 69.9941 47.1224C70.9821 49.1268 72.1465 51.0257 73.452 52.9246C74.2636 51.1663 75.1104 49.4081 76.0278 47.685C76.9452 45.9268 77.9685 44.2389 79.2034 42.5862C79.4504 42.2697 79.8033 41.918 80.1208 42.0939C80.3326 42.1994 80.509 42.5158 80.3326 42.762C78.4625 45.6103 76.8041 48.529 75.3927 51.5531Z" fill="white"/>
<path d="M88.7006 53.5224C87.642 54.2257 86.3365 54.7883 85.031 54.7883C84.29 54.7883 83.7607 54.4718 83.2667 53.7685C83.0903 53.9092 82.7727 54.0147 82.6316 53.8037C81.9965 52.9246 81.82 51.6938 81.7847 50.4982C81.7142 47.4389 81.7495 45.1883 82.561 42.4455C82.6316 42.1642 83.302 41.6367 83.796 41.7774C84.0077 41.2147 84.5722 40.6169 85.2427 40.5466C87.0422 40.5466 88.9829 41.4961 89.5827 43.2895C89.7591 43.8521 89.7591 44.4499 89.5474 45.0125C89.3357 45.54 88.9829 45.9971 88.5242 46.3488L88.3124 46.5246C89.1946 46.8059 90.1825 47.3686 90.7471 48.2477C91.1705 48.9158 91.2058 49.7246 91.0294 50.4982C90.7118 51.7641 89.7944 52.7839 88.7006 53.5224ZM89.6886 48.8455C89.4063 48.318 88.63 48.0015 88.0655 47.7202C87.395 47.2982 86.7952 47.474 86.1248 47.6147L85.0662 47.8609C84.6781 47.9664 84.29 47.9664 83.8666 47.8609C83.6901 47.7554 83.4784 47.4037 83.6548 47.2279C84.0783 46.8059 84.6075 46.5949 85.2074 46.4543L86.8305 46.2785C87.4656 45.9268 88.136 45.2235 88.4183 44.5554C88.5947 43.9927 88.4889 43.6059 88.136 43.1488C87.5009 42.2697 86.4776 41.8829 85.4544 41.7774C85.1368 41.7422 85.031 41.8125 84.9604 42.0235C84.8545 42.3048 84.784 42.6213 84.6075 42.8675C84.537 43.0433 84.29 43.1136 84.1135 43.0081C83.9724 42.973 83.8666 42.9026 83.796 42.8323C83.3726 44.3444 83.1256 46.0675 83.055 47.8609C82.9844 49.5488 83.055 51.2015 83.302 52.7487C83.5843 52.4323 83.9371 51.9751 84.1135 51.729C84.3605 51.4828 84.8192 51.8696 84.7487 52.1158C84.6781 52.2916 84.537 52.5026 84.4311 52.6784C84.3605 52.8894 84.2547 53.0652 84.2547 53.2059C84.4664 53.5224 84.9604 53.6279 85.5602 53.5575C86.4423 53.4169 87.5009 52.9246 88.2772 52.3268C88.9829 51.7641 89.5827 51.0608 89.7591 50.1817C89.865 49.7597 89.9355 49.2674 89.6886 48.8455Z" fill="white"/>
<path d="M112.655 53.3114C112.655 53.5927 112.338 53.663 112.161 53.6279C111.773 53.4872 111.702 52.8542 111.632 52.5026C111.526 51.8696 111.526 51.2367 111.526 50.5685V48.4235C111.526 46.7708 111.738 44.9774 111.773 43.2895C111.561 42.973 111.208 42.7972 110.856 42.7268C110.467 42.6213 110.009 42.5862 109.621 42.4807C108.209 42.2697 106.798 42.0587 105.316 42.129C105.139 43.6763 104.716 45.118 104.504 46.6653C104.187 48.951 103.904 51.096 104.046 53.5224C104.046 53.8037 104.116 54.2257 103.834 54.4366C103.693 54.5773 103.305 54.5773 103.128 54.4015C102.952 54.1905 102.881 53.9443 102.846 53.6982C102.811 53.452 102.846 53.1707 102.811 52.8894C102.775 49.1971 103.375 45.751 104.116 42.1642C103.94 42.1994 103.763 42.2345 103.587 42.1994C103.269 42.0235 103.34 41.707 103.481 41.5664C103.622 41.2851 103.869 41.1796 104.116 41.1092C104.363 41.0389 104.645 40.9686 104.892 40.9686C107.292 40.7928 109.832 41.1444 112.02 41.8477C112.443 42.0939 113.043 42.3752 113.079 42.9378C112.761 46.3136 112.69 49.7949 112.655 53.3114Z" fill="white"/>
<path d="M123.218 53.6279C121.63 54.4366 119.725 54.7883 117.996 53.9443C116.655 53.2762 115.702 52.1509 115.243 50.7444C114.714 49.0916 114.891 47.2279 115.596 45.6807C116.125 44.5554 116.937 43.5708 117.89 42.8323C118.525 42.3752 119.478 41.8125 120.36 41.707C121.065 40.8983 122.23 40.6521 123.218 40.8983C124.911 41.3554 126.358 43.0785 126.817 44.5905C127.275 46.0675 127.381 47.685 126.958 49.1971C126.429 51.2367 125.088 52.7136 123.218 53.6279ZM125.652 44.9774C125.229 43.8169 124.276 42.5158 123.041 42.0939C122.477 41.8829 121.877 41.8125 121.418 42.1642C120.96 42.5158 120.677 43.0785 120.466 43.5708C120.43 43.6763 120.43 43.8169 120.43 43.9576C120.43 44.0982 120.43 44.2741 120.395 44.4147C120.36 44.4851 120.007 44.696 119.901 44.4851C119.83 44.1686 119.76 43.5356 119.795 43.0433C118.454 43.6059 117.325 44.7664 116.69 46.0675C116.02 47.4389 115.984 49.0213 116.408 50.4279C116.761 51.518 117.431 52.4323 118.56 52.8894C119.972 53.4169 121.489 53.241 122.759 52.6081C124.206 51.8696 125.229 50.7444 125.723 49.2323C126.182 47.896 126.111 46.3136 125.652 44.9774Z" fill="white"/>
<path d="M149.402 46.5246C149.155 49.0213 149.296 51.94 149.473 54.4015C149.508 54.6476 149.155 54.6828 148.979 54.5773C148.485 54.1905 148.238 53.1707 148.202 52.5378C148.097 50.5685 148.097 48.74 148.202 46.7708C145.591 46.8762 142.769 46.8059 140.193 47.0872C140.087 49.4433 140.158 51.6938 140.263 53.9443C140.299 54.0147 140.158 54.1202 139.981 54.1553C139.875 54.1553 139.699 54.1202 139.593 54.0147C139.134 53.5575 139.028 52.7136 138.993 52.1509C138.817 48.5993 139.064 45.0477 139.417 41.5664C139.487 41.3554 139.805 41.1444 140.087 41.3202C140.475 41.4961 140.475 41.9532 140.546 42.3048C140.475 43.2191 140.369 44.7664 140.263 45.8565C142.839 45.6806 145.697 45.7861 148.273 45.751C148.414 44.0279 148.485 42.3048 148.908 40.6873C149.085 40.4763 149.437 40.6169 149.649 40.8279C149.826 41.0389 149.931 41.4609 149.931 41.707C149.755 43.0433 149.508 44.3444 149.473 45.7158C149.579 45.7158 149.684 45.6807 149.79 45.6807C149.861 45.6807 149.967 45.751 149.967 45.9268C149.967 45.9971 149.967 46.1378 149.896 46.2081C149.79 46.3488 149.579 46.4543 149.402 46.5246Z" fill="white"/>
<path d="M157.302 54.4718C155.538 54.4015 153.914 53.5927 152.891 52.0806C152.044 50.8147 151.833 49.3378 152.009 47.896C152.221 46.2784 152.891 44.7312 153.809 43.5356C154.832 42.1993 156.279 41.1444 157.937 40.8279C159.066 40.6169 160.266 40.7224 161.113 41.6367C161.501 42.0587 161.854 42.5158 161.854 43.0785C161.889 43.6763 161.607 44.2037 161.113 44.5905C158.643 46.6301 156.032 48.529 153.35 50.0762C153.42 51.1663 154.373 52.2916 155.396 52.8542C156.42 53.4169 157.619 53.4872 158.748 53.3465C159.878 53.241 161.042 52.8542 161.854 52.4674C161.995 52.3619 162.101 52.4674 162.136 52.5729C162.171 52.6433 162.242 52.7839 162.101 52.8894C160.866 54.0147 159.101 54.5421 157.302 54.4718ZM158.854 41.918C157.831 41.918 156.808 42.34 155.996 42.973C154.267 44.3796 153.244 46.6301 153.244 48.8103C155.749 47.4389 158.113 45.6455 160.407 43.7818C160.583 43.6411 160.724 43.1136 160.477 42.6917C160.195 42.129 159.56 41.918 158.854 41.918Z" fill="white"/>
<path d="M180.769 54.4718C180.522 54.4366 180.381 54.296 180.275 54.1202L180.169 53.9443C178.864 51.1312 178.299 47.9664 178.264 44.6257C177.805 45.751 177.346 46.8411 176.817 47.9312C176.217 49.162 175.547 50.3576 174.594 51.4828C174.171 52.0103 173.359 52.0806 172.724 51.94C172.195 51.6938 171.842 51.096 171.595 50.6037C170.254 48.0367 169.619 45.1532 168.949 42.34C168.949 42.3048 168.913 42.2697 168.878 42.3048C166.69 45.5048 165.42 49.0916 164.538 52.8894C164.397 53.241 164.714 53.5575 164.75 53.9092C164.82 54.1202 164.679 54.3312 164.397 54.4366C164.009 54.4718 163.691 54.1553 163.515 53.874C163.268 53.2762 163.303 52.6081 163.479 52.0103C164.644 48.2125 165.844 44.4499 168.313 41.1444C168.631 40.9334 168.949 40.9334 169.231 41.0038C169.584 41.0038 169.901 41.3554 169.937 41.6016C170.713 44.6257 171.348 47.7202 172.865 50.463C173.077 50.7444 173.359 50.9202 173.677 50.8147C174.488 50.0411 175.018 49.0916 175.547 48.1422C176.605 46.2081 177.346 44.1686 178.158 42.0587L178.334 41.8125C178.44 41.707 178.511 41.6367 178.687 41.6367C179.04 41.5312 179.287 41.7774 179.428 42.0235C179.358 44.2037 179.393 46.2433 179.64 48.2477C179.887 50.2521 180.346 52.2213 181.087 54.1202C181.122 54.3663 180.875 54.4718 180.769 54.4718Z" fill="white"/>
<path d="M190.827 51.5531C189.168 55.1399 187.863 58.8322 186.592 62.5597C186.487 62.7707 185.993 62.841 185.887 62.5597C185.71 62.2432 185.816 61.3992 185.887 61.0828C186.451 58.6916 187.475 56.4762 188.321 54.1905C187.298 52.6784 185.993 50.6037 185.005 48.8103C183.77 46.5246 182.746 44.1334 182.358 41.4961C182.288 41.1444 182.499 40.7928 182.782 40.6521C182.993 40.5818 183.134 40.6873 183.24 40.7928C183.346 40.8983 183.417 41.0389 183.487 41.1796C183.84 43.2895 184.546 45.2587 185.428 47.1224C186.416 49.1268 187.58 51.0257 188.886 52.9246C189.697 51.1663 190.544 49.4081 191.462 47.685C192.379 45.9268 193.402 44.2389 194.637 42.5862C194.884 42.2697 195.237 41.918 195.555 42.0939C195.766 42.1994 195.943 42.5158 195.766 42.762C193.896 45.6103 192.238 48.529 190.827 51.5531Z" fill="white"/>
</svg>
