<svg width="289" height="32" fill="none" xmlns="http://www.w3.org/2000/svg"><path d="M15.442 3.637c-.317-.884-1.567-.884-1.884 0l-2.82 7.884a1 1 0 0 1-.584.597L2.44 15.07c-.857.328-.857 1.54 0 1.868l7.714 2.953a1 1 0 0 1 .585.597l2.82 7.884c.316.884 1.566.884 1.883 0l2.82-7.884a1 1 0 0 1 .584-.597l7.714-2.953c.857-.328.857-1.54 0-1.868l-7.714-2.953a1 1 0 0 1-.584-.597l-2.82-7.884z" fill="gold"/><path d="M282.297 23.587c-1.341.176-2.752.07-4.093-.738-1.765-1.055-2.541-2.884-2.435-4.923.106-1.582.6-3.06 1.482-4.396a8.864 8.864 0 0 1 3.599-3.13c.776-.386 1.835-.562 2.682-.21.705.281 1.446 1.02 1.588 1.723.07.21-.283.668-.565.457-.388-.352-.882-.809-1.376-1.02-.494-.21-.953-.246-1.482-.035-1.376.563-2.646 1.653-3.493 2.954a7.818 7.818 0 0 0-1.271 4.044c0 1.3.494 2.532 1.588 3.34 1.023.739 2.364.915 3.599.81 2.082-.177 3.917-1.056 5.752-1.864.211 0 .529.351.353.597-1.765.985-3.776 2.075-5.928 2.391zM249.903 11.656h-.176a.291.291 0 0 1-.282-.246c-.036-.281.07-.527.282-.738a2.595 2.595 0 0 1 1.905-.668c.494.035.988.105 1.482.281l1.341.457c1.905.633 3.564 2.321 4.481 4.15.494 1.02.671 2.074.424 3.235-.247 1.055-.883 2.04-1.729 2.848-2.117 2.005-4.764 2.602-7.693 2.602-.035 2.391-.176 5.064.142 7.42 0 .105.07.246.141.352.035.175.106.316-.036.527-.282.211-.564.14-.811 0-.353-.387-.494-.809-.529-1.3-.247-2.498-.141-4.924 0-7.456-.318-.281-.812-.668-.918-1.09 0-.14.036-.281.106-.352.106-.175.247-.21.318-.14.106.105.317.246.494.351.211-3.516.458-6.857 1.058-10.232zm6.987 2.286c-.777-.95-1.87-1.617-2.929-2.075-.6-.28-2.294-.914-2.929-.633.036.493-.035 1.372-.106 1.759-.494 2.989-.811 6.189-.846 9.353 2.434.176 4.763-.562 6.633-2.18 1.023-.879 1.623-2.11 1.517-3.375-.07-1.055-.741-2.11-1.34-2.849zM245.504 22.388c0 .28-.318.351-.494.316-.388-.14-.459-.774-.529-1.125-.106-.633-.106-1.266-.106-1.934V17.5c0-1.653.212-3.446.247-5.134-.212-.317-.565-.493-.918-.563-.388-.106-.846-.14-1.235-.246-1.411-.211-2.822-.422-4.304-.352-.177 1.547-.6 2.99-.812 4.537-.317 2.285-.6 4.43-.459 6.857 0 .28.071.703-.211.914-.141.14-.53.14-.706-.035-.176-.211-.247-.457-.282-.704-.036-.246 0-.527-.036-.808-.035-3.693.565-7.139 1.306-10.726-.176.036-.353.07-.529.036-.318-.176-.247-.493-.106-.633.141-.282.388-.387.635-.458.247-.07.529-.14.776-.14 2.4-.176 4.94.176 7.128.879.423.246 1.023.527 1.058 1.09-.317 3.376-.388 6.857-.423 10.374zM216.94 22.976c-1.058.703-2.364 1.266-3.67 1.266-.74 0-1.27-.317-1.764-1.02-.176.14-.494.246-.635.035-.635-.88-.811-2.11-.847-3.305-.07-3.06-.035-5.31.777-8.053.07-.281.741-.809 1.235-.668.211-.563.776-1.16 1.446-1.231 1.8 0 3.74.95 4.34 2.743.177.563.177 1.16-.035 1.723a3.18 3.18 0 0 1-1.023 1.336l-.212.176c.882.281 1.87.844 2.435 1.723.423.668.458 1.477.282 2.25-.318 1.267-1.235 2.286-2.329 3.025zm.988-4.677c-.282-.528-1.058-.844-1.623-1.125-.67-.422-1.27-.247-1.941-.106l-1.058.246a2.313 2.313 0 0 1-1.2 0c-.176-.105-.388-.457-.212-.633.424-.422.953-.633 1.553-.773l1.623-.176c.635-.352 1.306-1.055 1.588-1.723.176-.563.07-.95-.282-1.407-.636-.879-1.659-1.266-2.682-1.371-.318-.035-.424.035-.494.246-.106.281-.177.598-.353.844-.07.176-.317.246-.494.14a.678.678 0 0 1-.317-.175c-.424 1.512-.671 3.235-.741 5.028-.071 1.688 0 3.34.247 4.888.282-.316.635-.774.811-1.02.247-.246.706.141.635.387-.07.176-.211.387-.317.563-.071.21-.177.387-.177.527.212.317.706.422 1.306.352.882-.14 1.94-.633 2.717-1.23.705-.563 1.305-1.267 1.482-2.146.106-.422.176-.914-.071-1.336zM192.086 5.09c-.071-.176-.177-.387-.247-.563-.036-.246.141-.316.247-.316.141 0 .282.07.388.105.317.247.564.633.741 1.02.141.352.106.844-.106 1.126-.247.316-.529.633-.882.843-.529.317-1.165.563-1.729.739-.6.176-1.905.21-2.505.035-.812-.21-1.306-.598-1.553-1.16-.176-.422-.247-.915-.176-1.442.035-.457.176-.914.388-1.266a.305.305 0 0 1 .247-.14c.07-.036.141-.036.247-.071.176.14.388.281.388.527a6.7 6.7 0 0 1-.071.81c-.07.316-.105.597 0 .808 0 .492.318.739.777.88.6.175 1.446.105 2.187-.106.565-.176 1.094-.422 1.447-.739.212-.176.318-.351.318-.527.035-.176-.036-.352-.106-.563zm3.034 18.602c-.741-.844-.952-1.969-1.129-3.06-.353-2.531-.282-5.239-.353-7.876-2.152 3.06-3.846 6.154-5.892 9.635-.212.246-.318.422-.671.563-.317 0-.6-.035-.847-.387-1.693-3.13-2.011-6.963-1.764-10.76 0-.247.071-.669.353-.774.459-.14.812.246.812.527-.212 3.517.176 6.857 1.34 9.882 1.235-2.11 2.223-3.868 3.282-5.591a66.25 66.25 0 0 1 3.74-5.486c.282-.211.671-.07.812.21.106 3.377.07 6.682.353 9.917.07 1.055.317 2.075.388 3.06 0 .14-.318.28-.424.14zM174.226 22.112c-.917.809-2.046 1.336-3.14 1.583-.882.21-2.117.316-2.858-.422-.212-.176-.53-.739-.212-1.055.247.175.423.316.635.422.141.105.282.175.459.175-.036-2.426.106-7.103.176-9.459.035-.562-.035-1.16 0-1.723.071-.563.177-1.125.635-1.547.318-.106.6-.176.777.176-.177.633-.177 1.758-.212 2.989 0 1.125 0 2.32-.035 3.165a4.145 4.145 0 0 1 1.87-.704c.811-.07 1.658.07 2.328.457a2.785 2.785 0 0 1 1.412 3.06c-.212 1.09-.953 2.11-1.835 2.883zm.459-4.325c-.424-.668-1.165-.914-1.976-.914-.812.035-1.694.351-2.223.844l-.282 5.028c1.093-.246 2.223-.738 3.14-1.512.635-.527 1.235-1.16 1.482-1.97.176-.492.141-1.09-.141-1.476zm7.339 6.294c-.882-.246-.882-1.125-.988-1.828-.529-4.009-.212-7.877.318-11.85.317-.493.882-.071 1.023.21.035.81 0 1.583-.106 2.392-.071.773-.176 1.582-.176 2.39-.036 1.372-.106 2.779-.071 4.185 0 1.372.141 2.778.353 4.08.035.175-.177.421-.353.421zM165.317 15.942c-.247 2.496-.106 5.415.071 7.877.035.246-.318.28-.494.175-.494-.386-.741-1.406-.777-2.04a52.83 52.83 0 0 1 0-5.766c-2.611.105-5.433.035-8.009.316-.106 2.356-.036 4.607.07 6.857.036.07-.106.176-.282.211-.106 0-.282-.035-.388-.14-.459-.457-.565-1.301-.6-1.864-.176-3.552.071-7.103.423-10.585.071-.21.389-.421.671-.246.388.176.388.633.459.985-.071.914-.177 2.462-.283 3.552 2.576-.176 5.434-.07 8.01-.106.141-1.723.212-3.446.635-5.064.176-.21.529-.07.741.141.176.211.282.633.282.88-.176 1.335-.423 2.636-.458 4.008.105 0 .211-.035.317-.035.071 0 .177.07.177.246 0 .07 0 .21-.071.281-.106.14-.318.246-.494.317zM142.223 23.11c-.458.035-.776-.457-.988-.81a21.41 21.41 0 0 1-1.87-4.324c-.6-1.864-.917-3.763-1.058-5.802-1.059 1.617-2.823 4.57-3.917 6.153-1.129 1.688-2.258 3.482-3.176 5.17-.106.246-.494.07-.635-.141-.176-.317-.106-.739-.035-1.055.212-.317.6-1.125.811-1.582 2.294-3.482 4.693-7.033 6.81-10.515.247-.246 1.094-.387 1.165.282.176 2.145.494 4.29.988 6.33a25.255 25.255 0 0 0 2.188 5.766c.035.106 0 .492-.283.528zM123.585 23.736c-1.764-.07-3.387-.88-4.41-2.391-.847-1.266-1.059-2.743-.882-4.185a9.265 9.265 0 0 1 1.799-4.36c1.023-1.337 2.47-2.392 4.128-2.708 1.13-.211 2.329-.105 3.176.809.388.422.741.879.741 1.442.035.597-.247 1.125-.741 1.512-2.47 2.04-5.081 3.938-7.763 5.485.071 1.09 1.024 2.216 2.047 2.778 1.023.563 2.223.633 3.352.493 1.129-.106 2.294-.493 3.105-.88.141-.105.247 0 .282.106.036.07.106.211-.035.317-1.235 1.125-2.999 1.652-4.799 1.582zm1.553-12.554c-1.023 0-2.047.422-2.858 1.055-1.729 1.407-2.752 3.657-2.752 5.837 2.505-1.371 4.869-3.164 7.162-5.028.177-.14.318-.668.071-1.09-.282-.563-.917-.774-1.623-.774zM115.878 11.738c-.918-.211-1.835-.422-2.788-.457-.776.984-1.164 2.145-1.376 3.375-.247 1.266-.212 2.603-.282 3.904-.071 1.758.07 3.446.282 5.099-.106.21-.423.351-.67.21-.6-.738-.741-1.687-.777-2.637-.035-2.11-.07-4.325.247-6.4.212-1.336.6-2.567 1.412-3.692-2.188-.106-4.199.352-6.21.914a1.114 1.114 0 0 1-.777-.492c-.07-.246.071-.387.212-.457l.212-.07.176-.07c1.482-.599 3.282-.915 5.011-.95 1.764-.07 3.528.105 5.081.668.176.07.494.316.6.527.035.246-.142.563-.353.528zM99.733 23.803c-1.94.528-4.2.493-5.716-.809-.706-.597-1.235-1.476-1.27-2.426-.036-.844.317-1.617.81-2.32 1.095-1.548 3-2.603 4.835-2.814.776-.07 1.482.035 2.046.598.177.176 0 .527-.176.598h-.318c-.105 0-.247-.035-.352-.035-.247-.036-.46-.07-.6.035-1.694.07-3.352.879-4.376 2.25-.458.598-.705 1.055-.635 1.794.07.984.812 1.723 1.835 2.074 1.447.528 3.246.211 4.622-.281.741-.281 1.412-.563 2.047-1.02.141-.105.282 0 .353.176.035.14.035.281.035.387-.494.95-2.47 1.617-3.14 1.793zm1.976-2.39c-.177.21-.494.175-.635.07-.353-.247-.353-.704-.353-1.056.035-.597.141-1.195.282-1.828l.459-1.934c.282-1.266.458-2.532.07-3.587-.317-.914-1.094-1.829-2.046-1.934-.812-.105-1.623.176-2.294.668-.353.246-1.129.914-1.34 1.301-.036.14.035.387.176.528.141.14.035.562-.282.492-.247-.07-.53-.14-.741-.316-.283-.247-.389-.704-.177-1.055.6-1.02 1.447-1.864 2.54-2.357a4.029 4.029 0 0 1 2.435-.351c1.059.176 1.976.95 2.506 1.934.811 1.512.705 3.41.317 5.099-.353 1.442-.706 2.778-.917 4.325zM86.85 22.916c-1.342.668-2.824 1.055-4.411 1.231-.46.07-1.165.106-1.588-.281-.459-.317-.388-1.02-.282-1.372.07-.175.458-.316.564-.07 0 .035.035.106.035.176.07.176.177.387.388.457 1.588-.07 3.07-.387 4.411-1.055 1.412-.668 2.294-1.371 3.282-2.637.282-.352.352-.774.176-1.09-.212-.493-.741-.985-1.235-1.231-.6-.281-1.34-.387-2.152-.422-.706 0-1.482.035-2.259.07-.211 0-.388-.21-.423-.387a.55.55 0 0 1 .176-.527l.353-.246c.459-.14.953-.14 1.376-.106.46.035.883.106 1.306.07.423 0 .882-.175 1.2-.597l.67-.703c.176-.247.282-.493.176-.774-.67-.844-1.481-1.301-2.399-1.653-1.058-.387-2.258-.527-3.493-.633-.247-.14-.318-.597-.106-.808.388-.317.847-.352 1.27-.317.953.07 2.223.352 3.035.703 1.164.493 2.152 1.196 2.823 2.321.317.703 0 1.442-.46 1.899-.352.387-.775.668-1.199.95.741.316 1.73.773 2.223 1.476.6.774.53 1.724.106 2.497-.635 1.266-2.329 2.426-3.564 3.06zM78.239 12.058c.212 3.552.106 7.35-.282 10.866a3.77 3.77 0 0 0-.212.598c-.106.21-.176.422-.353.633-.07.14-.53.21-.635-.036.07-.808.459-5.063.353-6.892-2.576 1.477-4.975 4.08-6.775 6.506-.176.175-.6.175-.67-.176 0-.633.247-1.125.6-1.618.353-.457.776-.879 1.094-1.371.882-1.055 1.905-1.934 2.963-2.778-.846.07-1.729 0-2.575-.387-.953-.422-1.588-1.23-1.73-2.286-.105-.633 0-1.3.318-1.793.635-.985 1.482-1.829 2.435-2.391 1.129-.668 2.364-1.02 3.74-.915.741.247 1.588.493 1.94 1.266.071.247.071.563-.211.774zm-1.164 1.512c0-.774-.036-1.512-.142-2.215-.635-.246-1.164-.317-1.87-.106-.74.211-1.623.563-2.328 1.09-.847.633-1.482 1.442-1.518 2.497.07.457.247.914.636 1.266.493.316 1.129.492 1.693.527 1.27.106 2.576-.28 3.564-.773-.035-.739-.035-1.512-.035-2.286zM65.371 2.122c-.776.281-1.623.457-2.399.738-1.411.457-2.364 1.055-3.352 2.145-.988 1.055-1.623 2.321-2.188 3.657-.564 1.372-.952 2.884-1.376 4.326 1.27-.88 2.752-1.653 4.305-1.9 1.376-.245 2.893.036 4.093.81 1.27.808 2.117 2.215 2.47 3.692.353 1.582.212 3.06-.6 4.466a7.08 7.08 0 0 1-3.14 2.953c-1.13.563-2.611.739-3.952.528-1.553-.211-2.788-.914-3.705-2.145-.988-1.336-1.27-2.954-1.235-4.607.07-2.285.74-4.747 1.34-6.61.742-2.251 1.8-4.713 3.635-6.47.882-.845 1.94-1.513 3.07-1.9.776-.246 1.588-.422 2.4-.668.776-.246 1.517-.562 2.187-1.125.212-.035.564 0 .635.21.141.212.141.493 0 .669a5.924 5.924 0 0 1-2.188 1.23zm-.07 12.518a3.946 3.946 0 0 0-2.4-2.11c-1.023-.351-2.328-.28-3.352.036-1.411.422-2.717 1.266-3.846 2.285-.317 1.548-.282 3.411.247 4.818.247.703.741 1.336 1.376 1.828 1.059.844 2.153.95 3.494.81 1.446-.141 2.752-.81 3.81-1.9.847-.844 1.2-1.688 1.235-2.918.036-1.02-.176-2.04-.564-2.849zM48.282 22.763c-1.588.809-3.493 1.16-5.222.317a5.378 5.378 0 0 1-2.752-3.2c-.53-1.653-.353-3.517.353-5.064a7.894 7.894 0 0 1 2.293-2.848c.635-.457 1.588-1.02 2.47-1.126.706-.808 1.87-1.055 2.858-.808 1.694.457 3.14 2.18 3.6 3.692.458 1.477.564 3.094.14 4.606-.529 2.04-1.87 3.517-3.74 4.431zm2.435-8.65c-.424-1.16-1.376-2.462-2.611-2.884-.565-.21-1.165-.281-1.623.07-.46.352-.741.915-.953 1.407-.035.106-.035.246-.035.387 0 .14 0 .316-.036.457-.035.07-.388.281-.494.07a5.857 5.857 0 0 1-.106-1.441c-1.34.562-2.47 1.723-3.105 3.024-.67 1.371-.705 2.954-.282 4.36.353 1.09 1.023 2.005 2.152 2.462 1.412.527 2.93.351 4.2-.282 1.446-.738 2.47-1.863 2.963-3.375.46-1.337.389-2.919-.07-4.255zM229.651 22.763c-1.588.809-3.493 1.16-5.222.317a5.375 5.375 0 0 1-2.752-3.2c-.53-1.653-.353-3.517.352-5.064a7.9 7.9 0 0 1 2.294-2.848c.635-.457 1.588-1.02 2.47-1.126.706-.808 1.87-1.055 2.858-.808 1.694.457 3.14 2.18 3.599 3.692.459 1.477.565 3.094.141 4.606-.529 2.04-1.87 3.517-3.74 4.431zm2.435-8.65c-.424-1.16-1.376-2.462-2.611-2.884-.565-.21-1.165-.281-1.623.07-.459.352-.741.915-.953 1.407-.035.106-.035.246-.035.387 0 .14 0 .316-.036.457-.035.07-.388.281-.494.07a5.9 5.9 0 0 1-.106-1.441c-1.34.562-2.47 1.723-3.105 3.024-.67 1.371-.705 2.954-.282 4.36.353 1.09 1.023 2.005 2.152 2.462 1.412.527 2.929.351 4.199-.282 1.447-.738 2.47-1.863 2.964-3.375.459-1.337.388-2.919-.07-4.255zM269.753 22.763c-1.588.809-3.494 1.16-5.223.317a5.381 5.381 0 0 1-2.752-3.2c-.529-1.653-.353-3.517.353-5.064a7.89 7.89 0 0 1 2.294-2.848c.635-.457 1.587-1.02 2.47-1.126.705-.808 1.87-1.055 2.858-.808 1.693.457 3.14 2.18 3.599 3.692.458 1.477.564 3.094.141 4.606-.529 2.04-1.87 3.517-3.74 4.431zm2.434-8.65c-.423-1.16-1.376-2.462-2.611-2.884-.564-.21-1.164-.281-1.623.07-.459.352-.741.915-.953 1.407-.035.106-.035.246-.035.387 0 .14 0 .316-.035.457-.035.07-.388.281-.494.07a5.851 5.851 0 0 1-.106-1.441c-1.341.562-2.47 1.723-3.105 3.024-.671 1.371-.706 2.954-.282 4.36.352 1.09 1.023 2.005 2.152 2.462 1.411.527 2.929.351 4.199-.282 1.447-.738 2.47-1.863 2.964-3.375.459-1.337.388-2.919-.071-4.255zM151.5 21.597c-.776.774-1.694 1.442-2.717 1.864a4.465 4.465 0 0 1-2.964.14c-.035.176-.176.387-.353.387-.564-.21-.776-.738-.882-1.195-.247-4.255.212-8.44.953-12.413.176-.387.882-.598 1.094-.036-.212 2.04-.6 4.08-.706 6.119 1.235-.95 2.823-1.407 4.375-1.055 1.024.246 2.047 1.16 2.364 2.18.494 1.477-.035 2.954-1.164 4.009zm-1.482-4.958c-1.588-.387-3.07.316-4.199 1.512 0 1.3 0 3.27-.035 4.36.917.211 1.835.106 2.646-.246 1.059-.422 2.011-1.23 2.752-2.18.53-.668.565-1.723.142-2.462-.247-.492-.812-.879-1.306-.984z" fill="#fff"/></svg>