<svg width="289" height="32" viewBox="0 0 289 32" fill="none" xmlns="http://www.w3.org/2000/svg">
<path d="M15.4416 3.6372C15.1253 2.75293 13.8747 2.75293 13.5584 3.6372L10.7385 11.5207C10.6402 11.7954 10.4269 12.0135 10.1544 12.1178L2.43974 15.071C1.58306 15.3989 1.58307 16.6109 2.43974 16.9388L10.1544 19.8919C10.4269 19.9962 10.6402 20.2143 10.7385 20.489L13.5584 28.3726C13.8747 29.2568 15.1253 29.2568 15.4416 28.3726L18.2615 20.489C18.3598 20.2143 18.5731 19.9962 18.8456 19.8919L26.5603 16.9388C27.4169 16.6109 27.4169 15.3989 26.5603 15.071L18.8456 12.1178C18.5731 12.0135 18.3598 11.7954 18.2615 11.5207L15.4416 3.6372Z" fill="#FFD700"/>
<path d="M282.297 23.5875C280.956 23.7633 279.545 23.6578 278.204 22.849C276.439 21.7941 275.663 19.9655 275.769 17.926C275.875 16.3436 276.369 14.8667 277.251 13.5304C278.133 12.1941 279.368 11.104 280.85 10.4008C281.626 10.0139 282.685 9.83812 283.532 10.1898C284.237 10.4711 284.978 11.2095 285.12 11.9128C285.19 12.1238 284.837 12.581 284.555 12.37C284.167 12.0183 283.673 11.5612 283.179 11.3502C282.685 11.1392 282.226 11.104 281.697 11.315C280.321 11.8777 279.051 12.9678 278.204 14.2689C277.427 15.4645 276.969 16.871 276.933 18.3128C276.933 19.6139 277.427 20.8447 278.521 21.6534C279.544 22.3919 280.885 22.5677 282.12 22.4622C284.202 22.2864 286.037 21.4073 287.872 20.5985C288.083 20.5985 288.401 20.9501 288.225 21.1963C286.46 22.1809 284.449 23.271 282.297 23.5875Z" fill="white"/>
<path d="M249.903 11.6565H249.727C249.621 11.6565 249.48 11.5862 249.445 11.4103C249.409 11.129 249.515 10.8829 249.727 10.6719C250.291 10.1796 250.926 9.96859 251.632 10.0038C252.126 10.0389 252.62 10.1092 253.114 10.2851L254.455 10.7422C256.36 11.3752 258.019 13.0631 258.936 14.8916C259.43 15.9114 259.607 16.9664 259.36 18.1268C259.113 19.1817 258.477 20.1663 257.631 20.9751C255.514 22.9795 252.867 23.5773 249.938 23.5773C249.903 25.9685 249.762 28.641 250.08 30.997C250.08 31.1025 250.15 31.2432 250.221 31.3487C250.256 31.5245 250.327 31.6652 250.185 31.8762C249.903 32.0872 249.621 32.0168 249.374 31.8762C249.021 31.4893 248.88 31.0674 248.845 30.5751C248.598 28.0784 248.704 25.652 248.845 23.1202C248.527 22.8388 248.033 22.452 247.927 22.0301C247.927 21.8894 247.963 21.7487 248.033 21.6784C248.139 21.5026 248.28 21.4674 248.351 21.5378C248.457 21.6432 248.668 21.7839 248.845 21.8894C249.056 18.3729 249.303 15.0323 249.903 11.6565ZM256.89 13.9422C256.113 12.9927 255.02 12.3246 253.961 11.8675C253.361 11.5862 251.667 10.9532 251.032 11.2345C251.068 11.7268 250.997 12.6059 250.926 12.9927C250.432 15.9817 250.115 19.1817 250.08 22.3465C252.514 22.5224 254.843 21.7839 256.713 20.1663C257.736 19.2872 258.336 18.0565 258.23 16.7905C258.16 15.7356 257.489 14.6807 256.89 13.9422Z" fill="white"/>
<path d="M245.504 22.3876C245.504 22.6689 245.186 22.7392 245.01 22.7041C244.622 22.5634 244.551 21.9305 244.481 21.5788C244.375 20.9458 244.375 20.3129 244.375 19.6448V17.4997C244.375 15.847 244.587 14.0536 244.622 12.3657C244.41 12.0492 244.057 11.8734 243.704 11.803C243.316 11.6975 242.858 11.6624 242.469 11.5569C241.058 11.3459 239.647 11.1349 238.165 11.2052C237.988 12.7525 237.565 14.1942 237.353 15.7415C237.036 18.0272 236.753 20.1722 236.894 22.5986C236.894 22.8799 236.965 23.3019 236.683 23.5129C236.542 23.6535 236.153 23.6535 235.977 23.4777C235.801 23.2667 235.73 23.0206 235.695 22.7744C235.659 22.5283 235.695 22.2469 235.659 21.9656C235.624 18.2733 236.224 14.8272 236.965 11.2404C236.789 11.2756 236.612 11.3107 236.436 11.2756C236.118 11.0997 236.189 10.7833 236.33 10.6426C236.471 10.3613 236.718 10.2558 236.965 10.1855C237.212 10.1151 237.494 10.0448 237.741 10.0448C240.141 9.86898 242.681 10.2206 244.869 10.9239C245.292 11.1701 245.892 11.4514 245.927 12.014C245.61 15.3898 245.539 18.8711 245.504 22.3876Z" fill="white"/>
<path d="M216.94 22.9757C215.882 23.679 214.576 24.2417 213.27 24.2417C212.53 24.2417 212 23.9252 211.506 23.2219C211.33 23.3626 211.012 23.4681 210.871 23.2571C210.236 22.3779 210.06 21.1472 210.024 19.9516C209.954 16.8923 209.989 14.6417 210.801 11.8989C210.871 11.6176 211.542 11.0901 212.036 11.2308C212.247 10.6681 212.812 10.0703 213.482 10C215.282 10 217.222 10.9494 217.822 12.7428C217.999 13.3055 217.999 13.9033 217.787 14.4659C217.575 14.9934 217.222 15.4505 216.764 15.8022L216.552 15.978C217.434 16.2593 218.422 16.8219 218.987 17.701C219.41 18.3692 219.445 19.178 219.269 19.9516C218.951 21.2175 218.034 22.2373 216.94 22.9757ZM217.928 18.2989C217.646 17.7714 216.87 17.4549 216.305 17.1736C215.635 16.7516 215.035 16.9274 214.364 17.0681L213.306 17.3142C212.918 17.4197 212.53 17.4197 212.106 17.3142C211.93 17.2087 211.718 16.8571 211.894 16.6813C212.318 16.2593 212.847 16.0483 213.447 15.9077L215.07 15.7318C215.705 15.3802 216.376 14.6769 216.658 14.0088C216.834 13.4461 216.728 13.0593 216.376 12.6022C215.74 11.7231 214.717 11.3363 213.694 11.2308C213.376 11.1956 213.27 11.2659 213.2 11.4769C213.094 11.7582 213.023 12.0747 212.847 12.3209C212.777 12.4967 212.53 12.567 212.353 12.4615C212.212 12.4264 212.106 12.356 212.036 12.2857C211.612 13.7978 211.365 15.5208 211.295 17.3142C211.224 19.0021 211.295 20.6549 211.542 22.2021C211.824 21.8856 212.177 21.4285 212.353 21.1824C212.6 20.9362 213.059 21.323 212.988 21.5692C212.918 21.745 212.777 21.956 212.671 22.1318C212.6 22.3428 212.494 22.5186 212.494 22.6593C212.706 22.9757 213.2 23.0812 213.8 23.0109C214.682 22.8703 215.74 22.378 216.517 21.7802C217.222 21.2175 217.822 20.5142 217.999 19.6351C218.105 19.2131 218.175 18.7208 217.928 18.2989Z" fill="white"/>
<path d="M192.086 5.09011C192.015 4.91429 191.909 4.7033 191.839 4.52747C191.803 4.28132 191.98 4.211 192.086 4.211C192.227 4.211 192.368 4.28133 192.474 4.31649C192.791 4.56264 193.038 4.94946 193.215 5.33627C193.356 5.68791 193.321 6.18021 193.109 6.46152C192.862 6.77801 192.58 7.0945 192.227 7.30549C191.698 7.62197 191.062 7.86811 190.498 8.04394C189.898 8.21976 188.593 8.25493 187.993 8.07911C187.181 7.86812 186.687 7.48131 186.44 6.91868C186.264 6.4967 186.193 6.00439 186.264 5.47692C186.299 5.01978 186.44 4.56265 186.652 4.211C186.722 4.10551 186.828 4.07034 186.899 4.07034C186.969 4.03517 187.04 4.03516 187.146 4C187.322 4.14066 187.534 4.28132 187.534 4.52747C187.534 4.77363 187.499 5.05495 187.463 5.33627C187.393 5.65275 187.358 5.93407 187.463 6.14506C187.463 6.63736 187.781 6.8835 188.24 7.02416C188.84 7.19999 189.686 7.12967 190.427 6.91868C190.992 6.74286 191.521 6.4967 191.874 6.18021C192.086 6.00439 192.192 5.82856 192.192 5.65273C192.227 5.47691 192.156 5.3011 192.086 5.09011ZM195.12 23.6922C194.379 22.8483 194.168 21.723 193.991 20.6329C193.638 18.101 193.709 15.3934 193.638 12.756C191.486 15.8153 189.792 18.9098 187.746 22.3911C187.534 22.6373 187.428 22.8131 187.075 22.9537C186.758 22.9537 186.475 22.9186 186.228 22.5669C184.535 19.4373 184.217 15.6043 184.464 11.8066C184.464 11.5604 184.535 11.1384 184.817 11.0329C185.276 10.8923 185.629 11.2791 185.629 11.5604C185.417 15.0769 185.805 18.4175 186.969 21.4417C188.204 19.3318 189.192 17.5736 190.251 15.8505C191.345 14.0571 192.509 12.334 193.991 10.3648C194.273 10.1538 194.662 10.2945 194.803 10.5758C194.909 13.9516 194.873 17.2571 195.156 20.4922C195.226 21.5472 195.473 22.5669 195.544 23.5515C195.544 23.6922 195.226 23.8329 195.12 23.6922Z" fill="white"/>
<path d="M174.226 22.1122C173.309 22.921 172.18 23.4484 171.086 23.6946C170.204 23.9056 168.969 24.0111 168.228 23.2726C168.016 23.0968 167.698 22.5342 168.016 22.2177C168.263 22.3935 168.439 22.5342 168.651 22.6397C168.792 22.7451 168.933 22.8155 169.11 22.8155C169.074 20.3891 169.216 15.7122 169.286 13.3562C169.321 12.7936 169.251 12.1958 169.286 11.6331C169.357 11.0705 169.463 10.5079 169.921 10.0859C170.239 9.98038 170.521 9.91006 170.698 10.2617C170.521 10.8947 170.521 12.0199 170.486 13.2507C170.486 14.376 170.486 15.5716 170.451 16.4155C170.945 16.0639 171.65 15.7825 172.321 15.7122C173.132 15.6419 173.979 15.7825 174.649 16.1694C175.708 16.732 176.343 17.9628 176.061 19.2287C175.849 20.3188 175.108 21.3386 174.226 22.1122ZM174.685 17.7869C174.261 17.1188 173.52 16.8727 172.709 16.8727C171.897 16.9078 171.015 17.2243 170.486 17.7166L170.204 22.7451C171.297 22.499 172.427 22.0067 173.344 21.2331C173.979 20.7056 174.579 20.0726 174.826 19.2638C175.002 18.7715 174.967 18.1737 174.685 17.7869ZM182.024 24.0814C181.142 23.8353 181.142 22.9561 181.036 22.2528C180.507 18.2441 180.824 14.376 181.354 10.4024C181.671 9.91006 182.236 10.332 182.377 10.6133C182.412 11.4221 182.377 12.1958 182.271 13.0045C182.2 13.7782 182.095 14.587 182.095 15.3957C182.059 16.7672 181.989 18.1737 182.024 19.5803C182.024 20.9517 182.165 22.3583 182.377 23.6594C182.412 23.8352 182.2 24.0814 182.024 24.0814Z" fill="white"/>
<path d="M165.317 15.9417C165.07 18.4384 165.211 21.3571 165.388 23.8186C165.423 24.0647 165.07 24.0999 164.894 23.9944C164.4 23.6076 164.153 22.5878 164.117 21.9549C164.012 19.9856 164.012 18.1571 164.117 16.1879C161.506 16.2933 158.684 16.223 156.108 16.5043C156.002 18.8604 156.072 21.1109 156.178 23.3614C156.214 23.4318 156.072 23.5373 155.896 23.5724C155.79 23.5724 155.614 23.5373 155.508 23.4318C155.049 22.9746 154.943 22.1307 154.908 21.568C154.732 18.0164 154.979 14.4648 155.331 10.9835C155.402 10.7725 155.72 10.5615 156.002 10.7373C156.39 10.9132 156.39 11.3703 156.461 11.7219C156.39 12.6362 156.284 14.1835 156.178 15.2736C158.754 15.0978 161.612 15.2032 164.188 15.1681C164.329 13.445 164.4 11.7219 164.823 10.1044C164.999 9.89338 165.352 10.034 165.564 10.245C165.74 10.456 165.846 10.878 165.846 11.1241C165.67 12.4604 165.423 13.7615 165.388 15.1329C165.493 15.1329 165.599 15.0977 165.705 15.0977C165.776 15.0977 165.882 15.1681 165.882 15.3439C165.882 15.4142 165.882 15.5549 165.811 15.6252C165.705 15.7659 165.493 15.8714 165.317 15.9417Z" fill="white"/>
<path d="M142.223 23.1097C141.765 23.1449 141.447 22.6525 141.235 22.3009C140.459 20.9295 139.824 19.4877 139.365 17.9757C138.765 16.1119 138.448 14.213 138.307 12.1735C137.248 13.7911 135.484 16.7449 134.39 18.3273C133.261 20.0152 132.132 21.8086 131.214 23.4965C131.108 23.7427 130.72 23.5668 130.579 23.3558C130.403 23.0394 130.473 22.6174 130.544 22.3009C130.756 21.9844 131.144 21.1756 131.355 20.7185C133.649 17.2372 136.048 13.6856 138.165 10.2043C138.412 9.95811 139.259 9.81746 139.33 10.4856C139.506 12.6306 139.824 14.7757 140.318 16.8152C140.812 18.8548 141.553 20.7537 142.506 22.5822C142.541 22.6877 142.506 23.0745 142.223 23.1097Z" fill="white"/>
<path d="M123.585 23.7359C121.821 23.6656 120.198 22.8568 119.175 21.3447C118.328 20.0788 118.116 18.6019 118.293 17.1601C118.504 15.5425 119.175 13.9953 120.092 12.7997C121.115 11.4634 122.562 10.4085 124.22 10.092C125.35 9.88104 126.549 9.98653 127.396 10.9008C127.784 11.3228 128.137 11.7799 128.137 12.3426C128.172 12.9404 127.89 13.4678 127.396 13.8546C124.926 15.8942 122.315 17.7931 119.633 19.3403C119.704 20.4304 120.657 21.5557 121.68 22.1183C122.703 22.681 123.903 22.7513 125.032 22.6106C126.161 22.5051 127.326 22.1183 128.137 21.7315C128.278 21.626 128.384 21.7315 128.419 21.837C128.455 21.9073 128.525 22.048 128.384 22.1535C127.149 23.2788 125.385 23.8062 123.585 23.7359ZM125.138 11.1821C124.115 11.1821 123.091 11.6041 122.28 12.2371C120.551 13.6437 119.528 15.8942 119.528 18.0744C122.033 16.703 124.397 14.9096 126.69 13.0459C126.867 12.9052 127.008 12.3777 126.761 11.9558C126.479 11.3931 125.844 11.1821 125.138 11.1821Z" fill="white"/>
<path d="M115.878 11.7378C114.96 11.5268 114.043 11.3158 113.09 11.2806C112.314 12.2652 111.926 13.4257 111.714 14.6564C111.467 15.9223 111.502 17.2586 111.432 18.5597C111.361 20.3179 111.502 22.0058 111.714 23.6586C111.608 23.8696 111.291 24.0102 111.044 23.8696C110.444 23.1311 110.303 22.1816 110.267 21.2322C110.232 19.1223 110.197 16.907 110.514 14.8322C110.726 13.496 111.114 12.2652 111.926 11.14C109.738 11.0345 107.727 11.4916 105.716 12.0542C105.433 12.0191 105.116 11.8432 104.939 11.5619C104.869 11.3158 105.01 11.1751 105.151 11.1048L105.363 11.0345L105.539 10.9641C107.021 10.3663 108.821 10.0498 110.55 10.0147C112.314 9.94435 114.078 10.1202 115.631 10.6828C115.807 10.7531 116.125 10.9993 116.231 11.2103C116.266 11.4564 116.089 11.7729 115.878 11.7378Z" fill="white"/>
<path d="M99.7327 23.8033C97.7921 24.3307 95.5338 24.2956 94.0166 22.9945C93.3109 22.3967 92.7816 21.5176 92.7463 20.5681C92.711 19.7242 93.0639 18.9506 93.5579 18.2473C94.6517 16.7 96.5571 15.6451 98.3919 15.4341C99.1682 15.3638 99.8739 15.4693 100.438 16.0319C100.615 16.2077 100.438 16.5594 100.262 16.6297H99.9444C99.8386 16.6297 99.6974 16.5945 99.5916 16.5945C99.3446 16.5594 99.1329 16.5242 98.9917 16.6297C97.2981 16.7 95.6397 17.5088 94.6164 18.8802C94.1577 19.478 93.9107 19.9352 93.9813 20.6736C94.0519 21.6582 94.7928 22.3967 95.8161 22.7483C97.2628 23.2758 99.0623 22.9593 100.438 22.467C101.179 22.1857 101.85 21.9044 102.485 21.4472C102.626 21.3418 102.767 21.4472 102.838 21.6231C102.873 21.7637 102.873 21.9044 102.873 22.0099C102.379 22.9593 100.403 23.6275 99.7327 23.8033ZM101.709 21.4121C101.532 21.6231 101.215 21.5879 101.074 21.4824C100.721 21.2363 100.721 20.7791 100.721 20.4275C100.756 19.8297 100.862 19.2319 101.003 18.5989L101.462 16.6649C101.744 15.3989 101.92 14.133 101.532 13.0781C101.215 12.1638 100.438 11.2495 99.4857 11.144C98.6742 11.0385 97.8626 11.3198 97.1922 11.8121C96.8394 12.0583 96.0631 12.7264 95.8514 13.1132C95.8161 13.2539 95.8867 13.5 96.0278 13.6407C96.169 13.7814 96.0631 14.2033 95.7455 14.133C95.4985 14.0627 95.2163 13.9923 95.0046 13.8165C94.7223 13.5704 94.6164 13.1132 94.8281 12.7616C95.428 11.7418 96.2748 10.8979 97.3686 10.4055C98.0743 10.0539 98.9212 9.91324 99.8033 10.0539C100.862 10.2297 101.779 11.0033 102.309 11.988C103.12 13.5 103.014 15.3989 102.626 17.0868C102.273 18.5286 101.92 19.8648 101.709 21.4121Z" fill="white"/>
<path d="M86.8492 22.9164C85.5083 23.5845 84.0264 23.9713 82.4386 24.1472C81.9799 24.2175 81.2742 24.2527 80.8507 23.8659C80.392 23.5494 80.4626 22.8461 80.5685 22.4944C80.639 22.3186 81.0272 22.1779 81.133 22.4241C81.133 22.4593 81.1683 22.5296 81.1683 22.5999C81.2389 22.7758 81.3447 22.9867 81.5565 23.0571C83.1443 22.9867 84.6262 22.6703 85.9671 22.0021C87.3785 21.334 88.2606 20.6307 89.2485 19.3648C89.5308 19.0131 89.6014 18.5912 89.425 18.2747C89.2133 17.7824 88.684 17.2901 88.19 17.0439C87.5902 16.7626 86.8492 16.6571 86.0376 16.6219C85.3319 16.6219 84.5557 16.6571 83.7794 16.6923C83.5677 16.6923 83.3913 16.4813 83.356 16.3055C83.3207 16.0593 83.3913 15.9186 83.5324 15.778L83.8853 15.5318C84.344 15.3912 84.8379 15.3912 85.2613 15.4263C85.7201 15.4615 86.1435 15.5318 86.5669 15.4967C86.9903 15.4967 87.449 15.3209 87.7666 14.8989L88.437 14.1956C88.6134 13.9494 88.7193 13.7033 88.6134 13.422C87.943 12.578 87.1315 12.1209 86.214 11.7692C85.1555 11.3824 83.9558 11.2418 82.7208 11.1363C82.4738 10.9956 82.4033 10.5385 82.615 10.3275C83.0031 10.011 83.4618 9.97582 83.8853 10.011C84.8379 10.0813 86.1082 10.3626 86.9198 10.7143C88.0842 11.2066 89.0721 11.9099 89.7425 13.0351C90.0601 13.7384 89.7425 14.4769 89.2838 14.934C88.931 15.3208 88.5076 15.6022 88.0842 15.8835C88.8251 16.2 89.8131 16.6571 90.3071 17.3604C90.9069 18.134 90.8364 19.0835 90.413 19.8571C89.7778 21.123 88.0841 22.2834 86.8492 22.9164Z" fill="white"/>
<path d="M78.239 12.058C78.4507 15.6097 78.3449 19.4074 77.9567 22.9239C77.8862 23.0646 77.8156 23.2755 77.745 23.5217C77.6392 23.7327 77.5686 23.9437 77.3922 24.1547C77.3216 24.2953 76.8629 24.3656 76.7571 24.1195C76.8276 23.3107 77.2158 19.0558 77.1099 17.2272C74.5341 18.7041 72.1347 21.3063 70.3352 23.7327C70.1588 23.9085 69.7354 23.9085 69.6648 23.5569C69.6648 22.9239 69.9118 22.4316 70.2646 21.9393C70.6175 21.4822 71.0409 21.0602 71.3585 20.5679C72.2406 19.5129 73.2639 18.6338 74.3224 17.7899C73.4756 17.8602 72.5934 17.7899 71.7466 17.4031C70.7939 16.9811 70.1588 16.1723 70.0176 15.1174C69.9118 14.4844 70.0176 13.8163 70.3352 13.324C70.9703 12.3393 71.8172 11.4954 72.7699 10.9328C73.899 10.2646 75.1339 9.91299 76.5101 10.0185C77.251 10.2646 78.0979 10.5108 78.4507 11.2844C78.5213 11.5306 78.5213 11.847 78.239 12.058ZM77.0746 13.5701C77.0746 12.7965 77.0393 12.058 76.9335 11.3547C76.2984 11.1086 75.7691 11.0383 75.0634 11.2492C74.3224 11.4602 73.4403 11.8119 72.7346 12.3393C71.8877 12.9723 71.2526 13.7811 71.2173 14.836C71.2879 15.2932 71.4643 15.7503 71.8525 16.102C72.3464 16.4184 72.9816 16.5943 73.5461 16.6294C74.8164 16.7349 76.1219 16.3481 77.1099 15.8558C77.0746 15.1173 77.0746 14.3437 77.0746 13.5701Z" fill="white"/>
<path d="M65.3714 2.12176C64.5951 2.40308 63.7483 2.5789 62.972 2.86022C61.5606 3.31736 60.6079 3.91516 59.6199 5.00527C58.632 6.06021 57.9968 7.32612 57.4323 8.66238C56.8677 10.0338 56.4796 11.5459 56.0562 12.9876C57.3264 12.1085 58.8084 11.3349 60.3609 11.0887C61.737 10.8426 63.2543 11.1239 64.454 11.8975C65.7242 12.7063 66.5711 14.1129 66.9239 15.5898C67.2768 17.1722 67.1356 18.6491 66.3241 20.0557C65.6184 21.3216 64.5246 22.3766 63.1837 23.0095C62.0546 23.5722 60.5726 23.748 59.2318 23.537C57.6793 23.326 56.4443 22.6227 55.5269 21.392C54.5389 20.0557 54.2567 18.4381 54.2919 16.7854C54.3625 14.4997 55.0329 12.0382 55.6328 10.1745C56.3738 7.92393 57.4323 5.4624 59.2671 3.70417C60.1492 2.86022 61.2078 2.19209 62.3369 1.80528C63.1131 1.55913 63.9247 1.3833 64.7363 1.13715C65.5125 0.890996 66.2535 0.574516 66.9239 0.0118804C67.1356 -0.0232838 67.4885 0.0118744 67.559 0.222864C67.7002 0.433851 67.7002 0.715177 67.559 0.891C66.8886 1.4888 66.1477 1.87561 65.3714 2.12176ZM65.3008 14.6404C64.8421 13.6206 63.9247 12.847 62.9015 12.5305C61.8782 12.1788 60.5726 12.2492 59.5494 12.5657C58.138 12.9876 56.8324 13.8316 55.7033 14.8514C55.3858 16.3986 55.421 18.2623 55.9503 19.6689C56.1973 20.3722 56.6913 21.0052 57.3264 21.4975C58.385 22.3414 59.4788 22.4469 60.8196 22.3063C62.2663 22.1656 63.5718 21.4975 64.6304 20.4074C65.4772 19.5634 65.8301 18.7195 65.8654 17.4887C65.9007 16.4689 65.6889 15.4492 65.3008 14.6404Z" fill="white"/>
<path d="M48.2821 22.7632C46.6943 23.572 44.7889 23.9236 43.06 23.0797C41.7191 22.4116 40.7664 21.2863 40.3077 19.8797C39.7785 18.227 39.9549 16.3633 40.6606 14.816C41.1899 13.6907 42.0014 12.7061 42.9541 11.9677C43.5892 11.5105 44.5419 10.9479 45.424 10.8424C46.1297 10.0336 47.2942 9.78747 48.2821 10.0336C49.9758 10.4908 51.4225 12.2138 51.8812 13.7259C52.3399 15.2028 52.4457 16.8204 52.0223 18.3325C51.493 20.372 50.1522 21.8489 48.2821 22.7632ZM50.7168 14.1127C50.2934 12.9523 49.3407 11.6512 48.1057 11.2292C47.5412 11.0182 46.9413 10.9479 46.4826 11.2995C46.0239 11.6512 45.7416 12.2138 45.5299 12.7061C45.4946 12.8116 45.4946 12.9523 45.4946 13.0929C45.4946 13.2336 45.4946 13.4094 45.4594 13.5501C45.4241 13.6204 45.0712 13.8314 44.9654 13.6204C44.8948 13.3039 44.8242 12.671 44.8595 12.1787C43.5187 12.7413 42.3896 13.9017 41.7544 15.2028C41.084 16.5742 41.0487 18.1566 41.4721 19.5632C41.825 20.6533 42.4954 21.5676 43.6245 22.0248C45.0359 22.5522 46.5532 22.3764 47.8234 21.7434C49.2701 21.005 50.2934 19.8797 50.7874 18.3676C51.2461 17.0314 51.1755 15.449 50.7168 14.1127Z" fill="white"/>
<path d="M229.651 22.7632C228.063 23.572 226.158 23.9236 224.429 23.0797C223.088 22.4116 222.135 21.2863 221.677 19.8797C221.147 18.227 221.324 16.3633 222.029 14.816C222.559 13.6907 223.37 12.7061 224.323 11.9677C224.958 11.5105 225.911 10.9479 226.793 10.8424C227.499 10.0336 228.663 9.78747 229.651 10.0336C231.345 10.4908 232.791 12.2138 233.25 13.7259C233.709 15.2028 233.815 16.8204 233.391 18.3325C232.862 20.372 231.521 21.8489 229.651 22.7632ZM232.086 14.1127C231.662 12.9523 230.71 11.6512 229.475 11.2292C228.91 11.0182 228.31 10.9479 227.852 11.2995C227.393 11.6512 227.111 12.2138 226.899 12.7061C226.864 12.8116 226.864 12.9523 226.864 13.0929C226.864 13.2336 226.864 13.4094 226.828 13.5501C226.793 13.6204 226.44 13.8314 226.334 13.6204C226.264 13.3039 226.193 12.671 226.228 12.1787C224.888 12.7413 223.758 13.9017 223.123 15.2028C222.453 16.5742 222.418 18.1566 222.841 19.5632C223.194 20.6533 223.864 21.5676 224.993 22.0248C226.405 22.5522 227.922 22.3764 229.192 21.7434C230.639 21.005 231.662 19.8797 232.156 18.3676C232.615 17.0314 232.544 15.449 232.086 14.1127Z" fill="white"/>
<path d="M269.753 22.7632C268.165 23.572 266.259 23.9236 264.53 23.0797C263.19 22.4116 262.237 21.2863 261.778 19.8797C261.249 18.227 261.425 16.3633 262.131 14.816C262.66 13.6907 263.472 12.7061 264.425 11.9677C265.06 11.5105 266.012 10.9479 266.895 10.8424C267.6 10.0336 268.765 9.78747 269.753 10.0336C271.446 10.4908 272.893 12.2138 273.352 13.7259C273.81 15.2028 273.916 16.8204 273.493 18.3325C272.964 20.372 271.623 21.8489 269.753 22.7632ZM272.187 14.1127C271.764 12.9523 270.811 11.6512 269.576 11.2292C269.012 11.0182 268.412 10.9479 267.953 11.2995C267.494 11.6512 267.212 12.2138 267 12.7061C266.965 12.8116 266.965 12.9523 266.965 13.0929C266.965 13.2336 266.965 13.4094 266.93 13.5501C266.895 13.6204 266.542 13.8314 266.436 13.6204C266.365 13.3039 266.295 12.671 266.33 12.1787C264.989 12.7413 263.86 13.9017 263.225 15.2028C262.554 16.5742 262.519 18.1566 262.943 19.5632C263.295 20.6533 263.966 21.5676 265.095 22.0248C266.506 22.5522 268.024 22.3764 269.294 21.7434C270.741 21.005 271.764 19.8797 272.258 18.3676C272.717 17.0314 272.646 15.449 272.187 14.1127Z" fill="white"/>
<path d="M151.5 21.597C150.724 22.3706 149.806 23.0387 148.783 23.4607C147.901 23.8124 146.878 23.9178 145.819 23.6014C145.784 23.7772 145.643 23.9882 145.466 23.9882C144.902 23.7772 144.69 23.2497 144.584 22.7926C144.337 18.5377 144.796 14.3531 145.537 10.3795C145.713 9.99265 146.419 9.78165 146.631 10.3443C146.419 12.3838 146.031 14.4234 145.925 16.4629C147.16 15.5135 148.748 15.0564 150.3 15.408C151.324 15.6542 152.347 16.5684 152.664 17.5882C153.158 19.0651 152.629 20.542 151.5 21.597ZM150.018 16.6388C148.43 16.252 146.948 16.9553 145.819 18.1509C145.819 19.4519 145.819 21.4212 145.784 22.5113C146.701 22.7222 147.619 22.6168 148.43 22.2651C149.489 21.8431 150.441 21.0343 151.182 20.0849C151.712 19.4168 151.747 18.3618 151.324 17.6234C151.077 17.1311 150.512 16.7443 150.018 16.6388Z" fill="white"/>
</svg>
