<svg width="263" height="88" fill="none" xmlns="http://www.w3.org/2000/svg"><path d="M10.2 7.507a2.47 2.47 0 0 1-.624.56c-.347.036-.625 0-.868-.14-.764-.35-1.632-.911-2.257-1.367-.035 1.122-.139 2.28 0 3.366-.07.562-.694.316-.764.176a.629.629 0 0 1-.173-.246.765.765 0 0 1-.174-.28c-.07-.316-.07-.632-.07-.912.035-.596.07-1.228.07-1.824-.798.772-1.77 1.438-2.812 1.824-.243.035-.625.035-.903-.21-.416-.351-.034-.947.452-1.263l.243.456c.243-.07.486-.246.729-.35.729-.457 1.458-1.123 2.048-1.79-1.11-.911-2.222-2.033-3.16-3.05-.242-.21-.138-.526-.034-.702.312-.42.798-.14.903-.035a42.66 42.66 0 0 0 2.5 2.525c0-.947.034-1.894-.035-2.77L4.993.668c-.035-.21.104-.701.555-.666.313.105.486.35.625.631l.105.246c.104.245.173.7.173.946v1.93l.104-.176.73-.982c.242-.35.59-.631 1.006-.877.556-.315 1.597 0 1.285 1.052-.243-.035-.313-.07-.417-.105-.07 0-.139-.035-.278-.07-.208-.07-.902.877-1.006 1.017-.417.561-.764 1.157-1.216 1.753a16.445 16.445 0 0 0 2.743 1.684.464.464 0 0 1 .208-.176c.07-.07.14-.105.382-.21.278.28.313.49.278.631-.035.07-.07.105-.07.21zM23.59 22.481c0 .28-.312.35-.485.316-.382-.14-.452-.772-.521-1.123-.104-.63-.104-1.262-.104-1.928v-2.14c0-1.648.208-3.436.243-5.12-.209-.315-.556-.49-.903-.56-.382-.106-.833-.141-1.215-.246-1.389-.21-2.778-.421-4.236-.35-.173 1.542-.59 2.98-.798 4.523-.313 2.28-.59 4.419-.452 6.839 0 .28.07.7-.208.911-.139.14-.52.14-.694-.035-.174-.21-.243-.456-.278-.701-.035-.246 0-.526-.035-.807-.034-3.682.556-7.119 1.285-10.696-.174.035-.347.07-.521.035-.313-.175-.243-.49-.104-.631.139-.28.382-.386.625-.456s.52-.14.764-.14c2.36-.176 4.86.175 7.013.877.416.245 1.007.526 1.041 1.087-.312 3.366-.382 6.838-.416 10.345zM33.984 22.797c-1.563.806-3.437 1.157-5.139.315-1.319-.666-2.256-1.788-2.708-3.19-.52-1.65-.347-3.508.348-5.05a7.855 7.855 0 0 1 2.256-2.841c.625-.456 1.563-1.018 2.43-1.123.695-.806 1.84-1.052 2.813-.806 1.666.456 3.09 2.174 3.541 3.682.451 1.473.556 3.086.139 4.594-.52 2.034-1.84 3.507-3.68 4.419zm2.395-8.627c-.416-1.158-1.354-2.455-2.569-2.876-.555-.21-1.146-.28-1.597.07-.451.35-.729.912-.937 1.403-.035.105-.035.245-.035.386 0 .14 0 .315-.035.456-.034.07-.382.28-.486.07a5.919 5.919 0 0 1-.104-1.438c-1.32.561-2.43 1.718-3.055 3.016-.66 1.368-.695 2.946-.278 4.348.347 1.088 1.007 2 2.118 2.455 1.389.526 2.881.351 4.131-.28 1.424-.737 2.43-1.859 2.917-3.367.451-1.332.382-2.91-.07-4.243zM45.641 23.498c-1.32.175-2.708.07-4.027-.736-1.736-1.052-2.5-2.876-2.396-4.91a9.018 9.018 0 0 1 1.458-4.384 8.76 8.76 0 0 1 3.542-3.12c.763-.387 1.805-.562 2.638-.211.694.28 1.424 1.017 1.563 1.718.069.21-.278.666-.556.456-.382-.35-.868-.806-1.354-1.017-.486-.21-.937-.245-1.458-.035-1.354.561-2.604 1.648-3.437 2.946a7.87 7.87 0 0 0-1.25 4.033c0 1.297.486 2.525 1.562 3.331 1.007.737 2.326.912 3.541.807 2.049-.175 3.854-1.052 5.66-1.859.208 0 .52.35.347.596-1.736.982-3.715 2.07-5.833 2.385zM63.864 23.183c-.451.035-.764-.456-.972-.807a21.469 21.469 0 0 1-1.84-4.314c-.59-1.858-.903-3.752-1.042-5.786-1.041 1.613-2.777 4.559-3.853 6.137-1.111 1.683-2.222 3.472-3.125 5.155-.104.246-.486.07-.625-.14-.173-.316-.104-.736-.035-1.052.209-.316.59-1.122.799-1.578 2.257-3.472 4.617-7.014 6.7-10.486.244-.245 1.077-.386 1.146.28.174 2.14.486 4.28.972 6.313a25.415 25.415 0 0 0 2.153 5.752c.035.105 0 .49-.278.526zM70.708 23.638c-1.736-.07-3.333-.876-4.34-2.384-.833-1.263-1.042-2.736-.868-4.174a9.311 9.311 0 0 1 1.77-4.348c1.008-1.333 2.431-2.385 4.063-2.7 1.11-.21 2.291-.106 3.124.806.382.421.73.877.73 1.438.034.596-.243 1.122-.73 1.508-2.43 2.034-5 3.928-7.638 5.47.07 1.088 1.007 2.21 2.014 2.771 1.007.561 2.187.632 3.298.491 1.111-.105 2.257-.49 3.055-.876.14-.106.243 0 .278.105.035.07.104.21-.034.315-1.216 1.123-2.952 1.649-4.722 1.578zm1.527-12.52c-1.006 0-2.013.421-2.812 1.053-1.701 1.402-2.708 3.647-2.708 5.821 2.465-1.367 4.791-3.156 7.048-5.015.174-.14.313-.666.07-1.087-.278-.56-.903-.771-1.598-.771zM92.594 22.621c-1.319.667-2.777 1.053-4.34 1.228-.45.07-1.145.105-1.562-.28-.451-.316-.382-1.018-.278-1.368.07-.176.452-.316.556-.07 0 .035.035.105.035.175.07.175.173.386.382.456 1.562-.07 3.02-.386 4.34-1.052 1.388-.667 2.256-1.368 3.228-2.63.278-.351.347-.772.174-1.088-.209-.49-.73-.982-1.215-1.227-.59-.28-1.32-.386-2.118-.421-.695 0-1.458.035-2.222.07-.209 0-.382-.21-.417-.386a.552.552 0 0 1 .174-.526l.347-.245c.451-.14.937-.14 1.354-.105.451.035.868.105 1.285.07.416 0 .868-.175 1.18-.596l.66-.702c.173-.245.277-.49.173-.771-.66-.842-1.458-1.298-2.36-1.649-1.042-.385-2.223-.526-3.438-.63-.243-.141-.312-.597-.104-.807.382-.316.833-.351 1.25-.316.937.07 2.187.35 2.986.701 1.145.491 2.118 1.193 2.777 2.315.313.701 0 1.438-.451 1.894-.347.386-.764.666-1.18.947.729.315 1.7.771 2.187 1.473.59.771.52 1.718.104 2.49-.625 1.262-2.291 2.42-3.507 3.05zM104.749 23.498c-1.91.526-4.132.491-5.625-.806-.694-.597-1.215-1.473-1.25-2.42-.034-.842.313-1.613.799-2.315 1.076-1.543 2.951-2.595 4.756-2.805.764-.07 1.458.035 2.014.596.174.175 0 .526-.174.596h-.312c-.104 0-.243-.035-.347-.035-.243-.035-.452-.07-.591.035-1.666.07-3.298.877-4.305 2.244-.451.597-.694 1.052-.625 1.789.07.982.799 1.718 1.806 2.069 1.423.526 3.194.21 4.548-.28.729-.281 1.389-.562 2.014-1.018.138-.105.277 0 .347.176.034.14.034.28.034.386-.486.947-2.43 1.613-3.089 1.788zm1.944-2.385c-.174.21-.486.176-.625.07-.347-.245-.347-.7-.347-1.052.034-.596.139-1.192.277-1.823l.452-1.929c.277-1.262.451-2.525.069-3.577-.312-.912-1.076-1.824-2.013-1.929-.799-.105-1.598.176-2.257.667-.347.245-1.111.911-1.32 1.297-.034.14.035.386.174.526.139.14.035.561-.278.491-.243-.07-.52-.14-.729-.315-.278-.246-.382-.702-.173-1.053.59-1.017 1.423-1.858 2.499-2.35a3.918 3.918 0 0 1 2.396-.35c1.042.175 1.944.947 2.465 1.929.799 1.508.694 3.402.312 5.085-.347 1.438-.694 2.77-.902 4.313zM119.643 22.481c0 .28-.312.35-.486.316-.382-.14-.451-.772-.521-1.123-.104-.63-.104-1.262-.104-1.928v-2.14c0-1.648.208-3.436.243-5.12-.208-.315-.555-.49-.903-.56-.381-.106-.833-.141-1.215-.246-1.388-.21-2.777-.421-4.235-.35-.174 1.542-.591 2.98-.799 4.523-.312 2.28-.59 4.419-.451 6.839 0 .28.069.7-.209.911-.138.14-.52.14-.694-.035-.174-.21-.243-.456-.278-.701-.034-.246 0-.526-.034-.807-.035-3.682.555-7.119 1.284-10.696-.173.035-.347.07-.521.035-.312-.175-.243-.49-.104-.631.139-.28.382-.386.625-.456s.521-.14.764-.14c2.361-.176 4.861.175 7.013.877.417.245 1.007.526 1.042 1.087-.313 3.366-.382 6.838-.417 10.345zM130.036 22.797c-1.562.806-3.437 1.157-5.138.315-1.32-.666-2.257-1.788-2.708-3.19-.521-1.65-.347-3.508.347-5.05a7.852 7.852 0 0 1 2.257-2.841c.625-.456 1.562-1.018 2.43-1.123.694-.806 1.84-1.052 2.812-.806 1.667.456 3.09 2.174 3.541 3.682.452 1.473.556 3.086.139 4.594-.52 2.034-1.84 3.507-3.68 4.419zm2.396-8.627c-.417-1.158-1.354-2.455-2.569-2.876-.556-.21-1.146-.28-1.598.07-.451.35-.729.912-.937 1.403-.035.105-.035.245-.035.386 0 .14 0 .315-.034.456-.035.07-.382.28-.486.07a5.925 5.925 0 0 1-.105-1.438c-1.319.561-2.43 1.718-3.055 3.016-.659 1.368-.694 2.946-.278 4.348.348 1.088 1.007 2 2.118 2.455 1.389.526 2.882.351 4.132-.28 1.423-.737 2.43-1.859 2.916-3.367.451-1.332.382-2.91-.069-4.243zM146.728 23.183c-.452.035-.764-.456-.973-.807a21.554 21.554 0 0 1-1.84-4.314c-.59-1.858-.902-3.752-1.041-5.786-1.042 1.613-2.778 4.559-3.854 6.137-1.111 1.683-2.222 3.472-3.125 5.155-.104.246-.486.07-.625-.14-.173-.316-.104-.736-.034-1.052.208-.316.59-1.122.798-1.578 2.257-3.472 4.618-7.014 6.701-10.486.243-.245 1.076-.386 1.146.28.173 2.14.486 4.28.972 6.313a25.428 25.428 0 0 0 2.152 5.752c.035.105 0 .49-.277.526zM158.987 15.713c-.243 2.49-.104 5.4.07 7.855.034.246-.313.28-.486.176-.486-.386-.729-1.403-.764-2.034a53.048 53.048 0 0 1 0-5.752c-2.569.106-5.347.035-7.881.316-.104 2.35-.035 4.594.069 6.838.035.07-.104.176-.278.21-.104 0-.277-.034-.381-.14-.452-.455-.556-1.297-.591-1.858-.173-3.542.07-7.084.417-10.556.069-.21.382-.42.66-.245.382.175.382.63.451.982-.069.911-.174 2.454-.278 3.541 2.535-.175 5.347-.07 7.881-.105.139-1.718.209-3.437.625-5.05.174-.21.521-.07.729.14.174.211.278.632.278.877-.173 1.333-.417 2.63-.451 3.998.104 0 .208-.035.312-.035.07 0 .174.07.174.246 0 .07 0 .21-.07.28-.104.14-.312.246-.486.316zM166.76 23.638c-1.736-.07-3.333-.876-4.34-2.384-.833-1.263-1.041-2.736-.868-4.174a9.316 9.316 0 0 1 1.771-4.348c1.007-1.333 2.43-2.385 4.062-2.7 1.111-.21 2.292-.106 3.125.806.382.421.729.877.729 1.438.035.596-.243 1.122-.729 1.508-2.43 2.034-5 3.928-7.638 5.47.069 1.088 1.007 2.21 2.013 2.771 1.007.561 2.188.632 3.299.491 1.111-.105 2.256-.49 3.055-.876.139-.106.243 0 .278.105.034.07.104.21-.035.315-1.215 1.123-2.951 1.649-4.722 1.578zm1.528-12.52c-1.007 0-2.014.421-2.812 1.053-1.702 1.402-2.708 3.647-2.708 5.821 2.465-1.367 4.791-3.156 7.047-5.015.174-.14.313-.666.07-1.087-.278-.56-.903-.771-1.597-.771zM183.636 15.713c-.243 2.49-.104 5.4.07 7.855.034.246-.313.28-.486.176-.487-.386-.73-1.403-.764-2.034a53.048 53.048 0 0 1 0-5.752c-2.569.106-5.347.035-7.881.316-.105 2.35-.035 4.594.069 6.838.035.07-.104.176-.278.21a.577.577 0 0 1-.382-.14c-.451-.455-.555-1.297-.59-1.858-.173-3.542.07-7.084.417-10.556.069-.21.382-.42.659-.245.382.175.382.63.452.982-.07.911-.174 2.454-.278 3.541 2.534-.175 5.347-.07 7.881-.105.139-1.718.208-3.437.625-5.05.174-.21.521-.07.729.14.174.211.278.632.278.877-.174 1.333-.417 2.63-.451 3.998.104 0 .208-.035.312-.035.069 0 .174.07.174.246 0 .07 0 .21-.07.28-.104.14-.312.246-.486.316zM197.103 23.603c-.729-.841-.938-1.963-1.111-3.05-.347-2.526-.278-5.226-.347-7.856-2.118 3.05-3.785 6.137-5.798 9.609-.209.245-.313.42-.66.56-.312 0-.59-.034-.833-.385-1.667-3.121-1.979-6.944-1.736-10.731 0-.245.069-.666.347-.772.451-.14.799.246.799.527-.209 3.506.173 6.838 1.319 9.854 1.215-2.104 2.187-3.858 3.229-5.576a66.079 66.079 0 0 1 3.68-5.47c.278-.211.66-.071.798.21.105 3.366.07 6.663.348 9.889.069 1.052.312 2.07.381 3.051 0 .14-.312.28-.416.14zM208.035 11.785c.208 3.542.104 7.33-.278 10.836-.069.14-.138.351-.208.597-.104.21-.174.42-.347.63-.07.141-.521.211-.625-.034.069-.807.451-5.05.347-6.874-2.534 1.473-4.895 4.068-6.666 6.488-.173.175-.59.175-.659-.175 0-.632.243-1.123.59-1.613.347-.456.764-.877 1.076-1.368.868-1.052 1.875-1.929 2.916-2.77-.833.07-1.701 0-2.534-.386-.937-.421-1.562-1.228-1.701-2.28-.104-.631 0-1.297.312-1.789.625-.981 1.458-1.823 2.396-2.384 1.111-.667 2.326-1.017 3.68-.912.729.245 1.562.491 1.909 1.263.07.245.07.56-.208.771zm-1.146 1.508c0-.771-.034-1.508-.138-2.21-.625-.245-1.146-.315-1.841-.105-.729.21-1.597.562-2.291 1.088-.833.63-1.458 1.437-1.493 2.49.07.455.243.911.625 1.262.486.316 1.111.49 1.667.526 1.249.105 2.534-.28 3.506-.772-.035-.736-.035-1.507-.035-2.279zM10.097 50.536c0 .281-.313.351-.487.316-.381-.14-.45-.771-.52-1.122-.104-.631-.104-1.263-.104-1.929v-2.14c0-1.647.208-3.436.243-5.12-.209-.315-.556-.49-.903-.56-.382-.106-.833-.14-1.215-.246-1.389-.21-2.778-.42-4.236-.35-.174 1.543-.59 2.98-.798 4.523-.313 2.28-.59 4.42-.452 6.839 0 .28.07.701-.208.912-.139.14-.52.14-.694-.035-.174-.21-.243-.456-.278-.702-.035-.245 0-.526-.035-.806-.035-3.683.556-7.12 1.285-10.697-.174.036-.348.07-.521.036-.313-.176-.243-.491-.104-.632.139-.28.382-.385.625-.456.243-.07.52-.14.763-.14 2.361-.175 4.861.176 7.014.877.416.245 1.007.526 1.041 1.087-.312 3.367-.382 6.838-.416 10.345zM20.49 50.852c-1.563.807-3.438 1.157-5.139.316-1.319-.667-2.256-1.789-2.708-3.192-.52-1.648-.347-3.507.347-5.05a7.855 7.855 0 0 1 2.257-2.84c.625-.456 1.562-1.017 2.43-1.122.695-.807 1.84-1.053 2.813-.807 1.666.456 3.09 2.174 3.54 3.682.452 1.473.556 3.086.14 4.594-.521 2.034-1.84 3.507-3.68 4.42zm2.395-8.627c-.416-1.157-1.354-2.455-2.569-2.876-.555-.21-1.146-.28-1.597.07-.451.351-.73.912-.937 1.403-.035.105-.035.246-.035.386s0 .316-.035.456c-.035.07-.382.28-.486.07a5.919 5.919 0 0 1-.104-1.438c-1.32.561-2.43 1.719-3.055 3.016-.66 1.368-.695 2.946-.278 4.349.347 1.087 1.007 1.999 2.118 2.455 1.389.526 2.881.35 4.131-.28 1.424-.737 2.43-1.86 2.917-3.368.451-1.332.382-2.91-.07-4.243zM37.181 51.238c-.451.035-.764-.456-.972-.807a21.469 21.469 0 0 1-1.84-4.313c-.59-1.859-.903-3.753-1.042-5.787-1.041 1.613-2.777 4.56-3.853 6.137-1.111 1.684-2.222 3.472-3.125 5.156-.104.245-.486.07-.625-.14-.174-.316-.104-.737-.035-1.053.209-.315.59-1.122.799-1.578 2.256-3.472 4.617-7.014 6.7-10.486.243-.245 1.077-.385 1.146.281.174 2.14.486 4.278.972 6.312a25.409 25.409 0 0 0 2.153 5.752c.035.105 0 .49-.278.526zM44.025 51.694c-1.736-.07-3.333-.877-4.34-2.385-.833-1.262-1.042-2.735-.868-4.173a9.311 9.311 0 0 1 1.77-4.349c1.007-1.332 2.43-2.384 4.063-2.7 1.11-.21 2.291-.105 3.124.806.382.421.73.877.73 1.438.034.596-.244 1.122-.73 1.508-2.43 2.034-5 3.928-7.638 5.471.07 1.087 1.007 2.21 2.014 2.77 1.007.562 2.187.632 3.298.492 1.111-.106 2.257-.492 3.055-.877.14-.105.243 0 .278.105.035.07.104.21-.035.316-1.215 1.122-2.95 1.648-4.721 1.578zm1.527-12.52c-1.007 0-2.013.42-2.812 1.052-1.701 1.403-2.708 3.647-2.708 5.822 2.465-1.368 4.791-3.157 7.048-5.015.174-.14.312-.667.07-1.087-.278-.562-.903-.772-1.598-.772zM58.193 33.107c-.07-.175-.174-.386-.243-.561-.035-.245.138-.316.243-.316.139 0 .277.07.382.106.312.245.555.63.729 1.017.139.35.104.841-.105 1.122-.243.315-.52.631-.867.841-.521.316-1.146.561-1.702.737-.59.175-1.875.21-2.465.035-.798-.21-1.284-.596-1.527-1.157-.174-.421-.243-.912-.174-1.438.035-.456.174-.912.382-1.263a.3.3 0 0 1 .243-.14c.07-.035.139-.035.243-.07.174.14.382.28.382.526 0 .245-.035.526-.07.807-.069.315-.104.596 0 .806 0 .491.313.737.764.877.59.175 1.424.105 2.153-.105.555-.176 1.076-.421 1.423-.737.209-.175.313-.35.313-.526.035-.175-.035-.35-.104-.56zm2.985 18.552c-.729-.842-.937-1.964-1.11-3.051-.348-2.525-.278-5.226-.348-7.856-2.118 3.051-3.784 6.137-5.798 9.61-.208.245-.312.42-.66.56-.312 0-.59-.035-.833-.386-1.666-3.12-1.979-6.943-1.736-10.73 0-.246.07-.667.348-.772.45-.14.798.245.798.526-.208 3.507.174 6.838 1.32 9.854 1.215-2.104 2.187-3.857 3.228-5.576a66.109 66.109 0 0 1 3.68-5.47c.278-.211.66-.07.799.21.104 3.366.07 6.663.347 9.89.07 1.051.313 2.068.382 3.05 0 .14-.313.28-.417.14zM83.752 43.768c-.242 2.49-.104 5.4.07 7.856.035.245-.313.28-.486.175-.486-.386-.73-1.403-.764-2.034a52.946 52.946 0 0 1 0-5.751c-2.57.105-5.347.035-7.881.315-.104 2.35-.035 4.594.07 6.839.034.07-.105.175-.278.21-.105 0-.278-.035-.382-.14-.452-.456-.556-1.298-.59-1.859-.174-3.542.069-7.084.416-10.556.07-.21.382-.42.66-.245.382.175.382.631.451.982-.07.912-.173 2.455-.278 3.542 2.535-.176 5.347-.07 7.881-.105.14-1.719.209-3.437.625-5.05.174-.21.521-.07.73.14.173.21.277.631.277.877-.173 1.332-.416 2.63-.451 3.998.104 0 .208-.036.312-.036.07 0 .174.07.174.246 0 .07 0 .21-.07.28-.104.14-.312.246-.486.316zM94.303 48.783c-1.632 3.577-2.916 7.26-4.166 10.977-.105.21-.59.28-.695 0-.173-.316-.07-1.158 0-1.473.556-2.385 1.563-4.594 2.396-6.874-1.007-1.508-2.292-3.577-3.264-5.365-1.215-2.28-2.222-4.665-2.604-7.295a.802.802 0 0 1 .417-.842c.208-.07.347.036.451.14.105.106.174.246.243.387.348 2.104 1.042 4.068 1.91 5.926.972 2 2.118 3.893 3.402 5.787a103.18 103.18 0 0 1 2.535-5.226c.903-1.753 1.91-3.436 3.124-5.085.243-.315.59-.666.903-.49.209.105.382.42.209.666-1.84 2.84-3.472 5.751-4.861 8.767zM108.439 44.434c0 .106 0 .281-.035.421 1.25.807 2.396 1.824 3.507 2.946 1.111 1.087 2.222 2.28 3.333 3.367.173.14-.105.385-.209.385-.555-.21-.972-.526-1.458-.876-.382-.316-.798-.702-1.25-1.017a58.96 58.96 0 0 0-3.888-3.402c-.07 1.824.139 3.542.347 5.33-.07.281-.382.316-.59.21-.243-.385-.347-.806-.452-1.227-.069-.42-.139-.876-.208-1.297-.208-1.298-.208-2.49-.208-3.893l-.139-.105c-1.701 1.192-3.541 2.665-5.173 3.963-.07 0-.174.035-.278.07-.104 0-.243 0-.312-.105-.139-.105-.105-.246-.07-.35.035-.106.104-.211.174-.316a52.893 52.893 0 0 1 4.721-3.858c-1.666-1.193-3.437-2.245-5.207-3.227-.348-.245-.799-.63-.695-1.192.139-.28.556-.21.729-.105 2.153 1.157 4.236 2.35 6.18 3.822l.104-.07c.035-1.858.139-3.998.73-5.856.277-.421.763-.035.833.28.069 1.614-.347 3.121-.382 4.735 2.257-1.403 4.583-2.911 6.978-4.244a.865.865 0 0 1 .66.035c.174.106.347.456.174.737-2.604 1.613-5.312 3.121-7.916 4.84zM128.541 43.768c-.243 2.49-.104 5.4.069 7.856.035.245-.312.28-.486.175-.486-.386-.729-1.403-.764-2.034a53.048 53.048 0 0 1 0-5.751c-2.569.105-5.346.035-7.881.315-.104 2.35-.034 4.594.07 6.839.034.07-.104.175-.278.21-.104 0-.278-.035-.382-.14-.451-.456-.555-1.298-.59-1.859-.174-3.542.069-7.084.416-10.556.07-.21.382-.42.66-.245.382.175.382.631.451.982-.069.912-.173 2.455-.277 3.542 2.534-.176 5.346-.07 7.881-.105.139-1.719.208-3.437.625-5.05.173-.21.521-.07.729.14.173.21.278.631.278.877-.174 1.332-.417 2.63-.452 3.998.104 0 .209-.036.313-.036.069 0 .173.07.173.246 0 .07 0 .21-.069.28-.104.14-.313.246-.486.316zM138.987 50.852c-1.562.807-3.437 1.157-5.138.316-1.32-.667-2.257-1.789-2.708-3.192-.521-1.648-.348-3.507.347-5.05a7.86 7.86 0 0 1 2.256-2.84c.625-.456 1.563-1.017 2.431-1.122.694-.807 1.84-1.053 2.812-.807 1.666.456 3.09 2.174 3.541 3.682.452 1.473.556 3.086.139 4.594-.521 2.034-1.84 3.507-3.68 4.42zm2.396-8.627c-.417-1.157-1.354-2.455-2.57-2.876-.555-.21-1.145-.28-1.597.07-.451.351-.729.912-.937 1.403-.035.105-.035.246-.035.386s0 .316-.034.456c-.035.07-.382.28-.487.07a5.98 5.98 0 0 1-.104-1.438c-1.319.561-2.43 1.719-3.055 3.016-.66 1.368-.694 2.946-.278 4.349.347 1.087 1.007 1.999 2.118 2.455 1.389.526 2.882.35 4.132-.28 1.423-.737 2.43-1.86 2.916-3.368.451-1.332.382-2.91-.069-4.243zM164.751 43.768c-.243 2.49-.104 5.4.07 7.856.034.245-.313.28-.486.175-.487-.386-.73-1.403-.764-2.034a53.048 53.048 0 0 1 0-5.751c-2.569.105-5.347.035-7.881.315-.105 2.35-.035 4.594.069 6.839.035.07-.104.175-.278.21a.577.577 0 0 1-.382-.14c-.451-.456-.555-1.298-.59-1.859-.173-3.542.07-7.084.417-10.556.069-.21.382-.42.659-.245.382.175.382.631.452.982-.07.912-.174 2.455-.278 3.542 2.534-.176 5.347-.07 7.881-.105.139-1.719.208-3.437.625-5.05.174-.21.521-.07.729.14.174.21.278.631.278.877-.174 1.332-.417 2.63-.451 3.998.104 0 .208-.036.312-.036.069 0 .174.07.174.246 0 .07 0 .21-.07.28-.104.14-.312.246-.486.316zM173.982 51.553c-1.909.527-4.131.491-5.624-.806-.695-.596-1.215-1.473-1.25-2.42-.035-.842.312-1.613.798-2.314 1.077-1.544 2.952-2.596 4.757-2.806.764-.07 1.458.035 2.014.596.173.175 0 .526-.174.596h-.312c-.105 0-.244-.035-.348-.035-.243-.035-.451-.07-.59.035-1.666.07-3.298.877-4.305 2.245-.451.596-.694 1.052-.625 1.788.07.982.799 1.719 1.805 2.07 1.424.525 3.195.21 4.549-.281.729-.28 1.388-.561 2.013-1.017.139-.105.278 0 .347.175.035.14.035.28.035.386-.486.947-2.43 1.613-3.09 1.788zm1.944-2.384c-.173.21-.486.175-.624.07-.348-.246-.348-.701-.348-1.052.035-.596.139-1.192.278-1.824l.451-1.929c.278-1.262.452-2.525.07-3.577-.313-.911-1.076-1.823-2.014-1.928-.798-.106-1.597.175-2.257.666-.347.245-1.111.912-1.319 1.297-.035.14.035.386.174.526.139.14.034.562-.278.491-.243-.07-.521-.14-.729-.315-.278-.246-.382-.702-.174-1.052.591-1.017 1.424-1.859 2.5-2.35.694-.35 1.528-.49 2.396-.35 1.041.175 1.944.946 2.465 1.928.798 1.508.694 3.402.312 5.085-.347 1.438-.694 2.77-.903 4.314zM186.759 44.434c0 .106 0 .281-.035.421 1.25.807 2.396 1.824 3.507 2.946 1.111 1.087 2.222 2.28 3.333 3.367.173.14-.104.385-.209.385-.555-.21-.972-.526-1.458-.876-.382-.316-.798-.702-1.25-1.017a58.704 58.704 0 0 0-3.888-3.402c-.07 1.824.139 3.542.347 5.33-.069.281-.382.316-.59.21-.243-.385-.347-.806-.451-1.227-.07-.42-.139-.876-.209-1.297-.208-1.298-.208-2.49-.208-3.893l-.139-.105c-1.701 1.192-3.541 2.665-5.173 3.963-.069 0-.174.035-.278.07-.104 0-.243 0-.312-.105-.139-.105-.104-.246-.07-.35.035-.106.104-.211.174-.316a53.047 53.047 0 0 1 4.722-3.858c-1.667-1.193-3.437-2.245-5.208-3.227-.347-.245-.799-.63-.695-1.192.139-.28.556-.21.73-.105 2.152 1.157 4.235 2.35 6.179 3.822l.105-.07c.034-1.858.139-3.998.729-5.856.277-.421.764-.035.833.28.069 1.614-.347 3.121-.382 4.735 2.257-1.403 4.583-2.911 6.978-4.244.244-.07.417-.07.66.035.174.106.347.456.174.737-2.604 1.613-5.312 3.121-7.916 4.84zM202.903 51.553c-1.909.527-4.131.491-5.624-.806-.695-.596-1.216-1.473-1.25-2.42-.035-.842.312-1.613.798-2.314 1.077-1.544 2.951-2.596 4.757-2.806.764-.07 1.458.035 2.013.596.174.175 0 .526-.173.596h-.313c-.104 0-.243-.035-.347-.035-.243-.035-.451-.07-.59.035-1.667.07-3.298.877-4.305 2.245-.452.596-.695 1.052-.625 1.788.069.982.798 1.719 1.805 2.07 1.424.525 3.194.21 4.548-.281.729-.28 1.389-.561 2.014-1.017.139-.105.278 0 .347.175.035.14.035.28.035.386-.486.947-2.43 1.613-3.09 1.788zm1.944-2.384c-.173.21-.486.175-.625.07-.347-.246-.347-.701-.347-1.052.035-.596.139-1.192.278-1.824l.451-1.929c.278-1.262.452-2.525.07-3.577-.313-.911-1.077-1.823-2.014-1.928-.799-.106-1.597.175-2.257.666-.347.245-1.111.912-1.319 1.297-.035.14.035.386.174.526.138.14.034.562-.278.491-.243-.07-.521-.14-.729-.315-.278-.246-.382-.702-.174-1.052.59-1.017 1.424-1.859 2.5-2.35a3.915 3.915 0 0 1 2.395-.35c1.042.175 1.945.946 2.466 1.928.798 1.508.694 3.402.312 5.085-.347 1.438-.694 2.77-.903 4.314zM218.284 39.595c-.903-.21-1.806-.421-2.743-.456-.764.982-1.146 2.14-1.354 3.367-.243 1.262-.208 2.595-.278 3.892-.069 1.754.07 3.437.278 5.085-.104.21-.417.351-.66.21-.59-.736-.729-1.683-.764-2.63-.034-2.104-.069-4.313.243-6.382.209-1.333.591-2.56 1.389-3.682-2.152-.105-4.131.35-6.11.911a1.092 1.092 0 0 1-.764-.49c-.07-.246.069-.386.208-.456l.209-.07.173-.07c1.458-.597 3.229-.913 4.93-.947 1.736-.07 3.472.105 5 .666.173.07.486.315.59.526.035.245-.139.56-.347.526zM227.227 49.344c-.763.772-1.666 1.438-2.673 1.859a4.337 4.337 0 0 1-2.916.14c-.035.175-.174.386-.347.386-.556-.21-.764-.737-.868-1.193-.243-4.243.208-8.416.937-12.379.174-.386.868-.596 1.076-.035-.208 2.034-.59 4.068-.694 6.102 1.215-.947 2.777-1.403 4.305-1.052 1.007.245 2.014 1.157 2.326 2.174.486 1.473-.035 2.946-1.146 3.998zm-1.458-4.945c-1.562-.385-3.02.316-4.131 1.508 0 1.298 0 3.262-.035 4.349.903.21 1.805.105 2.604-.246 1.042-.42 1.979-1.227 2.708-2.174.521-.666.555-1.718.139-2.455-.243-.49-.799-.877-1.285-.982zM250.632 43.768c-.243 2.49-.104 5.4.07 7.856.034.245-.313.28-.487.175-.486-.386-.729-1.403-.763-2.034a53.048 53.048 0 0 1 0-5.751c-2.57.105-5.347.035-7.881.315-.105 2.35-.035 4.594.069 6.839.035.07-.104.175-.278.21-.104 0-.278-.035-.382-.14-.451-.456-.555-1.298-.59-1.859-.173-3.542.07-7.084.417-10.556.069-.21.382-.42.659-.245.382.175.382.631.452.982-.07.912-.174 2.455-.278 3.542 2.534-.176 5.347-.07 7.881-.105.139-1.719.208-3.437.625-5.05.174-.21.521-.07.729.14.174.21.278.631.278.877-.174 1.332-.417 2.63-.451 3.998.104 0 .208-.036.312-.036.069 0 .174.07.174.246 0 .07 0 .21-.07.28-.104.14-.312.246-.486.316zM259.863 51.553c-1.909.527-4.131.491-5.624-.806-.695-.596-1.215-1.473-1.25-2.42-.035-.842.312-1.613.798-2.314 1.077-1.544 2.951-2.596 4.757-2.806.764-.07 1.458.035 2.014.596.173.175 0 .526-.174.596h-.313c-.104 0-.243-.035-.347-.035-.243-.035-.451-.07-.59.035-1.666.07-3.298.877-4.305 2.245-.451.596-.694 1.052-.625 1.788.069.982.799 1.719 1.805 2.07 1.424.525 3.194.21 4.549-.281.729-.28 1.388-.561 2.013-1.017.139-.105.278 0 .347.175.035.14.035.28.035.386-.486.947-2.43 1.613-3.09 1.788zm1.944-2.384c-.173.21-.486.175-.625.07-.347-.246-.347-.701-.347-1.052.035-.596.139-1.192.278-1.824l.451-1.929c.278-1.262.452-2.525.07-3.577-.313-.911-1.076-1.823-2.014-1.928-.798-.106-1.597.175-2.257.666-.347.245-1.111.912-1.319 1.297-.035.14.035.386.174.526.139.14.034.562-.278.491-.243-.07-.521-.14-.729-.315-.278-.246-.382-.702-.174-1.052.59-1.017 1.424-1.859 2.5-2.35a3.917 3.917 0 0 1 2.396-.35c1.041.175 1.944.946 2.465 1.928.798 1.508.694 3.402.312 5.085-.347 1.438-.694 2.77-.903 4.314zM11.798 79.679c-1.667-.947-3.368-1.613-5.139-2.245-1.736-.63-3.402-1.262-5.068-1.998-.035 1.262.138 2.56.45 3.717.105.21.036.596-.277.596-.278 0-.451-.175-.555-.35-.105-.14-.174-.351-.278-.527-.382-1.262-.52-2.63-.52-4.033a.78.78 0 0 1-.313-.35c-.105-.106-.14-.316-.035-.491a.981.981 0 0 0 .312-.456c.07-.456.035-1.508.14-1.964.138-.807.346-1.789.555-2.77.243-.983.59-1.964 1.041-2.806.209-.35.73-.28.834.105-.035.456-.174.877-.313 1.298-.104.385-.312.806-.417 1.227a16.235 16.235 0 0 0-.59 3.893 62.293 62.293 0 0 1 3.785-3.156c1.597-1.193 3.298-2.21 5.103-2.946.278 0 .625 0 .833.175.209.14.209.35.105.596-1.84.772-3.507 1.789-5.208 2.981a44.253 44.253 0 0 0-4.687 3.928v.035c1.701.947 3.576 1.578 5.381 2.21 1.597.56 3.125 1.192 4.583 2.139.313.175.556.42.73.736.034.21-.244.491-.452.456zM24.08 71.823c-.243 2.49-.104 5.401.07 7.856.034.245-.313.28-.487.175-.486-.385-.729-1.403-.763-2.034a52.946 52.946 0 0 1 0-5.751c-2.57.105-5.347.035-7.882.316-.104 2.35-.034 4.594.07 6.838.035.07-.104.175-.278.21-.104 0-.278-.035-.382-.14-.451-.456-.555-1.297-.59-1.859-.174-3.541.07-7.084.417-10.555.07-.21.381-.421.66-.246.381.175.381.631.45.982-.069.912-.173 2.455-.277 3.542 2.534-.175 5.347-.07 7.881-.105.139-1.719.208-3.437.625-5.05.173-.21.52-.07.729.14.174.21.278.632.278.877-.174 1.333-.417 2.63-.452 3.998.105 0 .209-.035.313-.035.07 0 .174.07.174.245 0 .07 0 .21-.07.28-.104.141-.312.246-.486.316zM34.526 78.907c-1.562.807-3.437 1.158-5.138.316-1.32-.666-2.257-1.788-2.708-3.191-.521-1.648-.347-3.507.347-5.05a7.854 7.854 0 0 1 2.257-2.84c.625-.457 1.562-1.018 2.43-1.123.694-.807 1.84-1.052 2.812-.807 1.667.456 3.09 2.175 3.541 3.683.452 1.473.556 3.086.14 4.594-.521 2.034-1.84 3.507-3.68 4.418zm2.396-8.627c-.417-1.157-1.354-2.454-2.57-2.875-.555-.21-1.145-.28-1.596.07-.452.35-.73.912-.938 1.403-.035.105-.035.245-.035.385s0 .316-.034.456c-.035.07-.382.28-.486.07a5.918 5.918 0 0 1-.105-1.437c-1.319.56-2.43 1.718-3.055 3.016-.66 1.367-.694 2.945-.277 4.348.347 1.087 1.006 1.999 2.117 2.455 1.39.526 2.882.35 4.132-.28 1.423-.737 2.43-1.86 2.916-3.367.452-1.333.382-2.911-.07-4.244zM50.002 78.592c0 .28-.312.35-.486.315-.381-.14-.45-.771-.52-1.122-.105-.631-.105-1.262-.105-1.929v-2.139c0-1.648.209-3.437.244-5.12-.209-.316-.556-.49-.903-.561-.382-.105-.833-.14-1.215-.246-1.389-.21-2.778-.42-4.236-.35-.173 1.543-.59 2.98-.798 4.524-.313 2.28-.59 4.418-.452 6.838 0 .28.07.702-.208.912-.139.14-.52.14-.694-.035-.174-.21-.243-.456-.278-.701-.035-.246 0-.526-.035-.807-.035-3.682.556-7.12 1.285-10.696-.174.035-.347.07-.521.035-.313-.175-.243-.491-.104-.631.139-.28.382-.386.625-.456s.52-.14.764-.14c2.36-.176 4.86.175 7.013.876.416.246 1.006.526 1.041 1.087-.312 3.367-.382 6.839-.416 10.346zM64.215 79.679c-1.667-.947-3.368-1.613-5.139-2.245-1.736-.63-3.402-1.262-5.069-1.998-.034 1.262.14 2.56.452 3.717.104.21.034.596-.278.596-.278 0-.451-.175-.555-.35-.105-.14-.174-.351-.278-.527-.382-1.262-.521-2.63-.521-4.033a.78.78 0 0 1-.313-.35c-.104-.106-.138-.316-.034-.491a.981.981 0 0 0 .312-.456c.07-.456.035-1.508.14-1.964.138-.807.346-1.789.555-2.77.243-.983.59-1.964 1.041-2.806.209-.35.73-.28.833.105-.034.456-.173.877-.312 1.298-.104.385-.313.806-.417 1.227a16.233 16.233 0 0 0-.59 3.893 62.296 62.296 0 0 1 3.784-3.156c1.597-1.193 3.299-2.21 5.104-2.946.278 0 .625 0 .833.175.209.14.209.35.104.596-1.84.772-3.506 1.789-5.207 2.981a44.249 44.249 0 0 0-4.687 3.928v.035c1.7.947 3.576 1.578 5.381 2.21 1.597.56 3.125 1.192 4.583 2.139.312.175.555.42.729.736.035.21-.243.491-.451.456zM73.858 76.838c-1.632 3.577-2.916 7.26-4.166 10.977-.104.21-.59.28-.694 0-.174-.316-.07-1.157 0-1.473.555-2.385 1.562-4.594 2.395-6.873-1.007-1.508-2.291-3.578-3.263-5.366-1.215-2.28-2.222-4.664-2.604-7.294a.802.802 0 0 1 .416-.842c.209-.07.348.035.452.14.104.105.173.246.243.386.347 2.104 1.041 4.068 1.91 5.927.971 1.998 2.117 3.892 3.402 5.786a103.18 103.18 0 0 1 2.534-5.225c.903-1.754 1.91-3.437 3.125-5.085.243-.316.59-.667.902-.491.209.105.382.42.209.666-1.84 2.84-3.472 5.751-4.86 8.767zM103.206 63.586c-.243.35-.625.56-1.042.631-1.041.14-1.562-.842-1.597-1.753-.034-1.824.938-4.384 2.431-6.278.173-.14.59.105.451.386-.555 1.017-1.597 3.647-1.528 4.804.313-.07.625-.14.903-.105.486.07.729.421.799.842.069.526-.139 1.052-.417 1.473zm-4.305 0c-.243.35-.625.56-1.042.631-1.041.14-1.562-.842-1.597-1.753-.034-1.824.938-4.384 2.43-6.278.174-.14.59.105.452.386-.556 1.017-1.597 3.647-1.528 4.804.313-.07.625-.14.903-.105.486.07.73.421.798.842.07.526-.138 1.052-.416 1.473zM111.558 78.907c-1.562.807-3.437 1.158-5.138.316-1.32-.666-2.257-1.788-2.708-3.191-.521-1.648-.348-3.507.347-5.05a7.858 7.858 0 0 1 2.256-2.84c.625-.457 1.563-1.018 2.431-1.123.694-.807 1.84-1.052 2.812-.807 1.666.456 3.09 2.175 3.541 3.683.452 1.473.556 3.086.139 4.594-.521 2.034-1.84 3.507-3.68 4.418zm2.396-8.627c-.417-1.157-1.354-2.454-2.57-2.875-.555-.21-1.145-.28-1.597.07-.451.35-.729.912-.937 1.403-.035.105-.035.245-.035.385s0 .316-.035.456c-.034.07-.381.28-.486.07a5.98 5.98 0 0 1-.104-1.437c-1.319.56-2.43 1.718-3.055 3.016-.66 1.367-.694 2.945-.278 4.348.347 1.087 1.007 1.999 2.118 2.455 1.389.526 2.882.35 4.132-.28 1.423-.737 2.43-1.86 2.916-3.367.451-1.333.382-2.911-.069-4.244zM127.52 67.65c-.902-.21-1.805-.42-2.742-.456-.764.982-1.146 2.14-1.354 3.367-.243 1.262-.209 2.595-.278 3.893-.07 1.753.069 3.436.278 5.085-.105.21-.417.35-.66.21-.59-.736-.729-1.683-.764-2.63-.035-2.104-.069-4.314.243-6.383.208-1.332.59-2.56 1.389-3.682-2.153-.105-4.132.35-6.111.912a1.092 1.092 0 0 1-.763-.491c-.07-.246.069-.386.208-.456l.208-.07.174-.07c1.458-.597 3.229-.912 4.93-.947 1.736-.07 3.472.105 4.999.666.174.07.486.316.591.526.034.246-.139.561-.348.526zM139.172 78.592c0 .28-.312.35-.486.315-.382-.14-.451-.771-.521-1.122-.104-.631-.104-1.262-.104-1.929v-2.139c0-1.648.209-3.437.243-5.12-.208-.316-.555-.49-.902-.561-.382-.105-.834-.14-1.216-.246-1.388-.21-2.777-.42-4.235-.35-.174 1.543-.59 2.98-.799 4.524-.312 2.28-.59 4.418-.451 6.838 0 .28.069.702-.208.912-.139.14-.521.14-.695-.035-.173-.21-.243-.456-.278-.701-.034-.246 0-.526-.034-.807-.035-3.682.555-7.12 1.284-10.696-.173.035-.347.07-.52.035-.313-.175-.243-.491-.105-.631.139-.28.382-.386.625-.456s.521-.14.764-.14c2.361-.176 4.861.175 7.013.876.417.246 1.007.526 1.042 1.087-.313 3.367-.382 6.839-.417 10.346zM143.385 67.65h-.173a.289.289 0 0 1-.278-.245c-.035-.28.07-.526.278-.737.555-.49 1.18-.701 1.875-.666.486.035.972.105 1.458.28l1.319.456c1.875.632 3.507 2.315 4.409 4.138.486 1.018.66 2.07.417 3.227-.243 1.052-.868 2.034-1.701 2.84-2.083 2-4.687 2.596-7.569 2.596-.035 2.384-.173 5.05.139 7.4 0 .104.069.245.139.35.035.175.104.316-.035.526-.278.21-.555.14-.798 0-.348-.386-.486-.807-.521-1.298-.243-2.49-.139-4.91 0-7.434-.313-.28-.799-.667-.903-1.087 0-.14.035-.281.104-.351.104-.175.243-.21.313-.14.104.105.312.245.486.35.208-3.507.451-6.838 1.041-10.205zm6.875 2.28c-.764-.947-1.84-1.614-2.882-2.07-.59-.28-2.257-.911-2.882-.63.035.49-.034 1.367-.104 1.753-.486 2.98-.798 6.172-.833 9.328 2.396.176 4.687-.56 6.527-2.174 1.007-.877 1.597-2.104 1.493-3.367-.069-1.052-.729-2.104-1.319-2.84zM160.861 79.609c-1.909.526-4.131.49-5.624-.807-.695-.596-1.216-1.473-1.25-2.42-.035-.841.312-1.613.798-2.314 1.077-1.543 2.951-2.595 4.757-2.806.764-.07 1.458.035 2.013.597.174.175 0 .526-.173.596h-.313c-.104 0-.243-.035-.347-.035-.243-.035-.451-.07-.59.035-1.667.07-3.298.876-4.305 2.244-.451.596-.695 1.052-.625 1.789.069.982.798 1.718 1.805 2.069 1.424.526 3.194.21 4.548-.28.73-.281 1.389-.562 2.014-1.018.139-.105.278 0 .347.175.035.14.035.281.035.386-.486.947-2.43 1.613-3.09 1.789zm1.944-2.385c-.173.21-.486.175-.625.07-.347-.245-.347-.701-.347-1.052.035-.596.139-1.192.278-1.824l.451-1.928c.278-1.263.452-2.525.07-3.577-.313-.912-1.077-1.824-2.014-1.93-.799-.104-1.597.176-2.257.667-.347.246-1.111.912-1.319 1.298-.035.14.035.386.174.526.138.14.034.56-.278.49-.243-.07-.521-.14-.729-.315-.278-.245-.382-.701-.174-1.052.59-1.017 1.424-1.859 2.5-2.35.694-.35 1.528-.49 2.395-.35 1.042.175 1.945.947 2.465 1.928.799 1.508.695 3.402.313 5.086-.347 1.437-.694 2.77-.903 4.313zM172.596 78.802c-1.041.702-2.326 1.263-3.611 1.263-.729 0-1.249-.316-1.735-1.017-.174.14-.487.245-.625.035-.625-.877-.799-2.104-.834-3.297-.069-3.05-.034-5.295.764-8.03.07-.281.729-.807 1.215-.667.209-.561.764-1.157 1.424-1.227 1.77 0 3.68.947 4.27 2.735a2.643 2.643 0 0 1-.035 1.718 3.158 3.158 0 0 1-1.006 1.333l-.209.175c.868.281 1.84.842 2.396 1.719.416.666.451 1.473.278 2.244-.313 1.263-1.216 2.28-2.292 3.016zm.972-4.664c-.277-.526-1.041-.842-1.597-1.122-.659-.421-1.25-.246-1.909-.105l-1.042.245a2.244 2.244 0 0 1-1.18 0c-.174-.105-.382-.456-.209-.631.417-.421.938-.631 1.528-.772l1.597-.175c.625-.35 1.285-1.052 1.562-1.719.174-.56.07-.946-.277-1.402-.625-.877-1.632-1.263-2.639-1.368-.312-.035-.417.035-.486.246-.104.28-.174.596-.347.841-.07.176-.313.246-.486.14a.674.674 0 0 1-.313-.175c-.416 1.508-.659 3.227-.729 5.015-.069 1.683 0 3.332.243 4.875.278-.316.625-.772.799-1.017.243-.246.694.14.625.385-.07.176-.209.386-.313.561-.069.21-.173.386-.173.527.208.315.694.42 1.284.35.868-.14 1.91-.631 2.674-1.227.694-.561 1.284-1.263 1.458-2.14.104-.42.173-.911-.07-1.332zM187.406 79.714c-.729-.842-.937-1.964-1.111-3.051-.347-2.525-.278-5.225-.347-7.855-2.118 3.05-3.784 6.137-5.798 9.608-.208.246-.313.421-.66.562-.312 0-.59-.035-.833-.386-1.666-3.121-1.979-6.944-1.736-10.731 0-.246.07-.667.347-.772.452-.14.799.246.799.526-.209 3.507.173 6.839 1.319 9.855 1.215-2.105 2.187-3.858 3.229-5.576a66.045 66.045 0 0 1 3.68-5.471c.278-.21.66-.07.799.21.104 3.367.069 6.663.347 9.89.069 1.052.312 2.069.382 3.05 0 .141-.313.281-.417.141zM200.178 67.65c-.902-.21-1.805-.42-2.742-.456-.764.982-1.146 2.14-1.354 3.367-.243 1.262-.209 2.595-.278 3.893-.07 1.753.069 3.436.278 5.085-.105.21-.417.35-.66.21-.59-.736-.729-1.683-.764-2.63-.035-2.104-.069-4.314.243-6.383.209-1.332.59-2.56 1.389-3.682-2.153-.105-4.132.35-6.111.912a1.092 1.092 0 0 1-.763-.491c-.07-.246.069-.386.208-.456l.208-.07.174-.07c1.458-.597 3.229-.912 4.93-.947 1.736-.07 3.472.105 4.999.666.174.07.486.316.591.526.034.246-.139.561-.348.526zM209.122 77.4c-.764.77-1.666 1.437-2.673 1.858a4.337 4.337 0 0 1-2.916.14c-.035.176-.174.386-.348.386-.555-.21-.763-.736-.868-1.192-.243-4.244.209-8.417.938-12.38.173-.385.868-.596 1.076-.035-.208 2.034-.59 4.068-.694 6.102 1.215-.947 2.777-1.403 4.305-1.052 1.007.246 2.014 1.157 2.326 2.174.486 1.473-.035 2.946-1.146 3.998zm-1.458-4.945c-1.562-.386-3.02.315-4.131 1.508 0 1.297 0 3.261-.035 4.348.903.21 1.805.105 2.604-.245 1.041-.421 1.979-1.228 2.708-2.175.521-.666.555-1.718.139-2.454-.243-.491-.799-.877-1.285-.982zM218.524 62.651c-.173.14-.555-.105-.521-.35.625-1.052 1.667-3.683 1.563-4.805-.278.035-.59.105-.868.07-.486-.07-.729-.42-.799-.841-.069-.491.174-1.052.417-1.438a1.326 1.326 0 0 1 1.041-.666c1.042-.106 1.563.841 1.597 1.753.035 1.824-.937 4.384-2.43 6.277zm-4.305 0c-.173.14-.555-.105-.521-.35.625-1.052 1.667-3.683 1.563-4.805-.278.035-.591.105-.868.07-.486-.07-.729-.42-.799-.841-.069-.491.174-1.052.417-1.438a1.326 1.326 0 0 1 1.041-.666c1.042-.106 1.563.841 1.597 1.753.035 1.824-.937 4.384-2.43 6.277z" fill="#fff"/></svg>