<svg width="263" height="88" viewBox="0 0 263 88" fill="none" xmlns="http://www.w3.org/2000/svg">
<path d="M10.2007 7.50658C10.0271 7.717 9.85352 7.89234 9.57577 8.06769C9.22859 8.10276 8.95084 8.06769 8.70781 7.92741C7.944 7.57672 7.07604 7.01562 6.4511 6.55972C6.41638 7.68193 6.31223 8.83921 6.4511 9.92636C6.38166 10.4875 5.75673 10.242 5.68729 10.1017C5.61786 10.0316 5.54842 9.96142 5.5137 9.85622C5.44426 9.78608 5.37483 9.68087 5.34011 9.57567C5.27067 9.26004 5.27067 8.94442 5.27067 8.66387C5.30539 8.06769 5.34011 7.43645 5.34011 6.84027C4.54158 7.61179 3.56946 8.27811 2.52791 8.66387C2.28488 8.69894 1.90297 8.69894 1.62522 8.45345C1.2086 8.10276 1.59051 7.50658 2.07656 7.19096L2.31959 7.64686C2.56262 7.57672 2.80565 7.40138 3.04868 7.29617C3.77777 6.84027 4.50686 6.17396 5.09708 5.50764C3.98609 4.59584 2.87509 3.47363 1.93769 2.45663C1.69466 2.24621 1.79882 1.93059 1.90297 1.75524C2.21544 1.33441 2.7015 1.61497 2.80565 1.72017C3.60418 2.5969 4.43743 3.43856 5.30539 4.24515C5.30539 3.29828 5.34011 2.35142 5.27067 1.47469L4.99292 0.668098C4.9582 0.457682 5.09708 -0.0332861 5.54842 0.0017847C5.86089 0.106991 6.03448 0.352476 6.17335 0.63303L6.27751 0.878513C6.38167 1.124 6.4511 1.5799 6.4511 1.82538V3.75418L6.55526 3.57884L7.28435 2.5969C7.52738 2.24621 7.87456 1.96566 8.29119 1.72017C8.84668 1.40455 9.88824 1.72017 9.57577 2.77225C9.33274 2.73718 9.2633 2.70211 9.15915 2.66704C9.08971 2.66704 9.02027 2.63197 8.8814 2.5969C8.67309 2.52676 7.97872 3.47363 7.87456 3.61391C7.45794 4.17501 7.11075 4.77119 6.65941 5.36737C7.49266 5.99861 8.39534 6.55972 9.40218 7.05068C9.47162 6.94548 9.54105 6.91041 9.61049 6.87534C9.67993 6.8052 9.74936 6.77013 9.99239 6.66492C10.2701 6.94548 10.3049 7.15589 10.2701 7.29617C10.2354 7.36631 10.2007 7.40138 10.2007 7.50658Z" fill="white"/>
<path d="M23.5907 22.4811C23.5907 22.7617 23.2782 22.8318 23.1046 22.7967C22.7227 22.6565 22.6533 22.0252 22.5838 21.6745C22.4797 21.0433 22.4797 20.412 22.4797 19.7457V17.6065C22.4797 15.9583 22.688 14.1697 22.7227 12.4864C22.5144 12.1708 22.1672 11.9954 21.82 11.9253C21.4381 11.8201 20.9868 11.785 20.6049 11.6798C19.2161 11.4694 17.8274 11.259 16.3692 11.3291C16.1956 12.8722 15.779 14.31 15.5707 15.853C15.2582 18.1325 14.9805 20.2718 15.1193 22.6915C15.1193 22.9721 15.1888 23.3929 14.911 23.6033C14.7722 23.7436 14.3903 23.7436 14.2167 23.5683C14.0431 23.3578 13.9736 23.1124 13.9389 22.8669C13.9042 22.6214 13.9389 22.3408 13.9042 22.0603C13.8695 18.378 14.4597 14.9412 15.1888 11.3642C15.0152 11.3993 14.8416 11.4343 14.668 11.3993C14.3555 11.2239 14.425 10.9083 14.5639 10.768C14.7027 10.4875 14.9458 10.3823 15.1888 10.3121C15.4318 10.242 15.7096 10.1718 15.9526 10.1718C18.3135 9.99649 20.8132 10.3472 22.9657 11.0486C23.3824 11.2941 23.9726 11.5746 24.0073 12.1357C23.6948 15.5024 23.6254 18.9742 23.5907 22.4811Z" fill="white"/>
<path d="M33.9837 22.7967C32.4214 23.6033 30.5466 23.954 28.8454 23.1124C27.5261 22.446 26.5887 21.3238 26.1373 19.9211C25.6166 18.2728 25.7901 16.4141 26.4845 14.8711C27.0053 13.7489 27.8038 12.767 28.7412 12.0305C29.3662 11.5746 30.3036 11.0135 31.1715 10.9083C31.8659 10.1017 33.0116 9.85622 33.9837 10.1017C35.6502 10.5576 37.0737 12.276 37.525 13.784C37.9764 15.2569 38.0805 16.87 37.6639 18.378C37.1431 20.412 35.8238 21.8849 33.9837 22.7967ZM36.3793 14.1697C35.9627 13.0124 35.0253 11.7149 33.8101 11.2941C33.2546 11.0836 32.6644 11.0135 32.2131 11.3642C31.7617 11.7149 31.484 12.276 31.2757 12.767C31.241 12.8722 31.241 13.0124 31.241 13.1527C31.241 13.293 31.241 13.4683 31.2062 13.6086C31.1715 13.6788 30.8243 13.8892 30.7202 13.6788C30.6507 13.3631 30.5813 12.7319 30.616 12.2409C29.2967 12.802 28.1857 13.9593 27.5608 15.2569C26.9011 16.6246 26.8664 18.2027 27.283 19.6054C27.6302 20.6926 28.2899 21.6044 29.4009 22.0603C30.7896 22.5863 32.2825 22.411 33.5324 21.7797C34.9558 21.0433 35.9627 19.9211 36.4487 18.4131C36.9001 17.0805 36.8306 15.5024 36.3793 14.1697Z" fill="white"/>
<path d="M45.641 23.4981C44.3217 23.6735 42.933 23.5683 41.6137 22.7617C39.8777 21.7096 39.1139 19.886 39.2181 17.852C39.3222 16.2739 39.8083 14.801 40.6763 13.4683C41.5442 12.1357 42.7594 11.0486 44.2176 10.3472C44.9814 9.96142 46.0229 9.78608 46.8562 10.1368C47.5505 10.4173 48.2796 11.1538 48.4185 11.8552C48.4879 12.0656 48.1408 12.5215 47.863 12.3111C47.4811 11.9604 46.995 11.5045 46.509 11.2941C46.0229 11.0836 45.5716 11.0486 45.0508 11.259C43.6968 11.8201 42.4469 12.9072 41.6137 14.2048C40.8499 15.3971 40.3985 16.7999 40.3638 18.2377C40.3638 19.5353 40.8499 20.7627 41.9261 21.5693C42.933 22.3058 44.2523 22.4811 45.4674 22.3759C47.5158 22.2006 49.3212 21.3238 51.1266 20.5172C51.3349 20.5172 51.6473 20.8679 51.4737 21.1134C49.7378 22.0954 47.7589 23.1825 45.641 23.4981Z" fill="white"/>
<path d="M63.8642 23.1825C63.4128 23.2176 63.1004 22.7266 62.8921 22.3759C62.1283 21.0082 61.5033 19.5704 61.052 18.0624C60.4618 16.2037 60.1493 14.31 60.0104 12.276C58.9689 13.8892 57.2329 16.835 56.1567 18.4131C55.0457 20.0964 53.9347 21.8849 53.032 23.5683C52.9278 23.8137 52.5459 23.6384 52.4071 23.428C52.2335 23.1124 52.3029 22.6915 52.3724 22.3759C52.5807 22.0603 52.9626 21.2537 53.1709 20.7978C55.4276 17.3259 57.7884 13.784 59.8716 10.3121C60.1146 10.0666 60.9478 9.92636 61.0173 10.5927C61.1909 12.7319 61.5033 14.8711 61.9894 16.9051C62.4755 18.9391 63.2045 20.8329 64.1419 22.6565C64.1767 22.7617 64.1419 23.1474 63.8642 23.1825Z" fill="white"/>
<path d="M70.7078 23.6384C68.9719 23.5683 67.3748 22.7617 66.368 21.2537C65.5348 19.9912 65.3264 18.5183 65.5 17.0805C65.7083 15.4673 66.368 13.9242 67.2707 12.7319C68.2775 11.3993 69.701 10.3472 71.3327 10.0316C72.4437 9.82115 73.6242 9.92636 74.4574 10.8382C74.8393 11.259 75.1865 11.7149 75.1865 12.276C75.2212 12.8722 74.9435 13.3982 74.4574 13.784C72.0271 15.818 69.4579 17.7117 66.8193 19.2548C66.8888 20.3419 67.8262 21.4641 68.833 22.0252C69.8398 22.5863 71.0203 22.6565 72.1313 22.5162C73.2423 22.411 74.388 22.0252 75.1865 21.6395C75.3254 21.5342 75.4295 21.6395 75.4642 21.7447C75.499 21.8148 75.5684 21.9551 75.4295 22.0603C74.2144 23.1825 72.4785 23.7085 70.7078 23.6384ZM72.2354 11.1187C71.2286 11.1187 70.2218 11.5395 69.4232 12.1708C67.722 13.5735 66.7152 15.818 66.7152 17.9923C69.1802 16.6246 71.5063 14.836 73.763 12.9774C73.9366 12.8371 74.0755 12.3111 73.8325 11.8902C73.5547 11.3291 72.9298 11.1187 72.2354 11.1187Z" fill="white"/>
<path d="M92.5943 22.6214C91.275 23.2877 89.8168 23.6735 88.2545 23.8488C87.8032 23.9189 87.1088 23.954 86.6922 23.5683C86.2408 23.2526 86.3103 22.5513 86.4144 22.2006C86.4839 22.0252 86.8658 21.8849 86.9699 22.1304C86.9699 22.1655 87.0046 22.2356 87.0046 22.3058C87.0741 22.4811 87.1782 22.6915 87.3865 22.7617C88.9489 22.6915 90.4071 22.3759 91.7264 21.7096C93.1151 21.0433 93.9831 20.3419 94.9552 19.0794C95.2329 18.7287 95.3024 18.3079 95.1288 17.9923C94.9205 17.5013 94.3997 17.0103 93.9136 16.7648C93.3234 16.4843 92.5943 16.3791 91.7958 16.344C91.1014 16.344 90.3376 16.3791 89.5738 16.4142C89.3655 16.4142 89.1919 16.2037 89.1572 16.0284C89.1225 15.7829 89.1919 15.6426 89.3308 15.5024L89.678 15.2569C90.1293 15.1166 90.6154 15.1166 91.032 15.1517C91.4833 15.1867 91.9 15.2569 92.3166 15.2218C92.7332 15.2218 93.1845 15.0465 93.497 14.6256L94.1567 13.9242C94.3303 13.6788 94.4344 13.4333 94.3303 13.1527C93.6706 12.3111 92.8721 11.8552 91.9694 11.5045C90.9278 11.1187 89.7474 10.9784 88.5323 10.8732C88.2892 10.7329 88.2198 10.277 88.4281 10.0666C88.81 9.75101 89.2613 9.71594 89.678 9.75101C90.6154 9.82115 91.8652 10.1017 92.6638 10.4524C93.8095 10.9434 94.7816 11.6447 95.4412 12.767C95.7537 13.4683 95.4412 14.2048 94.9899 14.6607C94.6427 15.0465 94.2261 15.327 93.8095 15.6076C94.5386 15.9232 95.5107 16.3791 95.9967 17.0805C96.587 17.852 96.5175 18.7989 96.1009 19.5704C95.476 20.8329 93.8095 21.9901 92.5943 22.6214Z" fill="white"/>
<path d="M104.749 23.4981C102.839 24.0242 100.617 23.9891 99.1241 22.6915C98.4298 22.0954 97.909 21.2186 97.8743 20.2718C97.8395 19.4301 98.1867 18.6586 98.6728 17.9572C99.7491 16.4142 101.624 15.3621 103.429 15.1517C104.193 15.0815 104.887 15.1867 105.443 15.7478C105.617 15.9232 105.443 16.2739 105.269 16.344H104.957C104.853 16.344 104.714 16.3089 104.61 16.3089C104.367 16.2739 104.158 16.2388 104.019 16.344C102.353 16.4142 100.721 17.2207 99.7143 18.5884C99.263 19.1846 99.02 19.6405 99.0894 20.377C99.1588 21.3589 99.8879 22.0954 100.895 22.446C102.318 22.9721 104.089 22.6565 105.443 22.1655C106.172 21.8849 106.832 21.6044 107.457 21.1485C107.595 21.0433 107.734 21.1485 107.804 21.3238C107.838 21.4641 107.838 21.6044 107.838 21.7096C107.352 22.6565 105.408 23.3228 104.749 23.4981ZM106.693 21.1134C106.519 21.3238 106.207 21.2888 106.068 21.1836C105.721 20.9381 105.721 20.4822 105.721 20.1315C105.755 19.5353 105.86 18.9391 105.998 18.3079L106.45 16.3791C106.727 15.1166 106.901 13.8541 106.519 12.802C106.207 11.8902 105.443 10.9784 104.506 10.8732C103.707 10.768 102.908 11.0486 102.249 11.5395C101.902 11.785 101.138 12.4513 100.929 12.8371C100.895 12.9774 100.964 13.2229 101.103 13.3631C101.242 13.5034 101.138 13.9242 100.825 13.8541C100.582 13.784 100.305 13.7138 100.096 13.5385C99.8185 13.293 99.7143 12.8371 99.9227 12.4864C100.513 11.4694 101.346 10.6277 102.422 10.1368C103.117 9.78608 103.95 9.6458 104.818 9.78608C105.86 9.96142 106.762 10.7329 107.283 11.7149C108.082 13.2229 107.977 15.1166 107.595 16.7999C107.248 18.2377 106.901 19.5704 106.693 21.1134Z" fill="white"/>
<path d="M119.643 22.4811C119.643 22.7617 119.331 22.8318 119.157 22.7967C118.775 22.6565 118.706 22.0252 118.636 21.6745C118.532 21.0433 118.532 20.412 118.532 19.7457V17.6065C118.532 15.9583 118.74 14.1697 118.775 12.4864C118.567 12.1708 118.22 11.9954 117.872 11.9253C117.491 11.8201 117.039 11.785 116.657 11.6798C115.269 11.4694 113.88 11.259 112.422 11.3291C112.248 12.8722 111.831 14.31 111.623 15.853C111.311 18.1325 111.033 20.2718 111.172 22.6915C111.172 22.9721 111.241 23.3929 110.963 23.6033C110.825 23.7436 110.443 23.7436 110.269 23.5683C110.095 23.3578 110.026 23.1124 109.991 22.8669C109.957 22.6214 109.991 22.3408 109.957 22.0603C109.922 18.378 110.512 14.9412 111.241 11.3642C111.068 11.3993 110.894 11.4343 110.72 11.3993C110.408 11.2239 110.477 10.9083 110.616 10.768C110.755 10.4875 110.998 10.3823 111.241 10.3121C111.484 10.242 111.762 10.1718 112.005 10.1718C114.366 9.99649 116.866 10.3472 119.018 11.0486C119.435 11.2941 120.025 11.5746 120.06 12.1357C119.747 15.5024 119.678 18.9742 119.643 22.4811Z" fill="white"/>
<path d="M130.036 22.7967C128.474 23.6033 126.599 23.954 124.898 23.1124C123.578 22.446 122.641 21.3238 122.19 19.9211C121.669 18.2728 121.843 16.4141 122.537 14.8711C123.058 13.7489 123.856 12.767 124.794 12.0305C125.419 11.5746 126.356 11.0135 127.224 10.9083C127.918 10.1017 129.064 9.85622 130.036 10.1017C131.703 10.5576 133.126 12.276 133.577 13.784C134.029 15.2569 134.133 16.87 133.716 18.378C133.196 20.412 131.876 21.8849 130.036 22.7967ZM132.432 14.1697C132.015 13.0124 131.078 11.7149 129.863 11.2941C129.307 11.0836 128.717 11.0135 128.265 11.3642C127.814 11.7149 127.536 12.276 127.328 12.767C127.293 12.8722 127.293 13.0124 127.293 13.1527C127.293 13.293 127.293 13.4683 127.259 13.6086C127.224 13.6788 126.877 13.8892 126.773 13.6788C126.703 13.3631 126.634 12.7319 126.668 12.2409C125.349 12.802 124.238 13.9593 123.613 15.2569C122.954 16.6246 122.919 18.2027 123.335 19.6054C123.683 20.6926 124.342 21.6044 125.453 22.0603C126.842 22.5863 128.335 22.411 129.585 21.7797C131.008 21.0433 132.015 19.9211 132.501 18.4131C132.952 17.0805 132.883 15.5024 132.432 14.1697Z" fill="white"/>
<path d="M146.728 23.1825C146.276 23.2176 145.964 22.7266 145.755 22.3759C144.992 21.0082 144.367 19.5704 143.915 18.0624C143.325 16.2037 143.013 14.31 142.874 12.276C141.832 13.8892 140.096 16.835 139.02 18.4131C137.909 20.0964 136.798 21.8849 135.895 23.5683C135.791 23.8137 135.409 23.6384 135.27 23.428C135.097 23.1124 135.166 22.6915 135.236 22.3759C135.444 22.0603 135.826 21.2537 136.034 20.7978C138.291 17.3259 140.652 13.784 142.735 10.3121C142.978 10.0666 143.811 9.92636 143.881 10.5927C144.054 12.7319 144.367 14.8711 144.853 16.9051C145.339 18.9391 146.068 20.8329 147.005 22.6565C147.04 22.7617 147.005 23.1474 146.728 23.1825Z" fill="white"/>
<path d="M158.987 15.7128C158.744 18.2027 158.883 21.1134 159.057 23.5683C159.091 23.8137 158.744 23.8488 158.571 23.7436C158.085 23.3578 157.842 22.3408 157.807 21.7096C157.703 19.7457 157.703 17.9221 157.807 15.9583C155.238 16.0635 152.46 15.9933 149.926 16.2739C149.822 18.6235 149.891 20.8679 149.995 23.1124C150.03 23.1825 149.891 23.2877 149.717 23.3228C149.613 23.3228 149.44 23.2877 149.336 23.1825C148.884 22.7266 148.78 21.8849 148.745 21.3238C148.572 17.7818 148.815 14.2399 149.162 10.768C149.231 10.5576 149.544 10.3472 149.822 10.5225C150.204 10.6979 150.204 11.1538 150.273 11.5045C150.204 12.4163 150.099 13.9593 149.995 15.0465C152.53 14.8711 155.342 14.9763 157.876 14.9412C158.015 13.2229 158.085 11.5045 158.501 9.89129C158.675 9.68087 159.022 9.82115 159.23 10.0316C159.404 10.242 159.508 10.6628 159.508 10.9083C159.335 12.2409 159.091 13.5385 159.057 14.9062C159.161 14.9062 159.265 14.8711 159.369 14.8711C159.439 14.8711 159.543 14.9412 159.543 15.1166C159.543 15.1867 159.543 15.327 159.473 15.3971C159.369 15.5374 159.161 15.6426 158.987 15.7128Z" fill="white"/>
<path d="M166.76 23.6384C165.024 23.5683 163.427 22.7617 162.42 21.2537C161.587 19.9912 161.379 18.5183 161.552 17.0805C161.761 15.4673 162.42 13.9242 163.323 12.7319C164.33 11.3993 165.753 10.3472 167.385 10.0316C168.496 9.82115 169.677 9.92636 170.51 10.8382C170.892 11.259 171.239 11.7149 171.239 12.276C171.274 12.8722 170.996 13.3982 170.51 13.784C168.08 15.818 165.51 17.7117 162.872 19.2548C162.941 20.3419 163.879 21.4641 164.885 22.0252C165.892 22.5863 167.073 22.6565 168.184 22.5162C169.295 22.411 170.44 22.0252 171.239 21.6395C171.378 21.5342 171.482 21.6395 171.517 21.7447C171.551 21.8148 171.621 21.9551 171.482 22.0603C170.267 23.1825 168.531 23.7085 166.76 23.6384ZM168.288 11.1187C167.281 11.1187 166.274 11.5395 165.476 12.1708C163.774 13.5735 162.768 15.818 162.768 17.9923C165.233 16.6246 167.559 14.836 169.815 12.9774C169.989 12.8371 170.128 12.3111 169.885 11.8902C169.607 11.3291 168.982 11.1187 168.288 11.1187Z" fill="white"/>
<path d="M183.636 15.7128C183.393 18.2027 183.532 21.1134 183.706 23.5683C183.74 23.8137 183.393 23.8488 183.22 23.7436C182.733 23.3578 182.49 22.3408 182.456 21.7096C182.352 19.7457 182.352 17.9221 182.456 15.9583C179.887 16.0635 177.109 15.9933 174.575 16.2739C174.47 18.6235 174.54 20.8679 174.644 23.1124C174.679 23.1825 174.54 23.2877 174.366 23.3228C174.262 23.3228 174.089 23.2877 173.984 23.1825C173.533 22.7266 173.429 21.8849 173.394 21.3238C173.221 17.7818 173.464 14.2399 173.811 10.768C173.88 10.5576 174.193 10.3472 174.47 10.5225C174.852 10.6979 174.852 11.1538 174.922 11.5045C174.852 12.4163 174.748 13.9593 174.644 15.0465C177.178 14.8711 179.991 14.9763 182.525 14.9412C182.664 13.2229 182.733 11.5045 183.15 9.89129C183.324 9.68087 183.671 9.82115 183.879 10.0316C184.053 10.242 184.157 10.6628 184.157 10.9083C183.983 12.2409 183.74 13.5385 183.706 14.9062C183.81 14.9062 183.914 14.8711 184.018 14.8711C184.087 14.8711 184.192 14.9412 184.192 15.1166C184.192 15.1867 184.192 15.327 184.122 15.3971C184.018 15.5374 183.81 15.6426 183.636 15.7128Z" fill="white"/>
<path d="M197.103 23.6033C196.374 22.7617 196.165 21.6395 195.992 20.5523C195.645 18.0273 195.714 15.327 195.645 12.6968C193.527 15.7478 191.86 18.8339 189.847 22.3058C189.638 22.5513 189.534 22.7266 189.187 22.8669C188.875 22.8669 188.597 22.8318 188.354 22.4811C186.687 19.36 186.375 15.5374 186.618 11.75C186.618 11.5045 186.687 11.0836 186.965 10.9784C187.416 10.8382 187.764 11.2239 187.764 11.5045C187.555 15.0114 187.937 18.343 189.083 21.3589C190.298 19.2548 191.27 17.5013 192.312 15.7829C193.388 13.9944 194.534 12.276 195.992 10.3121C196.27 10.1017 196.652 10.242 196.79 10.5225C196.895 13.8892 196.86 17.1857 197.138 20.412C197.207 21.4641 197.45 22.4811 197.519 23.4631C197.519 23.6033 197.207 23.7436 197.103 23.6033Z" fill="white"/>
<path d="M208.035 11.785C208.243 15.327 208.139 19.1145 207.757 22.6214C207.688 22.7617 207.619 22.9721 207.549 23.2176C207.445 23.428 207.375 23.6384 207.202 23.8488C207.132 23.9891 206.681 24.0592 206.577 23.8137C206.646 23.0072 207.028 18.7638 206.924 16.9402C204.39 18.4131 202.029 21.0082 200.258 23.428C200.085 23.6033 199.668 23.6033 199.599 23.2526C199.599 22.6214 199.842 22.1304 200.189 21.6395C200.536 21.1836 200.953 20.7627 201.265 20.2718C202.133 19.2197 203.14 18.343 204.181 17.5013C203.348 17.5714 202.48 17.5013 201.647 17.1155C200.71 16.6947 200.085 15.8881 199.946 14.836C199.842 14.2048 199.946 13.5385 200.258 13.0475C200.883 12.0656 201.716 11.2239 202.654 10.6628C203.765 9.99649 204.98 9.6458 206.334 9.75101C207.063 9.99649 207.896 10.242 208.243 11.0135C208.313 11.259 208.313 11.5746 208.035 11.785ZM206.889 13.293C206.889 12.5215 206.855 11.785 206.751 11.0836C206.126 10.8382 205.605 10.768 204.91 10.9784C204.181 11.1888 203.313 11.5395 202.619 12.0656C201.786 12.6968 201.161 13.5034 201.126 14.5555C201.196 15.0114 201.369 15.4673 201.751 15.818C202.237 16.1336 202.862 16.3089 203.418 16.344C204.667 16.4492 205.952 16.0635 206.924 15.5725C206.889 14.836 206.889 14.0645 206.889 13.293Z" fill="white"/>
<path d="M10.0965 50.5364C10.0965 50.817 9.78408 50.8871 9.61049 50.8521C9.22859 50.7118 9.15915 50.0805 9.08971 49.7299C8.98556 49.0986 8.98556 48.4674 8.98556 47.801V45.6618C8.98556 44.0136 9.19387 42.225 9.22859 40.5417C9.02027 40.2261 8.67309 40.0508 8.3259 39.9806C7.944 39.8754 7.49266 39.8403 7.11075 39.7351C5.72201 39.5247 4.33327 39.3143 2.87509 39.3844C2.7015 40.9275 2.28488 42.3653 2.07656 43.9084C1.7641 46.1879 1.48635 48.3271 1.62522 50.7469C1.62522 51.0274 1.69466 51.4482 1.41691 51.6587C1.27804 51.7989 0.896134 51.7989 0.722541 51.6236C0.548948 51.4132 0.479511 51.1677 0.444793 50.9222C0.410074 50.6767 0.444793 50.3962 0.410074 50.1156C0.375356 46.4333 0.965571 42.9966 1.69466 39.4195C1.52107 39.4546 1.34748 39.4897 1.17388 39.4546C0.861415 39.2792 0.930853 38.9636 1.06973 38.8233C1.2086 38.5428 1.45163 38.4376 1.69466 38.3674C1.93769 38.2973 2.21544 38.2272 2.45847 38.2272C4.81933 38.0518 7.31907 38.4025 9.47162 39.1039C9.88824 39.3494 10.4785 39.6299 10.5132 40.191C10.2007 43.5577 10.1313 47.0295 10.0965 50.5364Z" fill="white"/>
<path d="M20.4896 50.8521C18.9273 51.6586 17.0525 52.0093 15.3513 51.1677C14.032 50.5014 13.0946 49.3792 12.6432 47.9764C12.1224 46.3281 12.296 44.4695 12.9904 42.9264C13.5112 41.8042 14.3097 40.8223 15.2471 40.0858C15.872 39.6299 16.8094 39.0688 17.6774 38.9636C18.3718 38.157 19.5175 37.9115 20.4896 38.157C22.1561 38.6129 23.5796 40.3313 24.0309 41.8393C24.4822 43.3122 24.5864 44.9254 24.1698 46.4333C23.649 48.4674 22.3297 49.9403 20.4896 50.8521ZM22.8852 42.2251C22.4686 41.0678 21.5312 39.7702 20.316 39.3494C19.7605 39.139 19.1703 39.0688 18.719 39.4195C18.2676 39.7702 17.9899 40.3313 17.7816 40.8223C17.7468 40.9275 17.7468 41.0678 17.7468 41.208C17.7468 41.3483 17.7468 41.5237 17.7121 41.6639C17.6774 41.7341 17.3302 41.9445 17.2261 41.7341C17.1566 41.4185 17.0872 40.7872 17.1219 40.2962C15.8026 40.8574 14.6916 42.0146 14.0667 43.3122C13.407 44.6799 13.3723 46.258 13.7889 47.6608C14.1361 48.7479 14.7958 49.6597 15.9068 50.1156C17.2955 50.6416 18.7884 50.4663 20.0383 49.8351C21.4617 49.0986 22.4686 47.9764 22.9546 46.4684C23.406 45.1358 23.3365 43.5577 22.8852 42.2251Z" fill="white"/>
<path d="M37.1811 51.2378C36.7297 51.2729 36.4173 50.7819 36.209 50.4312C35.4452 49.0635 34.8202 47.6257 34.3689 46.1177C33.7787 44.2591 33.4662 42.3653 33.3273 40.3313C32.2858 41.9445 30.5498 44.8903 29.4736 46.4684C28.3626 48.1517 27.2516 49.9403 26.3489 51.6236C26.2447 51.8691 25.8628 51.6937 25.724 51.4833C25.5504 51.1677 25.6198 50.7469 25.6892 50.4312C25.8976 50.1156 26.2795 49.309 26.4878 48.8531C28.7445 45.3813 31.1053 41.8393 33.1885 38.3674C33.4315 38.122 34.2647 37.9817 34.3342 38.648C34.5078 40.7872 34.8202 42.9264 35.3063 44.9604C35.7923 46.9945 36.5214 48.8882 37.4588 50.7118C37.4936 50.817 37.4588 51.2028 37.1811 51.2378Z" fill="white"/>
<path d="M44.0247 51.6937C42.2888 51.6236 40.6917 50.817 39.6849 49.309C38.8516 48.0465 38.6433 46.5736 38.8169 45.1358C39.0252 43.5226 39.6849 41.9796 40.5876 40.7872C41.5944 39.4546 43.0179 38.4025 44.6496 38.0869C45.7606 37.8765 46.9411 37.9817 47.7743 38.8935C48.1562 39.3143 48.5034 39.7702 48.5034 40.3313C48.5381 40.9275 48.2604 41.4535 47.7743 41.8393C45.344 43.8733 42.7748 45.767 40.1362 47.3101C40.2057 48.3972 41.1431 49.5194 42.1499 50.0805C43.1567 50.6417 44.3372 50.7118 45.4482 50.5715C46.5592 50.4663 47.7049 50.0805 48.5034 49.6948C48.6423 49.5896 48.7464 49.6948 48.7812 49.8C48.8159 49.8701 48.8853 50.0104 48.7464 50.1156C47.5313 51.2378 45.7954 51.7639 44.0247 51.6937ZM45.5523 39.174C44.5455 39.174 43.5387 39.5949 42.7401 40.2261C41.0389 41.6289 40.0321 43.8733 40.0321 46.0476C42.4971 44.6799 44.8232 42.8914 47.0799 41.0327C47.2535 40.8924 47.3924 40.3664 47.1494 39.9456C46.8716 39.3844 46.2467 39.174 45.5523 39.174Z" fill="white"/>
<path d="M58.1926 33.1071C58.1231 32.9317 58.019 32.7213 57.9496 32.546C57.9148 32.3005 58.0884 32.2303 58.1926 32.2303C58.3315 32.2303 58.4703 32.3005 58.5745 32.3355C58.887 32.581 59.13 32.9668 59.3036 33.3526C59.4425 33.7032 59.4077 34.1942 59.1994 34.4748C58.9564 34.7904 58.6786 35.106 58.3315 35.3164C57.8107 35.632 57.1858 35.8775 56.6303 36.0529C56.04 36.2282 54.7555 36.2633 54.1652 36.0879C53.3667 35.8775 52.8806 35.4918 52.6376 34.9307C52.464 34.5098 52.3946 34.0189 52.464 33.4928C52.4987 33.0369 52.6376 32.581 52.8459 32.2303C52.9154 32.1251 53.0195 32.0901 53.089 32.0901C53.1584 32.055 53.2278 32.055 53.332 32.0199C53.5056 32.1602 53.7139 32.3005 53.7139 32.546C53.7139 32.7914 53.6792 33.072 53.6445 33.3526C53.575 33.6682 53.5403 33.9487 53.6445 34.1591C53.6445 34.6501 53.9569 34.8956 54.4083 35.0359C54.9985 35.2112 55.8317 35.1411 56.5608 34.9307C57.1163 34.7553 57.6371 34.5098 57.9843 34.1942C58.1926 34.0189 58.2967 33.8435 58.2967 33.6682C58.3315 33.4928 58.262 33.3175 58.1926 33.1071ZM61.1784 51.6587C60.4493 50.817 60.241 49.6948 60.0674 48.6076C59.7202 46.0827 59.7896 43.3823 59.7202 40.7521C57.6024 43.8032 55.9359 46.8892 53.9222 50.3611C53.7139 50.6066 53.6097 50.7819 53.2626 50.9222C52.9501 50.9222 52.6723 50.8871 52.4293 50.5364C50.7628 47.4153 50.4504 43.5927 50.6934 39.8053C50.6934 39.5598 50.7628 39.139 51.0406 39.0338C51.4919 38.8935 51.8391 39.2792 51.8391 39.5598C51.6308 43.0667 52.0127 46.3983 53.1584 49.4142C54.3736 47.3101 55.3457 45.5566 56.3872 43.8382C57.4635 42.0497 58.6092 40.3313 60.0674 38.3674C60.3451 38.157 60.727 38.2973 60.8659 38.5779C60.9701 41.9445 60.9354 45.241 61.2131 48.4674C61.2825 49.5194 61.5256 50.5364 61.595 51.5184C61.595 51.6586 61.2825 51.7989 61.1784 51.6587Z" fill="white"/>
<path d="M83.7525 43.7681C83.5095 46.258 83.6483 49.1687 83.8219 51.6236C83.8566 51.8691 83.5095 51.9041 83.3359 51.7989C82.8498 51.4132 82.6068 50.3962 82.5721 49.7649C82.4679 47.801 82.4679 45.9775 82.5721 44.0136C80.0029 44.1188 77.2254 44.0486 74.6909 44.3292C74.5868 46.6788 74.6562 48.9233 74.7604 51.1677C74.7951 51.2378 74.6562 51.343 74.4826 51.3781C74.3785 51.3781 74.2049 51.343 74.1007 51.2378C73.6494 50.7819 73.5452 49.9403 73.5105 49.3792C73.3369 45.8372 73.58 42.2952 73.9271 38.8233C73.9966 38.6129 74.309 38.4025 74.5868 38.5779C74.9687 38.7532 74.9687 39.2091 75.0381 39.5598C74.9687 40.4716 74.8645 42.0146 74.7604 43.1018C77.2948 42.9264 80.107 43.0316 82.6415 42.9966C82.7804 41.2782 82.8498 39.5598 83.2664 37.9466C83.44 37.7362 83.7872 37.8765 83.9955 38.0869C84.1691 38.2973 84.2733 38.7181 84.2733 38.9636C84.0997 40.2962 83.8566 41.5938 83.8219 42.9615C83.9261 42.9615 84.0302 42.9264 84.1344 42.9264C84.2038 42.9264 84.308 42.9966 84.308 43.1719C84.308 43.2421 84.308 43.3823 84.2386 43.4525C84.1344 43.5927 83.9261 43.698 83.7525 43.7681Z" fill="white"/>
<path d="M94.3029 48.783C92.6711 52.36 91.3865 56.0423 90.1366 59.7596C90.0325 59.97 89.5464 60.0402 89.4423 59.7596C89.2687 59.444 89.3728 58.6023 89.4423 58.2867C89.9978 55.902 91.0046 53.6927 91.8378 51.4132C90.831 49.9052 89.5464 47.8361 88.5743 46.0476C87.3591 43.7681 86.3523 41.3834 85.9704 38.7532C85.901 38.4025 86.1093 38.0518 86.387 37.9115C86.5953 37.8414 86.7342 37.9466 86.8384 38.0518C86.9425 38.157 87.012 38.2973 87.0814 38.4376C87.4286 40.5417 88.123 42.5056 88.9909 44.3643C89.963 46.3632 91.1087 48.2569 92.3933 50.1507C93.1919 48.3972 94.0251 46.6438 94.9278 44.9254C95.8305 43.1719 96.8373 41.4886 98.0525 39.8403C98.2955 39.5247 98.6427 39.174 98.9552 39.3494C99.1635 39.4546 99.337 39.7702 99.1635 40.0157C97.3234 42.8563 95.6916 45.767 94.3029 48.783Z" fill="white"/>
<path d="M108.439 44.4344C108.439 44.5396 108.439 44.715 108.404 44.8552C109.654 45.6618 110.8 46.6788 111.911 47.801C113.022 48.8882 114.133 50.0805 115.244 51.1677C115.417 51.308 115.139 51.5534 115.035 51.5534C114.48 51.343 114.063 51.0274 113.577 50.6767C113.195 50.3611 112.779 49.9753 112.327 49.6597C111.077 48.4674 109.758 47.3101 108.439 46.258C108.369 48.0816 108.578 49.8 108.786 51.5885C108.716 51.8691 108.404 51.9041 108.196 51.7989C107.953 51.4132 107.849 50.9923 107.744 50.5715C107.675 50.1507 107.605 49.6948 107.536 49.274C107.328 47.9764 107.328 46.784 107.328 45.3813L107.189 45.2761C105.488 46.4684 103.648 47.9413 102.016 49.2389C101.946 49.2389 101.842 49.274 101.738 49.309C101.634 49.309 101.495 49.309 101.426 49.2038C101.287 49.0986 101.321 48.9583 101.356 48.8531C101.391 48.7479 101.46 48.6427 101.53 48.5375C103.057 47.1347 104.654 45.8372 106.251 44.6799C104.585 43.4875 102.814 42.4355 101.044 41.4535C100.696 41.208 100.245 40.8223 100.349 40.2612C100.488 39.9806 100.905 40.0508 101.078 40.156C103.231 41.3133 105.314 42.5056 107.258 43.9785L107.362 43.9084C107.397 42.0497 107.501 39.9105 108.092 38.0518C108.369 37.631 108.855 38.0168 108.925 38.3324C108.994 39.9456 108.578 41.4535 108.543 43.0667C110.8 41.6639 113.126 40.156 115.521 38.8233C115.764 38.7532 115.938 38.7532 116.181 38.8584C116.355 38.9636 116.528 39.3143 116.355 39.5949C113.751 41.208 111.043 42.716 108.439 44.4344Z" fill="white"/>
<path d="M128.541 43.7681C128.298 46.258 128.437 49.1687 128.61 51.6236C128.645 51.8691 128.298 51.9041 128.124 51.7989C127.638 51.4132 127.395 50.3962 127.36 49.7649C127.256 47.801 127.256 45.9775 127.36 44.0136C124.791 44.1188 122.014 44.0486 119.479 44.3292C119.375 46.6788 119.445 48.9233 119.549 51.1677C119.583 51.2378 119.445 51.343 119.271 51.3781C119.167 51.3781 118.993 51.343 118.889 51.2378C118.438 50.7819 118.334 49.9403 118.299 49.3792C118.125 45.8372 118.368 42.2952 118.715 38.8233C118.785 38.6129 119.097 38.4025 119.375 38.5779C119.757 38.7532 119.757 39.2091 119.826 39.5598C119.757 40.4716 119.653 42.0146 119.549 43.1018C122.083 42.9264 124.895 43.0316 127.43 42.9966C127.569 41.2782 127.638 39.5598 128.055 37.9466C128.228 37.7362 128.576 37.8765 128.784 38.0869C128.957 38.2973 129.062 38.7181 129.062 38.9636C128.888 40.2962 128.645 41.5938 128.61 42.9615C128.714 42.9615 128.819 42.9264 128.923 42.9264C128.992 42.9264 129.096 42.9966 129.096 43.1719C129.096 43.2421 129.096 43.3823 129.027 43.4525C128.923 43.5927 128.714 43.698 128.541 43.7681Z" fill="white"/>
<path d="M138.987 50.8521C137.425 51.6586 135.55 52.0093 133.849 51.1677C132.529 50.5014 131.592 49.3792 131.141 47.9764C130.62 46.3281 130.793 44.4695 131.488 42.9264C132.009 41.8042 132.807 40.8223 133.744 40.0858C134.369 39.6299 135.307 39.0688 136.175 38.9636C136.869 38.157 138.015 37.9115 138.987 38.157C140.653 38.6129 142.077 40.3313 142.528 41.8393C142.98 43.3122 143.084 44.9254 142.667 46.4333C142.146 48.4674 140.827 49.9403 138.987 50.8521ZM141.383 42.2251C140.966 41.0678 140.029 39.7702 138.813 39.3494C138.258 39.139 137.668 39.0688 137.216 39.4195C136.765 39.7702 136.487 40.3313 136.279 40.8223C136.244 40.9275 136.244 41.0678 136.244 41.208C136.244 41.3483 136.244 41.5237 136.21 41.6639C136.175 41.7341 135.828 41.9445 135.723 41.7341C135.654 41.4185 135.585 40.7872 135.619 40.2962C134.3 40.8574 133.189 42.0146 132.564 43.3122C131.904 44.6799 131.87 46.258 132.286 47.6608C132.633 48.7479 133.293 49.6597 134.404 50.1156C135.793 50.6416 137.286 50.4663 138.536 49.8351C139.959 49.0986 140.966 47.9764 141.452 46.4684C141.903 45.1358 141.834 43.5577 141.383 42.2251Z" fill="white"/>
<path d="M164.751 43.7681C164.508 46.258 164.647 49.1687 164.821 51.6236C164.855 51.8691 164.508 51.9041 164.335 51.7989C163.848 51.4132 163.605 50.3962 163.571 49.7649C163.467 47.801 163.467 45.9775 163.571 44.0136C161.002 44.1188 158.224 44.0486 155.69 44.3292C155.585 46.6788 155.655 48.9233 155.759 51.1677C155.794 51.2378 155.655 51.343 155.481 51.3781C155.377 51.3781 155.204 51.343 155.099 51.2378C154.648 50.7819 154.544 49.9403 154.509 49.3792C154.336 45.8372 154.579 42.2952 154.926 38.8233C154.995 38.6129 155.308 38.4025 155.585 38.5779C155.967 38.7532 155.967 39.2091 156.037 39.5598C155.967 40.4716 155.863 42.0146 155.759 43.1018C158.293 42.9264 161.106 43.0316 163.64 42.9966C163.779 41.2782 163.848 39.5598 164.265 37.9466C164.439 37.7362 164.786 37.8765 164.994 38.0869C165.168 38.2973 165.272 38.7181 165.272 38.9636C165.098 40.2962 164.855 41.5938 164.821 42.9615C164.925 42.9615 165.029 42.9264 165.133 42.9264C165.202 42.9264 165.307 42.9966 165.307 43.1719C165.307 43.2421 165.307 43.3823 165.237 43.4525C165.133 43.5927 164.925 43.698 164.751 43.7681Z" fill="white"/>
<path d="M173.982 51.5534C172.073 52.0795 169.851 52.0444 168.358 50.7469C167.663 50.1507 167.143 49.2739 167.108 48.3271C167.073 47.4854 167.42 46.7139 167.906 46.0125C168.983 44.4695 170.858 43.4174 172.663 43.207C173.427 43.1368 174.121 43.2421 174.677 43.8032C174.85 43.9785 174.677 44.3292 174.503 44.3993H174.191C174.086 44.3993 173.947 44.3643 173.843 44.3643C173.6 44.3292 173.392 44.2941 173.253 44.3993C171.587 44.4695 169.955 45.2761 168.948 46.6438C168.497 47.2399 168.254 47.6958 168.323 48.4323C168.393 49.4142 169.122 50.1507 170.128 50.5014C171.552 51.0274 173.323 50.7118 174.677 50.2208C175.406 49.9403 176.065 49.6597 176.69 49.2038C176.829 49.0986 176.968 49.2038 177.037 49.3792C177.072 49.5194 177.072 49.6597 177.072 49.7649C176.586 50.7118 174.642 51.3781 173.982 51.5534ZM175.926 49.1687C175.753 49.3792 175.44 49.3441 175.302 49.2389C174.954 48.9934 174.954 48.5375 174.954 48.1868C174.989 47.5906 175.093 46.9945 175.232 46.3632L175.683 44.4344C175.961 43.1719 176.135 41.9094 175.753 40.8573C175.44 39.9456 174.677 39.0338 173.739 38.9285C172.941 38.8233 172.142 39.1039 171.482 39.5949C171.135 39.8403 170.371 40.5067 170.163 40.8924C170.128 41.0327 170.198 41.2782 170.337 41.4185C170.476 41.5587 170.371 41.9796 170.059 41.9094C169.816 41.8393 169.538 41.7691 169.33 41.5938C169.052 41.3483 168.948 40.8924 169.156 40.5417C169.747 39.5247 170.58 38.6831 171.656 38.1921C172.35 37.8414 173.184 37.7011 174.052 37.8414C175.093 38.0168 175.996 38.7883 176.517 39.7702C177.315 41.2782 177.211 43.1719 176.829 44.8552C176.482 46.2931 176.135 47.6257 175.926 49.1687Z" fill="white"/>
<path d="M186.759 44.4344C186.759 44.5396 186.759 44.715 186.724 44.8552C187.974 45.6618 189.12 46.6788 190.231 47.801C191.342 48.8882 192.453 50.0805 193.564 51.1677C193.737 51.308 193.46 51.5534 193.355 51.5534C192.8 51.343 192.383 51.0274 191.897 50.6767C191.515 50.3611 191.099 49.9753 190.647 49.6597C189.398 48.4674 188.078 47.3101 186.759 46.258C186.689 48.0816 186.898 49.8 187.106 51.5885C187.037 51.8691 186.724 51.9041 186.516 51.7989C186.273 51.4132 186.169 50.9923 186.065 50.5715C185.995 50.1507 185.926 49.6948 185.856 49.274C185.648 47.9764 185.648 46.784 185.648 45.3813L185.509 45.2761C183.808 46.4684 181.968 47.9413 180.336 49.2389C180.267 49.2389 180.162 49.274 180.058 49.309C179.954 49.309 179.815 49.309 179.746 49.2038C179.607 49.0986 179.642 48.9583 179.676 48.8531C179.711 48.7479 179.78 48.6427 179.85 48.5375C181.378 47.1347 182.975 45.8372 184.572 44.6799C182.905 43.4875 181.135 42.4355 179.364 41.4535C179.017 41.208 178.565 40.8223 178.669 40.2612C178.808 39.9806 179.225 40.0508 179.399 40.156C181.551 41.3133 183.634 42.5056 185.578 43.9785L185.683 43.9084C185.717 42.0497 185.822 39.9105 186.412 38.0518C186.689 37.631 187.176 38.0168 187.245 38.3324C187.314 39.9456 186.898 41.4535 186.863 43.0667C189.12 41.6639 191.446 40.156 193.841 38.8233C194.085 38.7532 194.258 38.7532 194.501 38.8584C194.675 38.9636 194.848 39.3143 194.675 39.5949C192.071 41.208 189.363 42.716 186.759 44.4344Z" fill="white"/>
<path d="M202.903 51.5534C200.994 52.0795 198.772 52.0444 197.279 50.7469C196.584 50.1507 196.063 49.2739 196.029 48.3271C195.994 47.4854 196.341 46.7139 196.827 46.0125C197.904 44.4695 199.778 43.4174 201.584 43.207C202.348 43.1368 203.042 43.2421 203.597 43.8032C203.771 43.9785 203.597 44.3292 203.424 44.3993H203.111C203.007 44.3993 202.868 44.3643 202.764 44.3643C202.521 44.3292 202.313 44.2941 202.174 44.3993C200.507 44.4695 198.876 45.2761 197.869 46.6438C197.417 47.2399 197.174 47.6958 197.244 48.4323C197.313 49.4142 198.042 50.1507 199.049 50.5014C200.473 51.0274 202.243 50.7118 203.597 50.2208C204.326 49.9403 204.986 49.6597 205.611 49.2038C205.75 49.0986 205.889 49.2038 205.958 49.3792C205.993 49.5194 205.993 49.6597 205.993 49.7649C205.507 50.7118 203.563 51.3781 202.903 51.5534ZM204.847 49.1687C204.674 49.3792 204.361 49.3441 204.222 49.2389C203.875 48.9934 203.875 48.5375 203.875 48.1868C203.91 47.5906 204.014 46.9945 204.153 46.3632L204.604 44.4344C204.882 43.1719 205.056 41.9094 204.674 40.8573C204.361 39.9456 203.597 39.0338 202.66 38.9285C201.861 38.8233 201.063 39.1039 200.403 39.5949C200.056 39.8403 199.292 40.5067 199.084 40.8924C199.049 41.0327 199.119 41.2782 199.258 41.4185C199.396 41.5587 199.292 41.9796 198.98 41.9094C198.737 41.8393 198.459 41.7691 198.251 41.5938C197.973 41.3483 197.869 40.8924 198.077 40.5417C198.667 39.5247 199.501 38.6831 200.577 38.1921C201.271 37.8414 202.105 37.7011 202.972 37.8414C204.014 38.0168 204.917 38.7883 205.438 39.7702C206.236 41.2782 206.132 43.1719 205.75 44.8552C205.403 46.2931 205.056 47.6257 204.847 49.1687Z" fill="white"/>
<path d="M218.284 39.5949C217.381 39.3844 216.478 39.174 215.541 39.139C214.777 40.1209 214.395 41.2782 214.187 42.5056C213.944 43.7681 213.979 45.1007 213.909 46.3983C213.84 48.1517 213.979 49.8351 214.187 51.4833C214.083 51.6937 213.77 51.834 213.527 51.6937C212.937 50.9573 212.798 50.0104 212.763 49.0635C212.729 46.9594 212.694 44.75 213.006 42.681C213.215 41.3483 213.597 40.1209 214.395 38.9987C212.243 38.8935 210.264 39.3494 208.285 39.9105C208.007 39.8754 207.694 39.7001 207.521 39.4195C207.451 39.174 207.59 39.0338 207.729 38.9636L207.938 38.8935L208.111 38.8233C209.569 38.2272 211.34 37.9115 213.041 37.8765C214.777 37.8063 216.513 37.9817 218.041 38.5428C218.214 38.6129 218.527 38.8584 218.631 39.0688C218.666 39.3143 218.492 39.6299 218.284 39.5949Z" fill="white"/>
<path d="M227.227 49.3441C226.464 50.1156 225.561 50.7819 224.554 51.2028C223.686 51.5534 222.679 51.6587 221.638 51.343C221.603 51.5184 221.464 51.7288 221.291 51.7288C220.735 51.5184 220.527 50.9923 220.423 50.5364C220.18 46.2931 220.631 42.1198 221.36 38.157C221.534 37.7713 222.228 37.5609 222.436 38.122C222.228 40.156 221.846 42.19 221.742 44.224C222.957 43.2771 224.519 42.8212 226.047 43.1719C227.054 43.4174 228.061 44.3292 228.373 45.3462C228.859 46.8191 228.338 48.292 227.227 49.3441ZM225.769 44.3993C224.207 44.0136 222.749 44.715 221.638 45.9073C221.638 47.2049 221.638 49.1687 221.603 50.2559C222.506 50.4663 223.408 50.3611 224.207 50.0104C225.249 49.5896 226.186 48.783 226.915 47.8361C227.436 47.1698 227.47 46.1177 227.054 45.3813C226.811 44.8903 226.255 44.5045 225.769 44.3993Z" fill="white"/>
<path d="M250.632 43.7681C250.389 46.258 250.528 49.1687 250.702 51.6236C250.736 51.8691 250.389 51.9041 250.215 51.7989C249.729 51.4132 249.486 50.3962 249.452 49.7649C249.348 47.801 249.348 45.9775 249.452 44.0136C246.882 44.1188 244.105 44.0486 241.571 44.3292C241.466 46.6788 241.536 48.9233 241.64 51.1677C241.675 51.2378 241.536 51.343 241.362 51.3781C241.258 51.3781 241.084 51.343 240.98 51.2378C240.529 50.7819 240.425 49.9403 240.39 49.3792C240.217 45.8372 240.46 42.2952 240.807 38.8233C240.876 38.6129 241.189 38.4025 241.466 38.5779C241.848 38.7532 241.848 39.2091 241.918 39.5598C241.848 40.4716 241.744 42.0146 241.64 43.1018C244.174 42.9264 246.987 43.0316 249.521 42.9966C249.66 41.2782 249.729 39.5598 250.146 37.9466C250.32 37.7362 250.667 37.8765 250.875 38.0869C251.049 38.2973 251.153 38.7181 251.153 38.9636C250.979 40.2962 250.736 41.5938 250.702 42.9615C250.806 42.9615 250.91 42.9264 251.014 42.9264C251.083 42.9264 251.188 42.9966 251.188 43.1719C251.188 43.2421 251.188 43.3823 251.118 43.4525C251.014 43.5927 250.806 43.698 250.632 43.7681Z" fill="white"/>
<path d="M259.863 51.5534C257.954 52.0795 255.732 52.0444 254.239 50.7469C253.544 50.1507 253.024 49.2739 252.989 48.3271C252.954 47.4854 253.301 46.7139 253.787 46.0125C254.864 44.4695 256.738 43.4174 258.544 43.207C259.308 43.1368 260.002 43.2421 260.558 43.8032C260.731 43.9785 260.558 44.3292 260.384 44.3993H260.071C259.967 44.3993 259.828 44.3643 259.724 44.3643C259.481 44.3292 259.273 44.2941 259.134 44.3993C257.468 44.4695 255.836 45.2761 254.829 46.6438C254.378 47.2399 254.135 47.6958 254.204 48.4323C254.273 49.4142 255.003 50.1507 256.009 50.5014C257.433 51.0274 259.203 50.7118 260.558 50.2208C261.287 49.9403 261.946 49.6597 262.571 49.2038C262.71 49.0986 262.849 49.2038 262.918 49.3792C262.953 49.5194 262.953 49.6597 262.953 49.7649C262.467 50.7118 260.523 51.3781 259.863 51.5534ZM261.807 49.1687C261.634 49.3792 261.321 49.3441 261.182 49.2389C260.835 48.9934 260.835 48.5375 260.835 48.1868C260.87 47.5906 260.974 46.9945 261.113 46.3632L261.564 44.4344C261.842 43.1719 262.016 41.9094 261.634 40.8573C261.321 39.9456 260.558 39.0338 259.62 38.9285C258.822 38.8233 258.023 39.1039 257.363 39.5949C257.016 39.8403 256.252 40.5067 256.044 40.8924C256.009 41.0327 256.079 41.2782 256.218 41.4185C256.357 41.5587 256.252 41.9796 255.94 41.9094C255.697 41.8393 255.419 41.7691 255.211 41.5938C254.933 41.3483 254.829 40.8924 255.037 40.5417C255.627 39.5247 256.461 38.6831 257.537 38.1921C258.231 37.8414 259.065 37.7011 259.933 37.8414C260.974 38.0168 261.877 38.7883 262.398 39.7702C263.196 41.2782 263.092 43.1719 262.71 44.8552C262.363 46.2931 262.016 47.6257 261.807 49.1687Z" fill="white"/>
<path d="M11.7978 79.6789C10.1313 78.732 8.43006 78.0657 6.65941 77.4345C4.92349 76.8032 3.257 76.172 1.59051 75.4355C1.55579 76.698 1.72938 77.9956 2.04185 79.1529C2.146 79.3633 2.07656 79.749 1.7641 79.749C1.48635 79.749 1.31276 79.5737 1.2086 79.3984C1.10445 79.2581 1.03501 79.0477 0.930853 78.8723C0.548949 77.6098 0.410074 76.2421 0.410074 74.8394C0.305919 74.7692 0.167044 74.664 0.0976073 74.4887C-0.00654831 74.3835 -0.0412669 74.173 0.0628887 73.9977C0.201763 73.8925 0.340637 73.6821 0.375356 73.5418C0.444793 73.0859 0.410074 72.0338 0.51423 71.5779C0.653104 70.7713 0.861415 69.7894 1.06973 68.8075C1.31276 67.8255 1.65994 66.8436 2.11128 66.0019C2.31959 65.6512 2.84037 65.7214 2.94453 66.1071C2.90981 66.563 2.77094 66.9839 2.63206 67.4047C2.52791 67.7905 2.31959 68.2113 2.21544 68.6321C1.86825 69.8946 1.65994 71.1922 1.62522 72.5248C2.87509 71.4026 4.12496 70.3505 5.40954 69.3686C7.0066 68.1762 8.70781 67.1592 10.5132 66.4228C10.7909 66.4228 11.1381 66.4228 11.3464 66.5981C11.5547 66.7384 11.5547 66.9488 11.4506 67.1943C9.61049 67.9658 7.944 68.9828 6.24279 70.1752C4.64574 71.3324 3.04868 72.6651 1.55579 74.1029V74.138C3.257 75.0848 5.1318 75.7161 6.93716 76.3473C8.53421 76.9084 10.0618 77.5397 11.52 78.4865C11.8325 78.6619 12.0755 78.9074 12.2491 79.223C12.2838 79.4334 12.0061 79.714 11.7978 79.6789Z" fill="white"/>
<path d="M24.08 71.8234C23.837 74.3133 23.9758 77.2241 24.1494 79.6789C24.1841 79.9244 23.837 79.9595 23.6634 79.8542C23.1773 79.4685 22.9343 78.4515 22.8996 77.8202C22.7954 75.8564 22.7954 74.0328 22.8996 72.0689C20.3304 72.1741 17.5529 72.104 15.0184 72.3845C14.9143 74.7342 14.9837 76.9786 15.0879 79.223C15.1226 79.2931 14.9837 79.3984 14.8101 79.4334C14.706 79.4334 14.5324 79.3984 14.4282 79.2932C13.9769 78.8372 13.8727 77.9956 13.838 77.4345C13.6644 73.8925 13.9075 70.3505 14.2546 66.8787C14.3241 66.6683 14.6365 66.4578 14.9143 66.6332C15.2962 66.8085 15.2962 67.2644 15.3656 67.6151C15.2962 68.5269 15.192 70.07 15.0879 71.1571C17.6223 70.9818 20.4345 71.087 22.969 71.0519C23.1079 69.3335 23.1773 67.6151 23.5939 66.0019C23.7675 65.7915 24.1147 65.9318 24.323 66.1422C24.4966 66.3526 24.6008 66.7735 24.6008 67.0189C24.4272 68.3516 24.1841 69.6491 24.1494 71.0168C24.2536 71.0168 24.3577 70.9818 24.4619 70.9818C24.5313 70.9818 24.6355 71.0519 24.6355 71.2272C24.6355 71.2974 24.6355 71.4377 24.566 71.5078C24.4619 71.6481 24.2536 71.7533 24.08 71.8234Z" fill="white"/>
<path d="M34.5262 78.9074C32.9639 79.714 31.0891 80.0647 29.3879 79.223C28.0686 78.5567 27.1312 77.4345 26.6798 76.0317C26.159 74.3835 26.3326 72.5248 27.027 70.9818C27.5478 69.8595 28.3463 68.8776 29.2837 68.1412C29.9086 67.6853 30.846 67.1241 31.714 67.0189C32.4084 66.2123 33.5541 65.9669 34.5262 66.2124C36.1927 66.6683 37.6162 68.3866 38.0675 69.8946C38.5188 71.3675 38.623 72.9807 38.2064 74.4887C37.6856 76.5227 36.3663 77.9956 34.5262 78.9074ZM36.9218 70.2804C36.5052 69.1231 35.5678 67.8255 34.3526 67.4047C33.7971 67.1943 33.2069 67.1241 32.7556 67.4748C32.3042 67.8255 32.0265 68.3866 31.8182 68.8776C31.7834 68.9828 31.7834 69.1231 31.7834 69.2634C31.7834 69.4036 31.7834 69.579 31.7487 69.7193C31.714 69.7894 31.3668 69.9998 31.2627 69.7894C31.1932 69.4738 31.1238 68.8425 31.1585 68.3516C29.8392 68.9127 28.7282 70.07 28.1033 71.3675C27.4436 72.7352 27.4089 74.3133 27.8255 75.7161C28.1727 76.8032 28.8324 77.715 29.9434 78.1709C31.3321 78.697 32.825 78.5216 34.0749 77.8904C35.4983 77.1539 36.5052 76.0317 36.9912 74.5237C37.4426 73.1911 37.3731 71.613 36.9218 70.2804Z" fill="white"/>
<path d="M50.0025 78.5918C50.0025 78.8723 49.6901 78.9425 49.5165 78.9074C49.1346 78.7671 49.0651 78.1359 48.9957 77.7852C48.8915 77.1539 48.8915 76.5227 48.8915 75.8564V73.7171C48.8915 72.0689 49.0999 70.2804 49.1346 68.5971C48.9263 68.2814 48.5791 68.1061 48.2319 68.0359C47.85 67.9307 47.3986 67.8957 47.0167 67.7905C45.628 67.58 44.2393 67.3696 42.7811 67.4398C42.6075 68.9828 42.1909 70.4206 41.9826 71.9637C41.6701 74.2432 41.3923 76.3824 41.5312 78.8022C41.5312 79.0827 41.6007 79.5036 41.3229 79.714C41.184 79.8543 40.8021 79.8543 40.6285 79.6789C40.4549 79.4685 40.3855 79.223 40.3508 78.9775C40.3161 78.732 40.3508 78.4515 40.3161 78.1709C40.2813 74.4887 40.8716 71.0519 41.6007 67.4748C41.4271 67.5099 41.2535 67.545 41.0799 67.5099C40.7674 67.3346 40.8368 67.0189 40.9757 66.8787C41.1146 66.5981 41.3576 66.4929 41.6007 66.4228C41.8437 66.3526 42.1214 66.2825 42.3645 66.2825C44.7253 66.1071 47.2251 66.4578 49.3776 67.1592C49.7942 67.4047 50.3844 67.6853 50.4192 68.2464C50.1067 71.613 50.0373 75.0848 50.0025 78.5918Z" fill="white"/>
<path d="M64.2146 79.6789C62.5481 78.732 60.8469 78.0657 59.0763 77.4345C57.3404 76.8032 55.6739 76.172 54.0074 75.4355C53.9727 76.698 54.1463 77.9956 54.4587 79.1529C54.5629 79.3633 54.4934 79.749 54.181 79.749C53.9032 79.749 53.7296 79.5737 53.6255 79.3984C53.5213 79.2581 53.4519 79.0477 53.3477 78.8723C52.9658 77.6098 52.8269 76.2421 52.8269 74.8394C52.7228 74.7692 52.5839 74.664 52.5145 74.4887C52.4103 74.3835 52.3756 74.173 52.4798 73.9977C52.6186 73.8925 52.7575 73.6821 52.7922 73.5418C52.8617 73.0859 52.8269 72.0338 52.9311 71.5779C53.07 70.7713 53.2783 69.7894 53.4866 68.8075C53.7296 67.8255 54.0768 66.8436 54.5282 66.0019C54.7365 65.6512 55.2572 65.7214 55.3614 66.1071C55.3267 66.563 55.1878 66.9839 55.0489 67.4047C54.9448 67.7905 54.7365 68.2113 54.6323 68.6321C54.2851 69.8946 54.0768 71.1922 54.0421 72.5248C55.292 71.4026 56.5418 70.3505 57.8264 69.3686C59.4235 68.1762 61.1247 67.1592 62.93 66.4228C63.2078 66.4228 63.555 66.4228 63.7633 66.5981C63.9716 66.7384 63.9716 66.9488 63.8674 67.1943C62.0274 67.9658 60.3609 68.9828 58.6597 70.1752C57.0626 71.3324 55.4656 72.6651 53.9727 74.1029V74.138C55.6739 75.0848 57.5487 75.7161 59.354 76.3473C60.9511 76.9084 62.4787 77.5397 63.9369 78.4865C64.2494 78.6619 64.4924 78.9074 64.666 79.223C64.7007 79.4334 64.4229 79.714 64.2146 79.6789Z" fill="white"/>
<path d="M73.8583 76.8383C72.2265 80.4154 70.9419 84.0976 69.692 87.815C69.5879 88.0254 69.1018 88.0955 68.9977 87.815C68.8241 87.4993 68.9282 86.6577 68.9977 86.342C69.5532 83.9574 70.56 81.748 71.3932 79.4685C70.3864 77.9605 69.1018 75.8914 68.1297 74.1029C66.9145 71.8234 65.9077 69.4387 65.5258 66.8085C65.4564 66.4578 65.6647 66.1071 65.9424 65.9669C66.1507 65.8967 66.2896 66.0019 66.3938 66.1071C66.4979 66.2123 66.5674 66.3526 66.6368 66.4929C66.984 68.5971 67.6784 70.5609 68.5463 72.4196C69.5184 74.4185 70.6641 76.3123 71.9487 78.206C72.7473 76.4525 73.5805 74.6991 74.4832 72.9807C75.3859 71.2272 76.3927 69.5439 77.6078 67.8957C77.8509 67.58 78.1981 67.2294 78.5105 67.4047C78.7188 67.5099 78.8924 67.8255 78.7188 68.071C76.8788 70.9116 75.247 73.8224 73.8583 76.8383Z" fill="white"/>
<path d="M103.206 63.5857C102.963 63.9364 102.581 64.1468 102.164 64.217C101.123 64.3572 100.602 63.3753 100.567 62.4635C100.533 60.6399 101.505 58.0799 102.998 56.1861C103.171 56.0458 103.588 56.2913 103.449 56.5719C102.894 57.5889 101.852 60.2191 101.921 61.3764C102.234 61.3062 102.546 61.2361 102.824 61.2712C103.31 61.3413 103.553 61.692 103.623 62.1128C103.692 62.6388 103.484 63.1649 103.206 63.5857ZM98.9009 63.5857C98.6579 63.9364 98.276 64.1468 97.8594 64.217C96.8178 64.3572 96.297 63.3753 96.2623 62.4635C96.2276 60.6399 97.1997 58.0799 98.6926 56.1861C98.8662 56.0458 99.2828 56.2913 99.1439 56.5719C98.5884 57.5889 97.5469 60.2191 97.6163 61.3764C97.9288 61.3062 98.2413 61.2361 98.519 61.2712C99.0051 61.3413 99.2481 61.692 99.3175 62.1128C99.387 62.6388 99.1787 63.1649 98.9009 63.5857Z" fill="white"/>
<path d="M111.558 78.9074C109.996 79.714 108.121 80.0647 106.42 79.223C105.1 78.5567 104.163 77.4345 103.712 76.0317C103.191 74.3835 103.364 72.5248 104.059 70.9818C104.58 69.8595 105.378 68.8776 106.315 68.1412C106.94 67.6853 107.878 67.1241 108.746 67.0189C109.44 66.2123 110.586 65.9669 111.558 66.2124C113.224 66.6683 114.648 68.3866 115.099 69.8946C115.551 71.3675 115.655 72.9807 115.238 74.4887C114.717 76.5227 113.398 77.9956 111.558 78.9074ZM113.954 70.2804C113.537 69.1231 112.6 67.8255 111.384 67.4047C110.829 67.1943 110.239 67.1241 109.787 67.4748C109.336 67.8255 109.058 68.3866 108.85 68.8776C108.815 68.9828 108.815 69.1231 108.815 69.2634C108.815 69.4036 108.815 69.579 108.78 69.7193C108.746 69.7894 108.399 69.9998 108.294 69.7894C108.225 69.4738 108.156 68.8425 108.19 68.3516C106.871 68.9127 105.76 70.07 105.135 71.3675C104.475 72.7352 104.441 74.3133 104.857 75.7161C105.204 76.8032 105.864 77.715 106.975 78.1709C108.364 78.697 109.857 78.5216 111.107 77.8904C112.53 77.1539 113.537 76.0317 114.023 74.5237C114.474 73.1911 114.405 71.613 113.954 70.2804Z" fill="white"/>
<path d="M127.52 67.6502C126.618 67.4398 125.715 67.2294 124.778 67.1943C124.014 68.1762 123.632 69.3335 123.424 70.5609C123.181 71.8234 123.215 73.156 123.146 74.4536C123.076 76.2071 123.215 77.8904 123.424 79.5386C123.319 79.7491 123.007 79.8893 122.764 79.749C122.174 79.0126 122.035 78.0657 122 77.1189C121.965 75.0147 121.931 72.8054 122.243 70.7363C122.451 69.4036 122.833 68.1762 123.632 67.054C121.479 66.9488 119.5 67.4047 117.521 67.9658C117.244 67.9307 116.931 67.7554 116.758 67.4748C116.688 67.2294 116.827 67.0891 116.966 67.0189L117.174 66.9488L117.348 66.8787C118.806 66.2825 120.577 65.9669 122.278 65.9318C124.014 65.8617 125.75 66.037 127.277 66.5981C127.451 66.6683 127.763 66.9137 127.868 67.1242C127.902 67.3696 127.729 67.6853 127.52 67.6502Z" fill="white"/>
<path d="M139.172 78.5918C139.172 78.8723 138.86 78.9425 138.686 78.9074C138.304 78.7671 138.235 78.1359 138.165 77.7852C138.061 77.1539 138.061 76.5227 138.061 75.8564V73.7171C138.061 72.0689 138.27 70.2804 138.304 68.5971C138.096 68.2814 137.749 68.1061 137.402 68.0359C137.02 67.9307 136.568 67.8957 136.186 67.7905C134.798 67.58 133.409 67.3696 131.951 67.4398C131.777 68.9828 131.361 70.4206 131.152 71.9637C130.84 74.2432 130.562 76.3824 130.701 78.8022C130.701 79.0827 130.77 79.5036 130.493 79.714C130.354 79.8543 129.972 79.8543 129.798 79.6789C129.625 79.4685 129.555 79.223 129.52 78.9775C129.486 78.732 129.52 78.4515 129.486 78.1709C129.451 74.4887 130.041 71.0519 130.77 67.4748C130.597 67.5099 130.423 67.545 130.25 67.5099C129.937 67.3346 130.007 67.0189 130.145 66.8787C130.284 66.5981 130.527 66.4929 130.77 66.4228C131.013 66.3526 131.291 66.2825 131.534 66.2825C133.895 66.1071 136.395 66.4578 138.547 67.1592C138.964 67.4047 139.554 67.6853 139.589 68.2464C139.276 71.613 139.207 75.0848 139.172 78.5918Z" fill="white"/>
<path d="M143.385 67.6502H143.212C143.108 67.6502 142.969 67.58 142.934 67.4047C142.899 67.1241 143.004 66.8787 143.212 66.6683C143.767 66.1773 144.392 65.9669 145.087 66.0019C145.573 66.037 146.059 66.1071 146.545 66.2825L147.864 66.7384C149.739 67.3696 151.371 69.0529 152.273 70.8765C152.759 71.8936 152.933 72.9456 152.69 74.1029C152.447 75.155 151.822 76.1369 150.989 76.9435C148.906 78.9425 146.302 79.5386 143.42 79.5386C143.385 81.9233 143.247 84.5886 143.559 86.9382C143.559 87.0434 143.628 87.1837 143.698 87.2889C143.733 87.4643 143.802 87.6045 143.663 87.815C143.385 88.0254 143.108 87.9552 142.865 87.815C142.517 87.4292 142.379 87.0084 142.344 86.5174C142.101 84.0275 142.205 81.6077 142.344 79.0827C142.031 78.8022 141.545 78.4164 141.441 77.9956C141.441 77.8553 141.476 77.715 141.545 77.6449C141.649 77.4696 141.788 77.4345 141.858 77.5046C141.962 77.6098 142.17 77.7501 142.344 77.8553C142.552 74.3484 142.795 71.0168 143.385 67.6502ZM150.26 69.9297C149.496 68.9828 148.42 68.3165 147.378 67.8606C146.788 67.58 145.121 66.9488 144.496 67.2294C144.531 67.7203 144.462 68.5971 144.392 68.9828C143.906 71.9637 143.594 75.155 143.559 78.3112C145.955 78.4866 148.246 77.7501 150.086 76.1369C151.093 75.2602 151.683 74.0328 151.579 72.7703C151.51 71.7182 150.85 70.6661 150.26 69.9297Z" fill="white"/>
<path d="M160.861 79.6088C158.952 80.1348 156.73 80.0997 155.237 78.8022C154.542 78.206 154.021 77.3293 153.987 76.3824C153.952 75.5407 154.299 74.7692 154.785 74.0678C155.862 72.5248 157.736 71.4727 159.542 71.2623C160.306 71.1922 161 71.2974 161.555 71.8585C161.729 72.0338 161.555 72.3845 161.382 72.4547H161.069C160.965 72.4547 160.826 72.4196 160.722 72.4196C160.479 72.3845 160.271 72.3494 160.132 72.4547C158.465 72.5248 156.834 73.3314 155.827 74.6991C155.376 75.2953 155.132 75.7512 155.202 76.4876C155.271 77.4696 156 78.206 157.007 78.5567C158.431 79.0827 160.201 78.7671 161.555 78.2761C162.285 77.9956 162.944 77.715 163.569 77.2591C163.708 77.1539 163.847 77.2591 163.916 77.4345C163.951 77.5748 163.951 77.715 163.951 77.8202C163.465 78.7671 161.521 79.4334 160.861 79.6088ZM162.805 77.2241C162.632 77.4345 162.319 77.3994 162.18 77.2942C161.833 77.0487 161.833 76.5928 161.833 76.2421C161.868 75.646 161.972 75.0498 162.111 74.4185L162.562 72.4897C162.84 71.2272 163.014 69.9648 162.632 68.9127C162.319 68.0009 161.555 67.0891 160.618 66.9839C159.819 66.8787 159.021 67.1592 158.361 67.6502C158.014 67.8957 157.25 68.562 157.042 68.9477C157.007 69.088 157.077 69.3335 157.216 69.4738C157.354 69.6141 157.25 70.0349 156.938 69.9648C156.695 69.8946 156.417 69.8245 156.209 69.6491C155.931 69.4036 155.827 68.9477 156.035 68.5971C156.625 67.58 157.459 66.7384 158.535 66.2474C159.229 65.8967 160.063 65.7565 160.93 65.8967C161.972 66.0721 162.875 66.8436 163.395 67.8255C164.194 69.3335 164.09 71.2272 163.708 72.9106C163.361 74.3484 163.014 75.681 162.805 77.2241Z" fill="white"/>
<path d="M172.596 78.8022C171.555 79.5036 170.27 80.0647 168.985 80.0647C168.256 80.0647 167.736 79.7491 167.25 79.0477C167.076 79.1879 166.763 79.2931 166.625 79.0827C166 78.206 165.826 76.9786 165.791 75.7862C165.722 72.7352 165.757 70.4908 166.555 67.7554C166.625 67.4748 167.284 66.9488 167.77 67.0891C167.979 66.528 168.534 65.9318 169.194 65.8617C170.964 65.8617 172.874 66.8085 173.464 68.5971C173.638 69.1582 173.638 69.7543 173.429 70.3154C173.221 70.8415 172.874 71.2974 172.423 71.6481L172.214 71.8234C173.082 72.104 174.054 72.6651 174.61 73.5418C175.026 74.2081 175.061 75.0147 174.888 75.7862C174.575 77.0487 173.672 78.0657 172.596 78.8022ZM173.568 74.138C173.291 73.6119 172.527 73.2963 171.971 73.0158C171.312 72.5949 170.721 72.7703 170.062 72.9106L169.02 73.156C168.638 73.2612 168.256 73.2612 167.84 73.156C167.666 73.0508 167.458 72.7001 167.631 72.5248C168.048 72.104 168.569 71.8936 169.159 71.7533L170.756 71.5779C171.381 71.2272 172.041 70.5259 172.318 69.8595C172.492 69.2984 172.388 68.9127 172.041 68.4568C171.416 67.58 170.409 67.1943 169.402 67.0891C169.09 67.054 168.985 67.1242 168.916 67.3346C168.812 67.6151 168.742 67.9307 168.569 68.1762C168.499 68.3516 168.256 68.4217 168.083 68.3165C167.944 68.2814 167.84 68.2113 167.77 68.1412C167.354 69.6491 167.111 71.3675 167.041 73.156C166.972 74.8394 167.041 76.4876 167.284 78.0307C167.562 77.715 167.909 77.2591 168.083 77.0136C168.326 76.7682 168.777 77.1539 168.708 77.3994C168.638 77.5748 168.499 77.7852 168.395 77.9605C168.326 78.1709 168.222 78.3463 168.222 78.4865C168.43 78.8022 168.916 78.9074 169.506 78.8372C170.374 78.697 171.416 78.206 172.18 77.6098C172.874 77.0487 173.464 76.3473 173.638 75.4706C173.742 75.0498 173.811 74.5588 173.568 74.138Z" fill="white"/>
<path d="M187.406 79.714C186.677 78.8723 186.469 77.7501 186.295 76.663C185.948 74.138 186.017 71.4377 185.948 68.8075C183.83 71.8585 182.164 74.9446 180.15 78.4164C179.942 78.6619 179.837 78.8372 179.49 78.9775C179.178 78.9775 178.9 78.9425 178.657 78.5918C176.991 75.4706 176.678 71.6481 176.921 67.8606C176.921 67.6151 176.991 67.1943 177.268 67.0891C177.72 66.9488 178.067 67.3346 178.067 67.6151C177.858 71.122 178.24 74.4536 179.386 77.4696C180.601 75.3654 181.573 73.6119 182.615 71.8936C183.691 70.105 184.837 68.3866 186.295 66.4228C186.573 66.2123 186.955 66.3526 187.094 66.6332C187.198 69.9998 187.163 73.2963 187.441 76.5227C187.51 77.5748 187.753 78.5918 187.823 79.5737C187.823 79.714 187.51 79.8543 187.406 79.714Z" fill="white"/>
<path d="M200.178 67.6502C199.276 67.4398 198.373 67.2294 197.436 67.1943C196.672 68.1762 196.29 69.3335 196.082 70.5609C195.839 71.8234 195.873 73.156 195.804 74.4536C195.734 76.2071 195.873 77.8904 196.082 79.5386C195.977 79.7491 195.665 79.8893 195.422 79.749C194.832 79.0126 194.693 78.0657 194.658 77.1189C194.623 75.0147 194.589 72.8054 194.901 70.7363C195.11 69.4036 195.491 68.1762 196.29 67.054C194.137 66.9488 192.158 67.4047 190.179 67.9658C189.902 67.9307 189.589 67.7554 189.416 67.4748C189.346 67.2294 189.485 67.0891 189.624 67.0189L189.832 66.9488L190.006 66.8787C191.464 66.2825 193.235 65.9669 194.936 65.9318C196.672 65.8617 198.408 66.037 199.935 66.5981C200.109 66.6683 200.421 66.9137 200.526 67.1242C200.56 67.3696 200.387 67.6853 200.178 67.6502Z" fill="white"/>
<path d="M209.122 77.3994C208.358 78.1709 207.456 78.8372 206.449 79.2581C205.581 79.6088 204.574 79.714 203.533 79.3984C203.498 79.5737 203.359 79.7841 203.185 79.7841C202.63 79.5737 202.422 79.0477 202.317 78.5918C202.074 74.3484 202.526 70.1752 203.255 66.2124C203.428 65.8266 204.123 65.6162 204.331 66.1773C204.123 68.2113 203.741 70.2453 203.637 72.2793C204.852 71.3324 206.414 70.8765 207.942 71.2272C208.949 71.4727 209.956 72.3845 210.268 73.4015C210.754 74.8744 210.233 76.3473 209.122 77.3994ZM207.664 72.4547C206.102 72.0689 204.644 72.7703 203.533 73.9626C203.533 75.2602 203.533 77.2241 203.498 78.3112C204.401 78.5216 205.303 78.4164 206.102 78.0657C207.143 77.6449 208.081 76.8383 208.81 75.8914C209.331 75.2251 209.365 74.173 208.949 73.4366C208.706 72.9456 208.15 72.5599 207.664 72.4547Z" fill="white"/>
<path d="M218.524 62.6515C218.351 62.7917 217.969 62.5462 218.003 62.3008C218.628 61.2487 219.67 58.6185 219.566 57.4963C219.288 57.5314 218.976 57.6015 218.698 57.5664C218.212 57.4963 217.969 57.1456 217.899 56.7248C217.83 56.2338 218.073 55.6727 218.316 55.2869C218.524 54.9012 218.941 54.6557 219.357 54.6206C220.399 54.5154 220.92 55.4623 220.954 56.3741C220.989 58.1977 220.017 60.7577 218.524 62.6515ZM214.219 62.6515C214.046 62.7917 213.664 62.5462 213.698 62.3008C214.323 61.2487 215.365 58.6185 215.261 57.4963C214.983 57.5314 214.67 57.6015 214.393 57.5664C213.907 57.4963 213.664 57.1456 213.594 56.7248C213.525 56.2338 213.768 55.6727 214.011 55.2869C214.219 54.9012 214.636 54.6557 215.052 54.6206C216.094 54.5154 216.615 55.4623 216.649 56.3741C216.684 58.1977 215.712 60.7577 214.219 62.6515Z" fill="white"/>
</svg>
