<svg width="236" height="31" fill="none" xmlns="http://www.w3.org/2000/svg"><path d="M5.149 3.841a1.288 1.288 0 0 1-.33.287c-.182.018-.328 0-.456-.072a7.604 7.604 0 0 1-1.188-.7c-.019.575-.074 1.167 0 1.723-.037.287-.366.162-.403.09a.322.322 0 0 1-.091-.126.39.39 0 0 1-.091-.143c-.037-.162-.037-.323-.037-.467.018-.305.037-.628.037-.933-.42.395-.933.736-1.481.933-.128.018-.33.018-.475-.107-.22-.18-.019-.485.237-.646L1 3.913c.128-.036.256-.126.384-.18a5.178 5.178 0 0 0 1.079-.915c-.585-.466-1.17-1.04-1.664-1.56C.67 1.148.725.987.78.897.944.683 1.2.826 1.255.88c.42.449.86.88 1.316 1.292 0-.484.019-.969-.018-1.417L2.407.342c-.019-.108.055-.359.292-.341.165.054.256.18.33.323l.054.126c.055.125.092.358.092.484v.987l.054-.09.384-.502c.128-.18.311-.323.53-.449.293-.161.841 0 .677.539-.128-.018-.165-.036-.22-.054-.036 0-.073-.018-.146-.036-.11-.036-.475.448-.53.52-.22.287-.402.592-.64.897.439.323.914.61 1.444.862a.243.243 0 0 1 .11-.09c.037-.036.073-.054.201-.108.146.144.165.252.146.323-.018.036-.036.054-.036.108zM12.2 11.504c0 .143-.165.18-.257.161-.2-.072-.237-.395-.274-.574-.055-.323-.055-.646-.055-.987V9.009c0-.843.11-1.758.128-2.62a.735.735 0 0 0-.475-.287c-.201-.054-.439-.072-.64-.125-.731-.108-1.462-.216-2.23-.18-.092.79-.311 1.525-.42 2.315-.165 1.166-.311 2.261-.238 3.5 0 .143.036.358-.11.466-.073.072-.274.072-.366-.018a.686.686 0 0 1-.146-.359c-.018-.126 0-.27-.018-.413-.018-1.884.292-3.643.676-5.473a.71.71 0 0 1-.274.018c-.164-.09-.128-.251-.055-.323.073-.144.201-.197.33-.233.127-.036.273-.072.401-.072 1.244-.09 2.56.09 3.693.449.22.125.53.269.549.556-.165 1.723-.202 3.5-.22 5.294zM17.672 11.665c-.823.413-1.81.592-2.706.162a2.757 2.757 0 0 1-1.426-1.633c-.274-.844-.183-1.795.183-2.584a4.04 4.04 0 0 1 1.188-1.454c.33-.233.823-.52 1.28-.574.365-.413.969-.539 1.48-.413.878.233 1.628 1.113 1.865 1.884.238.754.293 1.58.073 2.351-.274 1.04-.969 1.794-1.938 2.261zm1.26-4.414c-.218-.593-.712-1.256-1.352-1.472-.292-.107-.603-.143-.84.036-.238.18-.385.467-.494.718-.019.054-.019.125-.019.197 0 .072 0 .162-.018.234-.018.035-.201.143-.256.035a2.943 2.943 0 0 1-.055-.735c-.694.287-1.28.879-1.608 1.543-.348.7-.366 1.507-.147 2.225.183.556.53 1.023 1.115 1.256.732.27 1.518.18 2.176-.143.75-.377 1.28-.951 1.535-1.723.238-.682.202-1.49-.036-2.171zM23.81 12.024c-.695.09-1.426.036-2.121-.377-.914-.538-1.316-1.471-1.261-2.512.055-.808.31-1.561.767-2.243a4.574 4.574 0 0 1 1.865-1.597c.402-.198.95-.287 1.39-.108.365.144.749.52.822.88.037.107-.146.34-.292.233-.202-.18-.457-.413-.713-.52a.952.952 0 0 0-.768-.019c-.713.287-1.371.844-1.81 1.508a3.948 3.948 0 0 0-.658 2.063c0 .664.256 1.292.823 1.705.53.377 1.224.467 1.864.413 1.079-.09 2.03-.539 2.98-.951.11 0 .274.18.183.305-.914.502-1.956 1.059-3.071 1.22zM33.405 11.863c-.238.017-.402-.234-.512-.413-.402-.7-.731-1.436-.969-2.207-.31-.952-.475-1.92-.548-2.961-.549.825-1.463 2.332-2.03 3.14a34.607 34.607 0 0 0-1.645 2.638c-.055.125-.256.036-.329-.072-.091-.161-.055-.377-.018-.538.11-.162.31-.574.42-.808 1.189-1.776 2.432-3.589 3.528-5.365.128-.126.567-.198.604.143.091 1.095.256 2.19.512 3.23.256 1.041.64 2.01 1.133 2.943.018.054 0 .252-.146.27zM37.008 12.096c-.914-.036-1.755-.449-2.285-1.22-.439-.646-.548-1.4-.457-2.136.11-.825.457-1.615.932-2.225.53-.682 1.28-1.22 2.14-1.382.584-.108 1.206-.054 1.645.413.2.215.383.449.383.736.019.305-.127.574-.383.771-1.28 1.041-2.633 2.01-4.022 2.8.036.556.53 1.13 1.06 1.417.53.287 1.152.323 1.737.252a5.113 5.113 0 0 0 1.608-.45c.074-.053.128 0 .147.055.018.036.055.107-.019.161-.64.575-1.553.844-2.486.808zm.805-6.407c-.53 0-1.06.216-1.481.539a3.9 3.9 0 0 0-1.426 2.979c1.298-.7 2.523-1.615 3.71-2.566.092-.072.165-.341.038-.557-.147-.287-.476-.395-.841-.395zM48.532 11.575c-.694.341-1.462.539-2.285.629-.237.035-.603.053-.822-.144-.238-.162-.201-.52-.147-.7.037-.09.238-.162.293-.036 0 .018.018.054.018.09.037.09.092.197.201.233.823-.036 1.59-.197 2.285-.538.731-.341 1.189-.7 1.7-1.346.147-.18.183-.395.092-.556-.11-.252-.384-.503-.64-.628-.31-.144-.695-.198-1.115-.216-.366 0-.768.018-1.17.036-.11 0-.201-.108-.22-.197a.278.278 0 0 1 .092-.27l.183-.125c.237-.072.493-.072.713-.054.237.018.457.054.676.036.22 0 .457-.09.622-.305l.347-.359c.091-.126.146-.251.091-.395-.347-.43-.767-.664-1.243-.843-.548-.198-1.17-.27-1.81-.323-.127-.072-.164-.305-.054-.413.2-.161.438-.18.658-.161.493.035 1.151.18 1.572.358.603.252 1.115.61 1.462 1.185.165.359 0 .736-.237.969-.183.197-.402.34-.622.484.384.162.896.395 1.152.754.31.395.274.88.055 1.274-.33.646-1.207 1.238-1.847 1.561zM54.932 12.024c-1.005.27-2.175.251-2.962-.413-.365-.305-.64-.753-.658-1.238-.018-.43.165-.825.42-1.184.568-.79 1.555-1.328 2.505-1.436.402-.036.768.018 1.06.305.092.09 0 .27-.09.305h-.165c-.055 0-.128-.018-.183-.018-.128-.018-.238-.036-.31.018-.878.036-1.738.449-2.268 1.149-.237.305-.365.538-.329.915.037.502.42.88.95 1.059.75.269 1.683.107 2.396-.144.383-.144.73-.287 1.06-.52.073-.054.146 0 .183.09a.79.79 0 0 1 .018.197c-.256.484-1.28.825-1.627.915zm1.024-1.22c-.092.107-.256.09-.33.036-.182-.126-.182-.36-.182-.539.018-.305.073-.61.146-.933l.238-.987c.146-.646.237-1.292.036-1.83-.164-.467-.566-.933-1.06-.987-.42-.054-.84.09-1.188.34-.183.126-.585.467-.695.665-.018.072.018.197.092.269.073.072.018.287-.147.251-.128-.036-.274-.072-.384-.161a.43.43 0 0 1-.091-.539c.31-.52.75-.95 1.316-1.202.366-.18.804-.251 1.262-.18.548.09 1.023.485 1.297.988.42.771.366 1.74.165 2.602-.183.735-.366 1.417-.475 2.207zM62.775 11.504c0 .143-.165.18-.256.161-.201-.072-.238-.395-.275-.574-.054-.323-.054-.646-.054-.987V9.009c0-.843.11-1.758.128-2.62a.735.735 0 0 0-.476-.287c-.2-.054-.438-.072-.64-.125-.73-.108-1.462-.216-2.23-.18-.091.79-.31 1.525-.42 2.315-.165 1.166-.311 2.261-.238 3.5 0 .143.037.358-.11.466-.073.072-.274.072-.365-.018a.686.686 0 0 1-.146-.359c-.019-.126 0-.27-.019-.413-.018-1.884.293-3.643.677-5.473a.71.71 0 0 1-.275.018c-.164-.09-.128-.251-.054-.323.073-.144.2-.197.329-.233.128-.036.274-.072.402-.072 1.243-.09 2.56.09 3.693.449.219.125.53.269.548.556-.165 1.723-.201 3.5-.22 5.294zM68.247 11.665c-.823.413-1.81.592-2.706.162a2.756 2.756 0 0 1-1.425-1.633c-.275-.844-.183-1.795.182-2.584a4.04 4.04 0 0 1 1.189-1.454c.329-.233.822-.52 1.28-.574.365-.413.968-.539 1.48-.413.877.233 1.627 1.113 1.865 1.884.237.754.292 1.58.073 2.351-.275 1.04-.97 1.794-1.938 2.261zm1.261-4.414c-.22-.593-.713-1.256-1.352-1.472-.293-.107-.604-.143-.841.036-.238.18-.384.467-.494.718-.018.054-.018.125-.018.197 0 .072 0 .162-.019.234-.018.035-.2.143-.256.035a2.949 2.949 0 0 1-.054-.735c-.695.287-1.28.879-1.609 1.543-.347.7-.366 1.507-.146 2.225.183.556.53 1.023 1.115 1.256.731.27 1.517.18 2.175-.143.75-.377 1.28-.951 1.536-1.723.237-.682.2-1.49-.037-2.171zM77.036 11.863c-.238.017-.403-.234-.512-.413a10.82 10.82 0 0 1-.97-2.207c-.31-.952-.474-1.92-.547-2.961-.549.825-1.463 2.332-2.03 3.14a34.607 34.607 0 0 0-1.645 2.638c-.055.125-.256.036-.329-.072-.091-.161-.055-.377-.018-.538.11-.162.31-.574.42-.808 1.188-1.776 2.431-3.589 3.528-5.365.128-.126.567-.198.604.143a20.88 20.88 0 0 0 .511 3.23c.256 1.041.64 2.01 1.134 2.943.018.054 0 .252-.146.27zM83.49 8.04c-.127 1.274-.054 2.764.037 4.02.019.125-.164.143-.255.09-.257-.198-.384-.718-.403-1.041a26.362 26.362 0 0 1 0-2.943c-1.353.054-2.815.018-4.15.161-.054 1.203-.018 2.351.037 3.5.018.036-.055.09-.146.107a.309.309 0 0 1-.201-.071c-.238-.234-.293-.665-.311-.952-.091-1.812.037-3.624.22-5.401.036-.108.2-.215.347-.126.2.09.2.323.237.503-.036.466-.091 1.256-.146 1.812 1.335-.09 2.815-.036 4.15-.054.073-.879.11-1.758.329-2.584.091-.107.274-.036.384.072.091.108.146.323.146.449-.091.682-.22 1.346-.238 2.046.055 0 .11-.018.165-.018.037 0 .091.035.091.125 0 .036 0 .108-.036.144-.055.072-.165.125-.256.161zM87.584 12.096c-.915-.036-1.755-.449-2.285-1.22-.44-.646-.549-1.4-.458-2.136.11-.825.458-1.615.933-2.225.53-.682 1.28-1.22 2.139-1.382.585-.108 1.206-.054 1.645.413.201.215.384.449.384.736.018.305-.128.574-.384.771-1.28 1.041-2.633 2.01-4.022 2.8.037.556.53 1.13 1.06 1.417.53.287 1.152.323 1.737.252a5.114 5.114 0 0 0 1.609-.45c.073-.053.128 0 .146.055.018.036.055.107-.018.161-.64.575-1.554.844-2.486.808zm.804-6.407c-.53 0-1.06.216-1.48.539a3.899 3.899 0 0 0-1.427 2.979c1.298-.7 2.523-1.615 3.711-2.566.092-.072.165-.341.037-.557-.146-.287-.475-.395-.841-.395zM96.47 8.04c-.129 1.274-.055 2.764.036 4.02.018.125-.165.143-.256.09-.256-.198-.384-.718-.402-1.041a26.314 26.314 0 0 1 0-2.943c-1.353.054-2.815.018-4.15.161-.055 1.203-.018 2.351.037 3.5.018.036-.055.09-.147.107a.308.308 0 0 1-.2-.071c-.238-.234-.293-.665-.311-.952-.092-1.812.036-3.624.219-5.401.036-.108.201-.215.347-.126.201.09.201.323.238.503-.037.466-.091 1.256-.146 1.812 1.334-.09 2.815-.036 4.15-.054.073-.879.11-1.758.328-2.584.092-.107.275-.036.384.072.092.108.147.323.147.449-.092.682-.22 1.346-.238 2.046.055 0 .11-.018.165-.018.036 0 .09.035.09.125 0 .036 0 .108-.036.144-.054.072-.164.125-.256.161zM103.56 12.078c-.384-.43-.493-1.005-.585-1.561-.183-1.292-.146-2.674-.183-4.02-1.115 1.561-1.992 3.14-3.052 4.917-.11.126-.165.215-.348.287-.164 0-.31-.018-.439-.197-.877-1.598-1.042-3.553-.914-5.492 0-.125.037-.34.183-.394.238-.072.42.125.42.269-.109 1.794.092 3.5.695 5.042.64-1.076 1.152-1.974 1.7-2.853a33.802 33.802 0 0 1 1.938-2.8c.146-.107.348-.035.421.108.054 1.723.036 3.41.182 5.06.037.54.165 1.06.202 1.562 0 .072-.165.144-.22.072zM109.316 6.03c.11 1.813.055 3.75-.146 5.545-.036.072-.073.18-.109.305-.055.108-.092.216-.183.323-.037.072-.275.108-.329-.018.036-.412.237-2.584.182-3.517-1.334.754-2.577 2.082-3.509 3.32-.092.09-.311.09-.348-.09 0-.323.128-.574.311-.825.183-.233.402-.449.567-.7.457-.538.987-.987 1.535-1.418-.438.036-.895 0-1.334-.197-.494-.215-.823-.628-.896-1.166-.055-.323 0-.664.165-.916a3.858 3.858 0 0 1 1.261-1.22c.585-.34 1.225-.52 1.938-.466.384.125.822.25 1.005.646.037.125.037.287-.11.394zm-.603.772c0-.395-.018-.772-.073-1.13-.329-.126-.603-.162-.969-.054-.384.107-.841.287-1.206.556-.439.323-.768.736-.786 1.274.036.233.128.467.329.646.256.162.585.251.877.27.658.053 1.335-.144 1.846-.396-.018-.376-.018-.771-.018-1.166zM120.973 11.504c0 .143-.165.18-.256.161-.201-.072-.238-.395-.274-.574-.055-.323-.055-.646-.055-.987V9.009c0-.843.11-1.758.128-2.62a.736.736 0 0 0-.476-.287c-.201-.054-.438-.072-.639-.125-.732-.108-1.463-.216-2.231-.18-.091.79-.31 1.525-.42 2.315-.165 1.166-.311 2.261-.238 3.5 0 .143.037.358-.109.466-.073.072-.275.072-.366-.018a.687.687 0 0 1-.146-.359c-.019-.126 0-.27-.019-.413-.018-1.884.293-3.643.677-5.473-.092.018-.183.036-.274.018-.165-.09-.128-.251-.055-.323.073-.144.201-.197.329-.233a1.58 1.58 0 0 1 .402-.072c1.243-.09 2.559.09 3.693.449.219.125.53.269.548.556-.164 1.723-.201 3.5-.219 5.294zM126.445 11.665c-.822.413-1.81.592-2.705.162a2.754 2.754 0 0 1-1.426-1.633c-.274-.844-.183-1.795.183-2.584a4.034 4.034 0 0 1 1.188-1.454c.329-.233.822-.52 1.279-.574.366-.413.969-.539 1.481-.413.878.233 1.627 1.113 1.865 1.884.237.754.292 1.58.073 2.351-.274 1.04-.969 1.794-1.938 2.261zm1.262-4.414c-.22-.593-.713-1.256-1.353-1.472-.293-.107-.604-.143-.841.036-.238.18-.384.467-.494.718-.018.054-.018.125-.018.197 0 .072 0 .162-.018.234-.019.035-.201.143-.256.035a2.938 2.938 0 0 1-.055-.735c-.695.287-1.28.879-1.609 1.543-.347.7-.365 1.507-.146 2.225.183.556.53 1.023 1.115 1.256.731.27 1.517.18 2.175-.143.75-.377 1.28-.951 1.536-1.723.238-.682.201-1.49-.036-2.171zM135.234 11.863c-.238.017-.402-.234-.512-.413-.402-.7-.731-1.436-.969-2.207-.311-.952-.475-1.92-.548-2.961-.549.825-1.463 2.332-2.029 3.14a34.842 34.842 0 0 0-1.646 2.638c-.055.125-.256.036-.329-.072-.091-.161-.055-.377-.018-.538.11-.162.311-.574.42-.808 1.189-1.776 2.432-3.589 3.529-5.365.128-.126.566-.198.603.143.091 1.095.256 2.19.512 3.23.256 1.041.64 2.01 1.133 2.943.018.054 0 .252-.146.27zM138.837 12.096c-.914-.036-1.755-.449-2.285-1.22-.439-.646-.548-1.4-.457-2.136a4.69 4.69 0 0 1 .933-2.225c.53-.682 1.279-1.22 2.138-1.382.585-.108 1.207-.054 1.646.413.201.215.384.449.384.736.018.305-.128.574-.384.771-1.28 1.041-2.633 2.01-4.022 2.8.036.556.53 1.13 1.06 1.417.53.287 1.152.323 1.737.252a5.12 5.12 0 0 0 1.609-.45c.073-.053.127 0 .146.055.018.036.055.107-.019.161-.639.575-1.553.844-2.486.808zm.805-6.407c-.53 0-1.061.216-1.481.539a3.898 3.898 0 0 0-1.426 2.979c1.298-.7 2.523-1.615 3.711-2.566.091-.072.165-.341.037-.557-.147-.287-.476-.395-.841-.395zM146.297 2.585c-.036-.09-.091-.197-.128-.287-.018-.126.073-.162.128-.162.073 0 .146.036.201.054.165.126.293.323.384.52.073.18.055.431-.055.575a1.724 1.724 0 0 1-.457.43 4.311 4.311 0 0 1-.895.377c-.311.09-.988.108-1.298.018-.421-.107-.677-.305-.805-.592-.091-.215-.128-.466-.091-.736.018-.233.091-.466.201-.646a.16.16 0 0 1 .128-.071c.037-.018.073-.018.128-.036.091.071.201.143.201.269 0 .125-.018.269-.037.413-.036.161-.054.305 0 .412 0 .252.165.377.403.449.31.09.749.054 1.133-.054.293-.09.567-.215.75-.377.109-.09.164-.18.164-.269.018-.09-.018-.18-.055-.287zm1.572 9.493c-.383-.43-.493-1.005-.585-1.561-.182-1.292-.146-2.674-.182-4.02-1.116 1.561-1.993 3.14-3.053 4.917-.11.126-.165.215-.348.287-.164 0-.31-.018-.438-.197-.878-1.598-1.042-3.553-.914-5.492 0-.125.036-.34.182-.394.238-.072.421.125.421.269-.11 1.794.091 3.5.695 5.042.639-1.076 1.151-1.974 1.7-2.853a33.777 33.777 0 0 1 1.937-2.8c.147-.107.348-.035.421.108.055 1.723.036 3.41.183 5.06.036.54.164 1.06.201 1.562 0 .072-.165.144-.22.072zM159.756 8.04c-.128 1.274-.055 2.764.036 4.02.018.125-.164.143-.256.09-.256-.198-.384-.718-.402-1.041a26.266 26.266 0 0 1 0-2.943c-1.353.054-2.815.018-4.15.161-.055 1.203-.018 2.351.037 3.5.018.036-.055.09-.146.107a.306.306 0 0 1-.201-.071c-.238-.234-.293-.665-.311-.952-.092-1.812.036-3.624.219-5.401.037-.108.201-.215.347-.126.202.09.202.323.238.503-.036.466-.091 1.256-.146 1.812 1.334-.09 2.815-.036 4.15-.054.073-.879.109-1.758.329-2.584.091-.107.274-.036.384.072.091.108.146.323.146.449-.092.682-.22 1.346-.238 2.046.055 0 .11-.018.165-.018.036 0 .091.035.091.125 0 .036 0 .108-.037.144-.054.072-.164.125-.255.161zM165.311 10.606c-.859 1.83-1.536 3.715-2.194 5.617-.055.108-.311.144-.366 0-.091-.161-.036-.592 0-.754.293-1.22.823-2.35 1.262-3.517a38.245 38.245 0 0 1-1.719-2.745c-.639-1.167-1.17-2.387-1.371-3.733a.407.407 0 0 1 .22-.43c.109-.036.183.017.237.071a.723.723 0 0 1 .128.198c.183 1.076.549 2.081 1.006 3.032.512 1.023 1.115 1.992 1.791 2.961.421-.897.859-1.794 1.335-2.674a18.806 18.806 0 0 1 1.645-2.602c.128-.161.311-.34.475-.25.11.053.201.215.11.34a35.441 35.441 0 0 0-2.559 4.486zM172.754 8.381c0 .054 0 .144-.018.216.658.412 1.261.933 1.846 1.507.585.556 1.17 1.166 1.755 1.723.091.071-.055.197-.11.197-.292-.108-.512-.27-.768-.449-.201-.161-.42-.358-.658-.52a30.877 30.877 0 0 0-2.047-1.74c-.037.933.073 1.812.183 2.727-.037.143-.201.162-.311.108-.128-.198-.183-.413-.238-.629l-.109-.663c-.11-.664-.11-1.274-.11-1.992l-.073-.054c-.896.61-1.865 1.364-2.724 2.028a.562.562 0 0 0-.146.036c-.055 0-.128 0-.165-.054-.073-.054-.055-.126-.036-.18a.696.696 0 0 1 .091-.161 27.698 27.698 0 0 1 2.486-1.974c-.877-.61-1.81-1.149-2.742-1.651-.183-.126-.42-.323-.366-.61.074-.144.293-.108.384-.054 1.134.592 2.231 1.202 3.254 1.956l.055-.036c.018-.951.073-2.046.384-2.997.146-.215.402-.018.439.144.036.825-.183 1.597-.201 2.422 1.188-.717 2.413-1.49 3.674-2.171a.466.466 0 0 1 .347.018c.092.054.183.233.092.377-1.371.825-2.797 1.597-4.168 2.476zM183.338 8.04c-.128 1.274-.055 2.764.037 4.02.018.125-.165.143-.256.09-.256-.198-.384-.718-.402-1.041a26.266 26.266 0 0 1 0-2.943c-1.353.054-2.815.018-4.15.161-.055 1.203-.018 2.351.037 3.5.018.036-.055.09-.147.107a.31.31 0 0 1-.201-.071c-.237-.234-.292-.665-.31-.952-.092-1.812.036-3.624.219-5.401.036-.108.201-.215.347-.126.201.09.201.323.238.503-.037.466-.092 1.256-.146 1.812 1.334-.09 2.815-.036 4.149-.054.073-.879.11-1.758.329-2.584.092-.107.275-.036.384.072.092.108.147.323.147.449-.092.682-.22 1.346-.238 2.046.055 0 .11-.018.164-.018.037 0 .092.035.092.125 0 .036 0 .108-.037.144a.618.618 0 0 1-.256.161zM188.839 11.665c-.823.413-1.81.592-2.706.162a2.757 2.757 0 0 1-1.426-1.633c-.274-.844-.183-1.795.183-2.584a4.044 4.044 0 0 1 1.188-1.454c.329-.233.823-.52 1.28-.574.366-.413.969-.539 1.481-.413.877.233 1.627 1.113 1.864 1.884.238.754.293 1.58.073 2.351-.274 1.04-.968 1.794-1.937 2.261zm1.261-4.414c-.219-.593-.713-1.256-1.353-1.472-.292-.107-.603-.143-.841.036-.237.18-.384.467-.493.718-.018.054-.018.125-.018.197 0 .072 0 .162-.019.234-.018.035-.201.143-.256.035a2.986 2.986 0 0 1-.055-.735c-.694.287-1.279.879-1.608 1.543-.348.7-.366 1.507-.146 2.225.182.556.53 1.023 1.115 1.256.731.27 1.517.18 2.175-.143.75-.377 1.28-.951 1.536-1.723.237-.682.201-1.49-.037-2.171zM202.405 8.04c-.128 1.274-.055 2.764.036 4.02.018.125-.164.143-.256.09-.256-.198-.384-.718-.402-1.041a26.266 26.266 0 0 1 0-2.943c-1.353.054-2.815.018-4.15.161-.055 1.203-.018 2.351.037 3.5.018.036-.055.09-.146.107a.31.31 0 0 1-.202-.071c-.237-.234-.292-.665-.31-.952-.092-1.812.036-3.624.219-5.401.037-.108.201-.215.347-.126.202.09.201.323.238.503-.037.466-.091 1.256-.146 1.812 1.334-.09 2.815-.036 4.15-.054.073-.879.109-1.758.329-2.584.091-.107.274-.036.383.072.092.108.147.323.147.449-.092.682-.22 1.346-.238 2.046.055 0 .11-.018.165-.018.036 0 .091.035.091.125 0 .036 0 .108-.037.144-.054.072-.164.125-.255.161zM207.265 12.024c-1.005.27-2.175.251-2.961-.413-.366-.305-.64-.753-.659-1.238-.018-.43.165-.825.421-1.184.567-.79 1.554-1.328 2.504-1.436.403-.036.768.018 1.061.305.091.09 0 .27-.092.305h-.164c-.055 0-.128-.018-.183-.018-.128-.018-.238-.036-.311.018-.877.036-1.737.449-2.267 1.149-.237.305-.365.538-.329.915.037.502.421.88.951 1.059.749.269 1.682.107 2.395-.144.384-.144.731-.287 1.06-.52.073-.054.146 0 .183.09a.803.803 0 0 1 .018.197c-.256.484-1.28.825-1.627.915zm1.024-1.22c-.092.107-.256.09-.329.036-.183-.126-.183-.36-.183-.539.018-.305.073-.61.146-.933l.238-.987c.146-.646.237-1.292.036-1.83-.164-.467-.566-.933-1.06-.987-.42-.054-.841.09-1.188.34-.183.126-.585.467-.695.665-.018.072.018.197.092.269.073.072.018.287-.147.251-.128-.036-.274-.072-.384-.161a.43.43 0 0 1-.091-.539c.311-.52.75-.95 1.316-1.202.366-.18.805-.251 1.262-.18.548.09 1.023.485 1.298.988.42.771.365 1.74.164 2.602-.183.735-.366 1.417-.475 2.207zM213.992 8.381c0 .054 0 .144-.018.216.658.412 1.262.933 1.847 1.507.585.556 1.169 1.166 1.754 1.723.092.071-.054.197-.109.197-.293-.108-.512-.27-.768-.449-.201-.161-.42-.358-.658-.52a30.638 30.638 0 0 0-2.048-1.74c-.036.933.074 1.812.183 2.727-.036.143-.201.162-.31.108-.128-.198-.183-.413-.238-.629-.037-.215-.073-.448-.11-.663-.11-.664-.11-1.274-.11-1.992l-.073-.054c-.895.61-1.864 1.364-2.723 2.028-.037 0-.092.018-.147.036-.055 0-.128 0-.164-.054-.073-.054-.055-.126-.037-.18.018-.054.055-.107.092-.161a27.698 27.698 0 0 1 2.486-1.974c-.878-.61-1.81-1.149-2.742-1.651-.183-.126-.421-.323-.366-.61.073-.144.293-.108.384-.054 1.133.592 2.23 1.202 3.254 1.956l.055-.036c.018-.951.073-2.046.384-2.997.146-.215.402-.018.438.144.037.825-.182 1.597-.201 2.422 1.189-.717 2.413-1.49 3.675-2.171a.466.466 0 0 1 .347.018c.091.054.183.233.091.377-1.371.825-2.796 1.597-4.168 2.476zM222.493 12.024c-1.005.27-2.175.251-2.961-.413-.366-.305-.64-.753-.659-1.238-.018-.43.165-.825.421-1.184.567-.79 1.554-1.328 2.504-1.436.402-.036.768.018 1.061.305.091.09 0 .27-.092.305h-.164c-.055 0-.128-.018-.183-.018-.128-.018-.238-.036-.311.018-.877.036-1.737.449-2.267 1.149-.237.305-.365.538-.329.915.037.502.421.88.951 1.059.749.269 1.682.107 2.395-.144.383-.144.731-.287 1.06-.52.073-.054.146 0 .183.09a.803.803 0 0 1 .018.197c-.256.484-1.28.825-1.627.915zm1.024-1.22c-.092.107-.256.09-.329.036-.183-.126-.183-.36-.183-.539.018-.305.073-.61.146-.933l.238-.987c.146-.646.237-1.292.036-1.83-.164-.467-.566-.933-1.06-.987-.42-.054-.841.09-1.188.34-.183.126-.585.467-.695.665-.018.072.018.197.092.269.073.072.018.287-.147.251-.128-.036-.274-.072-.384-.161a.43.43 0 0 1-.091-.539c.311-.52.749-.95 1.316-1.202.366-.18.805-.251 1.262-.18.548.09 1.023.485 1.297.988.421.771.366 1.74.165 2.602-.183.735-.366 1.417-.475 2.207zM230.591 5.905c-.475-.108-.95-.216-1.444-.234-.402.503-.603 1.095-.713 1.723-.128.646-.109 1.328-.146 1.992-.036.897.037 1.759.146 2.602-.055.108-.219.18-.347.108-.311-.377-.384-.862-.402-1.346-.018-1.077-.037-2.207.128-3.266.109-.682.311-1.31.731-1.884-1.133-.054-2.175.18-3.217.466a.579.579 0 0 1-.403-.25c-.036-.127.037-.198.11-.234l.11-.036.091-.036c.768-.305 1.7-.467 2.596-.485.914-.035 1.828.054 2.633.341a.736.736 0 0 1 .31.27c.019.125-.073.287-.183.269zM235.301 10.893a4.41 4.41 0 0 1-1.408.952c-.457.179-.987.233-1.535.071-.019.09-.092.198-.183.198-.293-.108-.402-.377-.457-.61-.128-2.172.109-4.307.493-6.335.092-.197.457-.305.567-.018-.11 1.04-.311 2.082-.366 3.123.64-.485 1.463-.718 2.267-.539.53.126 1.06.592 1.225 1.113.256.753-.018 1.507-.603 2.045zm-.768-2.53c-.823-.197-1.59.162-2.175.772 0 .664 0 1.669-.019 2.225.476.108.951.054 1.371-.126.549-.215 1.042-.628 1.426-1.112.274-.341.293-.88.073-1.256-.128-.252-.42-.449-.676-.503zM5.423 22.722c-.128 1.274-.055 2.764.037 4.02.018.126-.165.144-.256.09-.256-.198-.384-.718-.402-1.041a26.339 26.339 0 0 1 0-2.943c-1.353.054-2.816.018-4.15.162-.055 1.202-.018 2.35.036 3.499.019.036-.054.09-.146.107a.308.308 0 0 1-.201-.071c-.238-.234-.292-.664-.31-.951-.092-1.813.036-3.625.219-5.402.036-.108.2-.215.347-.125.201.09.201.323.238.502-.037.467-.092 1.256-.147 1.813 1.335-.09 2.816-.036 4.15-.054.073-.88.11-1.759.33-2.584.09-.108.273-.036.383.071.091.108.146.323.146.449-.091.682-.22 1.346-.237 2.046.054 0 .11-.018.164-.018.037 0 .092.036.092.125 0 .036 0 .108-.037.144-.055.072-.165.125-.256.161zM10.284 26.706c-1.006.27-2.176.251-2.962-.412-.366-.306-.64-.754-.658-1.239-.018-.43.165-.825.42-1.184.567-.79 1.554-1.328 2.505-1.436.402-.036.768.018 1.06.305.092.09 0 .27-.091.305h-.165c-.055 0-.128-.018-.183-.018-.128-.017-.237-.035-.31.018-.878.036-1.737.45-2.267 1.149-.238.305-.366.538-.33.915.037.503.421.88.951 1.059.75.269 1.682.108 2.395-.144.384-.143.731-.287 1.06-.52.074-.054.147 0 .183.09a.79.79 0 0 1 .019.197c-.256.485-1.28.825-1.627.915zm1.023-1.22c-.091.108-.256.09-.329.036-.183-.126-.183-.36-.183-.538.019-.306.074-.61.147-.934l.237-.987c.147-.646.238-1.292.037-1.83-.165-.467-.567-.933-1.06-.987-.42-.054-.841.09-1.189.341-.182.126-.585.467-.694.664-.019.072.018.197.091.27.073.07.018.286-.146.25-.128-.036-.274-.071-.384-.161a.43.43 0 0 1-.091-.538c.31-.52.75-.952 1.316-1.203.365-.18.804-.251 1.261-.18.549.09 1.024.485 1.298.988.42.771.366 1.74.165 2.602-.183.736-.366 1.417-.476 2.207zM24.11 26.742c-.878-.484-1.773-.825-2.706-1.148a43.033 43.033 0 0 1-2.669-1.023 6.55 6.55 0 0 0 .238 1.902c.055.108.018.305-.146.305-.147 0-.238-.09-.293-.18-.055-.071-.091-.179-.146-.269-.201-.646-.274-1.346-.274-2.063a.403.403 0 0 1-.165-.18c-.055-.054-.073-.161-.018-.251a.502.502 0 0 0 .164-.233c.037-.234.019-.772.074-1.005.073-.413.182-.915.292-1.418.128-.502.31-1.005.549-1.435.11-.18.383-.144.438.053-.018.234-.091.449-.164.664-.055.198-.165.413-.22.628a8.093 8.093 0 0 0-.31 1.992 32.593 32.593 0 0 1 1.992-1.615c.841-.61 1.737-1.13 2.687-1.507.147 0 .33 0 .44.09.109.071.109.18.054.305-.969.395-1.846.915-2.742 1.525a23.14 23.14 0 0 0-2.468 2.01v.018c.896.484 1.883.807 2.834 1.13.84.287 1.645.61 2.413 1.095a.96.96 0 0 1 .383.377c.019.107-.128.251-.237.233zM30.577 22.722c-.128 1.274-.055 2.764.036 4.02.019.126-.164.144-.255.09-.256-.198-.384-.718-.403-1.041a26.363 26.363 0 0 1 0-2.943c-1.352.054-2.815.018-4.15.162-.054 1.202-.018 2.35.037 3.499.018.036-.055.09-.146.107a.309.309 0 0 1-.201-.071c-.238-.234-.293-.664-.311-.951-.091-1.813.037-3.625.22-5.402.036-.108.2-.215.347-.125.2.09.2.323.237.502-.036.467-.091 1.256-.146 1.813 1.335-.09 2.815-.036 4.15-.054.073-.88.11-1.759.329-2.584.091-.108.274-.036.384.071.091.108.146.323.146.449-.091.682-.22 1.346-.238 2.046.055 0 .11-.018.165-.018.037 0 .091.036.091.125 0 .036 0 .108-.036.144-.055.072-.165.125-.256.161zM36.077 26.347c-.822.413-1.81.592-2.705.162a2.757 2.757 0 0 1-1.426-1.633c-.274-.844-.183-1.795.183-2.584a4.04 4.04 0 0 1 1.188-1.454c.329-.233.822-.52 1.28-.574.365-.413.968-.538 1.48-.413.878.233 1.627 1.113 1.865 1.884.237.754.292 1.58.073 2.351-.274 1.041-.969 1.795-1.938 2.261zm1.262-4.414c-.22-.592-.713-1.256-1.353-1.472-.293-.107-.603-.143-.841.036-.238.18-.384.467-.494.718-.018.054-.018.126-.018.198 0 .071 0 .161-.018.233-.019.036-.201.143-.256.036a2.944 2.944 0 0 1-.055-.736c-.695.287-1.28.88-1.609 1.543-.347.7-.365 1.508-.146 2.225.183.557.53 1.023 1.115 1.257.731.269 1.517.179 2.175-.144.75-.377 1.28-.951 1.536-1.723.238-.682.201-1.49-.036-2.171zM44.226 26.186c0 .143-.164.18-.256.161-.2-.072-.237-.395-.274-.574-.055-.323-.055-.646-.055-.987v-1.095c0-.843.11-1.758.128-2.62a.735.735 0 0 0-.475-.287c-.201-.053-.439-.071-.64-.125-.731-.108-1.463-.216-2.23-.18-.092.79-.311 1.526-.42 2.315-.165 1.167-.311 2.261-.238 3.5 0 .143.036.358-.11.466-.073.072-.274.072-.366-.018a.685.685 0 0 1-.146-.359c-.018-.125 0-.269-.018-.412-.018-1.885.292-3.643.676-5.474-.091.018-.183.036-.274.018-.165-.09-.128-.251-.055-.323.073-.143.201-.197.33-.233a1.58 1.58 0 0 1 .401-.072c1.243-.09 2.56.09 3.693.449.22.125.53.269.549.556-.165 1.723-.202 3.5-.22 5.294zM51.71 26.742c-.878-.484-1.774-.825-2.706-1.148a43.009 43.009 0 0 1-2.67-1.023c-.018.646.074 1.31.238 1.902.055.108.019.305-.146.305-.146 0-.238-.09-.292-.18-.055-.071-.092-.179-.147-.269-.2-.646-.274-1.346-.274-2.063a.403.403 0 0 1-.164-.18c-.055-.054-.073-.161-.019-.251a.501.501 0 0 0 .165-.233c.036-.234.018-.772.073-1.005.073-.413.183-.915.293-1.418.127-.502.31-1.005.548-1.435.11-.18.384-.144.439.053-.019.234-.092.449-.165.664-.055.198-.164.413-.22.628a8.093 8.093 0 0 0-.31 1.992 32.593 32.593 0 0 1 1.993-1.615c.84-.61 1.736-1.13 2.687-1.507.146 0 .329 0 .439.09.11.071.11.18.054.305-.968.395-1.846.915-2.742 1.525a23.16 23.16 0 0 0-2.468 2.01v.018c.896.484 1.883.807 2.834 1.13.84.287 1.645.61 2.413 1.095a.96.96 0 0 1 .384.377c.018.107-.128.251-.238.233zM56.787 25.289c-.86 1.83-1.535 3.714-2.194 5.616-.055.108-.31.144-.365 0-.092-.161-.037-.592 0-.753.292-1.22.822-2.351 1.261-3.518a38.184 38.184 0 0 1-1.718-2.745c-.64-1.167-1.17-2.387-1.371-3.733a.407.407 0 0 1 .22-.43c.109-.036.182.018.237.071.055.054.091.126.128.198.182 1.076.548 2.081 1.005 3.032.512 1.023 1.115 1.992 1.792 2.961.42-.897.859-1.794 1.334-2.673a18.848 18.848 0 0 1 1.645-2.602c.128-.162.311-.341.476-.252.11.054.2.216.11.341a35.486 35.486 0 0 0-2.56 4.487zM70.634 18.996a.825.825 0 0 1-.548.323c-.549.072-.823-.43-.841-.897-.018-.933.493-2.243 1.28-3.212.091-.072.31.054.237.197-.292.52-.84 1.867-.804 2.459.164-.036.329-.072.475-.054.256.036.384.215.42.43.037.27-.072.54-.219.754zm-2.267 0a.825.825 0 0 1-.548.323c-.548.072-.823-.43-.84-.897-.02-.933.493-2.243 1.279-3.212.091-.072.31.054.237.197-.292.52-.84 1.867-.804 2.459.165-.036.33-.072.475-.054.256.036.384.215.42.43.037.27-.072.54-.219.754zM76.637 26.347c-.822.413-1.81.592-2.705.162a2.757 2.757 0 0 1-1.426-1.633c-.274-.844-.183-1.795.183-2.584a4.04 4.04 0 0 1 1.188-1.454c.33-.233.823-.52 1.28-.574.365-.413.969-.538 1.48-.413.878.233 1.627 1.113 1.865 1.884.238.754.293 1.58.073 2.351-.274 1.041-.969 1.795-1.938 2.261zm1.262-4.414c-.22-.592-.713-1.256-1.353-1.472-.293-.107-.603-.143-.84.036-.239.18-.385.467-.494.718-.019.054-.019.126-.019.198 0 .071 0 .161-.018.233-.018.036-.201.143-.256.036a2.943 2.943 0 0 1-.055-.736c-.694.287-1.28.88-1.609 1.543-.347.7-.365 1.508-.146 2.225.183.557.53 1.023 1.115 1.257.732.269 1.518.179 2.176-.144.75-.377 1.28-.951 1.535-1.723.238-.682.201-1.49-.036-2.171zM85.042 20.587c-.475-.108-.95-.215-1.444-.233-.402.502-.603 1.094-.713 1.722-.128.646-.11 1.328-.146 1.992-.037.897.036 1.759.146 2.602-.055.108-.22.18-.347.108-.311-.377-.384-.861-.402-1.346-.019-1.077-.037-2.207.128-3.266.11-.682.31-1.31.73-1.884-1.133-.054-2.175.18-3.217.466a.578.578 0 0 1-.402-.25c-.036-.126.037-.198.11-.234l.11-.036.091-.036c.768-.305 1.7-.466 2.596-.484.914-.036 1.828.054 2.632.34a.735.735 0 0 1 .311.27c.018.125-.073.287-.183.269zM91.177 26.186c0 .143-.164.18-.256.161-.2-.072-.237-.395-.274-.574-.055-.323-.055-.646-.055-.987v-1.095c0-.843.11-1.758.128-2.62a.735.735 0 0 0-.475-.287c-.201-.053-.439-.071-.64-.125-.73-.108-1.462-.216-2.23-.18-.091.79-.31 1.526-.42 2.315-.165 1.167-.311 2.261-.238 3.5 0 .143.037.358-.11.466-.073.072-.274.072-.365-.018a.686.686 0 0 1-.147-.359c-.018-.125 0-.269-.018-.412-.018-1.885.293-3.643.677-5.474-.092.018-.183.036-.275.018-.164-.09-.128-.251-.055-.323.074-.143.201-.197.33-.233a1.58 1.58 0 0 1 .402-.072c1.243-.09 2.559.09 3.692.449.22.125.53.269.549.556-.165 1.723-.201 3.5-.22 5.294zM93.396 20.587h-.092a.15.15 0 0 1-.146-.126.436.436 0 0 1 .146-.377c.293-.25.622-.358.988-.34.255.018.511.053.767.143l.695.233c.987.323 1.846 1.185 2.322 2.118.256.52.347 1.059.22 1.65-.129.54-.458 1.042-.897 1.454-1.097 1.023-2.468 1.328-3.985 1.328-.018 1.22-.091 2.584.073 3.787 0 .053.037.125.073.18.019.089.055.16-.018.268-.146.108-.292.072-.42 0a1.029 1.029 0 0 1-.275-.664c-.128-1.274-.073-2.512 0-3.804-.164-.143-.42-.34-.475-.556 0-.072.018-.144.055-.18.055-.09.128-.107.164-.072.055.054.165.126.256.18.11-1.794.238-3.5.549-5.222zm3.62 1.166c-.403-.484-.97-.825-1.518-1.058-.31-.144-1.188-.467-1.517-.323.018.25-.018.7-.055.897a31.315 31.315 0 0 0-.439 4.773c1.262.09 2.468-.287 3.437-1.112.53-.449.84-1.077.786-1.723-.036-.538-.384-1.077-.695-1.454zM102.597 26.706c-1.005.27-2.175.251-2.961-.412-.366-.306-.64-.754-.658-1.239-.018-.43.164-.825.42-1.184.567-.79 1.554-1.328 2.505-1.436.402-.036.768.018 1.06.305.091.09 0 .27-.091.305h-.165c-.055 0-.128-.018-.183-.018-.128-.017-.237-.035-.31.018-.878.036-1.737.45-2.267 1.149-.238.305-.366.538-.33.915.037.503.421.88.951 1.059.75.269 1.682.108 2.395-.144.384-.143.731-.287 1.06-.52.073-.054.147 0 .183.09.018.071.018.143.018.197-.256.485-1.279.825-1.627.915zm1.024-1.22c-.091.108-.256.09-.329.036-.183-.126-.183-.36-.183-.538.019-.306.073-.61.147-.934l.237-.987c.146-.646.238-1.292.037-1.83-.165-.467-.567-.933-1.061-.987-.42-.054-.84.09-1.188.341-.183.126-.585.467-.694.664-.019.072.018.197.091.27.073.07.018.286-.146.25-.128-.036-.274-.071-.384-.161a.43.43 0 0 1-.092-.538c.311-.52.75-.952 1.317-1.203.365-.18.804-.251 1.261-.18.548.09 1.024.485 1.298.988.42.771.366 1.74.164 2.602-.182.736-.365 1.417-.475 2.207zM108.776 26.294c-.548.358-1.224.645-1.901.645-.384 0-.658-.161-.914-.52-.091.072-.256.126-.329.018-.329-.449-.42-1.077-.439-1.687-.036-1.561-.018-2.71.403-4.11.036-.143.384-.412.639-.34.11-.287.403-.592.75-.628.932 0 1.938.484 2.248 1.4.092.287.092.592-.018.879-.109.269-.292.502-.53.682l-.11.09c.457.143.969.43 1.262.879.219.34.237.753.146 1.148-.165.646-.64 1.167-1.207 1.544zm.512-2.387c-.146-.27-.548-.43-.841-.574-.347-.216-.658-.126-1.005-.054l-.548.125a1.216 1.216 0 0 1-.622 0c-.091-.053-.201-.233-.11-.323.22-.215.494-.323.805-.395l.841-.09c.329-.179.676-.538.822-.878.092-.288.037-.485-.146-.718-.329-.449-.859-.646-1.389-.7-.165-.018-.22.018-.256.125-.055.144-.092.305-.183.431-.037.09-.165.126-.256.072a.36.36 0 0 1-.165-.09c-.219.772-.347 1.651-.383 2.566-.037.862 0 1.705.128 2.495.146-.162.329-.395.42-.52.128-.126.366.071.329.197-.037.09-.11.197-.165.287-.036.108-.091.197-.091.269.11.162.366.215.676.18.457-.072 1.006-.324 1.408-.629.366-.287.676-.646.768-1.094.055-.216.091-.467-.037-.682zM116.574 26.76c-.383-.43-.493-1.005-.585-1.561-.182-1.292-.146-2.674-.182-4.02-1.115 1.561-1.993 3.14-3.053 4.917-.11.126-.165.215-.348.287-.164 0-.31-.018-.438-.197-.878-1.597-1.042-3.553-.914-5.491 0-.126.036-.341.182-.395.238-.072.421.125.421.269-.11 1.794.091 3.5.695 5.043.639-1.077 1.151-1.974 1.7-2.854a33.774 33.774 0 0 1 1.937-2.8c.147-.107.348-.035.421.109.055 1.722.036 3.41.183 5.06.036.538.164 1.059.201 1.561 0 .072-.165.144-.22.072zM123.3 20.587c-.476-.108-.951-.215-1.445-.233-.402.502-.603 1.094-.713 1.722-.127.646-.109 1.328-.146 1.992-.036.897.037 1.759.146 2.602-.054.108-.219.18-.347.108-.311-.377-.384-.861-.402-1.346-.018-1.077-.037-2.207.128-3.266.11-.682.311-1.31.731-1.884-1.133-.054-2.175.18-3.217.466a.577.577 0 0 1-.402-.25c-.037-.126.036-.198.109-.234l.11-.036.091-.036c.768-.305 1.7-.466 2.596-.484.914-.036 1.828.054 2.633.34a.73.73 0 0 1 .31.27c.019.125-.073.287-.182.269zM128.009 25.576a4.41 4.41 0 0 1-1.408.95c-.457.18-.987.234-1.535.073-.019.09-.092.197-.183.197-.293-.108-.402-.377-.457-.61-.128-2.171.11-4.307.493-6.335.092-.197.457-.305.567-.018-.11 1.041-.311 2.082-.365 3.123.639-.485 1.462-.718 2.266-.539.53.126 1.061.593 1.225 1.113.256.754-.018 1.507-.603 2.046zm-.768-2.53c-.823-.198-1.59.16-2.175.771 0 .664 0 1.669-.019 2.225.476.108.951.054 1.371-.125.549-.216 1.042-.628 1.426-1.113.275-.34.293-.88.073-1.256-.128-.251-.42-.449-.676-.503zM132.959 19.302c-.091.071-.292-.054-.274-.18.329-.538.878-1.884.823-2.458-.146.017-.311.053-.457.035-.256-.035-.384-.215-.421-.43-.036-.251.092-.539.22-.736a.7.7 0 0 1 .548-.34c.549-.055.823.43.841.896.018.934-.494 2.244-1.28 3.213zm-2.266 0c-.092.071-.293-.054-.275-.18.329-.538.878-1.884.823-2.458-.146.017-.311.053-.457.035-.256-.035-.384-.215-.42-.43-.037-.251.091-.539.219-.736a.7.7 0 0 1 .548-.34c.549-.055.823.43.841.896.018.934-.493 2.244-1.279 3.213z" fill="#fff"/></svg>