<svg width="234" height="63" fill="none" xmlns="http://www.w3.org/2000/svg"><path d="M10.524 7.527a2.498 2.498 0 0 1-.635.563c-.353.035-.635 0-.882-.141-.776-.352-1.658-.914-2.293-1.371-.036 1.125-.141 2.285 0 3.375-.07.563-.706.317-.777.176a.63.63 0 0 1-.176-.246.765.765 0 0 1-.176-.281c-.071-.317-.071-.633-.071-.915.035-.597.07-1.23.07-1.828-.811.774-1.799 1.442-2.858 1.828-.247.036-.635.036-.917-.21-.423-.352-.035-.95.459-1.266l.247.457c.247-.07.494-.246.74-.352.742-.457 1.483-1.125 2.083-1.793-1.13-.915-2.259-2.04-3.211-3.06-.247-.21-.141-.527-.036-.703.318-.422.812-.14.918-.035.811.879 1.658 1.723 2.54 2.532 0-.95.036-1.9-.035-2.778l-.282-.81c-.036-.21.106-.702.564-.667.318.105.494.351.635.633l.106.246c.106.246.177.703.177.95v1.933l.106-.175.74-.985c.248-.352.6-.633 1.024-.88.564-.316 1.623 0 1.305 1.056-.247-.035-.317-.07-.423-.106-.07 0-.141-.035-.282-.07-.212-.07-.918.88-1.024 1.02-.423.562-.776 1.16-1.235 1.758A16.754 16.754 0 0 0 9.713 7.07a.47.47 0 0 1 .212-.176c.07-.07.14-.105.388-.21.282.28.317.491.282.632-.035.07-.07.106-.07.211zM24.239 7.527a2.5 2.5 0 0 1-.635.563c-.353.035-.636 0-.883-.141-.776-.352-1.658-.914-2.293-1.371-.035 1.125-.141 2.285 0 3.375-.07.563-.706.317-.776.176a.63.63 0 0 1-.177-.246.766.766 0 0 1-.176-.281c-.07-.317-.07-.633-.07-.915.035-.597.07-1.23.07-1.828-.812.774-1.8 1.442-2.858 1.828-.247.036-.635.036-.918-.21-.423-.352-.035-.95.459-1.266l.247.457c.247-.07.494-.246.741-.352.741-.457 1.482-1.125 2.082-1.793-1.13-.915-2.258-2.04-3.211-3.06-.247-.21-.141-.527-.035-.703.317-.422.811-.14.917-.035.812.879 1.658 1.723 2.54 2.532 0-.95.036-1.9-.035-2.778l-.282-.81c-.035-.21.106-.702.564-.667.318.105.494.351.636.633l.105.246c.106.246.177.703.177.95v1.933l.106-.175.74-.985c.248-.352.6-.633 1.024-.88.565-.316 1.623 0 1.306 1.056-.247-.035-.318-.07-.424-.106-.07 0-.141-.035-.282-.07-.212-.07-.918.88-1.023 1.02-.424.562-.777 1.16-1.235 1.758a16.76 16.76 0 0 0 2.787 1.688c.07-.106.141-.14.212-.176.07-.07.141-.105.388-.21.282.28.317.491.282.632-.035.07-.07.106-.07.211zM34.636 22.753c-1.058.704-2.364 1.266-3.67 1.266-.74 0-1.27-.316-1.764-1.02-.176.141-.494.247-.635.036-.635-.88-.811-2.11-.847-3.306-.07-3.06-.035-5.31.777-8.053.07-.28.74-.808 1.235-.668.211-.562.776-1.16 1.446-1.23 1.8 0 3.74.949 4.34 2.742.177.563.177 1.16-.035 1.723a3.173 3.173 0 0 1-1.023 1.337l-.212.175c.882.282 1.87.844 2.435 1.724.423.668.458 1.477.282 2.25-.318 1.266-1.235 2.286-2.329 3.024zm.988-4.677c-.282-.527-1.058-.843-1.623-1.125-.67-.422-1.27-.246-1.94-.105l-1.06.246a2.312 2.312 0 0 1-1.199 0c-.176-.106-.388-.457-.212-.633.424-.422.953-.633 1.553-.774l1.623-.176c.635-.351 1.306-1.055 1.588-1.723.176-.562.07-.95-.282-1.406-.636-.88-1.659-1.266-2.682-1.372-.318-.035-.424.036-.494.247-.106.28-.177.597-.353.843-.07.176-.317.247-.494.141a.683.683 0 0 1-.317-.176c-.424 1.512-.67 3.235-.741 5.029-.071 1.688 0 3.34.247 4.888.282-.317.635-.774.811-1.02.247-.246.706.14.635.387-.07.175-.212.386-.317.562-.07.211-.177.387-.177.528.212.316.706.422 1.306.351.882-.14 1.94-.633 2.717-1.23.705-.563 1.305-1.266 1.482-2.145.105-.422.176-.915-.07-1.337zM44.677 21.91a7.192 7.192 0 0 1-3.14 1.582c-.882.21-2.117.316-2.858-.422-.212-.176-.53-.739-.212-1.055.247.176.424.316.635.422.141.105.282.176.459.176-.035-2.427.106-7.104.176-9.46.036-.562-.035-1.16 0-1.723.07-.562.177-1.125.635-1.547.318-.105.6-.176.777.176-.177.633-.177 1.758-.212 2.989 0 1.125 0 2.32-.035 3.165a4.147 4.147 0 0 1 1.87-.704c.811-.07 1.658.07 2.329.457a2.785 2.785 0 0 1 1.411 3.06c-.212 1.09-.953 2.11-1.835 2.883zm.459-4.326c-.424-.668-1.165-.914-1.976-.914-.812.035-1.694.351-2.223.844l-.282 5.028c1.093-.246 2.223-.738 3.14-1.512.635-.527 1.235-1.16 1.482-1.969.176-.492.141-1.09-.141-1.477zm7.34 6.295c-.883-.247-.883-1.126-.989-1.829-.53-4.009-.212-7.877.318-11.85.317-.493.882-.07 1.023.21.035.81 0 1.583-.106 2.392-.07.773-.176 1.582-.176 2.39-.036 1.372-.106 2.779-.07 4.186 0 1.37.14 2.777.352 4.079.035.175-.176.422-.353.422zM66.606 2.217c-.777.281-1.623.457-2.4.739-1.411.457-2.364 1.055-3.352 2.145-.988 1.055-1.623 2.32-2.188 3.657-.564 1.371-.952 2.883-1.376 4.325 1.27-.88 2.753-1.653 4.305-1.899 1.376-.246 2.894.035 4.093.809 1.27.809 2.117 2.215 2.47 3.692.353 1.583.212 3.06-.6 4.466a7.081 7.081 0 0 1-3.14 2.954c-1.13.563-2.611.738-3.952.527-1.553-.21-2.788-.914-3.705-2.145-.988-1.336-1.27-2.953-1.235-4.606.07-2.286.741-4.747 1.341-6.611.741-2.25 1.8-4.712 3.634-6.47.883-.844 1.941-1.513 3.07-1.9.776-.245 1.588-.421 2.4-.667.776-.247 1.517-.563 2.187-1.126.212-.035.565 0 .635.211.141.211.141.493 0 .668a5.924 5.924 0 0 1-2.187 1.231zm-.07 12.519a3.946 3.946 0 0 0-2.4-2.11c-1.024-.352-2.33-.281-3.352.035-1.412.422-2.717 1.266-3.846 2.286-.318 1.547-.283 3.41.247 4.817.247.704.74 1.337 1.376 1.829 1.058.844 2.152.95 3.493.809 1.447-.141 2.752-.81 3.81-1.9.847-.843 1.2-1.687 1.236-2.918.035-1.02-.177-2.04-.565-2.848zM75.499 23.703c-1.764-.07-3.388-.88-4.41-2.391-.848-1.266-1.06-2.743-.883-4.185a9.268 9.268 0 0 1 1.8-4.36c1.023-1.337 2.47-2.392 4.128-2.708 1.129-.211 2.329-.106 3.176.809.388.422.74.879.74 1.441.036.598-.246 1.126-.74 1.513-2.47 2.039-5.082 3.938-7.763 5.485.07 1.09 1.023 2.216 2.046 2.778 1.024.563 2.223.633 3.352.492 1.13-.105 2.294-.492 3.106-.879.14-.105.246 0 .282.106.035.07.106.21-.035.316-1.235 1.126-3 1.653-4.8 1.583zm1.552-12.554c-1.023 0-2.046.422-2.858 1.055-1.729 1.406-2.752 3.657-2.752 5.837 2.505-1.371 4.87-3.165 7.163-5.028.176-.141.317-.668.07-1.09-.282-.563-.917-.774-1.623-.774zM83.582 11.571h-.177a.292.292 0 0 1-.282-.246c-.035-.281.07-.528.282-.739a2.597 2.597 0 0 1 1.906-.668c.494.035.988.106 1.482.282l1.34.457c1.906.633 3.564 2.32 4.482 4.15.494 1.019.67 2.074.423 3.234-.247 1.055-.882 2.04-1.729 2.849-2.117 2.004-4.763 2.602-7.692 2.602-.035 2.391-.176 5.063.141 7.42 0 .105.07.246.141.351.036.176.106.317-.035.528-.282.21-.565.14-.812 0-.352-.387-.494-.81-.529-1.302-.247-2.496-.14-4.922 0-7.454-.317-.282-.811-.669-.917-1.09 0-.141.035-.282.106-.352.105-.176.247-.211.317-.14.106.105.318.245.494.35.212-3.516.459-6.856 1.059-10.232zm6.986 2.286c-.776-.95-1.87-1.618-2.928-2.075-.6-.281-2.294-.914-2.93-.633.036.492-.034 1.371-.105 1.758-.494 2.99-.812 6.19-.847 9.354 2.435.176 4.764-.563 6.634-2.18 1.023-.88 1.623-2.11 1.517-3.376-.07-1.055-.741-2.11-1.34-2.848zM105.647 23.668c-.741-.844-.952-1.97-1.129-3.06-.353-2.532-.282-5.24-.353-7.877-2.152 3.06-3.846 6.154-5.892 9.635-.212.247-.318.422-.67.563-.318 0-.6-.035-.847-.387-1.694-3.13-2.012-6.962-1.765-10.76 0-.246.07-.668.353-.774.459-.14.812.247.812.528-.212 3.516.176 6.857 1.34 9.881 1.235-2.11 2.223-3.868 3.282-5.591a66.25 66.25 0 0 1 3.74-5.486c.282-.21.671-.07.812.211.106 3.376.07 6.682.353 9.917.07 1.055.317 2.074.388 3.059 0 .14-.318.281-.424.14zM118.628 11.571c-.917-.211-1.835-.422-2.788-.457-.776.984-1.164 2.145-1.376 3.376-.247 1.265-.211 2.602-.282 3.903-.071 1.758.071 3.446.282 5.099-.106.21-.423.351-.67.21-.6-.738-.741-1.687-.776-2.637-.036-2.11-.071-4.325.247-6.4.211-1.336.599-2.567 1.411-3.692-2.188-.105-4.199.352-6.21.914a1.112 1.112 0 0 1-.776-.492c-.071-.246.07-.387.211-.457l.212-.07.176-.07c1.482-.598 3.282-.915 5.011-.95 1.764-.07 3.528.105 5.081.668.176.07.494.316.6.527.035.247-.141.563-.353.528zM125.601 23.703c-1.765-.07-3.388-.88-4.411-2.391-.847-1.266-1.059-2.743-.882-4.185a9.275 9.275 0 0 1 1.799-4.36c1.024-1.337 2.47-2.392 4.129-2.708 1.129-.211 2.328-.106 3.175.809.388.422.741.879.741 1.441.036.598-.247 1.126-.741 1.513-2.47 2.039-5.081 3.938-7.762 5.485.07 1.09 1.023 2.216 2.046 2.778 1.023.563 2.223.633 3.352.492 1.129-.105 2.294-.492 3.105-.879.141-.105.247 0 .283.106.035.07.105.21-.036.316-1.235 1.126-2.999 1.653-4.798 1.583zm1.552-12.554c-1.023 0-2.046.422-2.858 1.055-1.729 1.406-2.752 3.657-2.752 5.837 2.505-1.371 4.869-3.165 7.163-5.028.176-.141.317-.668.07-1.09-.282-.563-.917-.774-1.623-.774zM148.726 22.753c-1.058.704-2.364 1.266-3.669 1.266-.741 0-1.271-.316-1.765-1.02-.176.141-.494.247-.635.036-.635-.88-.811-2.11-.847-3.306-.07-3.06-.035-5.31.777-8.053.07-.28.741-.808 1.235-.668.211-.562.776-1.16 1.446-1.23 1.8 0 3.74.949 4.34 2.742.177.563.177 1.16-.035 1.723a3.18 3.18 0 0 1-1.023 1.337l-.212.175c.882.282 1.87.844 2.435 1.724.423.668.458 1.477.282 2.25-.318 1.266-1.235 2.286-2.329 3.024zm.988-4.677c-.282-.527-1.058-.843-1.623-1.125-.67-.422-1.27-.246-1.941-.105l-1.058.246a2.313 2.313 0 0 1-1.2 0c-.176-.106-.388-.457-.212-.633.424-.422.953-.633 1.553-.774l1.623-.176c.635-.351 1.306-1.055 1.588-1.723.176-.562.071-.95-.282-1.406-.635-.88-1.659-1.266-2.682-1.372-.318-.035-.423.036-.494.247-.106.28-.176.597-.353.843-.07.176-.317.247-.494.141a.68.68 0 0 1-.317-.176c-.424 1.512-.671 3.235-.741 5.029-.071 1.688 0 3.34.247 4.888.282-.317.635-.774.811-1.02.247-.246.706.14.635.387-.07.175-.211.386-.317.562-.071.211-.177.387-.177.528.212.316.706.422 1.306.351.882-.14 1.941-.633 2.717-1.23.705-.563 1.305-1.266 1.482-2.145.106-.422.176-.915-.071-1.337zM159.473 23.562c-1.941.528-4.199.492-5.716-.809-.706-.598-1.235-1.477-1.27-2.426-.036-.844.317-1.618.811-2.32 1.094-1.548 2.999-2.603 4.834-2.814.776-.07 1.482.035 2.047.598.176.175 0 .527-.177.598h-.317c-.106 0-.247-.036-.353-.036-.247-.035-.459-.07-.6.035-1.694.07-3.352.88-4.375 2.251-.459.598-.706 1.055-.635 1.793.07.985.811 1.724 1.834 2.075 1.447.528 3.247.211 4.623-.281.741-.281 1.411-.563 2.046-1.02.141-.105.282 0 .353.176.035.14.035.281.035.387-.494.95-2.47 1.617-3.14 1.793zm1.976-2.391c-.177.21-.494.176-.635.07-.353-.246-.353-.703-.353-1.055.035-.598.141-1.195.282-1.828l.459-1.934c.282-1.266.459-2.532.07-3.587-.317-.914-1.093-1.829-2.046-1.934-.812-.106-1.623.176-2.294.668-.352.246-1.129.914-1.34 1.301-.036.14.035.387.176.527.141.141.035.563-.282.493-.247-.07-.53-.14-.741-.317-.283-.246-.388-.703-.177-1.055.6-1.02 1.447-1.863 2.541-2.356a4.028 4.028 0 0 1 2.435-.351c1.058.176 1.975.95 2.505 1.934.811 1.512.705 3.41.317 5.099-.353 1.441-.705 2.778-.917 4.325zM166.177 11.571h-.176a.291.291 0 0 1-.282-.246c-.036-.281.07-.528.282-.739a2.597 2.597 0 0 1 1.905-.668c.494.035.988.106 1.482.282l1.341.457c1.905.633 3.564 2.32 4.481 4.15.494 1.019.671 2.074.424 3.234-.247 1.055-.882 2.04-1.729 2.849-2.117 2.004-4.764 2.602-7.692 2.602-.036 2.391-.177 5.063.141 7.42 0 .105.07.246.141.351.035.176.106.317-.035.528-.283.21-.565.14-.812 0-.353-.387-.494-.81-.529-1.302-.247-2.496-.141-4.922 0-7.454-.318-.282-.812-.669-.918-1.09 0-.141.036-.282.106-.352.106-.176.247-.211.318-.14.106.105.317.245.494.35.211-3.516.458-6.856 1.058-10.232zm6.987 2.286c-.777-.95-1.87-1.618-2.929-2.075-.6-.281-2.293-.914-2.929-.633.036.492-.035 1.371-.105 1.758-.494 2.99-.812 6.19-.847 9.354 2.434.176 4.763-.563 6.633-2.18 1.024-.88 1.623-2.11 1.518-3.376-.071-1.055-.741-2.11-1.341-2.848zM188.243 23.668c-.741-.844-.953-1.97-1.129-3.06-.353-2.532-.283-5.24-.353-7.877-2.153 3.06-3.846 6.154-5.893 9.635-.211.247-.317.422-.67.563-.318 0-.6-.035-.847-.387-1.694-3.13-2.011-6.962-1.764-10.76 0-.246.07-.668.353-.774.458-.14.811.247.811.528-.212 3.516.177 6.857 1.341 9.881 1.235-2.11 2.223-3.868 3.281-5.591a66.275 66.275 0 0 1 3.741-5.486c.282-.21.67-.07.811.211.106 3.376.071 6.682.353 9.917.071 1.055.318 2.074.388 3.059 0 .14-.317.281-.423.14zM197.342 23.562c-1.94.528-4.199.492-5.716-.809-.706-.598-1.235-1.477-1.27-2.426-.036-.844.317-1.618.811-2.32 1.094-1.548 3-2.603 4.834-2.814.777-.07 1.482.035 2.047.598.176.175 0 .527-.177.598h-.317c-.106 0-.247-.036-.353-.036-.247-.035-.459-.07-.6.035-1.694.07-3.352.88-4.375 2.251-.459.598-.706 1.055-.635 1.793.07.985.811 1.724 1.835 2.075 1.446.528 3.246.211 4.622-.281.741-.281 1.411-.563 2.046-1.02.142-.105.283 0 .353.176.036.14.036.281.036.387-.494.95-2.47 1.617-3.141 1.793zm1.976-2.391c-.176.21-.494.176-.635.07-.353-.246-.353-.703-.353-1.055.035-.598.141-1.195.282-1.828l.459-1.934c.282-1.266.459-2.532.071-3.587-.318-.914-1.094-1.829-2.047-1.934-.811-.106-1.623.176-2.293.668-.353.246-1.129.914-1.341 1.301-.035.14.035.387.176.527.141.141.036.563-.282.493-.247-.07-.529-.14-.741-.317-.282-.246-.388-.703-.176-1.055.599-1.02 1.446-1.863 2.54-2.356a4.03 4.03 0 0 1 2.435-.351c1.058.176 1.976.95 2.505 1.934.812 1.512.706 3.41.318 5.099-.353 1.441-.706 2.778-.918 4.325zM213.115 15.755c-.247 2.497-.106 5.416.07 7.877.036.247-.317.282-.494.176-.494-.387-.741-1.406-.776-2.04a52.333 52.333 0 0 1 0-5.766c-2.611.105-5.434.035-8.01.316-.105 2.356-.035 4.607.071 6.857.035.07-.106.176-.282.211-.106 0-.283-.035-.388-.14-.459-.457-.565-1.301-.6-1.864-.177-3.552.07-7.103.423-10.585.071-.21.388-.422.671-.246.388.176.388.633.458.985-.07.914-.176 2.461-.282 3.551 2.576-.175 5.434-.07 8.01-.105.141-1.723.211-3.446.635-5.064.176-.21.529-.07.741.14.176.212.282.634.282.88-.176 1.336-.423 2.637-.459 4.009.106 0 .212-.035.318-.035.07 0 .176.07.176.246 0 .07 0 .21-.07.281-.106.14-.318.246-.494.316zM226.378 11.571c-.918-.211-1.835-.422-2.788-.457-.776.984-1.164 2.145-1.376 3.376-.247 1.265-.212 2.602-.282 3.903-.071 1.758.07 3.446.282 5.099-.106.21-.423.351-.67.21-.6-.738-.741-1.687-.777-2.637-.035-2.11-.07-4.325.247-6.4.212-1.336.6-2.567 1.412-3.692-2.188-.105-4.199.352-6.21.914a1.114 1.114 0 0 1-.777-.492c-.07-.246.071-.387.212-.457l.212-.07.176-.07c1.482-.598 3.282-.915 5.011-.95 1.764-.07 3.528.105 5.081.668.176.07.494.316.6.527.035.247-.142.563-.353.528zM230.633 28.942c-.176.106-.388-.07-.388-.246.706-1.196 1.976-4.15 1.8-5.52-.388.035-.776.14-1.129.105-.494-.07-.741-.387-.812-.844-.07-.528.177-1.09.459-1.512.282-.387.67-.598 1.129-.668 1.129-.141 1.694.844 1.729 1.828.071 1.97-1.059 4.783-2.788 6.857zM12.148 54.401c-1.694-.949-3.423-1.617-5.223-2.25-1.764-.633-3.458-1.266-5.151-2.004a13.014 13.014 0 0 0 .458 3.727c.106.211.036.598-.282.598-.282 0-.458-.176-.564-.352-.106-.14-.177-.351-.283-.527-.388-1.266-.529-2.638-.529-4.044a.786.786 0 0 1-.317-.352c-.106-.105-.142-.316-.036-.492a.984.984 0 0 0 .318-.457c.07-.457.035-1.512.141-1.97.141-.808.353-1.793.565-2.778.247-.984.6-1.969 1.058-2.813.212-.351.741-.281.847.106-.035.457-.177.879-.318 1.3-.106.388-.317.81-.423 1.232a16.077 16.077 0 0 0-.6 3.903 63.114 63.114 0 0 1 3.846-3.165c1.623-1.196 3.352-2.215 5.187-2.954.282 0 .635 0 .847.176.212.14.212.352.106.598-1.87.773-3.564 1.793-5.293 2.989a44.846 44.846 0 0 0-4.763 3.938v.035c1.728.95 3.634 1.583 5.469 2.216 1.623.563 3.175 1.195 4.657 2.145.318.176.565.422.741.738.036.211-.247.493-.458.457zM25.23 54.015c-.459.035-.776-.458-.988-.81a21.374 21.374 0 0 1-1.87-4.324c-.6-1.864-.918-3.763-1.059-5.803-1.058 1.618-2.822 4.572-3.916 6.154-1.13 1.688-2.258 3.482-3.176 5.17-.106.246-.494.07-.635-.141-.177-.317-.106-.739-.035-1.055.211-.317.6-1.125.811-1.583 2.294-3.48 4.693-7.032 6.81-10.514.247-.246 1.094-.387 1.165.282.176 2.145.494 4.29.988 6.33a25.272 25.272 0 0 0 2.187 5.766c.035.106 0 .492-.282.528zM37.972 54.437c-.741-.844-.953-1.97-1.13-3.06-.352-2.532-.281-5.24-.352-7.877-2.152 3.06-3.846 6.154-5.893 9.636-.211.246-.317.421-.67.562-.318 0-.6-.035-.847-.387-1.693-3.13-2.011-6.962-1.764-10.76 0-.246.07-.668.353-.774.459-.14.811.246.811.528-.211 3.516.177 6.857 1.341 9.881 1.235-2.11 2.223-3.868 3.282-5.591a66.272 66.272 0 0 1 3.74-5.486c.282-.21.67-.07.811.211.106 3.376.071 6.681.353 9.917.07 1.055.318 2.074.388 3.059 0 .14-.317.281-.423.14zM52.188 54.401c-1.694-.949-3.423-1.617-5.223-2.25-1.764-.633-3.458-1.266-5.151-2.004a13.012 13.012 0 0 0 .459 3.727c.105.211.035.598-.283.598-.282 0-.458-.176-.564-.352-.106-.14-.177-.351-.282-.527-.389-1.266-.53-2.638-.53-4.044a.786.786 0 0 1-.317-.352c-.106-.105-.141-.316-.036-.492a.984.984 0 0 0 .318-.457c.07-.457.035-1.512.141-1.97.141-.808.353-1.793.565-2.778.247-.984.6-1.969 1.058-2.813.212-.351.741-.281.847.106-.035.457-.176.879-.318 1.3-.105.388-.317.81-.423 1.232a16.07 16.07 0 0 0-.6 3.903 63.107 63.107 0 0 1 3.846-3.165c1.623-1.196 3.352-2.215 5.187-2.954.282 0 .635 0 .847.176.212.14.212.352.106.598-1.87.773-3.564 1.793-5.293 2.989a44.84 44.84 0 0 0-4.763 3.938v.035c1.728.95 3.634 1.583 5.469 2.216 1.623.563 3.175 1.195 4.657 2.145.318.176.565.422.741.738.036.211-.247.493-.458.457zM64.67 46.525c-.247 2.496-.106 5.415.07 7.877.036.246-.317.28-.493.175-.494-.386-.741-1.406-.776-2.04a52.431 52.431 0 0 1 0-5.766c-2.612.105-5.434.035-8.01.316-.106 2.356-.035 4.607.07 6.857.036.07-.105.176-.282.211-.106 0-.282-.035-.388-.14-.459-.458-.565-1.301-.6-1.864-.176-3.552.07-7.103.424-10.585.07-.21.388-.422.67-.246.388.176.388.633.459.985-.07.914-.177 2.461-.283 3.551 2.576-.175 5.434-.07 8.01-.105.141-1.723.212-3.446.635-5.064.177-.21.53-.07.741.14.177.212.282.634.282.88-.176 1.336-.423 2.637-.458 4.009.106 0 .212-.035.317-.035.07 0 .177.07.177.246 0 .07 0 .21-.07.281-.107.14-.318.246-.495.317zM75.393 51.553c-1.659 3.587-2.964 7.28-4.234 11.007-.106.21-.6.281-.706 0-.177-.317-.07-1.16 0-1.477.564-2.391 1.588-4.607 2.434-6.892-1.023-1.513-2.328-3.587-3.316-5.38-1.235-2.286-2.259-4.678-2.647-7.315-.07-.352.141-.703.424-.844.211-.07.353.035.458.14.106.106.177.247.247.388.353 2.11 1.059 4.079 1.941 5.942.988 2.005 2.153 3.904 3.458 5.803a102.872 102.872 0 0 1 2.576-5.24c.917-1.758 1.94-3.446 3.175-5.099.247-.316.6-.668.918-.492.212.105.388.422.212.668-1.87 2.848-3.529 5.767-4.94 8.791zM88.7 53.522c-1.058.704-2.364 1.266-3.669 1.266-.741 0-1.27-.316-1.764-1.02-.177.141-.494.247-.635.036-.636-.88-.812-2.11-.847-3.306-.07-3.06-.035-5.31.776-8.052.07-.282.741-.81 1.235-.669.212-.562.776-1.16 1.447-1.23 1.8 0 3.74.95 4.34 2.742.176.563.176 1.16-.036 1.724a3.173 3.173 0 0 1-1.023 1.336l-.212.176c.883.28 1.87.844 2.435 1.723.424.668.459 1.477.282 2.25-.317 1.266-1.235 2.286-2.328 3.024zm.989-4.676c-.283-.528-1.059-.844-1.623-1.126-.671-.422-1.27-.246-1.941-.105l-1.059.246a2.312 2.312 0 0 1-1.2 0c-.176-.106-.388-.457-.211-.633.423-.422.953-.633 1.552-.774l1.624-.175c.635-.352 1.305-1.056 1.587-1.724.177-.562.07-.95-.282-1.406-.635-.88-1.658-1.266-2.682-1.372-.317-.035-.423.035-.494.246-.105.282-.176.598-.352.844-.071.176-.318.247-.495.141a.683.683 0 0 1-.317-.176c-.423 1.512-.67 3.236-.741 5.029-.07 1.688 0 3.34.247 4.888.282-.317.635-.774.811-1.02.248-.246.706.14.636.387-.07.176-.212.387-.318.562-.07.211-.176.387-.176.528.211.316.705.422 1.305.351.882-.14 1.94-.632 2.717-1.23.706-.563 1.306-1.266 1.482-2.145.106-.422.177-.915-.07-1.337zM112.655 53.311c0 .282-.317.352-.494.317-.388-.14-.459-.774-.529-1.125-.106-.633-.106-1.266-.106-1.934v-2.146c0-1.652.212-3.446.247-5.134-.212-.316-.565-.492-.917-.562-.389-.106-.847-.14-1.235-.246-1.412-.211-2.823-.422-4.305-.352-.177 1.547-.6 2.989-.812 4.536-.317 2.286-.6 4.431-.458 6.857 0 .282.07.704-.212.915-.141.14-.529.14-.706-.035-.176-.212-.247-.458-.282-.704-.035-.246 0-.527-.035-.809-.036-3.692.564-7.138 1.305-10.725-.176.035-.353.07-.529.035-.318-.175-.247-.492-.106-.633.141-.28.388-.386.635-.457.247-.07.529-.14.776-.14 2.4-.176 4.94.175 7.128.879.423.246 1.023.527 1.059 1.09-.318 3.376-.389 6.857-.424 10.373zM123.218 53.628c-1.588.809-3.493 1.16-5.222.316a5.38 5.38 0 0 1-2.753-3.2c-.529-1.652-.352-3.516.353-5.063a7.89 7.89 0 0 1 2.294-2.849c.635-.457 1.588-1.02 2.47-1.125.705-.809 1.87-1.055 2.858-.809 1.693.457 3.14 2.18 3.599 3.692.458 1.477.564 3.095.141 4.607-.529 2.04-1.87 3.517-3.74 4.43zm2.434-8.65c-.423-1.161-1.376-2.462-2.611-2.884-.564-.211-1.164-.282-1.623.07-.458.352-.741.914-.952 1.407-.036.105-.036.246-.036.387 0 .14 0 .316-.035.457-.035.07-.388.281-.494.07a5.852 5.852 0 0 1-.106-1.442c-1.341.563-2.47 1.723-3.105 3.025-.67 1.37-.706 2.953-.282 4.36.353 1.09 1.023 2.004 2.152 2.461 1.412.528 2.929.352 4.199-.28 1.447-.74 2.47-1.865 2.964-3.377.459-1.336.388-2.918-.071-4.255zM149.402 46.525c-.247 2.496-.106 5.415.071 7.877.035.246-.318.28-.494.175-.494-.386-.741-1.406-.777-2.04a52.83 52.83 0 0 1 0-5.766c-2.611.105-5.433.035-8.009.316-.106 2.356-.035 4.607.07 6.857.036.07-.105.176-.282.211-.106 0-.282-.035-.388-.14-.459-.458-.565-1.301-.6-1.864-.176-3.552.071-7.103.424-10.585.07-.21.388-.422.67-.246.388.176.388.633.459.985-.071.914-.177 2.461-.283 3.551 2.576-.175 5.434-.07 8.01-.105.141-1.723.212-3.446.635-5.064.177-.21.529-.07.741.14.177.212.282.634.282.88-.176 1.336-.423 2.637-.458 4.009.106 0 .211-.035.317-.035.071 0 .177.07.177.246 0 .07 0 .21-.071.281-.106.14-.317.246-.494.317zM157.302 54.472c-1.764-.07-3.388-.88-4.411-2.391-.847-1.266-1.058-2.743-.882-4.185a9.266 9.266 0 0 1 1.8-4.36c1.023-1.337 2.47-2.392 4.128-2.708 1.129-.211 2.329-.106 3.176.809.388.422.741.879.741 1.441.035.598-.247 1.126-.741 1.512-2.47 2.04-5.081 3.939-7.763 5.486.07 1.09 1.023 2.216 2.046 2.778 1.024.563 2.223.633 3.352.492 1.13-.105 2.294-.492 3.106-.879.141-.105.247 0 .282.106.035.07.106.21-.035.316-1.235 1.126-3 1.653-4.799 1.583zm1.552-12.554c-1.023 0-2.046.422-2.858 1.055-1.729 1.407-2.752 3.657-2.752 5.837 2.505-1.371 4.869-3.165 7.163-5.028.176-.14.317-.668.07-1.09-.282-.563-.917-.774-1.623-.774zM180.769 54.472c-.247-.035-.388-.176-.494-.352l-.106-.176c-1.305-2.813-1.87-5.978-1.905-9.318a55.485 55.485 0 0 1-1.447 3.305c-.6 1.231-1.27 2.427-2.223 3.552-.423.527-1.235.598-1.87.457-.529-.246-.882-.844-1.129-1.336-1.341-2.567-1.976-5.45-2.646-8.264 0-.035-.036-.07-.071-.035-2.188 3.2-3.458 6.787-4.34 10.584-.141.352.176.668.212 1.02.07.211-.071.422-.353.528-.388.035-.706-.282-.882-.563-.247-.598-.212-1.266-.036-1.864 1.165-3.797 2.365-7.56 4.834-10.866.318-.21.636-.21.918-.14.353 0 .67.351.706.598.776 3.024 1.411 6.118 2.928 8.861.212.281.494.457.812.352.811-.774 1.341-1.723 1.87-2.673 1.058-1.934 1.799-3.973 2.611-6.083l.176-.246c.106-.106.177-.176.353-.176.353-.106.6.14.741.386-.07 2.18-.035 4.22.212 6.225.247 2.004.706 3.973 1.447 5.872.035.246-.212.352-.318.352zM190.827 51.553c-1.659 3.587-2.964 7.28-4.235 11.007-.105.21-.599.281-.705 0-.177-.317-.071-1.16 0-1.477.564-2.391 1.588-4.607 2.434-6.892-1.023-1.513-2.328-3.587-3.316-5.38-1.235-2.286-2.259-4.678-2.647-7.315-.07-.352.141-.703.424-.844.211-.07.352.035.458.14.106.106.177.247.247.388.353 2.11 1.059 4.079 1.941 5.942.988 2.005 2.152 3.904 3.458 5.803a101.883 101.883 0 0 1 2.576-5.24c.917-1.758 1.94-3.446 3.175-5.099.247-.316.6-.668.918-.492.211.105.388.422.211.668-1.87 2.848-3.528 5.767-4.939 8.791z" fill="#fff"/></svg>