<svg width="229" height="17" fill="none" xmlns="http://www.w3.org/2000/svg"><path d="M5.335 3.87a1.29 1.29 0 0 1-.328.29c-.183.017-.329 0-.456-.073a7.566 7.566 0 0 1-1.185-.705c-.018.579-.073 1.175 0 1.736-.037.289-.365.162-.401.09a.324.324 0 0 1-.091-.127.393.393 0 0 1-.092-.144c-.036-.163-.036-.326-.036-.47.018-.308.036-.633.036-.94-.419.397-.93.74-1.476.94-.128.018-.328.018-.474-.109-.219-.18-.018-.488.237-.65l.127.234c.128-.036.256-.126.383-.18a5.178 5.178 0 0 0 1.076-.922C2.07 2.37 1.488 1.79.995 1.267.869 1.158.924.995.979.905c.164-.217.419-.072.474-.018.419.452.856.886 1.312 1.302 0-.489.018-.977-.018-1.429L2.6.344c-.018-.108.055-.361.292-.343.164.054.255.18.328.325l.055.127c.054.126.09.362.09.488v.995l.056-.09.382-.507c.128-.18.31-.326.529-.452.292-.163.839 0 .675.542-.128-.018-.165-.036-.22-.054-.036 0-.072-.018-.145-.036-.11-.036-.474.452-.529.524-.219.29-.4.597-.638.904.438.326.912.615 1.44.868a.243.243 0 0 1 .11-.09c.036-.036.073-.055.2-.109.146.145.164.253.146.326-.018.036-.036.054-.036.108zM12.42 3.87a1.289 1.289 0 0 1-.328.29c-.182.017-.328 0-.456-.073a7.567 7.567 0 0 1-1.185-.705c-.018.579-.072 1.175 0 1.736-.036.289-.364.162-.4.09a.324.324 0 0 1-.092-.127.393.393 0 0 1-.09-.144c-.037-.163-.037-.326-.037-.47.018-.308.036-.633.036-.94-.42.397-.93.74-1.477.94-.127.018-.328.018-.474-.109-.218-.18-.018-.488.237-.65l.128.234c.128-.036.255-.126.383-.18A5.178 5.178 0 0 0 9.74 2.84c-.583-.47-1.166-1.05-1.659-1.573-.127-.109-.072-.272-.018-.362.164-.217.42-.072.474-.018.42.452.857.886 1.313 1.302 0-.489.018-.977-.018-1.429L9.686.344c-.018-.108.054-.361.291-.343.165.054.256.18.329.325l.054.127c.055.126.091.362.091.488v.995l.055-.09.383-.507c.128-.18.31-.326.529-.452.291-.163.838 0 .674.542-.128-.018-.164-.036-.219-.054-.036 0-.072-.018-.145-.036-.11-.036-.474.452-.53.524-.218.29-.4.597-.637.904.437.326.911.615 1.44.868a.243.243 0 0 1 .11-.09c.036-.036.072-.055.2-.109.146.145.164.253.146.326-.019.036-.037.054-.037.108zM17.792 11.699c-.547.361-1.221.65-1.896.65-.383 0-.656-.162-.911-.524-.091.073-.255.127-.328.019-.329-.452-.42-1.085-.438-1.7-.036-1.573-.018-2.73.401-4.14.037-.145.383-.416.638-.344.11-.29.401-.597.748-.633.93 0 1.932.488 2.242 1.41.091.29.091.597-.018.886-.11.272-.292.507-.529.688l-.11.09c.456.145.967.434 1.259.886.218.343.237.76.145 1.157-.164.65-.638 1.175-1.203 1.555zm.51-2.405c-.145-.271-.546-.434-.838-.578-.346-.217-.656-.127-1.002-.055l-.547.127a1.2 1.2 0 0 1-.62 0c-.091-.054-.2-.235-.11-.325.22-.217.493-.326.803-.398l.838-.09c.328-.181.675-.543.82-.887.092-.289.037-.488-.145-.723-.329-.452-.857-.65-1.386-.705-.164-.018-.219.018-.255.127-.055.144-.091.307-.182.434-.037.09-.165.126-.256.072a.353.353 0 0 1-.164-.09c-.218.777-.346 1.663-.383 2.585-.036.868 0 1.718.128 2.513.146-.163.328-.398.42-.524.127-.127.364.072.328.199-.037.09-.11.199-.165.289-.036.108-.09.199-.09.271.109.163.364.217.674.181.455-.072 1.002-.325 1.403-.633.365-.29.675-.65.766-1.103.055-.217.091-.47-.036-.687zM22.98 11.265a3.723 3.723 0 0 1-1.622.814c-.456.108-1.094.162-1.477-.217-.11-.09-.273-.38-.11-.543.128.09.22.163.329.217.073.054.145.09.237.09-.018-1.247.054-3.652.09-4.863.02-.29-.017-.597 0-.886.037-.29.092-.579.329-.796.164-.054.31-.09.401.09-.091.326-.091.905-.11 1.538 0 .578 0 1.193-.018 1.627.256-.18.62-.325.967-.362.419-.036.857.037 1.203.235.547.29.875.922.73 1.573-.11.56-.493 1.085-.949 1.483zm.237-2.224c-.219-.343-.601-.47-1.02-.47-.42.018-.876.18-1.15.434l-.145 2.585a3.853 3.853 0 0 0 1.622-.777c.328-.271.638-.597.766-1.013.091-.253.073-.56-.073-.759zm3.792 3.236c-.456-.126-.456-.578-.51-.94-.274-2.06-.11-4.05.164-6.093.164-.253.455-.036.528.109.018.416 0 .813-.054 1.23-.037.397-.092.813-.092 1.229-.018.705-.054 1.428-.036 2.151 0 .705.073 1.429.182 2.098.018.09-.09.216-.182.216zM34.31 1.14c-.401.145-.839.235-1.24.38-.73.235-1.221.542-1.732 1.103-.51.542-.838 1.193-1.13 1.88-.292.705-.492 1.483-.711 2.224.656-.452 1.422-.85 2.224-.977a3.01 3.01 0 0 1 2.115.416c.656.416 1.093 1.14 1.276 1.899.182.813.11 1.573-.31 2.296a3.651 3.651 0 0 1-1.623 1.519c-.583.289-1.349.38-2.041.27-.803-.108-1.44-.47-1.915-1.102-.51-.687-.656-1.519-.638-2.369.037-1.175.383-2.44.693-3.399.383-1.157.93-2.422 1.878-3.326a4.38 4.38 0 0 1 1.586-.977c.4-.126.82-.217 1.24-.343.4-.127.783-.29 1.13-.579.11-.018.291 0 .328.109.073.108.073.253 0 .343-.346.308-.73.506-1.13.633zm-.037 6.437a2.035 2.035 0 0 0-1.24-1.085c-.528-.181-1.203-.145-1.731.018-.73.217-1.404.65-1.988 1.175-.163.796-.145 1.754.128 2.477.128.362.383.687.711.94.547.434 1.112.488 1.805.416.747-.072 1.422-.416 1.969-.976.437-.434.62-.868.638-1.5a3.195 3.195 0 0 0-.292-1.465zM38.904 12.187c-.911-.036-1.75-.452-2.278-1.23-.438-.65-.547-1.41-.456-2.151.11-.832.456-1.627.93-2.242.528-.687 1.276-1.23 2.133-1.392.583-.109 1.203-.054 1.64.416.2.217.383.452.383.741.018.307-.127.579-.383.777-1.276 1.05-2.625 2.025-4.01 2.821.036.56.528 1.14 1.057 1.428.529.29 1.148.326 1.732.253a5.06 5.06 0 0 0 1.604-.452c.073-.054.128 0 .146.055.018.036.055.108-.018.162-.638.579-1.55.85-2.48.814zm.802-6.455c-.528 0-1.057.217-1.476.543-.893.723-1.422 1.88-1.422 3.001 1.294-.705 2.516-1.627 3.7-2.585.092-.073.165-.344.037-.56-.146-.29-.474-.399-.839-.399zM43.08 5.95h-.09a.15.15 0 0 1-.146-.127.442.442 0 0 1 .145-.38c.292-.253.62-.362.985-.343.255.018.51.054.766.144l.692.235c.985.326 1.842 1.194 2.316 2.134.255.524.346 1.066.218 1.663-.127.543-.456 1.049-.893 1.465-1.094 1.03-2.461 1.338-3.974 1.338-.018 1.229-.091 2.603.073 3.814a.38.38 0 0 0 .073.181c.018.09.054.163-.019.271-.145.109-.291.073-.419 0a1.042 1.042 0 0 1-.273-.668c-.128-1.284-.073-2.532 0-3.833-.164-.145-.42-.344-.474-.561 0-.072.018-.145.054-.18.055-.091.128-.11.164-.073.055.054.165.127.256.18.11-1.807.237-3.525.547-5.26zm3.61 1.175c-.4-.489-.966-.832-1.513-1.067-.31-.145-1.185-.47-1.513-.326.018.254-.018.706-.055.904a31.874 31.874 0 0 0-.437 4.81 4.663 4.663 0 0 0 3.427-1.121c.529-.452.839-1.085.784-1.736-.037-.542-.383-1.085-.693-1.464zM54.48 12.169c-.382-.434-.491-1.013-.582-1.573-.183-1.302-.146-2.694-.183-4.05-1.112 1.573-1.987 3.164-3.044 4.954-.11.127-.164.217-.347.29-.164 0-.31-.019-.437-.2-.875-1.609-1.04-3.58-.912-5.532 0-.127.037-.344.183-.398.237-.072.419.127.419.271-.11 1.808.091 3.526.693 5.08.638-1.084 1.148-1.988 1.695-2.874a34.026 34.026 0 0 1 1.933-2.82c.145-.109.346-.037.419.108.055 1.736.036 3.435.182 5.099.037.542.164 1.066.2 1.573 0 .072-.163.144-.218.072zM61.188 5.95c-.474-.11-.948-.218-1.44-.236-.402.507-.602 1.103-.712 1.736-.127.65-.109 1.338-.145 2.007-.037.904.036 1.772.145 2.622-.054.108-.218.18-.346.108-.31-.38-.383-.868-.401-1.356-.018-1.085-.037-2.224.127-3.29.11-.688.31-1.32.73-1.899-1.13-.054-2.17.18-3.209.47a.575.575 0 0 1-.4-.253c-.037-.127.036-.199.108-.235l.11-.036.091-.036c.766-.308 1.696-.47 2.589-.489.911-.036 1.823.055 2.625.344a.734.734 0 0 1 .31.271c.018.127-.073.29-.182.271zM64.79 12.187c-.912-.036-1.75-.452-2.279-1.23-.437-.65-.547-1.41-.456-2.151.11-.832.456-1.627.93-2.242.529-.687 1.276-1.23 2.133-1.392.584-.109 1.203-.054 1.64.416.201.217.384.452.384.741.018.307-.128.579-.383.777-1.276 1.05-2.625 2.025-4.01 2.821.036.56.528 1.14 1.057 1.428.528.29 1.148.326 1.731.253a5.06 5.06 0 0 0 1.605-.452c.073-.054.127 0 .146.055.018.036.054.108-.019.162-.638.579-1.55.85-2.479.814zm.802-6.455c-.528 0-1.057.217-1.477.543-.893.723-1.421 1.88-1.421 3.001 1.294-.705 2.515-1.627 3.7-2.585.091-.073.164-.344.037-.56-.146-.29-.474-.399-.839-.399zM76.738 11.699c-.547.361-1.221.65-1.896.65-.383 0-.656-.162-.911-.524-.091.073-.255.127-.328.019-.329-.452-.42-1.085-.438-1.7-.036-1.573-.018-2.73.401-4.14.037-.145.383-.416.638-.344.11-.29.401-.597.748-.633.93 0 1.932.488 2.242 1.41.091.29.091.597-.018.886-.11.272-.292.507-.529.688l-.11.09c.456.145.967.434 1.258.886.22.343.237.76.146 1.157-.164.65-.638 1.175-1.203 1.555zm.51-2.405c-.145-.271-.546-.434-.838-.578-.346-.217-.656-.127-1.003-.055l-.546.127a1.2 1.2 0 0 1-.62 0c-.091-.054-.2-.235-.11-.325.219-.217.493-.326.802-.398l.839-.09c.328-.181.674-.543.82-.887.091-.289.037-.488-.145-.723-.329-.452-.857-.65-1.386-.705-.164-.018-.219.018-.255.127-.055.144-.091.307-.182.434-.037.09-.165.126-.256.072a.353.353 0 0 1-.164-.09c-.219.777-.346 1.663-.383 2.585-.036.868 0 1.718.128 2.513.146-.163.328-.398.42-.524.127-.127.364.072.327.199-.036.09-.109.199-.164.289-.036.108-.09.199-.09.271.109.163.364.217.674.181.455-.072 1.002-.325 1.403-.633.365-.29.675-.65.766-1.103.055-.217.091-.47-.036-.687zM82.29 12.115c-1.002.27-2.169.253-2.953-.416-.364-.307-.638-.76-.656-1.248-.018-.434.164-.831.42-1.193.564-.795 1.549-1.338 2.497-1.446.4-.037.766.018 1.057.307.091.09 0 .271-.091.307H82.4c-.055 0-.128-.018-.182-.018-.128-.018-.237-.036-.31.018-.875.037-1.732.452-2.26 1.157-.238.308-.365.543-.329.923.037.506.42.886.948 1.066.748.272 1.677.109 2.388-.144.383-.145.73-.29 1.058-.525.073-.054.145 0 .182.09a.805.805 0 0 1 .018.2c-.255.488-1.276.831-1.622.922zm1.021-1.23c-.09.109-.255.09-.328.036-.182-.126-.182-.361-.182-.542.018-.307.073-.615.146-.94l.237-.995c.146-.65.237-1.301.036-1.844-.164-.47-.565-.94-1.057-.994-.42-.054-.839.09-1.185.343-.182.127-.583.47-.693.67-.018.072.019.198.091.27.073.073.019.29-.145.254-.128-.037-.274-.073-.383-.163a.436.436 0 0 1-.091-.542c.31-.525.747-.959 1.312-1.212a2.09 2.09 0 0 1 1.258-.18c.547.09 1.02.487 1.294.994.42.777.365 1.754.165 2.621-.183.742-.365 1.429-.475 2.224zM85.754 5.95h-.09a.15.15 0 0 1-.147-.127.442.442 0 0 1 .146-.38c.292-.253.62-.362.985-.343.255.018.51.054.766.144l.692.235c.985.326 1.842 1.194 2.316 2.134.255.524.346 1.066.218 1.663-.127.543-.456 1.049-.893 1.465-1.094 1.03-2.461 1.338-3.974 1.338-.019 1.229-.091 2.603.073 3.814a.38.38 0 0 0 .073.181c.018.09.054.163-.019.271-.146.109-.291.073-.419 0a1.042 1.042 0 0 1-.273-.668c-.128-1.284-.073-2.532 0-3.833-.165-.145-.42-.344-.474-.561 0-.072.018-.145.054-.18.055-.091.128-.11.164-.073.055.054.164.127.256.18.109-1.807.237-3.525.546-5.26zm3.61 1.175c-.401-.489-.966-.832-1.513-1.067-.31-.145-1.185-.47-1.513-.326.018.254-.018.706-.055.904a31.874 31.874 0 0 0-.437 4.81 4.663 4.663 0 0 0 3.427-1.121c.529-.452.839-1.085.784-1.736-.037-.542-.383-1.085-.693-1.464zM97.155 12.169c-.383-.434-.492-1.013-.584-1.573-.182-1.302-.145-2.694-.182-4.05-1.112 1.573-1.987 3.164-3.044 4.954-.11.127-.164.217-.347.29-.164 0-.31-.019-.437-.2-.875-1.609-1.04-3.58-.912-5.532 0-.127.037-.344.183-.398.237-.072.419.127.419.271-.11 1.808.091 3.526.693 5.08.638-1.084 1.148-1.988 1.695-2.874a34.026 34.026 0 0 1 1.933-2.82c.145-.109.346-.037.419.108.055 1.736.036 3.435.182 5.099.037.542.164 1.066.2 1.573 0 .072-.163.144-.218.072zM101.856 12.115c-1.003.27-2.17.253-2.953-.416-.365-.307-.638-.76-.657-1.248-.018-.434.165-.831.42-1.193.565-.795 1.549-1.338 2.497-1.446.401-.037.766.018 1.058.307.091.09 0 .271-.091.307h-.164c-.055 0-.128-.018-.183-.018-.127-.018-.237-.036-.31.018-.875.037-1.732.452-2.26 1.157-.237.308-.365.543-.328.923.036.506.419.886.948 1.066.747.272 1.677.109 2.388-.144.383-.145.729-.29 1.057-.525.073-.054.146 0 .182.09a.772.772 0 0 1 .019.2c-.256.488-1.276.831-1.623.922zm1.021-1.23c-.091.109-.255.09-.328.036-.182-.126-.182-.361-.182-.542.018-.307.073-.615.145-.94l.237-.995c.146-.65.237-1.301.037-1.844-.164-.47-.565-.94-1.057-.994-.42-.054-.839.09-1.185.343-.183.127-.584.47-.693.67-.018.072.018.198.091.27.073.073.018.29-.146.254-.128-.037-.273-.073-.383-.163a.436.436 0 0 1-.09-.542c.309-.525.747-.959 1.312-1.212a2.09 2.09 0 0 1 1.258-.18c.547.09 1.02.487 1.294.994.419.777.365 1.754.164 2.621-.182.742-.365 1.429-.474 2.224zM110.005 8.1c-.127 1.285-.054 2.785.037 4.05.018.127-.164.146-.256.091-.255-.199-.382-.723-.401-1.048a27.156 27.156 0 0 1 0-2.966c-1.349.055-2.807.019-4.138.163-.055 1.212-.018 2.369.037 3.526.018.036-.055.09-.146.108a.306.306 0 0 1-.201-.072c-.237-.235-.291-.669-.31-.958-.091-1.826.037-3.652.219-5.442.037-.109.201-.217.346-.127.201.09.201.325.237.506-.036.47-.091 1.266-.145 1.826 1.33-.09 2.807-.036 4.138-.054.073-.886.109-1.772.328-2.603.091-.109.273-.037.383.072.091.108.146.325.146.452-.091.687-.219 1.356-.237 2.061.054 0 .109-.018.164-.018.036 0 .091.036.091.127 0 .036 0 .108-.037.144-.054.073-.164.127-.255.163zM116.858 5.95c-.474-.11-.948-.218-1.44-.236-.402.507-.602 1.103-.711 1.736-.128.65-.11 1.338-.146 2.007-.037.904.036 1.772.146 2.622-.055.108-.219.18-.347.108-.31-.38-.383-.868-.401-1.356-.018-1.085-.036-2.224.128-3.29.109-.688.31-1.32.729-1.899-1.13-.054-2.17.18-3.209.47a.577.577 0 0 1-.401-.253c-.036-.127.037-.199.11-.235l.109-.036.091-.036c.766-.308 1.696-.47 2.589-.489.911-.036 1.823.055 2.625.344a.737.737 0 0 1 .31.271c.018.127-.073.29-.182.271zM119.056 14.881c-.091.054-.2-.036-.2-.127.365-.614 1.021-2.133.93-2.838-.201.018-.401.072-.584.054-.255-.036-.383-.199-.419-.434-.036-.271.091-.56.237-.777a.854.854 0 0 1 .583-.344c.584-.072.875.434.894.94.036 1.013-.547 2.46-1.441 3.526zM134.017 12.15c-.875-.487-1.768-.83-2.698-1.156a42.503 42.503 0 0 1-2.662-1.03c-.018.65.073 1.319.237 1.916.055.108.019.307-.146.307-.145 0-.237-.09-.291-.18-.055-.073-.091-.181-.146-.272-.201-.65-.274-1.356-.274-2.08a.411.411 0 0 1-.164-.18c-.054-.054-.073-.163-.018-.253a.503.503 0 0 0 .164-.235c.037-.235.018-.778.073-1.013.073-.415.182-.922.292-1.428.127-.506.31-1.013.547-1.446.109-.181.383-.145.437.054-.018.235-.091.452-.164.669-.055.199-.164.416-.219.633a8.282 8.282 0 0 0-.31 2.007 32.668 32.668 0 0 1 1.988-1.628c.838-.614 1.731-1.139 2.679-1.518.146 0 .329 0 .438.09.109.072.109.18.055.307-.967.398-1.842.922-2.735 1.537a23.214 23.214 0 0 0-2.461 2.025v.018c.893.488 1.878.814 2.826 1.14.838.289 1.64.614 2.406 1.102.164.09.292.217.383.38.018.108-.128.253-.237.235zM140.776 11.952c-.237.018-.401-.235-.51-.416a10.97 10.97 0 0 1-.966-2.224c-.31-.958-.474-1.934-.547-2.983-.547.832-1.459 2.35-2.024 3.164a35.06 35.06 0 0 0-1.641 2.658c-.054.127-.255.036-.328-.072-.091-.163-.055-.38-.018-.543.109-.163.31-.578.419-.813 1.185-1.79 2.425-3.617 3.519-5.406.127-.127.565-.2.601.144.091 1.103.256 2.206.511 3.255a12.953 12.953 0 0 0 1.13 2.965c.018.054 0 .253-.146.271zM147.359 12.169c-.382-.434-.492-1.013-.583-1.573-.182-1.302-.146-2.694-.182-4.05-1.112 1.573-1.987 3.164-3.045 4.954-.109.127-.164.217-.346.29-.164 0-.31-.019-.438-.2-.875-1.609-1.039-3.58-.911-5.532 0-.127.036-.344.182-.398.237-.072.419.127.419.271-.109 1.808.092 3.526.693 5.08.638-1.084 1.149-1.988 1.696-2.874a33.918 33.918 0 0 1 1.932-2.82c.146-.109.346-.037.419.108.055 1.736.037 3.435.183 5.099.036.542.164 1.066.2 1.573 0 .072-.164.144-.219.072zM154.704 12.15c-.875-.487-1.768-.83-2.698-1.156a42.745 42.745 0 0 1-2.662-1.03c-.018.65.073 1.319.237 1.916.055.108.019.307-.145.307-.146 0-.237-.09-.292-.18-.055-.073-.091-.181-.146-.272-.201-.65-.273-1.356-.273-2.08a.4.4 0 0 1-.164-.18c-.055-.054-.073-.163-.019-.253a.503.503 0 0 0 .164-.235c.037-.235.019-.778.073-1.013.073-.415.183-.922.292-1.428.128-.506.31-1.013.547-1.446.109-.181.383-.145.437.054-.018.235-.091.452-.164.669-.054.199-.164.416-.218.633a8.185 8.185 0 0 0-.31 2.007 32.348 32.348 0 0 1 1.987-1.628c.838-.614 1.732-1.139 2.68-1.518.145 0 .328 0 .437.09.11.072.11.18.055.307-.966.398-1.841.922-2.735 1.537a23.214 23.214 0 0 0-2.461 2.025v.018c.893.488 1.878.814 2.826 1.14.838.289 1.641.614 2.406 1.102.164.09.292.217.383.38.018.108-.127.253-.237.235zM161.153 8.1c-.127 1.285-.054 2.785.037 4.05.018.127-.164.146-.255.091-.256-.199-.383-.723-.401-1.048a26.663 26.663 0 0 1 0-2.966c-1.349.055-2.808.019-4.139.163-.054 1.212-.018 2.369.037 3.526.018.036-.055.09-.146.108a.306.306 0 0 1-.201-.072c-.237-.235-.291-.669-.31-.958-.091-1.826.037-3.652.219-5.442.037-.109.201-.217.347-.127.2.09.2.325.237.506-.037.47-.092 1.266-.146 1.826 1.331-.09 2.807-.036 4.138-.054.073-.886.109-1.772.328-2.603.091-.109.274-.037.383.072.091.108.146.325.146.452-.091.687-.219 1.356-.237 2.061.055 0 .109-.018.164-.018.036 0 .091.036.091.127 0 .036 0 .108-.036.144a.618.618 0 0 1-.256.163zM166.693 10.686c-.857 1.845-1.531 3.743-2.187 5.66-.055.108-.31.144-.365 0-.091-.163-.036-.597 0-.76.292-1.23.82-2.368 1.258-3.544a38.57 38.57 0 0 1-1.714-2.766c-.638-1.175-1.166-2.405-1.367-3.76a.412.412 0 0 1 .219-.435c.109-.036.182.019.237.073a.75.75 0 0 1 .127.199c.183 1.085.547 2.097 1.003 3.055.51 1.03 1.112 2.007 1.787 2.984.419-.904.856-1.809 1.33-2.694a19.033 19.033 0 0 1 1.641-2.622c.128-.163.31-.344.474-.253.11.054.201.217.11.343a35.737 35.737 0 0 0-2.553 4.52zM173.569 11.699c-.547.361-1.221.65-1.896.65-.383 0-.656-.162-.912-.524-.091.073-.255.127-.328.019-.328-.452-.419-1.085-.437-1.7-.037-1.573-.018-2.73.401-4.14.036-.145.383-.416.638-.344.109-.29.401-.597.747-.633.93 0 1.933.488 2.243 1.41.091.29.091.597-.019.886a1.628 1.628 0 0 1-.528.688l-.11.09c.456.145.967.434 1.258.886.219.343.237.76.146 1.157-.164.65-.638 1.175-1.203 1.555zm.51-2.405c-.145-.271-.547-.434-.838-.578-.347-.217-.656-.127-1.003-.055l-.547.127a1.2 1.2 0 0 1-.62 0c-.091-.054-.2-.235-.109-.325.219-.217.492-.326.802-.398l.839-.09c.328-.181.674-.543.82-.887.091-.289.037-.488-.146-.723-.328-.452-.857-.65-1.385-.705-.164-.018-.219.018-.255.127-.055.144-.092.307-.183.434-.036.09-.164.126-.255.072a.35.35 0 0 1-.164-.09c-.219.777-.346 1.663-.383 2.585-.036.868 0 1.718.128 2.513.146-.163.328-.398.419-.524.128-.127.365.072.328.199-.036.09-.109.199-.164.289-.036.108-.091.199-.091.271.109.163.365.217.674.181.456-.072 1.003-.325 1.404-.633.365-.29.675-.65.766-1.103.055-.217.091-.47-.037-.687zM185.945 11.59c0 .145-.164.181-.255.163-.2-.072-.237-.398-.273-.578-.055-.326-.055-.651-.055-.995V9.077c0-.85.109-1.772.128-2.64a.733.733 0 0 0-.474-.289c-.201-.054-.438-.072-.638-.126-.73-.109-1.459-.217-2.225-.181-.091.795-.309 1.537-.419 2.332-.164 1.175-.31 2.278-.237 3.526 0 .145.037.361-.109.47-.073.072-.274.072-.365-.018a.703.703 0 0 1-.146-.362c-.018-.126 0-.27-.018-.416-.018-1.898.292-3.67.675-5.514-.092.018-.183.036-.274.018-.164-.09-.127-.253-.055-.325.073-.145.201-.2.329-.235.127-.037.273-.073.401-.073 1.239-.09 2.552.09 3.682.452.219.127.529.271.547.56-.164 1.736-.2 3.526-.219 5.334zM191.403 11.753c-.821.416-1.805.597-2.698.163a2.768 2.768 0 0 1-1.422-1.646c-.274-.85-.183-1.807.182-2.603a4.06 4.06 0 0 1 1.185-1.465c.328-.235.82-.524 1.276-.578.365-.416.966-.543 1.477-.416.875.235 1.622 1.121 1.859 1.898.237.76.292 1.592.073 2.369-.273 1.049-.966 1.808-1.932 2.278zm1.258-4.448c-.219-.596-.711-1.265-1.35-1.482-.291-.109-.601-.145-.838.036-.237.18-.383.47-.492.723-.019.054-.019.127-.019.199 0 .072 0 .163-.018.235-.018.036-.2.145-.255.036a3.03 3.03 0 0 1-.055-.741c-.692.29-1.276.886-1.604 1.555-.346.705-.365 1.519-.146 2.242.182.56.529 1.03 1.112 1.265.729.272 1.513.181 2.17-.144.747-.38 1.276-.958 1.531-1.736.237-.687.201-1.5-.036-2.188zM204.931 8.1c-.128 1.285-.055 2.785.037 4.05.018.127-.165.146-.256.091-.255-.199-.383-.723-.401-1.048a27.156 27.156 0 0 1 0-2.966c-1.349.055-2.807.019-4.138.163-.055 1.212-.018 2.369.036 3.526.019.036-.054.09-.145.108a.306.306 0 0 1-.201-.072c-.237-.235-.292-.669-.31-.958-.091-1.826.037-3.652.219-5.442.036-.109.2-.217.346-.127.201.09.201.325.237.506-.036.47-.091 1.266-.146 1.826 1.331-.09 2.808-.036 4.139-.054.073-.886.109-1.772.328-2.603.091-.109.273-.037.383.072.091.108.146.325.146.452-.092.687-.219 1.356-.237 2.061.054 0 .109-.018.164-.018.036 0 .091.036.091.127 0 .036 0 .108-.037.144-.054.073-.164.127-.255.163zM209.013 12.187c-.912-.036-1.751-.452-2.279-1.23-.438-.65-.547-1.41-.456-2.151a4.75 4.75 0 0 1 .93-2.242c.528-.687 1.276-1.23 2.133-1.392.583-.109 1.203-.054 1.64.416.201.217.383.452.383.741.018.307-.127.579-.383.777-1.276 1.05-2.625 2.025-4.01 2.821.036.56.528 1.14 1.057 1.428.529.29 1.149.326 1.732.253a5.058 5.058 0 0 0 1.604-.452c.073-.054.128 0 .146.055.018.036.055.108-.018.162-.638.579-1.55.85-2.479.814zm.802-6.455c-.529 0-1.058.217-1.477.543-.893.723-1.422 1.88-1.422 3.001 1.294-.705 2.516-1.627 3.701-2.585.091-.073.164-.344.036-.56-.146-.29-.474-.399-.838-.399zM221.137 12.187a.342.342 0 0 1-.255-.18l-.055-.091c-.674-1.447-.966-3.074-.984-4.791-.237.578-.474 1.139-.748 1.7-.31.632-.656 1.247-1.148 1.825-.219.271-.638.308-.966.235-.274-.126-.456-.434-.584-.687-.693-1.32-1.021-2.802-1.367-4.249 0-.018-.018-.036-.036-.018-1.131 1.646-1.787 3.49-2.243 5.442-.073.181.091.344.11.525.036.108-.037.217-.183.271-.2.018-.364-.145-.455-.29-.128-.307-.11-.65-.019-.958.602-1.952 1.222-3.887 2.498-5.586a.57.57 0 0 1 .474-.073c.182 0 .346.181.364.308.402 1.555.73 3.146 1.514 4.556.109.145.255.235.419.18.419-.397.693-.885.966-1.373.547-.995.93-2.043 1.349-3.128l.091-.127c.055-.054.091-.09.183-.09.182-.054.309.072.382.199-.036 1.12-.018 2.17.11 3.2.127 1.03.364 2.043.747 3.02.018.126-.109.18-.164.18zM226.333 10.686c-.856 1.845-1.531 3.743-2.187 5.66-.055.108-.31.144-.365 0-.091-.163-.036-.597 0-.76.292-1.23.821-2.368 1.258-3.544a38.57 38.57 0 0 1-1.714-2.766c-.638-1.175-1.166-2.405-1.367-3.76a.412.412 0 0 1 .219-.435c.109-.036.182.019.237.073.055.054.091.126.128.199.182 1.085.546 2.097 1.002 3.055a23.941 23.941 0 0 0 1.787 2.984c.419-.904.857-1.809 1.331-2.694a19.025 19.025 0 0 1 1.64-2.622c.128-.163.31-.344.474-.253.11.054.201.217.11.343a35.986 35.986 0 0 0-2.553 4.52z" fill="#fff"/></svg>