<svg width="229" height="17" viewBox="0 0 229 17" fill="none" xmlns="http://www.w3.org/2000/svg">
<path d="M5.33469 3.87011C5.24354 3.97859 5.15239 4.06899 5.00655 4.1594C4.82424 4.17748 4.6784 4.1594 4.55079 4.08707C4.14972 3.90627 3.69396 3.61699 3.36582 3.38194C3.34759 3.96051 3.2929 4.55716 3.36582 5.11765C3.32936 5.40694 3.00121 5.28038 2.96475 5.20805C2.92829 5.17189 2.89183 5.13573 2.8736 5.08149C2.83714 5.04533 2.80068 4.99109 2.78245 4.93685C2.74599 4.77413 2.74599 4.6114 2.74599 4.46676C2.76422 4.1594 2.78245 3.83395 2.78245 3.52658C2.36315 3.92435 1.8527 4.26788 1.30579 4.46676C1.17818 4.48484 0.977645 4.48484 0.831803 4.35828C0.613039 4.17748 0.813572 3.87011 1.0688 3.70739L1.19641 3.94243C1.32402 3.90627 1.45163 3.81587 1.57925 3.76163C1.96208 3.52658 2.34492 3.18306 2.65484 2.83953C2.07147 2.36944 1.48809 1.79087 0.995876 1.26654C0.868263 1.15806 0.922954 0.995338 0.977645 0.904936C1.14172 0.687972 1.39694 0.832615 1.45163 0.886856C1.87093 1.33886 2.30846 1.77279 2.76422 2.18864C2.76422 1.70047 2.78245 1.2123 2.74599 0.760294L2.60014 0.344446C2.58191 0.235964 2.65484 -0.017161 2.89183 0.000920125C3.0559 0.0551604 3.14705 0.181723 3.21997 0.326366L3.27467 0.452928C3.32936 0.579491 3.36582 0.814534 3.36582 0.941097V1.93552L3.42051 1.84511L3.80335 1.33886C3.93096 1.15806 4.11326 1.01342 4.33203 0.886856C4.62371 0.724133 5.17062 0.886856 5.00655 1.42927C4.87893 1.41119 4.84247 1.3931 4.78778 1.37502C4.75132 1.37502 4.71486 1.35694 4.64194 1.33886C4.53256 1.3027 4.16795 1.79087 4.11326 1.86319C3.8945 2.15248 3.71219 2.45984 3.4752 2.76721C3.91273 3.09266 4.38672 3.38194 4.9154 3.63507C4.95186 3.58083 4.98832 3.56274 5.02478 3.54466C5.06124 3.5085 5.0977 3.49042 5.22531 3.43618C5.37115 3.58083 5.38938 3.68931 5.37115 3.76163C5.35292 3.79779 5.33469 3.81587 5.33469 3.87011Z" fill="white"/>
<path d="M12.4203 3.87011C12.3292 3.97859 12.238 4.06899 12.0922 4.1594C11.9099 4.17748 11.764 4.1594 11.6364 4.08707C11.2353 3.90627 10.7796 3.61699 10.4514 3.38194C10.4332 3.96051 10.3785 4.55716 10.4514 5.11765C10.415 5.40694 10.0868 5.28038 10.0504 5.20805C10.0139 5.17189 9.97744 5.13573 9.95921 5.08149C9.92275 5.04533 9.88629 4.99109 9.86806 4.93685C9.8316 4.77413 9.8316 4.6114 9.8316 4.46676C9.84983 4.1594 9.86806 3.83395 9.86806 3.52658C9.44876 3.92435 8.93831 4.26788 8.3914 4.46676C8.26379 4.48484 8.06326 4.48484 7.91742 4.35828C7.69865 4.17748 7.89919 3.87011 8.15441 3.70739L8.28202 3.94243C8.40964 3.90627 8.53725 3.81587 8.66486 3.76163C9.0477 3.52658 9.43053 3.18306 9.74045 2.83953C9.15708 2.36944 8.57371 1.79087 8.08149 1.26654C7.95388 1.15806 8.00857 0.995338 8.06326 0.904936C8.22733 0.687972 8.48256 0.832615 8.53725 0.886856C8.95655 1.33886 9.39407 1.77279 9.84983 2.18864C9.84983 1.70047 9.86806 1.2123 9.8316 0.760294L9.68576 0.344446C9.66753 0.235964 9.74045 -0.017161 9.97744 0.000920125C10.1415 0.0551604 10.2327 0.181723 10.3056 0.326366L10.3603 0.452928C10.415 0.579491 10.4514 0.814534 10.4514 0.941097V1.93552L10.5061 1.84511L10.889 1.33886C11.0166 1.15806 11.1989 1.01342 11.4176 0.886856C11.7093 0.724133 12.2562 0.886856 12.0922 1.42927C11.9645 1.41119 11.9281 1.3931 11.8734 1.37502C11.8369 1.37502 11.8005 1.35694 11.7276 1.33886C11.6182 1.3027 11.2536 1.79087 11.1989 1.86319C10.9801 2.15248 10.7978 2.45984 10.5608 2.76721C10.9983 3.09266 11.4723 3.38194 12.001 3.63507C12.0375 3.58083 12.0739 3.56274 12.1104 3.54466C12.1469 3.5085 12.1833 3.49042 12.3109 3.43618C12.4568 3.58083 12.475 3.68931 12.4568 3.76163C12.4385 3.79779 12.4203 3.81587 12.4203 3.87011Z" fill="white"/>
<path d="M17.7923 11.6989C17.2454 12.0605 16.5708 12.3498 15.8963 12.3498C15.5135 12.3498 15.24 12.1871 14.9848 11.8255C14.8936 11.8978 14.7296 11.952 14.6567 11.8435C14.3285 11.3915 14.2374 10.7587 14.2191 10.144C14.1827 8.571 14.2009 7.41386 14.6202 6.00359C14.6567 5.85895 15.003 5.58774 15.2583 5.66006C15.3676 5.37078 15.6593 5.06341 16.0057 5.02725C16.9354 5.02725 17.9381 5.51542 18.248 6.43752C18.3392 6.7268 18.3392 7.03417 18.2298 7.32345C18.1204 7.59466 17.9381 7.8297 17.7011 8.01051L17.5917 8.10091C18.0475 8.24555 18.5579 8.53484 18.8496 8.98684C19.0684 9.33037 19.0866 9.74622 18.9955 10.144C18.8314 10.7949 18.3574 11.3192 17.7923 11.6989ZM18.3027 9.29421C18.1569 9.023 17.7558 8.86028 17.4641 8.71564C17.1177 8.49868 16.8078 8.58908 16.4615 8.6614L15.9145 8.78796C15.714 8.8422 15.5135 8.8422 15.2947 8.78796C15.2036 8.73372 15.0942 8.55292 15.1853 8.46251C15.4041 8.24555 15.6776 8.13707 15.9875 8.06475L16.8261 7.97435C17.1542 7.79354 17.5006 7.43194 17.6464 7.08841C17.7376 6.79912 17.6829 6.60024 17.5006 6.3652C17.1724 5.91319 16.6438 5.7143 16.1151 5.66006C15.951 5.64198 15.8963 5.67814 15.8599 5.78663C15.8052 5.93127 15.7687 6.09399 15.6776 6.22055C15.6411 6.31096 15.5135 6.34712 15.4223 6.29287C15.3494 6.27479 15.2947 6.23863 15.2583 6.20247C15.0395 6.97993 14.9119 7.86586 14.8754 8.78796C14.839 9.65582 14.8754 10.5056 15.003 11.3011C15.1489 11.1384 15.3312 10.9034 15.4223 10.7768C15.5499 10.6502 15.7869 10.8491 15.7505 10.9757C15.714 11.0661 15.6411 11.1746 15.5864 11.265C15.5499 11.3734 15.4952 11.4638 15.4952 11.5362C15.6046 11.6989 15.8599 11.7531 16.1698 11.717C16.6255 11.6447 17.1724 11.3915 17.5735 11.0842C17.9381 10.7949 18.248 10.4333 18.3392 9.98126C18.3939 9.7643 18.4303 9.51117 18.3027 9.29421Z" fill="white"/>
<path d="M22.9801 11.265C22.5061 11.6808 21.9227 11.952 21.3576 12.0786C20.9018 12.1871 20.2638 12.2413 19.8809 11.8616C19.7715 11.7712 19.6075 11.4819 19.7715 11.3192C19.8992 11.4096 19.9903 11.4819 20.0997 11.5362C20.1726 11.5904 20.2455 11.6266 20.3367 11.6266C20.3185 10.379 20.3914 7.97435 20.4278 6.76296C20.4461 6.47368 20.4096 6.16631 20.4278 5.87703C20.4643 5.58774 20.519 5.29846 20.756 5.08149C20.9201 5.02725 21.0659 4.99109 21.157 5.17189C21.0659 5.49734 21.0659 6.07591 21.0477 6.70872C21.0477 7.28729 21.0477 7.90202 21.0294 8.33595C21.2847 8.15515 21.6493 8.01051 21.9956 7.97435C22.4149 7.93818 22.8525 8.01051 23.1988 8.20939C23.7458 8.49868 24.0739 9.13149 23.9281 9.78238C23.8187 10.3429 23.4358 10.8672 22.9801 11.265ZM23.2171 9.04108C22.9983 8.69756 22.6155 8.571 22.1962 8.571C21.7769 8.58908 21.3211 8.7518 21.0477 9.00492L20.9018 11.5904C21.467 11.4638 22.0503 11.2107 22.5243 10.813C22.8525 10.5418 23.1624 10.2163 23.29 9.80046C23.3811 9.54733 23.3629 9.23997 23.2171 9.04108ZM27.009 12.2775C26.5532 12.1509 26.5532 11.6989 26.4985 11.3373C26.2251 9.27613 26.3891 7.28729 26.6626 5.24422C26.8267 4.99109 27.1184 5.20805 27.1913 5.3527C27.2095 5.76855 27.1913 6.16631 27.1366 6.58216C27.1001 6.97993 27.0454 7.39577 27.0454 7.81162C27.0272 8.51676 26.9908 9.23997 27.009 9.96318C27.009 10.6683 27.0819 11.3915 27.1913 12.0605C27.2095 12.1509 27.1001 12.2775 27.009 12.2775Z" fill="white"/>
<path d="M34.3097 1.13998C33.9086 1.28462 33.4711 1.37502 33.07 1.51967C32.3408 1.75471 31.8486 2.06208 31.3381 2.62257C30.8277 3.16498 30.4995 3.81587 30.2078 4.50292C29.9161 5.20805 29.7156 5.98551 29.4969 6.7268C30.1531 6.27479 30.9188 5.87703 31.7209 5.75046C32.4319 5.6239 33.2158 5.76855 33.8357 6.16631C34.492 6.58216 34.9295 7.30537 35.1118 8.06475C35.2941 8.87836 35.2212 9.63774 34.8019 10.3609C34.4373 11.0118 33.8721 11.5543 33.1794 11.8797C32.596 12.169 31.8303 12.2594 31.1376 12.1509C30.3354 12.0424 29.6974 11.6808 29.2234 11.048C28.7129 10.3609 28.5671 9.52925 28.5853 8.67948C28.6218 7.50426 28.9682 6.23863 29.2781 5.28038C29.6609 4.12323 30.2078 2.85761 31.1558 1.9536C31.6116 1.51967 32.1585 1.17614 32.7418 0.977257C33.1429 0.850695 33.5622 0.760294 33.9815 0.633731C34.3826 0.507169 34.7654 0.344446 35.1118 0.0551604C35.2212 0.0370803 35.4035 0.0551604 35.4399 0.163643C35.5129 0.272125 35.5129 0.416768 35.4399 0.507169C35.0936 0.814534 34.7107 1.01342 34.3097 1.13998ZM34.2732 7.57658C34.0362 7.05225 33.5622 6.65448 33.0335 6.49176C32.5049 6.31095 31.8303 6.34712 31.3017 6.50984C30.5724 6.7268 29.8979 7.16073 29.3145 7.68506C29.1505 8.48059 29.1687 9.43885 29.4422 10.1621C29.5698 10.5237 29.825 10.8491 30.1531 11.1022C30.7001 11.5362 31.2652 11.5904 31.9579 11.5181C32.7054 11.4458 33.3799 11.1022 33.9268 10.5418C34.3643 10.1078 34.5466 9.6739 34.5649 9.04108C34.5831 8.51676 34.4737 7.99243 34.2732 7.57658Z" fill="white"/>
<path d="M38.9044 12.1871C37.9929 12.1509 37.1543 11.7351 36.6256 10.9576C36.1881 10.3067 36.0787 9.54733 36.1699 8.80604C36.2792 7.97434 36.6256 7.17881 37.0996 6.56408C37.6283 5.87703 38.3757 5.33462 39.2326 5.17189C39.8159 5.06341 40.4358 5.11765 40.8733 5.58774C41.0738 5.80471 41.2561 6.03975 41.2561 6.32904C41.2743 6.6364 41.1285 6.90761 40.8733 7.10649C39.5972 8.15515 38.2481 9.13149 36.8626 9.92702C36.8991 10.4875 37.3913 11.0661 37.92 11.3554C38.4487 11.6447 39.0685 11.6808 39.6519 11.6085C40.2352 11.5543 40.8368 11.3554 41.2561 11.1565C41.329 11.1022 41.3837 11.1565 41.402 11.2107C41.4202 11.2469 41.4567 11.3192 41.3837 11.3734C40.7457 11.952 39.8342 12.2232 38.9044 12.1871ZM39.7065 5.73238C39.1779 5.73238 38.6492 5.94935 38.2299 6.27479C37.3366 6.99801 36.8079 8.15515 36.8079 9.27613C38.1023 8.571 39.3237 7.6489 40.5087 6.69064C40.5998 6.61832 40.6728 6.34712 40.5451 6.13015C40.3993 5.84087 40.0711 5.73238 39.7065 5.73238Z" fill="white"/>
<path d="M43.0806 5.94935H42.9894C42.9347 5.94935 42.8618 5.91319 42.8436 5.82279C42.8254 5.67814 42.88 5.55158 42.9894 5.4431C43.2811 5.18997 43.6093 5.08149 43.9739 5.09957C44.2291 5.11765 44.4843 5.15381 44.7395 5.24422L45.4323 5.47926C46.4167 5.80471 47.2736 6.67256 47.7475 7.61274C48.0028 8.13707 48.0939 8.67948 47.9663 9.27613C47.8387 9.81854 47.5105 10.3248 47.073 10.7406C45.9792 11.7712 44.6119 12.0786 43.0988 12.0786C43.0806 13.308 43.0077 14.6821 43.1717 15.8935C43.1717 15.9478 43.2082 16.0201 43.2446 16.0743C43.2629 16.1647 43.2993 16.2371 43.2264 16.3455C43.0806 16.454 42.9347 16.4179 42.8071 16.3455C42.6248 16.1467 42.5519 15.9297 42.5337 15.6766C42.4061 14.3929 42.4607 13.1453 42.5337 11.8435C42.3696 11.6989 42.1144 11.5 42.0597 11.283C42.0597 11.2107 42.0779 11.1384 42.1144 11.1022C42.1691 11.0118 42.242 10.9938 42.2784 11.0299C42.3331 11.0842 42.4425 11.1565 42.5337 11.2107C42.6431 9.40269 42.7707 7.68506 43.0806 5.94935ZM46.6902 7.12457C46.2891 6.6364 45.724 6.29287 45.1771 6.05783C44.8671 5.91319 43.9921 5.58774 43.6639 5.73238C43.6822 5.98551 43.6457 6.43752 43.6093 6.6364C43.354 8.17323 43.19 9.81854 43.1717 11.4458C44.4296 11.5362 45.6328 11.1565 46.599 10.3248C47.1277 9.87278 47.4376 9.23997 47.3829 8.58908C47.3465 8.04667 47.0001 7.50426 46.6902 7.12457Z" fill="white"/>
<path d="M54.4809 12.169C54.0981 11.7351 53.9887 11.1565 53.8976 10.596C53.7153 9.29421 53.7517 7.90202 53.7153 6.546C52.6032 8.11899 51.7282 9.71006 50.6708 11.5C50.5614 11.6266 50.5067 11.717 50.3244 11.7893C50.1603 11.7893 50.0145 11.7712 49.8869 11.5904C49.0118 9.98126 48.8478 8.01051 48.9754 6.05783C48.9754 5.93127 49.0118 5.7143 49.1577 5.66006C49.3947 5.58774 49.577 5.78663 49.577 5.93127C49.4676 7.7393 49.6681 9.45693 50.2697 11.0118C50.9078 9.92702 51.4182 9.023 51.9652 8.13707C52.5303 7.21497 53.1319 6.32904 53.8976 5.31654C54.0434 5.20805 54.2439 5.28038 54.3169 5.42502C54.3716 7.16073 54.3533 8.86028 54.4992 10.5237C54.5356 11.0661 54.6632 11.5904 54.6997 12.0967C54.6997 12.169 54.5356 12.2413 54.4809 12.169Z" fill="white"/>
<path d="M61.1876 5.94935C60.7136 5.84087 60.2396 5.73238 59.7474 5.7143C59.3463 6.22055 59.1458 6.8172 59.0364 7.45002C58.9088 8.10091 58.927 8.78796 58.8905 9.45693C58.8541 10.3609 58.927 11.2288 59.0364 12.0786C58.9817 12.1871 58.8176 12.2594 58.69 12.1871C58.3801 11.8074 58.3072 11.3192 58.2889 10.831C58.2707 9.74622 58.2525 8.60716 58.4165 7.54042C58.5259 6.85336 58.7265 6.22055 59.1458 5.64198C58.0155 5.58774 56.9764 5.82279 55.9372 6.11207C55.7914 6.09399 55.6273 6.00359 55.5362 5.85895C55.4997 5.73238 55.5726 5.66006 55.6455 5.6239L55.7549 5.58774L55.8461 5.55158C56.6118 5.24422 57.5415 5.08149 58.4348 5.06341C59.3463 5.02725 60.2578 5.11765 61.0599 5.40694C61.1511 5.4431 61.3152 5.56966 61.3699 5.67814C61.3881 5.80471 61.2969 5.96743 61.1876 5.94935Z" fill="white"/>
<path d="M64.79 12.1871C63.8785 12.1509 63.0399 11.7351 62.5112 10.9576C62.0737 10.3067 61.9643 9.54733 62.0555 8.80604C62.1649 7.97434 62.5113 7.17881 62.9852 6.56408C63.5139 5.87703 64.2614 5.33462 65.1182 5.17189C65.7016 5.06341 66.3214 5.11765 66.7589 5.58774C66.9594 5.80471 67.1418 6.03975 67.1418 6.32904C67.16 6.6364 67.0141 6.90761 66.7589 7.10649C65.4828 8.15515 64.1338 9.13149 62.7482 9.92702C62.7847 10.4875 63.2769 11.0661 63.8056 11.3554C64.3343 11.6447 64.9541 11.6808 65.5375 11.6085C66.1209 11.5543 66.7225 11.3554 67.1418 11.1565C67.2147 11.1022 67.2694 11.1565 67.2876 11.2107C67.3058 11.2469 67.3423 11.3192 67.2694 11.3734C66.6313 11.952 65.7198 12.2232 64.79 12.1871ZM65.5922 5.73238C65.0635 5.73238 64.5348 5.94935 64.1155 6.27479C63.2222 6.99801 62.6936 8.15515 62.6936 9.27613C63.9879 8.571 65.2093 7.6489 66.3943 6.69064C66.4855 6.61832 66.5584 6.34712 66.4308 6.13015C66.2849 5.84087 65.9568 5.73238 65.5922 5.73238Z" fill="white"/>
<path d="M76.7382 11.6989C76.1913 12.0605 75.5167 12.3498 74.8422 12.3498C74.4594 12.3498 74.1859 12.1871 73.9307 11.8255C73.8396 11.8978 73.6755 11.952 73.6026 11.8435C73.2744 11.3915 73.1833 10.7587 73.165 10.144C73.1286 8.571 73.1468 7.41386 73.5661 6.00359C73.6026 5.85895 73.9489 5.58774 74.2042 5.66006C74.3135 5.37078 74.6052 5.06341 74.9516 5.02725C75.8813 5.02725 76.884 5.51542 77.1939 6.43752C77.2851 6.7268 77.2851 7.03417 77.1757 7.32345C77.0663 7.59466 76.884 7.8297 76.647 8.01051L76.5376 8.10091C76.9934 8.24555 77.5038 8.53484 77.7955 8.98684C78.0143 9.33037 78.0325 9.74622 77.9414 10.144C77.7773 10.7949 77.3033 11.3192 76.7382 11.6989ZM77.2486 9.29421C77.1028 9.023 76.7017 8.86028 76.41 8.71564C76.0637 8.49868 75.7537 8.58908 75.4074 8.6614L74.8605 8.78796C74.6599 8.8422 74.4594 8.8422 74.2406 8.78796C74.1495 8.73372 74.0401 8.55292 74.1312 8.46251C74.35 8.24555 74.6235 8.13707 74.9334 8.06475L75.772 7.97435C76.1001 7.79354 76.4465 7.43194 76.5923 7.08841C76.6835 6.79912 76.6288 6.60024 76.4465 6.3652C76.1183 5.91319 75.5897 5.7143 75.061 5.66006C74.8969 5.64198 74.8422 5.67814 74.8058 5.78663C74.7511 5.93127 74.7146 6.09399 74.6235 6.22055C74.587 6.31096 74.4594 6.34712 74.3682 6.29287C74.2953 6.27479 74.2406 6.23863 74.2042 6.20247C73.9854 6.97993 73.8578 7.86586 73.8213 8.78796C73.7849 9.65582 73.8213 10.5056 73.9489 11.3011C74.0948 11.1384 74.2771 10.9034 74.3682 10.7768C74.4958 10.6502 74.7328 10.8491 74.6964 10.9757C74.6599 11.0661 74.587 11.1746 74.5323 11.265C74.4958 11.3734 74.4411 11.4638 74.4411 11.5362C74.5505 11.6989 74.8058 11.7531 75.1157 11.717C75.5714 11.6447 76.1183 11.3915 76.5194 11.0842C76.884 10.7949 77.1939 10.4333 77.2851 9.98126C77.3398 9.7643 77.3762 9.51117 77.2486 9.29421Z" fill="white"/>
<path d="M82.2906 12.1147C81.2879 12.3859 80.1212 12.3679 79.3373 11.6989C78.9727 11.3915 78.6992 10.9395 78.681 10.4514C78.6628 10.0174 78.8451 9.61965 79.1003 9.25805C79.6654 8.46251 80.6499 7.9201 81.5978 7.81162C81.9989 7.77546 82.3635 7.8297 82.6552 8.11899C82.7463 8.20939 82.6552 8.39019 82.564 8.42635H82.4C82.3453 8.42635 82.2724 8.40827 82.2177 8.40827C82.0901 8.39019 81.9807 8.37211 81.9078 8.42635C81.0327 8.46251 80.1759 8.87836 79.6472 9.58349C79.4102 9.89086 79.2826 10.1259 79.319 10.5056C79.3555 11.0118 79.7383 11.3915 80.267 11.5723C81.0145 11.8435 81.9442 11.6808 82.6552 11.4277C83.038 11.283 83.3844 11.1384 83.7125 10.9034C83.7855 10.8491 83.8584 10.9034 83.8949 10.9938C83.9131 11.0661 83.9131 11.1384 83.9131 11.1926C83.6579 11.6808 82.637 12.0243 82.2906 12.1147ZM83.3115 10.8853C83.2203 10.9938 83.0563 10.9757 82.9833 10.9214C82.801 10.7949 82.801 10.5598 82.801 10.379C82.8193 10.0717 82.874 9.7643 82.9469 9.43885L83.1839 8.44443C83.3297 7.79354 83.4209 7.14265 83.2203 6.60024C83.0563 6.13015 82.6552 5.66006 82.163 5.60582C81.7437 5.55158 81.3244 5.69622 80.978 5.94935C80.7957 6.07591 80.3946 6.41944 80.2853 6.61832C80.267 6.69064 80.3035 6.8172 80.3764 6.88953C80.4493 6.96185 80.3946 7.17881 80.2306 7.14265C80.103 7.10649 79.9571 7.07033 79.8477 6.97993C79.7019 6.85337 79.6472 6.61832 79.7566 6.43752C80.0665 5.91319 80.504 5.47926 81.0692 5.22614C81.4338 5.04533 81.8713 4.97301 82.327 5.04533C82.874 5.13573 83.3479 5.5335 83.6214 6.03975C84.0407 6.8172 83.986 7.79354 83.7855 8.6614C83.6032 9.40269 83.4209 10.0897 83.3115 10.8853Z" fill="white"/>
<path d="M85.7545 5.94935H85.6633C85.6087 5.94935 85.5357 5.91319 85.5175 5.82279C85.4993 5.67814 85.554 5.55158 85.6633 5.4431C85.955 5.18997 86.2832 5.08149 86.6478 5.09957C86.903 5.11765 87.1582 5.15381 87.4135 5.24422L88.1062 5.47926C89.0906 5.80471 89.9475 6.67256 90.4215 7.61274C90.6767 8.13707 90.7678 8.67948 90.6402 9.27613C90.5126 9.81854 90.1845 10.3248 89.7469 10.7406C88.6531 11.7712 87.2858 12.0786 85.7727 12.0786C85.7545 13.308 85.6816 14.6821 85.8456 15.8935C85.8456 15.9478 85.8821 16.0201 85.9186 16.0743C85.9368 16.1647 85.9733 16.2371 85.9003 16.3455C85.7545 16.454 85.6086 16.4179 85.481 16.3455C85.2987 16.1467 85.2258 15.9297 85.2076 15.6766C85.08 14.3929 85.1347 13.1453 85.2076 11.8435C85.0435 11.6989 84.7883 11.5 84.7336 11.283C84.7336 11.2107 84.7518 11.1384 84.7883 11.1022C84.843 11.0118 84.9159 10.9938 84.9524 11.0299C85.007 11.0842 85.1164 11.1565 85.2076 11.2107C85.317 9.40269 85.4446 7.68506 85.7545 5.94935ZM89.3641 7.12457C88.963 6.6364 88.3979 6.29287 87.851 6.05783C87.5411 5.91319 86.666 5.58774 86.3379 5.73238C86.3561 5.98551 86.3196 6.43752 86.2832 6.6364C86.0279 8.17323 85.8639 9.81854 85.8456 11.4458C87.1035 11.5362 88.3067 11.1565 89.2729 10.3248C89.8016 9.87278 90.1115 9.23997 90.0568 8.58908C90.0204 8.04667 89.674 7.50426 89.3641 7.12457Z" fill="white"/>
<path d="M97.1548 12.169C96.772 11.7351 96.6626 11.1565 96.5715 10.596C96.3892 9.29421 96.4256 7.90202 96.3892 6.546C95.2771 8.11899 94.4021 9.71006 93.3447 11.5C93.2353 11.6266 93.1806 11.717 92.9983 11.7893C92.8343 11.7893 92.6884 11.7712 92.5608 11.5904C91.6858 9.98126 91.5217 8.01051 91.6493 6.05783C91.6493 5.93127 91.6858 5.7143 91.8316 5.66006C92.0686 5.58774 92.2509 5.78663 92.2509 5.93127C92.1415 7.7393 92.342 9.45693 92.9436 11.0118C93.5817 9.92702 94.0922 9.023 94.6391 8.13707C95.2042 7.21497 95.8058 6.32904 96.5715 5.31654C96.7173 5.20805 96.9179 5.28038 96.9908 5.42502C97.0455 7.16073 97.0272 8.86028 97.1731 10.5237C97.2095 11.0661 97.3372 11.5904 97.3736 12.0967C97.3736 12.169 97.2095 12.2413 97.1548 12.169Z" fill="white"/>
<path d="M101.856 12.1147C100.853 12.3859 99.6867 12.3679 98.9028 11.6989C98.5382 11.3915 98.2648 10.9395 98.2465 10.4514C98.2283 10.0174 98.4106 9.61965 98.6658 9.25805C99.231 8.46251 100.215 7.9201 101.163 7.81162C101.564 7.77546 101.929 7.8297 102.221 8.11899C102.312 8.20939 102.221 8.39019 102.13 8.42635H101.966C101.911 8.42635 101.838 8.40827 101.783 8.40827C101.656 8.39019 101.546 8.37211 101.473 8.42635C100.598 8.46251 99.7414 8.87836 99.2127 9.58349C98.9757 9.89086 98.8481 10.1259 98.8846 10.5056C98.9211 11.0118 99.3039 11.3915 99.8326 11.5723C100.58 11.8435 101.51 11.6808 102.221 11.4277C102.604 11.283 102.95 11.1384 103.278 10.9034C103.351 10.8491 103.424 10.9034 103.46 10.9938C103.479 11.0661 103.479 11.1384 103.479 11.1926C103.223 11.6808 102.203 12.0243 101.856 12.1147ZM102.877 10.8853C102.786 10.9938 102.622 10.9757 102.549 10.9214C102.367 10.7949 102.367 10.5598 102.367 10.379C102.385 10.0717 102.44 9.7643 102.512 9.43885L102.749 8.44443C102.895 7.79354 102.986 7.14265 102.786 6.60024C102.622 6.13015 102.221 5.66006 101.729 5.60582C101.309 5.55158 100.89 5.69622 100.544 5.94935C100.361 6.07591 99.9602 6.41944 99.8508 6.61832C99.8326 6.69064 99.869 6.8172 99.942 6.88953C100.015 6.96185 99.9602 7.17881 99.7961 7.14265C99.6685 7.10649 99.5227 7.07033 99.4133 6.97993C99.2674 6.85337 99.2127 6.61832 99.3221 6.43752C99.632 5.91319 100.07 5.47926 100.635 5.22614C100.999 5.04533 101.437 4.97301 101.893 5.04533C102.44 5.13573 102.913 5.5335 103.187 6.03975C103.606 6.8172 103.552 7.79354 103.351 8.6614C103.169 9.40269 102.986 10.0897 102.877 10.8853Z" fill="white"/>
<path d="M110.005 8.10091C109.878 9.38461 109.951 10.8853 110.042 12.1509C110.06 12.2775 109.878 12.2955 109.786 12.2413C109.531 12.0424 109.404 11.5181 109.385 11.1926C109.331 10.1801 109.331 9.23997 109.385 8.22747C108.036 8.28171 106.578 8.24555 105.247 8.39019C105.192 9.60157 105.229 10.7587 105.284 11.9159C105.302 11.952 105.229 12.0063 105.138 12.0243C105.083 12.0243 104.992 12.0063 104.937 11.952C104.7 11.717 104.646 11.283 104.627 10.9938C104.536 9.16765 104.664 7.34153 104.846 5.55158C104.883 5.4431 105.047 5.33462 105.192 5.42502C105.393 5.51542 105.393 5.75046 105.429 5.93127C105.393 6.40136 105.338 7.19689 105.284 7.75738C106.614 7.66698 108.091 7.72122 109.422 7.70314C109.495 6.8172 109.531 5.93127 109.75 5.09957C109.841 4.99109 110.023 5.06341 110.133 5.17189C110.224 5.28038 110.279 5.49734 110.279 5.6239C110.188 6.31095 110.06 6.97993 110.042 7.68506C110.096 7.68506 110.151 7.66698 110.206 7.66698C110.242 7.66698 110.297 7.70314 110.297 7.79354C110.297 7.8297 110.297 7.90202 110.26 7.93818C110.206 8.01051 110.096 8.06475 110.005 8.10091Z" fill="white"/>
<path d="M116.858 5.94935C116.384 5.84087 115.91 5.73238 115.418 5.7143C115.016 6.22055 114.816 6.8172 114.707 7.45002C114.579 8.10091 114.597 8.78796 114.561 9.45693C114.524 10.3609 114.597 11.2288 114.707 12.0786C114.652 12.1871 114.488 12.2594 114.36 12.1871C114.05 11.8074 113.977 11.3192 113.959 10.831C113.941 9.74622 113.923 8.60716 114.087 7.54042C114.196 6.85336 114.397 6.22055 114.816 5.64198C113.686 5.58774 112.646 5.82279 111.607 6.11207C111.462 6.09399 111.297 6.00359 111.206 5.85895C111.17 5.73238 111.243 5.66006 111.316 5.6239L111.425 5.58774L111.516 5.55158C112.282 5.24422 113.212 5.08149 114.105 5.06341C115.016 5.02725 115.928 5.11765 116.73 5.40694C116.821 5.4431 116.985 5.56966 117.04 5.67814C117.058 5.80471 116.967 5.96743 116.858 5.94935Z" fill="white"/>
<path d="M119.056 14.881C118.965 14.9353 118.856 14.8449 118.856 14.7545C119.221 14.1397 119.877 12.621 119.786 11.9159C119.585 11.9339 119.385 11.9882 119.202 11.9701C118.947 11.9339 118.819 11.7712 118.783 11.5362C118.747 11.265 118.874 10.9757 119.02 10.7587C119.166 10.5598 119.366 10.4514 119.603 10.4152C120.187 10.3429 120.478 10.8491 120.497 11.3554C120.533 12.3679 119.95 13.8143 119.056 14.881Z" fill="white"/>
<path d="M134.017 12.1509C133.142 11.6627 132.249 11.3192 131.319 10.9938C130.407 10.6683 129.532 10.3429 128.657 9.96318C128.639 10.6141 128.73 11.283 128.894 11.8797C128.949 11.9882 128.913 12.1871 128.748 12.1871C128.603 12.1871 128.511 12.0967 128.457 12.0063C128.402 11.9339 128.366 11.8255 128.311 11.7351C128.11 11.0842 128.037 10.379 128.037 9.65582C127.983 9.61966 127.91 9.56541 127.873 9.47501C127.819 9.42077 127.8 9.31229 127.855 9.22189C127.928 9.16765 128.001 9.05917 128.019 8.98684C128.056 8.7518 128.037 8.20939 128.092 7.97435C128.165 7.5585 128.274 7.05225 128.384 6.546C128.511 6.03975 128.694 5.5335 128.931 5.09957C129.04 4.91877 129.314 4.95493 129.368 5.15381C129.35 5.38886 129.277 5.60582 129.204 5.82279C129.149 6.02167 129.04 6.23863 128.985 6.4556C128.803 7.10649 128.694 7.77546 128.675 8.46251C129.332 7.88394 129.988 7.34153 130.663 6.83528C131.501 6.22055 132.394 5.69622 133.342 5.31654C133.488 5.31654 133.671 5.31654 133.78 5.40694C133.889 5.47926 133.889 5.58774 133.835 5.7143C132.868 6.11207 131.993 6.6364 131.1 7.25113C130.262 7.84778 129.423 8.53484 128.639 9.27613V9.29421C129.532 9.78238 130.517 10.1078 131.465 10.4333C132.303 10.7226 133.105 11.048 133.871 11.5362C134.035 11.6266 134.163 11.7531 134.254 11.9159C134.272 12.0243 134.126 12.169 134.017 12.1509Z" fill="white"/>
<path d="M140.776 11.952C140.539 11.9701 140.375 11.717 140.266 11.5362C139.865 10.831 139.537 10.0897 139.3 9.31229C138.99 8.35403 138.826 7.37769 138.753 6.32904C138.206 7.16073 137.294 8.67948 136.729 9.49309C136.146 10.3609 135.562 11.283 135.088 12.1509C135.034 12.2775 134.833 12.1871 134.76 12.0786C134.669 11.9159 134.705 11.6989 134.742 11.5362C134.851 11.3734 135.052 10.9576 135.161 10.7226C136.346 8.9326 137.586 7.10649 138.68 5.31654C138.807 5.18997 139.245 5.11765 139.281 5.46118C139.372 6.56408 139.537 7.66698 139.792 8.71564C140.047 9.7643 140.43 10.7406 140.922 11.6808C140.94 11.7351 140.922 11.9339 140.776 11.952Z" fill="white"/>
<path d="M147.359 12.169C146.977 11.7351 146.867 11.1565 146.776 10.596C146.594 9.29421 146.63 7.90202 146.594 6.546C145.482 8.11899 144.607 9.71006 143.549 11.5C143.44 11.6266 143.385 11.717 143.203 11.7893C143.039 11.7893 142.893 11.7712 142.765 11.5904C141.89 9.98126 141.726 8.01051 141.854 6.05783C141.854 5.93127 141.89 5.7143 142.036 5.66006C142.273 5.58774 142.455 5.78663 142.455 5.93127C142.346 7.7393 142.547 9.45693 143.148 11.0118C143.786 9.92702 144.297 9.023 144.844 8.13707C145.409 7.21497 146.01 6.32904 146.776 5.31654C146.922 5.20805 147.122 5.28038 147.195 5.42502C147.25 7.16073 147.232 8.86028 147.378 10.5237C147.414 11.0661 147.542 11.5904 147.578 12.0967C147.578 12.169 147.414 12.2413 147.359 12.169Z" fill="white"/>
<path d="M154.704 12.1509C153.829 11.6627 152.936 11.3192 152.006 10.9938C151.095 10.6683 150.219 10.3429 149.344 9.96318C149.326 10.6141 149.417 11.283 149.581 11.8797C149.636 11.9882 149.6 12.1871 149.436 12.1871C149.29 12.1871 149.199 12.0967 149.144 12.0063C149.089 11.9339 149.053 11.8255 148.998 11.7351C148.798 11.0842 148.725 10.379 148.725 9.65582C148.67 9.61966 148.597 9.56541 148.561 9.47501C148.506 9.42077 148.488 9.31229 148.542 9.22189C148.615 9.16765 148.688 9.05917 148.706 8.98684C148.743 8.7518 148.725 8.20939 148.779 7.97435C148.852 7.5585 148.962 7.05225 149.071 6.546C149.199 6.03975 149.381 5.5335 149.618 5.09957C149.727 4.91877 150.001 4.95493 150.055 5.15381C150.037 5.38886 149.964 5.60582 149.891 5.82279C149.837 6.02167 149.727 6.23863 149.673 6.4556C149.49 7.10649 149.381 7.77546 149.363 8.46251C150.019 7.88394 150.675 7.34153 151.35 6.83528C152.188 6.22055 153.082 5.69622 154.03 5.31654C154.175 5.31654 154.358 5.31654 154.467 5.40694C154.577 5.47926 154.577 5.58774 154.522 5.7143C153.556 6.11207 152.681 6.6364 151.787 7.25113C150.949 7.84778 150.11 8.53484 149.326 9.27613V9.29421C150.219 9.78238 151.204 10.1078 152.152 10.4333C152.99 10.7226 153.793 11.048 154.558 11.5362C154.722 11.6266 154.85 11.7531 154.941 11.9159C154.959 12.0243 154.814 12.169 154.704 12.1509Z" fill="white"/>
<path d="M161.153 8.10091C161.026 9.38461 161.099 10.8853 161.19 12.1509C161.208 12.2775 161.026 12.2955 160.935 12.2413C160.679 12.0424 160.552 11.5181 160.534 11.1926C160.479 10.1801 160.479 9.23997 160.534 8.22747C159.185 8.28171 157.726 8.24555 156.395 8.39019C156.341 9.60157 156.377 10.7587 156.432 11.9159C156.45 11.952 156.377 12.0063 156.286 12.0243C156.231 12.0243 156.14 12.0063 156.085 11.952C155.848 11.717 155.794 11.283 155.775 10.9938C155.684 9.16765 155.812 7.34153 155.994 5.55158C156.031 5.4431 156.195 5.33462 156.341 5.42502C156.541 5.51542 156.541 5.75046 156.578 5.93127C156.541 6.40136 156.486 7.19689 156.432 7.75738C157.763 7.66698 159.239 7.72122 160.57 7.70314C160.643 6.8172 160.679 5.93127 160.898 5.09957C160.989 4.99109 161.172 5.06341 161.281 5.17189C161.372 5.28038 161.427 5.49734 161.427 5.6239C161.336 6.31095 161.208 6.97993 161.19 7.68506C161.245 7.68506 161.299 7.66698 161.354 7.66698C161.39 7.66698 161.445 7.70314 161.445 7.79354C161.445 7.8297 161.445 7.90202 161.409 7.93818C161.354 8.01051 161.245 8.06475 161.153 8.10091Z" fill="white"/>
<path d="M166.693 10.6864C165.836 12.5306 165.162 14.429 164.506 16.3455C164.451 16.454 164.196 16.4902 164.141 16.3455C164.05 16.1828 164.105 15.7489 164.141 15.5862C164.433 14.3567 164.961 13.2176 165.399 12.0424C164.87 11.265 164.196 10.1982 163.685 9.27613C163.047 8.10091 162.519 6.87144 162.318 5.51542C162.282 5.33462 162.391 5.15381 162.537 5.08149C162.646 5.04533 162.719 5.09957 162.774 5.15381C162.828 5.20805 162.865 5.28038 162.901 5.3527C163.084 6.43752 163.448 7.45002 163.904 8.40827C164.414 9.43885 165.016 10.4152 165.691 11.3915C166.11 10.4875 166.547 9.58349 167.021 8.69756C167.495 7.79354 168.024 6.92569 168.662 6.07591C168.79 5.91319 168.972 5.73238 169.136 5.82279C169.246 5.87703 169.337 6.03975 169.246 6.16631C168.279 7.63082 167.423 9.13149 166.693 10.6864Z" fill="white"/>
<path d="M173.569 11.6989C173.022 12.0605 172.348 12.3498 171.673 12.3498C171.29 12.3498 171.017 12.1871 170.761 11.8255C170.67 11.8978 170.506 11.952 170.433 11.8435C170.105 11.3915 170.014 10.7587 169.996 10.144C169.959 8.571 169.978 7.41386 170.397 6.00359C170.433 5.85895 170.78 5.58774 171.035 5.66006C171.144 5.37078 171.436 5.06341 171.782 5.02725C172.712 5.02725 173.715 5.51542 174.025 6.43752C174.116 6.7268 174.116 7.03417 174.006 7.32345C173.897 7.59466 173.715 7.8297 173.478 8.01051L173.368 8.10091C173.824 8.24555 174.335 8.53484 174.626 8.98684C174.845 9.33037 174.863 9.74622 174.772 10.144C174.608 10.7949 174.134 11.3192 173.569 11.6989ZM174.079 9.29421C173.934 9.023 173.533 8.86028 173.241 8.71564C172.894 8.49868 172.585 8.58908 172.238 8.6614L171.691 8.78796C171.491 8.8422 171.29 8.8422 171.071 8.78796C170.98 8.73372 170.871 8.55292 170.962 8.46251C171.181 8.24555 171.454 8.13707 171.764 8.06475L172.603 7.97435C172.931 7.79354 173.277 7.43194 173.423 7.08841C173.514 6.79912 173.46 6.60024 173.277 6.3652C172.949 5.91319 172.42 5.7143 171.892 5.66006C171.728 5.64198 171.673 5.67814 171.637 5.78663C171.582 5.93127 171.545 6.09399 171.454 6.22055C171.418 6.31096 171.29 6.34712 171.199 6.29287C171.126 6.27479 171.071 6.23863 171.035 6.20247C170.816 6.97993 170.689 7.86586 170.652 8.78796C170.616 9.65582 170.652 10.5056 170.78 11.3011C170.926 11.1384 171.108 10.9034 171.199 10.7768C171.327 10.6502 171.564 10.8491 171.527 10.9757C171.491 11.0661 171.418 11.1746 171.363 11.265C171.327 11.3734 171.272 11.4638 171.272 11.5362C171.381 11.6989 171.637 11.7531 171.946 11.717C172.402 11.6447 172.949 11.3915 173.35 11.0842C173.715 10.7949 174.025 10.4333 174.116 9.98126C174.171 9.7643 174.207 9.51117 174.079 9.29421Z" fill="white"/>
<path d="M185.945 11.5904C185.945 11.7351 185.781 11.7712 185.69 11.7531C185.49 11.6808 185.453 11.3554 185.417 11.1746C185.362 10.8491 185.362 10.5237 185.362 10.1801V9.07724C185.362 8.22747 185.471 7.30537 185.49 6.43752C185.38 6.27479 185.198 6.18439 185.016 6.14823C184.815 6.09399 184.578 6.07591 184.378 6.02167C183.648 5.91319 182.919 5.80471 182.153 5.84087C182.062 6.6364 181.844 7.37769 181.734 8.17323C181.57 9.34845 181.424 10.4514 181.497 11.6989C181.497 11.8435 181.534 12.0605 181.388 12.169C181.315 12.2413 181.114 12.2413 181.023 12.1509C180.932 12.0424 180.896 11.9159 180.877 11.7893C180.859 11.6627 180.877 11.5181 180.859 11.3734C180.841 9.47501 181.151 7.70314 181.534 5.85895C181.442 5.87703 181.351 5.89511 181.26 5.87703C181.096 5.78662 181.133 5.6239 181.205 5.55158C181.278 5.40694 181.406 5.3527 181.534 5.31654C181.661 5.28038 181.807 5.24422 181.935 5.24422C183.174 5.15381 184.487 5.33462 185.617 5.69622C185.836 5.82279 186.146 5.96743 186.164 6.25671C186 7.99243 185.964 9.78238 185.945 11.5904Z" fill="white"/>
<path d="M191.403 11.7531C190.582 12.169 189.598 12.3498 188.705 11.9159C188.012 11.5723 187.52 10.9938 187.283 10.2705C187.009 9.42077 187.1 8.46251 187.465 7.66698C187.738 7.08841 188.158 6.58216 188.65 6.20247C188.978 5.96743 189.47 5.67814 189.926 5.6239C190.291 5.20805 190.892 5.08149 191.403 5.20805C192.278 5.4431 193.025 6.32903 193.262 7.10649C193.499 7.86586 193.554 8.69756 193.335 9.47501C193.062 10.5237 192.369 11.283 191.403 11.7531ZM192.661 7.30537C192.442 6.70872 191.95 6.03975 191.311 5.82279C191.02 5.7143 190.71 5.67814 190.473 5.85895C190.236 6.03975 190.09 6.32903 189.981 6.58216C189.962 6.6364 189.962 6.70872 189.962 6.78104C189.962 6.85336 189.962 6.94377 189.944 7.01609C189.926 7.05225 189.744 7.16073 189.689 7.05225C189.653 6.88953 189.616 6.56408 189.634 6.31096C188.942 6.60024 188.358 7.19689 188.03 7.86586C187.684 8.571 187.665 9.38461 187.884 10.1078C188.066 10.6683 188.413 11.1384 188.996 11.3734C189.725 11.6447 190.509 11.5543 191.166 11.2288C191.913 10.8491 192.442 10.2705 192.697 9.49309C192.934 8.80604 192.898 7.99243 192.661 7.30537Z" fill="white"/>
<path d="M204.931 8.10091C204.803 9.38461 204.876 10.8853 204.968 12.1509C204.986 12.2775 204.803 12.2955 204.712 12.2413C204.457 12.0424 204.329 11.5181 204.311 11.1926C204.257 10.1801 204.257 9.23997 204.311 8.22747C202.962 8.28171 201.504 8.24555 200.173 8.39019C200.118 9.60157 200.155 10.7587 200.209 11.9159C200.228 11.952 200.155 12.0063 200.064 12.0243C200.009 12.0243 199.918 12.0063 199.863 11.952C199.626 11.717 199.571 11.283 199.553 10.9938C199.462 9.16765 199.59 7.34153 199.772 5.55158C199.808 5.4431 199.972 5.33462 200.118 5.42502C200.319 5.51542 200.319 5.75046 200.355 5.93127C200.319 6.40136 200.264 7.19689 200.209 7.75738C201.54 7.66698 203.017 7.72122 204.348 7.70314C204.421 6.8172 204.457 5.93127 204.676 5.09957C204.767 4.99109 204.949 5.06341 205.059 5.17189C205.15 5.28038 205.205 5.49734 205.205 5.6239C205.113 6.31095 204.986 6.97993 204.968 7.68506C205.022 7.68506 205.077 7.66698 205.132 7.66698C205.168 7.66698 205.223 7.70314 205.223 7.79354C205.223 7.8297 205.223 7.90202 205.186 7.93818C205.132 8.01051 205.022 8.06475 204.931 8.10091Z" fill="white"/>
<path d="M209.013 12.1871C208.101 12.1509 207.262 11.7351 206.734 10.9576C206.296 10.3067 206.187 9.54733 206.278 8.80604C206.387 7.97434 206.734 7.17881 207.208 6.56408C207.736 5.87703 208.484 5.33462 209.341 5.17189C209.924 5.06341 210.544 5.11765 210.981 5.58774C211.182 5.80471 211.364 6.03975 211.364 6.32904C211.382 6.6364 211.237 6.90761 210.981 7.10649C209.705 8.15515 208.356 9.13149 206.971 9.92702C207.007 10.4875 207.499 11.0661 208.028 11.3554C208.557 11.6447 209.177 11.6808 209.76 11.6085C210.343 11.5543 210.945 11.3554 211.364 11.1565C211.437 11.1022 211.492 11.1565 211.51 11.2107C211.528 11.2469 211.565 11.3192 211.492 11.3734C210.854 11.952 209.942 12.2232 209.013 12.1871ZM209.815 5.73238C209.286 5.73238 208.757 5.94935 208.338 6.27479C207.445 6.99801 206.916 8.15515 206.916 9.27613C208.21 8.571 209.432 7.6489 210.617 6.69064C210.708 6.61832 210.781 6.34712 210.653 6.13015C210.507 5.84087 210.179 5.73238 209.815 5.73238Z" fill="white"/>
<path d="M221.137 12.1871C221.01 12.169 220.937 12.0967 220.882 12.0063L220.827 11.9159C220.153 10.4694 219.861 8.8422 219.843 7.12457C219.606 7.70314 219.369 8.26363 219.095 8.82412C218.785 9.45693 218.439 10.0717 217.947 10.6502C217.728 10.9214 217.309 10.9576 216.981 10.8853C216.707 10.7587 216.525 10.4514 216.397 10.1982C215.704 8.87836 215.376 7.39577 215.03 5.94935C215.03 5.93127 215.012 5.91319 214.994 5.93127C213.863 7.57658 213.207 9.42077 212.751 11.3734C212.678 11.5543 212.842 11.717 212.861 11.8978C212.897 12.0063 212.824 12.1147 212.678 12.169C212.478 12.1871 212.314 12.0243 212.223 11.8797C212.095 11.5723 212.113 11.2288 212.204 10.9214C212.806 8.96876 213.426 7.03417 214.702 5.33462C214.866 5.22614 215.03 5.22614 215.176 5.2623C215.358 5.2623 215.522 5.4431 215.54 5.56966C215.941 7.12457 216.27 8.71564 217.054 10.1259C217.163 10.2705 217.309 10.3609 217.473 10.3067C217.892 9.90894 218.166 9.42077 218.439 8.9326C218.986 7.93818 219.369 6.88953 219.788 5.80471L219.879 5.67814C219.934 5.6239 219.97 5.58774 220.062 5.58774C220.244 5.5335 220.371 5.66006 220.444 5.78663C220.408 6.90761 220.426 7.95627 220.554 8.98684C220.681 10.0174 220.918 11.0299 221.301 12.0063C221.319 12.1328 221.192 12.1871 221.137 12.1871Z" fill="white"/>
<path d="M226.333 10.6864C225.477 12.5306 224.802 14.429 224.146 16.3455C224.091 16.454 223.836 16.4902 223.781 16.3455C223.69 16.1828 223.745 15.7489 223.781 15.5862C224.073 14.3567 224.602 13.2176 225.039 12.0424C224.51 11.265 223.836 10.1982 223.325 9.27613C222.687 8.10091 222.159 6.87144 221.958 5.51542C221.922 5.33462 222.031 5.15381 222.177 5.08149C222.286 5.04533 222.359 5.09957 222.414 5.15381C222.469 5.20805 222.505 5.28038 222.542 5.3527C222.724 6.43752 223.088 7.45002 223.544 8.40827C224.055 9.43885 224.656 10.4152 225.331 11.3915C225.75 10.4875 226.188 9.58349 226.662 8.69756C227.136 7.79354 227.664 6.92569 228.302 6.07591C228.43 5.91319 228.612 5.73238 228.776 5.82279C228.886 5.87703 228.977 6.03975 228.886 6.16631C227.92 7.63082 227.063 9.13149 226.333 10.6864Z" fill="white"/>
<path d="M5.33469 3.87011C5.24354 3.97859 5.15239 4.06899 5.00655 4.1594C4.82424 4.17748 4.6784 4.1594 4.55079 4.08707C4.14972 3.90627 3.69396 3.61699 3.36582 3.38194C3.34759 3.96051 3.2929 4.55716 3.36582 5.11765C3.32936 5.40694 3.00121 5.28038 2.96475 5.20805C2.92829 5.17189 2.89183 5.13573 2.8736 5.08149C2.83714 5.04533 2.80068 4.99109 2.78245 4.93685C2.74599 4.77413 2.74599 4.6114 2.74599 4.46676C2.76422 4.1594 2.78245 3.83395 2.78245 3.52658C2.36315 3.92435 1.8527 4.26788 1.30579 4.46676C1.17818 4.48484 0.977645 4.48484 0.831803 4.35828C0.613039 4.17748 0.813572 3.87011 1.0688 3.70739L1.19641 3.94243C1.32402 3.90627 1.45163 3.81587 1.57925 3.76163C1.96208 3.52658 2.34492 3.18306 2.65484 2.83953C2.07147 2.36944 1.48809 1.79087 0.995876 1.26654C0.868263 1.15806 0.922954 0.995338 0.977645 0.904936C1.14172 0.687972 1.39694 0.832615 1.45163 0.886856C1.87093 1.33886 2.30846 1.77279 2.76422 2.18864C2.76422 1.70047 2.78245 1.2123 2.74599 0.760294L2.60014 0.344446C2.58191 0.235964 2.65484 -0.017161 2.89183 0.000920125C3.0559 0.0551604 3.14705 0.181723 3.21997 0.326366L3.27467 0.452928C3.32936 0.579491 3.36582 0.814534 3.36582 0.941097V1.93552L3.42051 1.84511L3.80335 1.33886C3.93096 1.15806 4.11326 1.01342 4.33203 0.886856C4.62371 0.724133 5.17062 0.886856 5.00655 1.42927C4.87893 1.41119 4.84247 1.3931 4.78778 1.37502C4.75132 1.37502 4.71486 1.35694 4.64194 1.33886C4.53256 1.3027 4.16795 1.79087 4.11326 1.86319C3.8945 2.15248 3.71219 2.45984 3.4752 2.76721C3.91273 3.09266 4.38672 3.38194 4.9154 3.63507C4.95186 3.58083 4.98832 3.56274 5.02478 3.54466C5.06124 3.5085 5.0977 3.49042 5.22531 3.43618C5.37115 3.58083 5.38938 3.68931 5.37115 3.76163C5.35292 3.79779 5.33469 3.81587 5.33469 3.87011Z" fill="white"/>
<path d="M12.4203 3.87011C12.3292 3.97859 12.238 4.06899 12.0922 4.1594C11.9099 4.17748 11.764 4.1594 11.6364 4.08707C11.2353 3.90627 10.7796 3.61699 10.4514 3.38194C10.4332 3.96051 10.3785 4.55716 10.4514 5.11765C10.415 5.40694 10.0868 5.28038 10.0504 5.20805C10.0139 5.17189 9.97744 5.13573 9.95921 5.08149C9.92275 5.04533 9.88629 4.99109 9.86806 4.93685C9.8316 4.77413 9.8316 4.6114 9.8316 4.46676C9.84983 4.1594 9.86806 3.83395 9.86806 3.52658C9.44876 3.92435 8.93831 4.26788 8.3914 4.46676C8.26379 4.48484 8.06326 4.48484 7.91742 4.35828C7.69865 4.17748 7.89919 3.87011 8.15441 3.70739L8.28202 3.94243C8.40964 3.90627 8.53725 3.81587 8.66486 3.76163C9.0477 3.52658 9.43053 3.18306 9.74045 2.83953C9.15708 2.36944 8.57371 1.79087 8.08149 1.26654C7.95388 1.15806 8.00857 0.995338 8.06326 0.904936C8.22733 0.687972 8.48256 0.832615 8.53725 0.886856C8.95655 1.33886 9.39407 1.77279 9.84983 2.18864C9.84983 1.70047 9.86806 1.2123 9.8316 0.760294L9.68576 0.344446C9.66753 0.235964 9.74045 -0.017161 9.97744 0.000920125C10.1415 0.0551604 10.2327 0.181723 10.3056 0.326366L10.3603 0.452928C10.415 0.579491 10.4514 0.814534 10.4514 0.941097V1.93552L10.5061 1.84511L10.889 1.33886C11.0166 1.15806 11.1989 1.01342 11.4176 0.886856C11.7093 0.724133 12.2562 0.886856 12.0922 1.42927C11.9645 1.41119 11.9281 1.3931 11.8734 1.37502C11.8369 1.37502 11.8005 1.35694 11.7276 1.33886C11.6182 1.3027 11.2536 1.79087 11.1989 1.86319C10.9801 2.15248 10.7978 2.45984 10.5608 2.76721C10.9983 3.09266 11.4723 3.38194 12.001 3.63507C12.0375 3.58083 12.0739 3.56274 12.1104 3.54466C12.1469 3.5085 12.1833 3.49042 12.3109 3.43618C12.4568 3.58083 12.475 3.68931 12.4568 3.76163C12.4385 3.79779 12.4203 3.81587 12.4203 3.87011Z" fill="white"/>
<path d="M17.7923 11.6989C17.2454 12.0605 16.5708 12.3498 15.8963 12.3498C15.5135 12.3498 15.24 12.1871 14.9848 11.8255C14.8936 11.8978 14.7296 11.952 14.6567 11.8435C14.3285 11.3915 14.2374 10.7587 14.2191 10.144C14.1827 8.571 14.2009 7.41386 14.6202 6.00359C14.6567 5.85895 15.003 5.58774 15.2583 5.66006C15.3676 5.37078 15.6593 5.06341 16.0057 5.02725C16.9354 5.02725 17.9381 5.51542 18.248 6.43752C18.3392 6.7268 18.3392 7.03417 18.2298 7.32345C18.1204 7.59466 17.9381 7.8297 17.7011 8.01051L17.5917 8.10091C18.0475 8.24555 18.5579 8.53484 18.8496 8.98684C19.0684 9.33037 19.0866 9.74622 18.9955 10.144C18.8314 10.7949 18.3574 11.3192 17.7923 11.6989ZM18.3027 9.29421C18.1569 9.023 17.7558 8.86028 17.4641 8.71564C17.1177 8.49868 16.8078 8.58908 16.4615 8.6614L15.9145 8.78796C15.714 8.8422 15.5135 8.8422 15.2947 8.78796C15.2036 8.73372 15.0942 8.55292 15.1853 8.46251C15.4041 8.24555 15.6776 8.13707 15.9875 8.06475L16.8261 7.97435C17.1542 7.79354 17.5006 7.43194 17.6464 7.08841C17.7376 6.79912 17.6829 6.60024 17.5006 6.3652C17.1724 5.91319 16.6438 5.7143 16.1151 5.66006C15.951 5.64198 15.8963 5.67814 15.8599 5.78663C15.8052 5.93127 15.7687 6.09399 15.6776 6.22055C15.6411 6.31096 15.5135 6.34712 15.4223 6.29287C15.3494 6.27479 15.2947 6.23863 15.2583 6.20247C15.0395 6.97993 14.9119 7.86586 14.8754 8.78796C14.839 9.65582 14.8754 10.5056 15.003 11.3011C15.1489 11.1384 15.3312 10.9034 15.4223 10.7768C15.5499 10.6502 15.7869 10.8491 15.7505 10.9757C15.714 11.0661 15.6411 11.1746 15.5864 11.265C15.5499 11.3734 15.4952 11.4638 15.4952 11.5362C15.6046 11.6989 15.8599 11.7531 16.1698 11.717C16.6255 11.6447 17.1724 11.3915 17.5735 11.0842C17.9381 10.7949 18.248 10.4333 18.3392 9.98126C18.3939 9.7643 18.4303 9.51117 18.3027 9.29421Z" fill="white"/>
<path d="M22.9801 11.265C22.5061 11.6808 21.9227 11.952 21.3576 12.0786C20.9018 12.1871 20.2638 12.2413 19.8809 11.8616C19.7715 11.7712 19.6075 11.4819 19.7715 11.3192C19.8992 11.4096 19.9903 11.4819 20.0997 11.5362C20.1726 11.5904 20.2455 11.6266 20.3367 11.6266C20.3185 10.379 20.3914 7.97435 20.4278 6.76296C20.4461 6.47368 20.4096 6.16631 20.4278 5.87703C20.4643 5.58774 20.519 5.29846 20.756 5.08149C20.9201 5.02725 21.0659 4.99109 21.157 5.17189C21.0659 5.49734 21.0659 6.07591 21.0477 6.70872C21.0477 7.28729 21.0477 7.90202 21.0294 8.33595C21.2847 8.15515 21.6493 8.01051 21.9956 7.97435C22.4149 7.93818 22.8525 8.01051 23.1988 8.20939C23.7458 8.49868 24.0739 9.13149 23.9281 9.78238C23.8187 10.3429 23.4358 10.8672 22.9801 11.265ZM23.2171 9.04108C22.9983 8.69756 22.6155 8.571 22.1962 8.571C21.7769 8.58908 21.3211 8.7518 21.0477 9.00492L20.9018 11.5904C21.467 11.4638 22.0503 11.2107 22.5243 10.813C22.8525 10.5418 23.1624 10.2163 23.29 9.80046C23.3811 9.54733 23.3629 9.23997 23.2171 9.04108ZM27.009 12.2775C26.5532 12.1509 26.5532 11.6989 26.4985 11.3373C26.2251 9.27613 26.3891 7.28729 26.6626 5.24422C26.8267 4.99109 27.1184 5.20805 27.1913 5.3527C27.2095 5.76855 27.1913 6.16631 27.1366 6.58216C27.1001 6.97993 27.0454 7.39577 27.0454 7.81162C27.0272 8.51676 26.9908 9.23997 27.009 9.96318C27.009 10.6683 27.0819 11.3915 27.1913 12.0605C27.2095 12.1509 27.1001 12.2775 27.009 12.2775Z" fill="white"/>
<path d="M34.3097 1.13998C33.9086 1.28462 33.4711 1.37502 33.07 1.51967C32.3408 1.75471 31.8486 2.06208 31.3381 2.62257C30.8277 3.16498 30.4995 3.81587 30.2078 4.50292C29.9161 5.20805 29.7156 5.98551 29.4969 6.7268C30.1531 6.27479 30.9188 5.87703 31.7209 5.75046C32.4319 5.6239 33.2158 5.76855 33.8357 6.16631C34.492 6.58216 34.9295 7.30537 35.1118 8.06475C35.2941 8.87836 35.2212 9.63774 34.8019 10.3609C34.4373 11.0118 33.8721 11.5543 33.1794 11.8797C32.596 12.169 31.8303 12.2594 31.1376 12.1509C30.3354 12.0424 29.6974 11.6808 29.2234 11.048C28.7129 10.3609 28.5671 9.52925 28.5853 8.67948C28.6218 7.50426 28.9682 6.23863 29.2781 5.28038C29.6609 4.12323 30.2078 2.85761 31.1558 1.9536C31.6116 1.51967 32.1585 1.17614 32.7418 0.977257C33.1429 0.850695 33.5622 0.760294 33.9815 0.633731C34.3826 0.507169 34.7654 0.344446 35.1118 0.0551604C35.2212 0.0370803 35.4035 0.0551604 35.4399 0.163643C35.5129 0.272125 35.5129 0.416768 35.4399 0.507169C35.0936 0.814534 34.7107 1.01342 34.3097 1.13998ZM34.2732 7.57658C34.0362 7.05225 33.5622 6.65448 33.0335 6.49176C32.5049 6.31095 31.8303 6.34712 31.3017 6.50984C30.5724 6.7268 29.8979 7.16073 29.3145 7.68506C29.1505 8.48059 29.1687 9.43885 29.4422 10.1621C29.5698 10.5237 29.825 10.8491 30.1531 11.1022C30.7001 11.5362 31.2652 11.5904 31.9579 11.5181C32.7054 11.4458 33.3799 11.1022 33.9268 10.5418C34.3643 10.1078 34.5466 9.6739 34.5649 9.04108C34.5831 8.51676 34.4737 7.99243 34.2732 7.57658Z" fill="white"/>
<path d="M38.9044 12.1871C37.9929 12.1509 37.1543 11.7351 36.6256 10.9576C36.1881 10.3067 36.0787 9.54733 36.1699 8.80604C36.2792 7.97434 36.6256 7.17881 37.0996 6.56408C37.6283 5.87703 38.3757 5.33462 39.2326 5.17189C39.8159 5.06341 40.4358 5.11765 40.8733 5.58774C41.0738 5.80471 41.2561 6.03975 41.2561 6.32904C41.2743 6.6364 41.1285 6.90761 40.8733 7.10649C39.5972 8.15515 38.2481 9.13149 36.8626 9.92702C36.8991 10.4875 37.3913 11.0661 37.92 11.3554C38.4487 11.6447 39.0685 11.6808 39.6519 11.6085C40.2352 11.5543 40.8368 11.3554 41.2561 11.1565C41.329 11.1022 41.3837 11.1565 41.402 11.2107C41.4202 11.2469 41.4567 11.3192 41.3837 11.3734C40.7457 11.952 39.8342 12.2232 38.9044 12.1871ZM39.7065 5.73238C39.1779 5.73238 38.6492 5.94935 38.2299 6.27479C37.3366 6.99801 36.8079 8.15515 36.8079 9.27613C38.1023 8.571 39.3237 7.6489 40.5087 6.69064C40.5998 6.61832 40.6728 6.34712 40.5451 6.13015C40.3993 5.84087 40.0711 5.73238 39.7065 5.73238Z" fill="white"/>
<path d="M43.0806 5.94935H42.9894C42.9347 5.94935 42.8618 5.91319 42.8436 5.82279C42.8254 5.67814 42.88 5.55158 42.9894 5.4431C43.2811 5.18997 43.6093 5.08149 43.9739 5.09957C44.2291 5.11765 44.4843 5.15381 44.7395 5.24422L45.4323 5.47926C46.4167 5.80471 47.2736 6.67256 47.7475 7.61274C48.0028 8.13707 48.0939 8.67948 47.9663 9.27613C47.8387 9.81854 47.5105 10.3248 47.073 10.7406C45.9792 11.7712 44.6119 12.0786 43.0988 12.0786C43.0806 13.308 43.0077 14.6821 43.1717 15.8935C43.1717 15.9478 43.2082 16.0201 43.2446 16.0743C43.2629 16.1647 43.2993 16.2371 43.2264 16.3455C43.0806 16.454 42.9347 16.4179 42.8071 16.3455C42.6248 16.1467 42.5519 15.9297 42.5337 15.6766C42.4061 14.3929 42.4607 13.1453 42.5337 11.8435C42.3696 11.6989 42.1144 11.5 42.0597 11.283C42.0597 11.2107 42.0779 11.1384 42.1144 11.1022C42.1691 11.0118 42.242 10.9938 42.2784 11.0299C42.3331 11.0842 42.4425 11.1565 42.5337 11.2107C42.6431 9.40269 42.7707 7.68506 43.0806 5.94935ZM46.6902 7.12457C46.2891 6.6364 45.724 6.29287 45.1771 6.05783C44.8671 5.91319 43.9921 5.58774 43.6639 5.73238C43.6822 5.98551 43.6457 6.43752 43.6093 6.6364C43.354 8.17323 43.19 9.81854 43.1717 11.4458C44.4296 11.5362 45.6328 11.1565 46.599 10.3248C47.1277 9.87278 47.4376 9.23997 47.3829 8.58908C47.3465 8.04667 47.0001 7.50426 46.6902 7.12457Z" fill="white"/>
<path d="M54.4809 12.169C54.0981 11.7351 53.9887 11.1565 53.8976 10.596C53.7153 9.29421 53.7517 7.90202 53.7153 6.546C52.6032 8.11899 51.7282 9.71006 50.6708 11.5C50.5614 11.6266 50.5067 11.717 50.3244 11.7893C50.1603 11.7893 50.0145 11.7712 49.8869 11.5904C49.0118 9.98126 48.8478 8.01051 48.9754 6.05783C48.9754 5.93127 49.0118 5.7143 49.1577 5.66006C49.3947 5.58774 49.577 5.78663 49.577 5.93127C49.4676 7.7393 49.6681 9.45693 50.2697 11.0118C50.9078 9.92702 51.4182 9.023 51.9652 8.13707C52.5303 7.21497 53.1319 6.32904 53.8976 5.31654C54.0434 5.20805 54.2439 5.28038 54.3169 5.42502C54.3716 7.16073 54.3533 8.86028 54.4992 10.5237C54.5356 11.0661 54.6632 11.5904 54.6997 12.0967C54.6997 12.169 54.5356 12.2413 54.4809 12.169Z" fill="white"/>
<path d="M61.1876 5.94935C60.7136 5.84087 60.2396 5.73238 59.7474 5.7143C59.3463 6.22055 59.1458 6.8172 59.0364 7.45002C58.9088 8.10091 58.927 8.78796 58.8905 9.45693C58.8541 10.3609 58.927 11.2288 59.0364 12.0786C58.9817 12.1871 58.8176 12.2594 58.69 12.1871C58.3801 11.8074 58.3072 11.3192 58.2889 10.831C58.2707 9.74622 58.2525 8.60716 58.4165 7.54042C58.5259 6.85336 58.7265 6.22055 59.1458 5.64198C58.0155 5.58774 56.9764 5.82279 55.9372 6.11207C55.7914 6.09399 55.6273 6.00359 55.5362 5.85895C55.4997 5.73238 55.5726 5.66006 55.6455 5.6239L55.7549 5.58774L55.8461 5.55158C56.6118 5.24422 57.5415 5.08149 58.4348 5.06341C59.3463 5.02725 60.2578 5.11765 61.0599 5.40694C61.1511 5.4431 61.3152 5.56966 61.3699 5.67814C61.3881 5.80471 61.2969 5.96743 61.1876 5.94935Z" fill="white"/>
<path d="M64.79 12.1871C63.8785 12.1509 63.0399 11.7351 62.5112 10.9576C62.0737 10.3067 61.9643 9.54733 62.0555 8.80604C62.1649 7.97434 62.5113 7.17881 62.9852 6.56408C63.5139 5.87703 64.2614 5.33462 65.1182 5.17189C65.7016 5.06341 66.3214 5.11765 66.7589 5.58774C66.9594 5.80471 67.1418 6.03975 67.1418 6.32904C67.16 6.6364 67.0141 6.90761 66.7589 7.10649C65.4828 8.15515 64.1338 9.13149 62.7482 9.92702C62.7847 10.4875 63.2769 11.0661 63.8056 11.3554C64.3343 11.6447 64.9541 11.6808 65.5375 11.6085C66.1209 11.5543 66.7225 11.3554 67.1418 11.1565C67.2147 11.1022 67.2694 11.1565 67.2876 11.2107C67.3058 11.2469 67.3423 11.3192 67.2694 11.3734C66.6313 11.952 65.7198 12.2232 64.79 12.1871ZM65.5922 5.73238C65.0635 5.73238 64.5348 5.94935 64.1155 6.27479C63.2222 6.99801 62.6936 8.15515 62.6936 9.27613C63.9879 8.571 65.2093 7.6489 66.3943 6.69064C66.4855 6.61832 66.5584 6.34712 66.4308 6.13015C66.2849 5.84087 65.9568 5.73238 65.5922 5.73238Z" fill="white"/>
<path d="M76.7382 11.6989C76.1913 12.0605 75.5167 12.3498 74.8422 12.3498C74.4594 12.3498 74.1859 12.1871 73.9307 11.8255C73.8396 11.8978 73.6755 11.952 73.6026 11.8435C73.2744 11.3915 73.1833 10.7587 73.165 10.144C73.1286 8.571 73.1468 7.41386 73.5661 6.00359C73.6026 5.85895 73.9489 5.58774 74.2042 5.66006C74.3135 5.37078 74.6052 5.06341 74.9516 5.02725C75.8813 5.02725 76.884 5.51542 77.1939 6.43752C77.2851 6.7268 77.2851 7.03417 77.1757 7.32345C77.0663 7.59466 76.884 7.8297 76.647 8.01051L76.5376 8.10091C76.9934 8.24555 77.5038 8.53484 77.7955 8.98684C78.0143 9.33037 78.0325 9.74622 77.9414 10.144C77.7773 10.7949 77.3033 11.3192 76.7382 11.6989ZM77.2486 9.29421C77.1028 9.023 76.7017 8.86028 76.41 8.71564C76.0637 8.49868 75.7537 8.58908 75.4074 8.6614L74.8605 8.78796C74.6599 8.8422 74.4594 8.8422 74.2406 8.78796C74.1495 8.73372 74.0401 8.55292 74.1312 8.46251C74.35 8.24555 74.6235 8.13707 74.9334 8.06475L75.772 7.97435C76.1001 7.79354 76.4465 7.43194 76.5923 7.08841C76.6835 6.79912 76.6288 6.60024 76.4465 6.3652C76.1183 5.91319 75.5897 5.7143 75.061 5.66006C74.8969 5.64198 74.8422 5.67814 74.8058 5.78663C74.7511 5.93127 74.7146 6.09399 74.6235 6.22055C74.587 6.31096 74.4594 6.34712 74.3682 6.29287C74.2953 6.27479 74.2406 6.23863 74.2042 6.20247C73.9854 6.97993 73.8578 7.86586 73.8213 8.78796C73.7849 9.65582 73.8213 10.5056 73.9489 11.3011C74.0948 11.1384 74.2771 10.9034 74.3682 10.7768C74.4958 10.6502 74.7328 10.8491 74.6964 10.9757C74.6599 11.0661 74.587 11.1746 74.5323 11.265C74.4958 11.3734 74.4411 11.4638 74.4411 11.5362C74.5505 11.6989 74.8058 11.7531 75.1157 11.717C75.5714 11.6447 76.1183 11.3915 76.5194 11.0842C76.884 10.7949 77.1939 10.4333 77.2851 9.98126C77.3398 9.7643 77.3762 9.51117 77.2486 9.29421Z" fill="white"/>
<path d="M82.2906 12.1147C81.2879 12.3859 80.1212 12.3679 79.3373 11.6989C78.9727 11.3915 78.6992 10.9395 78.681 10.4514C78.6628 10.0174 78.8451 9.61965 79.1003 9.25805C79.6654 8.46251 80.6499 7.9201 81.5978 7.81162C81.9989 7.77546 82.3635 7.8297 82.6552 8.11899C82.7463 8.20939 82.6552 8.39019 82.564 8.42635H82.4C82.3453 8.42635 82.2724 8.40827 82.2177 8.40827C82.0901 8.39019 81.9807 8.37211 81.9078 8.42635C81.0327 8.46251 80.1759 8.87836 79.6472 9.58349C79.4102 9.89086 79.2826 10.1259 79.319 10.5056C79.3555 11.0118 79.7383 11.3915 80.267 11.5723C81.0145 11.8435 81.9442 11.6808 82.6552 11.4277C83.038 11.283 83.3844 11.1384 83.7125 10.9034C83.7855 10.8491 83.8584 10.9034 83.8949 10.9938C83.9131 11.0661 83.9131 11.1384 83.9131 11.1926C83.6579 11.6808 82.637 12.0243 82.2906 12.1147ZM83.3115 10.8853C83.2203 10.9938 83.0563 10.9757 82.9833 10.9214C82.801 10.7949 82.801 10.5598 82.801 10.379C82.8193 10.0717 82.874 9.7643 82.9469 9.43885L83.1839 8.44443C83.3297 7.79354 83.4209 7.14265 83.2203 6.60024C83.0563 6.13015 82.6552 5.66006 82.163 5.60582C81.7437 5.55158 81.3244 5.69622 80.978 5.94935C80.7957 6.07591 80.3946 6.41944 80.2853 6.61832C80.267 6.69064 80.3035 6.8172 80.3764 6.88953C80.4493 6.96185 80.3946 7.17881 80.2306 7.14265C80.103 7.10649 79.9571 7.07033 79.8477 6.97993C79.7019 6.85337 79.6472 6.61832 79.7566 6.43752C80.0665 5.91319 80.504 5.47926 81.0692 5.22614C81.4338 5.04533 81.8713 4.97301 82.327 5.04533C82.874 5.13573 83.3479 5.5335 83.6214 6.03975C84.0407 6.8172 83.986 7.79354 83.7855 8.6614C83.6032 9.40269 83.4209 10.0897 83.3115 10.8853Z" fill="white"/>
<path d="M85.7545 5.94935H85.6633C85.6087 5.94935 85.5357 5.91319 85.5175 5.82279C85.4993 5.67814 85.554 5.55158 85.6633 5.4431C85.955 5.18997 86.2832 5.08149 86.6478 5.09957C86.903 5.11765 87.1582 5.15381 87.4135 5.24422L88.1062 5.47926C89.0906 5.80471 89.9475 6.67256 90.4215 7.61274C90.6767 8.13707 90.7678 8.67948 90.6402 9.27613C90.5126 9.81854 90.1845 10.3248 89.7469 10.7406C88.6531 11.7712 87.2858 12.0786 85.7727 12.0786C85.7545 13.308 85.6816 14.6821 85.8456 15.8935C85.8456 15.9478 85.8821 16.0201 85.9186 16.0743C85.9368 16.1647 85.9733 16.2371 85.9003 16.3455C85.7545 16.454 85.6086 16.4179 85.481 16.3455C85.2987 16.1467 85.2258 15.9297 85.2076 15.6766C85.08 14.3929 85.1347 13.1453 85.2076 11.8435C85.0435 11.6989 84.7883 11.5 84.7336 11.283C84.7336 11.2107 84.7518 11.1384 84.7883 11.1022C84.843 11.0118 84.9159 10.9938 84.9524 11.0299C85.007 11.0842 85.1164 11.1565 85.2076 11.2107C85.317 9.40269 85.4446 7.68506 85.7545 5.94935ZM89.3641 7.12457C88.963 6.6364 88.3979 6.29287 87.851 6.05783C87.5411 5.91319 86.666 5.58774 86.3379 5.73238C86.3561 5.98551 86.3196 6.43752 86.2832 6.6364C86.0279 8.17323 85.8639 9.81854 85.8456 11.4458C87.1035 11.5362 88.3067 11.1565 89.2729 10.3248C89.8016 9.87278 90.1115 9.23997 90.0568 8.58908C90.0204 8.04667 89.674 7.50426 89.3641 7.12457Z" fill="white"/>
<path d="M97.1548 12.169C96.772 11.7351 96.6626 11.1565 96.5715 10.596C96.3892 9.29421 96.4256 7.90202 96.3892 6.546C95.2771 8.11899 94.4021 9.71006 93.3447 11.5C93.2353 11.6266 93.1806 11.717 92.9983 11.7893C92.8343 11.7893 92.6884 11.7712 92.5608 11.5904C91.6858 9.98126 91.5217 8.01051 91.6493 6.05783C91.6493 5.93127 91.6858 5.7143 91.8316 5.66006C92.0686 5.58774 92.2509 5.78663 92.2509 5.93127C92.1415 7.7393 92.342 9.45693 92.9436 11.0118C93.5817 9.92702 94.0922 9.023 94.6391 8.13707C95.2042 7.21497 95.8058 6.32904 96.5715 5.31654C96.7173 5.20805 96.9179 5.28038 96.9908 5.42502C97.0455 7.16073 97.0272 8.86028 97.1731 10.5237C97.2095 11.0661 97.3372 11.5904 97.3736 12.0967C97.3736 12.169 97.2095 12.2413 97.1548 12.169Z" fill="white"/>
<path d="M101.856 12.1147C100.853 12.3859 99.6867 12.3679 98.9028 11.6989C98.5382 11.3915 98.2648 10.9395 98.2465 10.4514C98.2283 10.0174 98.4106 9.61965 98.6658 9.25805C99.231 8.46251 100.215 7.9201 101.163 7.81162C101.564 7.77546 101.929 7.8297 102.221 8.11899C102.312 8.20939 102.221 8.39019 102.13 8.42635H101.966C101.911 8.42635 101.838 8.40827 101.783 8.40827C101.656 8.39019 101.546 8.37211 101.473 8.42635C100.598 8.46251 99.7414 8.87836 99.2127 9.58349C98.9757 9.89086 98.8481 10.1259 98.8846 10.5056C98.9211 11.0118 99.3039 11.3915 99.8326 11.5723C100.58 11.8435 101.51 11.6808 102.221 11.4277C102.604 11.283 102.95 11.1384 103.278 10.9034C103.351 10.8491 103.424 10.9034 103.46 10.9938C103.479 11.0661 103.479 11.1384 103.479 11.1926C103.223 11.6808 102.203 12.0243 101.856 12.1147ZM102.877 10.8853C102.786 10.9938 102.622 10.9757 102.549 10.9214C102.367 10.7949 102.367 10.5598 102.367 10.379C102.385 10.0717 102.44 9.7643 102.512 9.43885L102.749 8.44443C102.895 7.79354 102.986 7.14265 102.786 6.60024C102.622 6.13015 102.221 5.66006 101.729 5.60582C101.309 5.55158 100.89 5.69622 100.544 5.94935C100.361 6.07591 99.9602 6.41944 99.8508 6.61832C99.8326 6.69064 99.869 6.8172 99.942 6.88953C100.015 6.96185 99.9602 7.17881 99.7961 7.14265C99.6685 7.10649 99.5227 7.07033 99.4133 6.97993C99.2674 6.85337 99.2127 6.61832 99.3221 6.43752C99.632 5.91319 100.07 5.47926 100.635 5.22614C100.999 5.04533 101.437 4.97301 101.893 5.04533C102.44 5.13573 102.913 5.5335 103.187 6.03975C103.606 6.8172 103.552 7.79354 103.351 8.6614C103.169 9.40269 102.986 10.0897 102.877 10.8853Z" fill="white"/>
<path d="M110.005 8.10091C109.878 9.38461 109.951 10.8853 110.042 12.1509C110.06 12.2775 109.878 12.2955 109.786 12.2413C109.531 12.0424 109.404 11.5181 109.385 11.1926C109.331 10.1801 109.331 9.23997 109.385 8.22747C108.036 8.28171 106.578 8.24555 105.247 8.39019C105.192 9.60157 105.229 10.7587 105.284 11.9159C105.302 11.952 105.229 12.0063 105.138 12.0243C105.083 12.0243 104.992 12.0063 104.937 11.952C104.7 11.717 104.646 11.283 104.627 10.9938C104.536 9.16765 104.664 7.34153 104.846 5.55158C104.883 5.4431 105.047 5.33462 105.192 5.42502C105.393 5.51542 105.393 5.75046 105.429 5.93127C105.393 6.40136 105.338 7.19689 105.284 7.75738C106.614 7.66698 108.091 7.72122 109.422 7.70314C109.495 6.8172 109.531 5.93127 109.75 5.09957C109.841 4.99109 110.023 5.06341 110.133 5.17189C110.224 5.28038 110.279 5.49734 110.279 5.6239C110.188 6.31095 110.06 6.97993 110.042 7.68506C110.096 7.68506 110.151 7.66698 110.206 7.66698C110.242 7.66698 110.297 7.70314 110.297 7.79354C110.297 7.8297 110.297 7.90202 110.26 7.93818C110.206 8.01051 110.096 8.06475 110.005 8.10091Z" fill="white"/>
<path d="M116.858 5.94935C116.384 5.84087 115.91 5.73238 115.418 5.7143C115.016 6.22055 114.816 6.8172 114.707 7.45002C114.579 8.10091 114.597 8.78796 114.561 9.45693C114.524 10.3609 114.597 11.2288 114.707 12.0786C114.652 12.1871 114.488 12.2594 114.36 12.1871C114.05 11.8074 113.977 11.3192 113.959 10.831C113.941 9.74622 113.923 8.60716 114.087 7.54042C114.196 6.85336 114.397 6.22055 114.816 5.64198C113.686 5.58774 112.646 5.82279 111.607 6.11207C111.462 6.09399 111.297 6.00359 111.206 5.85895C111.17 5.73238 111.243 5.66006 111.316 5.6239L111.425 5.58774L111.516 5.55158C112.282 5.24422 113.212 5.08149 114.105 5.06341C115.016 5.02725 115.928 5.11765 116.73 5.40694C116.821 5.4431 116.985 5.56966 117.04 5.67814C117.058 5.80471 116.967 5.96743 116.858 5.94935Z" fill="white"/>
<path d="M119.056 14.881C118.965 14.9353 118.856 14.8449 118.856 14.7545C119.221 14.1397 119.877 12.621 119.786 11.9159C119.585 11.9339 119.385 11.9882 119.202 11.9701C118.947 11.9339 118.819 11.7712 118.783 11.5362C118.747 11.265 118.874 10.9757 119.02 10.7587C119.166 10.5598 119.366 10.4514 119.603 10.4152C120.187 10.3429 120.478 10.8491 120.497 11.3554C120.533 12.3679 119.95 13.8143 119.056 14.881Z" fill="white"/>
<path d="M134.017 12.1509C133.142 11.6627 132.249 11.3192 131.319 10.9938C130.407 10.6683 129.532 10.3429 128.657 9.96318C128.639 10.6141 128.73 11.283 128.894 11.8797C128.949 11.9882 128.913 12.1871 128.748 12.1871C128.603 12.1871 128.511 12.0967 128.457 12.0063C128.402 11.9339 128.366 11.8255 128.311 11.7351C128.11 11.0842 128.037 10.379 128.037 9.65582C127.983 9.61966 127.91 9.56541 127.873 9.47501C127.819 9.42077 127.8 9.31229 127.855 9.22189C127.928 9.16765 128.001 9.05917 128.019 8.98684C128.056 8.7518 128.037 8.20939 128.092 7.97435C128.165 7.5585 128.274 7.05225 128.384 6.546C128.511 6.03975 128.694 5.5335 128.931 5.09957C129.04 4.91877 129.314 4.95493 129.368 5.15381C129.35 5.38886 129.277 5.60582 129.204 5.82279C129.149 6.02167 129.04 6.23863 128.985 6.4556C128.803 7.10649 128.694 7.77546 128.675 8.46251C129.332 7.88394 129.988 7.34153 130.663 6.83528C131.501 6.22055 132.394 5.69622 133.342 5.31654C133.488 5.31654 133.671 5.31654 133.78 5.40694C133.889 5.47926 133.889 5.58774 133.835 5.7143C132.868 6.11207 131.993 6.6364 131.1 7.25113C130.262 7.84778 129.423 8.53484 128.639 9.27613V9.29421C129.532 9.78238 130.517 10.1078 131.465 10.4333C132.303 10.7226 133.105 11.048 133.871 11.5362C134.035 11.6266 134.163 11.7531 134.254 11.9159C134.272 12.0243 134.126 12.169 134.017 12.1509Z" fill="white"/>
<path d="M140.776 11.952C140.539 11.9701 140.375 11.717 140.266 11.5362C139.865 10.831 139.537 10.0897 139.3 9.31229C138.99 8.35403 138.826 7.37769 138.753 6.32904C138.206 7.16073 137.294 8.67948 136.729 9.49309C136.146 10.3609 135.562 11.283 135.088 12.1509C135.034 12.2775 134.833 12.1871 134.76 12.0786C134.669 11.9159 134.705 11.6989 134.742 11.5362C134.851 11.3734 135.052 10.9576 135.161 10.7226C136.346 8.9326 137.586 7.10649 138.68 5.31654C138.807 5.18997 139.245 5.11765 139.281 5.46118C139.372 6.56408 139.537 7.66698 139.792 8.71564C140.047 9.7643 140.43 10.7406 140.922 11.6808C140.94 11.7351 140.922 11.9339 140.776 11.952Z" fill="white"/>
<path d="M147.359 12.169C146.977 11.7351 146.867 11.1565 146.776 10.596C146.594 9.29421 146.63 7.90202 146.594 6.546C145.482 8.11899 144.607 9.71006 143.549 11.5C143.44 11.6266 143.385 11.717 143.203 11.7893C143.039 11.7893 142.893 11.7712 142.765 11.5904C141.89 9.98126 141.726 8.01051 141.854 6.05783C141.854 5.93127 141.89 5.7143 142.036 5.66006C142.273 5.58774 142.455 5.78663 142.455 5.93127C142.346 7.7393 142.547 9.45693 143.148 11.0118C143.786 9.92702 144.297 9.023 144.844 8.13707C145.409 7.21497 146.01 6.32904 146.776 5.31654C146.922 5.20805 147.122 5.28038 147.195 5.42502C147.25 7.16073 147.232 8.86028 147.378 10.5237C147.414 11.0661 147.542 11.5904 147.578 12.0967C147.578 12.169 147.414 12.2413 147.359 12.169Z" fill="white"/>
<path d="M154.704 12.1509C153.829 11.6627 152.936 11.3192 152.006 10.9938C151.095 10.6683 150.219 10.3429 149.344 9.96318C149.326 10.6141 149.417 11.283 149.581 11.8797C149.636 11.9882 149.6 12.1871 149.436 12.1871C149.29 12.1871 149.199 12.0967 149.144 12.0063C149.089 11.9339 149.053 11.8255 148.998 11.7351C148.798 11.0842 148.725 10.379 148.725 9.65582C148.67 9.61966 148.597 9.56541 148.561 9.47501C148.506 9.42077 148.488 9.31229 148.542 9.22189C148.615 9.16765 148.688 9.05917 148.706 8.98684C148.743 8.7518 148.725 8.20939 148.779 7.97435C148.852 7.5585 148.962 7.05225 149.071 6.546C149.199 6.03975 149.381 5.5335 149.618 5.09957C149.727 4.91877 150.001 4.95493 150.055 5.15381C150.037 5.38886 149.964 5.60582 149.891 5.82279C149.837 6.02167 149.727 6.23863 149.673 6.4556C149.49 7.10649 149.381 7.77546 149.363 8.46251C150.019 7.88394 150.675 7.34153 151.35 6.83528C152.188 6.22055 153.082 5.69622 154.03 5.31654C154.175 5.31654 154.358 5.31654 154.467 5.40694C154.577 5.47926 154.577 5.58774 154.522 5.7143C153.556 6.11207 152.681 6.6364 151.787 7.25113C150.949 7.84778 150.11 8.53484 149.326 9.27613V9.29421C150.219 9.78238 151.204 10.1078 152.152 10.4333C152.99 10.7226 153.793 11.048 154.558 11.5362C154.722 11.6266 154.85 11.7531 154.941 11.9159C154.959 12.0243 154.814 12.169 154.704 12.1509Z" fill="white"/>
<path d="M161.153 8.10091C161.026 9.38461 161.099 10.8853 161.19 12.1509C161.208 12.2775 161.026 12.2955 160.935 12.2413C160.679 12.0424 160.552 11.5181 160.534 11.1926C160.479 10.1801 160.479 9.23997 160.534 8.22747C159.185 8.28171 157.726 8.24555 156.395 8.39019C156.341 9.60157 156.377 10.7587 156.432 11.9159C156.45 11.952 156.377 12.0063 156.286 12.0243C156.231 12.0243 156.14 12.0063 156.085 11.952C155.848 11.717 155.794 11.283 155.775 10.9938C155.684 9.16765 155.812 7.34153 155.994 5.55158C156.031 5.4431 156.195 5.33462 156.341 5.42502C156.541 5.51542 156.541 5.75046 156.578 5.93127C156.541 6.40136 156.486 7.19689 156.432 7.75738C157.763 7.66698 159.239 7.72122 160.57 7.70314C160.643 6.8172 160.679 5.93127 160.898 5.09957C160.989 4.99109 161.172 5.06341 161.281 5.17189C161.372 5.28038 161.427 5.49734 161.427 5.6239C161.336 6.31095 161.208 6.97993 161.19 7.68506C161.245 7.68506 161.299 7.66698 161.354 7.66698C161.39 7.66698 161.445 7.70314 161.445 7.79354C161.445 7.8297 161.445 7.90202 161.409 7.93818C161.354 8.01051 161.245 8.06475 161.153 8.10091Z" fill="white"/>
<path d="M166.693 10.6864C165.836 12.5306 165.162 14.429 164.506 16.3455C164.451 16.454 164.196 16.4902 164.141 16.3455C164.05 16.1828 164.105 15.7489 164.141 15.5862C164.433 14.3567 164.961 13.2176 165.399 12.0424C164.87 11.265 164.196 10.1982 163.685 9.27613C163.047 8.10091 162.519 6.87144 162.318 5.51542C162.282 5.33462 162.391 5.15381 162.537 5.08149C162.646 5.04533 162.719 5.09957 162.774 5.15381C162.828 5.20805 162.865 5.28038 162.901 5.3527C163.084 6.43752 163.448 7.45002 163.904 8.40827C164.414 9.43885 165.016 10.4152 165.691 11.3915C166.11 10.4875 166.547 9.58349 167.021 8.69756C167.495 7.79354 168.024 6.92569 168.662 6.07591C168.79 5.91319 168.972 5.73238 169.136 5.82279C169.246 5.87703 169.337 6.03975 169.246 6.16631C168.279 7.63082 167.423 9.13149 166.693 10.6864Z" fill="white"/>
<path d="M173.569 11.6989C173.022 12.0605 172.348 12.3498 171.673 12.3498C171.29 12.3498 171.017 12.1871 170.761 11.8255C170.67 11.8978 170.506 11.952 170.433 11.8435C170.105 11.3915 170.014 10.7587 169.996 10.144C169.959 8.571 169.978 7.41386 170.397 6.00359C170.433 5.85895 170.78 5.58774 171.035 5.66006C171.144 5.37078 171.436 5.06341 171.782 5.02725C172.712 5.02725 173.715 5.51542 174.025 6.43752C174.116 6.7268 174.116 7.03417 174.006 7.32345C173.897 7.59466 173.715 7.8297 173.478 8.01051L173.368 8.10091C173.824 8.24555 174.335 8.53484 174.626 8.98684C174.845 9.33037 174.863 9.74622 174.772 10.144C174.608 10.7949 174.134 11.3192 173.569 11.6989ZM174.079 9.29421C173.934 9.023 173.533 8.86028 173.241 8.71564C172.894 8.49868 172.585 8.58908 172.238 8.6614L171.691 8.78796C171.491 8.8422 171.29 8.8422 171.071 8.78796C170.98 8.73372 170.871 8.55292 170.962 8.46251C171.181 8.24555 171.454 8.13707 171.764 8.06475L172.603 7.97435C172.931 7.79354 173.277 7.43194 173.423 7.08841C173.514 6.79912 173.46 6.60024 173.277 6.3652C172.949 5.91319 172.42 5.7143 171.892 5.66006C171.728 5.64198 171.673 5.67814 171.637 5.78663C171.582 5.93127 171.545 6.09399 171.454 6.22055C171.418 6.31096 171.29 6.34712 171.199 6.29287C171.126 6.27479 171.071 6.23863 171.035 6.20247C170.816 6.97993 170.689 7.86586 170.652 8.78796C170.616 9.65582 170.652 10.5056 170.78 11.3011C170.926 11.1384 171.108 10.9034 171.199 10.7768C171.327 10.6502 171.564 10.8491 171.527 10.9757C171.491 11.0661 171.418 11.1746 171.363 11.265C171.327 11.3734 171.272 11.4638 171.272 11.5362C171.381 11.6989 171.637 11.7531 171.946 11.717C172.402 11.6447 172.949 11.3915 173.35 11.0842C173.715 10.7949 174.025 10.4333 174.116 9.98126C174.171 9.7643 174.207 9.51117 174.079 9.29421Z" fill="white"/>
<path d="M185.945 11.5904C185.945 11.7351 185.781 11.7712 185.69 11.7531C185.49 11.6808 185.453 11.3554 185.417 11.1746C185.362 10.8491 185.362 10.5237 185.362 10.1801V9.07724C185.362 8.22747 185.471 7.30537 185.49 6.43752C185.38 6.27479 185.198 6.18439 185.016 6.14823C184.815 6.09399 184.578 6.07591 184.378 6.02167C183.648 5.91319 182.919 5.80471 182.153 5.84087C182.062 6.6364 181.844 7.37769 181.734 8.17323C181.57 9.34845 181.424 10.4514 181.497 11.6989C181.497 11.8435 181.534 12.0605 181.388 12.169C181.315 12.2413 181.114 12.2413 181.023 12.1509C180.932 12.0424 180.896 11.9159 180.877 11.7893C180.859 11.6627 180.877 11.5181 180.859 11.3734C180.841 9.47501 181.151 7.70314 181.534 5.85895C181.442 5.87703 181.351 5.89511 181.26 5.87703C181.096 5.78662 181.133 5.6239 181.205 5.55158C181.278 5.40694 181.406 5.3527 181.534 5.31654C181.661 5.28038 181.807 5.24422 181.935 5.24422C183.174 5.15381 184.487 5.33462 185.617 5.69622C185.836 5.82279 186.146 5.96743 186.164 6.25671C186 7.99243 185.964 9.78238 185.945 11.5904Z" fill="white"/>
<path d="M191.403 11.7531C190.582 12.169 189.598 12.3498 188.705 11.9159C188.012 11.5723 187.52 10.9938 187.283 10.2705C187.009 9.42077 187.1 8.46251 187.465 7.66698C187.738 7.08841 188.158 6.58216 188.65 6.20247C188.978 5.96743 189.47 5.67814 189.926 5.6239C190.291 5.20805 190.892 5.08149 191.403 5.20805C192.278 5.4431 193.025 6.32903 193.262 7.10649C193.499 7.86586 193.554 8.69756 193.335 9.47501C193.062 10.5237 192.369 11.283 191.403 11.7531ZM192.661 7.30537C192.442 6.70872 191.95 6.03975 191.311 5.82279C191.02 5.7143 190.71 5.67814 190.473 5.85895C190.236 6.03975 190.09 6.32903 189.981 6.58216C189.962 6.6364 189.962 6.70872 189.962 6.78104C189.962 6.85336 189.962 6.94377 189.944 7.01609C189.926 7.05225 189.744 7.16073 189.689 7.05225C189.653 6.88953 189.616 6.56408 189.634 6.31096C188.942 6.60024 188.358 7.19689 188.03 7.86586C187.684 8.571 187.665 9.38461 187.884 10.1078C188.066 10.6683 188.413 11.1384 188.996 11.3734C189.725 11.6447 190.509 11.5543 191.166 11.2288C191.913 10.8491 192.442 10.2705 192.697 9.49309C192.934 8.80604 192.898 7.99243 192.661 7.30537Z" fill="white"/>
<path d="M204.931 8.10091C204.803 9.38461 204.876 10.8853 204.968 12.1509C204.986 12.2775 204.803 12.2955 204.712 12.2413C204.457 12.0424 204.329 11.5181 204.311 11.1926C204.257 10.1801 204.257 9.23997 204.311 8.22747C202.962 8.28171 201.504 8.24555 200.173 8.39019C200.118 9.60157 200.155 10.7587 200.209 11.9159C200.228 11.952 200.155 12.0063 200.064 12.0243C200.009 12.0243 199.918 12.0063 199.863 11.952C199.626 11.717 199.571 11.283 199.553 10.9938C199.462 9.16765 199.59 7.34153 199.772 5.55158C199.808 5.4431 199.972 5.33462 200.118 5.42502C200.319 5.51542 200.319 5.75046 200.355 5.93127C200.319 6.40136 200.264 7.19689 200.209 7.75738C201.54 7.66698 203.017 7.72122 204.348 7.70314C204.421 6.8172 204.457 5.93127 204.676 5.09957C204.767 4.99109 204.949 5.06341 205.059 5.17189C205.15 5.28038 205.205 5.49734 205.205 5.6239C205.113 6.31095 204.986 6.97993 204.968 7.68506C205.022 7.68506 205.077 7.66698 205.132 7.66698C205.168 7.66698 205.223 7.70314 205.223 7.79354C205.223 7.8297 205.223 7.90202 205.186 7.93818C205.132 8.01051 205.022 8.06475 204.931 8.10091Z" fill="white"/>
<path d="M209.013 12.1871C208.101 12.1509 207.262 11.7351 206.734 10.9576C206.296 10.3067 206.187 9.54733 206.278 8.80604C206.387 7.97434 206.734 7.17881 207.208 6.56408C207.736 5.87703 208.484 5.33462 209.341 5.17189C209.924 5.06341 210.544 5.11765 210.981 5.58774C211.182 5.80471 211.364 6.03975 211.364 6.32904C211.382 6.6364 211.237 6.90761 210.981 7.10649C209.705 8.15515 208.356 9.13149 206.971 9.92702C207.007 10.4875 207.499 11.0661 208.028 11.3554C208.557 11.6447 209.177 11.6808 209.76 11.6085C210.343 11.5543 210.945 11.3554 211.364 11.1565C211.437 11.1022 211.492 11.1565 211.51 11.2107C211.528 11.2469 211.565 11.3192 211.492 11.3734C210.854 11.952 209.942 12.2232 209.013 12.1871ZM209.815 5.73238C209.286 5.73238 208.757 5.94935 208.338 6.27479C207.445 6.99801 206.916 8.15515 206.916 9.27613C208.21 8.571 209.432 7.6489 210.617 6.69064C210.708 6.61832 210.781 6.34712 210.653 6.13015C210.507 5.84087 210.179 5.73238 209.815 5.73238Z" fill="white"/>
<path d="M221.137 12.1871C221.01 12.169 220.937 12.0967 220.882 12.0063L220.827 11.9159C220.153 10.4694 219.861 8.8422 219.843 7.12457C219.606 7.70314 219.369 8.26363 219.095 8.82412C218.785 9.45693 218.439 10.0717 217.947 10.6502C217.728 10.9214 217.309 10.9576 216.981 10.8853C216.707 10.7587 216.525 10.4514 216.397 10.1982C215.704 8.87836 215.376 7.39577 215.03 5.94935C215.03 5.93127 215.012 5.91319 214.994 5.93127C213.863 7.57658 213.207 9.42077 212.751 11.3734C212.678 11.5543 212.842 11.717 212.861 11.8978C212.897 12.0063 212.824 12.1147 212.678 12.169C212.478 12.1871 212.314 12.0243 212.223 11.8797C212.095 11.5723 212.113 11.2288 212.204 10.9214C212.806 8.96876 213.426 7.03417 214.702 5.33462C214.866 5.22614 215.03 5.22614 215.176 5.2623C215.358 5.2623 215.522 5.4431 215.54 5.56966C215.941 7.12457 216.27 8.71564 217.054 10.1259C217.163 10.2705 217.309 10.3609 217.473 10.3067C217.892 9.90894 218.166 9.42077 218.439 8.9326C218.986 7.93818 219.369 6.88953 219.788 5.80471L219.879 5.67814C219.934 5.6239 219.97 5.58774 220.062 5.58774C220.244 5.5335 220.371 5.66006 220.444 5.78663C220.408 6.90761 220.426 7.95627 220.554 8.98684C220.681 10.0174 220.918 11.0299 221.301 12.0063C221.319 12.1328 221.192 12.1871 221.137 12.1871Z" fill="white"/>
<path d="M226.333 10.6864C225.477 12.5306 224.802 14.429 224.146 16.3455C224.091 16.454 223.836 16.4902 223.781 16.3455C223.69 16.1828 223.745 15.7489 223.781 15.5862C224.073 14.3567 224.602 13.2176 225.039 12.0424C224.51 11.265 223.836 10.1982 223.325 9.27613C222.687 8.10091 222.159 6.87144 221.958 5.51542C221.922 5.33462 222.031 5.15381 222.177 5.08149C222.286 5.04533 222.359 5.09957 222.414 5.15381C222.469 5.20805 222.505 5.28038 222.542 5.3527C222.724 6.43752 223.088 7.45002 223.544 8.40827C224.055 9.43885 224.656 10.4152 225.331 11.3915C225.75 10.4875 226.188 9.58349 226.662 8.69756C227.136 7.79354 227.664 6.92569 228.302 6.07591C228.43 5.91319 228.612 5.73238 228.776 5.82279C228.886 5.87703 228.977 6.03975 228.886 6.16631C227.92 7.63082 227.063 9.13149 226.333 10.6864Z" fill="white"/>
</svg>
