<svg width="378" height="66" fill="none" xmlns="http://www.w3.org/2000/svg"><mask id="a" maskUnits="userSpaceOnUse" x="0" y="-1" width="379" height="67" fill="#000"><path fill="#fff" d="M0-1h379v67H0z"/><path d="M23.05 24.197c-1.845-.423-3.692-.846-5.609-.916-1.562 1.974-2.343 4.3-2.77 6.767-.496 2.538-.425 5.217-.567 7.826-.142 3.524.142 6.908.568 10.222-.213.423-.852.705-1.35.423-1.207-1.48-1.49-3.384-1.562-5.288-.07-4.23-.142-8.67.497-12.83.426-2.679 1.208-5.146 2.84-7.402-4.402-.212-8.45.705-12.497 1.833-.568-.07-1.207-.423-1.562-.987-.142-.494.142-.776.426-.917l.426-.14.355-.142c2.982-1.198 6.604-1.833 10.083-1.903 3.55-.141 7.101.211 10.226 1.34.355.14.994.634 1.207 1.057.071.493-.284 1.128-.71 1.057zM37.083 48.519c-3.55-.141-6.817-1.763-8.876-4.794-1.704-2.538-2.13-5.499-1.775-8.39.426-3.242 1.775-6.344 3.621-8.74 2.06-2.68 4.97-4.795 8.308-5.43 2.273-.422 4.687-.21 6.391 1.622.781.846 1.491 1.763 1.491 2.89.072 1.2-.497 2.256-1.49 3.032-4.971 4.089-10.226 7.896-15.623 10.997.142 2.186 2.06 4.442 4.119 5.57 2.059 1.128 4.473 1.269 6.746.987 2.272-.212 4.615-.987 6.248-1.763.285-.211.498 0 .569.212.07.14.213.423-.071.634-2.486 2.256-6.036 3.314-9.658 3.173zm3.125-25.168c-2.06 0-4.119.846-5.752 2.115-3.48 2.82-5.539 7.332-5.539 11.703 5.042-2.75 9.8-6.345 14.415-10.081.355-.282.64-1.34.142-2.186-.568-1.128-1.846-1.55-3.266-1.55zM70.322 46.192c0 .564-.64.705-.995.635-.78-.282-.923-1.551-1.065-2.256-.213-1.27-.213-2.538-.213-3.877v-4.3c0-3.314.426-6.91.497-10.293-.426-.635-1.136-.987-1.846-1.128-.781-.212-1.704-.282-2.485-.494-2.84-.423-5.681-.846-8.664-.705-.355 3.102-1.207 5.992-1.633 9.094-.639 4.583-1.207 8.883-.923 13.747 0 .564.142 1.41-.426 1.833-.284.282-1.065.282-1.42-.07-.355-.423-.497-.917-.568-1.41-.071-.494 0-1.058-.071-1.622-.071-7.402 1.136-14.31 2.627-21.501-.355.07-.71.14-1.065.07-.64-.352-.497-.987-.213-1.269.284-.564.781-.775 1.278-.916.497-.141 1.065-.282 1.562-.282 4.829-.353 9.942.352 14.344 1.762.852.494 2.06 1.058 2.13 2.186-.639 6.767-.78 13.747-.852 20.796zM86.11 48.519c-3.55-.141-6.816-1.763-8.876-4.794-1.704-2.538-2.13-5.499-1.775-8.39.426-3.242 1.775-6.344 3.622-8.74 2.059-2.68 4.97-4.795 8.308-5.43 2.272-.422 4.687-.21 6.39 1.622.782.846 1.492 1.763 1.492 2.89.071 1.2-.497 2.256-1.491 3.032-4.97 4.089-10.226 7.896-15.622 10.997.142 2.186 2.059 4.442 4.118 5.57 2.06 1.128 4.474 1.269 6.746.987 2.272-.212 4.616-.987 6.249-1.763.284-.211.497 0 .568.212.071.14.213.423-.07.634-2.486 2.256-6.037 3.314-9.658 3.173zm3.125-25.168c-2.06 0-4.118.846-5.752 2.115-3.48 2.82-5.538 7.332-5.538 11.703 5.041-2.75 9.799-6.345 14.415-10.081.355-.282.639-1.34.142-2.186-.568-1.128-1.847-1.55-3.267-1.55zM102.378 24.197h-.355a.587.587 0 0 1-.569-.493c-.071-.564.143-1.058.569-1.48 1.136-.988 2.414-1.41 3.834-1.34.994.07 1.988.211 2.983.564l2.698.916c3.834 1.27 7.172 4.653 9.018 8.319.994 2.044 1.349 4.16.852 6.486-.497 2.115-1.775 4.089-3.479 5.71-4.261 4.018-9.587 5.217-15.48 5.217-.071 4.794-.355 10.151.284 14.875 0 .211.142.493.284.705.071.352.213.634-.071 1.057-.568.423-1.136.282-1.634 0-.71-.775-.994-1.621-1.065-2.608-.497-5.006-.284-9.87 0-14.946-.639-.564-1.633-1.34-1.846-2.185 0-.282.071-.564.213-.705.213-.353.497-.423.64-.282.212.211.638.493.993.705.426-7.05.923-13.747 2.131-20.515zm14.06 4.582c-1.563-1.903-3.764-3.242-5.894-4.159-1.207-.564-4.616-1.833-5.894-1.269.071.987-.071 2.75-.213 3.525-.994 5.992-1.633 12.408-1.704 18.752 4.899.353 9.586-1.128 13.35-4.37 2.059-1.763 3.266-4.23 3.053-6.768-.142-2.115-1.491-4.23-2.698-5.71zM139.399 43.795c-1.562 1.551-3.409 2.89-5.468 3.737-1.775.705-3.834.916-5.965.282-.071.352-.355.775-.71.775-1.136-.423-1.562-1.48-1.775-2.397-.497-8.53.426-16.919 1.917-24.885.355-.776 1.775-1.199 2.201-.07-.426 4.088-1.207 8.177-1.42 12.266 2.486-1.904 5.681-2.82 8.806-2.115 2.059.493 4.118 2.326 4.757 4.37.994 2.962-.071 5.922-2.343 8.037zm-2.983-9.94c-3.195-.775-6.177.635-8.45 3.032 0 2.608 0 6.556-.071 8.741a8.556 8.556 0 0 0 5.326-.493c2.13-.846 4.048-2.468 5.539-4.371 1.065-1.34 1.136-3.454.284-4.935-.497-.987-1.633-1.762-2.628-1.974zM185.99 46.192c0 .564-.639.705-.994.635-.781-.282-.923-1.551-1.065-2.256-.213-1.27-.213-2.538-.213-3.877v-4.3c0-3.314.426-6.91.497-10.293-.426-.635-1.136-.987-1.846-1.128-.781-.212-1.704-.282-2.485-.494-2.841-.423-5.681-.846-8.664-.705-.355 3.102-1.207 5.992-1.633 9.094-.639 4.583-1.207 8.883-.923 13.747 0 .564.142 1.41-.426 1.833-.284.282-1.065.282-1.42-.07-.355-.423-.497-.917-.568-1.41-.071-.494 0-1.058-.071-1.622-.071-7.402 1.136-14.31 2.627-21.501-.355.07-.71.14-1.065.07-.639-.352-.497-.987-.213-1.269.284-.564.781-.775 1.278-.916.497-.141 1.065-.282 1.562-.282 4.829-.353 9.942.352 14.344 1.762.852.494 2.06 1.058 2.131 2.186-.64 6.767-.782 13.747-.853 20.796zM194.608 24.197h-.355a.587.587 0 0 1-.569-.493c-.071-.564.143-1.058.569-1.48 1.136-.988 2.414-1.41 3.834-1.34.994.07 1.988.211 2.983.564l2.698.916c3.834 1.27 7.172 4.653 9.018 8.319.994 2.044 1.349 4.16.852 6.486-.497 2.115-1.775 4.089-3.479 5.71-4.261 4.018-9.587 5.217-15.48 5.217-.071 4.794-.355 10.151.284 14.875 0 .211.142.493.284.705.071.352.213.634-.071 1.057-.568.423-1.136.282-1.634 0-.71-.775-.994-1.621-1.065-2.608-.497-5.006-.284-9.87 0-14.946-.639-.564-1.633-1.34-1.846-2.185 0-.282.071-.564.213-.705.213-.353.497-.423.639-.282.213.211.639.493.994.705.426-7.05.923-13.747 2.131-20.515zm14.06 4.582c-1.563-1.903-3.764-3.242-5.894-4.159-1.207-.564-4.616-1.833-5.894-1.269.071.987-.071 2.75-.213 3.525-.994 5.992-1.633 12.408-1.704 18.752 4.899.353 9.586-1.128 13.35-4.37 2.059-1.763 3.266-4.23 3.053-6.768-.142-2.115-1.491-4.23-2.698-5.71zM232.836 46.827c-3.195 1.621-7.03 2.326-10.509.634-2.699-1.34-4.616-3.595-5.539-6.415-1.065-3.313-.71-7.05.71-10.152 1.065-2.255 2.698-4.23 4.616-5.71 1.278-.916 3.195-2.044 4.97-2.256 1.42-1.621 3.764-2.115 5.752-1.621 3.409.916 6.32 4.37 7.243 7.402.923 2.96 1.136 6.204.284 9.235-1.065 4.089-3.763 7.05-7.527 8.883zm4.9-17.343c-.852-2.326-2.77-4.934-5.255-5.78-1.136-.423-2.343-.564-3.266.14-.924.706-1.492 1.834-1.918 2.82-.071.212-.071.494-.071.776 0 .282 0 .634-.071.916-.071.141-.781.564-.994.141-.142-.634-.284-1.903-.213-2.89-2.698 1.128-4.971 3.454-6.249 6.063-1.349 2.75-1.42 5.922-.568 8.741.71 2.186 2.059 4.019 4.332 4.935 2.84 1.058 5.894.705 8.45-.564 2.911-1.48 4.971-3.736 5.965-6.767.923-2.68.781-5.852-.142-8.53zM277.792 46.615c-2.131 1.41-4.758 2.538-7.385 2.538-1.492 0-2.557-.634-3.551-2.044-.355.282-.994.493-1.278.07-1.278-1.762-1.633-4.23-1.704-6.627-.142-6.133-.071-10.645 1.562-16.143.142-.564 1.491-1.622 2.485-1.34.426-1.128 1.562-2.326 2.912-2.467 3.621 0 7.527 1.903 8.734 5.499.355 1.128.355 2.326-.071 3.454a6.363 6.363 0 0 1-2.059 2.679l-.427.352c1.776.564 3.764 1.692 4.9 3.455.852 1.34.923 2.96.568 4.512-.639 2.537-2.485 4.582-4.686 6.062zm1.988-9.376c-.568-1.057-2.13-1.692-3.267-2.256-1.349-.846-2.556-.493-3.905-.211l-2.13.493c-.782.212-1.563.212-2.415 0-.355-.211-.781-.916-.426-1.269.852-.846 1.917-1.269 3.125-1.55l3.266-.353c1.278-.705 2.627-2.115 3.196-3.455.355-1.128.142-1.903-.569-2.82-1.278-1.762-3.337-2.537-5.396-2.749-.639-.07-.852.07-.994.494-.214.564-.356 1.198-.711 1.692-.142.352-.639.493-.994.282a1.375 1.375 0 0 1-.639-.353c-.852 3.031-1.349 6.486-1.491 10.081-.142 3.384 0 6.697.497 9.8a28.95 28.95 0 0 0 1.633-2.045c.497-.494 1.42.282 1.278.775-.142.353-.426.776-.639 1.128-.142.423-.355.776-.355 1.058.426.634 1.421.846 2.628.705 1.775-.282 3.905-1.27 5.467-2.468 1.421-1.128 2.628-2.538 2.983-4.3.213-.846.355-1.833-.142-2.679zM299.419 48.237c-3.905 1.057-8.45.987-11.503-1.622-1.421-1.198-2.486-2.96-2.557-4.864-.071-1.692.639-3.243 1.633-4.653 2.202-3.102 6.036-5.217 9.729-5.64 1.562-.14 2.982.07 4.118 1.199.355.352 0 1.057-.355 1.198h-.639c-.213 0-.497-.07-.71-.07-.497-.07-.923-.141-1.207.07-3.409.141-6.746 1.763-8.805 4.512-.923 1.199-1.42 2.115-1.278 3.596.142 1.973 1.633 3.454 3.692 4.159 2.911 1.057 6.533.423 9.302-.564 1.492-.564 2.841-1.128 4.119-2.045.284-.211.568 0 .71.353.071.282.071.564.071.775-.994 1.904-4.971 3.243-6.32 3.596zm3.977-4.794c-.355.423-.994.352-1.278.14-.71-.493-.711-1.41-.711-2.114.071-1.199.285-2.397.569-3.666l.923-3.877c.568-2.538.923-5.076.142-7.19-.639-1.834-2.202-3.667-4.119-3.878-1.633-.212-3.266.352-4.616 1.34-.71.493-2.272 1.832-2.698 2.608-.071.281.071.775.355 1.057.284.282.071 1.128-.568.987-.497-.141-1.065-.282-1.491-.635-.568-.493-.781-1.41-.355-2.114 1.207-2.045 2.911-3.737 5.112-4.724 1.421-.705 3.125-.987 4.9-.705 2.131.353 3.977 1.904 5.042 3.878 1.633 3.031 1.42 6.838.639 10.222-.71 2.89-1.42 5.569-1.846 8.67zM322.072 48.237c-2.698.352-5.539.14-8.237-1.48-3.551-2.116-5.113-5.782-4.9-9.87a17.913 17.913 0 0 1 2.983-8.813 17.817 17.817 0 0 1 7.243-6.274c1.562-.775 3.692-1.128 5.396-.423 1.421.564 2.912 2.045 3.196 3.455.142.423-.568 1.34-1.136.916-.781-.705-1.776-1.621-2.77-2.044-.994-.423-1.917-.494-2.982-.07-2.77 1.127-5.326 3.313-7.03 5.92-1.562 2.398-2.486 5.218-2.557 8.108 0 2.608.995 5.076 3.196 6.697 2.059 1.48 4.758 1.833 7.243 1.622 4.19-.353 7.882-2.115 11.575-3.737.426 0 1.065.705.71 1.199-3.551 1.974-7.598 4.16-11.93 4.794zM345.923 4.81l-.497 2.186c-.781 3.313-.852 6.768-.852 10.222-.071 5.076.284 10.222.781 15.086-.142.705-.213 1.48-1.065 1.622-.852-.987-1.065-2.115-1.207-3.173-.568-5.146-.923-10.433-.781-15.65.142-4.089.639-8.178 1.633-12.125.142-.282.355-1.058 1.065-1.199.426-.07 1.136.07 1.349.705-.071.776-.213 1.551-.426 2.326zm2.059 44.555c-2.485-.776-4.26-3.384-4.899-5.64-.071-.776.142-1.34.781-1.692.71-.141 1.207.493 1.349.916.213.776.568 1.41.994 2.115.852 1.199 1.775 2.256 2.627 3.455.071.493-.497.916-.852.846zM376.835 16.09a5.02 5.02 0 0 1-1.278 1.128c-.71.07-1.278 0-1.775-.282-1.562-.705-3.338-1.833-4.616-2.75-.071 2.256-.284 4.583 0 6.768-.142 1.128-1.42.635-1.562.353-.142-.141-.284-.282-.355-.494a1.534 1.534 0 0 1-.355-.564c-.142-.634-.142-1.269-.142-1.833.071-1.198.142-2.467.142-3.665-1.633 1.55-3.622 2.89-5.752 3.665-.497.07-1.278.07-1.846-.423-.852-.705-.071-1.903.923-2.537l.497.916c.497-.141.994-.493 1.491-.705 1.491-.916 2.983-2.256 4.19-3.595-2.273-1.833-4.545-4.09-6.462-6.134-.497-.423-.284-1.057-.071-1.41.639-.846 1.633-.282 1.846-.07a86.505 86.505 0 0 0 5.113 5.076c0-1.904.071-3.807-.071-5.57l-.568-1.621c-.071-.423.213-1.41 1.136-1.34.639.212.994.706 1.278 1.27l.213.493c.213.494.355 1.41.355 1.903v3.878l.213-.353 1.491-1.974c.497-.705 1.208-1.269 2.06-1.762 1.136-.635 3.266 0 2.627 2.115-.497-.07-.639-.141-.852-.212-.142 0-.284-.07-.568-.14-.426-.142-1.846 1.762-2.059 2.044-.853 1.128-1.563 2.326-2.486 3.525a33.747 33.747 0 0 0 5.61 3.384c.142-.212.284-.282.426-.353.142-.141.284-.211.781-.423.568.564.639.987.568 1.269-.071.141-.142.212-.142.423z"/></mask><path d="M23.05 24.197c-1.845-.423-3.692-.846-5.609-.916-1.562 1.974-2.343 4.3-2.77 6.767-.496 2.538-.425 5.217-.567 7.826-.142 3.524.142 6.908.568 10.222-.213.423-.852.705-1.35.423-1.207-1.48-1.49-3.384-1.562-5.288-.07-4.23-.142-8.67.497-12.83.426-2.679 1.208-5.146 2.84-7.402-4.402-.212-8.45.705-12.497 1.833-.568-.07-1.207-.423-1.562-.987-.142-.494.142-.776.426-.917l.426-.14.355-.142c2.982-1.198 6.604-1.833 10.083-1.903 3.55-.141 7.101.211 10.226 1.34.355.14.994.634 1.207 1.057.071.493-.284 1.128-.71 1.057zM37.083 48.519c-3.55-.141-6.817-1.763-8.876-4.794-1.704-2.538-2.13-5.499-1.775-8.39.426-3.242 1.775-6.344 3.621-8.74 2.06-2.68 4.97-4.795 8.308-5.43 2.273-.422 4.687-.21 6.391 1.622.781.846 1.491 1.763 1.491 2.89.072 1.2-.497 2.256-1.49 3.032-4.971 4.089-10.226 7.896-15.623 10.997.142 2.186 2.06 4.442 4.119 5.57 2.059 1.128 4.473 1.269 6.746.987 2.272-.212 4.615-.987 6.248-1.763.285-.211.498 0 .569.212.07.14.213.423-.071.634-2.486 2.256-6.036 3.314-9.658 3.173zm3.125-25.168c-2.06 0-4.119.846-5.752 2.115-3.48 2.82-5.539 7.332-5.539 11.703 5.042-2.75 9.8-6.345 14.415-10.081.355-.282.64-1.34.142-2.186-.568-1.128-1.846-1.55-3.266-1.55zM70.322 46.192c0 .564-.64.705-.995.635-.78-.282-.923-1.551-1.065-2.256-.213-1.27-.213-2.538-.213-3.877v-4.3c0-3.314.426-6.91.497-10.293-.426-.635-1.136-.987-1.846-1.128-.781-.212-1.704-.282-2.485-.494-2.84-.423-5.681-.846-8.664-.705-.355 3.102-1.207 5.992-1.633 9.094-.639 4.583-1.207 8.883-.923 13.747 0 .564.142 1.41-.426 1.833-.284.282-1.065.282-1.42-.07-.355-.423-.497-.917-.568-1.41-.071-.494 0-1.058-.071-1.622-.071-7.402 1.136-14.31 2.627-21.501-.355.07-.71.14-1.065.07-.64-.352-.497-.987-.213-1.269.284-.564.781-.775 1.278-.916.497-.141 1.065-.282 1.562-.282 4.829-.353 9.942.352 14.344 1.762.852.494 2.06 1.058 2.13 2.186-.639 6.767-.78 13.747-.852 20.796zM86.11 48.519c-3.55-.141-6.816-1.763-8.876-4.794-1.704-2.538-2.13-5.499-1.775-8.39.426-3.242 1.775-6.344 3.622-8.74 2.059-2.68 4.97-4.795 8.308-5.43 2.272-.422 4.687-.21 6.39 1.622.782.846 1.492 1.763 1.492 2.89.071 1.2-.497 2.256-1.491 3.032-4.97 4.089-10.226 7.896-15.622 10.997.142 2.186 2.059 4.442 4.118 5.57 2.06 1.128 4.474 1.269 6.746.987 2.272-.212 4.616-.987 6.249-1.763.284-.211.497 0 .568.212.071.14.213.423-.07.634-2.486 2.256-6.037 3.314-9.658 3.173zm3.125-25.168c-2.06 0-4.118.846-5.752 2.115-3.48 2.82-5.538 7.332-5.538 11.703 5.041-2.75 9.799-6.345 14.415-10.081.355-.282.639-1.34.142-2.186-.568-1.128-1.847-1.55-3.267-1.55zM102.378 24.197h-.355a.587.587 0 0 1-.569-.493c-.071-.564.143-1.058.569-1.48 1.136-.988 2.414-1.41 3.834-1.34.994.07 1.988.211 2.983.564l2.698.916c3.834 1.27 7.172 4.653 9.018 8.319.994 2.044 1.349 4.16.852 6.486-.497 2.115-1.775 4.089-3.479 5.71-4.261 4.018-9.587 5.217-15.48 5.217-.071 4.794-.355 10.151.284 14.875 0 .211.142.493.284.705.071.352.213.634-.071 1.057-.568.423-1.136.282-1.634 0-.71-.775-.994-1.621-1.065-2.608-.497-5.006-.284-9.87 0-14.946-.639-.564-1.633-1.34-1.846-2.185 0-.282.071-.564.213-.705.213-.353.497-.423.64-.282.212.211.638.493.993.705.426-7.05.923-13.747 2.131-20.515zm14.06 4.582c-1.563-1.903-3.764-3.242-5.894-4.159-1.207-.564-4.616-1.833-5.894-1.269.071.987-.071 2.75-.213 3.525-.994 5.992-1.633 12.408-1.704 18.752 4.899.353 9.586-1.128 13.35-4.37 2.059-1.763 3.266-4.23 3.053-6.768-.142-2.115-1.491-4.23-2.698-5.71zM139.399 43.795c-1.562 1.551-3.409 2.89-5.468 3.737-1.775.705-3.834.916-5.965.282-.071.352-.355.775-.71.775-1.136-.423-1.562-1.48-1.775-2.397-.497-8.53.426-16.919 1.917-24.885.355-.776 1.775-1.199 2.201-.07-.426 4.088-1.207 8.177-1.42 12.266 2.486-1.904 5.681-2.82 8.806-2.115 2.059.493 4.118 2.326 4.757 4.37.994 2.962-.071 5.922-2.343 8.037zm-2.983-9.94c-3.195-.775-6.177.635-8.45 3.032 0 2.608 0 6.556-.071 8.741a8.556 8.556 0 0 0 5.326-.493c2.13-.846 4.048-2.468 5.539-4.371 1.065-1.34 1.136-3.454.284-4.935-.497-.987-1.633-1.762-2.628-1.974zM185.99 46.192c0 .564-.639.705-.994.635-.781-.282-.923-1.551-1.065-2.256-.213-1.27-.213-2.538-.213-3.877v-4.3c0-3.314.426-6.91.497-10.293-.426-.635-1.136-.987-1.846-1.128-.781-.212-1.704-.282-2.485-.494-2.841-.423-5.681-.846-8.664-.705-.355 3.102-1.207 5.992-1.633 9.094-.639 4.583-1.207 8.883-.923 13.747 0 .564.142 1.41-.426 1.833-.284.282-1.065.282-1.42-.07-.355-.423-.497-.917-.568-1.41-.071-.494 0-1.058-.071-1.622-.071-7.402 1.136-14.31 2.627-21.501-.355.07-.71.14-1.065.07-.639-.352-.497-.987-.213-1.269.284-.564.781-.775 1.278-.916.497-.141 1.065-.282 1.562-.282 4.829-.353 9.942.352 14.344 1.762.852.494 2.06 1.058 2.131 2.186-.64 6.767-.782 13.747-.853 20.796zM194.608 24.197h-.355a.587.587 0 0 1-.569-.493c-.071-.564.143-1.058.569-1.48 1.136-.988 2.414-1.41 3.834-1.34.994.07 1.988.211 2.983.564l2.698.916c3.834 1.27 7.172 4.653 9.018 8.319.994 2.044 1.349 4.16.852 6.486-.497 2.115-1.775 4.089-3.479 5.71-4.261 4.018-9.587 5.217-15.48 5.217-.071 4.794-.355 10.151.284 14.875 0 .211.142.493.284.705.071.352.213.634-.071 1.057-.568.423-1.136.282-1.634 0-.71-.775-.994-1.621-1.065-2.608-.497-5.006-.284-9.87 0-14.946-.639-.564-1.633-1.34-1.846-2.185 0-.282.071-.564.213-.705.213-.353.497-.423.639-.282.213.211.639.493.994.705.426-7.05.923-13.747 2.131-20.515zm14.06 4.582c-1.563-1.903-3.764-3.242-5.894-4.159-1.207-.564-4.616-1.833-5.894-1.269.071.987-.071 2.75-.213 3.525-.994 5.992-1.633 12.408-1.704 18.752 4.899.353 9.586-1.128 13.35-4.37 2.059-1.763 3.266-4.23 3.053-6.768-.142-2.115-1.491-4.23-2.698-5.71zM232.836 46.827c-3.195 1.621-7.03 2.326-10.509.634-2.699-1.34-4.616-3.595-5.539-6.415-1.065-3.313-.71-7.05.71-10.152 1.065-2.255 2.698-4.23 4.616-5.71 1.278-.916 3.195-2.044 4.97-2.256 1.42-1.621 3.764-2.115 5.752-1.621 3.409.916 6.32 4.37 7.243 7.402.923 2.96 1.136 6.204.284 9.235-1.065 4.089-3.763 7.05-7.527 8.883zm4.9-17.343c-.852-2.326-2.77-4.934-5.255-5.78-1.136-.423-2.343-.564-3.266.14-.924.706-1.492 1.834-1.918 2.82-.071.212-.071.494-.071.776 0 .282 0 .634-.071.916-.071.141-.781.564-.994.141-.142-.634-.284-1.903-.213-2.89-2.698 1.128-4.971 3.454-6.249 6.063-1.349 2.75-1.42 5.922-.568 8.741.71 2.186 2.059 4.019 4.332 4.935 2.84 1.058 5.894.705 8.45-.564 2.911-1.48 4.971-3.736 5.965-6.767.923-2.68.781-5.852-.142-8.53zM277.792 46.615c-2.131 1.41-4.758 2.538-7.385 2.538-1.492 0-2.557-.634-3.551-2.044-.355.282-.994.493-1.278.07-1.278-1.762-1.633-4.23-1.704-6.627-.142-6.133-.071-10.645 1.562-16.143.142-.564 1.491-1.622 2.485-1.34.426-1.128 1.562-2.326 2.912-2.467 3.621 0 7.527 1.903 8.734 5.499.355 1.128.355 2.326-.071 3.454a6.363 6.363 0 0 1-2.059 2.679l-.427.352c1.776.564 3.764 1.692 4.9 3.455.852 1.34.923 2.96.568 4.512-.639 2.537-2.485 4.582-4.686 6.062zm1.988-9.376c-.568-1.057-2.13-1.692-3.267-2.256-1.349-.846-2.556-.493-3.905-.211l-2.13.493c-.782.212-1.563.212-2.415 0-.355-.211-.781-.916-.426-1.269.852-.846 1.917-1.269 3.125-1.55l3.266-.353c1.278-.705 2.627-2.115 3.196-3.455.355-1.128.142-1.903-.569-2.82-1.278-1.762-3.337-2.537-5.396-2.749-.639-.07-.852.07-.994.494-.214.564-.356 1.198-.711 1.692-.142.352-.639.493-.994.282a1.375 1.375 0 0 1-.639-.353c-.852 3.031-1.349 6.486-1.491 10.081-.142 3.384 0 6.697.497 9.8a28.95 28.95 0 0 0 1.633-2.045c.497-.494 1.42.282 1.278.775-.142.353-.426.776-.639 1.128-.142.423-.355.776-.355 1.058.426.634 1.421.846 2.628.705 1.775-.282 3.905-1.27 5.467-2.468 1.421-1.128 2.628-2.538 2.983-4.3.213-.846.355-1.833-.142-2.679zM299.419 48.237c-3.905 1.057-8.45.987-11.503-1.622-1.421-1.198-2.486-2.96-2.557-4.864-.071-1.692.639-3.243 1.633-4.653 2.202-3.102 6.036-5.217 9.729-5.64 1.562-.14 2.982.07 4.118 1.199.355.352 0 1.057-.355 1.198h-.639c-.213 0-.497-.07-.71-.07-.497-.07-.923-.141-1.207.07-3.409.141-6.746 1.763-8.805 4.512-.923 1.199-1.42 2.115-1.278 3.596.142 1.973 1.633 3.454 3.692 4.159 2.911 1.057 6.533.423 9.302-.564 1.492-.564 2.841-1.128 4.119-2.045.284-.211.568 0 .71.353.071.282.071.564.071.775-.994 1.904-4.971 3.243-6.32 3.596zm3.977-4.794c-.355.423-.994.352-1.278.14-.71-.493-.711-1.41-.711-2.114.071-1.199.285-2.397.569-3.666l.923-3.877c.568-2.538.923-5.076.142-7.19-.639-1.834-2.202-3.667-4.119-3.878-1.633-.212-3.266.352-4.616 1.34-.71.493-2.272 1.832-2.698 2.608-.071.281.071.775.355 1.057.284.282.071 1.128-.568.987-.497-.141-1.065-.282-1.491-.635-.568-.493-.781-1.41-.355-2.114 1.207-2.045 2.911-3.737 5.112-4.724 1.421-.705 3.125-.987 4.9-.705 2.131.353 3.977 1.904 5.042 3.878 1.633 3.031 1.42 6.838.639 10.222-.71 2.89-1.42 5.569-1.846 8.67zM322.072 48.237c-2.698.352-5.539.14-8.237-1.48-3.551-2.116-5.113-5.782-4.9-9.87a17.913 17.913 0 0 1 2.983-8.813 17.817 17.817 0 0 1 7.243-6.274c1.562-.775 3.692-1.128 5.396-.423 1.421.564 2.912 2.045 3.196 3.455.142.423-.568 1.34-1.136.916-.781-.705-1.776-1.621-2.77-2.044-.994-.423-1.917-.494-2.982-.07-2.77 1.127-5.326 3.313-7.03 5.92-1.562 2.398-2.486 5.218-2.557 8.108 0 2.608.995 5.076 3.196 6.697 2.059 1.48 4.758 1.833 7.243 1.622 4.19-.353 7.882-2.115 11.575-3.737.426 0 1.065.705.71 1.199-3.551 1.974-7.598 4.16-11.93 4.794zM345.923 4.81l-.497 2.186c-.781 3.313-.852 6.768-.852 10.222-.071 5.076.284 10.222.781 15.086-.142.705-.213 1.48-1.065 1.622-.852-.987-1.065-2.115-1.207-3.173-.568-5.146-.923-10.433-.781-15.65.142-4.089.639-8.178 1.633-12.125.142-.282.355-1.058 1.065-1.199.426-.07 1.136.07 1.349.705-.071.776-.213 1.551-.426 2.326zm2.059 44.555c-2.485-.776-4.26-3.384-4.899-5.64-.071-.776.142-1.34.781-1.692.71-.141 1.207.493 1.349.916.213.776.568 1.41.994 2.115.852 1.199 1.775 2.256 2.627 3.455.071.493-.497.916-.852.846zM376.835 16.09a5.02 5.02 0 0 1-1.278 1.128c-.71.07-1.278 0-1.775-.282-1.562-.705-3.338-1.833-4.616-2.75-.071 2.256-.284 4.583 0 6.768-.142 1.128-1.42.635-1.562.353-.142-.141-.284-.282-.355-.494a1.534 1.534 0 0 1-.355-.564c-.142-.634-.142-1.269-.142-1.833.071-1.198.142-2.467.142-3.665-1.633 1.55-3.622 2.89-5.752 3.665-.497.07-1.278.07-1.846-.423-.852-.705-.071-1.903.923-2.537l.497.916c.497-.141.994-.493 1.491-.705 1.491-.916 2.983-2.256 4.19-3.595-2.273-1.833-4.545-4.09-6.462-6.134-.497-.423-.284-1.057-.071-1.41.639-.846 1.633-.282 1.846-.07a86.505 86.505 0 0 0 5.113 5.076c0-1.904.071-3.807-.071-5.57l-.568-1.621c-.071-.423.213-1.41 1.136-1.34.639.212.994.706 1.278 1.27l.213.493c.213.494.355 1.41.355 1.903v3.878l.213-.353 1.491-1.974c.497-.705 1.208-1.269 2.06-1.762 1.136-.635 3.266 0 2.627 2.115-.497-.07-.639-.141-.852-.212-.142 0-.284-.07-.568-.14-.426-.142-1.846 1.762-2.059 2.044-.853 1.128-1.563 2.326-2.486 3.525a33.747 33.747 0 0 0 5.61 3.384c.142-.212.284-.282.426-.353.142-.141.284-.211.781-.423.568.564.639.987.568 1.269-.071.141-.142.212-.142.423z" fill="#fff"/><path d="M23.05 24.197c-1.845-.423-3.692-.846-5.609-.916-1.562 1.974-2.343 4.3-2.77 6.767-.496 2.538-.425 5.217-.567 7.826-.142 3.524.142 6.908.568 10.222-.213.423-.852.705-1.35.423-1.207-1.48-1.49-3.384-1.562-5.288-.07-4.23-.142-8.67.497-12.83.426-2.679 1.208-5.146 2.84-7.402-4.402-.212-8.45.705-12.497 1.833-.568-.07-1.207-.423-1.562-.987-.142-.494.142-.776.426-.917l.426-.14.355-.142c2.982-1.198 6.604-1.833 10.083-1.903 3.55-.141 7.101.211 10.226 1.34.355.14.994.634 1.207 1.057.071.493-.284 1.128-.71 1.057zM37.083 48.519c-3.55-.141-6.817-1.763-8.876-4.794-1.704-2.538-2.13-5.499-1.775-8.39.426-3.242 1.775-6.344 3.621-8.74 2.06-2.68 4.97-4.795 8.308-5.43 2.273-.422 4.687-.21 6.391 1.622.781.846 1.491 1.763 1.491 2.89.072 1.2-.497 2.256-1.49 3.032-4.971 4.089-10.226 7.896-15.623 10.997.142 2.186 2.06 4.442 4.119 5.57 2.059 1.128 4.473 1.269 6.746.987 2.272-.212 4.615-.987 6.248-1.763.285-.211.498 0 .569.212.07.14.213.423-.071.634-2.486 2.256-6.036 3.314-9.658 3.173zm3.125-25.168c-2.06 0-4.119.846-5.752 2.115-3.48 2.82-5.539 7.332-5.539 11.703 5.042-2.75 9.8-6.345 14.415-10.081.355-.282.64-1.34.142-2.186-.568-1.128-1.846-1.55-3.266-1.55zM70.322 46.192c0 .564-.64.705-.995.635-.78-.282-.923-1.551-1.065-2.256-.213-1.27-.213-2.538-.213-3.877v-4.3c0-3.314.426-6.91.497-10.293-.426-.635-1.136-.987-1.846-1.128-.781-.212-1.704-.282-2.485-.494-2.84-.423-5.681-.846-8.664-.705-.355 3.102-1.207 5.992-1.633 9.094-.639 4.583-1.207 8.883-.923 13.747 0 .564.142 1.41-.426 1.833-.284.282-1.065.282-1.42-.07-.355-.423-.497-.917-.568-1.41-.071-.494 0-1.058-.071-1.622-.071-7.402 1.136-14.31 2.627-21.501-.355.07-.71.14-1.065.07-.64-.352-.497-.987-.213-1.269.284-.564.781-.775 1.278-.916.497-.141 1.065-.282 1.562-.282 4.829-.353 9.942.352 14.344 1.762.852.494 2.06 1.058 2.13 2.186-.639 6.767-.78 13.747-.852 20.796zM86.11 48.519c-3.55-.141-6.816-1.763-8.876-4.794-1.704-2.538-2.13-5.499-1.775-8.39.426-3.242 1.775-6.344 3.622-8.74 2.059-2.68 4.97-4.795 8.308-5.43 2.272-.422 4.687-.21 6.39 1.622.782.846 1.492 1.763 1.492 2.89.071 1.2-.497 2.256-1.491 3.032-4.97 4.089-10.226 7.896-15.622 10.997.142 2.186 2.059 4.442 4.118 5.57 2.06 1.128 4.474 1.269 6.746.987 2.272-.212 4.616-.987 6.249-1.763.284-.211.497 0 .568.212.071.14.213.423-.07.634-2.486 2.256-6.037 3.314-9.658 3.173zm3.125-25.168c-2.06 0-4.118.846-5.752 2.115-3.48 2.82-5.538 7.332-5.538 11.703 5.041-2.75 9.799-6.345 14.415-10.081.355-.282.639-1.34.142-2.186-.568-1.128-1.847-1.55-3.267-1.55zM102.378 24.197h-.355a.587.587 0 0 1-.569-.493c-.071-.564.143-1.058.569-1.48 1.136-.988 2.414-1.41 3.834-1.34.994.07 1.988.211 2.983.564l2.698.916c3.834 1.27 7.172 4.653 9.018 8.319.994 2.044 1.349 4.16.852 6.486-.497 2.115-1.775 4.089-3.479 5.71-4.261 4.018-9.587 5.217-15.48 5.217-.071 4.794-.355 10.151.284 14.875 0 .211.142.493.284.705.071.352.213.634-.071 1.057-.568.423-1.136.282-1.634 0-.71-.775-.994-1.621-1.065-2.608-.497-5.006-.284-9.87 0-14.946-.639-.564-1.633-1.34-1.846-2.185 0-.282.071-.564.213-.705.213-.353.497-.423.64-.282.212.211.638.493.993.705.426-7.05.923-13.747 2.131-20.515zm14.06 4.582c-1.563-1.903-3.764-3.242-5.894-4.159-1.207-.564-4.616-1.833-5.894-1.269.071.987-.071 2.75-.213 3.525-.994 5.992-1.633 12.408-1.704 18.752 4.899.353 9.586-1.128 13.35-4.37 2.059-1.763 3.266-4.23 3.053-6.768-.142-2.115-1.491-4.23-2.698-5.71zM139.399 43.795c-1.562 1.551-3.409 2.89-5.468 3.737-1.775.705-3.834.916-5.965.282-.071.352-.355.775-.71.775-1.136-.423-1.562-1.48-1.775-2.397-.497-8.53.426-16.919 1.917-24.885.355-.776 1.775-1.199 2.201-.07-.426 4.088-1.207 8.177-1.42 12.266 2.486-1.904 5.681-2.82 8.806-2.115 2.059.493 4.118 2.326 4.757 4.37.994 2.962-.071 5.922-2.343 8.037zm-2.983-9.94c-3.195-.775-6.177.635-8.45 3.032 0 2.608 0 6.556-.071 8.741a8.556 8.556 0 0 0 5.326-.493c2.13-.846 4.048-2.468 5.539-4.371 1.065-1.34 1.136-3.454.284-4.935-.497-.987-1.633-1.762-2.628-1.974zM185.99 46.192c0 .564-.639.705-.994.635-.781-.282-.923-1.551-1.065-2.256-.213-1.27-.213-2.538-.213-3.877v-4.3c0-3.314.426-6.91.497-10.293-.426-.635-1.136-.987-1.846-1.128-.781-.212-1.704-.282-2.485-.494-2.841-.423-5.681-.846-8.664-.705-.355 3.102-1.207 5.992-1.633 9.094-.639 4.583-1.207 8.883-.923 13.747 0 .564.142 1.41-.426 1.833-.284.282-1.065.282-1.42-.07-.355-.423-.497-.917-.568-1.41-.071-.494 0-1.058-.071-1.622-.071-7.402 1.136-14.31 2.627-21.501-.355.07-.71.14-1.065.07-.639-.352-.497-.987-.213-1.269.284-.564.781-.775 1.278-.916.497-.141 1.065-.282 1.562-.282 4.829-.353 9.942.352 14.344 1.762.852.494 2.06 1.058 2.131 2.186-.64 6.767-.782 13.747-.853 20.796zM194.608 24.197h-.355a.587.587 0 0 1-.569-.493c-.071-.564.143-1.058.569-1.48 1.136-.988 2.414-1.41 3.834-1.34.994.07 1.988.211 2.983.564l2.698.916c3.834 1.27 7.172 4.653 9.018 8.319.994 2.044 1.349 4.16.852 6.486-.497 2.115-1.775 4.089-3.479 5.71-4.261 4.018-9.587 5.217-15.48 5.217-.071 4.794-.355 10.151.284 14.875 0 .211.142.493.284.705.071.352.213.634-.071 1.057-.568.423-1.136.282-1.634 0-.71-.775-.994-1.621-1.065-2.608-.497-5.006-.284-9.87 0-14.946-.639-.564-1.633-1.34-1.846-2.185 0-.282.071-.564.213-.705.213-.353.497-.423.639-.282.213.211.639.493.994.705.426-7.05.923-13.747 2.131-20.515zm14.06 4.582c-1.563-1.903-3.764-3.242-5.894-4.159-1.207-.564-4.616-1.833-5.894-1.269.071.987-.071 2.75-.213 3.525-.994 5.992-1.633 12.408-1.704 18.752 4.899.353 9.586-1.128 13.35-4.37 2.059-1.763 3.266-4.23 3.053-6.768-.142-2.115-1.491-4.23-2.698-5.71zM232.836 46.827c-3.195 1.621-7.03 2.326-10.509.634-2.699-1.34-4.616-3.595-5.539-6.415-1.065-3.313-.71-7.05.71-10.152 1.065-2.255 2.698-4.23 4.616-5.71 1.278-.916 3.195-2.044 4.97-2.256 1.42-1.621 3.764-2.115 5.752-1.621 3.409.916 6.32 4.37 7.243 7.402.923 2.96 1.136 6.204.284 9.235-1.065 4.089-3.763 7.05-7.527 8.883zm4.9-17.343c-.852-2.326-2.77-4.934-5.255-5.78-1.136-.423-2.343-.564-3.266.14-.924.706-1.492 1.834-1.918 2.82-.071.212-.071.494-.071.776 0 .282 0 .634-.071.916-.071.141-.781.564-.994.141-.142-.634-.284-1.903-.213-2.89-2.698 1.128-4.971 3.454-6.249 6.063-1.349 2.75-1.42 5.922-.568 8.741.71 2.186 2.059 4.019 4.332 4.935 2.84 1.058 5.894.705 8.45-.564 2.911-1.48 4.971-3.736 5.965-6.767.923-2.68.781-5.852-.142-8.53zM277.792 46.615c-2.131 1.41-4.758 2.538-7.385 2.538-1.492 0-2.557-.634-3.551-2.044-.355.282-.994.493-1.278.07-1.278-1.762-1.633-4.23-1.704-6.627-.142-6.133-.071-10.645 1.562-16.143.142-.564 1.491-1.622 2.485-1.34.426-1.128 1.562-2.326 2.912-2.467 3.621 0 7.527 1.903 8.734 5.499.355 1.128.355 2.326-.071 3.454a6.363 6.363 0 0 1-2.059 2.679l-.427.352c1.776.564 3.764 1.692 4.9 3.455.852 1.34.923 2.96.568 4.512-.639 2.537-2.485 4.582-4.686 6.062zm1.988-9.376c-.568-1.057-2.13-1.692-3.267-2.256-1.349-.846-2.556-.493-3.905-.211l-2.13.493c-.782.212-1.563.212-2.415 0-.355-.211-.781-.916-.426-1.269.852-.846 1.917-1.269 3.125-1.55l3.266-.353c1.278-.705 2.627-2.115 3.196-3.455.355-1.128.142-1.903-.569-2.82-1.278-1.762-3.337-2.537-5.396-2.749-.639-.07-.852.07-.994.494-.214.564-.356 1.198-.711 1.692-.142.352-.639.493-.994.282a1.375 1.375 0 0 1-.639-.353c-.852 3.031-1.349 6.486-1.491 10.081-.142 3.384 0 6.697.497 9.8a28.95 28.95 0 0 0 1.633-2.045c.497-.494 1.42.282 1.278.775-.142.353-.426.776-.639 1.128-.142.423-.355.776-.355 1.058.426.634 1.421.846 2.628.705 1.775-.282 3.905-1.27 5.467-2.468 1.421-1.128 2.628-2.538 2.983-4.3.213-.846.355-1.833-.142-2.679zM299.419 48.237c-3.905 1.057-8.45.987-11.503-1.622-1.421-1.198-2.486-2.96-2.557-4.864-.071-1.692.639-3.243 1.633-4.653 2.202-3.102 6.036-5.217 9.729-5.64 1.562-.14 2.982.07 4.118 1.199.355.352 0 1.057-.355 1.198h-.639c-.213 0-.497-.07-.71-.07-.497-.07-.923-.141-1.207.07-3.409.141-6.746 1.763-8.805 4.512-.923 1.199-1.42 2.115-1.278 3.596.142 1.973 1.633 3.454 3.692 4.159 2.911 1.057 6.533.423 9.302-.564 1.492-.564 2.841-1.128 4.119-2.045.284-.211.568 0 .71.353.071.282.071.564.071.775-.994 1.904-4.971 3.243-6.32 3.596zm3.977-4.794c-.355.423-.994.352-1.278.14-.71-.493-.711-1.41-.711-2.114.071-1.199.285-2.397.569-3.666l.923-3.877c.568-2.538.923-5.076.142-7.19-.639-1.834-2.202-3.667-4.119-3.878-1.633-.212-3.266.352-4.616 1.34-.71.493-2.272 1.832-2.698 2.608-.071.281.071.775.355 1.057.284.282.071 1.128-.568.987-.497-.141-1.065-.282-1.491-.635-.568-.493-.781-1.41-.355-2.114 1.207-2.045 2.911-3.737 5.112-4.724 1.421-.705 3.125-.987 4.9-.705 2.131.353 3.977 1.904 5.042 3.878 1.633 3.031 1.42 6.838.639 10.222-.71 2.89-1.42 5.569-1.846 8.67zM322.072 48.237c-2.698.352-5.539.14-8.237-1.48-3.551-2.116-5.113-5.782-4.9-9.87a17.913 17.913 0 0 1 2.983-8.813 17.817 17.817 0 0 1 7.243-6.274c1.562-.775 3.692-1.128 5.396-.423 1.421.564 2.912 2.045 3.196 3.455.142.423-.568 1.34-1.136.916-.781-.705-1.776-1.621-2.77-2.044-.994-.423-1.917-.494-2.982-.07-2.77 1.127-5.326 3.313-7.03 5.92-1.562 2.398-2.486 5.218-2.557 8.108 0 2.608.995 5.076 3.196 6.697 2.059 1.48 4.758 1.833 7.243 1.622 4.19-.353 7.882-2.115 11.575-3.737.426 0 1.065.705.71 1.199-3.551 1.974-7.598 4.16-11.93 4.794zM345.923 4.81l-.497 2.186c-.781 3.313-.852 6.768-.852 10.222-.071 5.076.284 10.222.781 15.086-.142.705-.213 1.48-1.065 1.622-.852-.987-1.065-2.115-1.207-3.173-.568-5.146-.923-10.433-.781-15.65.142-4.089.639-8.178 1.633-12.125.142-.282.355-1.058 1.065-1.199.426-.07 1.136.07 1.349.705-.071.776-.213 1.551-.426 2.326zm2.059 44.555c-2.485-.776-4.26-3.384-4.899-5.64-.071-.776.142-1.34.781-1.692.71-.141 1.207.493 1.349.916.213.776.568 1.41.994 2.115.852 1.199 1.775 2.256 2.627 3.455.071.493-.497.916-.852.846zM376.835 16.09a5.02 5.02 0 0 1-1.278 1.128c-.71.07-1.278 0-1.775-.282-1.562-.705-3.338-1.833-4.616-2.75-.071 2.256-.284 4.583 0 6.768-.142 1.128-1.42.635-1.562.353-.142-.141-.284-.282-.355-.494a1.534 1.534 0 0 1-.355-.564c-.142-.634-.142-1.269-.142-1.833.071-1.198.142-2.467.142-3.665-1.633 1.55-3.622 2.89-5.752 3.665-.497.07-1.278.07-1.846-.423-.852-.705-.071-1.903.923-2.537l.497.916c.497-.141.994-.493 1.491-.705 1.491-.916 2.983-2.256 4.19-3.595-2.273-1.833-4.545-4.09-6.462-6.134-.497-.423-.284-1.057-.071-1.41.639-.846 1.633-.282 1.846-.07a86.505 86.505 0 0 0 5.113 5.076c0-1.904.071-3.807-.071-5.57l-.568-1.621c-.071-.423.213-1.41 1.136-1.34.639.212.994.706 1.278 1.27l.213.493c.213.494.355 1.41.355 1.903v3.878l.213-.353 1.491-1.974c.497-.705 1.208-1.269 2.06-1.762 1.136-.635 3.266 0 2.627 2.115-.497-.07-.639-.141-.852-.212-.142 0-.284-.07-.568-.14-.426-.142-1.846 1.762-2.059 2.044-.853 1.128-1.563 2.326-2.486 3.525a33.747 33.747 0 0 0 5.61 3.384c.142-.212.284-.282.426-.353.142-.141.284-.211.781-.423.568.564.639.987.568 1.269-.071.141-.142.212-.142.423z" stroke="#fff" stroke-width="2" mask="url(#a)"/></svg>