<svg width="378" height="66" viewBox="0 0 378 66" fill="none" xmlns="http://www.w3.org/2000/svg">
<mask id="path-1-outside-1_150_20" maskUnits="userSpaceOnUse" x="0" y="-1" width="379" height="67" fill="black">
<rect fill="white" y="-1" width="379" height="67"/>
<path d="M23.0509 24.1972C21.2047 23.7742 19.3584 23.3512 17.4411 23.2807C15.8789 25.2546 15.0978 27.581 14.6717 30.0484C14.1747 32.5863 14.2457 35.2652 14.1036 37.8736C13.9616 41.3985 14.2457 44.7823 14.6717 48.0957C14.4587 48.5187 13.8196 48.8007 13.3225 48.5187C12.1154 47.0382 11.8313 45.1348 11.7603 43.2314C11.6893 39.0016 11.6183 34.5602 12.2574 30.4009C12.6834 27.722 13.4646 25.2546 15.0978 22.9987C10.6952 22.7872 6.64758 23.7037 2.6 24.8316C2.03192 24.7611 1.39283 24.4087 1.03778 23.8447C0.895755 23.3512 1.1798 23.0692 1.46384 22.9282L1.8899 22.7872L2.24495 22.6462C5.22738 21.4478 8.84889 20.8133 12.3284 20.7428C15.8789 20.6018 19.4294 20.9543 22.5539 22.0822C22.9089 22.2232 23.548 22.7167 23.761 23.1397C23.832 23.6332 23.477 24.2677 23.0509 24.1972Z"/>
<path d="M37.0832 48.5187C33.5327 48.3777 30.2662 46.7563 28.2069 43.7249C26.5027 41.187 26.0766 38.2261 26.4317 35.3357C26.8577 32.0928 28.2069 28.991 30.0532 26.5941C32.1125 23.9152 35.0239 21.8003 38.3614 21.1658C40.6337 20.7428 43.0481 20.9543 44.7523 22.7872C45.5334 23.6332 46.2435 24.5496 46.2435 25.6776C46.3145 26.8761 45.7464 27.9335 44.7523 28.709C39.7816 32.7978 34.5268 36.6047 29.1301 39.7065C29.2721 41.892 31.1894 44.1479 33.2487 45.2758C35.308 46.4038 37.7223 46.5448 39.9946 46.2628C42.2669 46.0513 44.6103 45.2758 46.2435 44.5004C46.5276 44.2889 46.7406 44.5004 46.8116 44.7118C46.8826 44.8528 47.0246 45.1348 46.7406 45.3463C44.2552 47.6022 40.7047 48.6597 37.0832 48.5187ZM40.2077 23.3512C38.1484 23.3512 36.0891 24.1972 34.4558 25.4661C30.9763 28.286 28.917 32.7978 28.917 37.1686C33.9588 34.4193 38.7164 30.8239 43.3321 27.0875C43.6872 26.8056 43.9712 25.7481 43.4741 24.9021C42.906 23.7742 41.6279 23.3512 40.2077 23.3512Z"/>
<path d="M70.3215 46.1923C70.3215 46.7563 69.6824 46.8973 69.3274 46.8268C68.5463 46.5448 68.4042 45.2758 68.2622 44.5709C68.0492 43.3019 68.0492 42.033 68.0492 40.6935V36.3932C68.0492 33.0798 68.4753 29.4844 68.5463 26.1006C68.1202 25.4661 67.4101 25.1136 66.7 24.9726C65.9189 24.7611 64.9958 24.6906 64.2146 24.4792C61.3742 24.0562 58.5338 23.6332 55.5514 23.7742C55.1963 26.8761 54.3442 29.7664 53.9182 32.8683C53.2791 37.4506 52.711 41.751 52.995 46.6153C52.995 47.1792 53.1371 48.0252 52.569 48.4482C52.2849 48.7302 51.5038 48.7302 51.1488 48.3777C50.7937 47.9547 50.6517 47.4612 50.5807 46.9678C50.5097 46.4743 50.5807 45.9103 50.5097 45.3463C50.4387 37.9441 51.6458 31.0354 53.1371 23.8447C52.782 23.9152 52.427 23.9857 52.0719 23.9152C51.4328 23.5627 51.5748 22.9282 51.8589 22.6462C52.1429 22.0822 52.64 21.8708 53.1371 21.7298C53.6341 21.5888 54.2022 21.4478 54.6993 21.4478C59.528 21.0953 64.6407 21.8003 69.0433 23.2102C69.8955 23.7037 71.1026 24.2677 71.1736 25.3956C70.5345 32.1633 70.3925 39.1426 70.3215 46.1923Z"/>
<path d="M86.1107 48.5187C82.5602 48.3777 79.2938 46.7563 77.2345 43.7249C75.5302 41.187 75.1042 38.2261 75.4592 35.3357C75.8853 32.0928 77.2345 28.991 79.0807 26.5941C81.14 23.9152 84.0514 21.8003 87.3889 21.1658C89.6612 20.7428 92.0756 20.9543 93.7798 22.7872C94.5609 23.6332 95.271 24.5496 95.271 25.6776C95.3421 26.8761 94.774 27.9335 93.7798 28.709C88.8091 32.7978 83.5544 36.6047 78.1576 39.7065C78.2996 41.892 80.2169 44.1479 82.2762 45.2758C84.3355 46.4038 86.7498 46.5448 89.0222 46.2628C91.2945 46.0513 93.6378 45.2758 95.271 44.5004C95.5551 44.2889 95.7681 44.5004 95.8391 44.7118C95.9101 44.8528 96.0522 45.1348 95.7681 45.3463C93.2828 47.6022 89.7323 48.6597 86.1107 48.5187ZM89.2352 23.3512C87.1759 23.3512 85.1166 24.1972 83.4834 25.4661C80.0039 28.286 77.9446 32.7978 77.9446 37.1686C82.9863 34.4193 87.744 30.8239 92.3596 27.0875C92.7147 26.8056 92.9987 25.7481 92.5017 24.9021C91.9336 23.7742 90.6554 23.3512 89.2352 23.3512Z"/>
<path d="M102.378 24.1972H102.023C101.81 24.1972 101.525 24.0562 101.454 23.7037C101.383 23.1397 101.597 22.6462 102.023 22.2232C103.159 21.2363 104.437 20.8133 105.857 20.8838C106.851 20.9543 107.845 21.0953 108.84 21.4478L111.538 22.3642C115.372 23.6332 118.71 27.017 120.556 30.6829C121.55 32.7273 121.905 34.8422 121.408 37.1686C120.911 39.2836 119.633 41.2575 117.929 42.8789C113.668 46.8973 108.342 48.0957 102.449 48.0957C102.378 52.8895 102.094 58.2473 102.733 62.9706C102.733 63.1821 102.875 63.4641 103.017 63.6756C103.088 64.0281 103.23 64.3101 102.946 64.733C102.378 65.156 101.81 65.015 101.312 64.733C100.602 63.9576 100.318 63.1116 100.247 62.1246C99.7502 57.1193 99.9633 52.255 100.247 47.1792C99.6082 46.6153 98.6141 45.8398 98.401 44.9938C98.401 44.7118 98.4721 44.4299 98.6141 44.2889C98.8271 43.9364 99.1111 43.8659 99.2532 44.0069C99.4662 44.2184 99.8923 44.5004 100.247 44.7118C100.673 37.6621 101.17 30.9649 102.378 24.1972ZM116.438 28.7795C114.875 26.8761 112.674 25.5366 110.544 24.6201C109.337 24.0562 105.928 22.7872 104.65 23.3512C104.721 24.3382 104.579 26.1006 104.437 26.8761C103.443 32.8683 102.804 39.2836 102.733 45.6283C107.632 45.9808 112.319 44.5004 116.083 41.2575C118.142 39.4951 119.349 37.0276 119.136 34.4897C118.994 32.3748 117.645 30.2599 116.438 28.7795Z"/>
<path d="M139.399 43.7954C137.837 45.3463 135.99 46.6858 133.931 47.5317C132.156 48.2367 130.097 48.4482 127.966 47.8137C127.895 48.1662 127.611 48.5892 127.256 48.5892C126.12 48.1662 125.694 47.1087 125.481 46.1923C124.984 37.6621 125.907 29.273 127.398 21.3068C127.753 20.5313 129.173 20.1083 129.599 21.2363C129.173 25.3251 128.392 29.414 128.179 33.5028C130.665 31.5994 133.86 30.6829 136.985 31.3879C139.044 31.8814 141.103 33.7143 141.742 35.7587C142.736 38.7196 141.671 41.6805 139.399 43.7954ZM136.416 33.8553C133.221 33.0798 130.239 34.4897 127.966 36.8867C127.966 39.4951 127.966 43.4429 127.895 45.6283C129.742 46.0513 131.588 45.8398 133.221 45.1348C135.351 44.2889 137.269 42.6674 138.76 40.764C139.825 39.4246 139.896 37.3096 139.044 35.8292C138.547 34.8422 137.411 34.0668 136.416 33.8553Z"/>
<path d="M185.99 46.1923C185.99 46.7563 185.351 46.8973 184.996 46.8268C184.215 46.5448 184.073 45.2758 183.931 44.5709C183.718 43.3019 183.718 42.033 183.718 40.6935V36.3932C183.718 33.0798 184.144 29.4844 184.215 26.1006C183.789 25.4661 183.079 25.1136 182.369 24.9726C181.588 24.7611 180.665 24.6906 179.884 24.4792C177.043 24.0562 174.203 23.6332 171.22 23.7742C170.865 26.8761 170.013 29.7664 169.587 32.8683C168.948 37.4506 168.38 41.751 168.664 46.6153C168.664 47.1792 168.806 48.0252 168.238 48.4482C167.954 48.7302 167.173 48.7302 166.818 48.3777C166.463 47.9547 166.321 47.4612 166.25 46.9678C166.179 46.4743 166.25 45.9103 166.179 45.3463C166.108 37.9441 167.315 31.0354 168.806 23.8447C168.451 23.9152 168.096 23.9857 167.741 23.9152C167.102 23.5627 167.244 22.9282 167.528 22.6462C167.812 22.0822 168.309 21.8708 168.806 21.7298C169.303 21.5888 169.871 21.4478 170.368 21.4478C175.197 21.0953 180.31 21.8003 184.712 23.2102C185.564 23.7037 186.772 24.2677 186.843 25.3956C186.203 32.1633 186.061 39.1426 185.99 46.1923Z"/>
<path d="M194.608 24.1972H194.253C194.04 24.1972 193.755 24.0562 193.684 23.7037C193.613 23.1397 193.827 22.6462 194.253 22.2232C195.389 21.2363 196.667 20.8133 198.087 20.8838C199.081 20.9543 200.075 21.0953 201.07 21.4478L203.768 22.3642C207.602 23.6332 210.94 27.017 212.786 30.6829C213.78 32.7273 214.135 34.8422 213.638 37.1686C213.141 39.2836 211.863 41.2575 210.159 42.8789C205.898 46.8973 200.572 48.0957 194.679 48.0957C194.608 52.8895 194.324 58.2473 194.963 62.9706C194.963 63.1821 195.105 63.4641 195.247 63.6756C195.318 64.0281 195.46 64.3101 195.176 64.733C194.608 65.156 194.04 65.015 193.542 64.733C192.832 63.9576 192.548 63.1116 192.477 62.1246C191.98 57.1193 192.193 52.255 192.477 47.1792C191.838 46.6153 190.844 45.8398 190.631 44.9938C190.631 44.7118 190.702 44.4299 190.844 44.2889C191.057 43.9364 191.341 43.8659 191.483 44.0069C191.696 44.2184 192.122 44.5004 192.477 44.7118C192.903 37.6621 193.4 30.9649 194.608 24.1972ZM208.668 28.7795C207.105 26.8761 204.904 25.5366 202.774 24.6201C201.567 24.0562 198.158 22.7872 196.88 23.3512C196.951 24.3382 196.809 26.1006 196.667 26.8761C195.673 32.8683 195.034 39.2836 194.963 45.6283C199.862 45.9808 204.549 44.5004 208.313 41.2575C210.372 39.4951 211.579 37.0276 211.366 34.4897C211.224 32.3748 209.875 30.2599 208.668 28.7795Z"/>
<path d="M232.836 46.8268C229.641 48.4482 225.806 49.1532 222.327 47.4612C219.628 46.1218 217.711 43.8659 216.788 41.046C215.723 37.7326 216.078 33.9963 217.498 30.8944C218.563 28.6385 220.196 26.6646 222.114 25.1841C223.392 24.2677 225.309 23.1397 227.084 22.9282C228.504 21.3068 230.848 20.8133 232.836 21.3068C236.245 22.2232 239.156 25.6776 240.079 28.709C241.002 31.6699 241.215 34.9127 240.363 37.9441C239.298 42.033 236.6 44.9938 232.836 46.8268ZM237.736 29.4844C236.884 27.158 234.966 24.5496 232.481 23.7037C231.345 23.2807 230.138 23.1397 229.215 23.8447C228.291 24.5496 227.723 25.6776 227.297 26.6646C227.226 26.8761 227.226 27.158 227.226 27.44C227.226 27.722 227.226 28.0745 227.155 28.3565C227.084 28.4975 226.374 28.9205 226.161 28.4975C226.019 27.863 225.877 26.5941 225.948 25.6071C223.25 26.7351 220.977 29.0615 219.699 31.6699C218.35 34.4193 218.279 37.5916 219.131 40.4115C219.841 42.5969 221.19 44.4299 223.463 45.3463C226.303 46.4038 229.357 46.0513 231.913 44.7823C234.824 43.3019 236.884 41.046 237.878 38.0146C238.801 35.3357 238.659 32.1633 237.736 29.4844Z"/>
<path d="M277.792 46.6153C275.661 48.0252 273.034 49.1532 270.407 49.1532C268.915 49.1532 267.85 48.5187 266.856 47.1087C266.501 47.3907 265.862 47.6022 265.578 47.1792C264.3 45.4168 263.945 42.9494 263.874 40.5525C263.732 34.4193 263.803 29.9074 265.436 24.4087C265.578 23.8447 266.927 22.7872 267.921 23.0692C268.347 21.9412 269.483 20.7428 270.833 20.6018C274.454 20.6018 278.36 22.5052 279.567 26.1006C279.922 27.2285 279.922 28.427 279.496 29.5549C279.07 30.6124 278.36 31.5289 277.437 32.2338L277.01 32.5863C278.786 33.1503 280.774 34.2783 281.91 36.0407C282.762 37.3801 282.833 39.0016 282.478 40.5525C281.839 43.0904 279.993 45.1348 277.792 46.6153ZM279.78 37.2391C279.212 36.1817 277.65 35.5472 276.513 34.9832C275.164 34.1373 273.957 34.4897 272.608 34.7717L270.478 35.2652C269.696 35.4767 268.915 35.4767 268.063 35.2652C267.708 35.0537 267.282 34.3488 267.637 33.9963C268.489 33.1503 269.554 32.7273 270.762 32.4453L274.028 32.0928C275.306 31.3879 276.655 29.9779 277.224 28.6385C277.579 27.5105 277.366 26.7351 276.655 25.8186C275.377 24.0562 273.318 23.2807 271.259 23.0692C270.62 22.9987 270.407 23.1397 270.265 23.5627C270.051 24.1267 269.909 24.7611 269.554 25.2546C269.412 25.6071 268.915 25.7481 268.56 25.5366C268.276 25.4661 268.063 25.3251 267.921 25.1841C267.069 28.2155 266.572 31.6699 266.43 35.2652C266.288 38.6491 266.43 41.9625 266.927 45.0643C267.495 44.4299 268.205 43.5134 268.56 43.0199C269.057 42.5264 269.98 43.3019 269.838 43.7954C269.696 44.1479 269.412 44.5709 269.199 44.9233C269.057 45.3463 268.844 45.6988 268.844 45.9808C269.27 46.6153 270.265 46.8268 271.472 46.6858C273.247 46.4038 275.377 45.4168 276.939 44.2184C278.36 43.0904 279.567 41.6805 279.922 39.918C280.135 39.0721 280.277 38.0851 279.78 37.2391Z"/>
<path d="M299.419 48.2367C295.514 49.2942 290.969 49.2237 287.916 46.6153C286.495 45.4168 285.43 43.6544 285.359 41.751C285.288 40.059 285.998 38.5081 286.992 37.0981C289.194 33.9963 293.028 31.8814 296.721 31.4584C298.283 31.3174 299.703 31.5289 300.839 32.6568C301.194 33.0093 300.839 33.7143 300.484 33.8553H299.845C299.632 33.8553 299.348 33.7848 299.135 33.7848C298.638 33.7143 298.212 33.6438 297.928 33.8553C294.519 33.9963 291.182 35.6177 289.123 38.3671C288.2 39.5655 287.703 40.482 287.845 41.9625C287.987 43.9364 289.478 45.4168 291.537 46.1218C294.448 47.1792 298.07 46.5448 300.839 45.5578C302.331 44.9938 303.68 44.4299 304.958 43.5134C305.242 43.3019 305.526 43.5134 305.668 43.8659C305.739 44.1479 305.739 44.4299 305.739 44.6413C304.745 46.5448 300.768 47.8842 299.419 48.2367ZM303.396 43.4429C303.041 43.8659 302.402 43.7954 302.118 43.5839C301.408 43.0904 301.407 42.1739 301.407 41.469C301.478 40.2705 301.692 39.0721 301.976 37.8031L302.899 33.9258C303.467 31.3879 303.822 28.85 303.041 26.7351C302.402 24.9021 300.839 23.0692 298.922 22.8577C297.289 22.6462 295.656 23.2102 294.306 24.1972C293.596 24.6906 292.034 26.0301 291.608 26.8056C291.537 27.0875 291.679 27.581 291.963 27.863C292.247 28.145 292.034 28.991 291.395 28.85C290.898 28.709 290.33 28.568 289.904 28.2155C289.336 27.722 289.123 26.8056 289.549 26.1006C290.756 24.0562 292.46 22.3642 294.661 21.3773C296.082 20.6723 297.786 20.3903 299.561 20.6723C301.692 21.0248 303.538 22.5757 304.603 24.5496C306.236 27.581 306.023 31.3879 305.242 34.7717C304.532 37.6621 303.822 40.341 303.396 43.4429Z"/>
<path d="M322.072 48.2367C319.374 48.5892 316.533 48.3777 313.835 46.7563C310.284 44.6413 308.722 40.9755 308.935 36.8867C309.148 33.7143 310.142 30.7534 311.918 28.0745C313.693 25.3956 316.178 23.2102 319.161 21.8003C320.723 21.0248 322.853 20.6723 324.557 21.3773C325.978 21.9413 327.469 23.4217 327.753 24.8316C327.895 25.2546 327.185 26.1711 326.617 25.7481C325.836 25.0431 324.841 24.1267 323.847 23.7037C322.853 23.2807 321.93 23.2102 320.865 23.6332C318.095 24.7611 315.539 26.9466 313.835 29.5549C312.273 31.9519 311.349 34.7717 311.278 37.6621C311.278 40.2705 312.273 42.7379 314.474 44.3594C316.533 45.8398 319.232 46.1923 321.717 45.9808C325.907 45.6283 329.599 43.8659 333.292 42.2444C333.718 42.2444 334.357 42.9494 334.002 43.4429C330.451 45.4168 326.404 47.6022 322.072 48.2367Z"/>
<path d="M345.923 4.81043L345.426 6.99585C344.645 10.3092 344.574 13.7636 344.574 17.2179C344.503 22.2937 344.858 27.44 345.355 32.3043C345.213 33.0093 345.142 33.7848 344.29 33.9258C343.438 32.9388 343.225 31.8109 343.083 30.7534C342.515 25.6071 342.16 20.3198 342.302 15.103C342.444 11.0142 342.941 6.92535 343.935 2.97751C344.077 2.69552 344.29 1.92005 345 1.77906C345.426 1.70856 346.136 1.84955 346.349 2.48403C346.278 3.2595 346.136 4.03497 345.923 4.81043ZM347.982 49.3647C345.497 48.5892 343.722 45.9808 343.083 43.7249C343.012 42.9494 343.225 42.3854 343.864 42.033C344.574 41.892 345.071 42.5264 345.213 42.9494C345.426 43.7249 345.781 44.3594 346.207 45.0643C347.059 46.2628 347.982 47.3202 348.834 48.5187C348.905 49.0122 348.337 49.4352 347.982 49.3647Z"/>
<path d="M376.835 16.09C376.48 16.513 376.125 16.8655 375.557 17.2179C374.847 17.2884 374.279 17.2179 373.782 16.936C372.22 16.231 370.444 15.103 369.166 14.1866C369.095 16.4425 368.882 18.7689 369.166 20.9543C369.024 22.0822 367.746 21.5888 367.604 21.3068C367.462 21.1658 367.32 21.0248 367.249 20.8133C367.107 20.6723 366.965 20.4608 366.894 20.2493C366.752 19.6148 366.752 18.9804 366.752 18.4164C366.823 17.2179 366.894 15.949 366.894 14.7505C365.261 16.3015 363.272 17.6409 361.142 18.4164C360.645 18.4869 359.864 18.4869 359.296 17.9934C358.444 17.2884 359.225 16.09 360.219 15.4555L360.716 16.372C361.213 16.231 361.71 15.8785 362.207 15.667C363.698 14.7505 365.19 13.4111 366.397 12.0716C364.124 10.2387 361.852 7.98281 359.935 5.93839C359.438 5.51541 359.651 4.88093 359.864 4.52844C360.503 3.68248 361.497 4.24646 361.71 4.45795C363.343 6.22038 365.048 7.91231 366.823 9.53375C366.823 7.63032 366.894 5.7269 366.752 3.96447L366.184 2.34303C366.113 1.92005 366.397 0.933087 367.32 1.00359C367.959 1.21508 368.314 1.70856 368.598 2.27254L368.811 2.76602C369.024 3.2595 369.166 4.17596 369.166 4.66944V8.54679L369.379 8.1943L370.87 6.22038C371.367 5.51541 372.078 4.95143 372.93 4.45795C374.066 3.82347 376.196 4.45795 375.557 6.57287C375.06 6.50237 374.918 6.43187 374.705 6.36137C374.563 6.36137 374.421 6.29088 374.137 6.22038C373.711 6.07938 372.291 7.98281 372.078 8.2648C371.225 9.39275 370.515 10.5912 369.592 11.7897C371.296 13.0586 373.143 14.1866 375.202 15.1735C375.344 14.962 375.486 14.8915 375.628 14.821C375.77 14.68 375.912 14.6095 376.409 14.3981C376.977 14.962 377.048 15.385 376.977 15.667C376.906 15.808 376.835 15.8785 376.835 16.09Z"/>
</mask>
<path d="M23.0509 24.1972C21.2047 23.7742 19.3584 23.3512 17.4411 23.2807C15.8789 25.2546 15.0978 27.581 14.6717 30.0484C14.1747 32.5863 14.2457 35.2652 14.1036 37.8736C13.9616 41.3985 14.2457 44.7823 14.6717 48.0957C14.4587 48.5187 13.8196 48.8007 13.3225 48.5187C12.1154 47.0382 11.8313 45.1348 11.7603 43.2314C11.6893 39.0016 11.6183 34.5602 12.2574 30.4009C12.6834 27.722 13.4646 25.2546 15.0978 22.9987C10.6952 22.7872 6.64758 23.7037 2.6 24.8316C2.03192 24.7611 1.39283 24.4087 1.03778 23.8447C0.895755 23.3512 1.1798 23.0692 1.46384 22.9282L1.8899 22.7872L2.24495 22.6462C5.22738 21.4478 8.84889 20.8133 12.3284 20.7428C15.8789 20.6018 19.4294 20.9543 22.5539 22.0822C22.9089 22.2232 23.548 22.7167 23.761 23.1397C23.832 23.6332 23.477 24.2677 23.0509 24.1972Z" fill="white"/>
<path d="M37.0832 48.5187C33.5327 48.3777 30.2662 46.7563 28.2069 43.7249C26.5027 41.187 26.0766 38.2261 26.4317 35.3357C26.8577 32.0928 28.2069 28.991 30.0532 26.5941C32.1125 23.9152 35.0239 21.8003 38.3614 21.1658C40.6337 20.7428 43.0481 20.9543 44.7523 22.7872C45.5334 23.6332 46.2435 24.5496 46.2435 25.6776C46.3145 26.8761 45.7464 27.9335 44.7523 28.709C39.7816 32.7978 34.5268 36.6047 29.1301 39.7065C29.2721 41.892 31.1894 44.1479 33.2487 45.2758C35.308 46.4038 37.7223 46.5448 39.9946 46.2628C42.2669 46.0513 44.6103 45.2758 46.2435 44.5004C46.5276 44.2889 46.7406 44.5004 46.8116 44.7118C46.8826 44.8528 47.0246 45.1348 46.7406 45.3463C44.2552 47.6022 40.7047 48.6597 37.0832 48.5187ZM40.2077 23.3512C38.1484 23.3512 36.0891 24.1972 34.4558 25.4661C30.9763 28.286 28.917 32.7978 28.917 37.1686C33.9588 34.4193 38.7164 30.8239 43.3321 27.0875C43.6872 26.8056 43.9712 25.7481 43.4741 24.9021C42.906 23.7742 41.6279 23.3512 40.2077 23.3512Z" fill="white"/>
<path d="M70.3215 46.1923C70.3215 46.7563 69.6824 46.8973 69.3274 46.8268C68.5463 46.5448 68.4042 45.2758 68.2622 44.5709C68.0492 43.3019 68.0492 42.033 68.0492 40.6935V36.3932C68.0492 33.0798 68.4753 29.4844 68.5463 26.1006C68.1202 25.4661 67.4101 25.1136 66.7 24.9726C65.9189 24.7611 64.9958 24.6906 64.2146 24.4792C61.3742 24.0562 58.5338 23.6332 55.5514 23.7742C55.1963 26.8761 54.3442 29.7664 53.9182 32.8683C53.2791 37.4506 52.711 41.751 52.995 46.6153C52.995 47.1792 53.1371 48.0252 52.569 48.4482C52.2849 48.7302 51.5038 48.7302 51.1488 48.3777C50.7937 47.9547 50.6517 47.4612 50.5807 46.9678C50.5097 46.4743 50.5807 45.9103 50.5097 45.3463C50.4387 37.9441 51.6458 31.0354 53.1371 23.8447C52.782 23.9152 52.427 23.9857 52.0719 23.9152C51.4328 23.5627 51.5748 22.9282 51.8589 22.6462C52.1429 22.0822 52.64 21.8708 53.1371 21.7298C53.6341 21.5888 54.2022 21.4478 54.6993 21.4478C59.528 21.0953 64.6407 21.8003 69.0433 23.2102C69.8955 23.7037 71.1026 24.2677 71.1736 25.3956C70.5345 32.1633 70.3925 39.1426 70.3215 46.1923Z" fill="white"/>
<path d="M86.1107 48.5187C82.5602 48.3777 79.2938 46.7563 77.2345 43.7249C75.5302 41.187 75.1042 38.2261 75.4592 35.3357C75.8853 32.0928 77.2345 28.991 79.0807 26.5941C81.14 23.9152 84.0514 21.8003 87.3889 21.1658C89.6612 20.7428 92.0756 20.9543 93.7798 22.7872C94.5609 23.6332 95.271 24.5496 95.271 25.6776C95.3421 26.8761 94.774 27.9335 93.7798 28.709C88.8091 32.7978 83.5544 36.6047 78.1576 39.7065C78.2996 41.892 80.2169 44.1479 82.2762 45.2758C84.3355 46.4038 86.7498 46.5448 89.0222 46.2628C91.2945 46.0513 93.6378 45.2758 95.271 44.5004C95.5551 44.2889 95.7681 44.5004 95.8391 44.7118C95.9101 44.8528 96.0522 45.1348 95.7681 45.3463C93.2828 47.6022 89.7323 48.6597 86.1107 48.5187ZM89.2352 23.3512C87.1759 23.3512 85.1166 24.1972 83.4834 25.4661C80.0039 28.286 77.9446 32.7978 77.9446 37.1686C82.9863 34.4193 87.744 30.8239 92.3596 27.0875C92.7147 26.8056 92.9987 25.7481 92.5017 24.9021C91.9336 23.7742 90.6554 23.3512 89.2352 23.3512Z" fill="white"/>
<path d="M102.378 24.1972H102.023C101.81 24.1972 101.525 24.0562 101.454 23.7037C101.383 23.1397 101.597 22.6462 102.023 22.2232C103.159 21.2363 104.437 20.8133 105.857 20.8838C106.851 20.9543 107.845 21.0953 108.84 21.4478L111.538 22.3642C115.372 23.6332 118.71 27.017 120.556 30.6829C121.55 32.7273 121.905 34.8422 121.408 37.1686C120.911 39.2836 119.633 41.2575 117.929 42.8789C113.668 46.8973 108.342 48.0957 102.449 48.0957C102.378 52.8895 102.094 58.2473 102.733 62.9706C102.733 63.1821 102.875 63.4641 103.017 63.6756C103.088 64.0281 103.23 64.3101 102.946 64.733C102.378 65.156 101.81 65.015 101.312 64.733C100.602 63.9576 100.318 63.1116 100.247 62.1246C99.7502 57.1193 99.9633 52.255 100.247 47.1792C99.6082 46.6153 98.6141 45.8398 98.401 44.9938C98.401 44.7118 98.4721 44.4299 98.6141 44.2889C98.8271 43.9364 99.1111 43.8659 99.2532 44.0069C99.4662 44.2184 99.8923 44.5004 100.247 44.7118C100.673 37.6621 101.17 30.9649 102.378 24.1972ZM116.438 28.7795C114.875 26.8761 112.674 25.5366 110.544 24.6201C109.337 24.0562 105.928 22.7872 104.65 23.3512C104.721 24.3382 104.579 26.1006 104.437 26.8761C103.443 32.8683 102.804 39.2836 102.733 45.6283C107.632 45.9808 112.319 44.5004 116.083 41.2575C118.142 39.4951 119.349 37.0276 119.136 34.4897C118.994 32.3748 117.645 30.2599 116.438 28.7795Z" fill="white"/>
<path d="M139.399 43.7954C137.837 45.3463 135.99 46.6858 133.931 47.5317C132.156 48.2367 130.097 48.4482 127.966 47.8137C127.895 48.1662 127.611 48.5892 127.256 48.5892C126.12 48.1662 125.694 47.1087 125.481 46.1923C124.984 37.6621 125.907 29.273 127.398 21.3068C127.753 20.5313 129.173 20.1083 129.599 21.2363C129.173 25.3251 128.392 29.414 128.179 33.5028C130.665 31.5994 133.86 30.6829 136.985 31.3879C139.044 31.8814 141.103 33.7143 141.742 35.7587C142.736 38.7196 141.671 41.6805 139.399 43.7954ZM136.416 33.8553C133.221 33.0798 130.239 34.4897 127.966 36.8867C127.966 39.4951 127.966 43.4429 127.895 45.6283C129.742 46.0513 131.588 45.8398 133.221 45.1348C135.351 44.2889 137.269 42.6674 138.76 40.764C139.825 39.4246 139.896 37.3096 139.044 35.8292C138.547 34.8422 137.411 34.0668 136.416 33.8553Z" fill="white"/>
<path d="M185.99 46.1923C185.99 46.7563 185.351 46.8973 184.996 46.8268C184.215 46.5448 184.073 45.2758 183.931 44.5709C183.718 43.3019 183.718 42.033 183.718 40.6935V36.3932C183.718 33.0798 184.144 29.4844 184.215 26.1006C183.789 25.4661 183.079 25.1136 182.369 24.9726C181.588 24.7611 180.665 24.6906 179.884 24.4792C177.043 24.0562 174.203 23.6332 171.22 23.7742C170.865 26.8761 170.013 29.7664 169.587 32.8683C168.948 37.4506 168.38 41.751 168.664 46.6153C168.664 47.1792 168.806 48.0252 168.238 48.4482C167.954 48.7302 167.173 48.7302 166.818 48.3777C166.463 47.9547 166.321 47.4612 166.25 46.9678C166.179 46.4743 166.25 45.9103 166.179 45.3463C166.108 37.9441 167.315 31.0354 168.806 23.8447C168.451 23.9152 168.096 23.9857 167.741 23.9152C167.102 23.5627 167.244 22.9282 167.528 22.6462C167.812 22.0822 168.309 21.8708 168.806 21.7298C169.303 21.5888 169.871 21.4478 170.368 21.4478C175.197 21.0953 180.31 21.8003 184.712 23.2102C185.564 23.7037 186.772 24.2677 186.843 25.3956C186.203 32.1633 186.061 39.1426 185.99 46.1923Z" fill="white"/>
<path d="M194.608 24.1972H194.253C194.04 24.1972 193.755 24.0562 193.684 23.7037C193.613 23.1397 193.827 22.6462 194.253 22.2232C195.389 21.2363 196.667 20.8133 198.087 20.8838C199.081 20.9543 200.075 21.0953 201.07 21.4478L203.768 22.3642C207.602 23.6332 210.94 27.017 212.786 30.6829C213.78 32.7273 214.135 34.8422 213.638 37.1686C213.141 39.2836 211.863 41.2575 210.159 42.8789C205.898 46.8973 200.572 48.0957 194.679 48.0957C194.608 52.8895 194.324 58.2473 194.963 62.9706C194.963 63.1821 195.105 63.4641 195.247 63.6756C195.318 64.0281 195.46 64.3101 195.176 64.733C194.608 65.156 194.04 65.015 193.542 64.733C192.832 63.9576 192.548 63.1116 192.477 62.1246C191.98 57.1193 192.193 52.255 192.477 47.1792C191.838 46.6153 190.844 45.8398 190.631 44.9938C190.631 44.7118 190.702 44.4299 190.844 44.2889C191.057 43.9364 191.341 43.8659 191.483 44.0069C191.696 44.2184 192.122 44.5004 192.477 44.7118C192.903 37.6621 193.4 30.9649 194.608 24.1972ZM208.668 28.7795C207.105 26.8761 204.904 25.5366 202.774 24.6201C201.567 24.0562 198.158 22.7872 196.88 23.3512C196.951 24.3382 196.809 26.1006 196.667 26.8761C195.673 32.8683 195.034 39.2836 194.963 45.6283C199.862 45.9808 204.549 44.5004 208.313 41.2575C210.372 39.4951 211.579 37.0276 211.366 34.4897C211.224 32.3748 209.875 30.2599 208.668 28.7795Z" fill="white"/>
<path d="M232.836 46.8268C229.641 48.4482 225.806 49.1532 222.327 47.4612C219.628 46.1218 217.711 43.8659 216.788 41.046C215.723 37.7326 216.078 33.9963 217.498 30.8944C218.563 28.6385 220.196 26.6646 222.114 25.1841C223.392 24.2677 225.309 23.1397 227.084 22.9282C228.504 21.3068 230.848 20.8133 232.836 21.3068C236.245 22.2232 239.156 25.6776 240.079 28.709C241.002 31.6699 241.215 34.9127 240.363 37.9441C239.298 42.033 236.6 44.9938 232.836 46.8268ZM237.736 29.4844C236.884 27.158 234.966 24.5496 232.481 23.7037C231.345 23.2807 230.138 23.1397 229.215 23.8447C228.291 24.5496 227.723 25.6776 227.297 26.6646C227.226 26.8761 227.226 27.158 227.226 27.44C227.226 27.722 227.226 28.0745 227.155 28.3565C227.084 28.4975 226.374 28.9205 226.161 28.4975C226.019 27.863 225.877 26.5941 225.948 25.6071C223.25 26.7351 220.977 29.0615 219.699 31.6699C218.35 34.4193 218.279 37.5916 219.131 40.4115C219.841 42.5969 221.19 44.4299 223.463 45.3463C226.303 46.4038 229.357 46.0513 231.913 44.7823C234.824 43.3019 236.884 41.046 237.878 38.0146C238.801 35.3357 238.659 32.1633 237.736 29.4844Z" fill="white"/>
<path d="M277.792 46.6153C275.661 48.0252 273.034 49.1532 270.407 49.1532C268.915 49.1532 267.85 48.5187 266.856 47.1087C266.501 47.3907 265.862 47.6022 265.578 47.1792C264.3 45.4168 263.945 42.9494 263.874 40.5525C263.732 34.4193 263.803 29.9074 265.436 24.4087C265.578 23.8447 266.927 22.7872 267.921 23.0692C268.347 21.9412 269.483 20.7428 270.833 20.6018C274.454 20.6018 278.36 22.5052 279.567 26.1006C279.922 27.2285 279.922 28.427 279.496 29.5549C279.07 30.6124 278.36 31.5289 277.437 32.2338L277.01 32.5863C278.786 33.1503 280.774 34.2783 281.91 36.0407C282.762 37.3801 282.833 39.0016 282.478 40.5525C281.839 43.0904 279.993 45.1348 277.792 46.6153ZM279.78 37.2391C279.212 36.1817 277.65 35.5472 276.513 34.9832C275.164 34.1373 273.957 34.4897 272.608 34.7717L270.478 35.2652C269.696 35.4767 268.915 35.4767 268.063 35.2652C267.708 35.0537 267.282 34.3488 267.637 33.9963C268.489 33.1503 269.554 32.7273 270.762 32.4453L274.028 32.0928C275.306 31.3879 276.655 29.9779 277.224 28.6385C277.579 27.5105 277.366 26.7351 276.655 25.8186C275.377 24.0562 273.318 23.2807 271.259 23.0692C270.62 22.9987 270.407 23.1397 270.265 23.5627C270.051 24.1267 269.909 24.7611 269.554 25.2546C269.412 25.6071 268.915 25.7481 268.56 25.5366C268.276 25.4661 268.063 25.3251 267.921 25.1841C267.069 28.2155 266.572 31.6699 266.43 35.2652C266.288 38.6491 266.43 41.9625 266.927 45.0643C267.495 44.4299 268.205 43.5134 268.56 43.0199C269.057 42.5264 269.98 43.3019 269.838 43.7954C269.696 44.1479 269.412 44.5709 269.199 44.9233C269.057 45.3463 268.844 45.6988 268.844 45.9808C269.27 46.6153 270.265 46.8268 271.472 46.6858C273.247 46.4038 275.377 45.4168 276.939 44.2184C278.36 43.0904 279.567 41.6805 279.922 39.918C280.135 39.0721 280.277 38.0851 279.78 37.2391Z" fill="white"/>
<path d="M299.419 48.2367C295.514 49.2942 290.969 49.2237 287.916 46.6153C286.495 45.4168 285.43 43.6544 285.359 41.751C285.288 40.059 285.998 38.5081 286.992 37.0981C289.194 33.9963 293.028 31.8814 296.721 31.4584C298.283 31.3174 299.703 31.5289 300.839 32.6568C301.194 33.0093 300.839 33.7143 300.484 33.8553H299.845C299.632 33.8553 299.348 33.7848 299.135 33.7848C298.638 33.7143 298.212 33.6438 297.928 33.8553C294.519 33.9963 291.182 35.6177 289.123 38.3671C288.2 39.5655 287.703 40.482 287.845 41.9625C287.987 43.9364 289.478 45.4168 291.537 46.1218C294.448 47.1792 298.07 46.5448 300.839 45.5578C302.331 44.9938 303.68 44.4299 304.958 43.5134C305.242 43.3019 305.526 43.5134 305.668 43.8659C305.739 44.1479 305.739 44.4299 305.739 44.6413C304.745 46.5448 300.768 47.8842 299.419 48.2367ZM303.396 43.4429C303.041 43.8659 302.402 43.7954 302.118 43.5839C301.408 43.0904 301.407 42.1739 301.407 41.469C301.478 40.2705 301.692 39.0721 301.976 37.8031L302.899 33.9258C303.467 31.3879 303.822 28.85 303.041 26.7351C302.402 24.9021 300.839 23.0692 298.922 22.8577C297.289 22.6462 295.656 23.2102 294.306 24.1972C293.596 24.6906 292.034 26.0301 291.608 26.8056C291.537 27.0875 291.679 27.581 291.963 27.863C292.247 28.145 292.034 28.991 291.395 28.85C290.898 28.709 290.33 28.568 289.904 28.2155C289.336 27.722 289.123 26.8056 289.549 26.1006C290.756 24.0562 292.46 22.3642 294.661 21.3773C296.082 20.6723 297.786 20.3903 299.561 20.6723C301.692 21.0248 303.538 22.5757 304.603 24.5496C306.236 27.581 306.023 31.3879 305.242 34.7717C304.532 37.6621 303.822 40.341 303.396 43.4429Z" fill="white"/>
<path d="M322.072 48.2367C319.374 48.5892 316.533 48.3777 313.835 46.7563C310.284 44.6413 308.722 40.9755 308.935 36.8867C309.148 33.7143 310.142 30.7534 311.918 28.0745C313.693 25.3956 316.178 23.2102 319.161 21.8003C320.723 21.0248 322.853 20.6723 324.557 21.3773C325.978 21.9413 327.469 23.4217 327.753 24.8316C327.895 25.2546 327.185 26.1711 326.617 25.7481C325.836 25.0431 324.841 24.1267 323.847 23.7037C322.853 23.2807 321.93 23.2102 320.865 23.6332C318.095 24.7611 315.539 26.9466 313.835 29.5549C312.273 31.9519 311.349 34.7717 311.278 37.6621C311.278 40.2705 312.273 42.7379 314.474 44.3594C316.533 45.8398 319.232 46.1923 321.717 45.9808C325.907 45.6283 329.599 43.8659 333.292 42.2444C333.718 42.2444 334.357 42.9494 334.002 43.4429C330.451 45.4168 326.404 47.6022 322.072 48.2367Z" fill="white"/>
<path d="M345.923 4.81043L345.426 6.99585C344.645 10.3092 344.574 13.7636 344.574 17.2179C344.503 22.2937 344.858 27.44 345.355 32.3043C345.213 33.0093 345.142 33.7848 344.29 33.9258C343.438 32.9388 343.225 31.8109 343.083 30.7534C342.515 25.6071 342.16 20.3198 342.302 15.103C342.444 11.0142 342.941 6.92535 343.935 2.97751C344.077 2.69552 344.29 1.92005 345 1.77906C345.426 1.70856 346.136 1.84955 346.349 2.48403C346.278 3.2595 346.136 4.03497 345.923 4.81043ZM347.982 49.3647C345.497 48.5892 343.722 45.9808 343.083 43.7249C343.012 42.9494 343.225 42.3854 343.864 42.033C344.574 41.892 345.071 42.5264 345.213 42.9494C345.426 43.7249 345.781 44.3594 346.207 45.0643C347.059 46.2628 347.982 47.3202 348.834 48.5187C348.905 49.0122 348.337 49.4352 347.982 49.3647Z" fill="white"/>
<path d="M376.835 16.09C376.48 16.513 376.125 16.8655 375.557 17.2179C374.847 17.2884 374.279 17.2179 373.782 16.936C372.22 16.231 370.444 15.103 369.166 14.1866C369.095 16.4425 368.882 18.7689 369.166 20.9543C369.024 22.0822 367.746 21.5888 367.604 21.3068C367.462 21.1658 367.32 21.0248 367.249 20.8133C367.107 20.6723 366.965 20.4608 366.894 20.2493C366.752 19.6148 366.752 18.9804 366.752 18.4164C366.823 17.2179 366.894 15.949 366.894 14.7505C365.261 16.3015 363.272 17.6409 361.142 18.4164C360.645 18.4869 359.864 18.4869 359.296 17.9934C358.444 17.2884 359.225 16.09 360.219 15.4555L360.716 16.372C361.213 16.231 361.71 15.8785 362.207 15.667C363.698 14.7505 365.19 13.4111 366.397 12.0716C364.124 10.2387 361.852 7.98281 359.935 5.93839C359.438 5.51541 359.651 4.88093 359.864 4.52844C360.503 3.68248 361.497 4.24646 361.71 4.45795C363.343 6.22038 365.048 7.91231 366.823 9.53375C366.823 7.63032 366.894 5.7269 366.752 3.96447L366.184 2.34303C366.113 1.92005 366.397 0.933087 367.32 1.00359C367.959 1.21508 368.314 1.70856 368.598 2.27254L368.811 2.76602C369.024 3.2595 369.166 4.17596 369.166 4.66944V8.54679L369.379 8.1943L370.87 6.22038C371.367 5.51541 372.078 4.95143 372.93 4.45795C374.066 3.82347 376.196 4.45795 375.557 6.57287C375.06 6.50237 374.918 6.43187 374.705 6.36137C374.563 6.36137 374.421 6.29088 374.137 6.22038C373.711 6.07938 372.291 7.98281 372.078 8.2648C371.225 9.39275 370.515 10.5912 369.592 11.7897C371.296 13.0586 373.143 14.1866 375.202 15.1735C375.344 14.962 375.486 14.8915 375.628 14.821C375.77 14.68 375.912 14.6095 376.409 14.3981C376.977 14.962 377.048 15.385 376.977 15.667C376.906 15.808 376.835 15.8785 376.835 16.09Z" fill="white"/>
<path d="M23.0509 24.1972C21.2047 23.7742 19.3584 23.3512 17.4411 23.2807C15.8789 25.2546 15.0978 27.581 14.6717 30.0484C14.1747 32.5863 14.2457 35.2652 14.1036 37.8736C13.9616 41.3985 14.2457 44.7823 14.6717 48.0957C14.4587 48.5187 13.8196 48.8007 13.3225 48.5187C12.1154 47.0382 11.8313 45.1348 11.7603 43.2314C11.6893 39.0016 11.6183 34.5602 12.2574 30.4009C12.6834 27.722 13.4646 25.2546 15.0978 22.9987C10.6952 22.7872 6.64758 23.7037 2.6 24.8316C2.03192 24.7611 1.39283 24.4087 1.03778 23.8447C0.895755 23.3512 1.1798 23.0692 1.46384 22.9282L1.8899 22.7872L2.24495 22.6462C5.22738 21.4478 8.84889 20.8133 12.3284 20.7428C15.8789 20.6018 19.4294 20.9543 22.5539 22.0822C22.9089 22.2232 23.548 22.7167 23.761 23.1397C23.832 23.6332 23.477 24.2677 23.0509 24.1972Z" stroke="white" stroke-width="2" mask="url(#path-1-outside-1_150_20)"/>
<path d="M37.0832 48.5187C33.5327 48.3777 30.2662 46.7563 28.2069 43.7249C26.5027 41.187 26.0766 38.2261 26.4317 35.3357C26.8577 32.0928 28.2069 28.991 30.0532 26.5941C32.1125 23.9152 35.0239 21.8003 38.3614 21.1658C40.6337 20.7428 43.0481 20.9543 44.7523 22.7872C45.5334 23.6332 46.2435 24.5496 46.2435 25.6776C46.3145 26.8761 45.7464 27.9335 44.7523 28.709C39.7816 32.7978 34.5268 36.6047 29.1301 39.7065C29.2721 41.892 31.1894 44.1479 33.2487 45.2758C35.308 46.4038 37.7223 46.5448 39.9946 46.2628C42.2669 46.0513 44.6103 45.2758 46.2435 44.5004C46.5276 44.2889 46.7406 44.5004 46.8116 44.7118C46.8826 44.8528 47.0246 45.1348 46.7406 45.3463C44.2552 47.6022 40.7047 48.6597 37.0832 48.5187ZM40.2077 23.3512C38.1484 23.3512 36.0891 24.1972 34.4558 25.4661C30.9763 28.286 28.917 32.7978 28.917 37.1686C33.9588 34.4193 38.7164 30.8239 43.3321 27.0875C43.6872 26.8056 43.9712 25.7481 43.4741 24.9021C42.906 23.7742 41.6279 23.3512 40.2077 23.3512Z" stroke="white" stroke-width="2" mask="url(#path-1-outside-1_150_20)"/>
<path d="M70.3215 46.1923C70.3215 46.7563 69.6824 46.8973 69.3274 46.8268C68.5463 46.5448 68.4042 45.2758 68.2622 44.5709C68.0492 43.3019 68.0492 42.033 68.0492 40.6935V36.3932C68.0492 33.0798 68.4753 29.4844 68.5463 26.1006C68.1202 25.4661 67.4101 25.1136 66.7 24.9726C65.9189 24.7611 64.9958 24.6906 64.2146 24.4792C61.3742 24.0562 58.5338 23.6332 55.5514 23.7742C55.1963 26.8761 54.3442 29.7664 53.9182 32.8683C53.2791 37.4506 52.711 41.751 52.995 46.6153C52.995 47.1792 53.1371 48.0252 52.569 48.4482C52.2849 48.7302 51.5038 48.7302 51.1488 48.3777C50.7937 47.9547 50.6517 47.4612 50.5807 46.9678C50.5097 46.4743 50.5807 45.9103 50.5097 45.3463C50.4387 37.9441 51.6458 31.0354 53.1371 23.8447C52.782 23.9152 52.427 23.9857 52.0719 23.9152C51.4328 23.5627 51.5748 22.9282 51.8589 22.6462C52.1429 22.0822 52.64 21.8708 53.1371 21.7298C53.6341 21.5888 54.2022 21.4478 54.6993 21.4478C59.528 21.0953 64.6407 21.8003 69.0433 23.2102C69.8955 23.7037 71.1026 24.2677 71.1736 25.3956C70.5345 32.1633 70.3925 39.1426 70.3215 46.1923Z" stroke="white" stroke-width="2" mask="url(#path-1-outside-1_150_20)"/>
<path d="M86.1107 48.5187C82.5602 48.3777 79.2938 46.7563 77.2345 43.7249C75.5302 41.187 75.1042 38.2261 75.4592 35.3357C75.8853 32.0928 77.2345 28.991 79.0807 26.5941C81.14 23.9152 84.0514 21.8003 87.3889 21.1658C89.6612 20.7428 92.0756 20.9543 93.7798 22.7872C94.5609 23.6332 95.271 24.5496 95.271 25.6776C95.3421 26.8761 94.774 27.9335 93.7798 28.709C88.8091 32.7978 83.5544 36.6047 78.1576 39.7065C78.2996 41.892 80.2169 44.1479 82.2762 45.2758C84.3355 46.4038 86.7498 46.5448 89.0222 46.2628C91.2945 46.0513 93.6378 45.2758 95.271 44.5004C95.5551 44.2889 95.7681 44.5004 95.8391 44.7118C95.9101 44.8528 96.0522 45.1348 95.7681 45.3463C93.2828 47.6022 89.7323 48.6597 86.1107 48.5187ZM89.2352 23.3512C87.1759 23.3512 85.1166 24.1972 83.4834 25.4661C80.0039 28.286 77.9446 32.7978 77.9446 37.1686C82.9863 34.4193 87.744 30.8239 92.3596 27.0875C92.7147 26.8056 92.9987 25.7481 92.5017 24.9021C91.9336 23.7742 90.6554 23.3512 89.2352 23.3512Z" stroke="white" stroke-width="2" mask="url(#path-1-outside-1_150_20)"/>
<path d="M102.378 24.1972H102.023C101.81 24.1972 101.525 24.0562 101.454 23.7037C101.383 23.1397 101.597 22.6462 102.023 22.2232C103.159 21.2363 104.437 20.8133 105.857 20.8838C106.851 20.9543 107.845 21.0953 108.84 21.4478L111.538 22.3642C115.372 23.6332 118.71 27.017 120.556 30.6829C121.55 32.7273 121.905 34.8422 121.408 37.1686C120.911 39.2836 119.633 41.2575 117.929 42.8789C113.668 46.8973 108.342 48.0957 102.449 48.0957C102.378 52.8895 102.094 58.2473 102.733 62.9706C102.733 63.1821 102.875 63.4641 103.017 63.6756C103.088 64.0281 103.23 64.3101 102.946 64.733C102.378 65.156 101.81 65.015 101.312 64.733C100.602 63.9576 100.318 63.1116 100.247 62.1246C99.7502 57.1193 99.9633 52.255 100.247 47.1792C99.6082 46.6153 98.6141 45.8398 98.401 44.9938C98.401 44.7118 98.4721 44.4299 98.6141 44.2889C98.8271 43.9364 99.1111 43.8659 99.2532 44.0069C99.4662 44.2184 99.8923 44.5004 100.247 44.7118C100.673 37.6621 101.17 30.9649 102.378 24.1972ZM116.438 28.7795C114.875 26.8761 112.674 25.5366 110.544 24.6201C109.337 24.0562 105.928 22.7872 104.65 23.3512C104.721 24.3382 104.579 26.1006 104.437 26.8761C103.443 32.8683 102.804 39.2836 102.733 45.6283C107.632 45.9808 112.319 44.5004 116.083 41.2575C118.142 39.4951 119.349 37.0276 119.136 34.4897C118.994 32.3748 117.645 30.2599 116.438 28.7795Z" stroke="white" stroke-width="2" mask="url(#path-1-outside-1_150_20)"/>
<path d="M139.399 43.7954C137.837 45.3463 135.99 46.6858 133.931 47.5317C132.156 48.2367 130.097 48.4482 127.966 47.8137C127.895 48.1662 127.611 48.5892 127.256 48.5892C126.12 48.1662 125.694 47.1087 125.481 46.1923C124.984 37.6621 125.907 29.273 127.398 21.3068C127.753 20.5313 129.173 20.1083 129.599 21.2363C129.173 25.3251 128.392 29.414 128.179 33.5028C130.665 31.5994 133.86 30.6829 136.985 31.3879C139.044 31.8814 141.103 33.7143 141.742 35.7587C142.736 38.7196 141.671 41.6805 139.399 43.7954ZM136.416 33.8553C133.221 33.0798 130.239 34.4897 127.966 36.8867C127.966 39.4951 127.966 43.4429 127.895 45.6283C129.742 46.0513 131.588 45.8398 133.221 45.1348C135.351 44.2889 137.269 42.6674 138.76 40.764C139.825 39.4246 139.896 37.3096 139.044 35.8292C138.547 34.8422 137.411 34.0668 136.416 33.8553Z" stroke="white" stroke-width="2" mask="url(#path-1-outside-1_150_20)"/>
<path d="M185.99 46.1923C185.99 46.7563 185.351 46.8973 184.996 46.8268C184.215 46.5448 184.073 45.2758 183.931 44.5709C183.718 43.3019 183.718 42.033 183.718 40.6935V36.3932C183.718 33.0798 184.144 29.4844 184.215 26.1006C183.789 25.4661 183.079 25.1136 182.369 24.9726C181.588 24.7611 180.665 24.6906 179.884 24.4792C177.043 24.0562 174.203 23.6332 171.22 23.7742C170.865 26.8761 170.013 29.7664 169.587 32.8683C168.948 37.4506 168.38 41.751 168.664 46.6153C168.664 47.1792 168.806 48.0252 168.238 48.4482C167.954 48.7302 167.173 48.7302 166.818 48.3777C166.463 47.9547 166.321 47.4612 166.25 46.9678C166.179 46.4743 166.25 45.9103 166.179 45.3463C166.108 37.9441 167.315 31.0354 168.806 23.8447C168.451 23.9152 168.096 23.9857 167.741 23.9152C167.102 23.5627 167.244 22.9282 167.528 22.6462C167.812 22.0822 168.309 21.8708 168.806 21.7298C169.303 21.5888 169.871 21.4478 170.368 21.4478C175.197 21.0953 180.31 21.8003 184.712 23.2102C185.564 23.7037 186.772 24.2677 186.843 25.3956C186.203 32.1633 186.061 39.1426 185.99 46.1923Z" stroke="white" stroke-width="2" mask="url(#path-1-outside-1_150_20)"/>
<path d="M194.608 24.1972H194.253C194.04 24.1972 193.755 24.0562 193.684 23.7037C193.613 23.1397 193.827 22.6462 194.253 22.2232C195.389 21.2363 196.667 20.8133 198.087 20.8838C199.081 20.9543 200.075 21.0953 201.07 21.4478L203.768 22.3642C207.602 23.6332 210.94 27.017 212.786 30.6829C213.78 32.7273 214.135 34.8422 213.638 37.1686C213.141 39.2836 211.863 41.2575 210.159 42.8789C205.898 46.8973 200.572 48.0957 194.679 48.0957C194.608 52.8895 194.324 58.2473 194.963 62.9706C194.963 63.1821 195.105 63.4641 195.247 63.6756C195.318 64.0281 195.46 64.3101 195.176 64.733C194.608 65.156 194.04 65.015 193.542 64.733C192.832 63.9576 192.548 63.1116 192.477 62.1246C191.98 57.1193 192.193 52.255 192.477 47.1792C191.838 46.6153 190.844 45.8398 190.631 44.9938C190.631 44.7118 190.702 44.4299 190.844 44.2889C191.057 43.9364 191.341 43.8659 191.483 44.0069C191.696 44.2184 192.122 44.5004 192.477 44.7118C192.903 37.6621 193.4 30.9649 194.608 24.1972ZM208.668 28.7795C207.105 26.8761 204.904 25.5366 202.774 24.6201C201.567 24.0562 198.158 22.7872 196.88 23.3512C196.951 24.3382 196.809 26.1006 196.667 26.8761C195.673 32.8683 195.034 39.2836 194.963 45.6283C199.862 45.9808 204.549 44.5004 208.313 41.2575C210.372 39.4951 211.579 37.0276 211.366 34.4897C211.224 32.3748 209.875 30.2599 208.668 28.7795Z" stroke="white" stroke-width="2" mask="url(#path-1-outside-1_150_20)"/>
<path d="M232.836 46.8268C229.641 48.4482 225.806 49.1532 222.327 47.4612C219.628 46.1218 217.711 43.8659 216.788 41.046C215.723 37.7326 216.078 33.9963 217.498 30.8944C218.563 28.6385 220.196 26.6646 222.114 25.1841C223.392 24.2677 225.309 23.1397 227.084 22.9282C228.504 21.3068 230.848 20.8133 232.836 21.3068C236.245 22.2232 239.156 25.6776 240.079 28.709C241.002 31.6699 241.215 34.9127 240.363 37.9441C239.298 42.033 236.6 44.9938 232.836 46.8268ZM237.736 29.4844C236.884 27.158 234.966 24.5496 232.481 23.7037C231.345 23.2807 230.138 23.1397 229.215 23.8447C228.291 24.5496 227.723 25.6776 227.297 26.6646C227.226 26.8761 227.226 27.158 227.226 27.44C227.226 27.722 227.226 28.0745 227.155 28.3565C227.084 28.4975 226.374 28.9205 226.161 28.4975C226.019 27.863 225.877 26.5941 225.948 25.6071C223.25 26.7351 220.977 29.0615 219.699 31.6699C218.35 34.4193 218.279 37.5916 219.131 40.4115C219.841 42.5969 221.19 44.4299 223.463 45.3463C226.303 46.4038 229.357 46.0513 231.913 44.7823C234.824 43.3019 236.884 41.046 237.878 38.0146C238.801 35.3357 238.659 32.1633 237.736 29.4844Z" stroke="white" stroke-width="2" mask="url(#path-1-outside-1_150_20)"/>
<path d="M277.792 46.6153C275.661 48.0252 273.034 49.1532 270.407 49.1532C268.915 49.1532 267.85 48.5187 266.856 47.1087C266.501 47.3907 265.862 47.6022 265.578 47.1792C264.3 45.4168 263.945 42.9494 263.874 40.5525C263.732 34.4193 263.803 29.9074 265.436 24.4087C265.578 23.8447 266.927 22.7872 267.921 23.0692C268.347 21.9412 269.483 20.7428 270.833 20.6018C274.454 20.6018 278.36 22.5052 279.567 26.1006C279.922 27.2285 279.922 28.427 279.496 29.5549C279.07 30.6124 278.36 31.5289 277.437 32.2338L277.01 32.5863C278.786 33.1503 280.774 34.2783 281.91 36.0407C282.762 37.3801 282.833 39.0016 282.478 40.5525C281.839 43.0904 279.993 45.1348 277.792 46.6153ZM279.78 37.2391C279.212 36.1817 277.65 35.5472 276.513 34.9832C275.164 34.1373 273.957 34.4897 272.608 34.7717L270.478 35.2652C269.696 35.4767 268.915 35.4767 268.063 35.2652C267.708 35.0537 267.282 34.3488 267.637 33.9963C268.489 33.1503 269.554 32.7273 270.762 32.4453L274.028 32.0928C275.306 31.3879 276.655 29.9779 277.224 28.6385C277.579 27.5105 277.366 26.7351 276.655 25.8186C275.377 24.0562 273.318 23.2807 271.259 23.0692C270.62 22.9987 270.407 23.1397 270.265 23.5627C270.051 24.1267 269.909 24.7611 269.554 25.2546C269.412 25.6071 268.915 25.7481 268.56 25.5366C268.276 25.4661 268.063 25.3251 267.921 25.1841C267.069 28.2155 266.572 31.6699 266.43 35.2652C266.288 38.6491 266.43 41.9625 266.927 45.0643C267.495 44.4299 268.205 43.5134 268.56 43.0199C269.057 42.5264 269.98 43.3019 269.838 43.7954C269.696 44.1479 269.412 44.5709 269.199 44.9233C269.057 45.3463 268.844 45.6988 268.844 45.9808C269.27 46.6153 270.265 46.8268 271.472 46.6858C273.247 46.4038 275.377 45.4168 276.939 44.2184C278.36 43.0904 279.567 41.6805 279.922 39.918C280.135 39.0721 280.277 38.0851 279.78 37.2391Z" stroke="white" stroke-width="2" mask="url(#path-1-outside-1_150_20)"/>
<path d="M299.419 48.2367C295.514 49.2942 290.969 49.2237 287.916 46.6153C286.495 45.4168 285.43 43.6544 285.359 41.751C285.288 40.059 285.998 38.5081 286.992 37.0981C289.194 33.9963 293.028 31.8814 296.721 31.4584C298.283 31.3174 299.703 31.5289 300.839 32.6568C301.194 33.0093 300.839 33.7143 300.484 33.8553H299.845C299.632 33.8553 299.348 33.7848 299.135 33.7848C298.638 33.7143 298.212 33.6438 297.928 33.8553C294.519 33.9963 291.182 35.6177 289.123 38.3671C288.2 39.5655 287.703 40.482 287.845 41.9625C287.987 43.9364 289.478 45.4168 291.537 46.1218C294.448 47.1792 298.07 46.5448 300.839 45.5578C302.331 44.9938 303.68 44.4299 304.958 43.5134C305.242 43.3019 305.526 43.5134 305.668 43.8659C305.739 44.1479 305.739 44.4299 305.739 44.6413C304.745 46.5448 300.768 47.8842 299.419 48.2367ZM303.396 43.4429C303.041 43.8659 302.402 43.7954 302.118 43.5839C301.408 43.0904 301.407 42.1739 301.407 41.469C301.478 40.2705 301.692 39.0721 301.976 37.8031L302.899 33.9258C303.467 31.3879 303.822 28.85 303.041 26.7351C302.402 24.9021 300.839 23.0692 298.922 22.8577C297.289 22.6462 295.656 23.2102 294.306 24.1972C293.596 24.6906 292.034 26.0301 291.608 26.8056C291.537 27.0875 291.679 27.581 291.963 27.863C292.247 28.145 292.034 28.991 291.395 28.85C290.898 28.709 290.33 28.568 289.904 28.2155C289.336 27.722 289.123 26.8056 289.549 26.1006C290.756 24.0562 292.46 22.3642 294.661 21.3773C296.082 20.6723 297.786 20.3903 299.561 20.6723C301.692 21.0248 303.538 22.5757 304.603 24.5496C306.236 27.581 306.023 31.3879 305.242 34.7717C304.532 37.6621 303.822 40.341 303.396 43.4429Z" stroke="white" stroke-width="2" mask="url(#path-1-outside-1_150_20)"/>
<path d="M322.072 48.2367C319.374 48.5892 316.533 48.3777 313.835 46.7563C310.284 44.6413 308.722 40.9755 308.935 36.8867C309.148 33.7143 310.142 30.7534 311.918 28.0745C313.693 25.3956 316.178 23.2102 319.161 21.8003C320.723 21.0248 322.853 20.6723 324.557 21.3773C325.978 21.9413 327.469 23.4217 327.753 24.8316C327.895 25.2546 327.185 26.1711 326.617 25.7481C325.836 25.0431 324.841 24.1267 323.847 23.7037C322.853 23.2807 321.93 23.2102 320.865 23.6332C318.095 24.7611 315.539 26.9466 313.835 29.5549C312.273 31.9519 311.349 34.7717 311.278 37.6621C311.278 40.2705 312.273 42.7379 314.474 44.3594C316.533 45.8398 319.232 46.1923 321.717 45.9808C325.907 45.6283 329.599 43.8659 333.292 42.2444C333.718 42.2444 334.357 42.9494 334.002 43.4429C330.451 45.4168 326.404 47.6022 322.072 48.2367Z" stroke="white" stroke-width="2" mask="url(#path-1-outside-1_150_20)"/>
<path d="M345.923 4.81043L345.426 6.99585C344.645 10.3092 344.574 13.7636 344.574 17.2179C344.503 22.2937 344.858 27.44 345.355 32.3043C345.213 33.0093 345.142 33.7848 344.29 33.9258C343.438 32.9388 343.225 31.8109 343.083 30.7534C342.515 25.6071 342.16 20.3198 342.302 15.103C342.444 11.0142 342.941 6.92535 343.935 2.97751C344.077 2.69552 344.29 1.92005 345 1.77906C345.426 1.70856 346.136 1.84955 346.349 2.48403C346.278 3.2595 346.136 4.03497 345.923 4.81043ZM347.982 49.3647C345.497 48.5892 343.722 45.9808 343.083 43.7249C343.012 42.9494 343.225 42.3854 343.864 42.033C344.574 41.892 345.071 42.5264 345.213 42.9494C345.426 43.7249 345.781 44.3594 346.207 45.0643C347.059 46.2628 347.982 47.3202 348.834 48.5187C348.905 49.0122 348.337 49.4352 347.982 49.3647Z" stroke="white" stroke-width="2" mask="url(#path-1-outside-1_150_20)"/>
<path d="M376.835 16.09C376.48 16.513 376.125 16.8655 375.557 17.2179C374.847 17.2884 374.279 17.2179 373.782 16.936C372.22 16.231 370.444 15.103 369.166 14.1866C369.095 16.4425 368.882 18.7689 369.166 20.9543C369.024 22.0822 367.746 21.5888 367.604 21.3068C367.462 21.1658 367.32 21.0248 367.249 20.8133C367.107 20.6723 366.965 20.4608 366.894 20.2493C366.752 19.6148 366.752 18.9804 366.752 18.4164C366.823 17.2179 366.894 15.949 366.894 14.7505C365.261 16.3015 363.272 17.6409 361.142 18.4164C360.645 18.4869 359.864 18.4869 359.296 17.9934C358.444 17.2884 359.225 16.09 360.219 15.4555L360.716 16.372C361.213 16.231 361.71 15.8785 362.207 15.667C363.698 14.7505 365.19 13.4111 366.397 12.0716C364.124 10.2387 361.852 7.98281 359.935 5.93839C359.438 5.51541 359.651 4.88093 359.864 4.52844C360.503 3.68248 361.497 4.24646 361.71 4.45795C363.343 6.22038 365.048 7.91231 366.823 9.53375C366.823 7.63032 366.894 5.7269 366.752 3.96447L366.184 2.34303C366.113 1.92005 366.397 0.933087 367.32 1.00359C367.959 1.21508 368.314 1.70856 368.598 2.27254L368.811 2.76602C369.024 3.2595 369.166 4.17596 369.166 4.66944V8.54679L369.379 8.1943L370.87 6.22038C371.367 5.51541 372.078 4.95143 372.93 4.45795C374.066 3.82347 376.196 4.45795 375.557 6.57287C375.06 6.50237 374.918 6.43187 374.705 6.36137C374.563 6.36137 374.421 6.29088 374.137 6.22038C373.711 6.07938 372.291 7.98281 372.078 8.2648C371.225 9.39275 370.515 10.5912 369.592 11.7897C371.296 13.0586 373.143 14.1866 375.202 15.1735C375.344 14.962 375.486 14.8915 375.628 14.821C375.77 14.68 375.912 14.6095 376.409 14.3981C376.977 14.962 377.048 15.385 376.977 15.667C376.906 15.808 376.835 15.8785 376.835 16.09Z" stroke="white" stroke-width="2" mask="url(#path-1-outside-1_150_20)"/>
</svg>
