<svg width="101" height="23" fill="none" xmlns="http://www.w3.org/2000/svg"><path d="M10.257 6.456c-.242 2.478-.103 5.375.07 7.819.034.244-.312.28-.485.175-.484-.384-.726-1.397-.76-2.025a52.696 52.696 0 0 1 0-5.725c-2.559.105-5.325.035-7.85.314-.103 2.34-.034 4.573.07 6.807.035.07-.104.175-.277.21-.103 0-.276-.035-.38-.14-.45-.454-.553-1.292-.588-1.85-.173-3.526.07-7.051.415-10.507.07-.21.38-.419.657-.244.38.174.38.628.45.977-.07.908-.173 2.443-.277 3.526 2.524-.175 5.325-.07 7.849-.105.138-1.71.207-3.421.622-5.027.173-.21.519-.07.726.14.173.21.277.628.277.873-.173 1.326-.415 2.618-.45 3.979.104 0 .208-.035.312-.035.069 0 .172.07.172.244 0 .07 0 .21-.069.28-.103.14-.31.244-.484.314zM17.998 14.345c-1.728-.07-3.319-.873-4.322-2.374-.83-1.257-1.037-2.723-.864-4.154a9.266 9.266 0 0 1 1.763-4.328c1.003-1.327 2.42-2.374 4.046-2.688 1.106-.21 2.282-.105 3.112.803.38.419.726.872.726 1.43.034.594-.242 1.118-.726 1.502-2.42 2.025-4.98 3.91-7.607 5.445.069 1.082 1.003 2.2 2.005 2.758 1.003.559 2.179.628 3.285.489 1.107-.105 2.247-.489 3.043-.873.138-.105.242 0 .276.105.035.07.104.21-.034.314-1.21 1.117-2.94 1.64-4.703 1.57zM19.52 1.883c-1.003 0-2.006.419-2.8 1.047-1.695 1.396-2.698 3.63-2.698 5.795 2.455-1.362 4.772-3.142 7.02-4.992.172-.14.31-.663.068-1.082-.276-.559-.899-.768-1.59-.768zM44.429 6.456c-.242 2.478-.104 5.375.069 7.819.034.244-.311.28-.484.175-.484-.384-.726-1.397-.76-2.025a52.711 52.711 0 0 1 0-5.725c-2.56.105-5.326.035-7.85.314-.104 2.34-.034 4.573.07 6.807.034.07-.104.175-.277.21-.104 0-.277-.035-.38-.14-.45-.454-.554-1.292-.588-1.85-.173-3.526.069-7.051.415-10.507.069-.21.38-.419.657-.244.38.174.38.628.449.977-.07.908-.173 2.443-.277 3.526 2.524-.175 5.325-.07 7.85-.105.138-1.71.207-3.421.622-5.027.172-.21.518-.07.726.14.173.21.276.628.276.873-.172 1.326-.415 2.618-.45 3.979.105 0 .208-.035.312-.035.07 0 .173.07.173.244 0 .07 0 .21-.07.28-.103.14-.31.244-.483.314zM54.936 11.447c-1.625 3.561-2.904 7.226-4.15 10.926-.103.21-.587.28-.69 0-.174-.314-.07-1.152 0-1.466.552-2.373 1.555-4.573 2.385-6.841-1.003-1.502-2.282-3.561-3.25-5.341-1.21-2.27-2.213-4.643-2.593-7.26a.798.798 0 0 1 .415-.839c.207-.07.345.035.449.14.104.105.173.244.242.384.346 2.094 1.037 4.05 1.902 5.9.968 1.989 2.109 3.874 3.388 5.759.796-1.745 1.625-3.49 2.524-5.201.9-1.746 1.902-3.421 3.112-5.062.242-.314.588-.663.9-.488.207.104.38.418.207.663-1.833 2.827-3.458 5.724-4.841 8.726zM69.014 7.119c0 .105 0 .28-.035.419 1.245.803 2.386 1.815 3.493 2.932 1.106 1.082 2.213 2.27 3.319 3.351.173.14-.104.384-.207.384-.554-.21-.969-.523-1.453-.873-.38-.314-.795-.698-1.244-1.012a58.579 58.579 0 0 0-3.873-3.386c-.07 1.815.138 3.526.346 5.306-.07.28-.38.314-.588.21-.242-.384-.346-.803-.45-1.222-.069-.42-.138-.873-.207-1.292-.207-1.291-.207-2.478-.207-3.874l-.139-.105c-1.694 1.187-3.527 2.653-5.152 3.944-.069 0-.173.035-.276.07-.104 0-.242 0-.312-.105-.138-.104-.103-.244-.069-.349.035-.104.104-.21.173-.314a52.751 52.751 0 0 1 4.703-3.84c-1.66-1.186-3.423-2.234-5.187-3.211-.346-.244-.795-.628-.691-1.187.138-.28.553-.21.726-.105 2.144 1.152 4.218 2.34 6.154 3.805l.104-.07c.035-1.85.138-3.979.726-5.83.277-.418.76-.034.83.28.07 1.606-.346 3.107-.38 4.713 2.247-1.397 4.564-2.898 6.95-4.224a.86.86 0 0 1 .657.035c.172.105.345.454.172.733-2.593 1.606-5.29 3.107-7.883 4.817zM83.64 14.345c-1.729-.07-3.32-.873-4.322-2.374-.83-1.257-1.037-2.723-.865-4.154a9.265 9.265 0 0 1 1.764-4.328c1.002-1.327 2.42-2.374 4.045-2.688 1.107-.21 2.282-.105 3.112.803.38.419.726.872.726 1.43.035.594-.242 1.118-.726 1.502-2.42 2.025-4.979 3.91-7.607 5.445.07 1.082 1.003 2.2 2.006 2.758 1.002.559 2.178.628 3.285.489 1.106-.105 2.247-.489 3.042-.873.139-.105.242 0 .277.105.034.07.104.21-.035.314-1.21 1.117-2.939 1.64-4.702 1.57zM85.16 1.883c-1.002 0-2.005.419-2.8 1.047-1.695 1.396-2.697 3.63-2.697 5.795 2.454-1.362 4.771-3.142 7.019-4.992.172-.14.31-.663.069-1.082-.277-.559-.9-.768-1.59-.768zM100.447 6.456c-.242 2.478-.104 5.375.069 7.819.034.244-.311.28-.484.175-.484-.384-.726-1.397-.76-2.025a52.66 52.66 0 0 1 0-5.725c-2.56.105-5.326.035-7.85.314-.103 2.34-.034 4.573.07 6.807.034.07-.104.175-.277.21-.104 0-.277-.035-.38-.14-.45-.454-.554-1.292-.588-1.85-.173-3.526.069-7.051.415-10.507.069-.21.38-.419.657-.244.38.174.38.628.45.977-.07.908-.174 2.443-.278 3.526 2.525-.175 5.325-.07 7.85-.105.138-1.71.207-3.421.622-5.027.173-.21.518-.07.726.14.173.21.276.628.276.873-.172 1.326-.415 2.618-.449 3.979.104 0 .207-.035.311-.035.069 0 .173.07.173.244 0 .07 0 .21-.069.28-.104.14-.311.244-.484.314z" fill="#262626"/></svg>