<svg width="126" height="31" fill="none" xmlns="http://www.w3.org/2000/svg"><path d="M16.767 22.702c-.238-.033-.374-.167-.476-.334l-.102-.167c-1.255-2.67-1.798-5.676-1.832-8.848a52.004 52.004 0 0 1-1.392 3.139c-.577 1.168-1.222 2.304-2.138 3.372-.407.5-1.188.568-1.799.434-.509-.234-.848-.801-1.086-1.269-1.29-2.437-1.9-5.175-2.546-7.846 0-.033-.033-.067-.067-.033-2.105 3.038-3.327 6.444-4.175 10.05-.136.334.17.634.204.968.067.2-.068.4-.34.5-.373.034-.679-.266-.848-.534-.238-.567-.204-1.201-.034-1.77 1.12-3.605 2.274-7.178 4.65-10.316.305-.2.61-.2.882-.134.34 0 .645.334.679.568.747 2.871 1.357 5.81 2.817 8.414.204.267.475.434.78.334.781-.735 1.29-1.636 1.8-2.538 1.018-1.836 1.73-3.773 2.51-5.776l.17-.234c.102-.1.17-.167.34-.167.34-.1.577.134.713.367-.068 2.07-.034 4.007.203 5.91.238 1.903.68 3.773 1.392 5.576.034.234-.204.334-.305.334zM29.02 15.156c-.237 2.37-.102 5.142.068 7.48.034.233-.305.266-.475.166-.475-.367-.713-1.335-.747-1.936a49.127 49.127 0 0 1 0-5.476c-2.511.1-5.226.033-7.704.3-.102 2.237-.034 4.374.068 6.511.034.067-.102.167-.272.2-.102 0-.271-.033-.373-.133-.441-.434-.543-1.235-.577-1.77-.17-3.372.068-6.744.407-10.05.068-.2.373-.4.645-.233.373.167.373.6.441.935-.068.868-.17 2.337-.271 3.372 2.477-.167 5.226-.067 7.704-.1.136-1.636.204-3.272.611-4.808.17-.2.51-.067.713.133.17.2.271.601.271.835-.17 1.269-.407 2.504-.44 3.806.1 0 .203-.033.305-.033.068 0 .17.067.17.234 0 .066 0 .2-.069.267-.101.133-.305.233-.475.3zM36.619 22.702c-1.697-.067-3.258-.835-4.243-2.27-.814-1.202-1.018-2.605-.848-3.974a8.741 8.741 0 0 1 1.73-4.14c.985-1.269 2.377-2.27 3.972-2.57 1.086-.201 2.24-.1 3.054.767.374.4.713.835.713 1.37.034.567-.237 1.068-.713 1.435-2.375 1.936-4.887 3.74-7.466 5.209.068 1.035.984 2.103 1.968 2.637.984.534 2.138.601 3.224.468 1.087-.1 2.207-.468 2.987-.835.136-.1.238 0 .272.1.034.067.102.2-.034.3-1.188 1.069-2.885 1.57-4.616 1.503zm1.493-11.92c-.984 0-1.968.401-2.749 1.002-1.663 1.335-2.647 3.472-2.647 5.542 2.41-1.302 4.684-3.005 6.89-4.774.17-.134.305-.634.067-1.035-.271-.534-.882-.735-1.56-.735zM62.563 15.156c-.238 2.37-.102 5.142.068 7.48.034.233-.306.266-.475.166-.476-.367-.713-1.335-.747-1.936a49.127 49.127 0 0 1 0-5.476c-2.512.1-5.227.033-7.705.3-.102 2.237-.034 4.374.068 6.511.034.067-.102.167-.271.2-.102 0-.272-.033-.374-.133-.44-.434-.543-1.235-.577-1.77-.17-3.372.068-6.744.408-10.05.068-.2.373-.4.645-.233.373.167.373.6.44.935-.067.868-.169 2.337-.27 3.372 2.477-.167 5.226-.067 7.704-.1.135-1.636.203-3.272.61-4.808.17-.2.51-.067.713.133.17.2.272.601.272.835-.17 1.269-.407 2.504-.441 3.806.102 0 .203-.033.305-.033.068 0 .17.067.17.234 0 .066 0 .2-.068.267-.102.133-.305.233-.475.3zM72.877 19.93c-1.596 3.407-2.851 6.912-4.073 10.451-.102.2-.577.268-.679 0-.17-.3-.068-1.101 0-1.402.543-2.27 1.527-4.374 2.342-6.544-.984-1.436-2.24-3.406-3.19-5.108-1.188-2.17-2.173-4.441-2.546-6.945-.068-.334.136-.668.407-.802.204-.066.34.034.441.134.102.1.17.234.238.367.34 2.004 1.018 3.873 1.867 5.643.95 1.903 2.07 3.706 3.326 5.509a97.098 97.098 0 0 1 2.477-4.975 35.094 35.094 0 0 1 3.055-4.841c.238-.3.577-.635.883-.468.203.1.373.4.203.635-1.799 2.704-3.394 5.475-4.751 8.347zM86.696 15.79c0 .1 0 .268-.034.401 1.221.768 2.341 1.736 3.428 2.805 1.086 1.035 2.172 2.17 3.258 3.205.17.134-.102.367-.204.367-.543-.2-.95-.5-1.425-.834-.374-.3-.78-.668-1.222-.969a57.1 57.1 0 0 0-3.801-3.238c-.068 1.736.135 3.372.339 5.075-.068.267-.373.3-.577.2-.238-.367-.34-.768-.441-1.168-.068-.401-.136-.835-.204-1.236-.204-1.235-.204-2.37-.204-3.706l-.135-.1c-1.663 1.135-3.462 2.538-5.057 3.773-.068 0-.17.033-.272.067-.102 0-.237 0-.305-.1-.136-.1-.102-.234-.068-.334.034-.1.102-.2.17-.3a51.55 51.55 0 0 1 4.615-3.674c-1.629-1.135-3.36-2.137-5.09-3.071-.34-.234-.781-.601-.68-1.136.136-.267.544-.2.713-.1 2.105 1.102 4.141 2.237 6.042 3.64l.102-.067c.033-1.77.135-3.806.712-5.576.272-.4.747-.033.815.267.068 1.536-.34 2.972-.374 4.508 2.207-1.336 4.48-2.772 6.822-4.04a.865.865 0 0 1 .645.033c.17.1.34.434.17.701-2.546 1.536-5.193 2.972-7.738 4.608zM101.052 22.702c-1.697-.067-3.258-.835-4.242-2.27-.815-1.202-1.018-2.605-.849-3.974a8.74 8.74 0 0 1 1.731-4.14c.985-1.269 2.376-2.27 3.971-2.57 1.086-.201 2.24-.1 3.055.767.373.4.713.835.713 1.37.034.567-.238 1.068-.713 1.435-2.376 1.936-4.888 3.74-7.467 5.209.068 1.035.984 2.103 1.969 2.637.984.534 2.138.601 3.224.468 1.086-.1 2.206-.468 2.987-.835.135-.1.237 0 .271.1.034.067.102.2-.034.3-1.188 1.069-2.885 1.57-4.616 1.503zm1.494-11.92c-.985 0-1.969.401-2.75 1.002-1.663 1.335-2.647 3.472-2.647 5.542 2.41-1.302 4.684-3.005 6.89-4.774.17-.134.306-.634.068-1.035-.272-.534-.882-.735-1.561-.735zM117.55 15.156c-.238 2.37-.102 5.142.068 7.48.034.233-.306.266-.475.166-.475-.367-.713-1.335-.747-1.936a49.03 49.03 0 0 1 0-5.476c-2.512.1-5.227.033-7.704.3-.102 2.237-.034 4.374.067 6.511.034.067-.101.167-.271.2-.102 0-.272-.033-.373-.133-.442-.434-.543-1.235-.577-1.77-.17-3.372.067-6.744.407-10.05.068-.2.373-.4.645-.233.373.167.373.6.441.935-.068.868-.17 2.337-.272 3.372 2.478-.167 5.227-.067 7.705-.1.136-1.636.204-3.272.611-4.808.169-.2.509-.067.713.133.169.2.271.601.271.835-.17 1.269-.407 2.504-.441 3.806.102 0 .203-.033.305-.033.068 0 .17.067.17.234 0 .066 0 .2-.068.267-.102.133-.305.233-.475.3zM124.606 2.001l-.238 1.035c-.373 1.57-.407 3.205-.407 4.842-.034 2.403.135 4.84.373 7.145-.068.334-.102.7-.509.768-.407-.468-.509-1.002-.577-1.503-.272-2.437-.441-4.941-.373-7.412.067-1.937.305-3.873.78-5.743.068-.134.17-.5.509-.568.204-.033.543.034.645.334a6.362 6.362 0 0 1-.203 1.102zm.984 21.102c-1.188-.368-2.037-1.603-2.342-2.671-.034-.368.068-.635.373-.802.34-.066.577.234.645.434.102.368.272.668.475 1.002.408.568.849 1.069 1.256 1.636.034.234-.237.434-.407.4z" fill="#262626"/></svg>