<svg width="375" height="2531" fill="none" xmlns="http://www.w3.org/2000/svg"><path d="M-962.685 0c249.955 259.832 798.71 722.117 1455.877 1027.91C1383.74 1442.3 1239.45 2695.99-962.685 3044c386.726-174.01 1611.363-706.9 1533.62-1283.29C493.192 1184.32-1160.12 1230.01-962.685 0z" fill="#CBD49D"/><path d="M570.935 1760.71C648.678 2337.1-575.959 2869.99-962.685 3044c533.477-337.14 1378.845-1114.72 492.507-1527.98C-1356.52 1102.75-1167.82 333.146-962.685 0-1160.12 1230.01 493.192 1184.32 570.935 1760.71z" fill="#95BC90"/><path d="M-962.685 0c-205.135 333.146-393.835 1102.75 492.507 1516.02C416.16 1929.28-429.208 2706.86-962.685 3044c461.1-319.01 1159.487-1063.61 264.241-1489.92C-1593.69 1127.77-1247.62 340.396-962.685 0z" fill="#CBD49D"/><path d="M-962.685 0c-284.935 340.396-631.005 1127.77 264.241 1554.08C196.802 1980.39-501.585 2724.99-962.685 3044c838.114-1033.16 492.507-1179.97 175.162-1364.85C-1847.57 1113.63-1345.98 324.083-962.685 0z" fill="#95BC90"/></svg>