<svg width="1440" height="2768" fill="none" xmlns="http://www.w3.org/2000/svg"><path d="M-420.97 0C-27.817 476.729 835.32 1324.91 1868.98 1885.96 3269.72 2646.27 3042.77 4946.48-420.97 5585c608.281-319.26 2534.51-1296.98 2412.23-2354.52C1868.98 2172.94-731.511 2256.76-420.97 0z" fill="#CBD49D"/><path d="M1991.26 3230.48C2113.54 4288.02 187.311 5265.74-420.97 5585c839.104-618.56 2168.78-2045.24 774.663-2803.48C-1040.43 2023.28-743.633 611.242-420.97 0c-310.541 2256.76 2289.95 2172.94 2412.23 3230.48z" fill="#95BC90"/><path d="M-420.97 0c-322.663 611.242-619.46 2023.28 774.663 2781.52C1747.81 3539.76 418.134 4966.44-420.97 5585 304.293 4999.69 1402.79 3633.54-5.346 2851.36-1413.48 2069.18-869.15 624.544-420.97 0z" fill="#CBD49D"/><path d="M-420.97 0C-869.15 624.544-1413.48 2069.18-5.346 2851.36 1402.79 3633.54 304.293 4999.69-420.97 5585 897.299 3689.41 353.693 3420.04-145.458 3080.82-1812.8 2043.24-1023.86 594.614-420.97 0z" fill="#95BC90"/></svg>