<svg width="375" height="3044" fill="none" xmlns="http://www.w3.org/2000/svg"><path d="M544.685 0C294.73 259.832-254.025 722.117-911.192 1027.91-1801.74 1442.3-1657.45 2695.99 544.685 3044c-386.726-174.01-1611.365-706.9-1533.62-1283.29C-911.192 1184.32 742.116 1230.01 544.685 0z" fill="#CBD49D"/><path d="M-988.935 1760.71C-1066.68 2337.1 157.959 2869.99 544.685 3044 11.208 2706.86-834.16 1929.28 52.178 1516.02 938.516 1102.75 749.823 333.146 544.685 0 742.116 1230.01-911.192 1184.32-988.935 1760.71z" fill="#95BC90"/><path d="M544.685 0C749.823 333.146 938.516 1102.75 52.178 1516.02-834.16 1929.28 11.208 2706.86 544.685 3044c-461.1-319.01-1159.487-1063.61-264.241-1489.92C1175.69 1127.77 829.624 340.396 544.685 0z" fill="#CBD49D"/><path d="M544.685 0c284.939 340.396 631.005 1127.77-264.241 1554.08C-614.802 1980.39 83.585 2724.99 544.685 3044-293.429 2010.84 52.178 1864.03 369.523 1679.15 1429.57 1113.63 927.982 324.083 544.685 0z" fill="#95BC90"/></svg>